<?xml version="1.0" encoding="utf-8"?>
<!-- Generator: Adobe Illustrator 24.3.0, SVG Export Plug-In . SVG Version: 6.00 Build 0)  -->
<svg version="1.1" id="Layer_1" xmlns="http://www.w3.org/2000/svg" xmlns:xlink="http://www.w3.org/1999/xlink" x="0px" y="0px"
	 viewBox="0 0 134.57 131.99" style="enable-background:new 0 0 134.57 131.99;" xml:space="preserve">
<style type="text/css">
	.st0{fill:#00A34B;}
	.st1{fill:#FFFFFF;}
</style>
<g>
	<path class="st0" d="M134.07,112.99l-9.09-11.92V8.78c0-4.85-4.42-8.78-9.86-8.78H9.86C4.41,0,0,3.93,0,8.78V123.2
		c0,4.85,4.41,8.79,9.86,8.79h105.26c2.57,0.02,5.07-0.9,7-2.6c1.07-1,12-13.88,12-13.88c0.6-0.73,0.6-1.79,0-2.52"/>
	<path class="st1" d="M14.67,76.49h-2.8l-0.51,2h-2l2.76-9h2.31l2.75,9h-2L14.67,76.49z M14.31,75.08l-1.05-4.13l-1,4.13H14.31z"/>
	<path class="st1" d="M24.19,70.3l-1,1.1c-0.44-0.39-1-0.6-1.58-0.62c-1.2,0-2.08,0.9-2.08,3.23s0.85,3.2,2.1,3.2
		c0.66-0.02,1.29-0.28,1.78-0.72l0.88,1.1c-0.73,0.73-1.71,1.13-2.74,1.12c-2.4,0-4-1.64-4-4.7s1.74-4.67,4-4.67
		C22.52,69.32,23.46,69.66,24.19,70.3z"/>
	<path class="st1" d="M31.58,70.3l-0.91,1.1c-0.46-0.41-1.06-0.63-1.67-0.62c-1.2,0-2.08,0.9-2.08,3.23s0.85,3.2,2.1,3.2
		c0.66-0.02,1.29-0.28,1.78-0.72l0.88,1.1c-0.73,0.73-1.71,1.13-2.74,1.12c-2.4,0-4-1.64-4-4.7s1.74-4.67,4-4.67
		C29.91,69.32,30.85,69.66,31.58,70.3z"/>
	<path class="st1" d="M34.67,78.5h-1.9v-9h1.9V78.5z"/>
	<path class="st1" d="M44.07,74.02c0,2.93-1.52,4.68-4,4.68c-2.48,0-4-1.69-4-4.68s1.53-4.69,4-4.69
		C42.54,69.33,44.07,71.01,44.07,74.02z M38.07,74.02c0,2.34,0.74,3.26,2,3.26s2-0.92,2-3.26s-0.68-3.26-2-3.26
		c-1.32,0-1.96,0.91-1.96,3.26H38.07z M41.8,67.66l-3,1.1l-0.45-0.98l2.79-1.56L41.8,67.66z"/>
	<path class="st1" d="M52.26,78.5h-2.45l-2.84-7.11c0.17,1.2,0.26,2.41,0.26,3.62v3.49H45.5v-9h2.4l2.9,7.12
		c-0.16-1.06-0.25-2.12-0.26-3.19v-3.89h1.72L52.26,78.5z"/>
	<path class="st1" d="M63.75,72.43c0,2.07-1.47,3-3.52,3h-1v3.06h-1.9v-9h2.77C62.36,69.54,63.75,70.47,63.75,72.43z M61.75,72.43
		c0-1.05-0.63-1.52-1.74-1.52h-0.84v3.13h0.87c1.09,0,1.75-0.4,1.75-1.61H61.75z"/>
	<path class="st1" d="M72.51,74.02c0,2.93-1.51,4.68-4,4.68s-4-1.69-4-4.68s1.53-4.69,4-4.69S72.51,71.01,72.51,74.02z M66.51,74.02
		c0,2.34,0.74,3.26,2,3.26s2-0.92,2-3.26s-0.69-3.26-2-3.26s-1.95,0.91-1.95,3.26H66.51z"/>
	<path class="st1" d="M76.82,74.99h-1v3.51h-1.9v-9h2.8c2.39,0,3.61,0.87,3.61,2.68c0.03,1.12-0.71,2.11-1.78,2.42l2.32,3.86h-2.16
		L76.82,74.99z M75.82,73.64h1c1,0,1.54-0.41,1.54-1.42s-0.53-1.32-1.68-1.32h-0.86V73.64z"/>
	<path class="st1" d="M15.53,88.18h-3.24v2.32h2.83v1.38h-2.83v2.47h3.47v1.43h-5.37v-9h5.35L15.53,88.18z"/>
	<path class="st1" d="M19,94.22h3.54l-0.2,1.53H17.1v-9H19V94.22z"/>
	<path class="st1" d="M32.79,87.55l-0.94,1.1c-0.45-0.4-1.03-0.62-1.63-0.63c-1.2,0-2.08,0.91-2.08,3.24s0.85,3.19,2.09,3.19
		c0.66-0.02,1.3-0.28,1.79-0.72l0.88,1.1c-0.73,0.73-1.72,1.13-2.75,1.12c-2.39,0-4-1.64-4-4.69s1.73-4.68,4-4.68
		C31.12,86.56,32.06,86.91,32.79,87.55z"/>
	<path class="st1" d="M35.75,94.22h3.54l-0.21,1.56h-5.24v-9h1.91L35.75,94.22z"/>
	<path class="st1" d="M42.2,95.78h-1.9v-9h1.9V95.78z"/>
	<path class="st1" d="M52.67,95.78H50.8l-0.2-3.64c-0.07-1.28-0.11-2.63-0.07-3.65l-1.52,6.29h-1.8l-1.62-6.34
		c0.07,1.23,0.07,2.47,0,3.7l-0.19,3.6h-1.85l0.7-9h2.42l1.47,6.17l1.39-6.13h2.44L52.67,95.78z"/>
	<path class="st1" d="M58.23,93.78h-2.81l-0.51,2h-2l2.76-9h2.32l2.74,9h-2L58.23,93.78z M57.86,92.37l-1-4.13l-1,4.13H57.86z"/>
	<path class="st1" d="M10.08,55.25l-1-1.93l7.94-4c0.75-0.7,3.56-2.75,8.09,0.52l0.8,0.57c3.85,2.83,5.44,4,11.5-0.88
		c2.07-1.66,4.11-3,5.91-4.19c4.87-3.21,6.39-4.46,5.11-6.57c-1.22,0.61-2.36,1.36-3.39,2.25c-2.74,2.28-5.81,4.13-9.11,5.48
		c-0.37,0.18-0.7,0.31-0.92,0.4c-6.1,2.5-11.89-2.24-12.13-2.44l1.38-1.66c0,0,4.22,3.43,8.66,2.5v-0.2
		c0.73-0.13,1.46-0.33,2.16-0.58c1.33-0.66,1.46-1.11,1.46-1.12c-0.53-0.58-1.26-0.94-2.05-1c-2.31-0.29-4-0.68-8.08-3.61
		c-2.15-1.53-4.77-2.24-7.4-2l-9,4.23l-0.92-1.95l9.29-4.29h0.14c0.84-0.12,1.69-0.15,2.54-0.07c2.21-1.62,4.77-2.69,7.48-3.12
		c-0.22-1.87,0.06-3.77,0.8-5.5c-0.29-0.23-0.67-0.52-1.11-0.83c-2.18,2.55-4.41,2.86-5.89,2.66c-3.59-0.49-7.21-4.36-10.18-10.9
		l-0.66-1.46l1.59-0.07c8.69-0.36,13.63,0.82,15.07,3.62c0.54,1.11,0.54,2.4,0,3.51c0.91,0.57,1.69,1.14,2.25,1.57
		c2.12-3,5.85-5,11.09-6.09l0.43,2.11c-4.69,1-8,2.71-9.77,5.24c1.87,1.01,4.04,1.33,6.13,0.9c3.67-0.79,7.07-3.88,10.12-9.18
		c-3.24-1.06-8.5-2.47-12.36-0.5c-2.19,1.21-3.78,3.29-4.38,5.72l-2-0.61c0.76-2.99,2.72-5.52,5.43-7c5.21-2.66,12-0.32,15.26,0.8
		l1.2,0.41l-0.6,1.12c-3.55,6.54-7.66,10.37-12.29,11.34c-2.57,0.53-5.24,0.13-7.55-1.11c-0.47,1.28-0.63,2.65-0.46,4
		c4.14-0.09,9.26,1.4,14.72,6.73c1.44-1,2.53-1.63,3.53-1.45c0.53,0.09,0.99,0.4,1.27,0.86c2.66,4.16-1.2,6.7-5.68,9.65
		c-1.76,1.16-3.75,2.48-5.74,4.08c-7,5.64-9.67,4.2-14.13,0.93l-0.78-0.56c-3.55-2.57-5.2-0.88-5.37-0.68l-0.14,0.15l-0.2,0.11
		L10.08,55.25z M24.08,35.25c1.29,0.42,2.5,1.05,3.59,1.85c3.93,2.82,5.25,3,7.09,3.22c1.37,0.17,3.45,1,3.86,2.57
		c1.74-1.05,3.41-2.21,5-3.48c-8.75-8.41-16.22-6-19.56-4.13L24.08,35.25z M14.83,17.58c2.44,4.82,5.29,7.84,7.84,8.2
		c1.47,0.11,2.89-0.53,3.77-1.71c-1.73-1.17-3.76-1.82-5.85-1.88l-0.15-2.15c2.06-0.02,4.08,0.5,5.88,1.5c0.2-0.46,0.2-0.99,0-1.45
		C25.8,19.23,23.82,17.4,14.83,17.58z"/>
</g>
</svg>
