<svg id="Layer_1" data-name="Layer 1" xmlns="http://www.w3.org/2000/svg" viewBox="0 0 486.54 619.56"><defs><style>.cls-1{fill:#00a34b;}</style></defs><polygon class="cls-1" points="473.06 187.23 309.44 187.23 309.44 13.49 336.42 13.49 336.42 160.26 473.06 160.26 473.06 187.23"/><path class="cls-1" d="M486.54,619.56H0V0H328.78L486.54,168.42ZM27,592.58h432.6V179.08L317.08,27H27Z"/><path class="cls-1" d="M366.94,487.24H119.45a15,15,0,1,0,0,30.07H367.09a15,15,0,1,0-.15-30.07Z"/><path class="cls-1" d="M232.22,433.26a14.93,14.93,0,0,0,21.95,0l88.11-94.58a15,15,0,1,0-21.95-20.45l-62.1,66.61V220.65a15,15,0,1,0-30.07,0V384.84l-61.95-66.61a15,15,0,0,0-22,20.45Z"/></svg>