<?xml version="1.0" encoding="utf-8"?>
<!-- Generator: Adobe Illustrator 24.3.0, SVG Export Plug-In . SVG Version: 6.00 Build 0)  -->
<svg version="1.1" id="Layer_1" xmlns="http://www.w3.org/2000/svg" xmlns:xlink="http://www.w3.org/1999/xlink" x="0px" y="0px"
	 viewBox="0 0 411.06 411.06" style="enable-background:new 0 0 411.06 411.06;" xml:space="preserve">
<style type="text/css">
	.st0{fill:#FFFFFF;}
	.st1{fill:#00A1DE;}
</style>
<g>
	<circle class="st0" cx="205.53" cy="205.53" r="205.53"/>
	<polygon class="st1" points="309.61,146.53 237.42,146.53 237.42,69.87 249.32,69.87 249.32,134.63 309.61,134.63 	"/>
	<path class="st1" d="M315.61,337.3H100.87V63.91h145.08l69.66,74.32V337.3z M112.77,325.4h190.89V142.93l-62.87-67.11h-128
		L112.77,325.4z"/>
	<path class="st1" d="M262.79,278.92H153.61c-3.66-0.14-6.75,2.71-6.89,6.38c-0.14,3.66,2.71,6.75,6.38,6.89
		c0.17,0.01,0.34,0.01,0.52,0h109.25c3.67,0.12,6.74-2.75,6.86-6.42c0.12-3.67-2.75-6.74-6.42-6.86
		C263.13,278.91,262.96,278.91,262.79,278.92z"/>
	<path class="st1" d="M203.34,255.1c2.48,2.68,6.65,2.84,9.33,0.36c0.13-0.12,0.25-0.24,0.36-0.36l38.88-41.74
		c2.36-2.79,2-6.97-0.79-9.33c-2.61-2.2-6.46-2.06-8.9,0.33l-27.4,29.39v-72.47c0.14-3.66-2.71-6.75-6.38-6.89s-6.75,2.71-6.89,6.38
		c-0.01,0.17-0.01,0.34,0,0.52v72.45l-27.34-29.39c-2.33-2.82-6.5-3.21-9.32-0.89c-2.82,2.33-3.21,6.5-0.89,9.32
		c0.16,0.2,0.34,0.39,0.53,0.57L203.34,255.1z"/>
</g>
</svg>
