<svg id="Layer_1" data-name="Layer 1" xmlns="http://www.w3.org/2000/svg" viewBox="0 0 566.88 720.76"><defs><style>.cls-1{fill:#fff;}</style></defs><polygon class="cls-1" points="550.91 218.65 360.89 218.65 360.89 16.85 392.21 16.85 392.21 187.32 550.91 187.32 550.91 218.65"/><path class="cls-1" d="M566.58,720.76H1.49V1.19H383.34l183.24,195.6ZM32.82,689.43H535.25V209.17L369.76,32.51H32.82Z"/><path class="cls-1" d="M427.67,567.08H140.22a17.47,17.47,0,0,0,0,34.93H427.85a17.47,17.47,0,1,0-.18-34.93Z"/><path class="cls-1" d="M271.2,504.39a17.32,17.32,0,0,0,25.49,0L399,394.54a17.42,17.42,0,0,0-25.49-23.75l-72.13,77.36V257.45a17.47,17.47,0,0,0-34.93,0v190.7l-72-77.36A17.42,17.42,0,1,0,169,394.54Z"/></svg>