<svg id="Layer_1" data-name="Layer 1" xmlns="http://www.w3.org/2000/svg" viewBox="0 0 722.55 922.21"><defs><style>.cls-1{fill:#00a1de;}</style></defs><polygon class="cls-1" points="702.5 279.75 459.36 279.75 459.36 21.55 499.44 21.55 499.44 239.66 702.5 239.66 702.5 279.75"/><path class="cls-1" d="M722.55,922.21H-.5V1.5H488.08L722.55,251.78Zm-683-40.09H682.46V267.63l-211.75-226H39.59Z"/><path class="cls-1" d="M544.81,725.58H177a22.35,22.35,0,0,0,0,44.69H545a22.35,22.35,0,1,0-.22-44.69Z"/><path class="cls-1" d="M344.6,645.36a22.18,22.18,0,0,0,32.62,0L508.16,504.81a22.29,22.29,0,1,0-32.62-30.39l-92.28,99v-244a22.35,22.35,0,0,0-44.69,0v244l-92.07-99a22.29,22.29,0,1,0-32.62,30.39Z"/></svg>