<?xml version="1.0" encoding="utf-8"?>
<!-- Generator: Adobe Illustrator 24.3.0, SVG Export Plug-In . SVG Version: 6.00 Build 0)  -->
<svg version="1.1" id="Layer_1" xmlns="http://www.w3.org/2000/svg" xmlns:xlink="http://www.w3.org/1999/xlink" x="0px" y="0px"
	 viewBox="0 0 121.85 131.95" style="enable-background:new 0 0 121.85 131.95;" xml:space="preserve">
<style type="text/css">
	.st0{fill:#00A1DE;}
	.st1{fill:#FFFFFF;}
</style>
<g>
	<path class="st0" d="M109.61,0H11.17C6.69-0.07,2.52,2.26,0.25,6.12c3.57,4.13,8.84,10.39,8.84,10.39c0.59,0.73,0.59,1.78,0,2.51
		L0,30.92v89.8c0,5.83,4.44,10.91,10.27,11.21c0.3,0.02,0.6,0.02,0.9,0.01h98.44c6.76,0,12.24-5,12.24-11.11V11.12
		C121.85,4.97,116.37,0,109.61,0z"/>
	<path class="st1" d="M16.72,70.37l-1,1c-0.51-0.45-1.17-0.7-1.85-0.7c-1.27,0-2.28,1-2.28,3.28s0.67,3.26,2,3.26
		c0.46,0.02,0.92-0.08,1.34-0.29v-2.19h-1.27l-0.19-1.39h3.3v4.42c-0.95,0.58-2.04,0.89-3.15,0.9c-2.64,0-4-1.61-4-4.69
		s1.87-4.68,4.19-4.68C14.88,69.27,15.92,69.66,16.72,70.37z"/>
	<path class="st1" d="M23.49,70.88h-3.24v2.33h2.82v1.38h-2.82v2.47h3.47v1.4h-5.37v-9h5.34L23.49,70.88z"/>
	<path class="st1" d="M31.93,78.46h-2.44l-2.85-7.11c0.17,1.2,0.26,2.41,0.26,3.62v3.49h-1.72v-9h2.4l2.89,7.12
		c-0.16-1.06-0.24-2.12-0.25-3.19V69.5h1.71V78.46z"/>
	<path class="st1" d="M38.93,70.88h-3.2v2.33h2.82v1.38h-2.82v2.47h3.47v1.4h-5.37v-9h5.34L38.93,70.88z"/>
	<path class="st1" d="M43.53,74.95h-1v3.51h-1.9v-9h2.79c2.4,0,3.62,0.87,3.62,2.68c0.02,1.12-0.71,2.11-1.78,2.42l2.32,3.86h-2.13
		L43.53,74.95z M42.53,73.6h1c1,0,1.54-0.41,1.54-1.42s-0.53-1.32-1.68-1.32h-0.86V73.6z"/>
	<path class="st1" d="M52.84,76.45h-2.81l-0.5,2h-2l2.76-9h2.32l2.74,9h-2L52.84,76.45z M52.48,75.04l-1-4.13l-1,4.13H52.48z"/>
	<path class="st1" d="M62.93,78.46H60.5l-2.85-7.11c0.17,1.2,0.26,2.41,0.26,3.62v3.49h-1.72v-9h2.39l2.9,7.12
		c-0.16-1.06-0.24-2.12-0.25-3.19V69.5h1.7V78.46z"/>
	<path class="st1" d="M71.8,73.94c0,3.61-2.2,4.52-4.4,4.52h-2.56v-9h2.34C69.55,69.5,71.8,70.24,71.8,73.94z M66.74,70.94v6.16
		h0.78c1.3,0,2.3-0.61,2.3-3.12s-1-3-2.34-3L66.74,70.94z"/>
	<path class="st1" d="M80.76,73.98c0,2.94-1.52,4.68-4,4.68s-4-1.69-4-4.68s1.52-4.69,4-4.69S80.76,70.98,80.76,73.98z M74.76,73.98
		c0,2.34,0.74,3.26,2,3.26s2-0.92,2-3.26s-0.69-3.26-2-3.26s-1.96,0.92-1.96,3.26H74.76z"/>
	<path class="st1" d="M16.26,87.51l-0.94,1.1c-0.45-0.4-1.03-0.62-1.63-0.63c-1.21,0-2.09,0.91-2.09,3.24s0.86,3.19,2.1,3.19
		c0.66-0.02,1.3-0.28,1.79-0.72l0.88,1.1c-0.73,0.73-1.72,1.13-2.75,1.12c-2.39,0-4-1.64-4-4.69s1.73-4.68,4-4.68
		C14.59,86.52,15.53,86.87,16.26,87.51z"/>
	<path class="st1" d="M24.7,91.23c0,2.94-1.51,4.68-4,4.68s-4-1.69-4-4.68s1.53-4.69,4-4.69S24.7,88.23,24.7,91.23z M18.7,91.23
		c0,2.34,0.74,3.26,2,3.26s2-0.92,2-3.26s-0.69-3.26-2-3.26s-1.95,0.92-1.95,3.26H18.7z"/>
	<path class="st1" d="M32.65,95.71H30.2l-2.85-7.11c0.17,1.2,0.26,2.42,0.26,3.63v3.48h-1.68v-9h2.4l2.9,7.12
		c-0.16-1.05-0.25-2.12-0.26-3.18v-3.94h1.72L32.65,95.71z"/>
	<path class="st1" d="M39.43,88.12h-3.24v2.33h2.83v1.37h-2.83v2.47h3.47v1.4h-5.37v-9h5.35L39.43,88.12z"/>
	<path class="st1" d="M47.35,95.71h-2.1l-1.67-3.59l-1.65,3.59h-2l2.55-4.77l-2.34-4.19h2.08l1.41,3l1.48-3h2l-2.37,4.13
		L47.35,95.71z"/>
	<path class="st1" d="M49.93,95.71h-1.91v-9h1.91V95.71z"/>
	<path class="st1" d="M59.09,91.23c0,2.94-1.51,4.68-4,4.68s-4-1.69-4-4.68s1.53-4.69,4-4.69S59.09,88.23,59.09,91.23z M53.09,91.23
		c0,2.34,0.73,3.26,2,3.26s2-0.92,2-3.26s-0.68-3.26-2-3.26s-1.95,0.92-1.95,3.26H53.09z"/>
	<path class="st1" d="M67.04,95.71h-2.45l-2.85-7.11c0.17,1.2,0.26,2.42,0.26,3.63v3.48h-1.72v-9h2.39l2.9,7.12
		c-0.16-1.05-0.25-2.12-0.26-3.18v-3.94h1.73V95.71z"/>
	<path class="st1" d="M73.82,88.12h-3.24v2.33h2.82v1.37h-2.82v2.47h3.47v1.4h-5.37v-9h5.35L73.82,88.12z"/>
	<path class="st1" d="M81.01,87.67l-0.9,1c-0.55-0.49-1.26-0.75-2-0.75c-0.78,0-1.31,0.33-1.31,1s0.34,0.88,1.8,1.33
		c1.62,0.52,2.65,1.19,2.65,2.85s-1.29,2.79-3.47,2.79c-1.23,0.04-2.42-0.41-3.31-1.25l1-1.07c0.63,0.57,1.44,0.89,2.29,0.89
		c0.92,0,1.54-0.44,1.54-1.23s-0.35-1-1.71-1.44c-1.94-0.61-2.71-1.38-2.71-2.74c0-1.53,1.32-2.53,3.13-2.53
		C79.12,86.48,80.21,86.9,81.01,87.67z"/>
	<path class="st1" d="M49.93,55.87H31.79v-6.14h1.08c0.05,0,4.77-0.07,6.09-2.23c-1.58-0.63-2.81-1.91-3.37-3.52l-5.8-3.74
		l-5.86,3.74c-0.57,1.64-1.83,2.95-3.46,3.56c0.05,0.23,0.15,0.45,0.3,0.64c0.42,0.53,1.68,1.43,5.39,1.43h1.07v6.26H9.11v-6.14
		h1.07c0.06,0,4.78-0.07,6.1-2.23c-2.99-1.17-4.46-4.54-3.29-7.53c1.17-2.99,4.54-4.46,7.53-3.29c1.95,0.76,3.34,2.52,3.63,4.59
		l4.57-2.9v-5.25h-8v-6.19h1.11c0.05,0,4.78-0.08,6.09-2.23c-3-1.15-4.49-4.51-3.34-7.5c1.15-3,4.51-4.49,7.5-3.34
		c3,1.15,4.49,4.51,3.34,7.5c-0.59,1.54-1.81,2.75-3.34,3.34c0.04,0.24,0.14,0.46,0.3,0.65c0.42,0.53,1.68,1.43,5.38,1.43h1.08v6.34
		h-7.91v5.3l4.46,2.88c0.47-3.17,3.42-5.37,6.59-4.9c3.17,0.47,5.37,3.42,4.9,6.59c-0.31,2.09-1.73,3.86-3.72,4.6
		c0.04,0.24,0.14,0.46,0.3,0.64c0.42,0.53,1.68,1.43,5.38,1.43h1.08V55.87z M33.93,53.72h13.79v-2c-3-0.14-5-0.92-6.06-2.3
		c-0.28-0.38-0.49-0.8-0.61-1.26c-1.27,2.79-5.18,3.48-7.1,3.65L33.93,53.72z M11.24,53.72h13.8v-2c-3-0.14-5-0.92-6.06-2.3
		c-0.29-0.38-0.5-0.8-0.62-1.26c-1.27,2.79-5.18,3.48-7.1,3.65L11.24,53.72z M41.09,38.45c-2.02,0-3.65,1.63-3.65,3.65
		c0,2.02,1.63,3.65,3.65,3.65c2.01,0,3.64-1.62,3.65-3.63C44.75,40.1,43.11,38.46,41.09,38.45C41.09,38.45,41.09,38.45,41.09,38.45z
		 M18.4,38.45c-2.02,0-3.65,1.63-3.65,3.65c0,2.02,1.63,3.65,3.65,3.65c2.01,0,3.64-1.62,3.65-3.63
		C22.06,40.1,20.42,38.46,18.4,38.45C18.4,38.45,18.4,38.45,18.4,38.45z M22.93,30.91h13.76v-2c-3-0.15-5-0.92-6.06-2.3
		c-0.29-0.38-0.5-0.81-0.62-1.27c-1.27,2.78-5.18,3.52-7.08,3.69V30.91z M30.07,15.64c-2.02,0-3.65,1.63-3.65,3.65
		c0,2.02,1.63,3.65,3.65,3.65c2.01,0,3.64-1.63,3.65-3.64c0.01-2.02-1.62-3.65-3.64-3.66c-0.01,0-0.02,0-0.03,0H30.07z"/>
</g>
</svg>
