<?xml version="1.0" encoding="utf-8"?>
<!-- Generator: Adobe Illustrator 24.3.0, SVG Export Plug-In . SVG Version: 6.00 Build 0)  -->
<svg version="1.1" id="Layer_1" xmlns="http://www.w3.org/2000/svg" xmlns:xlink="http://www.w3.org/1999/xlink" x="0px" y="0px"
	 viewBox="0 0 343.5 198.3" style="enable-background:new 0 0 343.5 198.3;" xml:space="preserve">
<style type="text/css">
	.st0{fill:#1AA44C;}
	.st1{fill:#FFDD00;}
	.st2{fill:#00A1DE;}
</style>
<path class="st0" d="M185.8,197.6c-43.1,0-78-34.9-78-78s34.9-78,78-78s78,34.9,78,78C263.7,162.7,228.8,197.6,185.8,197.6z
	 M185.8,63.8c-30.8,0-55.8,25-55.8,55.8s25,55.8,55.8,55.8c30.8,0,55.8-25,55.8-55.8c0,0,0,0,0,0C241.6,88.8,216.6,63.8,185.8,63.8z
	"/>
<path class="st1" d="M185.8,174.8c-3.1,0-6.2-0.2-9.2-0.6l3.1,0.4c-2.8-0.4-5.6-1-8.3-1.7c-1.2-0.3-2.5-0.7-3.7-1.1
	c-1.4-0.3-2.8-0.9-4.1-1.6c-0.2-0.1,2.7,1.2,1.5,0.6c-0.3-0.2-0.7-0.3-1-0.4c-0.6-0.3-1.2-0.5-1.7-0.8c-1.3-0.6-2.6-1.3-3.9-2.1
	c-2.3-1.3-4.5-2.8-6.6-4.3c-2.1-1.5,1.9,1.5,0.4,0.3c-0.6-0.5-1.1-0.9-1.7-1.4c-1-0.9-2-1.8-3-2.7c-1.9-1.9-3.8-3.9-5.5-6
	c-1.5-1.8,1.5,2,0.3,0.5l-1.1-1.6c-0.8-1.1-1.5-2.2-2.3-3.4c-1.4-2.3-2.7-4.8-3.9-7.2l-0.4-1c-0.8-1.7,0.9,2.4,0.4,1
	c-0.3-0.7-0.6-1.4-0.8-2.1c-0.6-1.5-1-3-1.5-4.5c-0.9-3.1-1.5-6.2-2-9.4l0.4,3.1c-0.8-6.1-0.8-12.3,0-18.4l-0.4,3.1
	c0.6-4.2,1.6-8.4,3-12.5c0.3-0.9,0.6-1.8,1-2.7c0.7-1.8-0.1,0.1-0.4,0.8c0.2-0.5,0.4-1,0.6-1.4c0.9-1.9,1.8-3.8,2.9-5.6
	c1-1.7,2.1-3.4,3.2-5c0.3-0.4,0.6-0.8,0.9-1.3c1.1-1.5-0.1,0-0.5,0.7c0.6-0.8,1.3-1.6,2-2.4c2.7-3.1,5.7-6,9-8.6
	c2.2-1.8,3.4-5.6,3.4-8.3c0-6.5-5.3-11.8-11.8-11.8c-3.1,0.2-6,1.4-8.3,3.5c-21.2,17-31.5,44.8-27.9,71.5
	c5.3,38.9,38.6,67.9,77.8,67.9c6.2,0,12.1-5.4,11.8-11.8S192.5,174.8,185.8,174.8L185.8,174.8z"/>
<path class="st2" d="M269.7,30.7c0,4.8-3.3,8.7-8.5,8.7c-6.2,0-8.9-4.6-8.9-11.4c0-8,3.9-13.3,10.3-13.3c1.9,0,3.8,0.5,5.4,1.6
	l-2,3.3c-1-0.6-2.1-0.9-3.2-0.9c-2.7,0-4.4,2.3-4.7,6.4c1.3-1.4,3.1-2.2,5-2.2C266.8,22.9,269.7,25.7,269.7,30.7z M264.2,30.8
	c0-3-1-4.1-2.8-4.1c-1.4,0.1-2.6,0.8-3.4,1.9c0.1,4.9,0.9,6.9,3.3,6.9C263.2,35.4,264.2,33.6,264.2,30.8L264.2,30.8z"/>
<path class="st2" d="M289.7,27c0,7.9-3.1,12.4-8.9,12.4s-8.9-4.5-8.9-12.4s3.1-12.3,8.9-12.3C286.6,14.7,289.7,19.1,289.7,27z
	 M277.5,27c0,6.2,0.9,8.3,3.2,8.3s3.2-1.9,3.2-8.3s-1-8.2-3.2-8.2S277.5,20.8,277.5,27z"/>
<path class="st2" d="M304.4,21c0,3.4-2.8,6.2-6.2,6.2c-3.4,0-6.2-2.8-6.2-6.2s2.8-6.2,6.2-6.2C301.6,14.8,304.4,17.6,304.4,21z
	 M295.9,21c0,1.5,0.5,3,2.3,3s2.2-1.5,2.2-3s-0.4-3-2.2-3S295.9,19.5,295.9,21z M315.8,15.8l-16.2,24.3l-3.4-2.2l16.1-24.4
	L315.8,15.8z M320,33.1c0,3.4-2.8,6.2-6.2,6.2c-3.4,0-6.2-2.8-6.2-6.2c0,0,0,0,0,0c0-3.4,2.8-6.2,6.2-6.2
	C317.2,26.8,320,29.6,320,33.1C320,33.1,320,33.1,320,33.1z M311.5,33.1c0,1.5,0.5,3,2.3,3s2.2-1.5,2.2-3s-0.4-2.9-2.2-2.9
	S311.5,31.6,311.5,33.1L311.5,33.1z"/>
<path class="st2" d="M257.7,45.3l-0.6,0.6c-0.4-0.4-1-0.6-1.6-0.6c-1.1,0-2.1,0.8-2.1,3s0.7,3,2,3c0.5,0,1-0.1,1.5-0.3v-2.2h-1.3
	l-0.1-0.8h2.4v3.6c-0.7,0.4-1.6,0.7-2.4,0.7c-1.9,0-3.1-1.3-3.1-3.9s1.5-3.8,3.2-3.8C256.3,44.5,257.1,44.8,257.7,45.3z"/>
<path class="st2" d="M262.5,46.3l-0.2,1c-0.2-0.1-0.3-0.1-0.5-0.1c-0.7,0-1.1,0.5-1.4,1.6v3.2h-1v-5.7h0.9l0.1,1.2
	c0.2-0.7,0.8-1.3,1.5-1.3C262.2,46.3,262.4,46.3,262.5,46.3z"/>
<path class="st2" d="M267.9,52.1h-0.9l-0.1-0.9c-0.3,0.6-1,1-1.8,1c-0.8,0-1.6-0.6-1.6-1.5c0-0.1,0-0.2,0-0.3v-4.1h1v4
	c0,0.8,0.3,1.1,0.9,1.1c0.6,0,1.2-0.4,1.4-1v-4.1h1L267.9,52.1z"/>
<path class="st2" d="M274.7,49.2c0,1.7-0.8,3-2.2,3c-0.6,0-1.1-0.2-1.5-0.7v2.7l-1,0.1v-8h0.9l0.1,0.8c0.4-0.6,1-0.9,1.7-0.9
	C274.1,46.2,274.7,47.4,274.7,49.2z M273.6,49.2c0-1.5-0.4-2.2-1.3-2.2c-0.6,0-1.1,0.4-1.4,0.9v2.8c0.3,0.4,0.7,0.7,1.2,0.7
	C273.1,51.4,273.6,50.7,273.6,49.2z"/>
<path class="st2" d="M281,49.2c0,1.8-0.9,3-2.5,3s-2.5-1.2-2.5-3s0.9-3,2.5-3S281,47.4,281,49.2z M277,49.2c0,1.5,0.5,2.2,1.5,2.2
	s1.5-0.7,1.5-2.2s-0.5-2.2-1.5-2.2S277,47.7,277,49.2L277,49.2z"/>
<path class="st2" d="M289.5,45.5h-2.9v2.4h2.5v0.8h-2.5v2.5h3.1v0.8h-4.1v-7.4h4L289.5,45.5z"/>
<path class="st2" d="M295.6,48v4.1h-1v-4c0-0.9-0.4-1.1-0.9-1.1c-0.6,0-1.2,0.4-1.5,1v4h-1v-5.7h0.9l0.1,0.8c0.4-0.6,1-1,1.7-1
	c0.9-0.1,1.6,0.6,1.7,1.4C295.6,47.8,295.6,47.9,295.6,48z"/>
<path class="st2" d="M301.8,49.6h-3.6c0.1,1.3,0.7,1.8,1.5,1.8c0.5,0,1.1-0.2,1.5-0.5l0.4,0.6c-0.6,0.5-1.3,0.7-2,0.7
	c-1.6,0-2.5-1.1-2.5-2.9s0.9-3,2.4-3s2.4,1.1,2.4,2.8C301.9,49.2,301.9,49.4,301.8,49.6z M300.8,48.8c0-1.1-0.5-1.7-1.4-1.7
	c-0.8,0-1.2,0.5-1.3,1.8L300.8,48.8L300.8,48.8z"/>
<path class="st2" d="M306.5,46.3l-0.2,1c-0.2-0.1-0.3-0.1-0.5-0.1c-0.7,0-1.1,0.5-1.4,1.6v3.2h-1v-5.7h0.9l0.1,1.2
	c0.2-0.7,0.8-1.3,1.5-1.3C306.1,46.2,306.3,46.3,306.5,46.3z"/>
<path class="st2" d="M312,46.6c-0.5,0.1-1.1,0.2-1.7,0.2c0.6,0.2,1,0.8,1,1.4c0,1.1-0.9,1.9-1.9,1.9c-0.1,0-0.2,0-0.2,0
	c-0.2,0-0.5,0-0.7-0.1c-0.2,0.1-0.3,0.3-0.3,0.5c0,0.3,0.2,0.5,0.8,0.5h0.9c1.2,0,1.9,0.7,1.9,1.6c0,1.1-0.9,1.7-2.7,1.7
	s-2.4-0.6-2.4-1.7h0.9c0,0.7,0.3,1,1.5,1s1.7-0.3,1.7-0.9s-0.4-0.8-1.1-0.8h-0.9c-1,0-1.5-0.5-1.5-1.1c0-0.4,0.3-0.8,0.6-1
	c-0.6-0.3-1-0.9-1-1.6c0-1.1,0.9-2,2-2c0.1,0,0.1,0,0.2,0c0.9,0.1,1.8-0.1,2.6-0.5L312,46.6z M308,48.2c-0.1,0.6,0.4,1.2,1,1.3
	c0.1,0,0.1,0,0.2,0c0.6,0,1.2-0.4,1.2-1c0-0.1,0-0.2,0-0.2c0.1-0.6-0.3-1.2-0.9-1.2c-0.1,0-0.2,0-0.3,0C308.5,47,308,47.5,308,48.2
	C308,48.2,308,48.2,308,48.2z"/>
<path class="st2" d="M314.9,44.2l-2.3,0.9l-0.3-0.5l2.1-1.2L314.9,44.2z M314.1,52.1h-1v-5.7h1V52.1z"/>
<path class="st2" d="M320.4,51.5l-0.2,0.7c-0.5,0-1-0.3-1.1-0.8c-0.4,0.6-1,0.9-1.7,0.8c-0.9,0.1-1.7-0.6-1.8-1.5c0-0.1,0-0.2,0-0.2
	c0-1.2,0.9-1.9,2.5-1.9h0.9v-0.4c0-0.8-0.4-1.1-1.2-1.1c-0.5,0-1,0.1-1.5,0.3l-0.2-0.7c0.6-0.3,1.3-0.4,2-0.4c1.4,0,2,0.7,2,1.9v2.6
	C320,51.2,320.1,51.4,320.4,51.5z M319,50.6v-1.3h-0.7c-1,0-1.6,0.4-1.6,1.2c-0.1,0.5,0.3,0.9,0.8,1c0.1,0,0.1,0,0.2,0
	C318.3,51.4,318.8,51.1,319,50.6z"/>
<path class="st2" d="M292.7,62.9c0,1.6-1.2,2.1-3,2.1h-2v-7.4h1.8c1.8,0,2.9,0.6,2.9,1.9c0,0.8-0.6,1.5-1.4,1.6
	C291.9,61.2,292.7,61.7,292.7,62.9z M288.7,58.4v2.3h1.1c0.8,0,1.5-0.4,1.5-1.2s-0.7-1.2-1.8-1.2L288.7,58.4z M291.6,62.9
	c0-1-0.8-1.4-1.7-1.4h-1.2v2.7h1C290.9,64.2,291.6,64,291.6,62.9L291.6,62.9z"/>
<path class="st2" d="M298.9,62.2c0,1.8-0.9,3-2.5,3s-2.5-1.2-2.5-3s0.9-3,2.5-3S298.9,60.4,298.9,62.2z M294.9,62.2
	c0,1.5,0.5,2.2,1.5,2.2s1.5-0.7,1.5-2.2s-0.5-2.2-1.5-2.2S294.9,60.7,294.9,62.2L294.9,62.2z"/>
<path class="st2" d="M305.1,59.6c-0.5,0.1-1.1,0.2-1.7,0.2c0.6,0.2,1,0.8,1,1.4c0,1.1-0.9,1.9-1.9,1.9c-0.1,0-0.2,0-0.2,0
	c-0.2,0-0.5,0-0.7-0.1c-0.2,0.1-0.3,0.3-0.3,0.5c0,0.3,0.2,0.5,0.7,0.5h1c1.2,0,1.9,0.7,1.9,1.6c0,1.1-0.9,1.7-2.7,1.7
	s-2.5-0.6-2.5-1.7h0.9c0,0.7,0.3,1,1.5,1s1.7-0.3,1.7-0.9s-0.4-0.8-1.1-0.8h-0.9c-1,0-1.5-0.5-1.5-1.1c0-0.4,0.3-0.8,0.6-1
	c-0.6-0.3-1-0.9-1-1.6c0-1.1,0.9-2,2-2c0.1,0,0.1,0,0.2,0c0.9,0.1,1.8-0.1,2.6-0.5L305.1,59.6z M301.1,61.2c-0.1,0.6,0.4,1.2,1,1.3
	c0.1,0,0.1,0,0.2,0c0.6,0,1.2-0.4,1.2-1c0-0.1,0-0.2,0-0.2c0.1-0.6-0.3-1.2-0.9-1.3c-0.1,0-0.2,0-0.3,0c-0.6,0-1.2,0.4-1.2,1.1
	C301,61.1,301.1,61.1,301.1,61.2z"/>
<path class="st2" d="M310.6,62.2c0,1.8-0.9,3-2.5,3s-2.5-1.2-2.5-3s0.9-3,2.5-3S310.6,60.4,310.6,62.2z M306.6,62.2
	c0,1.5,0.5,2.2,1.5,2.2s1.5-0.7,1.5-2.2s-0.5-2.2-1.5-2.2S306.6,60.7,306.6,62.2L306.6,62.2z"/>
<path class="st2" d="M315.2,64.8c-0.4,0.3-0.8,0.4-1.3,0.4c-0.8,0.1-1.5-0.5-1.5-1.3c0-0.1,0-0.2,0-0.3v-3.4h-1v-0.8h1v-1.3l1-0.1
	v1.4h1.4l-0.1,0.8h-1.2v3.4c0,0.6,0.2,0.8,0.7,0.8c0.3,0,0.5-0.1,0.8-0.2L315.2,64.8z"/>
<path class="st2" d="M320.4,64.5l-0.2,0.7c-0.5,0-1-0.3-1.1-0.8c-0.4,0.6-1,0.9-1.7,0.8c-0.9,0.1-1.7-0.6-1.8-1.5c0-0.1,0-0.2,0-0.2
	c0-1.2,0.9-1.9,2.5-1.9h0.9v-0.4c0-0.8-0.4-1.1-1.2-1.1c-0.5,0-1,0.1-1.5,0.3l-0.3-0.7c0.6-0.3,1.3-0.4,2-0.4c1.4,0,2,0.7,2,1.9v2.6
	C320,64.2,320.1,64.4,320.4,64.5z M316.9,58.1l-0.3-0.5l2.1-1.2l0.4,0.8L316.9,58.1z M318.9,63.5v-1.3h-0.7c-1,0-1.6,0.4-1.6,1.2
	c-0.1,0.5,0.3,0.9,0.8,1c0.1,0,0.1,0,0.2,0C318.2,64.4,318.8,64.1,318.9,63.5L318.9,63.5z"/>
<path class="st2" d="M43.3,132.4h-2.6v5.1h-5.4v-5.1h-10v-3.7l6.7-15.4l4.7,1.7L31,128.2h4.3l0.6-5.6h4.8v5.6h2.6V132.4z"/>
<path class="st2" d="M63.2,125.7c0,7.9-3.1,12.4-8.9,12.4s-8.9-4.5-8.9-12.4s3.1-12.3,8.9-12.3S63.2,117.8,63.2,125.7z M51,125.7
	c0,6.2,0.9,8.3,3.2,8.3s3.2-1.9,3.2-8.3s-1-8.2-3.2-8.2S51,119.4,51,125.7L51,125.7z"/>
<path class="st2" d="M77.9,119.7c0,3.4-2.9,6.2-6.3,6.1c-3.4,0-6.2-2.9-6.1-6.3c0-3.4,2.8-6.1,6.2-6.1c3.3-0.1,6.1,2.5,6.2,5.8
	C77.9,119.3,77.9,119.5,77.9,119.7z M69.4,119.7c0,1.5,0.4,3,2.3,3s2.2-1.5,2.2-3s-0.4-3-2.2-3C69.9,116.7,69.4,118.2,69.4,119.7z
	 M89.3,114.5l-16.2,24.4l-3.4-2.2l16.2-24.4L89.3,114.5z M93.4,131.8c0,3.4-2.8,6.2-6.2,6.2c-3.4,0-6.2-2.8-6.2-6.2
	c0-3.4,2.8-6.2,6.2-6.2c0,0,0,0,0,0c3.3-0.1,6.1,2.5,6.2,5.8C93.4,131.5,93.4,131.6,93.4,131.8L93.4,131.8z M85,131.8
	c0,1.5,0.4,3,2.3,3s2.2-1.5,2.2-3s-0.4-2.9-2.2-2.9S85,130.3,85,131.8L85,131.8z"/>
<path class="st2" d="M30.3,145.6c0,1.7-1.2,2.4-2.9,2.4h-0.9v2.7h-1v-7.4h2C29.2,143.3,30.3,144,30.3,145.6z M29.2,145.6
	c0-1.1-0.7-1.5-1.8-1.5h-0.9v3.1h0.9C28.4,147.2,29.2,146.9,29.2,145.6L29.2,145.6z"/>
<path class="st2" d="M34.5,145l-0.2,1c-0.2,0-0.3-0.1-0.5-0.1c-0.7,0-1.1,0.5-1.4,1.6v3.2h-1v-5.7h0.9l0.1,1.1
	c0.2-0.7,0.8-1.2,1.5-1.3C34.1,145,34.3,145,34.5,145z"/>
<path class="st2" d="M39.9,147.9c0,1.8-0.9,3-2.5,3c-1.6,0-2.5-1.2-2.5-3s0.9-3,2.5-3S39.9,146.1,39.9,147.9z M35.9,147.9
	c0,1.5,0.5,2.2,1.5,2.2c1,0,1.5-0.7,1.5-2.2s-0.5-2.2-1.5-2.2C36.5,145.7,35.9,146.4,35.9,147.9L35.9,147.9z"/>
<path class="st2" d="M48.8,146.7v4.1h-1v-3.9c0-0.9-0.4-1.1-0.8-1.1c-0.6,0-1,0.4-1.3,1v4h-1v-3.9c0-0.9-0.4-1.1-0.8-1.1
	c-0.6,0-1,0.4-1.3,1v4h-1V145h0.9l0.1,0.8c0.3-0.6,1-1,1.6-1c0.7,0,1.2,0.4,1.4,1c0.3-0.6,1-1,1.7-1c0.9,0,1.6,0.6,1.6,1.5
	C48.9,146.4,48.9,146.5,48.8,146.7z"/>
<path class="st2" d="M52,143c0,0.4-0.3,0.7-0.7,0.7c0,0,0,0,0,0c-0.4,0-0.7-0.2-0.8-0.6c0-0.4,0.2-0.7,0.6-0.8c0.1,0,0.1,0,0.2,0
	C51.7,142.3,52,142.6,52,143C52,143,52,143,52,143z M51.8,150.8h-1v-5.7h1V150.8z"/>
<path class="st2" d="M58.5,145.3c-0.5,0.1-1.1,0.2-1.7,0.2c0.6,0.2,1,0.8,1,1.4c0,1.1-0.9,1.9-1.9,2c-0.1,0-0.2,0-0.3,0
	c-0.2,0-0.5,0-0.7-0.1c-0.2,0.1-0.3,0.3-0.3,0.5c0,0.3,0.2,0.5,0.8,0.5h0.9c1.2,0,2,0.7,2,1.6c0,1.1-0.9,1.7-2.7,1.7
	s-2.4-0.6-2.4-1.7H54c0,0.6,0.3,1,1.5,1s1.7-0.3,1.7-0.9s-0.4-0.8-1.1-0.8h-0.9c-1,0-1.5-0.5-1.5-1.1c0-0.4,0.3-0.8,0.6-1
	c-0.6-0.3-1-0.9-1-1.6c0-1.1,0.9-2,2-2c0.1,0,0.1,0,0.2,0c0.9,0.1,1.8-0.1,2.6-0.5L58.5,145.3z M54.4,146.9c-0.1,0.6,0.4,1.2,1,1.3
	c0.1,0,0.1,0,0.2,0c0.6,0,1.2-0.4,1.2-1.1c0-0.1,0-0.2,0-0.2c0.1-0.6-0.3-1.2-0.9-1.3c-0.1,0-0.2,0-0.3,0c-0.6,0-1.2,0.5-1.2,1.1
	C54.4,146.8,54.4,146.9,54.4,146.9z"/>
<path class="st2" d="M63.6,150.2l-0.2,0.7c-0.5,0-1-0.3-1.1-0.9c-0.4,0.6-1,0.9-1.7,0.9c-0.9,0.1-1.7-0.6-1.8-1.5c0-0.1,0-0.2,0-0.2
	c0-1.2,0.9-1.9,2.5-1.9h0.9v-0.4c0-0.8-0.4-1.1-1.2-1.1c-0.5,0-1,0.1-1.5,0.3l-0.2-0.7c0.6-0.3,1.3-0.4,2-0.4c1.4,0,2,0.7,2,1.9v2.6
	C63.1,149.9,63.3,150.1,63.6,150.2z M62.1,149.2v-1.3h-0.8c-1,0-1.6,0.4-1.6,1.2c-0.1,0.5,0.3,0.9,0.8,1c0.1,0,0.1,0,0.2,0
	C61.4,150.1,61.9,149.8,62.1,149.2z"/>
<path class="st2" d="M68.5,145.6l-0.4,0.6c-0.4-0.3-0.9-0.5-1.5-0.5c-0.7,0-1,0.3-1,0.8s0.3,0.7,1.2,0.9c1.2,0.3,1.9,0.8,1.9,1.8
	c0,1.2-1.1,1.7-2.2,1.7c-0.8,0-1.6-0.2-2.2-0.8l0.5-0.6c0.5,0.4,1,0.6,1.6,0.6c0.7,0,1.2-0.3,1.2-0.9s-0.3-0.8-1.4-1.1
	s-1.7-0.9-1.7-1.7s0.9-1.6,2-1.6C67.3,144.9,68,145.1,68.5,145.6z"/>
<rect x="229.5" y="70.7" class="st2" width="93.9" height="1.4"/>
<rect x="20" y="158.1" class="st2" width="113.1" height="1.4"/>
<path class="st2" d="M32.7,3.1l-1.2,1.4c-0.5-0.5-1.3-0.8-2-0.8c-1.5,0-2.6,1.1-2.6,4s1.1,4,2.6,4c0.8,0,1.6-0.3,2.2-0.9l1.1,1.4
	c-0.9,0.9-2.1,1.4-3.4,1.4c-3,0-5-2-5-5.8s2.1-5.8,4.9-5.8C30.6,1.9,31.8,2.3,32.7,3.1z"/>
<path class="st2" d="M41.4,9c0,2.7-1.5,4.5-4.1,4.5s-4.1-1.7-4.1-4.5s1.5-4.5,4.1-4.5C39.9,4.5,41.4,6.2,41.4,9z M35.6,9
	c0,1.9,0.6,2.8,1.7,2.8S39,10.9,39,9s-0.6-2.8-1.7-2.8C36.2,6.2,35.6,7.1,35.6,9z"/>
<path class="st2" d="M54.5,7.1v6.2h-2.3V7.4c0-1-0.4-1.2-0.8-1.2c-0.6,0-1,0.4-1.5,1.2v5.9h-2.3V7.4c0-1-0.4-1.2-0.8-1.2
	c-0.6,0-1,0.4-1.5,1.2v5.9h-2.3V4.8h2l0.2,1.1c0.5-0.8,1.5-1.3,2.4-1.3c0.9,0,1.7,0.5,2,1.4c0.6-0.9,1.5-1.4,2.6-1.4
	c1.2,0,2.3,1,2.3,2.3C54.6,6.9,54.5,7,54.5,7.1z"/>
<path class="st2" d="M64.4,9c0,2.6-1.2,4.5-3.4,4.5c-0.8,0-1.6-0.3-2.1-0.9v3.9l-2.3,0.3v-12h2l0.1,1c0.6-0.8,1.5-1.3,2.5-1.3
	C63.5,4.5,64.4,6.2,64.4,9z M62,9c0-2.1-0.5-2.8-1.5-2.8c-0.7,0.1-1.2,0.5-1.5,1.1V11c0.3,0.5,0.8,0.8,1.4,0.8C61.4,11.8,62,11,62,9
	z"/>
<path class="st2" d="M73.8,9c0,2.7-1.5,4.5-4.1,4.5c-2.5,0-4.1-1.7-4.1-4.5s1.5-4.5,4.1-4.5C72.4,4.5,73.8,6.2,73.8,9z M68.1,9
	c0,1.9,0.6,2.8,1.7,2.8c1.1,0,1.7-0.9,1.7-2.8s-0.6-2.8-1.7-2.8S68.1,7.1,68.1,9z"/>
<path class="st2" d="M81.5,5.5l-0.9,1.3c-0.6-0.4-1.4-0.7-2.1-0.7c-0.8,0-1.2,0.3-1.2,0.8s0.3,0.7,1.8,1.2c1.7,0.5,2.7,1.2,2.7,2.7
	c0,1.8-1.7,2.8-3.7,2.8c-1.3,0-2.5-0.4-3.5-1.2l1.1-1.3c0.6,0.5,1.4,0.8,2.3,0.8c0.8,0,1.4-0.4,1.4-0.9s-0.3-0.9-1.9-1.3
	S75,8.3,75,7c0-1.4,1.3-2.5,3.4-2.5C79.5,4.5,80.6,4.8,81.5,5.5z"/>
<path class="st2" d="M85.7,1.7c0,0.7-0.6,1.3-1.4,1.3c0,0,0,0,0,0C83.6,3,83,2.5,83,1.7c0,0,0,0,0,0c0-0.7,0.6-1.3,1.3-1.3
	c0,0,0,0,0.1,0C85.1,0.3,85.7,0.9,85.7,1.7C85.7,1.7,85.7,1.7,85.7,1.7z M85.5,13.2h-2.3V4.8h2.3V13.2z"/>
<path class="st2" d="M94.1,5.5l-1,1.3c-0.5-0.4-1.1-0.6-1.7-0.6c-1.1,0-1.8,0.8-1.8,2.8s0.7,2.6,1.8,2.6c0.6,0,1.2-0.2,1.7-0.6
	l1,1.4c-0.8,0.7-1.8,1-2.8,1c-2.5,0-4.1-1.7-4.1-4.4s1.6-4.6,4-4.6C92.3,4.5,93.3,4.8,94.1,5.5z"/>
<path class="st2" d="M97.9,1.7c0,0.7-0.6,1.3-1.4,1.3c0,0,0,0,0,0c-0.7,0-1.3-0.5-1.4-1.2c0,0,0-0.1,0-0.1c0-0.7,0.6-1.3,1.3-1.3
	c0,0,0,0,0,0C97.2,0.3,97.9,0.9,97.9,1.7C97.9,1.7,97.9,1.7,97.9,1.7z M97.7,13.2h-2.3V4.8h2.3L97.7,13.2z"/>
<path class="st2" d="M107.5,9c0,2.7-1.5,4.5-4.1,4.5s-4.1-1.7-4.1-4.5s1.5-4.5,4.1-4.5S107.5,6.2,107.5,9z M105.5,1.8l-3.7,1.5
	l-0.6-1.2l3.4-2L105.5,1.8z M101.8,9c0,1.9,0.6,2.8,1.7,2.8s1.7-0.9,1.7-2.8s-0.6-2.8-1.7-2.8S101.8,7.1,101.8,9z"/>
<path class="st2" d="M116.4,7.1v6.2h-2.3V7.4c0-1-0.3-1.2-0.9-1.2s-1.1,0.4-1.6,1.2v5.9h-2.3V4.8h2l0.2,1.1C112,5,113,4.5,114,4.5
	c1.3-0.1,2.3,0.9,2.4,2.2C116.4,6.8,116.4,6.9,116.4,7.1z"/>
<path class="st2" d="M32.1,31.2l-0.5,1.5c-0.8,0-1.6-0.5-1.9-1.2c-0.6,0.8-1.5,1.3-2.6,1.3c-1.4,0.1-2.6-0.9-2.7-2.3
	c0-0.1,0-0.2,0-0.3c0-1.9,1.4-2.9,3.9-2.9h1v-0.4c0-1.1-0.5-1.4-1.5-1.4c-0.8,0-1.5,0.2-2.2,0.5L25,24.3c1-0.4,2.1-0.6,3.1-0.6
	c2.4,0,3.4,1,3.4,3v3.4C31.4,30.8,31.6,31,32.1,31.2z M29.2,30.2v-1.7h-0.8c-1.2,0-1.8,0.5-1.8,1.4c0,0.8,0.4,1.2,1.1,1.2
	C28.3,31.1,28.9,30.7,29.2,30.2L29.2,30.2z"/>
<path class="st2" d="M40.1,24.7l-1,1.4c-0.5-0.4-1.1-0.6-1.7-0.6c-1.1,0-1.8,0.8-1.8,2.8s0.7,2.6,1.8,2.6c0.6,0,1.2-0.2,1.7-0.6
	l1,1.4c-0.8,0.7-1.8,1-2.8,1c-2.5,0-4.1-1.7-4.1-4.4s1.6-4.6,4-4.6C38.2,23.7,39.3,24,40.1,24.7z"/>
<path class="st2" d="M47.4,24.7l-1,1.4c-0.5-0.4-1.1-0.6-1.7-0.6c-1.1,0-1.8,0.8-1.8,2.8s0.7,2.6,1.8,2.6c0.6,0,1.2-0.2,1.7-0.6
	l1,1.4c-0.8,0.7-1.8,1-2.8,1c-2.5,0-4.1-1.7-4.1-4.4s1.6-4.6,4-4.6C45.6,23.7,46.6,24,47.4,24.7z"/>
<path class="st2" d="M51.2,20.9c0,0.7-0.6,1.3-1.3,1.3c0,0-0.1,0-0.1,0c-0.7,0-1.3-0.6-1.3-1.3s0.6-1.3,1.3-1.3c0,0,0,0,0,0
	C50.5,19.5,51.2,20.1,51.2,20.9C51.2,20.9,51.2,20.9,51.2,20.9z M51,32.4h-2.3V24H51V32.4z"/>
<path class="st2" d="M60.8,28.2c0,2.7-1.5,4.5-4.1,4.5s-4.1-1.7-4.1-4.5s1.5-4.5,4.1-4.5S60.8,25.4,60.8,28.2z M55.1,28.2
	c0,2,0.6,2.8,1.7,2.8s1.7-0.9,1.7-2.8s-0.6-2.8-1.7-2.8S55.1,26.3,55.1,28.2z"/>
<path class="st2" d="M69.6,26.3v6.2h-2.3v-5.8c0-1-0.3-1.2-0.9-1.2c-0.7,0.1-1.3,0.5-1.6,1.2v5.9h-2.3V24h2l0.1,1
	c0.6-0.8,1.6-1.3,2.6-1.3c1.3-0.1,2.3,0.9,2.4,2.2C69.7,26,69.7,26.1,69.6,26.3z"/>
<path class="st2" d="M78.9,31.2l-0.5,1.5c-0.9,0.1-1.7-0.4-2-1.2c-0.6,0.8-1.5,1.3-2.6,1.3c-1.4,0.1-2.6-0.9-2.7-2.3
	c0-0.1,0-0.2,0-0.3c0-1.9,1.4-2.9,3.9-2.9h1v-0.4c0-1.1-0.4-1.4-1.5-1.4c-0.8,0-1.5,0.2-2.2,0.5l-0.5-1.5c1-0.4,2.1-0.6,3.1-0.6
	c2.4,0,3.4,1,3.4,3v3.4C78.3,30.8,78.5,31,78.9,31.2z M76.1,30.2v-1.7h-0.8c-1.2,0-1.8,0.5-1.8,1.4c0,0.8,0.4,1.2,1.1,1.2
	C75.2,31.1,75.8,30.7,76.1,30.2L76.1,30.2z"/>
<path class="st2" d="M85.8,23.8L85.4,26c-0.2-0.1-0.5-0.1-0.8-0.1c-1,0-1.5,0.8-1.8,2.1v4.4h-2.3V24h2l0.2,1.6
	c0.2-1,1.1-1.8,2.2-1.9C85.2,23.7,85.5,23.8,85.8,23.8z"/>
<path class="st2" d="M89.4,20.9c0,0.7-0.6,1.3-1.3,1.3c0,0-0.1,0-0.1,0c-0.7,0-1.3-0.6-1.3-1.3c0-0.7,0.6-1.3,1.3-1.3c0,0,0,0,0,0
	C88.7,19.5,89.4,20.1,89.4,20.9C89.4,20.8,89.4,20.9,89.4,20.9z M89.2,32.4h-2.3V24h2.3V32.4z"/>
<path class="st2" d="M98.5,31.2L98,32.7c-0.9,0.1-1.7-0.4-2-1.2c-0.6,0.8-1.5,1.3-2.5,1.3c-1.4,0.1-2.6-0.9-2.8-2.3
	c0-0.1,0-0.2,0-0.3c0-1.9,1.4-2.9,3.9-2.9h1v-0.4c0-1.1-0.4-1.4-1.5-1.4c-0.8,0-1.5,0.2-2.2,0.5l-0.5-1.5c1-0.4,2.1-0.6,3.1-0.6
	c2.3,0,3.4,1,3.4,3v3.4C97.9,30.8,98.1,31,98.5,31.2z M95.7,30.2v-1.7h-0.8c-1.2,0-1.8,0.5-1.8,1.4c-0.1,0.5,0.3,1.1,0.8,1.2
	c0.1,0,0.2,0,0.3,0C94.8,31.1,95.4,30.7,95.7,30.2L95.7,30.2z"/>
<path class="st2" d="M102.3,25.7c0,0.8-0.6,1.4-1.4,1.4c-0.8,0-1.4-0.6-1.4-1.4c0,0,0,0,0,0c0-0.8,0.6-1.4,1.4-1.4
	C101.7,24.3,102.3,24.9,102.3,25.7z M102.3,31.3c0,0.8-0.6,1.4-1.3,1.4c-0.8,0-1.4-0.6-1.4-1.3s0.6-1.4,1.3-1.4c0,0,0.1,0,0.1,0
	C101.7,30,102.3,30.6,102.3,31.3z"/>
<circle class="st2" cx="229.9" cy="71.4" r="2.2"/>
<circle class="st2" cx="132.1" cy="158.9" r="2.2"/>
</svg>
