<?xml version="1.0" encoding="utf-8"?>
<!-- Generator: Adobe Illustrator 24.3.0, SVG Export Plug-In . SVG Version: 6.00 Build 0)  -->
<svg version="1.1" id="Layer_1" xmlns="http://www.w3.org/2000/svg" xmlns:xlink="http://www.w3.org/1999/xlink" x="0px" y="0px"
	 viewBox="0 0 597.2 301.1" style="enable-background:new 0 0 597.2 301.1;" xml:space="preserve">
<style type="text/css">
	.st0{fill:#00A34B;}
	.st1{fill:#F9E300;}
	.st2{fill:#00A1DE;}
</style>
<path class="st0" d="M358.7,230.6c-1.4,0-2.9,0-4.3-0.1c-7.9-0.5-13.9-7.4-13.4-15.3c0.5-7.7,7.1-13.7,14.8-13.4
	c32.1,1.6,59.4-23.2,61-55.2c1.6-32.1-23.2-59.4-55.2-61c-23.1-1.1-44.7,11.5-55,32.3c-3.4,7.2-12,10.2-19.1,6.8
	c-7.2-3.4-10.2-12-6.8-19.1c0.1-0.1,0.1-0.3,0.2-0.4c21.3-43,73.4-60.7,116.5-39.4s60.7,73.4,39.4,116.5
	C422,211.8,391.8,230.6,358.7,230.6z"/>
<path class="st1" d="M355.1,230.5h-0.7c-48-2.4-84.9-43.3-82.4-91.2c0.6-11.9,3.6-23.5,8.9-34.1c3.4-7.2,12-10.2,19.1-6.8
	c7.2,3.4,10.2,12,6.8,19.1c-0.1,0.1-0.1,0.3-0.2,0.4c-14.2,28.8-2.4,63.7,26.4,78c7.1,3.5,14.9,5.6,22.9,6c7.9,0.4,14,7.2,13.6,15.1
	C369,224.5,362.7,230.5,355.1,230.5L355.1,230.5z"/>
<path class="st2" d="M481.6,265.3h-4.5v8.6h-9l-0.1-8.6h-16.8v-6.2l11.3-26l7.9,2.9l-9.6,22.3h7.3l1-9.4h8v9.4h4.5L481.6,265.3z"/>
<path class="st2" d="M515,254.1c0,13.3-5.2,20.8-15,20.8s-15-7.5-15-20.8s5.2-20.8,15-20.8S515,240.7,515,254.1z M494.5,254.1
	c0,10.5,1.6,13.9,5.5,13.9s5.5-3.2,5.5-13.9s-1.6-13.9-5.5-13.9S494.6,243.5,494.5,254.1L494.5,254.1z"/>
<path class="st2" d="M539.8,243.9c0,6.5-4.6,10.6-10.5,10.6c-5.8-0.2-10.4-5.1-10.3-10.9c0.2-5.6,4.7-10.1,10.3-10.3
	C535.3,233.3,539.8,237.4,539.8,243.9z M525.6,243.9c0,2.5,0.8,5,3.8,5s3.8-2.5,3.8-5s-0.7-5-3.8-5S525.6,241.4,525.6,243.9z
	 M559,235.2l-27.2,41l-5.7-3.6l27.2-41L559,235.2z M566,264.3c0,6.5-4.6,10.6-10.5,10.6s-10.6-4-10.6-10.6s4.7-10.5,10.5-10.5
	S566,257.8,566,264.3L566,264.3z M551.7,264.3c0,2.5,0.8,5.1,3.8,5.1s3.8-2.5,3.8-5.1s-0.7-4.9-3.8-4.9S551.7,261.8,551.7,264.3
	L551.7,264.3z"/>
<path class="st2" d="M504.4,289c0,2.8-2,3.9-4.7,3.9h-1.5v4.5h-1.7v-12.2h3.2C502.6,285.2,504.4,286.4,504.4,289z M502.6,289
	c0-1.8-1.2-2.5-3-2.5h-1.5v5.1h1.5C501.4,291.6,502.6,291.1,502.6,289z"/>
<path class="st2" d="M511.2,288l-0.3,1.6c-0.3-0.1-0.5-0.1-0.8-0.1c-1.2,0-1.8,0.8-2.2,2.6v5.3h-1.6v-9.3h1.4l0.2,1.9
	c0.3-1.2,1.3-2,2.5-2.1C510.6,287.9,510.9,287.9,511.2,288z"/>
<path class="st2" d="M520.2,292.7c0,2.9-1.5,4.9-4.1,4.9s-4.1-1.9-4.1-4.9s1.5-4.9,4.2-4.9S520.2,289.8,520.2,292.7z M513.6,292.7
	c0,2.4,0.9,3.5,2.4,3.5s2.4-1.1,2.4-3.6s-0.8-3.5-2.4-3.5C514.5,289.2,513.6,290.3,513.6,292.7L513.6,292.7z"/>
<path class="st2" d="M534.7,290.7v6.7h-1.6V291c0-1.4-0.6-1.8-1.3-1.8c-1,0-1.5,0.6-2.2,1.6v6.6H528V291c0-1.4-0.6-1.8-1.3-1.8
	c-1,0-1.6,0.6-2.2,1.6v6.6h-1.6v-9.3h1.4l0.1,1.4c0.5-1,1.6-1.6,2.7-1.6c1.1,0,2,0.6,2.4,1.7c0.6-1,1.6-1.7,2.8-1.7
	C533.7,287.9,534.7,289,534.7,290.7z"/>
<path class="st2" d="M539.9,284.7c0,0.6-0.5,1.2-1.1,1.2c-0.6,0-1.2-0.5-1.2-1.1s0.5-1.2,1.1-1.2c0,0,0,0,0,0c0.6,0,1.1,0.4,1.1,1
	C539.9,284.7,539.9,284.7,539.9,284.7z M539.6,297.4H538v-9.3h1.6L539.6,297.4z"/>
<path class="st2" d="M550.4,288.5c-0.9,0.2-1.8,0.3-2.7,0.3c1,0.3,1.7,1.3,1.6,2.3c0,1.8-1.3,3.2-3.5,3.2c-0.4,0-0.8-0.1-1.2-0.2
	c-0.3,0.2-0.4,0.5-0.5,0.9c0,0.4,0.3,0.8,1.2,0.8h1.5c1.9,0,3.2,1.1,3.2,2.6c0,1.8-1.5,2.8-4.4,2.8s-4-0.9-4-2.8h1.5
	c0,1.1,0.5,1.6,2.5,1.6s2.7-0.5,2.7-1.5s-0.7-1.3-1.9-1.3H545c-1.7,0-2.4-0.8-2.4-1.8c0-0.7,0.4-1.3,1-1.6c-1-0.4-1.6-1.5-1.6-2.6
	c0-1.8,1.5-3.3,3.4-3.3c0.1,0,0.1,0,0.2,0c1.5,0.1,2.9-0.2,4.2-0.8L550.4,288.5z M543.8,291.1c-0.1,1,0.6,2,1.6,2.1
	c0.1,0,0.2,0,0.4,0c1.3,0,2-0.8,2-2.1c0.2-1-0.5-1.9-1.5-2.1c-0.2,0-0.3,0-0.5,0c-1-0.1-1.9,0.7-2,1.8
	C543.8,290.9,543.8,291,543.8,291.1L543.8,291.1z"/>
<path class="st2" d="M558.8,296.5l-0.4,1.1c-0.9,0-1.6-0.6-1.8-1.4c-0.6,0.9-1.7,1.4-2.8,1.4c-1.5,0.2-2.8-0.9-3-2.4
	c0-0.1,0-0.3,0-0.4c0-2,1.5-3.1,4.1-3.1h1.4V291c0-1.3-0.7-1.8-1.9-1.8c-0.9,0-1.7,0.2-2.5,0.5l-0.4-1.2c1-0.4,2.1-0.6,3.2-0.6
	c2.3,0,3.3,1.2,3.3,3.2v4.2C558,296,558.3,296.3,558.8,296.5z M556.4,294.9v-2.1h-1.2c-1.7,0-2.6,0.6-2.6,1.9
	c-0.1,0.8,0.4,1.5,1.2,1.7c0.1,0,0.2,0,0.4,0C555.2,296.4,556,295.8,556.4,294.9z"/>
<path class="st2" d="M566.9,288.9l-0.7,1c-0.7-0.5-1.6-0.8-2.4-0.8c-1.1,0-1.7,0.5-1.7,1.2s0.5,1.1,2,1.5c2,0.5,3.1,1.3,3.1,2.9
	c0,1.9-1.8,2.8-3.7,2.8c-1.3,0-2.5-0.4-3.5-1.2l0.9-1c0.7,0.6,1.7,0.9,2.6,0.9c1.2,0,2-0.5,2-1.4s-0.5-1.3-2.3-1.7
	c-2-0.5-2.8-1.4-2.8-2.7c0-1.5,1.4-2.6,3.3-2.6C564.9,287.8,566,288.2,566.9,288.9z"/>
<path class="st2" d="M481.4,28.8c0,8.1-5.5,14.6-14.4,14.6c-10.5,0-15-7.8-15-19.2c0-13.5,6.5-22.4,17.3-22.4c3.2,0,6.4,0.9,9.1,2.7
	l-3.4,5.5c-1.6-1-3.5-1.5-5.4-1.5c-4.5,0-7.4,3.9-7.9,10.8c2.2-2.3,5.2-3.6,8.4-3.6C476.5,15.6,481.4,20.3,481.4,28.8z M472.1,28.9
	c0-5.1-1.6-6.9-4.7-6.9c-2.3,0.1-4.4,1.3-5.8,3.1c0.1,8.3,1.5,11.6,5.5,11.6C470.4,36.7,472.1,33.6,472.1,28.9L472.1,28.9z"/>
<path class="st2" d="M515,22.5c0,13.3-5.2,20.8-15,20.8s-15-7.5-15-20.8s5.2-20.8,15-20.8S515,9.2,515,22.5z M494.5,22.5
	c0,10.5,1.6,13.9,5.5,13.9s5.5-3.2,5.5-13.9S503.8,8.6,500,8.6S494.6,12,494.5,22.5L494.5,22.5z"/>
<path class="st2" d="M539.8,12.4c0,6.5-4.6,10.6-10.5,10.6c-5.6,0.2-10.3-4.2-10.5-9.8c0-0.3,0-0.5,0-0.8C518.7,6.8,523,2,528.6,1.8
	c0.3,0,0.5,0,0.8,0C535.3,1.8,539.8,5.9,539.8,12.4z M525.6,12.4c0,2.5,0.8,5,3.8,5s3.8-2.5,3.8-5s-0.7-5-3.8-5
	C526.3,7.4,525.6,9.8,525.6,12.4z M559,3.6l-27.2,41l-5.7-3.6l27.2-41L559,3.6z M566,32.7c0,6.5-4.6,10.6-10.5,10.6
	c-5.6,0.2-10.3-4.1-10.5-9.7c0-0.3,0-0.6,0-0.9c0-6.5,4.7-10.5,10.5-10.5S566,26.3,566,32.7z M551.7,32.7c0,2.5,0.8,5.1,3.8,5.1
	s3.8-2.5,3.8-5.1s-0.7-4.9-3.8-4.9S551.7,30.3,551.7,32.7L551.7,32.7z"/>
<path class="st2" d="M464.5,54.8l-1,1c-0.7-0.7-1.7-1-2.7-1c-1.8,0-3.5,1.3-3.5,4.9s1.2,4.9,3.3,4.9c0.8,0,1.6-0.2,2.3-0.6v-3.6
	h-2.2l-0.2-1.4h4V65c-1.2,0.7-2.6,1.1-4,1.1c-3.1,0-5.1-2.1-5.1-6.3s2.5-6.3,5.3-6.3C462.1,53.4,463.5,53.9,464.5,54.8z"/>
<path class="st2" d="M472.4,56.4l-0.3,1.6c-0.3-0.1-0.5-0.1-0.8-0.1c-1.2,0-1.8,0.8-2.2,2.6v5.3h-1.6v-9.3h1.4l0.2,1.9
	c0.3-1.2,1.3-2,2.5-2.1C471.7,56.3,472,56.4,472.4,56.4z"/>
<path class="st2" d="M481.1,65.8h-1.4l-0.1-1.4c-0.6,1.1-1.7,1.7-2.9,1.7c-1.6,0-2.6-1-2.6-2.8v-6.7h1.6V63c0,1.3,0.4,1.7,1.4,1.7
	c1-0.1,1.9-0.7,2.3-1.6v-6.6h1.6L481.1,65.8z"/>
<path class="st2" d="M492.2,61.2c0,2.8-1.2,4.9-3.6,4.9c-0.9,0.1-1.8-0.3-2.4-1v4.4l-1.6,0.2v-13h1.4l0.1,1.2
	c0.6-0.9,1.6-1.5,2.8-1.5C491.2,56.3,492.2,58.3,492.2,61.2z M490.4,61.2c0-2.4-0.7-3.6-2.1-3.6c-0.9,0.1-1.8,0.6-2.2,1.5v4.5
	c0.4,0.7,1.2,1.1,2,1.1C489.6,64.7,490.4,63.6,490.4,61.2z"/>
<path class="st2" d="M502.6,61.2c0,2.9-1.5,4.9-4.1,4.9s-4.1-1.9-4.1-4.8s1.5-4.9,4.2-4.9S502.6,58.2,502.6,61.2z M496,61.2
	c0,2.4,0.9,3.5,2.4,3.5s2.4-1.1,2.4-3.6s-0.9-3.5-2.4-3.5S496,58.8,496,61.2L496,61.2z"/>
<path class="st2" d="M516.4,55h-4.7v4h4.1v1.3h-4.1v4.2h5v1.3H510V53.7h6.6L516.4,55z"/>
<path class="st2" d="M526.3,59.2v6.7h-1.6v-6.4c0-1.4-0.6-1.8-1.5-1.8c-1,0.1-1.9,0.7-2.4,1.6v6.6h-1.6v-9.3h1.4l0.1,1.4
	c0.6-1,1.7-1.6,2.8-1.6c1.4-0.1,2.6,1,2.7,2.4C526.3,58.9,526.3,59,526.3,59.2z"/>
<path class="st2" d="M536.5,61.8h-5.9c0.2,2.2,1.2,3,2.5,3c0.9,0,1.7-0.3,2.4-0.8l0.7,1c-0.9,0.7-2,1.1-3.2,1.1
	c-2.6,0-4.1-1.8-4.1-4.8s1.5-5,3.9-5c2.4,0,3.8,1.8,3.8,4.6C536.5,61.2,536.5,61.5,536.5,61.8z M534.9,60.4c0-1.8-0.7-2.8-2.2-2.8
	c-1.2,0-2,0.9-2.2,2.9h4.4L534.9,60.4z"/>
<path class="st2" d="M544.1,56.4l-0.3,1.6c-0.3-0.1-0.5-0.1-0.8-0.1c-1.2,0-1.8,0.8-2.2,2.6v5.3h-1.6v-9.3h1.4l0.2,1.9
	c0.3-1.2,1.3-2,2.5-2.1C543.5,56.3,543.8,56.4,544.1,56.4z"/>
<path class="st2" d="M553.2,57c-0.9,0.2-1.8,0.3-2.7,0.3c1,0.3,1.7,1.3,1.7,2.3c0,1.8-1.3,3.2-3.5,3.2c-0.4,0-0.8-0.1-1.2-0.2
	c-0.3,0.2-0.4,0.5-0.5,0.9c0,0.4,0.3,0.8,1.2,0.8h1.5c1.9,0,3.2,1.1,3.2,2.6c0,1.8-1.5,2.8-4.3,2.8c-3,0-4-0.9-4-2.8h1.5
	c0,1.1,0.5,1.6,2.5,1.6s2.7-0.5,2.7-1.4s-0.7-1.3-1.9-1.3h-1.5c-1.7,0-2.4-0.8-2.4-1.8c0-0.7,0.4-1.3,1-1.7c-1-0.4-1.6-1.5-1.6-2.6
	c0-1.8,1.5-3.3,3.4-3.3c0.1,0,0.1,0,0.2,0c1.5,0.1,2.9-0.2,4.2-0.8L553.2,57z M546.5,59.6c-0.1,1,0.6,2,1.7,2.1c0.1,0,0.2,0,0.3,0
	c1,0.1,1.9-0.7,2-1.7c0-0.1,0-0.3,0-0.4c0.2-1-0.5-1.9-1.5-2.1c-0.2,0-0.3,0-0.5,0c-1-0.1-1.9,0.7-2,1.7
	C546.5,59.3,546.5,59.5,546.5,59.6L546.5,59.6z"/>
<path class="st2" d="M557.8,53.1l-3.8,1.5l-0.5-0.9l3.5-2L557.8,53.1z M556.5,65.8h-1.6v-9.3h1.6V65.8z"/>
<path class="st2" d="M566.8,64.9l-0.4,1.1c-0.9,0-1.6-0.6-1.8-1.4c-0.6,0.9-1.7,1.4-2.8,1.4c-1.5,0.2-2.8-0.9-3-2.4
	c0-0.1,0-0.3,0-0.4c0-2,1.5-3.1,4.1-3.1h1.4v-0.7c0-1.3-0.7-1.8-1.9-1.8c-0.9,0-1.7,0.2-2.5,0.5l-0.4-1.1c1-0.4,2.1-0.6,3.2-0.6
	c2.2,0,3.3,1.2,3.3,3.1v4.2C566.1,64.5,566.4,64.8,566.8,64.9z M564.5,63.4v-2.1h-1.2c-1.7,0-2.6,0.6-2.6,1.9
	c-0.1,0.8,0.4,1.6,1.2,1.7c0.1,0,0.2,0,0.4,0C563.2,64.8,564.1,64.3,564.5,63.4L564.5,63.4z"/>
<path class="st2" d="M521.6,85.9c0,2.6-2,3.5-4.8,3.5h-3.3V77.2h2.9c3,0,4.8,1,4.8,3.1c0,1.3-1,2.5-2.3,2.7
	C520.2,83.2,521.6,83.8,521.6,85.9z M515.1,78.5v3.8h1.9c1.4,0,2.4-0.7,2.4-2c0-1.5-1.1-1.9-2.9-1.9L515.1,78.5z M519.8,85.9
	c0-1.7-1.3-2.3-2.7-2.3h-2V88h1.7C518.5,88,519.8,87.7,519.8,85.9L519.8,85.9z"/>
<path class="st2" d="M531.7,84.7c0,2.9-1.5,4.9-4.1,4.9c-2.6,0-4.2-1.9-4.2-4.8s1.5-4.9,4.2-4.9S531.7,81.8,531.7,84.7z M525.1,84.7
	c0,2.4,0.8,3.6,2.4,3.6s2.4-1.1,2.4-3.6s-0.8-3.5-2.4-3.5C526,81.1,525.1,82.3,525.1,84.7L525.1,84.7z"/>
<path class="st2" d="M541.9,80.5c-0.9,0.2-1.8,0.3-2.7,0.3c1,0.3,1.7,1.3,1.6,2.3c0,1.8-1.3,3.2-3.5,3.2c-0.4,0-0.8-0.1-1.2-0.2
	c-0.3,0.2-0.4,0.5-0.5,0.9c0,0.4,0.3,0.8,1.2,0.8h1.5c1.9,0,3.2,1.1,3.2,2.6c0,1.8-1.5,2.8-4.4,2.8c-3,0-4-0.9-4-2.8h1.5
	c0,1,0.5,1.6,2.5,1.6s2.7-0.5,2.7-1.4s-0.7-1.3-1.9-1.3h-1.5c-1.7,0-2.4-0.8-2.4-1.8c0-0.7,0.4-1.3,1-1.6c-1-0.4-1.6-1.5-1.6-2.6
	c0-1.8,1.5-3.3,3.4-3.3c0.1,0,0.1,0,0.2,0c1.5,0.1,2.9-0.2,4.2-0.8L541.9,80.5z M535.2,83.1c-0.1,1,0.6,2,1.6,2.1c0.1,0,0.2,0,0.4,0
	c1.3,0,2-0.8,2-2.1c0.2-1-0.5-1.9-1.5-2.1c-0.2,0-0.3,0-0.5,0c-1-0.1-1.9,0.7-2,1.8C535.2,82.9,535.2,83,535.2,83.1z"/>
<path class="st2" d="M550.9,84.7c0,2.9-1.5,4.9-4.2,4.9s-4.1-1.9-4.1-4.8s1.5-4.9,4.2-4.9S550.9,81.8,550.9,84.7z M544.4,84.7
	c0,2.4,0.8,3.6,2.4,3.6s2.4-1.1,2.4-3.6s-0.8-3.5-2.4-3.5S544.3,82.3,544.4,84.7L544.4,84.7z"/>
<path class="st2" d="M558.3,88.9c-0.6,0.4-1.3,0.6-2.1,0.6c-1.3,0.1-2.4-0.9-2.5-2.1c0-0.2,0-0.3,0-0.5v-5.6h-1.6v-1.3h1.6V78
	l1.6-0.2v2.3h2.2l-0.2,1.3h-2v5.5c0,0.9,0.3,1.4,1.1,1.4c0.4,0,0.9-0.1,1.2-0.4L558.3,88.9z"/>
<path class="st2" d="M566.9,88.4l-0.4,1.1c-0.9,0-1.6-0.6-1.8-1.4c-0.6,0.9-1.7,1.4-2.8,1.4c-1.5,0.2-2.8-0.9-3-2.4
	c0-0.1,0-0.3,0-0.4c0-2,1.5-3.1,4.1-3.1h1.4V83c0-1.3-0.7-1.8-2-1.8c-0.9,0-1.7,0.2-2.5,0.5l-0.4-1.2c1-0.4,2.1-0.6,3.2-0.6
	c2.2,0,3.3,1.2,3.3,3.1v4.2C566.1,88,566.4,88.3,566.9,88.4z M561.1,78.1l-0.5-0.9l3.5-2l0.7,1.4L561.1,78.1z M564.5,86.9v-2.1h-1.2
	c-1.7,0-2.6,0.6-2.6,1.9c-0.1,0.8,0.4,1.5,1.2,1.7c0.1,0,0.2,0,0.4,0C563.2,88.3,564.1,87.8,564.5,86.9L564.5,86.9z"/>
<polygon class="st2" points="360.5,69.6 358.7,68.8 378.6,24 432.6,24 432.6,25.9 379.9,25.9 "/>
<path class="st2" d="M359.6,73.1c2.2,0,3.9-1.8,3.9-3.9s-1.8-3.9-3.9-3.9c-2.2,0-3.9,1.8-3.9,3.9C355.6,71.4,357.4,73.1,359.6,73.1
	C359.5,73.1,359.6,73.1,359.6,73.1"/>
<polygon class="st2" points="431.6,262.4 340.5,262.4 340.3,261.8 317.2,204.9 319,204.1 341.9,260.4 431.6,260.4 "/>
<path class="st2" d="M318.1,208.4c2.2,0,3.9-1.8,3.9-3.9s-1.8-3.9-3.9-3.9c-2.2,0-3.9,1.8-3.9,3.9
	C314.2,206.7,315.9,208.4,318.1,208.4L318.1,208.4"/>
<path class="st2" d="M44.9,123.7l-2.2,2.6c-1-0.8-2.2-1.3-3.5-1.3c-2.5,0-4.2,2-4.2,6.8s1.7,6.7,4.3,6.7c1.4-0.1,2.8-0.6,3.8-1.6
	l2,2.6c-1.6,1.6-3.8,2.5-6.1,2.5c-5.3,0-8.9-3.6-8.9-10.2s3.8-10.1,8.8-10.1C41.2,121.5,43.3,122.2,44.9,123.7z"/>
<path class="st2" d="M60.3,134c0,4.8-2.8,7.9-7.3,7.9s-7.3-2.9-7.3-7.9c0-4.8,2.7-7.9,7.3-7.9S60.3,129,60.3,134z M50.3,134
	c0,3.3,0.9,4.7,2.7,4.7s2.7-1.4,2.7-4.6s-0.9-4.7-2.7-4.7S50.3,130.8,50.3,134L50.3,134z"/>
<path class="st2" d="M83.2,130.6v10.9h-4.4v-10.1c0-1.6-0.6-2-1.3-2c-0.9,0-1.6,0.7-2.3,1.9v10.2h-4.4v-10.1c0-1.6-0.6-2-1.3-2
	c-0.9,0-1.6,0.7-2.3,1.9v10.2h-4.4v-14.8h3.9l0.3,1.7c1-1.4,2.6-2.2,4.3-2.2c1.6-0.1,3,0.9,3.5,2.3c1-1.5,2.7-2.4,4.5-2.3
	C81.6,126.1,83.2,127.7,83.2,130.6z"/>
<path class="st2" d="M100.5,134c0,4.6-2.2,7.9-5.9,7.9c-1.4,0-2.7-0.6-3.6-1.6v6.8l-4.4,0.5v-21.1h3.9l0.2,1.7
	c1-1.3,2.6-2.1,4.3-2.1C98.8,126.1,100.5,129.1,100.5,134z M95.9,134c0-3.7-0.9-4.7-2.3-4.7c-1.1,0.1-2.1,0.7-2.6,1.7v6.3
	c0.5,0.8,1.3,1.3,2.3,1.3C94.9,138.7,95.9,137.4,95.9,134z"/>
<path class="st2" d="M117,134c0,4.8-2.8,7.9-7.3,7.9s-7.3-2.9-7.3-7.9c0-4.8,2.7-7.9,7.3-7.9S117,129,117,134z M107,134
	c0,3.3,0.9,4.7,2.7,4.7s2.7-1.4,2.7-4.6s-0.9-4.7-2.7-4.7S107,130.8,107,134z"/>
<path class="st2" d="M130.3,127.9l-1.6,2.5c-1.1-0.7-2.4-1.1-3.7-1.1c-1.2,0-1.8,0.4-1.8,1.1s0.4,1.1,3.1,1.9
	c2.9,0.8,4.6,2.1,4.6,4.7c0,3.1-2.9,4.9-6.6,4.9c-2.3,0-4.5-0.7-6.2-2.2l2.2-2.4c1.1,0.9,2.5,1.4,4,1.5c1.3,0,2.2-0.5,2.2-1.4
	s-0.4-1.3-3.1-2.1c-2.9-0.8-4.4-2.4-4.4-4.6c0-2.6,2.3-4.5,6.1-4.5C126.8,126.1,128.8,126.7,130.3,127.9z"/>
<path class="st2" d="M138,121.2c0,1.4-1.1,2.5-2.5,2.5c0,0-0.1,0-0.1,0c-1.4,0.2-2.6-0.8-2.8-2.2c-0.2-1.4,0.8-2.6,2.2-2.8
	c0.2,0,0.4,0,0.6,0c1.4-0.1,2.6,1,2.6,2.4C138,121.2,138,121.2,138,121.2z M137.6,141.4h-4.4v-14.9h4.4V141.4z"/>
<path class="st2" d="M152.6,127.9l-1.9,2.6c-0.8-0.7-1.8-1-2.8-1.1c-1.9,0-3,1.3-3,4.6s1.2,4.3,2.9,4.3c1,0,2-0.4,2.9-1l1.9,2.8
	c-1.4,1.2-3.2,1.8-5,1.8c-4.6,0-7.4-3.1-7.4-7.8s2.8-8,7.3-8C149.4,126.1,151.2,126.7,152.6,127.9z"/>
<path class="st2" d="M159.3,121.2c0,1.4-1.1,2.5-2.5,2.5c0,0-0.1,0-0.1,0c-1.4-0.1-2.5-1.2-2.4-2.6c0.1-1.4,1.2-2.5,2.6-2.4
	C158.2,118.8,159.3,119.9,159.3,121.2z M158.9,141.4h-4.4v-14.9h4.4V141.4z"/>
<path class="st2" d="M176.1,134c0,4.8-2.7,7.9-7.3,7.9s-7.3-2.9-7.3-7.9c0-4.8,2.8-7.9,7.3-7.9S176.1,129,176.1,134z M172.5,121.3
	l-6.6,2.7l-1.2-2.3l6.1-3.7L172.5,121.3z M166.1,134c0,3.3,0.9,4.7,2.7,4.7s2.7-1.4,2.7-4.6s-0.9-4.7-2.7-4.7S166.1,130.8,166.1,134
	z"/>
<path class="st2" d="M191.5,130.6v10.9h-4.4v-10.1c0-1.6-0.5-2-1.4-2s-1.8,0.7-2.6,1.9v10.2h-4.4v-14.8h3.9l0.3,1.8
	c1.1-1.4,2.8-2.2,4.5-2.2C190,126.1,191.5,127.7,191.5,130.6z"/>
<path class="st2" d="M43.8,172.5l-0.9,2.9c-1.8-0.1-2.9-0.7-3.6-2.1c-1,1.5-2.7,2.3-4.5,2.2c-2.5,0.2-4.6-1.7-4.8-4.1
	c0-0.2,0-0.4,0-0.5c0-3.2,2.5-5,7-5h1.5v-0.6c0-1.8-0.7-2.3-2.5-2.3c-1.3,0.1-2.6,0.3-3.9,0.8l-1-2.9c1.8-0.7,3.7-1,5.6-1.1
	c4.3,0,6.2,1.8,6.2,5.3v5.8C42.8,171.9,43.1,172.3,43.8,172.5z M38.5,170.9v-2.6h-1.1c-2,0-3,0.7-3,2.2c-0.1,0.9,0.5,1.7,1.4,1.9
	c0.1,0,0.2,0,0.3,0C37.1,172.4,38,171.8,38.5,170.9z"/>
<path class="st2" d="M57.9,161.5l-1.9,2.6c-0.8-0.7-1.8-1-2.8-1.1c-1.9,0-3,1.3-3,4.6s1.2,4.3,2.9,4.3c1,0,2.1-0.4,2.9-1l1.9,2.7
	c-1.4,1.2-3.2,1.8-5,1.8c-4.6,0-7.4-3.1-7.4-7.8s2.8-8,7.3-8C54.7,159.7,56.5,160.3,57.9,161.5z"/>
<path class="st2" d="M70.7,161.5l-1.9,2.6c-0.8-0.7-1.8-1-2.8-1.1c-1.9,0-3,1.3-3,4.6s1.2,4.3,3,4.3c1,0,2-0.4,2.9-1l1.9,2.7
	c-1.4,1.2-3.2,1.8-5,1.8c-4.6,0-7.4-3.1-7.4-7.8s2.8-8,7.3-8C67.5,159.7,69.3,160.3,70.7,161.5z"/>
<path class="st2" d="M77.4,154.9c0,1.4-1.1,2.5-2.5,2.5c0,0-0.1,0-0.1,0c-1.4,0.2-2.6-0.8-2.8-2.2c-0.2-1.4,0.8-2.6,2.2-2.8
	c0.2,0,0.4,0,0.6,0c1.4-0.1,2.6,1,2.6,2.4C77.4,154.8,77.4,154.8,77.4,154.9z M77,175h-4.4v-14.8H77V175z"/>
<path class="st2" d="M94.2,167.6c0,4.8-2.7,7.9-7.3,7.9c-4.5,0-7.3-2.9-7.3-7.9c0-4.8,2.8-7.9,7.3-7.9S94.2,162.6,94.2,167.6z
	 M84.2,167.6c0,3.3,0.9,4.7,2.7,4.7c1.8,0,2.7-1.4,2.7-4.6s-0.9-4.7-2.7-4.7C85.1,163,84.3,164.4,84.2,167.6L84.2,167.6z"/>
<path class="st2" d="M109.7,164.2V175h-4.4v-10.1c0-1.6-0.5-2-1.4-2s-1.8,0.7-2.6,1.9V175h-4.4v-14.8h3.9l0.3,1.8
	c1.1-1.4,2.8-2.3,4.5-2.2C108.1,159.7,109.7,161.3,109.7,164.2z"/>
<path class="st2" d="M125.8,172.5l-0.9,2.9c-1.8-0.1-2.9-0.7-3.6-2.1c-1,1.5-2.7,2.3-4.5,2.2c-2.5,0.2-4.6-1.6-4.8-4.1
	c0-0.2,0-0.4,0-0.5c0-3.2,2.5-5,7-5h1.5v-0.6c0-1.8-0.7-2.3-2.5-2.3c-1.3,0.1-2.6,0.3-3.9,0.8l-1-2.9c1.8-0.7,3.7-1,5.6-1.1
	c4.3,0,6.2,1.8,6.2,5.3v5.8C124.8,171.9,125.1,172.3,125.8,172.5z M120.5,170.9v-2.6h-1.1c-2,0-3,0.7-3,2.2
	c-0.1,0.9,0.5,1.7,1.4,1.9c0.1,0,0.2,0,0.3,0C119.1,172.3,120,171.8,120.5,170.9z"/>
<path class="st2" d="M137.9,159.9l-0.7,4.3c-0.4-0.1-0.9-0.2-1.3-0.2c-1.8,0-2.6,1.4-3.1,3.6v7.3h-4.4v-14.8h3.9l0.4,2.9
	c0.7-2.1,2.1-3.3,3.8-3.3C136.9,159.7,137.4,159.8,137.9,159.9z"/>
<path class="st2" d="M144.4,154.9c0,1.4-1.1,2.7-2.5,2.7c-1.4,0-2.7-1.1-2.7-2.5c0-1.4,1.1-2.7,2.5-2.7c0,0,0.1,0,0.1,0
	c1.4-0.1,2.6,1,2.6,2.4C144.4,154.7,144.4,154.8,144.4,154.9z M144,175h-4.4v-14.8h4.4V175z"/>
<path class="st2" d="M160.3,172.5l-0.9,2.9c-1.8-0.1-2.9-0.7-3.6-2.1c-1,1.5-2.7,2.3-4.5,2.2c-2.5,0.2-4.6-1.7-4.8-4.1
	c0-0.2,0-0.4,0-0.5c0-3.2,2.5-5,7-5h1.5v-0.6c0-1.8-0.7-2.3-2.5-2.3c-1.3,0.1-2.6,0.3-3.9,0.8l-1-2.9c1.8-0.7,3.7-1,5.6-1.1
	c4.3,0,6.2,1.8,6.2,5.3v5.8C159.3,171.9,159.6,172.3,160.3,172.5z M155,170.9v-2.6h-1.1c-2,0-3,0.7-3,2.2c-0.1,0.9,0.5,1.7,1.4,1.9
	c0.1,0,0.2,0,0.3,0C153.6,172.4,154.5,171.8,155,170.9z"/>
<path class="st2" d="M167,163.3c0,1.4-1.1,2.5-2.5,2.5c-1.4,0-2.5-1.1-2.5-2.5c0-1.4,1.1-2.5,2.5-2.5c0,0,0,0,0,0
	C165.9,160.8,167,161.9,167,163.3z M167,173c0,1.4-1.1,2.5-2.5,2.5c-1.4,0-2.5-1.1-2.5-2.5c0-1.4,1.1-2.5,2.5-2.5c0,0,0,0,0,0
	C165.9,170.5,167,171.6,167,173C167,173,167,173,167,173L167,173z"/>
</svg>
