<?xml version="1.0" encoding="utf-8"?>
<!-- Generator: Adobe Illustrator 24.3.0, SVG Export Plug-In . SVG Version: 6.00 Build 0)  -->
<svg version="1.1" id="Layer_1" xmlns="http://www.w3.org/2000/svg" xmlns:xlink="http://www.w3.org/1999/xlink" x="0px" y="0px"
	 viewBox="0 0 282.27 288.08" style="enable-background:new 0 0 282.27 288.08;" xml:space="preserve">
<style type="text/css">
	.st0{fill:none;stroke:#00A34B;stroke-width:27.45;stroke-linecap:round;stroke-miterlimit:10;}
	.st1{fill:none;stroke:#F9E300;stroke-width:27.45;stroke-linecap:round;stroke-miterlimit:10;}
	.st2{fill:#00A1DE;}
	.st3{font-family:'FiraSans-Bold';}
	.st4{font-size:56.18px;}
	.st5{font-family:'FiraSans-Regular';}
	.st6{font-size:16.85px;}
	.st7{fill:none;stroke:#00A1DE;stroke-width:1.87;stroke-miterlimit:10;}
</style>
<g>
	<path class="st0" d="M20.92,106.84c16.97-34.35,58.57-48.44,92.92-31.48s48.44,58.57,31.48,92.92
		c-12.25,24.81-38.07,39.96-65.71,38.56"/>
	<path class="st1" d="M79.61,206.85c-38.26-1.94-67.71-34.53-65.77-72.79c0.48-9.46,2.89-18.72,7.08-27.21"/>
	<text transform="matrix(1 0 0 1 169.9373 262.02)" class="st2 st3 st4">40%</text>
	<text transform="matrix(1 0 0 1 212.9973 284.49)" class="st2 st5 st6">P</text>
	<text transform="matrix(1 0 0 1 222.4573 284.49)" class="st2 st5 st6">r</text>
	<text transform="matrix(1 0 0 1 228.4673 284.49)" class="st2 st5 st6">omi</text>
	<text transform="matrix(1 0 0 1 257.5073 284.49)" class="st2 st5 st6">g</text>
	<text transform="matrix(1 0 0 1 265.9673 284.49)" class="st2 st5 st6">a</text>
	<text transform="matrix(1 0 0 1 274.9873 284.49)" class="st2 st5 st6">s</text>
	<text transform="matrix(1 0 0 1 169.9973 40.72)" class="st2 st3 st4">60%</text>
	<text transform="matrix(1 0 0 1 174.6873 63.2)" class="st2 st5 st6">Grupo </text>
	<text transform="matrix(1 0 0 1 225.9573 63.2)" class="st2 st5 st6">E</text>
	<text transform="matrix(1 0 0 1 234.8273 63.2)" class="st2 st5 st6">ne</text>
	<text transform="matrix(1 0 0 1 253.8873 63.2)" class="st2 st5 st6">r</text>
	<text transform="matrix(1 0 0 1 260.1373 63.2)" class="st2 st5 st6">gía</text>
	<text transform="matrix(1 0 0 1 229.2473 85.66)" class="st2 st5 st6">Bo</text>
	<text transform="matrix(1 0 0 1 249.3373 85.66)" class="st2 st5 st6">g</text>
	<text transform="matrix(1 0 0 1 257.8473 85.66)" class="st2 st5 st6">o</text>
	<text transform="matrix(1 0 0 1 267.6973 85.66)" class="st2 st5 st6">t</text>
	<text transform="matrix(1 0 0 1 273.6773 85.66)" class="st2 st5 st6">á</text>
	<polyline class="st7" points="83.87,66.41 102.7,24.11 153.69,24.11 	"/>
	<path class="st2" d="M83.87,70.15c2.07,0.01,3.75-1.67,3.76-3.74c0.01-2.07-1.67-3.75-3.74-3.76c-2.07-0.01-3.75,1.67-3.76,3.74
		c0,0.01,0,0.01,0,0.02C80.13,68.48,81.8,70.15,83.87,70.15"/>
	<polyline class="st7" points="152.74,250.09 66.31,250.09 44.24,195.72 	"/>
	<path class="st2" d="M44.24,199.47c2.07,0,3.75-1.68,3.75-3.75s-1.68-3.75-3.75-3.75s-3.75,1.68-3.75,3.75l0,0
		c-0.01,2.07,1.66,3.74,3.73,3.75C44.22,199.47,44.23,199.47,44.24,199.47"/>
</g>
</svg>
