<svg id="Layer_1" data-name="Layer 1" xmlns="http://www.w3.org/2000/svg" viewBox="0 0 394.25 297.49"><defs><style>.cls-1{fill:#00a1de;}</style></defs><path class="cls-1" d="M167.19,145.21,215.37,86.5h-.22l23.71-28.9h-.15l23.81-29h-.23L286-.3H211.85L125.52,104.9c-.52.63-1,1.28-1.45,1.95L77.48,163.61a27.45,27.45,0,0,0-1.84,2.52L54,192.5c-.53.65-1,1.33-1.49,2l-22.16,27A29.58,29.58,0,0,0,28.49,224L6.85,250.41a28.66,28.66,0,0,0,44.31,36.35L167.34,145.21Z"/><path class="cls-1" d="M275.44,145.21,323.62,86.5h-.23l23.72-28.9H347l23.8-29h-.22L394.25-.3H320.08L287.91,38.9a31.26,31.26,0,0,0-1.85,2.52l-13.94,17h-.07l-32.18,39.2a29.46,29.46,0,0,0-1.84,2.52l-21.65,26.38c-.53.65-1,1.31-1.48,2l-22.17,27a28.89,28.89,0,0,0-1.84,2.52l-21.65,26.38a28.67,28.67,0,0,0,44.32,36.37l62-75.57Z"/><path class="cls-1" d="M473.35,28.6,497.06-.3H422.88L400.44,27c-.66.81-1.27,1.65-1.84,2.51L377,55.93c-.53.65-1,1.31-1.48,2l-.4.49h-.22L352.41,85.75a27.32,27.32,0,0,0-1.84,2.51l-21.65,26.38c-.53.65-1,1.31-1.48,2l-22.17,27a27.32,27.32,0,0,0-1.84,2.51l-21.65,26.39a28.67,28.67,0,0,0,44.33,36.37l52.28-63.71h-.15L426.42,86.5h-.22l23.72-28.9h-.15l23.8-29Z"/><circle class="cls-1" cx="146.22" cy="249.04" r="28.1"/><circle class="cls-1" cx="258.62" cy="241.06" r="28.1"/></svg>