<svg id="Capa_1" data-name="Capa 1" xmlns="http://www.w3.org/2000/svg" viewBox="0 0 185.4 111.11"><defs><style>.cls-1{fill:#1aa44c;}.cls-2{fill:#ffde00;}.cls-3{fill:#24afe6;}</style></defs><path class="cls-1" d="M100.9,110.69a46.92,46.92,0,1,1,46.91-46.92A47,47,0,0,1,100.9,110.69Zm0-80.51a33.59,33.59,0,1,0,33.59,33.59A33.63,33.63,0,0,0,100.9,30.18Z"/><path class="cls-2" d="M100.9,96.94a42.88,42.88,0,0,1-5.55-.38l1.88.25a42.4,42.4,0,0,1-5-1c-.75-.21-1.5-.43-2.24-.68a10.54,10.54,0,0,1-2.5-.93c-.13-.09,1.6.71.93.39-.2-.1-.41-.18-.61-.27l-1-.5c-.79-.38-1.56-.8-2.33-1.23-1.38-.8-2.69-1.69-4-2.62s1.13.93.27.21l-1-.83c-.62-.54-1.22-1.09-1.81-1.66a43.7,43.7,0,0,1-3.31-3.62c-.9-1.09.88,1.2.2.28l-.67-.93c-.48-.67-.93-1.36-1.36-2A40.61,40.61,0,0,1,70.43,77l-.27-.6c-.48-1,.55,1.41.26.62-.15-.42-.33-.83-.48-1.24-.33-.89-.62-1.79-.89-2.71a41.56,41.56,0,0,1-1.19-5.64l.25,1.89a42.09,42.09,0,0,1,0-11.1l-.25,1.89a41.13,41.13,0,0,1,1.78-7.52c.19-.54.39-1.08.6-1.61.42-1.07-.06,0-.21.46a9.37,9.37,0,0,1,.38-.86c.53-1.15,1.11-2.26,1.74-3.35s1.23-2,1.92-3l.54-.76c.68-.92-.07,0-.31.39a14.91,14.91,0,0,1,1.19-1.44,41.82,41.82,0,0,1,5.4-5.16,7.11,7.11,0,0,0,2.08-5,7.25,7.25,0,0,0-2.08-5,7.09,7.09,0,0,0-5-2.07,8.16,8.16,0,0,0-5,2.07c-12.77,10.24-19,27-16.81,43a47.23,47.23,0,0,0,46.84,40.85c3.71,0,7.26-3.27,7.08-7.08a7.21,7.21,0,0,0-7.08-7.09Z"/><path class="cls-3" d="M151.38,10.27a5,5,0,0,1-5.14,5.2c-3.76,0-5.38-2.77-5.38-6.84,0-4.81,2.34-8,6.18-8a5.77,5.77,0,0,1,3.23.94l-1.22,2A3.69,3.69,0,0,0,147.12,3c-1.59,0-2.62,1.39-2.81,3.87a4.09,4.09,0,0,1,3-1.31C149.64,5.56,151.38,7.26,151.38,10.27Zm-3.31,0c0-1.83-.59-2.46-1.68-2.46A2.76,2.76,0,0,0,144.31,9c0,3,.54,4.13,2,4.13C147.48,13.1,148.07,12,148.07,10.31Z"/><path class="cls-3" d="M163.42,8c0,4.75-1.87,7.43-5.36,7.43s-5.35-2.68-5.35-7.43S154.58.63,158.06.63,163.42,3.28,163.42,8Zm-7.31,0c0,3.76.57,5,1.95,5s2-1.14,2-5-.59-4.95-2-4.95S156.11,4.28,156.11,8Z"/><path class="cls-3" d="M172.28,4.41a3.74,3.74,0,1,1-7.48,0,3.74,3.74,0,1,1,7.48,0Zm-5.1,0c0,.88.27,1.78,1.36,1.78s1.35-.88,1.35-1.78-.26-1.79-1.35-1.79S167.18,3.51,167.18,4.41ZM179.12,1.3,169.4,16l-2-1.3L177.09,0Zm2.5,10.39a3.75,3.75,0,1,1-7.49,0,3.75,3.75,0,1,1,7.49,0Zm-5.1,0c0,.89.27,1.81,1.37,1.81s1.34-.9,1.34-1.81-.25-1.76-1.34-1.76S176.52,10.81,176.52,11.69Z"/><path class="cls-3" d="M144.18,19.05l-.36.38a1.42,1.42,0,0,0-1-.36c-.64,0-1.29.49-1.29,1.8s.44,1.82,1.22,1.82a1.81,1.81,0,0,0,.86-.2V21.13h-.8l-.07-.5h1.48V22.8a2.9,2.9,0,0,1-1.47.4c-1.15,0-1.87-.78-1.87-2.33a2,2,0,0,1,1.94-2.31A1.93,1.93,0,0,1,144.18,19.05Z"/><path class="cls-3" d="M147.08,19.65l-.11.59a.91.91,0,0,0-.3,0c-.43,0-.67.3-.81,1v2h-.6V19.69h.51l.06.7a1,1,0,0,1,.92-.78A1.75,1.75,0,0,1,147.08,19.65Z"/><path class="cls-3" d="M150.31,23.12h-.51l-.05-.54a1.14,1.14,0,0,1-1.06.62.92.92,0,0,1-1-1.05V19.69h.6v2.39c0,.47.16.65.53.65a1,1,0,0,0,.86-.59V19.69h.59Z"/><path class="cls-3" d="M154.39,21.4c0,1-.46,1.8-1.35,1.8a1.11,1.11,0,0,1-.89-.39v1.62l-.6.07V19.69h.51l.05.46a1.24,1.24,0,0,1,1-.54C154,19.61,154.39,20.32,154.39,21.4Zm-.64,0c0-.89-.26-1.31-.78-1.31a1,1,0,0,0-.82.53v1.67a.87.87,0,0,0,.75.42C153.45,22.71,153.75,22.3,153.75,21.4Z"/><path class="cls-3" d="M158.22,21.4c0,1.06-.56,1.8-1.53,1.8s-1.53-.71-1.53-1.79.56-1.8,1.54-1.8S158.22,20.32,158.22,21.4Zm-2.41,0c0,.89.31,1.3.88,1.3s.88-.41.88-1.31-.31-1.31-.87-1.31S155.81,20.51,155.81,21.41Z"/><path class="cls-3" d="M163.31,19.13h-1.73V20.6h1.51v.49h-1.51v1.53h1.86v.5H161V18.64h2.43Z"/><path class="cls-3" d="M167,20.66v2.46h-.6V20.74c0-.51-.21-.66-.54-.66a1,1,0,0,0-.87.61v2.43h-.6V19.69h.51l.06.51a1.23,1.23,0,0,1,1-.59A.94.94,0,0,1,167,20.66Z"/><path class="cls-3" d="M170.72,21.61h-2.18c.06.79.43,1.1.92,1.1a1.43,1.43,0,0,0,.89-.3l.26.36a1.88,1.88,0,0,1-1.19.43c-1,0-1.52-.67-1.52-1.76s.54-1.83,1.43-1.83,1.41.65,1.41,1.69A2.54,2.54,0,0,1,170.72,21.61Zm-.57-.48c0-.67-.27-1-.81-1s-.76.32-.8,1.08h1.61Z"/><path class="cls-3" d="M173.52,19.65l-.11.59a1,1,0,0,0-.3,0c-.43,0-.68.3-.82,1v2h-.6V19.69h.52l0,.7c.19-.52.51-.78.92-.78A2,2,0,0,1,173.52,19.65Z"/><path class="cls-3" d="M176.87,19.85a3.39,3.39,0,0,1-1,.1.9.9,0,0,1,.6.87A1.17,1.17,0,0,1,175.16,22a1.25,1.25,0,0,1-.43-.07.43.43,0,0,0-.17.32c0,.16.1.28.45.28h.54c.71,0,1.17.41,1.17.95s-.54,1-1.6,1-1.47-.34-1.47-1h.54c0,.39.17.57.93.57s1-.18,1-.53-.26-.49-.69-.49h-.54c-.61,0-.88-.3-.88-.65a.74.74,0,0,1,.37-.6,1,1,0,0,1-.57-1,1.22,1.22,0,0,1,1.31-1.2,3,3,0,0,0,1.57-.3Zm-2.45,1a.69.69,0,0,0,.72.77c.47,0,.72-.28.72-.78a.67.67,0,0,0-.74-.76A.68.68,0,0,0,174.42,20.81Z"/><path class="cls-3" d="M178.56,18.41l-1.37.56-.19-.32,1.3-.74Zm-.48,4.71h-.6V19.69h.6Z"/><path class="cls-3" d="M181.91,22.78l-.14.42a.68.68,0,0,1-.66-.52,1.19,1.19,0,0,1-1,.52,1,1,0,0,1-1.09-1c0-.73.55-1.13,1.51-1.13H181v-.25c0-.5-.24-.68-.72-.68a3.29,3.29,0,0,0-.92.18l-.15-.43a3.27,3.27,0,0,1,1.18-.24,1,1,0,0,1,1.2,1.14v1.57A.41.41,0,0,0,181.91,22.78Zm-.88-.57v-.78h-.45c-.63,0-1,.23-1,.7a.54.54,0,0,0,.59.62A.89.89,0,0,0,181,22.21Z"/><path class="cls-3" d="M165.24,29.64c0,.95-.74,1.28-1.78,1.28h-1.23V26.44h1.06c1.1,0,1.75.35,1.75,1.13a1,1,0,0,1-.84,1C164.72,28.64,165.24,28.88,165.24,29.64Zm-2.39-2.71v1.41h.67c.5,0,.89-.25.89-.73s-.39-.68-1.06-.68Zm1.74,2.71c0-.63-.47-.83-1-.83h-.73v1.61h.61C164.11,30.42,164.59,30.29,164.59,29.64Z"/><path class="cls-3" d="M169,29.2c0,1.06-.56,1.8-1.53,1.8s-1.53-.71-1.53-1.79.56-1.8,1.53-1.8S169,28.12,169,29.2Zm-2.42,0c0,.89.32,1.3.89,1.3s.88-.41.88-1.31-.31-1.31-.88-1.31S166.54,28.31,166.54,29.21Z"/><path class="cls-3" d="M172.71,27.65a3.42,3.42,0,0,1-1,.1.9.9,0,0,1,.61.87A1.17,1.17,0,0,1,171,29.78a1.25,1.25,0,0,1-.43-.07.43.43,0,0,0-.17.32c0,.16.1.28.45.28h.54c.71,0,1.17.41,1.17,1s-.54,1-1.6,1-1.47-.34-1.47-1H170c0,.39.17.57.93.57s1-.18,1-.53-.26-.49-.69-.49h-.54c-.61,0-.88-.3-.88-.65a.74.74,0,0,1,.37-.6,1,1,0,0,1-.58-.95,1.23,1.23,0,0,1,1.32-1.2,3,3,0,0,0,1.57-.3Zm-2.45,1a.69.69,0,0,0,.72.77c.47,0,.72-.28.72-.78a.67.67,0,0,0-.74-.76A.68.68,0,0,0,170.26,28.61Z"/><path class="cls-3" d="M176,29.2c0,1.06-.56,1.8-1.53,1.8S173,30.29,173,29.21s.56-1.8,1.54-1.8S176,28.12,176,29.2Zm-2.41,0c0,.89.31,1.3.88,1.3s.88-.41.88-1.31-.31-1.31-.87-1.31S173.62,28.31,173.62,29.21Z"/><path class="cls-3" d="M178.74,30.76A1.25,1.25,0,0,1,178,31a.87.87,0,0,1-.93-1V28h-.59v-.46h.59v-.77l.6-.07v.84h.82l-.07.46h-.75v2c0,.35.11.51.41.51a.87.87,0,0,0,.46-.14Z"/><path class="cls-3" d="M181.91,30.58l-.14.42a.71.71,0,0,1-.67-.52,1.16,1.16,0,0,1-1,.52A1,1,0,0,1,179,30c0-.73.55-1.13,1.51-1.13H181v-.25c0-.5-.24-.68-.72-.68a3.29,3.29,0,0,0-.92.18l-.15-.43a3.27,3.27,0,0,1,1.18-.24,1,1,0,0,1,1.2,1.14v1.57C181.62,30.42,181.73,30.51,181.91,30.58Zm-2.11-3.81-.18-.32,1.29-.74.27.5ZM181,30v-.78h-.45c-.63,0-1,.23-1,.7a.54.54,0,0,0,.59.62A.89.89,0,0,0,181,30Z"/><path class="cls-3" d="M15.19,71.42h-1.6v3.07H10.36l0-3.07h-6v-2.2l4-9.28L11.2,61,7.78,68.94h2.6l.36-3.36h2.85v3.36h1.6Z"/><path class="cls-3" d="M27.14,67.41c0,4.75-1.87,7.43-5.36,7.43s-5.35-2.68-5.35-7.43S18.3,60,21.78,60,27.14,62.64,27.14,67.41Zm-7.31,0c0,3.76.57,5,2,5s2-1.14,2-5-.59-4.95-2-4.95S19.83,63.65,19.83,67.41Z"/><path class="cls-3" d="M36,63.78A3.74,3.74,0,1,1,32.26,60,3.61,3.61,0,0,1,36,63.78Zm-5.1,0c0,.88.27,1.78,1.36,1.78s1.35-.88,1.35-1.78S33.36,62,32.26,62,30.9,62.88,30.9,63.78Zm12-3.11L33.12,75.33l-2-1.31,9.72-14.65Zm2.49,10.39a3.75,3.75,0,1,1-3.73-3.75A3.59,3.59,0,0,1,45.34,71.06Zm-5.1,0c0,.89.28,1.81,1.37,1.81S43,72,43,71.06s-.25-1.76-1.34-1.76S40.24,70.18,40.24,71.06Z"/><path class="cls-3" d="M7.34,79.39c0,1-.75,1.45-1.74,1.45H5v1.65H4.42V78H5.59C6.67,78,7.34,78.45,7.34,79.39Zm-.66,0c0-.67-.43-.91-1.09-.91H5v1.86h.53C6.24,80.35,6.68,80.16,6.68,79.4Z"/><path class="cls-3" d="M9.86,79l-.11.59a1,1,0,0,0-.3,0c-.43,0-.68.3-.82,1v2H8V79.06h.52l0,.7c.19-.52.51-.78.92-.78A2,2,0,0,1,9.86,79Z"/><path class="cls-3" d="M13.15,80.77c0,1.06-.56,1.79-1.52,1.79s-1.53-.7-1.53-1.78.56-1.8,1.53-1.8S13.15,79.68,13.15,80.77Zm-2.41,0c0,.89.31,1.3.89,1.3s.88-.41.88-1.31-.31-1.31-.88-1.31S10.74,79.88,10.74,80.78Z"/><path class="cls-3" d="M18.51,80v2.46h-.6V80.11c0-.51-.22-.66-.48-.66s-.57.24-.81.6v2.44H16V80.11c0-.51-.22-.66-.48-.66s-.58.24-.81.6v2.44h-.6V79.06h.52l.05.5a1.15,1.15,0,0,1,1-.58.86.86,0,0,1,.86.62,1.2,1.2,0,0,1,1-.62A.93.93,0,0,1,18.51,80Z"/><path class="cls-3" d="M20.43,77.83a.4.4,0,0,1-.43.4.41.41,0,1,1,.43-.4Zm-.12,4.66h-.6V79.06h.6Z"/><path class="cls-3" d="M24.31,79.22a3.39,3.39,0,0,1-1,.1.9.9,0,0,1,.6.86,1.17,1.17,0,0,1-1.31,1.17,1.25,1.25,0,0,1-.43-.07.41.41,0,0,0-.17.32c0,.16.1.28.45.28H23c.71,0,1.17.4,1.17,1s-.54,1-1.6,1-1.47-.34-1.47-1h.54c0,.39.18.57.93.57s1-.19,1-.53-.26-.49-.69-.49h-.54c-.61,0-.88-.3-.88-.65a.74.74,0,0,1,.37-.6,1,1,0,0,1-.57-.95A1.22,1.22,0,0,1,22.57,79a2.94,2.94,0,0,0,1.56-.3Zm-2.45,1a.69.69,0,0,0,.72.77c.47,0,.72-.28.72-.78a.66.66,0,0,0-.73-.76A.68.68,0,0,0,21.86,80.18Z"/><path class="cls-3" d="M27.4,82.15l-.14.41a.68.68,0,0,1-.67-.51,1.15,1.15,0,0,1-1,.51,1,1,0,0,1-1.09-1c0-.73.55-1.13,1.51-1.13h.52v-.25c0-.5-.24-.68-.71-.68a3,3,0,0,0-.93.18l-.15-.43A3.32,3.32,0,0,1,25.91,79a1,1,0,0,1,1.2,1.14v1.57C27.11,82,27.22,82.08,27.4,82.15Zm-.89-.57V80.8h-.45c-.63,0-.95.23-.95.7a.55.55,0,0,0,.6.62A.87.87,0,0,0,26.51,81.58Z"/><path class="cls-3" d="M30.37,79.37l-.26.38a1.52,1.52,0,0,0-.89-.29c-.39,0-.63.17-.63.45s.18.4.74.55c.72.18,1.13.47,1.13,1.06s-.65,1-1.35,1a1.89,1.89,0,0,1-1.29-.44l.32-.37a1.53,1.53,0,0,0,1,.33c.45,0,.73-.19.73-.52s-.17-.47-.83-.64-1-.51-1-1S28.49,79,29.2,79A1.83,1.83,0,0,1,30.37,79.37Z"/><rect class="cls-3" x="127.23" y="34.3" width="56.53" height="0.85"/><circle class="cls-3" cx="184.24" cy="34.72" r="1.16"/><rect class="cls-3" x="1.16" y="86.94" width="68.01" height="0.85"/><circle class="cls-3" cx="1.16" cy="87.37" r="1.16"/></svg>