<svg id="Layer_1" data-name="Layer 1" xmlns="http://www.w3.org/2000/svg" viewBox="0 0 477.11 488.64"><defs><style>.cls-1{fill:#00a1de;}</style></defs><path class="cls-1" d="M440.9,1.25a34.76,34.76,0,0,0-35.13,35.13v25.2l-4.51-2A37,37,0,0,0,386.14,56,34.75,34.75,0,0,0,351,91.14v93.4l-39.24,36V206.14c0-27.83-15.7-53-40.93-65.61l-4.11-2,3.34-3.13a45.29,45.29,0,0,0,14.32-33.27,46.08,46.08,0,0,0-92.16,0c0,12.21,5.12,24,14.41,33.32l3.13,3.13-4,2a73.16,73.16,0,0,0-40.94,65.61v14.38l-39.26-36V91.14A34.73,34.73,0,0,0,90.45,56a30,30,0,0,0-14.89,3.42l-4.75,2.66V36.38A34.75,34.75,0,0,0,35.69,1.25,34.75,34.75,0,0,0,.57,36.38V264.72a26.76,26.76,0,0,0,5.86,17.16L85.91,391a16.49,16.49,0,0,1,2.81,8.43V458a29.67,29.67,0,0,0,29.66,29.63h98.56a31.67,31.67,0,0,0,19.87-7.48l2.15-1.75,2,1.86a28.69,28.69,0,0,0,19.74,7.37h98.55A29.67,29.67,0,0,0,389,458V399.4a13.67,13.67,0,0,1,2.84-8.48L471.17,282a26.89,26.89,0,0,0,5.94-17.27V36.38c-1-19.63-16.93-35.13-36.21-35.13M366.51,91.14a19.63,19.63,0,1,1,39.26,0v78.79L401.31,168c-3.68-1.56-7.61-3-11.35-3a34.33,34.33,0,0,0-18.81,3.5l-4.64,2.31Zm-158.81,11a30.59,30.59,0,1,1,30.59,30.59,30.27,30.27,0,0,1-30.59-30.59m-136.89-11a19.64,19.64,0,1,1,39.27,0V170L105.57,168a39.08,39.08,0,0,0-18.71-3.55,44.16,44.16,0,0,0-11.59,3.05l-4.46,1.91ZM230.55,458a14.16,14.16,0,0,1-14.17,14.14H117.82A14.15,14.15,0,0,1,103.68,458v-25.1H230.55Zm0-40.62H103.68v-18a27,27,0,0,0-5.86-17.16L18.87,273.15c-1.46-2.84-2.81-5.52-2.81-8.43V36.38A19.42,19.42,0,0,1,35.69,16.75,19.42,19.42,0,0,1,55.32,36.38V202.85a37.71,37.71,0,0,0,11.57,23.37l106.78,98.56c3.13,2.73,8.17,2.62,10.74-.29a6.81,6.81,0,0,0,1.94-5,8.91,8.91,0,0,0-2.34-5.94L77.87,215.05c-8-7.4-9.39-19.12-3.1-27.3A19.61,19.61,0,0,1,88.4,180a18.86,18.86,0,0,1,15.26,5.27L215.27,288.09a48.48,48.48,0,0,1,15.28,34.67Zm7.74-124.74-2.7-4.35A51.91,51.91,0,0,0,225.8,277l-45.47-42.1V206.14a58,58,0,1,1,115.9,0V234.9l-45.36,42A52.13,52.13,0,0,0,241,288.3ZM372.9,458a14.15,14.15,0,0,1-14.14,14.14H260.18A14.15,14.15,0,0,1,246,458v-25.1H372.9Zm84.79-184.8-78.82,108.9a27,27,0,0,0-6,17.29v18H246V322.76A46.32,46.32,0,0,1,261.35,288L373,185.15A18.55,18.55,0,0,1,388.18,180a19.71,19.71,0,0,1,13.69,7.87c5.86,7.8,4.56,19.5-3.08,27.12L291.93,313.08c-3.18,3.18-3.42,7.72-.45,10.69a8,8,0,0,0,5.95,2.36,7.43,7.43,0,0,0,4.88-1.8l106.83-98.64a35.26,35.26,0,0,0,11.59-23.58l0-2V36.38a19.63,19.63,0,0,1,39.26,0V261.51l.53,3.21a13.63,13.63,0,0,1-2.81,8.49"/><path class="cls-1" d="M440.9,1.25a34.76,34.76,0,0,0-35.13,35.13v25.2l-4.51-2A37,37,0,0,0,386.14,56,34.75,34.75,0,0,0,351,91.14v93.4l-39.24,36V206.14c0-27.83-15.7-53-40.93-65.61l-4.11-2,3.34-3.13a45.29,45.29,0,0,0,14.32-33.27,46.08,46.08,0,0,0-92.16,0c0,12.21,5.12,24,14.41,33.32l3.13,3.13-4,2a73.16,73.16,0,0,0-40.94,65.61v14.38l-39.26-36V91.14A34.73,34.73,0,0,0,90.45,56a30,30,0,0,0-14.89,3.42l-4.75,2.66V36.38A34.75,34.75,0,0,0,35.69,1.25,34.75,34.75,0,0,0,.57,36.38V264.72a26.76,26.76,0,0,0,5.86,17.16L85.91,391a16.49,16.49,0,0,1,2.81,8.43V458a29.67,29.67,0,0,0,29.66,29.63h98.56a31.67,31.67,0,0,0,19.87-7.48l2.15-1.75,2,1.86a28.69,28.69,0,0,0,19.74,7.37h98.55A29.67,29.67,0,0,0,389,458V399.4a13.67,13.67,0,0,1,2.84-8.48L471.17,282a26.89,26.89,0,0,0,5.94-17.27V36.38c-1-19.63-16.93-35.13-36.21-35.13M366.51,91.14a19.63,19.63,0,1,1,39.26,0v78.79L401.31,168c-3.68-1.56-7.61-3-11.35-3a34.33,34.33,0,0,0-18.81,3.5l-4.64,2.31Zm-158.81,11a30.59,30.59,0,1,1,30.59,30.59,30.27,30.27,0,0,1-30.59-30.59m-136.89-11a19.64,19.64,0,1,1,39.27,0V170L105.57,168a39.08,39.08,0,0,0-18.71-3.55,44.16,44.16,0,0,0-11.59,3.05l-4.46,1.91ZM230.55,458a14.16,14.16,0,0,1-14.17,14.14H117.82A14.15,14.15,0,0,1,103.68,458v-25.1H230.55Zm0-40.62H103.68v-18a27,27,0,0,0-5.86-17.16L18.87,273.15c-1.46-2.84-2.81-5.52-2.81-8.43V36.38A19.42,19.42,0,0,1,35.69,16.75,19.42,19.42,0,0,1,55.32,36.38V202.85a37.71,37.71,0,0,0,11.57,23.37l106.78,98.56c3.13,2.73,8.17,2.62,10.74-.29a6.81,6.81,0,0,0,1.94-5,8.91,8.91,0,0,0-2.34-5.94L77.87,215.05c-8-7.4-9.39-19.12-3.1-27.3A19.61,19.61,0,0,1,88.4,180a18.86,18.86,0,0,1,15.26,5.27L215.27,288.09a48.48,48.48,0,0,1,15.28,34.67Zm7.74-124.74-2.7-4.35A51.91,51.91,0,0,0,225.8,277l-45.47-42.1V206.14a58,58,0,1,1,115.9,0V234.9l-45.36,42A52.13,52.13,0,0,0,241,288.3ZM372.9,458a14.15,14.15,0,0,1-14.14,14.14H260.18A14.15,14.15,0,0,1,246,458v-25.1H372.9Zm84.79-184.8-78.82,108.9a27,27,0,0,0-6,17.29v18H246V322.76A46.32,46.32,0,0,1,261.35,288L373,185.15A18.55,18.55,0,0,1,388.18,180a19.71,19.71,0,0,1,13.69,7.87c5.86,7.8,4.56,19.5-3.08,27.12L291.93,313.08c-3.18,3.18-3.42,7.72-.45,10.69a8,8,0,0,0,5.95,2.36,7.43,7.43,0,0,0,4.88-1.8l106.83-98.64a35.26,35.26,0,0,0,11.59-23.58l0-2V36.38a19.63,19.63,0,0,1,39.26,0V261.51l.53,3.21a13.63,13.63,0,0,1-2.81,8.49"/></svg>