<?xml version="1.0" encoding="utf-8"?>
<!-- Generator: Adobe Illustrator 24.3.0, SVG Export Plug-In . SVG Version: 6.00 Build 0)  -->
<svg version="1.1" id="Layer_1" xmlns="http://www.w3.org/2000/svg" xmlns:xlink="http://www.w3.org/1999/xlink" x="0px" y="0px"
	 viewBox="0 0 423 541.88" style="enable-background:new 0 0 423 541.88;" xml:space="preserve">
<style type="text/css">
	.st0{fill:#00A1DE;}
</style>
<g>
	<g>
		<path class="st0" d="M223.9,163.19c18.42,17.78,42.66,27.57,68.26,27.57h45.21l0.65,1.53c3.98,9.43,13.15,15.52,23.36,15.52h52.89
			c4.82,0,8.74-3.92,8.74-8.74V75.79c0-2.18-0.82-4.27-2.3-5.89v0c-1.68-1.84-3.97-2.85-6.44-2.85h-52.89
			c-10.38,0-19.61,6.24-23.51,15.89l-0.64,1.57l-1.7-0.01c-18.25-0.1-35.41-8.21-47.08-22.23l-28.07-33.73
			C245.3,10.4,223.12,0,199.53,0H82.17C64.43,0,50,14.43,50,32.17s14.43,32.17,32.17,32.17h77.16l-1.9,3.65
			c-6.33,12.16-3.9,27.26,5.89,36.72L223.9,163.19z M353.5,92.4c0-4.34,3.53-7.88,7.88-7.88h44.15v105.81h-44.15
			c-4.34,0-7.88-3.53-7.88-7.88V92.4z M82.17,46.87c-8.11,0-14.7-6.6-14.7-14.7s6.6-14.7,14.7-14.7h117.36
			c18.39,0,35.68,8.11,47.43,22.24l28.06,33.73c14.51,17.45,35.86,27.82,58.58,28.48l2.43,0.07v71.3h-43.87
			c-21.05,0-40.98-8.05-56.13-22.67l-60.57-58.47c-5.25-5.07-5.5-13.56-0.55-18.92c5.05-5.47,13.61-5.82,19.1-0.8l47.56,43.59
			c3.55,3.25,9.09,3.01,12.34-0.54c1.58-1.72,2.39-3.95,2.29-6.28s-1.1-4.48-2.83-6.06l-47.56-43.59
			c-7-6.42-15.07-12.68-29.89-12.68H82.17z"/>
		<path class="st0" d="M199.1,378.7c-18.42-17.78-42.66-27.57-68.26-27.57H85.63l-0.65-1.53c-3.98-9.43-13.15-15.52-23.36-15.52
			H8.74C3.92,334.08,0,338,0,342.82V466.1c0,2.18,0.82,4.27,2.3,5.89v0c1.68,1.84,3.97,2.85,6.44,2.85h52.89
			c10.38,0,19.61-6.24,23.51-15.89l0.64-1.57l1.7,0.01c18.25,0.1,35.41,8.21,47.08,22.23l28.07,33.73
			c15.09,18.14,37.27,28.54,60.86,28.54h117.36c17.74,0,32.17-14.43,32.17-32.17c0-17.74-14.43-32.17-32.17-32.17h-77.16l1.9-3.65
			c6.33-12.16,3.9-27.26-5.89-36.72L199.1,378.7z M69.5,449.48c0,4.34-3.53,7.88-7.88,7.88H17.47V351.55h44.15
			c4.34,0,7.88,3.53,7.88,7.88V449.48z M340.83,495.01c8.11,0,14.7,6.6,14.7,14.7c0,8.11-6.6,14.7-14.7,14.7H223.48
			c-18.39,0-35.68-8.11-47.43-22.24l-28.06-33.73c-14.51-17.45-35.86-27.82-58.58-28.48l-2.43-0.07v-71.3h43.87
			c21.05,0,40.98,8.05,56.13,22.67l60.57,58.47c5.25,5.07,5.5,13.56,0.55,18.92c-5.05,5.47-13.61,5.82-19.1,0.8l-47.56-43.59
			c-3.55-3.25-9.09-3.01-12.34,0.54c-1.58,1.72-2.39,3.95-2.29,6.28s1.1,4.48,2.83,6.06l47.56,43.59c7,6.42,15.07,12.68,29.89,12.68
			H340.83z"/>
	</g>
	<path class="st0" d="M210.08,228.06c-7.27-7.66-17.54-12.06-28.16-12.06c-21.41,0-38.83,17.42-38.83,38.83
		c0,11.55,5.1,22.43,13.98,29.83l0.14,0.12l50.04,39.62c1.2,0.95,2.71,1.47,4.24,1.47c1.54,0,3.05-0.53,4.25-1.49l52.17-41.56
		c0.19-0.15,0.38-0.32,0.57-0.51c7.36-7.34,11.41-17.1,11.41-27.49c0-21.41-17.42-38.83-38.83-38.83c-10.62,0-20.88,4.4-28.16,12.06
		l-1.42,1.49L210.08,228.06z"/>
</g>
</svg>
