<svg id="Layer_1" data-name="Layer 1" xmlns="http://www.w3.org/2000/svg" viewBox="0 0 218.98 140.06"><defs><style>.cls-1{fill:#00a34b;}</style></defs><path class="cls-1" d="M191.26,67.05h-25.1l-47.88-20.2a34.28,34.28,0,0,1-13.61-3.93L94.54,53a17.17,17.17,0,0,1-23.81.2,16.19,16.19,0,0,1-.2-23.36l25-25a17.19,17.19,0,0,1,18-3.83l17,5.95h60.72Zm-23.84-6.26H185V13.27H129.47l-.5-.17L111.39,6.94A10.91,10.91,0,0,0,100,9.34l-25,25a9.94,9.94,0,0,0,.11,14.4,10.91,10.91,0,0,0,15.08-.13L103.73,35l2.11,1.34a28.06,28.06,0,0,0,15,4.33,28.24,28.24,0,0,0,8.39-1.26l1.85,6-.09,0Z"/><path class="cls-1" d="M33.19,79.79H0v-72H33.19ZM6.26,73.53H26.93V14H6.26Z"/><path class="cls-1" d="M219,72.67H185.79V.64H219Zm-26.93-6.26h20.67V6.9H192.05Z"/><rect class="cls-1" x="143.07" y="72.42" width="6.26" height="24.77" transform="translate(14.02 190.13) rotate(-68.66)"/><path class="cls-1" d="M114.12,140.06a15.58,15.58,0,0,1-6.19-1.29l-4.19-2a13.8,13.8,0,0,1-10.15-1.3,13.64,13.64,0,0,1-6.37-7.8,14.34,14.34,0,0,1-8.83-1.7,14.19,14.19,0,0,1-7.25-11.2A14.41,14.41,0,0,1,63.75,113a14.12,14.12,0,0,1-7-9.42,14.69,14.69,0,0,1-11.47-1.17,14.24,14.24,0,0,1-6.87-8.68,14.06,14.06,0,0,1,1.37-10.87l4.81-8.49-.06,0H27.71V13.38H95.8L74.41,35a10.29,10.29,0,0,0,.11,14.73,10.82,10.82,0,0,0,15.11-.11l13.63-13.78,2.13,1.37a27.91,27.91,0,0,0,13.83,4.35l1.33.06.69.78,44.68,18.92a16.68,16.68,0,0,1,9,9.32,16.4,16.4,0,0,1-.33,12.73A16.88,16.88,0,0,1,162.52,93a15.23,15.23,0,0,1-.9,9.85,15.67,15.67,0,0,1-15.9,9.09,14.11,14.11,0,0,1-1.24,6.51,14.56,14.56,0,0,1-15,8.44,15.36,15.36,0,0,1-1.18,4.1A15.53,15.53,0,0,1,114.12,140.06ZM110.31,133l.19.08a9.27,9.27,0,0,0,12.08-4.66,8.68,8.68,0,0,0,.78-3.53L117,122.05l-4.71,8.31A13.94,13.94,0,0,1,110.31,133Zm-17.38-8.36a7.3,7.3,0,0,0,3.7,5.42,7.56,7.56,0,0,0,6.06.57l.23-.08a7.54,7.54,0,0,0,2.79-1.8,7.7,7.7,0,0,0,1.11-1.46l13.47-23.77a7.08,7.08,0,0,0,.82-5A4.05,4.05,0,0,0,121,98a7.28,7.28,0,0,0-3.51-4.44,7.53,7.53,0,0,0-4.57-.9l-.2,0ZM77.48,112.28a7.86,7.86,0,0,0,4,8.26,8.11,8.11,0,0,0,6.23.7l20-32.31a7.83,7.83,0,0,0-4.06-7.22h0a8.17,8.17,0,0,0-5.07-.95q-.35,0-.69.12Zm50.07,7.59.27.12a8.35,8.35,0,0,0,11-4.13,7.86,7.86,0,0,0,.16-6.11l-12.18-5.36a13.36,13.36,0,0,1-1,2.21l-5.66,10ZM62.8,99.48a7.8,7.8,0,0,0,4,8,8.14,8.14,0,0,0,5.76.83L92.93,77a7.73,7.73,0,0,0-.55-4.59A7.93,7.93,0,0,0,89,68.71a8.25,8.25,0,0,0-.95-.45,8.11,8.11,0,0,0-5.13-.3,7.81,7.81,0,0,0-2.61,1.23Zm79.73,5,1,.42a9.42,9.42,0,0,0,12.37-4.67,9,9,0,0,0-.6-8.47L152,86.49l6.23.52a10.63,10.63,0,0,0,10.64-6.2,10.15,10.15,0,0,0,.21-7.91,10.43,10.43,0,0,0-4.22-5.09v0a11.8,11.8,0,0,0-1.35-.74l-.05,0L117.8,47.74a34,34,0,0,1-13.58-4L94.06,54a16.88,16.88,0,0,1-12,5,17.14,17.14,0,0,1-1.76-.09,13.87,13.87,0,0,1,.89,3l.16-.05a14.36,14.36,0,0,1,9.42.69,13.2,13.2,0,0,1,1.31.64,14.21,14.21,0,0,1,7.25,11.19,14.37,14.37,0,0,1,7.39,1.82,14.07,14.07,0,0,1,7.12,10.12h0a13.79,13.79,0,0,1,6.69,1.74h0a13.49,13.49,0,0,1,6.5,8.22c.09.32.17.64.23,1,0,.17.07.35.1.53l15.18,6.68ZM66.88,56.32a8.52,8.52,0,0,0-2.17.29,8.08,8.08,0,0,0-5,3.84L45.2,86a7.92,7.92,0,0,0-.77,6.09,8.06,8.06,0,0,0,3.88,4.89,8.4,8.4,0,0,0,9.1-.63L75,65.93a8.49,8.49,0,0,0,.15-1.73,8.11,8.11,0,0,0-4.16-6.82h0a8.2,8.2,0,0,0-3.21-1A7.89,7.89,0,0,0,66.88,56.32ZM34,68.07H46.6l1.09.81,6.55-11.53a14.39,14.39,0,0,1,8.86-6.8A15.2,15.2,0,0,1,67,50.06a16.57,16.57,0,0,1,3-19.48L80.8,19.64H34Z"/></svg>