<svg id="Layer_1" data-name="Layer 1" xmlns="http://www.w3.org/2000/svg" viewBox="0 0 633.95 633.95"><defs><style>.cls-1{fill:#fff;}.cls-2{fill:#fab200;}</style></defs><circle class="cls-1" cx="316.97" cy="316.97" r="316.97"/><path class="cls-2" d="M317,475.2l-33.7-1.13c-29.63-1-59.25-2-88.86-3.24a364.34,364.34,0,0,1-38.91-4.27c-29-4.43-48.41-23.18-53.32-51.44a423.82,423.82,0,0,1-6.33-57.19c-1.09-29-.66-58.42-.11-83.34.51-22.69,2.81-42.44,7-60.39,6.32-26.81,27.44-45.61,55.12-49.07,44.94-5.62,89.12-6.38,126.42-6.38,41.33,0,85,.7,141.49,2.28a420.78,420.78,0,0,1,51.91,5.08c29.34,4.45,48.49,23.47,53.91,53.55,6.07,33.68,8.21,70.76,6.73,116.67-.56,17.24-1.87,36.18-4.15,59.6-1.17,12.22-3.11,21.81-6.09,30.18-8.39,23.62-26.78,37.92-53.18,41.34-39,5.06-78.69,5.74-117,6.4l-13.27.23c-6.27.11-12.53.09-18.8.05l-.62.26ZM284.3,175c-36.79,0-80.35.74-124.41,6.25-21.08,2.64-36.54,16.35-41.33,36.69-4,16.84-6.13,35.49-6.61,57-.55,24.69-1,53.78.09,82.37a408.2,408.2,0,0,0,6.11,55c3.69,21.26,17.82,34.82,39.79,38.18a345.65,345.65,0,0,0,37.15,4.1c29.56,1.28,59.12,2.25,88.7,3.23l25.51.85v-.27l7.94-.55,8.63,0c6.15,0,12.29.07,18.42-.06l13.3-.23c37.91-.65,77.11-1.32,115.23-6.26,20.52-2.66,33.59-12.7,40-30.68,2.51-7.08,4.17-15.44,5.22-26.31,2.24-23.08,3.54-41.68,4.09-58.56,1.44-44.75-.62-80.74-6.49-113.27-4.22-23.37-17.8-37-40.37-40.38a405,405,0,0,0-49.92-4.91C369,175.68,325.47,175,284.3,175ZM266.05,394.24V238.37L401.38,316.3Zm16.23-127.8v99.73l86.58-49.87Z"/></svg>