<svg id="Layer_1" data-name="Layer 1" xmlns="http://www.w3.org/2000/svg" viewBox="0 0 539.09 417.46"><defs><style>.cls-1{fill:#00a34b;}</style></defs><path class="cls-1" d="M481.58,319.73A39.25,39.25,0,1,1,442.39,359a39.26,39.26,0,0,1,39.19-39.24m-212-70.56a39.25,39.25,0,1,1,39.19-39.26,39.28,39.28,0,0,1-39.19,39.26M57.48,398.22A39.25,39.25,0,1,1,96.69,359a39.27,39.27,0,0,1-39.21,39.25m0-149.05a39.25,39.25,0,1,1,39.21-39.26,39.27,39.27,0,0,1-39.21,39.26m0-152A39.24,39.24,0,1,1,96.69,58,39.26,39.26,0,0,1,57.48,97.19m424.1-78.48A39.24,39.24,0,1,1,442.39,58a39.26,39.26,0,0,1,39.19-39.24m0,152a39.25,39.25,0,1,1-39.19,39.23,39.24,39.24,0,0,1,39.19-39.23M378.44,218.76h47a56.95,56.95,0,1,0,0-17.71h-47V66.68l47,0a56.9,56.9,0,1,0,0-17.71l-64.72,0V201.05h-35.1a56.79,56.79,0,0,0-112.24,0h-35.1V49l-64.72,0a57,57,0,1,0,0,17.71l47,0V201.05h-47a57,57,0,1,0,0,17.71h47V353.18H114.08a57,57,0,1,0-1,17.71h65.22V218.76h35.1a56.8,56.8,0,0,0,112.26,0h35.08V370.89H426a56.88,56.88,0,1,0-1-17.71H378.44Z"/><path class="cls-1" d="M481.58,319.73A39.25,39.25,0,1,1,442.39,359,39.26,39.26,0,0,1,481.58,319.73Zm-212-70.56a39.25,39.25,0,1,1,39.19-39.26A39.28,39.28,0,0,1,269.54,249.17ZM57.48,398.22A39.25,39.25,0,1,1,96.69,359,39.27,39.27,0,0,1,57.48,398.22Zm0-149.05a39.25,39.25,0,1,1,39.21-39.26A39.27,39.27,0,0,1,57.48,249.17Zm0-152A39.24,39.24,0,1,1,96.69,58,39.26,39.26,0,0,1,57.48,97.19Zm424.1-78.48A39.24,39.24,0,1,1,442.39,58,39.26,39.26,0,0,1,481.58,18.71Zm0,152a39.25,39.25,0,1,1-39.19,39.23A39.24,39.24,0,0,1,481.58,170.68ZM378.44,218.76h47a56.95,56.95,0,1,0,0-17.71h-47V66.68l47,0a56.9,56.9,0,1,0,0-17.71l-64.72,0V201.05h-35.1a56.79,56.79,0,0,0-112.24,0h-35.1V49l-64.72,0a57,57,0,1,0,0,17.71l47,0V201.05h-47a57,57,0,1,0,0,17.71h47V353.18H114.08a57,57,0,1,0-1,17.71h65.22V218.76h35.1a56.8,56.8,0,0,0,112.26,0h35.08V370.89H426a56.88,56.88,0,1,0-1-17.71H378.44Z"/></svg>