<svg id="Layer_1" data-name="Layer 1" xmlns="http://www.w3.org/2000/svg" viewBox="0 0 437.02 437.02"><defs><style>.cls-1{fill:#fff;}</style></defs><path class="cls-1" d="M330.15,134.26H106.73a13.57,13.57,0,1,0,0,27.14h98.14V307.94L149,247.81a13.54,13.54,0,1,0-19.82,18.46l79.4,85.38a13.48,13.48,0,0,0,19.82,0l79.54-85.38a13.54,13.54,0,1,0-19.81-18.46L232,307.94V161.4h98.27a13.57,13.57,0,1,0-.14-27.14Z"/><path class="cls-1" d="M218.51,437C98,437,0,339,0,218.51S98,0,218.51,0,437,98,437,218.51,339,437,218.51,437Zm0-416.72C109.22,20.3,20.3,109.22,20.3,218.51s88.92,198.22,198.21,198.22,198.21-88.92,198.21-198.22S327.81,20.3,218.51,20.3Z"/></svg>