<svg id="Layer_1" data-name="Layer 1" xmlns="http://www.w3.org/2000/svg" viewBox="0 0 220.26 290.51"><defs><style>.cls-1{fill:#00a1de;}</style></defs><path class="cls-1" d="M204.64,0h-.17A11.84,11.84,0,0,0,194,8.1H165.26L66.78,28.16l-.56.12-63.29,40L3.7,70.6c.19.59,2.13,5.84,9.32,8.28a24.29,24.29,0,0,0,7.84,1.2c11.89,0,28.16-6.87,48.51-20.52l21.78-.31c-3,4.26-6.61,10.32-7.47,15.68l-.58,3.6h83.46l26.87-25.4A8.86,8.86,0,0,0,196,58c3.11,3,8.79,4.43,17.72,4.43,1.12,0,2.29,0,3.52-.07l3-.11V0ZM164.09,72.31H90.86A55.69,55.69,0,0,1,99,59.14l33.62-.48-.09-6.22-65.13.93-.77.52c-31.11,21-45.54,21-51.39,19.19A10.57,10.57,0,0,1,11,70.56L68.58,34.14l97.31-19.82h27.38V44.73Zm50-16.11h-.35c-8.63,0-12-1.42-13.36-2.69a2.76,2.76,0,0,1-.86-2.18V13c0-1.49.39-6.36,5.26-6.76h9.31Z"/><path class="cls-1" d="M15.63,290.51h.16a11.82,11.82,0,0,0,10.48-8.1H55l98.48-20.06.56-.12,63.3-40-.77-2.31c-.2-.59-2.14-5.85-9.33-8.29a24.25,24.25,0,0,0-7.84-1.2c-11.89,0-28.15,6.88-48.51,20.52l-21.78.31c3-4.26,6.62-10.32,7.47-15.68l.58-3.6H53.7l-26.87,25.4a8.86,8.86,0,0,0-2.6-4.86c-3.11-3-8.78-4.43-17.71-4.43-1.13,0-2.3,0-3.53.07l-3,.11v62.24ZM56.18,218.2H129.4c-2,5.15-6.2,10.82-8.16,13.18l-33.63.48.09,6.21,65.13-.93.77-.52c31.11-21,45.55-21,51.39-19.19A10.51,10.51,0,0,1,209.3,220l-57.62,36.42L54.38,276.2H27V245.78Zm-50,16.11h.34c8.64,0,12,1.42,13.36,2.69a2.77,2.77,0,0,1,.86,2.19v38.34c0,1.49-.38,6.36-5.26,6.77H6.22Z"/><path class="cls-1" d="M126.28,172.44l-2-1.67c-1.84-1.54-44.95-38-31.84-60.35,3.86-6.6,8.88-10.47,14.91-11.49,8-1.35,15.47,2.84,18.93,5.21,3.46-2.38,10.91-6.57,18.92-5.21,6,1,11.06,4.89,14.92,11.49,13.1,22.38-30,58.81-31.85,60.35Zm-15.73-67.56a12.54,12.54,0,0,0-2.19.19c-4.12.7-7.68,3.56-10.56,8.49-8.22,14,16.15,39.89,28.48,50.73,12.33-10.84,36.69-36.7,28.48-50.73h0c-2.89-4.94-6.46-7.8-10.59-8.5-7.81-1.33-15.8,5.26-15.87,5.33l-2,1.72-2-1.72C124.19,110.33,117.66,104.88,110.55,104.88Z"/></svg>