<svg id="Layer_1" data-name="Layer 1" xmlns="http://www.w3.org/2000/svg" viewBox="0 0 410.21 488.64"><defs><style>.cls-1{fill:#00a34b;}</style></defs><path class="cls-1" d="M396.6,474.92H240.82l-19.6-98.69c7.43-2.86,12.75-8,15.25-14.76l7.24,7.92,5-5c.17-.17,16.85-16.84,38.25-37.74l2.95-2.88-1.18-3.93c-.35-1.2-.77-2.4-1.18-3.59,20.31,7,71.39,25.29,109,38.91ZM14.72,355.12c38.78-14,92-33.14,110.48-39.41-.47,1.36-.91,2.72-1.32,4.09l-1.17,3.93,2.94,2.88c21.38,20.89,38.08,37.57,38.25,37.74l5,5,7.45-8.18a26.92,26.92,0,0,0,13.86,14.3L170.3,474.92H14.72Zm190.6-61.35a83.29,83.29,0,0,0,28.09-4.89A111,111,0,0,1,206.17,310a110.9,110.9,0,0,1-29.58-21.44,82.18,82.18,0,0,0,28.73,5.21m-75.62-87-5.45-5.88c-.64-.12-15.35-3.3-21.91-20.61-3.7-13.32-2.1-16.23-1.74-16.67.13-.18,1-.59,2.9-.48a119.27,119.27,0,0,1,12.71,4.57l8.14-8.91c12.76-7.9,22.34-24,29-48.74,32.77,52.7,73.62,64,102.67,64,21.65,0,36.78-6.28,37.15-6.44l3.74-1.62s9.61-5.16,12.46-4.79a1.1,1.1,0,0,1,.91.59c7.36,10.24-3.16,30.37-9.41,35.79-6,5.19-14.8,6.9-14.88,6.92l-5.51,5.63c-6.37,40.54-38,70-75.14,70-38.1,0-70.59-31.53-75.62-73.34m76.35-192.2c51,0,92.46,43.62,92.46,97.23a101.43,101.43,0,0,1-9.46,42.78l-1.29.56c-3.25,1.37-79.92,32.74-131.14-66.91l-9.07-17.64-3.67,19.49c-5.39,28.6-13.61,47.27-24.45,55.62a101.85,101.85,0,0,1-5.83-33.9c0-53.61,41.47-97.23,92.45-97.23m10.78,305a133.18,133.18,0,0,0,37.83-34.79c5.85,7.94,14.93,21.5,19.79,35-13.12,12.85-24.17,23.82-30.27,29.87Zm-21.25.25L168.46,349.7c-6.08-6.05-17.15-17-30.29-29.88,4.57-13.17,12.31-26.38,17.49-34.48a128.5,128.5,0,0,0,39.92,34.55m21.49,43.4-9.63,1.91-1.35,0c-8.77,0-18.15-3.88-18.15-14.77v-1.95l18.38-20.2,18.21,20V352c0,6.18-3.32,9.52-7.46,11.31m-11,15.54c.61,0,1.18,0,1.75-.06L227,474.92H184.2l19.28-96.19c.86.06,1.72.1,2.61.1M405.72,344c-100.52-36.42-120-43.1-125.27-43.84A197.78,197.78,0,0,0,262,271.94c15.43-13.64,26.68-32.83,31.17-55.2a47.27,47.27,0,0,0,16.65-8.82c8.55-7.41,25.05-35.24,11.54-54a14.71,14.71,0,0,0-10.24-6.13,18.33,18.33,0,0,0-4.68.05,115.89,115.89,0,0,0,5.72-36C312.11,50.73,264.53,1,206.05,1S100,50.73,100,111.84a115.27,115.27,0,0,0,6.44,38,13.5,13.5,0,0,0-1.81-.27c-8-.54-12.36,2.69-14.59,5.47-5.83,7.2-3.64,18.8-.71,29.19l.16.52c6.72,18.07,20.1,25.34,27.34,28a100,100,0,0,0,31.66,58.69,223.3,223.3,0,0,0-16.85,28.75c-3.19-.42-13.68,2.93-126,43.66l-4.48,1.63V488.52H410.21V345.58Z"/><path class="cls-1" d="M396.6,474.92H240.82l-19.6-98.69c7.43-2.86,12.75-8,15.25-14.76l7.24,7.92,5-5c.17-.17,16.85-16.84,38.25-37.74l2.95-2.88-1.18-3.93c-.35-1.2-.77-2.4-1.18-3.59,20.31,7,71.39,25.29,109,38.91ZM14.72,355.12c38.78-14,92-33.14,110.48-39.41-.47,1.36-.91,2.72-1.32,4.09l-1.17,3.93,2.94,2.88c21.38,20.89,38.08,37.57,38.25,37.74l5,5,7.45-8.18a26.92,26.92,0,0,0,13.86,14.3L170.3,474.92H14.72Zm190.6-61.35a83.29,83.29,0,0,0,28.09-4.89A111,111,0,0,1,206.17,310a110.9,110.9,0,0,1-29.58-21.44A82.18,82.18,0,0,0,205.32,293.77Zm-75.62-87-5.45-5.88c-.64-.12-15.35-3.3-21.91-20.61-3.7-13.32-2.1-16.23-1.74-16.67.13-.18,1-.59,2.9-.48a119.27,119.27,0,0,1,12.71,4.57l8.14-8.91c12.76-7.9,22.34-24,29-48.74,32.77,52.7,73.62,64,102.67,64,21.65,0,36.78-6.28,37.15-6.44l3.74-1.62s9.61-5.16,12.46-4.79a1.1,1.1,0,0,1,.91.59c7.36,10.24-3.16,30.37-9.41,35.79-6,5.19-14.8,6.9-14.88,6.92l-5.51,5.63c-6.37,40.54-38,70-75.14,70C167.22,280.15,134.73,248.62,129.7,206.81Zm76.35-192.2c51,0,92.46,43.62,92.46,97.23a101.43,101.43,0,0,1-9.46,42.78l-1.29.56c-3.25,1.37-79.92,32.74-131.14-66.91l-9.07-17.64-3.67,19.49c-5.39,28.6-13.61,47.27-24.45,55.62a101.85,101.85,0,0,1-5.83-33.9C113.6,58.23,155.07,14.61,206.05,14.61Zm10.78,305a133.18,133.18,0,0,0,37.83-34.79c5.85,7.94,14.93,21.5,19.79,35-13.12,12.85-24.17,23.82-30.27,29.87Zm-21.25.25L168.46,349.7c-6.08-6.05-17.15-17-30.29-29.88,4.57-13.17,12.31-26.38,17.49-34.48A128.5,128.5,0,0,0,195.58,319.89Zm21.49,43.4-9.63,1.91-1.35,0c-8.77,0-18.15-3.88-18.15-14.77v-1.95l18.38-20.2,18.21,20V352C224.53,358.16,221.21,361.5,217.07,363.29Zm-11,15.54c.61,0,1.18,0,1.75-.06L227,474.92H184.2l19.28-96.19C204.34,378.79,205.2,378.83,206.09,378.83ZM405.72,344c-100.52-36.42-120-43.1-125.27-43.84A197.78,197.78,0,0,0,262,271.94c15.43-13.64,26.68-32.83,31.17-55.2a47.27,47.27,0,0,0,16.65-8.82c8.55-7.41,25.05-35.24,11.54-54a14.71,14.71,0,0,0-10.24-6.13,18.33,18.33,0,0,0-4.68.05,115.89,115.89,0,0,0,5.72-36C312.11,50.73,264.53,1,206.05,1S100,50.73,100,111.84a115.27,115.27,0,0,0,6.44,38,13.5,13.5,0,0,0-1.81-.27c-8-.54-12.36,2.69-14.59,5.47-5.83,7.2-3.64,18.8-.71,29.19l.16.52c6.72,18.07,20.1,25.34,27.34,28a100,100,0,0,0,31.66,58.69,223.3,223.3,0,0,0-16.85,28.75c-3.19-.42-13.68,2.93-126,43.66l-4.48,1.63V488.52H410.21V345.58Z"/></svg>