<svg id="Layer_1" data-name="Layer 1" xmlns="http://www.w3.org/2000/svg" viewBox="0 0 539.09 488.64"><defs><style>.cls-1{fill:#00a1de;}</style></defs><path class="cls-1" d="M490.55,48.94A165.84,165.84,0,0,0,270,37.7,165.81,165.81,0,0,0,49.49,48.94,163.74,163.74,0,0,0,1,165.42,165.61,165.61,0,0,0,48.88,281.87l52.63,52.63.6.6c8.28,8.28,18.91,11.82,29.56,11.82a11.74,11.74,0,0,0,4.72-.58c-1.19,12.41,2.37,24.83,11.83,34.3a41.24,41.24,0,0,0,29,11.81,11.71,11.71,0,0,0,4.72-.58c0,1.77-.58,3.53-.58,4.72a38.43,38.43,0,0,0,12.42,29,40.65,40.65,0,0,0,29,11.84,11.38,11.38,0,0,0,4.74-.6c0,1.76-.6,3.55-.6,4.74a40.76,40.76,0,0,0,12.41,29.56c8.28,8.27,18.93,11.81,29.56,11.81A43.75,43.75,0,0,0,298.4,471.1l191.54-191c31.35-31.35,47.91-72.74,47.91-116.48,1.19-42-16-83.37-47.3-114.71m-428,221.12h0a147.52,147.52,0,0,1,104-251.87c33.11,0,64.43,11.24,90.46,31.35-7.68,7.09-101.69,101.09-117.65,117.06-11.23,11.24-10.07,27.21,3,40.21a54.46,54.46,0,0,0,18.9,11.81l-58.53,58.53A41.32,41.32,0,0,0,91.46,299Zm415.62,0h0L286.56,461.63a23.53,23.53,0,0,1-33.69,0,25.8,25.8,0,0,1-6.51-17.16,21.42,21.42,0,0,1,7.11-16.53l94.6-94.6a8.79,8.79,0,1,0-12.44-12.42L241,415.52A23.95,23.95,0,0,1,200.24,399a21.51,21.51,0,0,1,7.1-16.56l94.59-94.59a8.78,8.78,0,0,0-12.41-12.42L194.94,370a23.43,23.43,0,0,1-16.58,7.09A21.47,21.47,0,0,1,161.83,370a23.54,23.54,0,0,1,0-33.7l94.6-94.6A8.78,8.78,0,0,0,244,229.27l-94.6,94.6a23.56,23.56,0,0,1-33.72,0h.61l-.61-.58a23.38,23.38,0,0,1,.61-33.11l65-66.81c15.37.58,31.93-4.14,46.11-18.35l44.93-44.93c17.74,16,36.07,25.42,53.81,27.79,21.88,3,42-4.72,59.11-21.28a8.78,8.78,0,1,0-12.42-12.41c-13,13-27.79,18.9-44.32,16.55-16-2.37-33.72-12.41-50.28-29-3.53-3.56-9.46-3.56-12.41,0L215,192.63c-11.23,11.23-23.65,14.18-35.48,13H177.2a40.51,40.51,0,0,1-23.07-11.23c-3.56-4.14-7.09-10-2.37-14.79L269.43,62A147.22,147.22,0,0,1,520.71,166a143.82,143.82,0,0,1-42.58,104"/><path class="cls-1" d="M490.55,48.94A165.84,165.84,0,0,0,270,37.7,165.81,165.81,0,0,0,49.49,48.94,163.74,163.74,0,0,0,1,165.42,165.61,165.61,0,0,0,48.88,281.87l52.63,52.63.6.6c8.28,8.28,18.91,11.82,29.56,11.82a11.74,11.74,0,0,0,4.72-.58c-1.19,12.41,2.37,24.83,11.83,34.3a41.24,41.24,0,0,0,29,11.81,11.71,11.71,0,0,0,4.72-.58c0,1.77-.58,3.53-.58,4.72a38.43,38.43,0,0,0,12.42,29,40.65,40.65,0,0,0,29,11.84,11.38,11.38,0,0,0,4.74-.6c0,1.76-.6,3.55-.6,4.74a40.76,40.76,0,0,0,12.41,29.56c8.28,8.27,18.93,11.81,29.56,11.81A43.75,43.75,0,0,0,298.4,471.1l191.54-191c31.35-31.35,47.91-72.74,47.91-116.48,1.19-42-16-83.37-47.3-114.71m-428,221.12h0a147.52,147.52,0,0,1,104-251.87c33.11,0,64.43,11.24,90.46,31.35-7.68,7.09-101.69,101.09-117.65,117.06-11.23,11.24-10.07,27.21,3,40.21a54.46,54.46,0,0,0,18.9,11.81l-58.53,58.53A41.32,41.32,0,0,0,91.46,299Zm415.62,0h0L286.56,461.63a23.53,23.53,0,0,1-33.69,0,25.8,25.8,0,0,1-6.51-17.16,21.42,21.42,0,0,1,7.11-16.53l94.6-94.6a8.79,8.79,0,1,0-12.44-12.42L241,415.52A23.95,23.95,0,0,1,200.24,399a21.51,21.51,0,0,1,7.1-16.56l94.59-94.59a8.78,8.78,0,0,0-12.41-12.42L194.94,370a23.43,23.43,0,0,1-16.58,7.09A21.47,21.47,0,0,1,161.83,370a23.54,23.54,0,0,1,0-33.7l94.6-94.6A8.78,8.78,0,0,0,244,229.27l-94.6,94.6a23.56,23.56,0,0,1-33.72,0h.61l-.61-.58a23.38,23.38,0,0,1,.61-33.11l65-66.81c15.37.58,31.93-4.14,46.11-18.35l44.93-44.93c17.74,16,36.07,25.42,53.81,27.79,21.88,3,42-4.72,59.11-21.28a8.78,8.78,0,1,0-12.42-12.41c-13,13-27.79,18.9-44.32,16.55-16-2.37-33.72-12.41-50.28-29-3.53-3.56-9.46-3.56-12.41,0L215,192.63c-11.23,11.23-23.65,14.18-35.48,13H177.2a40.51,40.51,0,0,1-23.07-11.23c-3.56-4.14-7.09-10-2.37-14.79L269.43,62A147.22,147.22,0,0,1,520.71,166a143.82,143.82,0,0,1-42.58,104"/></svg>