<svg id="Layer_1" data-name="Layer 1" xmlns="http://www.w3.org/2000/svg" viewBox="0 0 410.21 395.37"><defs><style>.cls-1{fill:#00a34b;}</style></defs><path class="cls-1" d="M295.17,395.37H1V379.28H23.71V1.76L177,57.5V192.24h85.73v1.67l146.59-23.56L384.41,325.11,323.31,264l-60.62,71.41v43.86h32.48Zm-69.73-16.09h21.15V354.37Zm-95.24,0h68.48l-40.57-47.82H148.4V320l-18.2-21.44Zm-90.4,0h74.31V279.63l-.21-.25L41,365.24l-1.23-1.05Zm139.41-47.82,32.85,38.71,34.53-40.66V208.33H130.2v65.39l18.2,21.44v-64h76.88V331.46ZM39.8,24.74V341.83l74.1-87.32.21.25V192.24h46.76V68.77ZM165.55,315.37h43.63v-26H164.49v24.74Zm97.14-112V310.55l49.21-58Zm25.48,2.72,85.35,85.35,16.34-101.69ZM164.49,273.29h44.69v-26H164.49ZM126.31,167H69.7V77.68h56.61ZM85.79,150.94h24.43V93.78H85.79Z"/></svg>