<?xml version="1.0" encoding="utf-8"?>
<!-- Generator: Adobe Illustrator 24.3.0, SVG Export Plug-In . SVG Version: 6.00 Build 0)  -->
<svg version="1.1" id="Layer_1" xmlns="http://www.w3.org/2000/svg" xmlns:xlink="http://www.w3.org/1999/xlink" x="0px" y="0px"
	 viewBox="0 0 256.12 464.18" style="enable-background:new 0 0 256.12 464.18;" xml:space="preserve">
<style type="text/css">
	.st0{fill:#FFFFFF;}
</style>
<g>
	<path class="st0" d="M0,167.56h6.7v49.57H1.4v2.81H6.7v46.22H1.4v2.81H6.7v45.22H1.4V317H6.7v45.22H1.4v2.81H6.7v45.22H1.4v2.81
		H6.7v51.12h114.88v-51.12h6.19v-2.81h-6.19v-45.22h6.19v-2.81h-6.19V317h6.19v-2.81h-6.19v-45.22h6.19v-2.81h-6.19v-46.22h6.19
		v-2.81h-6.19v-49.57h7.58v-24.74H0V167.56z M118.77,461.37H9.51v-48.31h109.26V461.37z M118.77,410.25H9.51v-45.22h109.26V410.25z
		 M118.77,362.22H9.51V317h109.26V362.22z M118.77,314.19H9.51v-45.22h109.26V314.19z M118.77,266.16H9.51v-46.22h109.26V266.16z
		 M118.77,217.13H9.51v-49.57h109.26V217.13z M2.81,145.63h123.54v19.12h-4.77H6.7H2.81V145.63z"/>
	<path class="st0" d="M236.87,69.13V28.08h11.47v-2.81H217.2V0h-34.48v25.27h-31.49v2.81h10.79v41.05h-16.45v395.05h110.55V69.13
		H236.87z M234.06,28.08v41.05H217.2V28.08H234.06z M185.53,28.08h28.86v41.05h-28.86V28.08z M185.53,2.81h28.86v22.46h-28.86V2.81z
		 M164.83,28.08h17.89v41.05h-17.89V28.08z M253.31,461.37H227.6V121.69h-2.81v339.68h-50.22V121.69h-2.81v339.68h-23.38V71.94
		h13.64v24.79h2.81V71.94h17.89h34.48h16.86v24.79h2.81V71.94h16.44V461.37z"/>
</g>
</svg>
