<?xml version="1.0" encoding="utf-8"?>
<!-- Generator: Adobe Illustrator 24.3.0, SVG Export Plug-In . SVG Version: 6.00 Build 0)  -->
<svg version="1.1" id="Layer_1" xmlns="http://www.w3.org/2000/svg" xmlns:xlink="http://www.w3.org/1999/xlink" x="0px" y="0px"
	 viewBox="0 0 668.52 209.21" style="enable-background:new 0 0 668.52 209.21;" xml:space="preserve">
<style type="text/css">
	.st0{fill:#FFFFFF;}
	.st1{enable-background:new    ;}
</style>
<g>
	<g>
		<path class="st0" d="M456.57,203.68h-68v-2.81h5.18v-83.44c0-2.43,1.98-4.41,4.41-4.41h48.73c2.43,0,4.41,1.98,4.41,4.41v17.93
			h5.13c0.02,0,0.04,0,0.06,0c4.07,0,7.43,3.3,7.49,7.38v2.12h2.07c0.75-0.03,1.41,0.28,1.94,0.79c0.52,0.51,0.81,1.2,0.82,1.93
			v15.39c-0.01,1.49-1.22,2.7-2.7,2.73l-0.36,0l-0.05-0.03h-1.72v18.68c-0.02,2.02-0.81,3.89-2.24,5.3
			c-1.41,1.39-3.28,2.16-5.26,2.16c-0.02,0-0.04,0-0.06,0h-5.12v9.05h5.27V203.68z M396.57,200.87h51.92v-83.44
			c0-0.88-0.71-1.59-1.59-1.59h-48.73c-0.88,0-1.59,0.71-1.59,1.59V200.87z M451.3,189.01h5.13c0.01,0,0.03,0,0.04,0
			c1.25,0,2.42-0.48,3.3-1.35c0.89-0.88,1.39-2.05,1.4-3.31v-18.67h-1.95c-0.01,0-0.01,0-0.02,0c-1.49,0-2.72-1.22-2.73-2.72V147.6
			c0.02-1.52,1.26-2.74,2.76-2.74h1.95v-2.09c-0.04-2.53-2.14-4.59-4.69-4.59c-0.01,0-0.03,0-0.04,0h-5.15V189.01z M466,147.6
			l-6.77,0.08l0.05,15.27l6.72-0.07V147.6z M436.29,181.3c-2.46,0-4.46-2-4.46-4.46l0-6.08c0.02-1.12,0.49-2.22,1.34-3.03
			c0.85-0.82,1.96-1.25,3.14-1.24l0.57,0.01l0.07,0.07c2.11,0.3,3.76,2.11,3.79,4.3v5.97C440.75,179.3,438.75,181.3,436.29,181.3z
			 M435.88,169.34c-0.28,0.07-0.53,0.2-0.74,0.41c-0.31,0.3-0.48,0.69-0.49,1.12l0,5.98c0,0.91,0.74,1.64,1.64,1.64
			s1.64-0.74,1.64-1.64v-5.95c-0.01-0.85-0.73-1.55-1.59-1.55c0,0,0,0-0.01,0L435.88,169.34z M422.51,181.14
			c-2.35,0-4.32-1.84-4.46-4.21l0-6.07l0-0.09c0.02-1.12,0.49-2.22,1.34-3.03c0.85-0.82,1.95-1.25,3.14-1.24l0.36,0.01l0.09,0.05
			c2.2,0.21,3.96,2.07,3.99,4.33v5.97c-0.13,2.35-1.94,4.15-4.21,4.28C422.68,181.13,422.59,181.14,422.51,181.14z M422.17,169.32
			c-0.31,0.05-0.6,0.2-0.83,0.42c-0.31,0.3-0.48,0.69-0.49,1.12l0,5.98c0.05,0.83,0.84,1.51,1.75,1.48
			c0.84-0.05,1.51-0.72,1.56-1.56l0-5.87c-0.01-0.85-0.72-1.55-1.59-1.55L422.17,169.32z M408.72,181.14
			c-2.35,0-4.32-1.84-4.46-4.21l0-6.06l0-0.09c0.05-2.39,2.06-4.36,4.49-4.28l0.57,0.01l0.07,0.07c2.11,0.3,3.76,2.11,3.79,4.3v5.97
			c-0.13,2.35-1.94,4.15-4.21,4.28C408.89,181.13,408.8,181.14,408.72,181.14z M408.3,169.34c-0.69,0.16-1.21,0.78-1.23,1.52v5.98
			c0.05,0.83,0.84,1.51,1.75,1.48c0.84-0.05,1.51-0.72,1.56-1.56l0-5.87c-0.01-0.85-0.73-1.55-1.59-1.55c0,0,0,0-0.01,0
			L408.3,169.34z M442.1,160.59h-39.11v-30.32h39.11V160.59z M405.8,157.78h33.49v-24.7H405.8V157.78z M434.85,124.7h-24.62v-2.81
			h24.62V124.7z"/>
	</g>
	<g>
		<path class="st0" d="M555.38,205.42c-1.36,0-2.64-0.53-3.6-1.49c-0.97-0.96-1.5-2.25-1.51-3.61v-5.03h-52.53v5.01
			c0,2.82-2.29,5.12-5.12,5.12h-5.47c0,0-0.01,0-0.01,0c-1.36,0-2.64-0.53-3.6-1.49c-0.97-0.96-1.5-2.25-1.51-3.61v-5.03h-2.88
			c-1.51-0.02-2.8-0.99-3.24-2.42l-1.64-5.8c-0.23-0.93-0.09-1.84,0.38-2.62c0.47-0.78,1.21-1.33,2.1-1.55
			c0.24-0.06,0.49-0.09,0.73-0.1h0.24l-1.75-17.83c-0.26-3.03,1.98-5.69,4.99-5.95c0.17-0.02,0.36-0.02,0.54-0.02h0.04l12.42-27
			c1.14-2.47,3.63-4.06,6.34-4.06h47.5c2.71,0,5.2,1.59,6.34,4.05l12.44,27.01c2.98-0.07,5.49,2.39,5.52,5.41
			c0,0.18,0,0.37-0.02,0.55l-1.74,17.83h0.24c1.91,0.05,3.4,1.62,3.35,3.49c-0.01,0.25-0.04,0.49-0.1,0.73l-1.64,5.81
			c-0.44,1.45-1.73,2.42-3.22,2.44c-0.01,0-0.01,0-0.02,0h-2.96v5.01c0,2.82-2.29,5.12-5.12,5.12h-5.47
			C555.39,205.42,555.39,205.42,555.38,205.42z M553.08,195.29v5.01c0,0.62,0.24,1.2,0.68,1.63c0.44,0.43,1.01,0.67,1.62,0.67
			c0,0,0,0,0.01,0h5.46c1.28,0,2.31-1.03,2.31-2.3v-5.01H553.08z M484.84,195.29v5.01c0,0.62,0.24,1.2,0.68,1.63
			c0.44,0.43,1.01,0.67,1.62,0.67c0,0,0,0,0.01,0h5.46c1.28,0,2.31-1.03,2.31-2.3v-5.01H484.84z M479.25,185.62h-1.73
			c-0.01,0-0.05,0.01-0.1,0.02c-0.31,0.08-0.51,0.4-0.43,0.72l1.62,5.73c0.07,0.22,0.29,0.39,0.56,0.4h4.26c0.01,0,0.02,0,0.03,0
			h12.87c0.01,0,0.02,0,0.03,0h55.32c0.01,0,0.01,0,0.02,0h12.89c0,0,0.01,0,0.01,0h4.36c0.26-0.01,0.48-0.17,0.56-0.42l1.62-5.75
			l0,0c0,0,0.01-0.04,0.01-0.08c0.01-0.33-0.25-0.6-0.58-0.61h-1.71c-0.03,0-0.05,0-0.08,0l-89.47,0
			C479.27,185.62,479.26,185.62,479.25,185.62z M481.43,161.82c-0.08,0-0.15,0-0.22,0.01c-1.47,0.13-2.57,1.43-2.44,2.9l1.78,18.09
			l86.97,0l1.77-18.1c0.01-0.08,0.01-0.16,0.01-0.25c-0.02-1.47-1.25-2.67-2.69-2.64h-85.12
			C481.46,161.82,481.44,161.82,481.43,161.82z M500.29,130.76c-1.62,0-3.11,0.95-3.79,2.43l-11.88,25.82h78.82l-11.86-25.83
			c-0.68-1.47-2.17-2.42-3.79-2.42H500.29z M557.25,182.34c-2.09,0-4.05-0.81-5.54-2.28c-1.49-1.48-2.31-3.45-2.32-5.55
			c-0.01-2.1,0.8-4.07,2.28-5.56c1.48-1.49,3.45-2.31,5.55-2.32c0.02,0,0.05,0,0.07,0c4.3,0,7.8,3.47,7.84,7.76
			c0,0.12-0.01,0.25-0.04,0.37c-0.07,1.98-0.87,3.84-2.28,5.26c-1.48,1.49-3.45,2.31-5.55,2.32
			C557.27,182.34,557.26,182.34,557.25,182.34z M557.31,169.44c-0.02,0-0.03,0-0.05,0c-1.38,0-2.64,0.53-3.59,1.49
			c-0.95,0.96-1.47,2.22-1.47,3.57c0.01,2.78,2.27,5.03,5.04,5.03c0,0,0.01,0,0.02,0c1.35,0,2.61-0.53,3.56-1.49
			c0.95-0.96,1.47-2.22,1.47-3.57c0-0.1,0.01-0.2,0.03-0.29C562.16,171.51,559.97,169.44,557.31,169.44z M490.9,182.34
			c-4.32,0-7.84-3.51-7.86-7.83c-0.01-2.1,0.8-4.07,2.28-5.56c1.48-1.49,3.45-2.31,5.55-2.32c0.02,0,0.05,0,0.08,0
			c2.08,0,4.02,0.79,5.5,2.24c1.49,1.47,2.33,3.43,2.35,5.52c0,0.12-0.01,0.25-0.04,0.37c-0.15,4.19-3.6,7.57-7.83,7.58
			C490.92,182.34,490.91,182.34,490.9,182.34z M490.97,169.44c-0.02,0-0.03,0-0.05,0c-1.38,0-2.64,0.53-3.59,1.49
			s-1.47,2.22-1.47,3.57c0.01,2.78,2.27,5.03,5.04,5.03c0,0,0.01,0,0.02,0c2.78-0.01,5.04-2.28,5.03-5.06c0-0.1,0.01-0.2,0.03-0.29
			c-0.08-1.27-0.6-2.42-1.5-3.3C493.54,169.95,492.29,169.44,490.97,169.44z M551.96,155.71h-57.04c-0.48,0-0.92-0.24-1.18-0.65
			c-0.26-0.4-0.29-0.91-0.09-1.34l7.86-17.14c0.8-1.72,2.54-2.82,4.42-2.82c0,0,0.01,0,0.01,0h35c0.01,0,0.01,0,0.02,0
			c1.88,0,3.61,1.1,4.4,2.81l7.88,17.15c0.2,0.43,0.17,0.94-0.09,1.34C552.89,155.47,552.44,155.71,551.96,155.71z M497.11,152.9
			h52.66l-6.96-15.15c-0.33-0.72-1.06-1.18-1.86-1.18c0,0-0.01,0-0.01,0h-35.01c0,0,0,0,0,0c-0.8,0-1.54,0.47-1.87,1.19
			L497.11,152.9z"/>
	</g>
	<g>
		<path class="st0" d="M617.96,201.98c-0.62,0-1.12-0.5-1.12-1.12v-26.39c0-2.76,0.21-5.48,0.6-8.14
			c-10.03-1.2-19.31-5.67-26.59-12.9c-8.64-8.58-13.42-20-13.46-32.17s4.66-23.63,13.23-32.27c8.58-8.64,20-13.42,32.17-13.46
			l0.16,0c0.01,0,0.02,0,0.03,0c24.93,0,45.26,20.18,45.48,45.08c0.03,0.1,0.05,0.21,0.05,0.32c0.04,12.17-4.66,23.63-13.23,32.27
			c-8.58,8.64-20,13.42-32.17,13.46c-1.15,0-2.29-0.03-3.43-0.11c-0.39,2.6-0.6,5.25-0.6,7.93v26.39
			C619.09,201.48,618.59,201.98,617.96,201.98z M620.07,164.31c1.01,0.06,2,0.08,3.04,0.09c11.57-0.04,22.43-4.59,30.58-12.8
			c8.07-8.13,12.53-18.9,12.58-30.34c-0.03-0.11-0.05-0.22-0.05-0.33c-0.04-23.8-19.43-43.16-43.23-43.16c-0.01,0-0.02,0-0.03,0
			l-0.14,0c-11.59,0.04-22.45,4.59-30.6,12.8c-8.15,8.21-12.62,19.1-12.58,30.67c0.04,11.57,4.59,22.43,12.8,30.58
			c6.95,6.9,15.81,11.15,25.38,12.28c0.16-0.84,0.34-1.68,0.54-2.51c-3.97-7.94-10.5-14.51-18.42-18.52
			c-0.55-0.28-0.78-0.96-0.5-1.51c0.28-0.55,0.96-0.77,1.51-0.5c7.62,3.86,14.02,9.97,18.26,17.37c2.93-9.6,8.45-18.2,16.01-24.85
			c-0.57-10.4-10.77-17.79-10.88-17.87c-0.51-0.36-0.62-1.06-0.26-1.57c0.36-0.51,1.06-0.63,1.57-0.26
			c0.44,0.32,10.19,7.38,11.66,17.95c2.93-2.33,6.13-4.39,9.57-6.12c0.55-0.28,1.23-0.06,1.51,0.5c0.28,0.55,0.06,1.23-0.5,1.51
			c-3.88,1.95-7.44,4.33-10.63,7.07c-0.1,0.13-0.22,0.23-0.36,0.31c-7.97,6.96-13.62,16.15-16.21,26.41c0,0.18-0.04,0.36-0.13,0.52
			C620.39,162.78,620.22,163.54,620.07,164.31z"/>
	</g>
	<path class="st0" d="M240.45,127.27h-37.19V155h37.19V127.27z M220.45,152.19h-14.38v-22.11h14.38V152.19z M237.64,152.19h-14.38
		v-22.11h14.38V152.19z"/>
	<g>
		<path class="st0" d="M161.26,72.55l32.17-28.59l81.89,73.15c0.1-1.14,0.24-2.27,0.42-3.39l-82.31-73.52l-31.32,27.84
			C161.9,69.55,161.6,71.06,161.26,72.55z"/>
		<path class="st0" d="M194.37,52.89l-0.93-0.82L157.5,83.75c-1.12,2.46-2.4,4.85-3.86,7.14l39.8-35.08l65.66,57.87
			c-0.14,0.22-0.23,0.49-0.23,0.77v91.94h-70.55c0.39-0.25,0.65-0.69,0.65-1.18v-48.98H151.7v48.97c0,0.5,0.27,0.95,0.67,1.19
			h-24.21v-91.94c0-0.32-0.11-0.62-0.29-0.85l0.58-0.51c-2.44,1.14-4.96,2.1-7.53,2.89l-25.79,22.73v-7.38l14.73-13.1
			c-1.51,0.16-3.04,0.26-4.57,0.3l-12.97,11.53v14.86l33.03-29.11v93.38h136.34v-93.25l14.03,12.36c-0.22-1.37-0.37-2.75-0.47-4.16
			L194.37,52.89z M153.84,206.4c0.4-0.25,0.67-0.69,0.67-1.19v-46.16h31.66v46.17c0,0.5,0.26,0.94,0.65,1.18H153.84z"/>
	</g>
	<g>
		<rect x="378.72" y="86.11" class="st0" width="2.81" height="115.87"/>
	</g>
	<g>
		<path class="st0" d="M431.7,86.36h-50.52c-7.8,0-14.15-6.35-14.15-14.15v-1.21c0-7.8,6.35-14.15,14.15-14.15h50.52
			c7.8,0,14.15,6.35,14.15,14.15v1.21C445.85,80.02,439.5,86.36,431.7,86.36z M381.19,59.67c-6.25,0-11.33,5.08-11.33,11.33v1.21
			c0,6.25,5.08,11.33,11.33,11.33h50.52c6.25,0,11.33-5.08,11.33-11.33v-1.21c0-6.25-5.08-11.33-11.33-11.33H381.19z"/>
	</g>
	<g class="st1">
		<path class="st0" d="M398.67,66.08l-0.89,0.95c-0.84-0.68-1.58-0.98-2.67-0.98c-1.77,0-3.56,1.35-3.56,4.96c0,3.52,1.25,5,3.42,5
			c0.84,0,1.65-0.18,2.35-0.56v-3.79h-2.19l-0.18-1.24h3.88v5.8c-1.12,0.65-2.37,1.05-3.86,1.05c-3.09,0-5.03-2.09-5.03-6.26
			c0-4.08,2.44-6.22,5.17-6.22C396.67,64.78,397.66,65.24,398.67,66.08z"/>
		<path class="st0" d="M410.94,77.06h-2.03l-5.08-10.4c0.09,0.96,0.21,2.35,0.21,4.58v5.82h-1.42V64.99h1.98l5.12,10.41
			c-0.04-0.33-0.19-2.17-0.19-3.66v-6.75h1.42V77.06z"/>
	</g>
	<g class="st1">
		<path class="st0" d="M419.32,77.06h-1.65l-3.91-12.06h1.65l3.1,10.43l3.12-10.43h1.54L419.32,77.06z"/>
	</g>
	<g>
		<path class="st0" d="M315.96,202.23c-0.78,0-1.4-0.63-1.4-1.41v-26.37c0-2.67,0.19-5.31,0.56-7.91
			c-22.45-2.87-39.9-22.05-39.98-45.28c-0.1-25.27,20.38-45.9,45.65-46h0.18c0.02,0,0.05,0,0.07,0c25.12,0,45.6,20.37,45.74,45.48
			c0.01,0.05,0.01,0.11,0.01,0.17c0.05,12.24-4.68,23.77-13.3,32.46c-8.62,8.69-20.11,13.5-32.35,13.55c-1.08,0-2.15-0.03-3.22-0.1
			c-0.37,2.5-0.55,5.05-0.56,7.64v26.37C317.37,201.6,316.74,202.23,315.96,202.23z M318.41,164.04c0.9,0.05,1.8,0.09,2.72,0.07
			c11.49-0.04,22.27-4.56,30.37-12.71c8.05-8.12,12.48-18.87,12.48-30.3c-0.01-0.05-0.01-0.11-0.01-0.17
			c-0.05-23.64-19.3-42.85-42.93-42.85c-0.02,0-0.04,0-0.07,0h-0.17c-23.71,0.09-42.94,19.46-42.84,43.18
			c0.08,21.84,16.52,39.87,37.65,42.52c0.14-0.73,0.3-1.45,0.47-2.16c-3.94-7.85-10.4-14.33-18.23-18.29
			c-0.69-0.35-0.97-1.2-0.62-1.89c0.35-0.69,1.2-0.97,1.89-0.62c7.48,3.78,13.79,9.72,18.05,16.92c2.98-9.38,8.44-17.77,15.84-24.32
			c-0.68-10.14-10.65-17.39-10.75-17.46c-0.63-0.45-0.78-1.33-0.33-1.96c0.45-0.63,1.32-0.78,1.96-0.33
			c0.44,0.31,9.96,7.21,11.69,17.61c2.83-2.21,5.9-4.16,9.19-5.82c0.69-0.35,1.54-0.07,1.89,0.62c0.35,0.69,0.07,1.54-0.62,1.89
			c-3.78,1.91-7.26,4.22-10.39,6.88c-0.15,0.25-0.38,0.45-0.66,0.57c-7.85,6.9-13.42,15.99-15.99,26.13
			c-0.01,0.2-0.06,0.4-0.14,0.58C318.68,162.75,318.54,163.39,318.41,164.04z"/>
	</g>
	<g>
		<path class="st0" d="M65.65,203.55c-0.78,0-1.4-0.63-1.4-1.41c0-6.59-0.08-12.27-0.15-17.27c-0.16-11.13-0.27-19.04,0.67-26.48
			c-0.11-14.66-6.25-25.54-13.43-33.28c-0.5,0.58-1.02,1.14-1.57,1.69c-5.51,5.49-12.82,8.52-20.6,8.52c-0.01,0-0.03,0-0.04,0
			c-7.79-0.01-15.11-3.06-20.62-8.57c-5.5-5.52-8.53-12.85-8.52-20.64v-0.02c0.02-16.06,13.09-29.12,29.15-29.12
			c0.04,0,0.13,0,0.17,0c7.69,0.01,15.02,3.05,20.52,8.57c0.31,0.31,0.61,0.62,0.9,0.94c-4.3-8.33-6.58-17.62-6.56-27.27
			C44.19,26.56,70.77,0,103.42,0c0.01,0,0.02,0,0.03,0c32.79,0.05,59.35,26.68,59.3,59.38c-0.02,15.84-6.21,30.72-17.42,41.9
			c-11.19,11.16-26.06,17.31-41.87,17.31c-0.03,0-0.06,0-0.08,0c-6.19-0.01-12.23-0.96-17.96-2.78c-2.61,3.41-5,7.17-7.04,11.31
			c-6.7,13.59-9.61,21.99-10.81,31.31c0,0.13,0,0.25,0,0.38c0,0.2-0.04,0.39-0.12,0.56c-0.81,7.02-0.7,14.66-0.55,25.47
			c0.07,5.02,0.15,10.7,0.15,17.31C67.06,202.92,66.43,203.55,65.65,203.55z M53.08,122.88c6.05,6.42,11.46,14.94,13.57,25.91
			c1.75-6.52,4.61-13.57,9.22-22.92c1.98-4,4.28-7.68,6.77-11.03c-7.86-2.94-15.06-7.56-21.16-13.68c-1.9-1.91-3.66-3.92-5.27-6.03
			c1.41,3.46,2.14,7.2,2.14,11.04C58.34,112.24,56.5,118.02,53.08,122.88z M29.18,79.77c-14.55,0-26.36,11.79-26.37,26.31v0.02
			c-0.01,7.04,2.72,13.67,7.7,18.65c4.97,4.99,11.59,7.74,18.63,7.75c0.01,0,0.03,0,0.04,0c8.09,0,15.35-3.67,20.19-9.42
			c-9.72-9.51-20.48-13.58-20.67-13.65c-0.73-0.27-1.1-1.07-0.83-1.8c0.27-0.73,1.07-1.1,1.8-0.84c0.21,0.08,11.27,4.26,21.4,14.04
			c2.82-4.19,4.48-9.23,4.49-14.66c0.01-7.04-2.72-13.67-7.7-18.65c-4.97-4.99-11.59-7.74-18.63-7.75
			C29.2,79.77,29.19,79.77,29.18,79.77z M87.31,113.45c5.15,1.53,10.55,2.32,16.08,2.33c0.02,0,0.05,0,0.08,0
			c31.11,0,56.44-25.29,56.48-56.41c0.04-31.15-25.26-56.52-56.41-56.56c-0.01,0-0.02,0-0.03,0c-31.19,0-56.51,25.3-56.53,56.41v0
			c-0.02,15.09,5.84,29.28,16.49,39.96c6.02,6.04,13.17,10.55,20.98,13.33c2.67-3.3,5.52-6.28,8.42-8.93
			c-0.15-4.09-2.16-30.28-27.98-40.52c-0.72-0.29-1.07-1.1-0.79-1.82c0.29-0.72,1.1-1.07,1.82-0.79c8.57,3.4,14.68,8.45,19.02,13.92
			c1.88-15.24,17.84-21.46,18.01-21.52c0.72-0.27,1.53,0.09,1.81,0.82c0.27,0.72-0.09,1.54-0.81,1.81
			c-0.04,0.02-4.38,1.69-8.54,5.38c-5.4,4.78-8.03,10.57-7.82,17.21c5.84,9.08,7.47,18.56,7.93,23.19
			c13.46-11.39,26.99-16.16,27.2-16.23c0.73-0.25,1.53,0.14,1.78,0.87c0.25,0.73-0.14,1.53-0.87,1.79
			C123.38,87.77,102.53,95.13,87.31,113.45z M1.4,106.1h0.01H1.4z M45.57,59.22h0.01H45.57z"/>
	</g>
</g>
</svg>
