<?xml version="1.0" encoding="utf-8"?>
<!-- Generator: Adobe Illustrator 24.3.0, SVG Export Plug-In . SVG Version: 6.00 Build 0)  -->
<svg version="1.1" id="Layer_1" xmlns="http://www.w3.org/2000/svg" xmlns:xlink="http://www.w3.org/1999/xlink" x="0px" y="0px"
	 viewBox="0 0 409.87 409.08" style="enable-background:new 0 0 409.87 409.08;" xml:space="preserve">
<style type="text/css">
	.st0{fill:#00A1DE;}
	.st1{fill:#FFFFFF;}
</style>
<g>
	<path class="st0" d="M74.53,0h260.81c41.16,0,74.53,33.37,74.53,74.53v260.81c0,41.16-33.37,74.53-74.53,74.53H74.53
		C33.37,409.87,0,376.5,0,335.34V74.53C0,33.37,33.37,0,74.53,0z"/>
	<path class="st1" d="M264.21,323.49H145.68c-2.1-0.39-4.22-0.74-6.32-1.17c-30.86-6.03-53.09-33.14-52.93-64.59
		c0-35.18,0-70.36,0-105.55c-0.01-4.24,0.36-8.47,1.11-12.64c4.95-25.93,25.01-46.33,50.85-51.71c4.61-0.92,9.3-1.38,14-1.38
		c35-0.11,70.05,0,105.07-0.07c9.27-0.14,18.46,1.77,26.91,5.59c19.53,9,32.06,24,37.29,44.9c0.72,2.9,1.19,5.86,1.78,8.79v118.55
		c-0.19,0.66-0.35,1.33-0.48,2c-0.75,6.34-2.49,12.52-5.14,18.33c-9.09,19.45-24,32-44.88,37.17
		C270.08,322.43,267.14,322.9,264.21,323.49z M302.21,205.05h0.1c0-17.21,0-34.42,0-51.63c0.09-5.32-0.68-10.62-2.28-15.69
		c-6.31-18.35-23.71-30.56-43.12-30.24c-34.64,0.23-69.29,0.07-103.93,0.06c-5.17-0.06-10.31,0.71-15.23,2.28
		c-16.84,5.56-30.42,22.09-30.25,43.37c0.27,34.5,0,69,0.11,103.49c-0.03,3.46,0.28,6.92,0.91,10.33c3.94,20,22,35.51,44.23,35.37
		c34.8-0.21,69.6-0.07,104.4,0c7.45,0,14.6-1.33,21.14-4.92c14.7-8.05,23.31-20.41,23.81-37.28
		C302.65,241.8,302.22,223.42,302.21,205.05L302.21,205.05z"/>
	<path class="st1" d="M204.98,266.05c-33.76,0.03-61.14-27.31-61.17-61.07c-0.03-33.76,27.31-61.14,61.07-61.17
		s61.14,27.31,61.17,61.07c0,0.06,0,0.11,0,0.17C265.93,238.72,238.65,265.97,204.98,266.05z M204.98,165.05
		c-22.05-0.05-39.96,17.78-40.01,39.83c-0.05,22.05,17.78,39.96,39.83,40.01c22.03,0.05,39.93-17.75,40.01-39.78
		c0.17-21.97-17.51-39.92-39.49-40.09c-0.1,0-0.19,0-0.29,0L204.98,165.05z"/>
	<path class="st1" d="M268.53,156.83c-8.51-0.04-15.39-6.95-15.39-15.46c-0.01-8.55,6.91-15.49,15.46-15.5
		c8.55-0.01,15.49,6.91,15.5,15.46c0.01,8.55-6.91,15.49-15.46,15.5C268.61,156.83,268.57,156.83,268.53,156.83L268.53,156.83z"/>
</g>
</svg>
