<?xml version="1.0" encoding="utf-8"?>
<!-- Generator: Adobe Illustrator 24.3.0, SVG Export Plug-In . SVG Version: 6.00 Build 0)  -->
<svg version="1.1" id="Layer_1" xmlns="http://www.w3.org/2000/svg" xmlns:xlink="http://www.w3.org/1999/xlink" x="0px" y="0px"
	 viewBox="0 0 409.87 409.08" style="enable-background:new 0 0 409.87 409.08;" xml:space="preserve">
<style type="text/css">
	.st0{fill:#00A1DE;}
	.st1{fill:#FFFFFF;}
</style>
<g>
	<path class="st0" d="M74.53,0h260.81c41.16,0,74.53,33.37,74.53,74.53v260.81c0,41.16-33.37,74.53-74.53,74.53H74.53
		C33.37,409.87,0,376.5,0,335.34V74.53C0,33.37,33.37,0,74.53,0z"/>
	<path class="st1" d="M173.19,298.71V164.64h43.69v24.66l0.39,0.17l1.62-2c8.25-9.74,18-17.25,30.42-21
		c23.61-7.08,47,4.85,55.26,26.2c1.9,4.99,2.85,10.28,2.81,15.62c0,30.11,0,60.23,0,90.34h-43.87c0-0.76,0.1-1.52,0.1-2.28
		c0-26.41-0.06-52.82,0.08-79.23c0.05-3.29-0.94-6.52-2.82-9.22c-2.89-4.28-6.55-7.11-12.09-6.9c-4,0.14-7.38,1.73-10.62,3.73
		c-8.28,5.11-14.7,12.21-20.56,19.84c-0.48,0.8-0.71,1.72-0.66,2.65c0,23.17,0,46.34,0,69.51c0,0.63,0.05,1.26,0.08,1.9
		L173.19,298.71z"/>
	<path class="st1" d="M112.19,164.52h43.75v131.72c0,0.82,0.06,1.64,0.09,2.47h-43.84V164.52z"/>
	<path class="st1" d="M112.19,121.82c1-3.55,2.08-7,4.39-10c7.16-9.42,20.61-11.25,30.03-4.09c9.42,7.16,11.25,20.61,4.09,30.03
		c-7.16,9.42-20.61,11.25-30.03,4.09c-4.22-3.21-7.11-7.88-8.09-13.09c-0.09-0.3-0.21-0.59-0.35-0.86L112.19,121.82z"/>
</g>
</svg>
