<?xml version="1.0" encoding="utf-8"?>
<!-- Generator: Adobe Illustrator 24.3.0, SVG Export Plug-In . SVG Version: 6.00 Build 0)  -->
<svg version="1.1" id="Layer_1" xmlns="http://www.w3.org/2000/svg" xmlns:xlink="http://www.w3.org/1999/xlink" x="0px" y="0px"
	 viewBox="0 0 120.25 894.46" style="enable-background:new 0 0 120.25 894.46;" xml:space="preserve">
<style type="text/css">
	.st0{fill:#B3B3B3;}
</style>
<g>
	<polygon class="st0" points="60.13,75 0,75 30.06,37.5 60.13,0 90.19,37.5 120.25,75 	"/>
	<g>
		<path class="st0" d="M60.03,219.04c-29.29,0-53.11-23.82-53.11-53.11s23.82-53.11,53.11-53.11s53.11,23.82,53.11,53.11
			S89.31,219.04,60.03,219.04z M60.03,124.16c-23.03,0-41.77,18.74-41.77,41.77S37,207.7,60.03,207.7s41.77-18.74,41.77-41.77
			S83.06,124.16,60.03,124.16z"/>
	</g>
	<g>
		<path class="st0" d="M60.03,355.12c-29.29,0-53.11-23.83-53.11-53.11s23.82-53.11,53.11-53.11s53.11,23.82,53.11,53.11
			S89.31,355.12,60.03,355.12z M60.03,260.24c-23.03,0-41.77,18.74-41.77,41.77S37,343.78,60.03,343.78s41.77-18.74,41.77-41.77
			S83.06,260.24,60.03,260.24z"/>
	</g>
	<g>
		<path class="st0" d="M60.03,492.21c-29.29,0-53.11-23.83-53.11-53.11c0-29.29,23.82-53.11,53.11-53.11s53.11,23.82,53.11,53.11
			C113.14,468.38,89.31,492.21,60.03,492.21z M60.03,397.33c-23.03,0-41.77,18.74-41.77,41.77c0,23.03,18.74,41.77,41.77,41.77
			s41.77-18.74,41.77-41.77C101.8,416.07,83.06,397.33,60.03,397.33z"/>
	</g>
	<g>
		<path class="st0" d="M60.03,626.3c-29.29,0-53.11-23.83-53.11-53.11c0-29.29,23.82-53.11,53.11-53.11s53.11,23.83,53.11,53.11
			C113.14,602.47,89.31,626.3,60.03,626.3z M60.03,531.42c-23.03,0-41.77,18.74-41.77,41.77S37,614.96,60.03,614.96
			s41.77-18.74,41.77-41.77S83.06,531.42,60.03,531.42z"/>
	</g>
	<g>
		<path class="st0" d="M60.03,762.38c-29.29,0-53.11-23.83-53.11-53.11c0-29.28,23.82-53.11,53.11-53.11s53.11,23.83,53.11,53.11
			C113.14,738.55,89.31,762.38,60.03,762.38z M60.03,667.5c-23.03,0-41.77,18.74-41.77,41.77S37,751.04,60.03,751.04
			s41.77-18.74,41.77-41.77S83.06,667.5,60.03,667.5z"/>
	</g>
	<g>
		<path class="st0" d="M60.03,894.46c-29.29,0-53.11-23.83-53.11-53.11c0-29.28,23.82-53.11,53.11-53.11s53.11,23.83,53.11,53.11
			C113.14,870.63,89.31,894.46,60.03,894.46z M60.03,799.58c-23.03,0-41.77,18.74-41.77,41.77S37,883.12,60.03,883.12
			s41.77-18.74,41.77-41.77S83.06,799.58,60.03,799.58z"/>
	</g>
</g>
</svg>
