<?xml version="1.0" encoding="utf-8"?>
<!-- Generator: Adobe Illustrator 24.3.0, SVG Export Plug-In . SVG Version: 6.00 Build 0)  -->
<svg version="1.1" id="Layer_1" xmlns="http://www.w3.org/2000/svg" xmlns:xlink="http://www.w3.org/1999/xlink" x="0px" y="0px"
	 viewBox="0 0 388.51 131.98" style="enable-background:new 0 0 388.51 131.98;" xml:space="preserve">
<style type="text/css">
	.st0{fill:#00A1DE;}
	.st1{fill:#FAB200;}
	.st2{fill:#00A34B;}
	.st3{fill:none;}
	.st4{fill:#FFFFFF;}
	.st5{clip-path:url(#SVGID_2_);}
</style>
<g>
	<path class="st0" d="M376.27,0.02h-98.45c-4.47-0.08-8.64,2.24-10.91,6.09c3.56,4.13,8.84,10.38,8.84,10.38
		c0.6,0.73,0.6,1.79,0,2.52l-9.1,11.93v92.24c0,0.6-0.07,1.2-0.2,1.78c2.08,4.37,6.53,7.11,11.37,7h98.45
		c6.76,0,12.23-5,12.23-11.11V11.12C388.5,4.99,383,0.02,376.27,0.02z"/>
	<path class="st1" d="M268.48,16.49c0,0-10.89-12.92-12-13.88c-1.93-1.7-4.43-2.62-7-2.59H142.35c-5.44,0-9.86,3.93-9.86,8.78v92.57
		l8.85,11.6c0.6,0.73,0.6,1.79,0,2.52c0,0-4.94,5.86-8.5,10c1.13,3.74,5,6.49,9.51,6.49h107.18c5.45,0,9.86-3.93,9.86-8.78V30.94
		l9.09-11.93C269.08,18.28,269.08,17.22,268.48,16.49z"/>
	<path class="st2" d="M134.07,112.97L125,101.05V8.78c0-4.85-4.41-8.78-9.86-8.78H9.86C4.42,0.02,0,3.95,0,8.78v114.4
		c0,4.85,4.42,8.79,9.86,8.79h105.26c2.57,0.02,5.07-0.9,7-2.6c1.07-1,12-13.88,12-13.88c0.6-0.73,0.6-1.79,0-2.52"/>
	<rect y="0.02" class="st3" width="388.51" height="131.95"/>
	<path class="st4" d="M14.63,76.47h-2.81l-0.51,2h-2l2.76-9h2.32l2.74,9h-2L14.63,76.47z M14.26,75.06l-1-4.13l-1,4.13H14.26z"/>
	<path class="st4" d="M24.19,70.28l-0.94,1.1c-0.46-0.39-1.03-0.6-1.63-0.6c-1.21,0-2.09,0.9-2.09,3.23s0.86,3.2,2.1,3.2
		c0.66-0.02,1.29-0.28,1.78-0.72l0.88,1.1c-0.73,0.73-1.71,1.13-2.74,1.12c-2.39,0-4-1.64-4-4.7s1.73-4.67,4-4.67
		C22.52,69.31,23.46,69.65,24.19,70.28z"/>
	<path class="st4" d="M31.58,70.28l-0.94,1.1c-0.46-0.39-1.04-0.6-1.64-0.6c-1.21,0-2.09,0.9-2.09,3.23s0.86,3.2,2.1,3.2
		c0.66-0.02,1.29-0.28,1.78-0.72l0.88,1.1c-0.73,0.73-1.71,1.13-2.74,1.12c-2.39,0-4-1.64-4-4.7s1.73-4.67,4-4.67
		C29.9,69.31,30.85,69.64,31.58,70.28z"/>
	<path class="st4" d="M34.66,78.48h-1.9v-9h1.9V78.48z"/>
	<path class="st4" d="M44.07,74c0,2.93-1.51,4.68-4,4.68s-4-1.69-4-4.68s1.53-4.69,4-4.69S44.07,70.99,44.07,74z M38.07,74
		c0,2.34,0.73,3.26,2,3.26s2-0.92,2-3.26s-0.69-3.22-1.97-3.22s-1.98,0.87-1.98,3.22H38.07z M41.79,67.64l-3,1.1l-0.44-0.96
		l2.8-1.56L41.79,67.64z"/>
	<path class="st4" d="M52.26,78.48h-2.44L47,71.37c0.17,1.2,0.26,2.41,0.26,3.62v3.49h-1.75v-9h2.39l2.9,7.12
		c-0.16-1.06-0.25-2.12-0.26-3.19v-3.89h1.72L52.26,78.48z"/>
	<path class="st4" d="M63.76,72.4c0,2.08-1.48,3-3.52,3h-1v3.08h-1.9v-9h2.77C62.36,69.52,63.76,70.45,63.76,72.4z M61.76,72.4
		c0-1-0.62-1.51-1.74-1.51h-0.84v3.13h0.87c1.08,0,1.74-0.4,1.74-1.62H61.76z"/>
	<path class="st4" d="M72.52,74c0,2.93-1.52,4.68-4,4.68s-4-1.69-4-4.68s1.52-4.69,4-4.69S72.52,70.99,72.52,74z M66.52,74
		c0,2.34,0.74,3.26,2,3.26s2-0.92,2-3.26s-0.68-3.26-2-3.26s-1.96,0.91-1.96,3.26H66.52z"/>
	<path class="st4" d="M76.83,74.97h-1v3.51H74v-9h2.8c2.39,0,3.61,0.87,3.61,2.68c0.03,1.11-0.7,2.11-1.77,2.42l2.26,3.9h-2.16
		L76.83,74.97z M75.83,73.62h1c1,0,1.54-0.41,1.54-1.42s-0.53-1.32-1.68-1.32h-0.85L75.83,73.62z"/>
	<path class="st4" d="M15.53,88.16H12.3v2.32h2.82v1.38H12.3v2.47h3.47v1.45h-5.38v-9h5.35L15.53,88.16z"/>
	<path class="st4" d="M19,94.2h3.55l-0.21,1.58H17.1v-9H19V94.2z"/>
	<path class="st4" d="M32.8,87.53l-0.95,1.1c-0.45-0.4-1.03-0.62-1.63-0.63c-1.2,0-2.08,0.91-2.08,3.24s0.85,3.19,2.09,3.19
		c0.66-0.03,1.28-0.28,1.77-0.72l0.9,1.07c-0.73,0.73-1.71,1.13-2.74,1.12c-2.4,0-4-1.64-4-4.69s1.74-4.68,4-4.68
		C31.13,86.52,32.08,86.88,32.8,87.53z"/>
	<path class="st4" d="M35.75,94.2h3.54l-0.2,1.58h-5.24v-9h1.9V94.2z"/>
	<path class="st4" d="M42.21,95.78H40.3v-9h1.91V95.78z"/>
	<path class="st4" d="M52.66,95.78H50.8l-0.19-3.64c-0.08-1.28-0.12-2.63-0.08-3.65L49,94.78h-1.8l-1.6-6.35
		c0.06,1.23,0.06,2.47,0,3.7l-0.2,3.65h-1.85l0.7-9h2.42l1.48,6.17l1.38-6.17H52L52.66,95.78z"/>
	<path class="st4" d="M58.23,93.72h-2.81l-0.5,2h-2l2.75-9H58l2.74,9h-2L58.23,93.72z M57.87,92.31l-1-4.13l-1,4.13H57.87z"/>
	<path class="st4" d="M150.31,71.01h-2.26v7.47h-1.9v-7.47h-2.38v-1.49h6.75L150.31,71.01z"/>
	<path class="st4" d="M154.37,74.97h-1v3.51h-1.9v-9h2.8c2.39,0,3.61,0.87,3.61,2.68c0.03,1.11-0.7,2.11-1.77,2.42l2.31,3.86h-2.16
		L154.37,74.97z M153.37,73.62h1c1,0,1.54-0.41,1.54-1.42s-0.53-1.32-1.68-1.32h-0.86V73.62z"/>
	<path class="st4" d="M163.67,76.47h-2.81l-0.5,2h-2l2.75-9h2.32l2.74,9h-2L163.67,76.47z M163.31,75.06l-1.05-4.13l-1,4.13H163.31z
		"/>
	<path class="st4" d="M173.78,78.48h-2.45l-2.85-7.11c0.17,1.2,0.26,2.41,0.26,3.62v3.49H167v-9h2.4l2.9,7.12
		c-0.16-1.06-0.25-2.12-0.26-3.19v-3.89h1.72L173.78,78.48z"/>
	<path class="st4" d="M181.41,70.44l-0.9,1c-0.55-0.49-1.26-0.75-2-0.75c-0.78,0-1.31,0.33-1.31,1s0.34,0.88,1.8,1.33
		c1.62,0.52,2.65,1.19,2.65,2.85s-1.29,2.79-3.47,2.79c-1.23,0.04-2.42-0.41-3.31-1.25l1-1.08c0.62,0.58,1.44,0.9,2.29,0.9
		c0.92,0,1.54-0.44,1.54-1.23s-0.35-1-1.71-1.44c-1.94-0.61-2.71-1.39-2.71-2.74c0-1.53,1.32-2.53,3.13-2.53
		C179.53,69.25,180.61,69.66,181.41,70.44z"/>
	<path class="st4" d="M183,69.52h5.2L188,70.9h-3.1v2.54h2.69v1.39h-2.69v3.65H183V69.52z"/>
	<path class="st4" d="M196.8,74c0,2.93-1.51,4.68-4,4.68s-4-1.69-4-4.68s1.53-4.69,4-4.69S196.8,70.99,196.8,74z M190.8,74
		c0,2.34,0.74,3.26,2,3.26s2-0.92,2-3.26s-0.69-3.26-2-3.26s-1.95,0.91-1.95,3.26H190.8z"/>
	<path class="st4" d="M201.11,74.97h-1v3.51h-1.9v-9H201c2.4,0,3.62,0.87,3.62,2.68c0.02,1.12-0.71,2.11-1.78,2.42l2.32,3.86H203
		L201.11,74.97z M200.11,73.62h1c1,0,1.54-0.41,1.54-1.42s-0.53-1.32-1.68-1.32h-0.86V73.62z"/>
	<path class="st4" d="M214.87,78.48H213l-0.2-3.64c-0.08-1.28-0.11-2.63-0.08-3.65l-1.51,6.33h-1.8l-1.61-6.34
		c0.07,1.23,0.07,2.47,0,3.7l-0.19,3.6h-1.85l0.7-9h2.42l1.47,6.17l1.39-6.17h2.44L214.87,78.48z"/>
	<path class="st4" d="M220.56,76.47h-2.8l-0.51,2h-2l2.76-9h2.31l2.75,9h-2L220.56,76.47z M220.2,75.06l-1-4.13l-1,4.13H220.2z"/>
	<path class="st4" d="M230.67,78.48h-2.44l-2.85-7.11c0.17,1.2,0.26,2.41,0.26,3.62v3.49h-1.72v-9h2.39l2.9,7.12
		c-0.16-1.06-0.25-2.12-0.26-3.19v-3.89h1.72L230.67,78.48z"/>
	<path class="st4" d="M239.53,73.96c0,3.61-2.2,4.52-4.4,4.52h-2.57v-9h2.34C237.27,69.52,239.53,70.26,239.53,73.96z M234.46,70.96
		v6.12h0.78c1.31,0,2.31-0.61,2.31-3.12s-1.05-3-2.35-3H234.46z"/>
	<path class="st4" d="M248.48,74c0,2.93-1.51,4.68-4,4.68s-4-1.69-4-4.68s1.53-4.69,4-4.69S248.48,70.99,248.48,74z M242.53,74
		c0,2.34,0.74,3.26,2,3.26s2-0.92,2-3.26s-0.69-3.26-2-3.26S242.53,71.65,242.53,74z"/>
	<path class="st4" d="M151.34,95.78h-2.45L146,88.62c0.17,1.2,0.26,2.42,0.26,3.63v3.53h-1.72v-9H147l2.9,7.12
		c-0.16-1.06-0.24-2.12-0.25-3.19v-3.93h1.72L151.34,95.78z"/>
	<path class="st4" d="M159.92,92.78c0,1.79-1.15,3.15-3.42,3.15s-3.4-1.29-3.4-3.15v-6h1.9v5.92c0,1.2,0.47,1.79,1.5,1.79
		s1.51-0.59,1.51-1.79v-5.92h1.91V92.78z"/>
	<path class="st4" d="M166.83,88.16h-3.24v2.32h2.82v1.38h-2.82v2.47h3.47v1.45h-5.37v-9H167L166.83,88.16z"/>
	<path class="st4" d="M174.27,87.69l-0.91,1c-0.55-0.49-1.26-0.75-2-0.75c-0.77,0-1.3,0.33-1.3,1s0.33,0.88,1.8,1.33
		s2.65,1.19,2.65,2.85s-1.3,2.79-3.47,2.79c-1.23,0.04-2.42-0.41-3.31-1.25l1-1.08c0.62,0.58,1.44,0.9,2.29,0.9
		c0.92,0,1.54-0.44,1.54-1.23s-0.35-1-1.71-1.44c-1.94-0.61-2.72-1.38-2.72-2.74c0-1.53,1.32-2.53,3.13-2.53
		C172.38,86.5,173.47,86.91,174.27,87.69z"/>
	<path class="st4" d="M181.57,88.26h-2.27v7.52h-1.9v-7.52H175v-1.48h6.76L181.57,88.26z"/>
	<path class="st4" d="M185.62,92.22h-1v3.56h-1.9v-9h2.79c2.4,0,3.61,0.87,3.61,2.68c0.03,1.11-0.7,2.11-1.77,2.42l2.35,3.9h-2.16
		L185.62,92.22z M184.62,90.87h1c1,0,1.54-0.41,1.54-1.42s-0.53-1.32-1.69-1.32h-0.85L184.62,90.87z"/>
	<path class="st4" d="M194.93,93.72h-2.81l-0.51,2h-2l2.76-9h2.32l2.74,9h-2L194.93,93.72z M194.56,92.31l-1-4.13l-1,4.13H194.56z"
		/>
	<path class="st4" d="M207.65,87.53l-1,1.1c-0.45-0.4-1.03-0.62-1.63-0.63c-1.2,0-2.08,0.91-2.08,3.24s0.85,3.19,2.1,3.19
		c0.66-0.02,1.29-0.28,1.78-0.72l0.88,1.1c-0.72,0.72-1.69,1.12-2.7,1.12c-2.4,0-4-1.64-4-4.69s1.74-4.68,4-4.68
		C205.97,86.54,206.92,86.89,207.65,87.53z"/>
	<path class="st4" d="M210.73,95.78h-1.9v-9h1.9V95.78z"/>
	<path class="st4" d="M219.32,92.78c0,1.79-1.15,3.15-3.41,3.15s-3.41-1.29-3.41-3.15v-6h1.9v5.92c0,1.2,0.47,1.79,1.51,1.79
		s1.51-0.59,1.51-1.79v-5.92h1.9L219.32,92.78z"/>
	<path class="st4" d="M228.06,91.21c0,3.61-2.2,4.52-4.4,4.52h-2.57v-8.95h2.35C225.81,86.78,228.06,87.51,228.06,91.21z M223,88.21
		v6.16h0.77c1.31,0,2.31-0.61,2.31-3.12s-1.05-3-2.34-3L223,88.21z"/>
	<path class="st4" d="M233.74,93.72h-2.81l-0.5,2h-2l2.75-9h2.32l2.74,9h-2L233.74,93.72z M233.38,92.31l-1-4.13l-1,4.13H233.38z"/>
	<path class="st4" d="M244.05,91.21c0,3.61-2.2,4.52-4.4,4.52h-2.56v-8.95h2.34C241.8,86.78,244.05,87.51,244.05,91.21z
		 M238.99,88.21v6.16h0.78c1.31,0,2.3-0.61,2.3-3.12s-1-3-2.34-3L238.99,88.21z"/>
	<path class="st4" d="M283.37,70.39l-1,1c-0.51-0.45-1.17-0.7-1.85-0.7c-1.27,0-2.28,1-2.28,3.28s0.67,3.26,2,3.26
		c0.47,0.01,0.93-0.11,1.34-0.33v-2.12h-1.26l-0.19-1.39h3.3v4.39c-0.95,0.58-2.04,0.89-3.15,0.9c-2.64,0-4-1.62-4-4.7
		s1.87-4.67,4.19-4.67C281.54,69.29,282.57,69.68,283.37,70.39z"/>
	<path class="st4" d="M290.14,70.9h-3.23v2.33h2.82v1.38h-2.82v2.47h3.47v1.4H285v-9h5.34L290.14,70.9z"/>
	<path class="st4" d="M298.6,78.48h-2.45l-2.85-7.11c0.17,1.2,0.26,2.41,0.26,3.62v3.49h-1.72v-9h2.39l2.9,7.12
		c-0.16-1.06-0.25-2.12-0.26-3.19v-3.89h1.73V78.48z"/>
	<path class="st4" d="M305.62,70.9h-3.23v2.33h2.82v1.38h-2.82v2.47h3.47v1.4h-5.38v-9h5.35L305.62,70.9z"/>
	<path class="st4" d="M310.19,74.97h-1v3.51h-1.9v-9h2.79c2.4,0,3.61,0.87,3.61,2.68c0.06,1.11-0.64,2.11-1.69,2.46l2.32,3.86h-2.16
		L310.19,74.97z M309.19,73.62h1c1,0,1.54-0.41,1.54-1.42s-0.53-1.32-1.69-1.32h-0.85V73.62z"/>
	<path class="st4" d="M319.5,76.47h-2.81l-0.51,2h-2l2.76-9h2.32l2.74,9h-2L319.5,76.47z M319.13,75.06l-1-4.13l-1,4.13H319.13z"/>
	<path class="st4" d="M329.6,78.48h-2.44l-2.85-7.11c0.17,1.2,0.26,2.41,0.26,3.62v3.49h-1.72v-9h2.39l2.9,7.12
		c-0.16-1.06-0.25-2.12-0.26-3.19v-3.89h1.72V78.48z"/>
	<path class="st4" d="M338.46,73.96c0,3.61-2.2,4.52-4.4,4.52h-2.57v-9h2.35C336.21,69.52,338.46,70.26,338.46,73.96z M333.4,70.96
		v6.12h0.77c1.31,0,2.31-0.61,2.31-3.12s-1.05-3-2.35-3H333.4z"/>
	<path class="st4" d="M347.41,74c0,2.93-1.51,4.68-4,4.68s-4-1.69-4-4.68s1.53-4.69,4-4.69S347.41,70.99,347.41,74z M341.41,74
		c0,2.34,0.74,3.26,2,3.26s2-0.92,2-3.26s-0.69-3.26-2-3.26s-1.95,0.91-1.95,3.26H341.41z"/>
	<path class="st4" d="M282.92,87.53l-0.94,1.1c-0.45-0.4-1.03-0.62-1.63-0.63c-1.21,0-2.09,0.91-2.09,3.24s0.86,3.19,2.1,3.19
		c0.66-0.02,1.3-0.28,1.79-0.72l0.85,1.07c-0.73,0.73-1.72,1.13-2.75,1.12c-2.39,0-4-1.64-4-4.69s1.73-4.68,4-4.68
		C281.24,86.51,282.19,86.87,282.92,87.53z"/>
	<path class="st4" d="M291.36,91.25c0,2.94-1.51,4.68-4,4.68s-4-1.69-4-4.68s1.53-4.69,4-4.69S291.36,88.25,291.36,91.25z
		 M285.41,91.25c0,2.34,0.73,3.26,2,3.26s2-0.92,2-3.26s-0.68-3.26-2-3.26S285.41,88.91,285.41,91.25L285.41,91.25z"/>
	<path class="st4" d="M299.31,95.78h-2.45L294,88.62c0.17,1.2,0.26,2.42,0.26,3.63v3.53h-1.72v-9H295l2.89,7.12
		c-0.16-1.06-0.24-2.12-0.25-3.19v-3.93h1.72L299.31,95.78z"/>
	<path class="st4" d="M306.09,88.16h-3.24v2.32h2.82v1.38h-2.82v2.47h3.47v1.45H301v-9h5.35L306.09,88.16z"/>
	<path class="st4" d="M314,95.78h-2.1l-1.67-3.55l-1.63,3.55h-2l2.55-4.77l-2.38-4.23h2.09l1.41,3l1.47-3h2l-2.36,4.13L314,95.78z"
		/>
	<path class="st4" d="M316.58,95.78h-1.9v-9h1.9V95.78z"/>
	<path class="st4" d="M325.75,91.25c0,2.94-1.52,4.68-4,4.68s-4-1.69-4-4.68s1.53-4.69,4-4.69S325.75,88.25,325.75,91.25z
		 M319.75,91.25c0,2.34,0.74,3.26,2,3.26s2-0.92,2-3.26s-0.68-3.26-2-3.26s-1.96,0.92-1.96,3.26H319.75z"/>
	<path class="st4" d="M333.69,95.78h-2.44l-2.85-7.11c0.17,1.2,0.26,2.42,0.26,3.63v3.48h-1.72v-9h2.39l2.9,7.12
		c-0.16-1.06-0.25-2.12-0.26-3.19v-3.93h1.72V95.78z"/>
	<path class="st4" d="M340.48,88.16h-3.24v2.32h2.82v1.38h-2.82v2.47h3.47v1.45h-5.37v-9h5.34L340.48,88.16z"/>
	<path class="st4" d="M347.67,87.69l-0.9,1c-0.55-0.49-1.26-0.75-2-0.75c-0.78,0-1.31,0.33-1.31,1s0.34,0.88,1.8,1.33
		c1.62,0.52,2.65,1.19,2.65,2.85s-1.29,2.79-3.47,2.79c-1.23,0.04-2.42-0.41-3.31-1.25l1-1.08c0.62,0.58,1.44,0.9,2.29,0.9
		c0.92,0,1.54-0.44,1.54-1.23s-0.35-1-1.71-1.44c-1.94-0.61-2.72-1.38-2.72-2.74c0-1.53,1.32-2.53,3.14-2.53
		C345.79,86.5,346.87,86.91,347.67,87.69z"/>
	<g>
		<defs>
			<rect id="SVGID_1_" y="0.02" width="388.51" height="131.95"/>
		</defs>
		<clipPath id="SVGID_2_">
			<use xlink:href="#SVGID_1_"  style="overflow:visible;"/>
		</clipPath>
		<g class="st5">
			<path class="st4" d="M185.67,55.87h-17.34v-9.83c0-1.83,0-4.59-1.35-6c-0.71-0.65-1.66-0.98-2.62-0.91
				c-0.82-0.03-1.62,0.3-2.19,0.89c-1.57,1.63-1.82,5.13-1.78,6.34v9.47h-17.06v-2.12h3.41v-13l-0.06,0.06l-4.88-4.88l22.94-22.64
				l6.86,6.85v-4.63h9.46v14.09l6.22,6.22l-5,5v12.9h3.41L185.67,55.87z M170.48,53.71h9.62v-14.6l-15.88-15.88l-15.33,15.32v15.16
				h9.34v-7.27c0-0.18-0.14-5.25,2.39-7.87c0.97-1.02,2.33-1.59,3.74-1.56c1.54-0.07,3.04,0.49,4.15,1.55c2,2,2,5.31,2,7.49
				L170.48,53.71z M164.22,20.18L182,37.99l2.21-2.2l-19.51-19.5L144.86,35.9l1.82,1.82L164.22,20.18z M173.76,22.26l5.14,5.15
				v-9.78h-5.14V22.26z"/>
			<path class="st4" d="M10.08,55.23l-1-1.93l7.94-4c0.75-0.7,3.57-2.75,8.1,0.52l0.79,0.57c3.85,2.83,5.44,4,11.5-0.88
				c2.07-1.66,4.11-3,5.91-4.19c4.87-3.21,6.39-4.46,5.11-6.57c-1.22,0.61-2.36,1.36-3.39,2.25c-2.72,2.29-5.76,4.14-9.04,5.51
				c-0.37,0.18-0.7,0.31-0.92,0.4c-6.09,2.5-11.88-2.24-12.13-2.44l1.35-1.69c0.05,0,4.22,3.43,8.67,2.5v-0.2
				c0.73-0.13,1.46-0.33,2.16-0.58c1.33-0.66,1.46-1.11,1.46-1.12c-0.52-0.57-1.23-0.93-2-1c-2.31-0.29-4-0.68-8.08-3.61
				c-2.15-1.53-4.78-2.24-7.41-2l-9,4.23l-0.92-1.95l9.2-4.27h0.14c0.84-0.12,1.7-0.15,2.55-0.07c2.21-1.62,4.77-2.69,7.48-3.12
				c-0.23-1.87,0.05-3.77,0.79-5.5c-0.28-0.23-0.66-0.52-1.11-0.83c-2.18,2.55-4.4,2.86-5.89,2.66c-3.59-0.49-7.21-4.36-10.18-10.9
				l-0.66-1.46l1.6-0.07c8.69-0.36,13.62,0.82,15.06,3.62c0.54,1.11,0.54,2.4,0,3.51c0.91,0.57,1.69,1.14,2.25,1.57
				c2.13-3,5.85-5,11.09-6.09l0.43,2.11c-4.69,0.95-8,2.71-9.77,5.24c1.88,1.01,4.04,1.32,6.13,0.9c3.67-0.79,7.07-3.88,10.12-9.18
				c-3.24-1.06-8.49-2.47-12.35-0.5c-2.19,1.22-3.76,3.3-4.35,5.74l-2.05-0.63c0.75-2.99,2.72-5.53,5.43-7
				c5.21-2.66,12-0.32,15.25,0.8l1.2,0.41l-0.6,1.12C47.41,23.7,43.3,27.53,38.71,28.5c-2.57,0.53-5.24,0.13-7.55-1.11
				c-0.46,1.28-0.62,2.65-0.46,4c4.14-0.09,9.27,1.4,14.72,6.73c1.44-1,2.54-1.63,3.53-1.45c0.53,0.09,0.99,0.4,1.27,0.86
				c2.66,4.16-1.2,6.7-5.67,9.65c-1.76,1.16-3.76,2.48-5.74,4.07c-7,5.65-9.68,4.21-14.14,0.94l-0.78-0.57
				c-3.55-2.56-5.19-0.87-5.37-0.67l-0.14,0.15l-0.2,0.11L10.08,55.23z M24.08,35.23c1.3,0.41,2.52,1.03,3.62,1.82
				c3.93,2.82,5.26,3,7.1,3.22c1.37,0.17,3.45,1,3.86,2.57c1.74-1.05,3.41-2.21,5-3.48c-8.79-8.38-16.26-5.97-19.6-4.1L24.08,35.23z
				 M14.85,17.53c2.44,4.82,5.3,7.84,7.8,8.18c1.47,0.11,2.89-0.53,3.78-1.71c-1.74-1.17-3.77-1.82-5.86-1.88l-0.15-2.15
				c2.06-0.02,4.08,0.49,5.88,1.5c0.2-0.46,0.2-0.99,0-1.45c-0.49-0.81-2.48-2.64-11.47-2.46L14.85,17.53z"/>
			<path class="st4" d="M316.54,55.89h-18.09v-6.11h1.08c0.05,0,4.77-0.08,6.09-2.23c-1.58-0.62-2.82-1.91-3.37-3.52l-5.8-3.74
				l-5.9,3.74c-0.57,1.64-1.83,2.95-3.46,3.56c0.04,0.24,0.14,0.46,0.3,0.64c0.42,0.53,1.68,1.43,5.38,1.43h1.08v6.26h-18.09v-6.14
				h1.08c0.05,0,4.77-0.08,6.09-2.23c-2.99-1.17-4.46-4.54-3.29-7.53c1.17-2.99,4.54-4.46,7.53-3.29c1.95,0.76,3.34,2.52,3.63,4.59
				l4.58-2.9v-5.3h-8v-6.17h1.08c0.05,0,4.77-0.08,6.09-2.23c-3-1.15-4.49-4.51-3.34-7.5s4.51-4.49,7.5-3.34s4.49,4.51,3.34,7.5
				c-0.59,1.54-1.81,2.75-3.34,3.34c0.04,0.24,0.14,0.46,0.29,0.65c0.43,0.53,1.69,1.43,5.39,1.43h1.08v6.26h-8v5.3l4.53,2.91
				c0.47-3.17,3.42-5.37,6.59-4.9c3.17,0.47,5.37,3.42,4.9,6.59c-0.31,2.09-1.73,3.86-3.72,4.6c0.04,0.23,0.14,0.45,0.29,0.64
				c0.43,0.53,1.69,1.43,5.39,1.43h1.08V55.89z M300.61,53.78h13.77v-2c-3-0.15-5-0.92-6.06-2.3c-0.28-0.38-0.49-0.8-0.61-1.26
				c-1.27,2.79-5.18,3.48-7.1,3.65V53.78z M277.92,53.78h13.78v-2c-3-0.15-5-0.92-6.07-2.3c-0.29-0.38-0.49-0.81-0.61-1.27
				c-1.27,2.8-5.18,3.49-7.1,3.66L277.92,53.78z M307.75,38.52c-2.02,0-3.65,1.63-3.65,3.65c0,2.02,1.63,3.65,3.65,3.65
				s3.65-1.63,3.65-3.65v0c0.02-2.02-1.6-3.68-3.62-3.7c-0.01,0-0.02,0-0.03,0L307.75,38.52z M285.06,38.52
				c-2.02,0-3.65,1.63-3.65,3.65c0,2.02,1.63,3.65,3.65,3.65s3.65-1.63,3.65-3.65v0c0.03-2.02-1.58-3.67-3.6-3.7
				c-0.02,0-0.03,0-0.05,0L285.06,38.52z M289.57,30.98h13.77v-2c-3-0.15-5-0.92-6.06-2.3c-0.28-0.38-0.49-0.81-0.61-1.27
				c-1.27,2.79-5.18,3.49-7.1,3.66V30.98z M296.71,15.71c-2.02,0-3.65,1.63-3.65,3.65c0,2.02,1.63,3.65,3.65,3.65
				c2.02,0,3.65-1.63,3.65-3.65c0,0,0,0,0,0c0.02-2.02-1.6-3.68-3.62-3.7c-0.01,0-0.02,0-0.03,0V15.71z"/>
		</g>
	</g>
</g>
</svg>
