<?xml version="1.0" encoding="utf-8"?>
<!-- Generator: Adobe Illustrator 24.3.0, SVG Export Plug-In . SVG Version: 6.00 Build 0)  -->
<svg version="1.1" id="Layer_1" xmlns="http://www.w3.org/2000/svg" xmlns:xlink="http://www.w3.org/1999/xlink" x="0px" y="0px"
	 viewBox="0 0 136.45 131.96" style="enable-background:new 0 0 136.45 131.96;" xml:space="preserve">
<style type="text/css">
	.st0{fill:#FAB200;}
	.st1{fill:#FFFFFF;}
</style>
<g>
	<path class="st0" d="M136,16.47c0,0-10.9-12.92-12-13.88c-1.93-1.7-4.43-2.62-7-2.59H9.87C4.42,0,0,3.93,0,8.78v92.57l8.85,11.6
		c0.6,0.73,0.6,1.79,0,2.52c0,0-4.94,5.86-8.49,10c1.13,3.74,4.95,6.49,9.51,6.49h107.17c5.45,0,9.87-3.93,9.87-8.78V30.92
		L136,18.99C136.6,18.26,136.6,17.21,136,16.47z"/>
	<path class="st1" d="M17.83,70.99h-2.27v7.47h-1.87v-7.47h-2.41V69.5h6.75L17.83,70.99z"/>
	<path class="st1" d="M21.88,74.95h-1v3.51h-1.9v-9h2.79c2.4,0,3.61,0.87,3.61,2.68c0.06,1.11-0.64,2.11-1.69,2.46l2.32,3.86h-2.22
		L21.88,74.95z M20.88,73.6h1c1,0,1.54-0.41,1.54-1.42s-0.53-1.32-1.68-1.32h-0.85L20.88,73.6z"/>
	<path class="st1" d="M31.18,76.45h-2.8l-0.51,2h-2l2.76-9h2.31l2.75,9h-2L31.18,76.45z M30.82,75.04l-1.05-4.13l-1,4.13H30.82z"/>
	<path class="st1" d="M41.29,78.46h-2.44L36,71.35c0.17,1.2,0.26,2.41,0.26,3.62v3.49h-1.72v-9h2.39l2.9,7.12
		c-0.16-1.06-0.25-2.12-0.26-3.19V69.5h1.72V78.46z"/>
	<path class="st1" d="M48.93,70.42l-0.91,1c-0.55-0.49-1.26-0.75-2-0.75c-0.78,0-1.31,0.33-1.31,1s0.34,0.88,1.8,1.33
		c1.62,0.52,2.66,1.19,2.66,2.85s-1.3,2.79-3.47,2.79c-1.23,0.04-2.42-0.41-3.32-1.25l1-1.08c0.62,0.58,1.44,0.9,2.29,0.9
		c0.92,0,1.54-0.44,1.54-1.23s-0.35-1-1.71-1.44c-1.94-0.61-2.72-1.39-2.72-2.74c0-1.53,1.32-2.53,3.13-2.53
		C47.03,69.22,48.12,69.64,48.93,70.42z"/>
	<path class="st1" d="M50.49,69.5h5.2l-0.21,1.38H52.4v2.54h2.69v1.39H52.4v3.65h-1.91V69.5z"/>
	<path class="st1" d="M64.32,73.98c0,2.93-1.52,4.68-4,4.68s-4-1.69-4-4.68s1.52-4.69,4-4.69S64.32,70.97,64.32,73.98z M58.32,73.98
		c0,2.34,0.74,3.26,2,3.26s2-0.92,2-3.26s-0.69-3.26-2-3.26s-1.96,0.91-1.96,3.26H58.32z"/>
	<path class="st1" d="M68.63,74.95h-0.94v3.51h-1.94v-9h2.8c2.39,0,3.61,0.87,3.61,2.68c0.03,1.11-0.7,2.11-1.77,2.42l2.3,3.9h-2.15
		L68.63,74.95z M67.63,73.6h1c1,0,1.54-0.41,1.54-1.42s-0.53-1.32-1.68-1.32h-0.8L67.63,73.6z"/>
	<path class="st1" d="M82.38,78.46h-1.86l-0.19-3.64c-0.08-1.28-0.12-2.63-0.08-3.65l-1.56,6.33h-1.8l-1.61-6.34
		c0.06,1.23,0.06,2.47,0,3.7l-0.2,3.6h-1.81l0.7-9h2.42l1.48,6.17l1.38-6.17h2.44L82.38,78.46z"/>
	<path class="st1" d="M88.08,76.45h-2.81l-0.51,2h-2l2.76-9h2.32l2.74,9h-2L88.08,76.45z M87.69,75.04l-1-4.13l-1,4.13H87.69z"/>
	<path class="st1" d="M98.19,78.46h-2.45l-2.85-7.11c0.17,1.2,0.26,2.41,0.26,3.62v3.49h-1.72v-9h2.39l2.9,7.12
		c-0.16-1.06-0.24-2.12-0.25-3.19V69.5h1.72L98.19,78.46z"/>
	<path class="st1" d="M107.04,73.94c0,3.61-2.2,4.52-4.4,4.52h-2.56v-9h2.34C104.79,69.5,107.04,70.24,107.04,73.94z M101.98,70.94
		v6.16h0.77c1.31,0,2.31-0.61,2.31-3.12s-1.05-3-2.34-3L101.98,70.94z"/>
	<path class="st1" d="M115.99,73.98c0,2.93-1.51,4.68-4,4.68s-4-1.69-4-4.68s1.53-4.69,4-4.69S115.99,70.97,115.99,73.98z
		 M109.99,73.98c0,2.34,0.74,3.26,2,3.26s2-0.92,2-3.26s-0.69-3.26-2-3.26s-1.95,0.91-1.95,3.26H109.99z"/>
	<path class="st1" d="M18.85,95.74H16.4l-2.84-7.11c0.17,1.2,0.26,2.42,0.26,3.63v3.48h-1.73v-9h2.4l2.9,7.12
		c-0.16-1.06-0.25-2.12-0.26-3.19v-3.93h1.72L18.85,95.74z"/>
	<path class="st1" d="M27.43,92.74c0,1.79-1.15,3.15-3.42,3.15s-3.4-1.29-3.4-3.15v-6h1.9v5.92c0,1.2,0.47,1.79,1.5,1.79
		s1.52-0.59,1.52-1.79v-5.92h1.9V92.74z"/>
	<path class="st1" d="M34.34,88.14h-3.23v2.32h2.82v1.38h-2.82v2.47h3.47v1.43H29.2v-9h5.35L34.34,88.14z"/>
	<path class="st1" d="M41.78,87.67l-0.9,1c-0.55-0.49-1.26-0.75-2-0.75c-0.78,0-1.31,0.33-1.31,1s0.34,0.88,1.8,1.33
		c1.62,0.52,2.65,1.19,2.65,2.85s-1.29,2.79-3.47,2.79c-1.23,0.04-2.42-0.41-3.31-1.25l1-1.08c0.62,0.58,1.44,0.9,2.29,0.9
		c0.92,0,1.54-0.44,1.54-1.23s-0.35-1-1.71-1.44c-1.94-0.61-2.71-1.38-2.71-2.74c0-1.53,1.32-2.53,3.13-2.53
		C39.9,86.48,40.98,86.89,41.78,87.67z"/>
	<path class="st1" d="M49.08,88.24h-2.26v7.5h-1.9v-7.5h-2.39v-1.5h6.76L49.08,88.24z"/>
	<path class="st1" d="M53.13,92.2h-1v3.54h-1.9v-9h2.8c2.39,0,3.61,0.87,3.61,2.68c0.02,1.12-0.71,2.11-1.78,2.42l2.35,3.9h-2.16
		L53.13,92.2z M52.13,90.85h1c1,0,1.54-0.41,1.54-1.42s-0.53-1.32-1.68-1.32h-0.86V90.85z"/>
	<path class="st1" d="M62.44,93.74h-2.81l-0.5,2h-2l2.75-9h2.32l2.74,9h-2L62.44,93.74z M62.08,92.33l-1-4.13l-1,4.13H62.08z"/>
	<path class="st1" d="M75.16,87.51l-0.94,1.1c-0.45-0.4-1.03-0.62-1.63-0.63c-1.21,0-2.09,0.91-2.09,3.24s0.86,3.19,2.1,3.19
		c0.66-0.01,1.29-0.25,1.79-0.67l0.88,1.1c-0.73,0.73-1.72,1.13-2.75,1.12c-2.39,0-4-1.64-4-4.69s1.73-4.68,4-4.68
		C73.48,86.56,74.43,86.88,75.16,87.51z"/>
	<path class="st1" d="M78.24,95.74h-1.9v-9h1.9V95.74z"/>
	<path class="st1" d="M86.84,92.74c0,1.79-1.16,3.15-3.42,3.15s-3.41-1.29-3.41-3.15v-6h1.91v5.92c0,1.2,0.46,1.79,1.5,1.79
		s1.51-0.59,1.51-1.79v-5.92h1.91L86.84,92.74z"/>
	<path class="st1" d="M95.57,91.19c0,3.61-2.2,4.52-4.4,4.52h-2.56v-9h2.34C93.32,86.74,95.57,87.49,95.57,91.19z M90.51,88.19v6.16
		h0.78c1.31,0,2.3-0.61,2.3-3.12s-1.05-3-2.34-3L90.51,88.19z"/>
	<path class="st1" d="M101.25,93.74h-2.81l-0.5,2h-2l2.76-9h2.31l2.75,9h-2L101.25,93.74z M100.89,92.33l-1-4.13l-1,4.13H100.89z"/>
	<path class="st1" d="M111.57,91.19c0,3.61-2.2,4.52-4.4,4.52h-2.56v-9h2.34C109.32,86.74,111.57,87.49,111.57,91.19z M106.51,88.19
		v6.16h0.77c1.31,0,2.31-0.61,2.31-3.12s-1.05-3-2.34-3L106.51,88.19z"/>
	<path class="st1" d="M53.18,55.85H35.84v-9.83c0-1.83,0-4.59-1.35-6c-0.71-0.65-1.66-0.98-2.62-0.91
		c-0.83-0.02-1.62,0.32-2.18,0.93c-1.58,1.63-1.83,5.13-1.79,6.34v9.47H10.84v-2.11h3.41v-13h-0.06l-4.88-4.88l23-22.64l6.85,6.85
		v-4.62h9.47v14.09l6.17,6.2l-5,5v13h3.41L53.18,55.85z M38,53.74h9.61V39.09L31.69,23.21L16.41,38.53v15.21h9.34v-7.32
		c0-0.18-0.15-5.25,2.38-7.87c0.97-1.02,2.33-1.59,3.74-1.56c1.54-0.07,3.04,0.49,4.15,1.55c2,2,2,5.31,2,7.49L38,53.74z
		 M31.69,20.16l17.85,17.81l2.21-2.23l-19.5-19.5L12.37,35.88l1.82,1.86L31.69,20.16z M41.23,22.24l5.15,5.15v-9.78h-5.11
		L41.23,22.24z"/>
</g>
</svg>
