<?xml version="1.0" encoding="utf-8"?>
<!-- Generator: Adobe Illustrator 24.3.0, SVG Export Plug-In . SVG Version: 6.00 Build 0)  -->
<svg version="1.1" id="Layer_1" xmlns="http://www.w3.org/2000/svg" xmlns:xlink="http://www.w3.org/1999/xlink" x="0px" y="0px"
	 viewBox="0 0 409.87 409.87" style="enable-background:new 0 0 409.87 409.87;" xml:space="preserve">
<style type="text/css">
	.st0{fill:#00A1DE;}
	.st1{fill:#FFFFFF;}
</style>
<g>
	<path class="st0" d="M74.53,0h260.81c41.16,0,74.53,33.37,74.53,74.53v260.81c0,41.16-33.37,74.53-74.53,74.53H74.53
		C33.37,409.87,0,376.5,0,335.34V74.53C0,33.37,33.37,0,74.53,0z"/>
	<path class="st1" d="M93.82,275.1c24.71,2.21,46.74-3.75,66.72-18.71c-20.92-2-34.83-12.57-42.53-32.15
		c6.54,1.18,13.26,0.94,19.7-0.7c-10.1-2.5-19.09-8.27-25.56-16.43c-6.65-8.35-9.86-17.93-10-29c6.13,3.26,12.91,5.13,19.84,5.5
		c-20.08-17-24.56-37.12-13.44-61.22c24.93,29.39,56.12,45.49,94,48.06c-0.12-4.7-0.54-9.25-0.29-13.75
		c0.57-11.38,5.6-22.07,14-29.77c17.54-16.79,45.17-16.87,62.81-0.19c1.21,1.4,3.14,1.94,4.9,1.37c9.21-2.22,18.05-5.77,26.24-10.53
		c-3.51,10.81-9.93,18.69-18.73,25.13c2.68-0.49,5.38-0.88,8-1.5c2.82-0.66,5.6-1.48,8.36-2.35s5.27-1.86,8.18-2.49
		c-1.67,2.23-3.27,4.52-5,6.67c-4.66,5.76-10.04,10.91-16,15.31c-0.96,0.64-1.49,1.76-1.38,2.91c0.41,39.35-13.43,72.9-41.61,100.26
		c-17.18,16.68-37.91,26.91-61.43,31.51c-12.69,2.51-25.67,3.22-38.55,2.1c-20.45-1.73-40.18-8.34-57.54-19.27
		C94.26,275.62,94.03,275.37,93.82,275.1z"/>
</g>
</svg>
