<svg id="Layer_1" data-name="Layer 1" xmlns="http://www.w3.org/2000/svg" viewBox="0 0 443.64 316.45"><defs><style>.cls-1{fill:#00a34b;}</style></defs><path class="cls-1" d="M221.8,316.45l-33.7-1.13c-29.63-1-59.25-2-88.87-3.24a364.24,364.24,0,0,1-38.9-4.26c-29-4.44-48.42-23.18-53.32-51.45A423.82,423.82,0,0,1,.68,199.18c-1.09-29-.67-58.41-.12-83.34C1.07,93.16,3.37,73.4,7.61,55.45,13.93,28.64,35.05,9.84,62.72,6.38,107.67.76,151.85,0,189.15,0c41.33,0,85,.71,141.49,2.28a421.14,421.14,0,0,1,51.91,5.08c29.34,4.45,48.48,23.47,53.91,53.55,6.07,33.68,8.21,70.76,6.73,116.68-.56,17.23-1.88,36.17-4.15,59.6-1.18,12.22-3.11,21.81-6.09,30.17-8.39,23.62-26.79,37.92-53.18,41.34-39,5.07-78.69,5.75-117,6.4l-13.27.24c-6.27.1-12.53.08-18.8.05l-.62.25ZM189.15,16.23c-36.8,0-80.35.74-124.41,6.25C43.65,25.12,28.2,38.84,23.41,59.17c-4,16.84-6.14,35.5-6.62,57-.55,24.69-1,53.78.1,82.38a408.06,408.06,0,0,0,6.11,55c3.69,21.27,17.82,34.83,39.79,38.19a345.5,345.5,0,0,0,37.14,4.09c29.56,1.28,59.13,2.25,88.71,3.23l25.5.86v-.28l7.95-.55,8.63,0c6.15,0,12.29.07,18.41-.05l13.3-.23c37.91-.66,77.12-1.33,115.23-6.27,20.52-2.66,33.6-12.7,40-30.68,2.52-7.08,4.18-15.44,5.23-26.31,2.24-23.07,3.53-41.68,4.09-58.56,1.43-44.74-.63-80.74-6.5-113.26-4.21-23.38-17.79-37-40.36-40.39a405,405,0,0,0-49.93-4.91C273.82,16.93,230.32,16.23,189.15,16.23ZM170.9,235.5V79.62l135.32,77.93Zm16.23-127.8v99.72l86.57-49.87Z"/></svg>