<?xml version="1.0" encoding="utf-8"?>
<!-- Generator: Adobe Illustrator 24.3.0, SVG Export Plug-In . SVG Version: 6.00 Build 0)  -->
<svg version="1.1" id="Layer_1" xmlns="http://www.w3.org/2000/svg" xmlns:xlink="http://www.w3.org/1999/xlink" x="0px" y="0px"
	 viewBox="0 0 443.6 316.5" style="enable-background:new 0 0 443.6 316.5;" xml:space="preserve">
<style type="text/css">
	.st0{fill:#00A1DE;}
</style>
<path class="st0" d="M221.8,316.5l-33.7-1.1c-29.6-1-59.2-2-88.9-3.2c-13-0.7-26-2.1-38.9-4.3c-29-4.4-48.4-23.2-53.3-51.5
	c-3.4-18.9-5.5-38-6.3-57.2c-1.1-29-0.7-58.4-0.1-83.3c0.5-22.7,2.8-42.4,7.1-60.4C13.9,28.6,35,9.8,62.7,6.4
	C107.7,0.8,151.9,0,189.1,0c41.3,0,85,0.7,141.5,2.3c17.4,0.6,34.7,2.3,51.9,5.1c29.3,4.4,48.5,23.5,53.9,53.5
	c6.1,33.7,8.2,70.8,6.7,116.7c-0.6,17.2-1.9,36.2-4.1,59.6c-1.2,12.2-3.1,21.8-6.1,30.2c-8.4,23.6-26.8,37.9-53.2,41.3
	c-39,5.1-78.7,5.8-117,6.4l-13.3,0.2c-6.3,0.1-12.5,0.1-18.8,0l-0.6,0.2L221.8,316.5z M189.1,16.2c-36.8,0-80.3,0.7-124.4,6.2
	c-21.1,2.6-36.5,16.4-41.3,36.7c-4,16.8-6.1,35.5-6.6,57c-0.5,24.7-1,53.8,0.1,82.4c0.8,18.5,2.8,36.8,6.1,55
	c3.7,21.3,17.8,34.8,39.8,38.2c12.3,2,24.7,3.4,37.1,4.1c29.6,1.3,59.1,2.2,88.7,3.2l25.5,0.9v-0.3l7.9-0.5h8.6
	c6.1,0,12.3,0.1,18.4,0l13.3-0.2c37.9-0.7,77.1-1.3,115.2-6.3c20.5-2.7,33.6-12.7,40-30.7c2.5-7.1,4.2-15.4,5.2-26.3
	c2.2-23.1,3.5-41.7,4.1-58.6c1.4-44.7-0.6-80.7-6.5-113.3c-4.2-23.4-17.8-37-40.4-40.4c-16.5-2.7-33.2-4.3-49.9-4.9
	C273.8,16.9,230.3,16.2,189.1,16.2z M170.9,235.5V79.6l135.3,77.9L170.9,235.5z M187.1,107.7v99.7l86.6-49.9L187.1,107.7z"/>
</svg>
