<?xml version="1.0" encoding="utf-8"?>
<!-- Generator: Adobe Illustrator 24.3.0, SVG Export Plug-In . SVG Version: 6.00 Build 0)  -->
<svg version="1.1" id="Layer_1" xmlns="http://www.w3.org/2000/svg" xmlns:xlink="http://www.w3.org/1999/xlink" x="0px" y="0px"
	 viewBox="0 0 409.87 409.08" style="enable-background:new 0 0 409.87 409.08;" xml:space="preserve">
<style type="text/css">
	.st0{fill:#00A1DE;}
	.st1{fill:#FFFFFF;}
</style>
<g>
	<path class="st0" d="M74.53,0h260.81c41.16,0,74.53,33.37,74.53,74.53v260.81c0,41.16-33.37,74.53-74.53,74.53H74.53
		C33.37,409.87,0,376.5,0,335.34V74.53C0,33.37,33.37,0,74.53,0z"/>
	<path class="st1" d="M205.11,287.7c-22.51-0.78-45-1.43-67.54-2.41c-7.04-0.39-14.05-1.15-21-2.3
		c-13.89-2.13-23.26-10.84-25.67-24.71c-1.84-10.22-2.98-20.55-3.43-30.93c-0.57-15.21-0.4-30.46-0.06-45.68
		c0.12-10.89,1.38-21.74,3.77-32.37c3.08-13.08,13.31-22,26.58-23.64c23-2.88,46.07-3.49,69.15-3.49c26,0,51.93,0.54,77.89,1.26
		c9.4,0.34,18.78,1.26,28.07,2.75c14.45,2.19,23.36,11.32,26,25.9c3.78,21,4.33,42.16,3.64,63.38c-0.35,10.88-1.22,21.74-2.27,32.57
		c-0.41,5.3-1.46,10.53-3.13,15.58c-4.24,11.93-13.25,18.24-25.68,19.85c-23.69,3.07-47.53,3.18-71.36,3.62c-5,0.09-10,0-15,0
		L205.11,287.7z M181.33,239.8l61.17-35.24l-61.17-35.22V239.8z"/>
</g>
</svg>
