<svg xmlns="http://www.w3.org/2000/svg" width="479" height="148" viewBox="0 0 479 148">
  <defs>
    <style>
      .cls-1 {
        fill: #fff;
        fill-rule: evenodd;
      }
    </style>
  </defs>
  <path id="_854_comedores_populares_conectados_gratuitamente_al_Gas_natur" data-name="854 comedores   populares conectados gratuitamente al Gas natur" class="cls-1" d="M19.511,19.736c3.662-1.923,5.3-4.423,5.3-7.308,0-5.385-4.866-8.317-10.936-8.317-6.118,0-10.936,3.317-10.936,8.606,0,3.077,1.349,5.673,4.818,7.644-3.806,1.683-6.118,4.231-6.118,8.173,0,5.192,4.529,9.375,12.092,9.375,7.708,0,12.333-4.231,12.333-9.519C26.063,24.591,23.944,21.8,19.511,19.736ZM13.923,8.774c2.794,0,4.24,1.635,4.24,3.99,0,2.163-.771,3.7-3.18,5.24l-0.963-.337c-2.891-1.154-4.432-2.356-4.432-4.856C9.587,10.168,11.273,8.774,13.923,8.774Zm0,24.135c-3.324,0-5.4-1.779-5.4-4.663a6.364,6.364,0,0,1,3.613-6.01l1.542,0.529c4,1.442,5.492,2.74,5.492,5.577C19.174,30.986,17.343,32.909,13.923,32.909ZM50,4.736H30.636V21.947h4.77a7.89,7.89,0,0,1,4.047-1.154c2.842,0,4.914,1.49,4.914,5.721,0,3.99-2.12,6.154-5.588,6.154a8.182,8.182,0,0,1-6.456-3.077L28.468,33.2a13.407,13.407,0,0,0,10.5,4.712c7.516,0,12.43-4.663,12.43-11.394,0-6.635-3.95-10.481-9.3-10.481a11.556,11.556,0,0,0-4.914,1.106V9.687h12Zm28.806,20H75V16.8H69.126L68.4,24.736H61.659L69.7,6.178,63.923,4.014l-9.346,21.3v4.615h13.73l0.048,7.212H75V29.928H78.81V24.736Zm26.877-13.846c-7.467,0-12.188,5.625-12.188,13.7,0,8.125,4.673,13.317,12.285,13.317a12.82,12.82,0,0,0,8.382-2.981l-2.987-4.279a8.637,8.637,0,0,1-5.058,1.779c-3.228,0-5.4-1.971-5.4-7.885s2.024-8.365,5.444-8.365A7.772,7.772,0,0,1,111.178,18l2.987-4.038A12.273,12.273,0,0,0,105.686,10.889Zm22.159,0c-7.708,0-12.285,5.385-12.285,13.51,0,8.462,4.625,13.51,12.237,13.51,7.66,0,12.237-5.433,12.237-13.51C140.034,15.937,135.457,10.889,127.845,10.889Zm0,5.1c3.324,0,5.059,2.548,5.059,8.414,0,5.817-1.735,8.413-5.107,8.413s-5.107-2.548-5.107-8.413C122.69,18.582,124.425,15.986,127.845,15.986Zm44.994-5.1c-3.276,0-5.637,1.49-7.66,4.135a6.112,6.112,0,0,0-6.071-4.135,8.816,8.816,0,0,0-7.419,3.942l-0.53-3.173h-5.925V37.139h6.841v-17.6c1.252-2.26,2.505-3.558,4.384-3.558,1.4,0,2.5.817,2.5,3.75v17.4h6.841v-17.6c1.3-2.26,2.553-3.558,4.432-3.558,1.349,0,2.5.817,2.5,3.75v17.4h6.842V18.582C179.584,13.774,176.838,10.889,172.839,10.889Zm34.826,12.933c0-8.125-4.288-12.933-11.514-12.933-7.467,0-11.611,5.961-11.611,13.654,0,7.981,4.288,13.365,12.478,13.365a15.077,15.077,0,0,0,9.684-3.462L203.859,30.6a10.35,10.35,0,0,1-6.215,2.211c-3.276,0-5.588-1.442-6.07-6.346h15.947C207.569,25.745,207.665,24.687,207.665,23.822Zm-6.793-1.635h-9.3c0.337-4.808,2.024-6.635,4.721-6.635,3.276,0,4.577,2.5,4.577,6.346v0.288ZM227.9,0.745V13.437a8.762,8.762,0,0,0-6.215-2.548c-6.311,0-10.358,5.625-10.358,13.51,0,8.125,3.276,13.51,9.684,13.51a8.6,8.6,0,0,0,7.322-3.894l0.386,3.125h6.022V1.514ZM223.03,32.812c-2.746,0-4.577-2.019-4.577-8.413,0-5.962,2.024-8.462,5.011-8.462a5.568,5.568,0,0,1,4.432,2.4V29.736C226.547,31.755,225.1,32.812,223.03,32.812Zm29.191-21.923c-7.708,0-12.285,5.385-12.285,13.51,0,8.462,4.625,13.51,12.237,13.51,7.66,0,12.237-5.433,12.237-13.51C264.41,15.937,259.833,10.889,252.221,10.889Zm0,5.1c3.325,0,5.059,2.548,5.059,8.414,0,5.817-1.734,8.413-5.107,8.413s-5.106-2.548-5.106-8.413C247.067,18.582,248.8,15.986,252.221,15.986Zm30.589-5.048c-2.987,0-5.444,2.115-6.648,5.673l-0.626-4.952H269.61V37.139h6.841V23.966c0.915-4.087,2.361-6.394,5.492-6.394a8.581,8.581,0,0,1,2.264.337l1.157-6.586A9.127,9.127,0,0,0,282.81,10.937Zm26.061,12.885c0-8.125-4.288-12.933-11.514-12.933-7.467,0-11.611,5.961-11.611,13.654,0,7.981,4.288,13.365,12.478,13.365a15.077,15.077,0,0,0,9.684-3.462L305.065,30.6a10.35,10.35,0,0,1-6.215,2.211c-3.276,0-5.588-1.442-6.07-6.346h15.947C308.775,25.745,308.871,24.687,308.871,23.822Zm-6.793-1.635h-9.3c0.337-4.808,2.024-6.635,4.721-6.635,3.276,0,4.577,2.5,4.577,6.346v0.288Zm20.231-11.3c-6.167,0-10.117,3.269-10.117,7.6,0,3.846,2.409,6.394,7.563,7.837,4.722,1.3,5.637,1.923,5.637,3.846,0,1.731-1.638,2.788-4.191,2.788a11.251,11.251,0,0,1-6.841-2.5l-3.373,3.75a15.157,15.157,0,0,0,10.407,3.7c6.07,0,11.032-2.981,11.032-8.269,0-4.519-2.891-6.635-8-8.029-4.481-1.3-5.348-1.971-5.348-3.461,0-1.394,1.253-2.308,3.517-2.308a11.813,11.813,0,0,1,6.359,2.019l2.6-3.894A14.56,14.56,0,0,0,322.309,10.889ZM9.615,56.233a5.5,5.5,0,0,0-4.538,2.452l-0.2-2.105H2.794V77.836l2.428-.288V70.279A4.959,4.959,0,0,0,9.3,72.1c3.873,0,5.925-3.317,5.925-7.961C15.222,59.319,13.575,56.233,9.615,56.233Zm-0.9,13.874a4.109,4.109,0,0,1-3.5-1.961V60.617a4.727,4.727,0,0,1,3.815-2.452c2.37,0,3.555,1.933,3.555,5.971C12.592,68.2,11.234,70.106,8.719,70.106Zm16.59-13.874c-4.249,0-6.706,3.2-6.706,7.961,0,4.817,2.428,7.9,6.677,7.9s6.706-3.2,6.706-7.961C31.985,59.29,29.586,56.233,25.309,56.233Zm0,1.961c2.63,0,4.075,1.932,4.075,5.942,0,4.067-1.474,6-4.1,6S21.2,68.2,21.2,64.193C21.2,60.127,22.707,58.194,25.309,58.194Zm17.948-1.961a5.5,5.5,0,0,0-4.538,2.452l-0.2-2.105H36.436V77.836l2.428-.288V70.279A4.959,4.959,0,0,0,42.939,72.1c3.873,0,5.925-3.317,5.925-7.961C48.864,59.319,47.217,56.233,43.257,56.233Zm-0.9,13.874a4.109,4.109,0,0,1-3.5-1.961V60.617a4.727,4.727,0,0,1,3.815-2.452c2.37,0,3.555,1.933,3.555,5.971C46.234,68.2,44.876,70.106,42.361,70.106ZM64.414,56.579H61.986V67.453c-0.954,1.586-2.225,2.711-3.96,2.711-1.705,0-2.486-.808-2.486-2.971V56.579H53.112V67.453c0,2.971,1.59,4.644,4.249,4.644a5.19,5.19,0,0,0,4.8-2.8l0.173,2.452h2.081V56.579ZM72.795,72.1a4.456,4.456,0,0,0,2.023-.49l-0.636-1.7a2.755,2.755,0,0,1-1.012.173c-0.723,0-1.012-.433-1.012-1.269V50.176l-2.428.288v18.4A2.888,2.888,0,0,0,72.795,72.1ZM88.229,68.26V61.223c0-3.144-1.647-4.99-5.26-4.99a14.228,14.228,0,0,0-5.145,1.038l0.607,1.788a12.8,12.8,0,0,1,4.1-.837c2.2,0,3.266.865,3.266,3.115v1.212H83.316c-4.162,0-6.59,1.731-6.59,4.961,0,2.711,1.792,4.586,4.8,4.586A5.129,5.129,0,0,0,86.09,69.76,2.988,2.988,0,0,0,88.923,72.1l0.578-1.7C88.692,70.106,88.229,69.674,88.229,68.26Zm-6.156,1.99A2.524,2.524,0,0,1,79.3,67.4c0-2.163,1.5-3.231,4.335-3.231H85.8V67.8A4.09,4.09,0,0,1,82.073,70.251Zm18.121-14.018c-1.907,0-3.323,1.183-4.133,3.519L95.83,56.579H93.749V71.75h2.428v-8.8c0.665-2.971,1.792-4.355,3.729-4.355a4.643,4.643,0,0,1,1.33.173l0.462-2.365A6.3,6.3,0,0,0,100.194,56.233Zm15.376,7.442c0-4.586-2.109-7.442-6.185-7.442-3.873,0-6.243,3.317-6.243,8.076,0,4.817,2.457,7.788,6.648,7.788a8.075,8.075,0,0,0,5.231-1.9l-1.069-1.442a6.476,6.476,0,0,1-3.989,1.356c-2.283,0-4.017-1.442-4.249-5.105h9.8C115.542,64.684,115.57,64.193,115.57,63.674Zm-2.4-.462h-7.457c0.2-3.548,1.619-5.048,3.729-5.048,2.515,0,3.728,1.759,3.728,4.817v0.231Zm10.752-6.98c-3.064,0-5.376,1.731-5.376,4.125,0,2.134,1.3,3.49,4.595,4.355,2.977,0.808,3.758,1.385,3.758,2.971,0,1.529-1.33,2.452-3.382,2.452a6.9,6.9,0,0,1-4.306-1.5l-1.3,1.471a8.218,8.218,0,0,0,5.665,1.99c3.064,0,5.867-1.471,5.867-4.557,0-2.654-1.763-3.865-5-4.7-2.515-.663-3.353-1.24-3.353-2.538s1.128-2.134,2.92-2.134a6.729,6.729,0,0,1,3.959,1.327l1.07-1.529A7.994,7.994,0,0,0,123.923,56.233Zm22.659,0c-4.075,0-6.59,3.2-6.59,8.047,0,4.9,2.544,7.817,6.59,7.817a6.914,6.914,0,0,0,4.567-1.673l-1.128-1.586a5.464,5.464,0,0,1-3.352,1.183c-2.486,0-4.076-1.731-4.076-5.769,0-4.067,1.59-6,4.076-6a5.184,5.184,0,0,1,3.295,1.125l1.185-1.529A6.677,6.677,0,0,0,146.582,56.233Zm13.469,0c-4.249,0-6.706,3.2-6.706,7.961,0,4.817,2.428,7.9,6.677,7.9s6.705-3.2,6.705-7.961C166.727,59.29,164.328,56.233,160.051,56.233Zm0,1.961c2.63,0,4.075,1.932,4.075,5.942,0,4.067-1.474,6-4.1,6s-4.076-1.933-4.076-5.942C155.946,60.127,157.449,58.194,160.051,58.194Zm18.179-1.961a5.752,5.752,0,0,0-4.769,2.654l-0.2-2.307h-2.081V71.75h2.428V60.934c1.069-1.673,2.283-2.8,4.075-2.8,1.561,0,2.486.75,2.486,3.086V71.75H182.6V60.876C182.6,57.992,181.034,56.233,178.23,56.233Zm21.07,7.442c0-4.586-2.11-7.442-6.185-7.442-3.873,0-6.243,3.317-6.243,8.076,0,4.817,2.456,7.788,6.647,7.788a8.078,8.078,0,0,0,5.232-1.9l-1.07-1.442a6.471,6.471,0,0,1-3.988,1.356c-2.284,0-4.018-1.442-4.249-5.105h9.8C199.271,64.684,199.3,64.193,199.3,63.674Zm-2.4-.462h-7.457c0.2-3.548,1.619-5.048,3.729-5.048,2.514,0,3.728,1.759,3.728,4.817v0.231Zm12.225-6.98c-4.075,0-6.59,3.2-6.59,8.047,0,4.9,2.544,7.817,6.59,7.817a6.91,6.91,0,0,0,4.567-1.673l-1.127-1.586a5.465,5.465,0,0,1-3.353,1.183c-2.486,0-4.075-1.731-4.075-5.769,0-4.067,1.589-6,4.075-6a5.18,5.18,0,0,1,3.3,1.125l1.185-1.529A6.674,6.674,0,0,0,209.126,56.233Zm14.856,13.21a4.05,4.05,0,0,1-2.11.635c-1.358,0-1.907-.75-1.907-2.336V58.454h3.41l0.26-1.875h-3.67v-3.75l-2.428.26v3.49h-2.63v1.875h2.63v9.4c0,2.769,1.5,4.24,4.017,4.24a5.821,5.821,0,0,0,3.353-1.01Zm13.671-1.183V61.223c0-3.144-1.647-4.99-5.26-4.99a14.227,14.227,0,0,0-5.145,1.038l0.607,1.788a12.8,12.8,0,0,1,4.1-.837c2.2,0,3.266.865,3.266,3.115v1.212H232.74c-4.163,0-6.59,1.731-6.59,4.961,0,2.711,1.792,4.586,4.8,4.586a5.128,5.128,0,0,0,4.566-2.336,2.988,2.988,0,0,0,2.833,2.336l0.578-1.7C238.116,70.106,237.653,69.674,237.653,68.26Zm-6.156,1.99a2.525,2.525,0,0,1-2.775-2.856c0-2.163,1.5-3.231,4.335-3.231h2.168V67.8A4.09,4.09,0,0,1,231.5,70.251ZM252.22,50.176v7.961a5.516,5.516,0,0,0-4.134-1.9c-3.728,0-5.954,3.346-5.954,7.99,0,4.759,2.052,7.874,5.723,7.874a5.123,5.123,0,0,0,4.422-2.481l0.26,2.134h2.11V50.464Zm-3.873,19.989c-2.284,0-3.613-1.933-3.613-5.971s1.5-6.028,3.873-6.028a4.352,4.352,0,0,1,3.613,2.048V67.77C251.208,69.3,250.11,70.164,248.347,70.164ZM265.8,56.233c-4.249,0-6.7,3.2-6.7,7.961,0,4.817,2.428,7.9,6.676,7.9s6.706-3.2,6.706-7.961C272.48,59.29,270.081,56.233,265.8,56.233Zm0,1.961c2.63,0,4.076,1.932,4.076,5.942,0,4.067-1.474,6-4.105,6S261.7,68.2,261.7,64.193C261.7,60.127,263.2,58.194,265.8,58.194Zm15.2-1.961c-3.064,0-5.376,1.731-5.376,4.125,0,2.134,1.3,3.49,4.6,4.355,2.977,0.808,3.758,1.385,3.758,2.971,0,1.529-1.33,2.452-3.382,2.452a6.9,6.9,0,0,1-4.307-1.5l-1.3,1.471a8.216,8.216,0,0,0,5.665,1.99c3.064,0,5.867-1.471,5.867-4.557,0-2.654-1.763-3.865-5-4.7-2.515-.663-3.353-1.24-3.353-2.538s1.127-2.134,2.919-2.134a6.73,6.73,0,0,1,3.96,1.327l1.07-1.529A8,8,0,0,0,281.006,56.233Zm28.5-1.269c-1.7.779-3.034,1.356-6.879,1.269-3.352,0-5.78,2.163-5.78,5.25a4.384,4.384,0,0,0,2.543,4.24,3.211,3.211,0,0,0-1.647,2.654c0,1.5,1.214,2.827,3.873,2.827h2.4c1.965,0,3.15.75,3.15,2.25,0,1.586-1.185,2.48-4.538,2.48-3.41,0-4.277-.808-4.277-2.625h-2.2c0,3.057,1.59,4.528,6.474,4.528,4.654,0,7-1.644,7-4.557,0-2.365-2.023-4.125-5.116-4.125h-2.428c-1.618,0-2.081-.577-2.081-1.3a1.8,1.8,0,0,1,.838-1.5,6.053,6.053,0,0,0,1.937.288c3.584,0,5.723-2.134,5.723-5.105a3.986,3.986,0,0,0-2.659-3.894,16.155,16.155,0,0,0,4.393-.462Zm-6.879,3.029c2.255,0,3.382,1.24,3.382,3.49s-1.156,3.548-3.324,3.548c-2.139,0-3.353-1.413-3.353-3.548C299.329,59.463,300.457,57.992,302.624,57.992Zm16.879-1.76c-1.907,0-3.323,1.183-4.133,3.519l-0.231-3.173h-2.081V71.75h2.428v-8.8c0.665-2.971,1.792-4.355,3.728-4.355a4.644,4.644,0,0,1,1.33.173l0.462-2.365A6.3,6.3,0,0,0,319.5,56.233Zm13.96,12.028V61.223c0-3.144-1.647-4.99-5.26-4.99a14.231,14.231,0,0,0-5.145,1.038l0.607,1.788a12.8,12.8,0,0,1,4.1-.837c2.2,0,3.267.865,3.267,3.115v1.212H328.55c-4.162,0-6.59,1.731-6.59,4.961,0,2.711,1.792,4.586,4.8,4.586a5.131,5.131,0,0,0,4.567-2.336,2.986,2.986,0,0,0,2.832,2.336l0.578-1.7C333.926,70.106,333.463,69.674,333.463,68.26Zm-6.156,1.99a2.525,2.525,0,0,1-2.775-2.856c0-2.163,1.5-3.231,4.336-3.231h2.168V67.8A4.091,4.091,0,0,1,327.307,70.251Zm18.324-.808a4.052,4.052,0,0,1-2.11.635c-1.358,0-1.908-.75-1.908-2.336V58.454h3.411l0.26-1.875h-3.671v-3.75l-2.428.26v3.49h-2.63v1.875h2.63v9.4c0,2.769,1.5,4.24,4.018,4.24a5.821,5.821,0,0,0,3.353-1.01Zm14.8-12.864H358V67.453c-0.954,1.586-2.225,2.711-3.96,2.711-1.7,0-2.485-.808-2.485-2.971V56.579h-2.428V67.453c0,2.971,1.589,4.644,4.249,4.644a5.189,5.189,0,0,0,4.8-2.8l0.174,2.452h2.081V56.579Zm6.676-7.153a1.674,1.674,0,1,0,1.734,1.673A1.63,1.63,0,0,0,367.105,49.426Zm1.243,7.153H365.92V71.75h2.428V56.579Zm12.139,12.864a4.055,4.055,0,0,1-2.11.635c-1.359,0-1.908-.75-1.908-2.336V58.454h3.411l0.26-1.875h-3.671v-3.75l-2.428.26v3.49h-2.63v1.875h2.63v9.4c0,2.769,1.5,4.24,4.018,4.24a5.821,5.821,0,0,0,3.353-1.01Zm13.67-1.183V61.223c0-3.144-1.647-4.99-5.26-4.99a14.231,14.231,0,0,0-5.145,1.038l0.607,1.788a12.8,12.8,0,0,1,4.1-.837c2.2,0,3.267.865,3.267,3.115v1.212h-2.486c-4.162,0-6.59,1.731-6.59,4.961,0,2.711,1.792,4.586,4.8,4.586a5.131,5.131,0,0,0,4.567-2.336,2.986,2.986,0,0,0,2.832,2.336l0.578-1.7C394.62,70.106,394.157,69.674,394.157,68.26ZM388,70.251a2.525,2.525,0,0,1-2.775-2.856c0-2.163,1.5-3.231,4.336-3.231h2.168V67.8A4.091,4.091,0,0,1,388,70.251Zm26.822-14.018a5.363,5.363,0,0,0-4.567,2.8,3.8,3.8,0,0,0-3.815-2.8,5.264,5.264,0,0,0-4.48,2.654l-0.2-2.307h-2.081V71.75h2.428V60.934c1.041-1.673,2.052-2.8,3.729-2.8,1.271,0,2.254.75,2.254,3.086V71.75h2.428V60.934c1.069-1.673,2.052-2.8,3.728-2.8,1.272,0,2.255.75,2.255,3.086V71.75h2.428V60.876C418.927,58.021,417.308,56.233,414.823,56.233Zm20.809,7.442c0-4.586-2.11-7.442-6.185-7.442-3.873,0-6.244,3.317-6.244,8.076,0,4.817,2.457,7.788,6.648,7.788a8.078,8.078,0,0,0,5.232-1.9l-1.07-1.442a6.471,6.471,0,0,1-3.988,1.356c-2.284,0-4.018-1.442-4.249-5.105h9.8C435.6,64.684,435.632,64.193,435.632,63.674Zm-2.4-.462h-7.457c0.2-3.548,1.618-5.048,3.728-5.048,2.515,0,3.729,1.759,3.729,4.817v0.231Zm13.728-6.98a5.753,5.753,0,0,0-4.769,2.654l-0.2-2.307h-2.081V71.75h2.428V60.934c1.069-1.673,2.283-2.8,4.075-2.8,1.561,0,2.486.75,2.486,3.086V71.75h2.428V60.876C451.326,57.992,449.765,56.233,446.961,56.233Zm16.33,13.21a4.052,4.052,0,0,1-2.11.635c-1.358,0-1.908-.75-1.908-2.336V58.454h3.411l0.26-1.875h-3.671v-3.75l-2.427.26v3.49h-2.631v1.875h2.631v9.4c0,2.769,1.5,4.24,4.017,4.24a5.821,5.821,0,0,0,3.353-1.01Zm14.654-5.769c0-4.586-2.11-7.442-6.186-7.442-3.873,0-6.243,3.317-6.243,8.076,0,4.817,2.457,7.788,6.648,7.788a8.078,8.078,0,0,0,5.232-1.9l-1.07-1.442a6.474,6.474,0,0,1-3.989,1.356c-2.283,0-4.017-1.442-4.248-5.105h9.8C477.916,64.684,477.945,64.193,477.945,63.674Zm-2.4-.462h-7.457c0.2-3.548,1.618-5.048,3.728-5.048,2.515,0,3.729,1.759,3.729,4.817v0.231ZM12.794,102.871V95.834c0-3.144-1.647-4.99-5.26-4.99a14.226,14.226,0,0,0-5.145,1.038L3,93.67a12.8,12.8,0,0,1,4.1-.837c2.2,0,3.266.865,3.266,3.115V97.16H7.881c-4.162,0-6.59,1.731-6.59,4.962,0,2.711,1.792,4.586,4.8,4.586a5.128,5.128,0,0,0,4.567-2.337,2.988,2.988,0,0,0,2.832,2.337l0.578-1.7C13.257,104.717,12.794,104.285,12.794,102.871Zm-6.156,1.991a2.525,2.525,0,0,1-2.775-2.856c0-2.163,1.5-3.23,4.336-3.23h2.168v3.634A4.091,4.091,0,0,1,6.638,104.862Zm14.422,1.846a4.45,4.45,0,0,0,2.023-.491l-0.636-1.7a2.761,2.761,0,0,1-1.012.173c-0.723,0-1.012-.433-1.012-1.27V84.787L18,85.075v18.4A2.888,2.888,0,0,0,21.06,106.708ZM41.841,86.171c-4.509,0-8.526,3.519-8.526,10.239,0,6.865,3.208,10.3,8.3,10.3a12.385,12.385,0,0,0,6.359-1.731V95.43H41.581l0.289,2.048h3.613v6.23a8.007,8.007,0,0,1-3.873.923c-3.584,0-5.636-2.423-5.636-8.221,0-5.942,2.948-8.163,5.867-8.163a6.333,6.333,0,0,1,4.393,1.615l1.474-1.558A8.371,8.371,0,0,0,41.841,86.171Zm20.694,16.7V95.834c0-3.144-1.647-4.99-5.26-4.99a14.226,14.226,0,0,0-5.145,1.038l0.607,1.788a12.8,12.8,0,0,1,4.1-.837c2.2,0,3.266.865,3.266,3.115V97.16H57.621c-4.162,0-6.59,1.731-6.59,4.962,0,2.711,1.792,4.586,4.8,4.586a5.128,5.128,0,0,0,4.567-2.337,2.988,2.988,0,0,0,2.832,2.337l0.578-1.7C63,104.717,62.535,104.285,62.535,102.871Zm-6.156,1.991a2.525,2.525,0,0,1-2.775-2.856c0-2.163,1.5-3.23,4.335-3.23h2.168v3.634A4.091,4.091,0,0,1,56.378,104.862ZM72.13,90.844c-3.064,0-5.376,1.731-5.376,4.125,0,2.134,1.3,3.49,4.6,4.355,2.977,0.807,3.757,1.384,3.757,2.971,0,1.528-1.33,2.451-3.382,2.451a6.9,6.9,0,0,1-4.307-1.5l-1.3,1.471a8.217,8.217,0,0,0,5.665,1.991c3.064,0,5.867-1.471,5.867-4.558,0-2.653-1.763-3.865-5-4.7-2.515-.663-3.353-1.24-3.353-2.538s1.127-2.134,2.919-2.134a6.732,6.732,0,0,1,3.96,1.327l1.07-1.529A7.994,7.994,0,0,0,72.13,90.844Zm24.162,0A5.752,5.752,0,0,0,91.523,93.5l-0.2-2.307H89.24v15.172h2.428V95.545c1.069-1.673,2.283-2.8,4.075-2.8,1.561,0,2.486.75,2.486,3.086v10.528h2.428V95.488C100.656,92.6,99.1,90.844,96.292,90.844Zm19.683,12.027V95.834c0-3.144-1.648-4.99-5.261-4.99a14.229,14.229,0,0,0-5.145,1.038l0.607,1.788a12.8,12.8,0,0,1,4.105-.837c2.2,0,3.266.865,3.266,3.115V97.16h-2.486c-4.162,0-6.59,1.731-6.59,4.962,0,2.711,1.792,4.586,4.8,4.586a5.128,5.128,0,0,0,4.567-2.337,2.987,2.987,0,0,0,2.832,2.337l0.578-1.7C116.437,104.717,115.975,104.285,115.975,102.871Zm-6.157,1.991a2.525,2.525,0,0,1-2.775-2.856c0-2.163,1.5-3.23,4.336-3.23h2.168v3.634A4.091,4.091,0,0,1,109.818,104.862Zm18.324-.808a4.049,4.049,0,0,1-2.11.635c-1.358,0-1.908-.75-1.908-2.337V93.065h3.411l0.26-1.875h-3.671V87.44l-2.427.26v3.49h-2.631v1.875H121.7v9.4c0,2.769,1.5,4.24,4.017,4.24a5.817,5.817,0,0,0,3.353-1.01Zm14.8-12.864h-2.428v10.874c-0.954,1.586-2.225,2.711-3.96,2.711-1.7,0-2.485-.807-2.485-2.971V91.19h-2.428v10.874c0,2.971,1.589,4.644,4.249,4.644a5.192,5.192,0,0,0,4.8-2.8l0.173,2.452h2.081V91.19Zm11.936-.346c-1.907,0-3.323,1.183-4.133,3.519l-0.231-3.173h-2.081v15.172h2.428v-8.8c0.665-2.971,1.792-4.355,3.728-4.355a4.647,4.647,0,0,1,1.33.173l0.462-2.365A6.3,6.3,0,0,0,154.876,90.844Zm13.961,12.027V95.834c0-3.144-1.648-4.99-5.261-4.99a14.229,14.229,0,0,0-5.145,1.038l0.607,1.788a12.8,12.8,0,0,1,4.1-.837c2.2,0,3.266.865,3.266,3.115V97.16h-2.486c-4.162,0-6.59,1.731-6.59,4.962,0,2.711,1.792,4.586,4.8,4.586a5.128,5.128,0,0,0,4.567-2.337,2.987,2.987,0,0,0,2.832,2.337l0.578-1.7C169.3,104.717,168.837,104.285,168.837,102.871Zm-6.157,1.991a2.525,2.525,0,0,1-2.775-2.856c0-2.163,1.5-3.23,4.336-3.23h2.168v3.634A4.091,4.091,0,0,1,162.68,104.862Zm14.422,1.846a4.454,4.454,0,0,0,2.024-.491l-0.636-1.7a2.762,2.762,0,0,1-1.012.173c-0.723,0-1.012-.433-1.012-1.27V84.787l-2.427.288v18.4A2.887,2.887,0,0,0,177.1,106.708Zm6.243-3.721a1.842,1.842,0,0,0-1.85,1.846,1.966,1.966,0,0,0,.78,1.557l-1.156,4.673h1.734l1.879-4.3a4.525,4.525,0,0,0,.492-1.932A1.831,1.831,0,0,0,183.345,102.987ZM204.01,90.844a5.233,5.233,0,0,0-4.365,2.279V84.787l-2.427.288v21.287h2.138l0.232-1.731a5.163,5.163,0,0,0,4.133,2.077c3.671,0,5.925-3.173,5.925-7.961C209.646,93.7,207.449,90.844,204.01,90.844Zm-0.867,13.931a4.3,4.3,0,0,1-3.5-2.105V95.2a4.492,4.492,0,0,1,3.7-2.423c2.255,0,3.671,1.615,3.671,5.971C207.016,102.958,205.484,104.775,203.143,104.775Zm22.312-6.49c0-4.586-2.11-7.442-6.185-7.442-3.873,0-6.243,3.317-6.243,8.076,0,4.817,2.457,7.788,6.648,7.788a8.073,8.073,0,0,0,5.231-1.9l-1.069-1.442a6.475,6.475,0,0,1-3.989,1.355c-2.283,0-4.017-1.442-4.249-5.1h9.8C225.427,99.295,225.455,98.8,225.455,98.285Zm-2.4-.462H215.6c0.2-3.548,1.619-5.048,3.729-5.048,2.514,0,3.728,1.76,3.728,4.817v0.231Zm13.729-6.98a5.752,5.752,0,0,0-4.769,2.654l-0.2-2.307h-2.081v15.172h2.428V95.545c1.07-1.673,2.284-2.8,4.076-2.8,1.56,0,2.485.75,2.485,3.086v10.528h2.428V95.488C241.149,92.6,239.588,90.844,236.785,90.844Zm21.07,7.442c0-4.586-2.11-7.442-6.186-7.442-3.873,0-6.243,3.317-6.243,8.076,0,4.817,2.457,7.788,6.648,7.788a8.073,8.073,0,0,0,5.231-1.9l-1.069-1.442a6.473,6.473,0,0,1-3.989,1.355c-2.283,0-4.017-1.442-4.248-5.1h9.8C257.826,99.295,257.855,98.8,257.855,98.285Zm-2.4-.462H248c0.2-3.548,1.618-5.048,3.728-5.048,2.515,0,3.729,1.76,3.729,4.817v0.231Zm11.792-13.037c-3.5,0-5.059,1.759-5.059,4.3V91.19h-2.427v1.875h2.427v13.3h2.428v-13.3h6.07v13.3h2.428V91.19h-8.5V89.084c0-1.558.636-2.336,2.717-2.336a7.207,7.207,0,0,1,3.3.779l0.867-1.7A8.894,8.894,0,0,0,267.248,84.787Zm16.907,6.057c-4.075,0-6.59,3.2-6.59,8.047,0,4.9,2.544,7.817,6.59,7.817a6.914,6.914,0,0,0,4.567-1.673l-1.127-1.587a5.464,5.464,0,0,1-3.353,1.183c-2.486,0-4.075-1.731-4.075-5.769,0-4.067,1.589-6,4.075-6a5.182,5.182,0,0,1,3.295,1.125l1.185-1.529A6.676,6.676,0,0,0,284.155,90.844Zm9.393-6.807a1.674,1.674,0,1,0,1.735,1.673A1.631,1.631,0,0,0,293.548,84.037Zm1.243,7.153h-2.428v15.172h2.428V91.19Zm15.492,11.681V95.834c0-3.144-1.648-4.99-5.261-4.99a14.22,14.22,0,0,0-5.144,1.038l0.607,1.788a12.8,12.8,0,0,1,4.1-.837c2.2,0,3.266.865,3.266,3.115V97.16h-2.486c-4.162,0-6.59,1.731-6.59,4.962,0,2.711,1.792,4.586,4.8,4.586a5.128,5.128,0,0,0,4.567-2.337,2.988,2.988,0,0,0,2.832,2.337l0.579-1.7C310.745,104.717,310.283,104.285,310.283,102.871Zm-6.157,1.991a2.524,2.524,0,0,1-2.774-2.856c0-2.163,1.5-3.23,4.335-3.23h2.168v3.634A4.091,4.091,0,0,1,304.126,104.862Zm18.729-14.018a5.752,5.752,0,0,0-4.769,2.654l-0.2-2.307H315.8v15.172h2.428V95.545c1.07-1.673,2.284-2.8,4.076-2.8,1.56,0,2.485.75,2.485,3.086v10.528h2.428V95.488C327.219,92.6,325.659,90.844,322.855,90.844Zm18.729-6.057v7.961a5.516,5.516,0,0,0-4.134-1.9c-3.728,0-5.954,3.346-5.954,7.99,0,4.76,2.052,7.875,5.723,7.875a5.123,5.123,0,0,0,4.422-2.481l0.26,2.135h2.11V85.075Zm-3.873,19.988c-2.284,0-3.613-1.932-3.613-5.971s1.5-6.028,3.873-6.028a4.351,4.351,0,0,1,3.613,2.048v7.557C340.572,103.91,339.474,104.775,337.711,104.775Zm17.456-13.931c-4.248,0-6.7,3.2-6.7,7.961,0,4.816,2.428,7.9,6.676,7.9s6.706-3.2,6.706-7.961C361.844,93.9,359.445,90.844,355.167,90.844Zm0,1.961c2.631,0,4.076,1.933,4.076,5.942,0,4.067-1.474,6-4.105,6s-4.075-1.932-4.075-5.941C351.063,94.738,352.566,92.805,355.167,92.805ZM12.794,137.483v-7.038c0-3.144-1.647-4.99-5.26-4.99a14.232,14.232,0,0,0-5.145,1.038L3,128.281a12.8,12.8,0,0,1,4.1-.836c2.2,0,3.266.865,3.266,3.115v1.212H7.881c-4.162,0-6.59,1.73-6.59,4.961,0,2.711,1.792,4.586,4.8,4.586a5.128,5.128,0,0,0,4.567-2.337,2.988,2.988,0,0,0,2.832,2.337l0.578-1.7C13.257,139.329,12.794,138.9,12.794,137.483Zm-6.156,1.99a2.525,2.525,0,0,1-2.775-2.856c0-2.163,1.5-3.23,4.336-3.23h2.168v3.634A4.091,4.091,0,0,1,6.638,139.473Zm34.567-14.018a5.364,5.364,0,0,0-4.567,2.8,3.8,3.8,0,0,0-3.815-2.8,5.266,5.266,0,0,0-4.48,2.653l-0.2-2.307H26.06v15.172h2.428V130.156c1.04-1.673,2.052-2.8,3.729-2.8,1.272,0,2.255.75,2.255,3.087v10.528H36.9V130.156c1.069-1.673,2.052-2.8,3.728-2.8,1.272,0,2.255.75,2.255,3.087v10.528h2.428V130.1C45.309,127.243,43.691,125.455,41.205,125.455Zm17.4-5.394-1.1-2.077-5.665,3.231,0.752,1.3Zm2.023,17.422v-7.038c0-3.144-1.648-4.99-5.26-4.99a14.232,14.232,0,0,0-5.145,1.038l0.607,1.788a12.8,12.8,0,0,1,4.1-.836c2.2,0,3.266.865,3.266,3.115v1.212H55.713c-4.162,0-6.59,1.73-6.59,4.961,0,2.711,1.792,4.586,4.8,4.586a5.193,5.193,0,0,0,4.567-2.337,2.957,2.957,0,0,0,2.832,2.337l0.578-1.7C61.089,139.329,60.627,138.9,60.627,137.483Zm-6.157,1.99a2.525,2.525,0,0,1-2.775-2.856c0-2.163,1.5-3.23,4.336-3.23H58.2v3.6A4.044,4.044,0,0,1,54.471,139.473Zm15.751-14.018c-3.064,0-5.376,1.73-5.376,4.124,0,2.135,1.3,3.49,4.6,4.356,2.977,0.807,3.758,1.384,3.758,2.971,0,1.528-1.33,2.451-3.382,2.451a6.9,6.9,0,0,1-4.307-1.5l-1.3,1.472a8.222,8.222,0,0,0,5.665,1.99c3.064,0,5.867-1.471,5.867-4.558,0-2.653-1.763-3.865-5-4.7-2.515-.663-3.353-1.24-3.353-2.538s1.127-2.135,2.919-2.135a6.733,6.733,0,0,1,3.96,1.327l1.069-1.529A7.993,7.993,0,0,0,70.222,125.455ZM96.379,119.4v7.96a5.515,5.515,0,0,0-4.133-1.9c-3.728,0-5.954,3.346-5.954,7.989,0,4.76,2.052,7.875,5.723,7.875a5.125,5.125,0,0,0,4.422-2.481l0.26,2.135h2.11V119.686Zm-3.873,19.988c-2.283,0-3.613-1.932-3.613-5.97s1.5-6.029,3.873-6.029a4.351,4.351,0,0,1,3.613,2.048v7.557C95.367,138.521,94.269,139.386,92.506,139.386Zm23.18-6.49c0-4.586-2.11-7.441-6.185-7.441-3.873,0-6.243,3.317-6.243,8.076,0,4.817,2.456,7.788,6.647,7.788a8.074,8.074,0,0,0,5.232-1.9l-1.069-1.442a6.476,6.476,0,0,1-3.989,1.356c-2.283,0-4.018-1.443-4.249-5.106h9.8C115.656,133.906,115.685,133.416,115.685,132.9Zm-2.4-.461h-7.457c0.2-3.548,1.619-5.048,3.729-5.048,2.514,0,3.728,1.76,3.728,4.817v0.231Zm23.555-10.73H125.713v1.99h8.671L127.3,140.511l2.226,0.721,7.312-17.71v-1.817Zm6.994-.288a7.056,7.056,0,0,0-5.78,2.855l1.589,1.269a5.079,5.079,0,0,1,4.076-2.134,3.086,3.086,0,0,1,3.266,3.346c0,3.2-1.677,5.076-8.556,12.287v1.933H149.7l0.289-2.048h-8.787c6.041-6.115,8.324-8.625,8.324-12.288C149.529,123.666,147.333,121.417,143.835,121.417Zm33.267,4.038a5.366,5.366,0,0,0-4.567,2.8,3.8,3.8,0,0,0-3.815-2.8,5.266,5.266,0,0,0-4.48,2.653l-0.2-2.307h-2.081v15.172h2.427V130.156c1.041-1.673,2.053-2.8,3.729-2.8,1.272,0,2.254.75,2.254,3.087v10.528H172.8V130.156c1.07-1.673,2.052-2.8,3.729-2.8,1.272,0,2.254.75,2.254,3.087v10.528h2.428V130.1C181.206,127.243,179.588,125.455,177.1,125.455Zm10.606-6.807a1.674,1.674,0,1,0,1.735,1.673A1.631,1.631,0,0,0,187.708,118.648Zm1.243,7.153h-2.428v15.172h2.428V125.8Zm8.382,15.518a4.45,4.45,0,0,0,2.023-.491l-0.636-1.7a2.762,2.762,0,0,1-1.012.173c-0.722,0-1.011-.433-1.011-1.269V119.4l-2.428.288v18.4A2.888,2.888,0,0,0,197.333,141.319Zm18.873-15.864c-4.076,0-6.59,3.2-6.59,8.047,0,4.9,2.543,7.817,6.59,7.817a6.91,6.91,0,0,0,4.566-1.673l-1.127-1.587a5.464,5.464,0,0,1-3.353,1.183c-2.485,0-4.075-1.731-4.075-5.769,0-4.067,1.59-6,4.075-6a5.18,5.18,0,0,1,3.295,1.125l1.185-1.529A6.671,6.671,0,0,0,216.206,125.455Zm13.468,0c-4.248,0-6.705,3.2-6.705,7.961,0,4.816,2.428,7.9,6.676,7.9s6.706-3.2,6.706-7.961C236.351,128.512,233.952,125.455,229.674,125.455Zm0,1.961c2.631,0,4.076,1.933,4.076,5.942,0,4.067-1.474,6-4.1,6s-4.075-1.932-4.075-5.941C225.57,129.349,227.073,127.416,229.674,127.416Zm26.273-1.961a5.364,5.364,0,0,0-4.567,2.8,3.8,3.8,0,0,0-3.815-2.8,5.266,5.266,0,0,0-4.48,2.653l-0.2-2.307H240.8v15.172h2.428V130.156c1.041-1.673,2.052-2.8,3.729-2.8,1.272,0,2.254.75,2.254,3.087v10.528h2.428V130.156c1.07-1.673,2.052-2.8,3.729-2.8,1.272,0,2.254.75,2.254,3.087v10.528h2.428V130.1C260.051,127.243,258.433,125.455,255.947,125.455Zm20.809,7.441c0-4.586-2.11-7.441-6.185-7.441-3.873,0-6.243,3.317-6.243,8.076,0,4.817,2.457,7.788,6.648,7.788a8.073,8.073,0,0,0,5.231-1.9l-1.069-1.442a6.476,6.476,0,0,1-3.989,1.356c-2.283,0-4.018-1.443-4.249-5.106h9.8C276.727,133.906,276.756,133.416,276.756,132.9Zm-2.4-.461H266.9c0.2-3.548,1.619-5.048,3.729-5.048,2.514,0,3.728,1.76,3.728,4.817v0.231Zm13.729-6.98a5.751,5.751,0,0,0-4.769,2.653l-0.2-2.307h-2.081v15.172h2.428V130.156c1.069-1.673,2.283-2.8,4.075-2.8,1.561,0,2.486.75,2.486,3.087v10.528h2.428V130.1C292.45,127.214,290.889,125.455,288.086,125.455Zm13.757,0c-3.064,0-5.376,1.73-5.376,4.124,0,2.135,1.3,3.49,4.6,4.356,2.977,0.807,3.757,1.384,3.757,2.971,0,1.528-1.33,2.451-3.382,2.451a6.9,6.9,0,0,1-4.306-1.5l-1.3,1.472a8.223,8.223,0,0,0,5.665,1.99c3.064,0,5.867-1.471,5.867-4.558,0-2.653-1.763-3.865-5-4.7-2.514-.663-3.353-1.24-3.353-2.538s1.128-2.135,2.92-2.135a6.73,6.73,0,0,1,3.959,1.327l1.07-1.529A7.993,7.993,0,0,0,301.843,125.455Zm19.365,12.028v-7.038c0-3.144-1.648-4.99-5.261-4.99a14.235,14.235,0,0,0-5.145,1.038l0.607,1.788a12.806,12.806,0,0,1,4.105-.836c2.2,0,3.266.865,3.266,3.115v1.212h-2.486c-4.162,0-6.59,1.73-6.59,4.961,0,2.711,1.792,4.586,4.8,4.586a5.128,5.128,0,0,0,4.567-2.337,2.987,2.987,0,0,0,2.832,2.337l0.578-1.7C321.67,139.329,321.208,138.9,321.208,137.483Zm-6.157,1.99a2.525,2.525,0,0,1-2.775-2.856c0-2.163,1.5-3.23,4.336-3.23h2.168v3.634A4.091,4.091,0,0,1,315.051,139.473Zm14.422,1.846a4.454,4.454,0,0,0,2.024-.491l-0.636-1.7a2.762,2.762,0,0,1-1.012.173c-0.722,0-1.011-.433-1.011-1.269V119.4l-2.428.288v18.4A2.888,2.888,0,0,0,329.473,141.319ZM346.3,132.9c0-4.586-2.11-7.441-6.185-7.441-3.873,0-6.243,3.317-6.243,8.076,0,4.817,2.457,7.788,6.648,7.788a8.073,8.073,0,0,0,5.231-1.9l-1.069-1.442a6.476,6.476,0,0,1-3.989,1.356c-2.283,0-4.018-1.443-4.249-5.106h9.8C346.266,133.906,346.3,133.416,346.3,132.9Zm-2.4-.461h-7.457c0.2-3.548,1.619-5.048,3.729-5.048,2.514,0,3.728,1.76,3.728,4.817v0.231Zm10.752-6.98c-3.064,0-5.377,1.73-5.377,4.124,0,2.135,1.3,3.49,4.6,4.356,2.977,0.807,3.758,1.384,3.758,2.971,0,1.528-1.33,2.451-3.382,2.451a6.9,6.9,0,0,1-4.307-1.5l-1.3,1.472a8.219,8.219,0,0,0,5.665,1.99c3.063,0,5.867-1.471,5.867-4.558,0-2.653-1.763-3.865-5-4.7-2.515-.663-3.353-1.24-3.353-2.538s1.127-2.135,2.919-2.135a6.735,6.735,0,0,1,3.96,1.327l1.069-1.529A7.993,7.993,0,0,0,354.648,125.455Z"/>
</svg>
