<svg xmlns="http://www.w3.org/2000/svg" width="458" height="83" viewBox="0 0 458 83">
  <defs>
    <style>
      .cls-1 {
        fill: #fff;
        fill-rule: evenodd;
      }
    </style>
  </defs>
  <path id="_6.62_t_de_residuos_reciclados_" data-name="6.62 t   de residuos reciclados  " class="cls-1" d="M16.572,13.465a10.08,10.08,0,0,0-7.8,3.653C9.144,10.341,11.9,6.423,16.2,6.423a9.637,9.637,0,0,1,5.04,1.429L24,3.247A14.009,14.009,0,0,0,16.041.97C6.7,0.97.974,8.912,0.974,20.93c0,10.271,3.873,17.259,13.21,17.259,7.587,0,12.574-5.612,12.574-13.024C26.758,17.595,22.3,13.465,16.572,13.465ZM14.237,32.683c-3.82,0-5.358-3.071-5.464-10.641a7.607,7.607,0,0,1,5.836-3.282c2.865,0,4.562,1.641,4.562,6.512C19.171,29.771,17.58,32.683,14.237,32.683Zm20.317-3.547a4.527,4.527,0,1,0,4.563,4.5A4.535,4.535,0,0,0,34.554,29.136ZM58.268,13.465a10.08,10.08,0,0,0-7.8,3.653C50.84,10.341,53.6,6.423,57.9,6.423a9.637,9.637,0,0,1,5.04,1.429l2.759-4.606A14.008,14.008,0,0,0,57.737.97C48.4,0.97,42.67,8.912,42.67,20.93c0,10.271,3.873,17.259,13.21,17.259,7.587,0,12.573-5.612,12.573-13.024C68.454,17.595,64,13.465,58.268,13.465ZM55.933,32.683c-3.82,0-5.358-3.071-5.464-10.641A7.607,7.607,0,0,1,56.3,18.759c2.865,0,4.563,1.641,4.563,6.512C60.867,29.771,59.276,32.683,55.933,32.683ZM81.768,0.97A14.377,14.377,0,0,0,69.832,6.953l4.509,3.6c2.175-2.594,4.032-3.759,6.738-3.759a4.578,4.578,0,0,1,4.881,4.924c0,4.765-2.918,8.047-15.067,20.171v5.453h22.76L94.5,31.519H79.487C90.575,21.142,93.705,16.853,93.705,11.083,93.705,5.523,89.408.97,81.768,0.97Zm45.516,30.283a6.611,6.611,0,0,1-3.184.953c-1.91,0-2.811-1.059-2.811-3.812V14.577h5.729l0.743-5.294h-6.472V2.241l-7.534.9V9.282h-4.191v5.294h4.191V28.554c0,6.247,2.971,9.583,8.807,9.636a13.315,13.315,0,0,0,7.321-2.171ZM9.569,49.3v7.306a5.061,5.061,0,0,0-3.793-1.747c-3.422,0-5.464,3.071-5.464,7.333,0,4.368,1.883,7.227,5.252,7.227a4.7,4.7,0,0,0,4.059-2.276L9.86,69.105H11.8V49.569ZM6.014,67.649c-2.1,0-3.316-1.774-3.316-5.48s1.379-5.532,3.555-5.532a3.992,3.992,0,0,1,3.316,1.88v6.935A4.03,4.03,0,0,1,6.014,67.649Zm21.273-5.956c0-4.209-1.936-6.83-5.677-6.83-3.555,0-5.73,3.044-5.73,7.412,0,4.421,2.255,7.147,6.1,7.147a7.413,7.413,0,0,0,4.8-1.747L25.8,66.352A5.941,5.941,0,0,1,22.141,67.6c-2.1,0-3.687-1.324-3.9-4.686h8.992C27.26,62.62,27.287,62.17,27.287,61.693Zm-2.2-.424H18.241c0.186-3.256,1.486-4.632,3.422-4.632,2.308,0,3.422,1.615,3.422,4.421V61.27Zm19.15-6.406c-1.751,0-3.051,1.085-3.793,3.23l-0.212-2.912H38.32V69.105h2.228V61.032c0.61-2.727,1.645-4,3.422-4a4.261,4.261,0,0,1,1.22.159l0.424-2.171A5.793,5.793,0,0,0,44.235,54.864Zm14.111,6.83c0-4.209-1.936-6.83-5.677-6.83-3.555,0-5.73,3.044-5.73,7.412,0,4.421,2.255,7.147,6.1,7.147a7.413,7.413,0,0,0,4.8-1.747l-0.981-1.324A5.941,5.941,0,0,1,53.2,67.6c-2.1,0-3.687-1.324-3.9-4.686h8.993C58.32,62.62,58.346,62.17,58.346,61.693Zm-2.2-.424H49.3c0.186-3.256,1.486-4.632,3.422-4.632,2.308,0,3.422,1.615,3.422,4.421V61.27Zm9.867-6.406c-2.812,0-4.934,1.588-4.934,3.785,0,1.959,1.194,3.2,4.218,4,2.732,0.741,3.448,1.271,3.448,2.727,0,1.4-1.22,2.25-3.1,2.25a6.331,6.331,0,0,1-3.952-1.377L60.493,67.6a7.542,7.542,0,0,0,5.2,1.826c2.812,0,5.385-1.35,5.385-4.183,0-2.435-1.618-3.547-4.589-4.315-2.308-.609-3.077-1.138-3.077-2.329s1.035-1.959,2.679-1.959a6.178,6.178,0,0,1,3.634,1.218l0.981-1.4A7.337,7.337,0,0,0,66.011,54.864Zm9.681-6.247a1.536,1.536,0,1,0,1.592,1.535A1.5,1.5,0,0,0,75.692,48.616Zm1.141,6.565H74.6V69.105h2.228V55.181ZM90.174,49.3v7.306a5.061,5.061,0,0,0-3.793-1.747c-3.422,0-5.464,3.071-5.464,7.333,0,4.368,1.883,7.227,5.252,7.227a4.7,4.7,0,0,0,4.058-2.276l0.239,1.959H92.4V49.569ZM86.62,67.649c-2.1,0-3.316-1.774-3.316-5.48s1.379-5.532,3.555-5.532a3.992,3.992,0,0,1,3.316,1.88v6.935A4.03,4.03,0,0,1,86.62,67.649Zm21.034-12.468h-2.229v9.98c-0.875,1.456-2.042,2.488-3.634,2.488-1.565,0-2.281-.741-2.281-2.727V55.181H97.282v9.98c0,2.727,1.459,4.262,3.9,4.262a4.764,4.764,0,0,0,4.4-2.568l0.159,2.25h1.91V55.181Zm10.238-.318c-3.9,0-6.155,2.938-6.155,7.306,0,4.421,2.229,7.253,6.128,7.253s6.154-2.938,6.154-7.306C124.019,57.67,121.817,54.864,117.892,54.864Zm0,1.8c2.413,0,3.74,1.773,3.74,5.453,0,3.733-1.353,5.506-3.767,5.506s-3.74-1.774-3.74-5.453C114.125,58.437,115.5,56.664,117.892,56.664Zm13.951-1.8c-2.812,0-4.934,1.588-4.934,3.785,0,1.959,1.194,3.2,4.218,4,2.732,0.741,3.448,1.271,3.448,2.727,0,1.4-1.22,2.25-3.1,2.25a6.333,6.333,0,0,1-3.953-1.377l-1.193,1.35a7.54,7.54,0,0,0,5.2,1.826c2.812,0,5.385-1.35,5.385-4.183,0-2.435-1.619-3.547-4.589-4.315-2.308-.609-3.078-1.138-3.078-2.329s1.035-1.959,2.68-1.959a6.178,6.178,0,0,1,3.634,1.218l0.981-1.4A7.336,7.336,0,0,0,131.843,54.864Zm21.617,0c-1.751,0-3.05,1.085-3.793,3.23l-0.212-2.912h-1.91V69.105h2.228V61.032c0.61-2.727,1.645-4,3.422-4a4.26,4.26,0,0,1,1.22.159l0.424-2.171A5.785,5.785,0,0,0,153.46,54.864Zm14.111,6.83c0-4.209-1.936-6.83-5.676-6.83-3.555,0-5.73,3.044-5.73,7.412,0,4.421,2.255,7.147,6.1,7.147a7.412,7.412,0,0,0,4.8-1.747l-0.981-1.324a5.944,5.944,0,0,1-3.661,1.244c-2.1,0-3.687-1.324-3.9-4.686h8.992C167.545,62.62,167.571,62.17,167.571,61.693Zm-2.2-.424h-6.843c0.185-3.256,1.485-4.632,3.422-4.632,2.307,0,3.421,1.615,3.421,4.421V61.27Zm11.22-6.406c-3.74,0-6.048,2.938-6.048,7.386,0,4.5,2.334,7.174,6.048,7.174a6.345,6.345,0,0,0,4.191-1.535l-1.035-1.456a5.014,5.014,0,0,1-3.077,1.085c-2.281,0-3.74-1.588-3.74-5.294,0-3.733,1.459-5.506,3.74-5.506a4.754,4.754,0,0,1,3.024,1.032l1.088-1.4A6.125,6.125,0,0,0,176.589,54.864Zm8.62-6.247a1.536,1.536,0,1,0,1.591,1.535A1.5,1.5,0,0,0,185.209,48.616Zm1.14,6.565h-2.228V69.105h2.228V55.181Zm10.133-.318c-3.741,0-6.048,2.938-6.048,7.386,0,4.5,2.334,7.174,6.048,7.174a6.345,6.345,0,0,0,4.191-1.535l-1.035-1.456a5.014,5.014,0,0,1-3.077,1.085c-2.281,0-3.74-1.588-3.74-5.294,0-3.733,1.459-5.506,3.74-5.506a4.754,4.754,0,0,1,3.024,1.032l1.088-1.4A6.127,6.127,0,0,0,196.482,54.864Zm10.185,14.559a4.089,4.089,0,0,0,1.856-.45l-0.583-1.562a2.528,2.528,0,0,1-.929.159c-0.663,0-.928-0.4-0.928-1.165V49.3l-2.228.265V66.458A2.65,2.65,0,0,0,206.667,69.423ZM220.831,65.9V59.443c0-2.885-1.512-4.58-4.827-4.58a13.057,13.057,0,0,0-4.722.953l0.557,1.641a11.747,11.747,0,0,1,3.767-.768c2.016,0,3,.794,3,2.859v1.112h-2.281c-3.82,0-6.048,1.588-6.048,4.553a4.03,4.03,0,0,0,4.4,4.209,4.707,4.707,0,0,0,4.191-2.144,2.743,2.743,0,0,0,2.6,2.144L222,67.861C221.256,67.6,220.831,67.2,220.831,65.9Zm-5.65,1.827a2.316,2.316,0,0,1-2.546-2.621c0-1.985,1.379-2.965,3.979-2.965H218.6v3.335A3.754,3.754,0,0,1,215.181,67.729ZM234.2,49.3v7.306a5.06,5.06,0,0,0-3.793-1.747c-3.422,0-5.465,3.071-5.465,7.333,0,4.368,1.884,7.227,5.253,7.227a4.7,4.7,0,0,0,4.058-2.276l0.239,1.959h1.936V49.569Zm-3.554,18.345c-2.1,0-3.316-1.774-3.316-5.48s1.379-5.532,3.554-5.532a3.993,3.993,0,0,1,3.316,1.88v6.935A4.029,4.029,0,0,1,230.645,67.649Zm16.02-12.786c-3.9,0-6.154,2.938-6.154,7.306,0,4.421,2.228,7.253,6.128,7.253s6.154-2.938,6.154-7.306C252.793,57.67,250.591,54.864,246.665,54.864Zm0,1.8c2.414,0,3.74,1.773,3.74,5.453,0,3.733-1.353,5.506-3.766,5.506S242.9,65.849,242.9,62.17C242.9,58.437,244.278,56.664,246.665,56.664Zm13.952-1.8c-2.812,0-4.934,1.588-4.934,3.785,0,1.959,1.193,3.2,4.217,4,2.733,0.741,3.449,1.271,3.449,2.727,0,1.4-1.22,2.25-3.1,2.25a6.33,6.33,0,0,1-3.952-1.377L255.1,67.6a7.543,7.543,0,0,0,5.2,1.826c2.812,0,5.385-1.35,5.385-4.183,0-2.435-1.618-3.547-4.589-4.315-2.308-.609-3.077-1.138-3.077-2.329s1.034-1.959,2.679-1.959a6.178,6.178,0,0,1,3.634,1.218l0.982-1.4A7.338,7.338,0,0,0,260.617,54.864Z"/>
</svg>
