<svg xmlns="http://www.w3.org/2000/svg" width="479" height="187" viewBox="0 0 479 187">
  <defs>
    <style>
      .cls-1 {
        fill: #fff;
        fill-rule: evenodd;
      }
    </style>
  </defs>
  <path id="_396_colaboradores_27_son_mujeres._La_empresa_invirtió_30.32_" data-name="396  colaboradores 27% son mujeres. La empresa invirtió  30.32 " class="cls-1" d="M16.626,1.957A21.015,21.015,0,0,0,1.636,8l4.882,5.283C9.337,10.6,12.157,9.3,15.664,9.3c3.988,0,6.532,2.127,6.532,5.695,0,4.185-2.888,6.518-7.083,6.518H12.569L11.4,28.373h3.782c5.088,0,7.976,1.852,7.976,7,0,4.6-3.094,7.273-7.77,7.273-3.576,0-6.464-1.3-9.558-4.391L0.536,43.331c3.576,4.391,8.733,6.861,15.4,6.861,11.071,0,17.259-6.381,17.259-14.2,0-7.273-4.813-10.772-10.589-11.39,5.57-1.509,9.077-5.215,9.077-10.91C31.685,7.24,26.459,1.957,16.626,1.957Zm37.27,0c-9.283,0-16.641,6.107-16.641,15.781,0,9.4,5.914,15.164,13.134,15.164a11.776,11.776,0,0,0,9.764-4.734c-1.513,8.783-7.77,12.968-19.46,15.85l2.063,6.93C61.942,46.693,70.606,38.8,70.606,19.865,70.606,9.3,64.967,1.957,53.9,1.957ZM53.209,25.9c-3.438,0-6.189-2.2-6.189-8.44,0-5.558,2.682-8.439,6.876-8.439,4.882,0,6.876,3.293,6.739,12.488C58.71,24.325,56.166,25.9,53.209,25.9ZM96.184,18.15a13.065,13.065,0,0,0-10.108,4.734C86.558,14.1,90.133,9.024,95.7,9.024a12.5,12.5,0,0,1,6.533,1.853l3.575-5.969A18.157,18.157,0,0,0,95.5,1.957c-12.1,0-19.529,10.292-19.529,25.867,0,13.311,5.02,22.368,17.122,22.368,9.833,0,16.3-7.273,16.3-16.879C109.387,23.5,103.611,18.15,96.184,18.15ZM93.159,43.057c-4.951,0-6.945-3.98-7.083-13.791,2.063-2.607,4.676-4.254,7.564-4.254,3.713,0,5.914,2.127,5.914,8.44C99.554,39.283,97.491,43.057,93.159,43.057ZM20.477,77.133c-10.658,0-17.4,8.028-17.4,19.555,0,11.6,6.67,19.006,17.534,19.006a18.3,18.3,0,0,0,11.965-4.254l-4.263-6.107c-2.682,1.715-4.538,2.539-7.22,2.539-4.607,0-7.7-2.813-7.7-11.253s2.888-11.939,7.77-11.939a11.094,11.094,0,0,1,7.151,2.607l4.263-5.763A17.522,17.522,0,0,0,20.477,77.133Zm31.631,0c-11,0-17.534,7.685-17.534,19.28,0,12.076,6.6,19.281,17.466,19.281,10.933,0,17.466-7.754,17.466-19.281C69.505,84.337,62.973,77.133,52.108,77.133Zm0,7.273c4.745,0,7.22,3.636,7.22,12.007,0,8.3-2.475,12.008-7.289,12.008s-7.289-3.637-7.289-12.008C44.751,88.111,47.226,84.406,52.108,84.406Zm33.9,31.288a16.065,16.065,0,0,0,6.257-1.235l-1.994-6.93a4.2,4.2,0,0,1-1.925.411c-1.375,0-1.994-.823-1.994-2.4V62.655l-9.764,1.1v42.06C76.588,112.126,80.095,115.694,86.008,115.694ZM124.79,104.51V89.826c0-8.234-4.332-12.693-14.44-12.693a37.949,37.949,0,0,0-13.477,2.676l2.2,6.518a33.349,33.349,0,0,1,9.627-1.921c4.607,0,6.532,1.441,6.532,5.969v1.784h-4.194c-10.8,0-16.778,4.323-16.778,12.282,0,6.587,4.538,11.253,11.827,11.253,4.332,0,8.32-1.51,10.933-5.489,1.513,3.636,4.263,5.008,8.389,5.351l2.063-6.449C125.684,108.489,124.79,107.46,124.79,104.51ZM108.768,108.7c-3.025,0-4.675-1.853-4.675-5.077,0-3.98,2.613-5.9,7.907-5.9h3.232v6.93C113.719,107.254,111.588,108.7,108.768,108.7Zm45.521-31.562a12.224,12.224,0,0,0-9.971,5.009V62.655l-9.764,1.1V114.6h8.664l0.55-3.568a11.617,11.617,0,0,0,9.558,4.666c9.008,0,14.441-8.028,14.441-19.281C167.767,84.269,162.816,77.133,154.289,77.133Zm-3.713,31.356c-2.613,0-4.745-1.441-6.258-3.911V89c1.651-2.745,3.92-4.666,6.739-4.666,3.851,0,6.533,2.607,6.533,12.076C157.59,105.264,154.7,108.489,150.576,108.489ZM190.87,77.133c-11,0-17.534,7.685-17.534,19.28,0,12.076,6.6,19.281,17.465,19.281,10.934,0,17.466-7.754,17.466-19.281C208.267,84.337,201.735,77.133,190.87,77.133Zm0,7.273c4.745,0,7.22,3.636,7.22,12.007,0,8.3-2.475,12.008-7.289,12.008s-7.288-3.637-7.288-12.008C183.513,88.111,185.988,84.406,190.87,84.406Zm43.664-7.2c-4.263,0-7.77,3.019-9.489,8.1l-0.894-7.067h-8.458V114.6h9.765V95.8c1.306-5.832,3.369-9.126,7.839-9.126a12.244,12.244,0,0,1,3.231.48l1.651-9.4A13.022,13.022,0,0,0,234.534,77.2Zm33.9,27.309V89.826c0-8.234-4.332-12.693-14.44-12.693a37.944,37.944,0,0,0-13.477,2.676l2.2,6.518a33.348,33.348,0,0,1,9.627-1.921c4.607,0,6.532,1.441,6.532,5.969v1.784h-4.194c-10.8,0-16.778,4.323-16.778,12.282,0,6.587,4.538,11.253,11.827,11.253,4.332,0,8.32-1.51,10.933-5.489,1.513,3.636,4.263,5.008,8.389,5.351l2.063-6.449C269.328,108.489,268.434,107.46,268.434,104.51ZM252.412,108.7c-3.025,0-4.675-1.853-4.675-5.077,0-3.98,2.613-5.9,7.907-5.9h3.232v6.93C257.363,107.254,255.232,108.7,252.412,108.7ZM300,62.655V80.769a12.5,12.5,0,0,0-8.87-3.636c-9.008,0-14.784,8.028-14.784,19.28,0,11.6,4.675,19.281,13.821,19.281a12.274,12.274,0,0,0,10.452-5.558l0.55,4.46h8.595V63.753Zm-6.945,45.766c-3.92,0-6.533-2.882-6.533-12.008,0-8.508,2.888-12.076,7.152-12.076,2.682,0,4.538,1.3,6.326,3.431v16.261C298.071,106.911,296.008,108.421,293.051,108.421Zm41.67-31.288c-11,0-17.535,7.685-17.535,19.28,0,12.076,6.6,19.281,17.466,19.281,10.933,0,17.466-7.754,17.466-19.281C352.118,84.337,345.585,77.133,334.721,77.133Zm0,7.273c4.745,0,7.22,3.636,7.22,12.007,0,8.3-2.475,12.008-7.289,12.008s-7.289-3.637-7.289-12.008C327.363,88.111,329.839,84.406,334.721,84.406Zm43.664-7.2c-4.263,0-7.77,3.019-9.489,8.1L368,78.231h-8.458V114.6h9.764V95.8c1.307-5.832,3.37-9.126,7.839-9.126a12.245,12.245,0,0,1,3.232.48l1.65-9.4A13.01,13.01,0,0,0,378.385,77.2Zm37.2,18.388c0-11.6-6.12-18.457-16.434-18.457-10.659,0-16.572,8.508-16.572,19.486,0,11.39,6.12,19.075,17.809,19.075a21.518,21.518,0,0,0,13.822-4.941l-4.057-5.489c-3.164,2.2-5.777,3.157-8.871,3.157-4.676,0-7.976-2.059-8.664-9.057h22.761C415.447,98.334,415.585,96.825,415.585,95.59Zm-9.7-2.333H392.618c0.481-6.861,2.888-9.469,6.739-9.469,4.676,0,6.532,3.568,6.532,9.057v0.412Zm28.88-16.124c-8.8,0-14.44,4.666-14.44,10.841,0,5.489,3.438,9.126,10.8,11.184,6.738,1.852,8.045,2.744,8.045,5.489,0,2.47-2.338,3.979-5.983,3.979a16.063,16.063,0,0,1-9.764-3.567l-4.813,5.351c3.438,3.157,8.526,5.284,14.853,5.284,8.664,0,15.746-4.254,15.746-11.8,0-6.45-4.126-9.469-11.414-11.458-6.4-1.852-7.633-2.813-7.633-4.94,0-1.99,1.788-3.293,5.02-3.293a16.862,16.862,0,0,1,9.076,2.882l3.713-5.558A20.779,20.779,0,0,0,434.769,77.133ZM6.388,131.31a6.369,6.369,0,0,0-5.217,2.577l1.435,1.145a4.584,4.584,0,0,1,3.678-1.926,2.785,2.785,0,0,1,2.948,3.02c0,2.889-1.513,4.58-7.721,11.087v1.744H11.683l0.261-1.848H4.014c5.452-5.518,7.512-7.782,7.512-11.088C11.527,133.341,9.544,131.31,6.388,131.31Zm17.343,0.261H13.689v1.8h7.825l-6.391,15.174,2.009,0.65,6.6-15.981v-1.639Zm17.03-1.067L28.685,148.723l1.539,0.989L42.3,131.493Zm-10.59.806a4.364,4.364,0,1,0,4.173,4.347A4.024,4.024,0,0,0,30.171,131.31Zm0,1.484c1.722,0,2.191,1.458,2.191,2.863,0,1.458-.469,2.863-2.191,2.863s-2.217-1.431-2.217-2.863C27.954,134.2,28.45,132.794,30.171,132.794Zm10.59,7.756a4.365,4.365,0,1,0,4.147,4.347A4.03,4.03,0,0,0,40.761,140.55Zm0,1.51c1.748,0,2.217,1.431,2.217,2.837,0,1.457-.469,2.863-2.217,2.863-1.7,0-2.191-1.432-2.191-2.863C38.57,143.439,39.066,142.06,40.761,142.06Zm18.513-7.106c-2.765,0-4.852,1.562-4.852,3.722,0,1.926,1.174,3.15,4.147,3.93,2.687,0.729,3.391,1.25,3.391,2.681,0,1.38-1.2,2.213-3.052,2.213a6.226,6.226,0,0,1-3.886-1.354l-1.174,1.328a7.417,7.417,0,0,0,5.112,1.8c2.765,0,5.295-1.327,5.295-4.112,0-2.394-1.591-3.488-4.512-4.242-2.269-.6-3.026-1.12-3.026-2.291s1.017-1.926,2.635-1.926a6.081,6.081,0,0,1,3.573,1.2l0.965-1.379A7.215,7.215,0,0,0,59.275,134.954Zm13.561,0c-3.834,0-6.052,2.889-6.052,7.184,0,4.346,2.191,7.131,6.025,7.131s6.051-2.889,6.051-7.183C78.861,137.713,76.7,134.954,72.836,134.954Zm0,1.77c2.374,0,3.678,1.744,3.678,5.362,0,3.67-1.33,5.414-3.7,5.414s-3.678-1.744-3.678-5.362C69.132,138.468,70.488,136.724,72.836,136.724Zm16.4-1.77a5.19,5.19,0,0,0-4.3,2.395l-0.183-2.082H82.875v13.69h2.191V139.2c0.965-1.51,2.061-2.525,3.678-2.525,1.409,0,2.243.677,2.243,2.785v9.5h2.191v-9.812C93.178,136.542,91.77,134.954,89.239,134.954Zm29.392,0a4.84,4.84,0,0,0-4.121,2.525,3.427,3.427,0,0,0-3.443-2.525,4.751,4.751,0,0,0-4.043,2.395l-0.183-2.082h-1.878v13.69h2.191V139.2c0.939-1.51,1.852-2.525,3.365-2.525,1.148,0,2.034.677,2.034,2.785v9.5h2.192V139.2c0.965-1.51,1.851-2.525,3.364-2.525,1.148,0,2.035.677,2.035,2.785v9.5h2.191v-9.812C122.335,136.568,120.874,134.954,118.631,134.954Zm18.541,0.313h-2.191v9.812a4.251,4.251,0,0,1-3.574,2.447c-1.539,0-2.243-.729-2.243-2.681v-9.578h-2.191v9.812c0,2.681,1.435,4.19,3.834,4.19a4.682,4.682,0,0,0,4.33-2.524l0.157,2.212h1.878v-13.69Zm6.074-6.455a1.51,1.51,0,1,0,1.565,1.509A1.471,1.471,0,0,0,143.246,128.812Zm1.1,6.455h-2.191v13.065c0,2.968-.835,3.644-2.635,4.5l0.626,1.588c2.817-1.275,4.2-2.4,4.2-6.221V135.267Zm15.231,6.4c0-4.138-1.9-6.715-5.582-6.715-3.5,0-5.634,2.993-5.634,7.288,0,4.347,2.217,7.027,6,7.027a7.29,7.29,0,0,0,4.721-1.717l-0.965-1.3a5.845,5.845,0,0,1-3.6,1.224c-2.061,0-3.626-1.3-3.834-4.607h8.842C159.547,142.58,159.573,142.138,159.573,141.669Zm-2.165-.416h-6.729c0.182-3.2,1.46-4.555,3.364-4.555,2.27,0,3.365,1.588,3.365,4.347v0.208Zm11.839-6.3c-1.721,0-3,1.067-3.73,3.176l-0.208-2.863h-1.878v13.69h2.191v-7.938c0.6-2.681,1.617-3.93,3.365-3.93a4.19,4.19,0,0,1,1.2.156l0.418-2.135A5.71,5.71,0,0,0,169.247,134.954Zm13.875,6.715c0-4.138-1.9-6.715-5.582-6.715-3.5,0-5.634,2.993-5.634,7.288,0,4.347,2.217,7.027,6,7.027a7.288,7.288,0,0,0,4.721-1.717l-0.965-1.3a5.842,5.842,0,0,1-3.6,1.224c-2.061,0-3.626-1.3-3.835-4.607h8.843C183.1,142.58,183.122,142.138,183.122,141.669Zm-2.165-.416h-6.73c0.183-3.2,1.461-4.555,3.365-4.555,2.269,0,3.365,1.588,3.365,4.347v0.208Zm9.7-6.3c-2.765,0-4.852,1.562-4.852,3.722,0,1.926,1.174,3.15,4.148,3.93,2.686,0.729,3.391,1.25,3.391,2.681,0,1.38-1.2,2.213-3.052,2.213a6.228,6.228,0,0,1-3.887-1.354l-1.173,1.328a7.415,7.415,0,0,0,5.112,1.8c2.765,0,5.3-1.327,5.3-4.112,0-2.394-1.591-3.488-4.512-4.242-2.27-.6-3.026-1.12-3.026-2.291s1.017-1.926,2.634-1.926a6.081,6.081,0,0,1,3.574,1.2l0.965-1.379A7.215,7.215,0,0,0,190.657,134.954Zm8.97,10.958a1.679,1.679,0,1,0,1.7,1.666A1.662,1.662,0,0,0,199.627,145.912ZM214.6,131.05h-2.243v17.907h9.391l0.26-1.978H214.6V131.05Zm19.17,14.758v-6.351c0-2.837-1.487-4.5-4.748-4.5a12.861,12.861,0,0,0-4.643.937l0.548,1.614a11.547,11.547,0,0,1,3.7-.755c1.983,0,2.948.781,2.948,2.811v1.093h-2.244c-3.756,0-5.947,1.562-5.947,4.477a3.963,3.963,0,0,0,4.33,4.138,4.627,4.627,0,0,0,4.121-2.108,2.7,2.7,0,0,0,2.557,2.108l0.521-1.535C234.183,147.474,233.766,147.083,233.766,145.808Zm-5.556,1.8a2.278,2.278,0,0,1-2.5-2.577c0-1.952,1.356-2.915,3.912-2.915h1.957v3.279A3.692,3.692,0,0,1,228.21,147.6Zm27.8-5.935c0-4.138-1.9-6.715-5.582-6.715-3.5,0-5.634,2.993-5.634,7.288,0,4.347,2.217,7.027,6,7.027a7.288,7.288,0,0,0,4.721-1.717l-0.965-1.3a5.843,5.843,0,0,1-3.6,1.224c-2.061,0-3.626-1.3-3.834-4.607h8.842C255.984,142.58,256.01,142.138,256.01,141.669Zm-2.165-.416h-6.729c0.182-3.2,1.46-4.555,3.365-4.555,2.269,0,3.364,1.588,3.364,4.347v0.208Zm19.691-6.3a4.842,4.842,0,0,0-4.122,2.525,3.426,3.426,0,0,0-3.443-2.525,4.753,4.753,0,0,0-4.043,2.395l-0.182-2.082h-1.878v13.69h2.191V139.2c0.939-1.51,1.852-2.525,3.365-2.525,1.147,0,2.034.677,2.034,2.785v9.5h2.191V139.2c0.965-1.51,1.852-2.525,3.365-2.525,1.148,0,2.035.677,2.035,2.785v9.5h2.191v-9.812C277.24,136.568,275.779,134.954,273.536,134.954Zm14.654,0a4.958,4.958,0,0,0-4.095,2.213l-0.183-1.9h-1.878v19.182l2.191-.26V147.63a4.476,4.476,0,0,0,3.678,1.639c3.5,0,5.347-2.993,5.347-7.183C293.25,137.739,291.764,134.954,288.19,134.954Zm-0.808,12.52a3.71,3.71,0,0,1-3.157-1.77V138.91a4.266,4.266,0,0,1,3.443-2.212c2.139,0,3.209,1.744,3.209,5.388C290.877,145.756,289.651,147.474,287.382,147.474Zm15.673-12.52c-1.722,0-3,1.067-3.73,3.176l-0.209-2.863h-1.878v13.69h2.191v-7.938c0.6-2.681,1.617-3.93,3.365-3.93a4.2,4.2,0,0,1,1.2.156l0.417-2.135A5.7,5.7,0,0,0,303.055,134.954Zm13.874,6.715c0-4.138-1.9-6.715-5.582-6.715-3.5,0-5.634,2.993-5.634,7.288,0,4.347,2.217,7.027,6,7.027a7.293,7.293,0,0,0,4.722-1.717l-0.965-1.3a5.845,5.845,0,0,1-3.6,1.224c-2.061,0-3.626-1.3-3.834-4.607h8.842C316.9,142.58,316.929,142.138,316.929,141.669Zm-2.165-.416h-6.729c0.182-3.2,1.46-4.555,3.364-4.555,2.27,0,3.365,1.588,3.365,4.347v0.208Zm9.7-6.3c-2.765,0-4.851,1.562-4.851,3.722,0,1.926,1.174,3.15,4.147,3.93,2.687,0.729,3.391,1.25,3.391,2.681,0,1.38-1.2,2.213-3.052,2.213a6.223,6.223,0,0,1-3.886-1.354l-1.174,1.328a7.417,7.417,0,0,0,5.112,1.8c2.765,0,5.3-1.327,5.3-4.112,0-2.394-1.591-3.488-4.512-4.242-2.269-.6-3.026-1.12-3.026-2.291s1.017-1.926,2.635-1.926a6.08,6.08,0,0,1,3.573,1.2l0.965-1.379A7.213,7.213,0,0,0,324.464,134.954Zm17.474,10.854v-6.351c0-2.837-1.487-4.5-4.747-4.5a12.853,12.853,0,0,0-4.643.937l0.548,1.614a11.536,11.536,0,0,1,3.7-.755c1.982,0,2.947.781,2.947,2.811v1.093H337.5c-3.756,0-5.947,1.562-5.947,4.477a3.963,3.963,0,0,0,4.33,4.138,4.628,4.628,0,0,0,4.121-2.108,2.7,2.7,0,0,0,2.556,2.108l0.522-1.535C342.355,147.474,341.938,147.083,341.938,145.808Zm-5.556,1.8a2.278,2.278,0,0,1-2.5-2.577c0-1.952,1.356-2.915,3.913-2.915h1.956v3.279A3.692,3.692,0,0,1,336.382,147.6Zm18.593-18.792a1.51,1.51,0,1,0,1.565,1.509A1.471,1.471,0,0,0,354.975,128.812Zm1.122,6.455h-2.191v13.69H356.1v-13.69Zm11.318-.313a5.19,5.19,0,0,0-4.3,2.395l-0.183-2.082h-1.878v13.69h2.191V139.2c0.965-1.51,2.061-2.525,3.678-2.525,1.408,0,2.243.677,2.243,2.785v9.5h2.191v-9.812C371.354,136.542,369.946,134.954,367.415,134.954Zm18.491,0.313h-2.321l-3.678,11.738-3.73-11.738h-2.4l4.773,13.69h2.661Zm3.832-6.455a1.51,1.51,0,1,0,1.565,1.509A1.471,1.471,0,0,0,389.738,128.812Zm1.121,6.455h-2.191v13.69h2.191v-13.69Zm10.771-.313c-1.721,0-3,1.067-3.73,3.176l-0.208-2.863h-1.878v13.69h2.191v-7.938c0.6-2.681,1.617-3.93,3.364-3.93a4.193,4.193,0,0,1,1.2.156l0.418-2.135A5.71,5.71,0,0,0,401.63,134.954Zm10.092,11.921a3.659,3.659,0,0,1-1.9.572c-1.226,0-1.721-.676-1.721-2.108v-8.381h3.078l0.234-1.691H408.1v-3.384l-2.191.234v3.15h-2.374v1.691h2.374v8.485c0,2.5,1.356,3.826,3.625,3.826a5.251,5.251,0,0,0,3.026-.911Zm4.38-18.063a1.511,1.511,0,1,0,1.566,1.509A1.471,1.471,0,0,0,416.1,128.812Zm1.122,6.455h-2.191v13.69h2.191v-13.69Zm12.075-7.054-5.112,2.915,0.678,1.172,5.425-2.213Zm-2.008,6.741c-3.835,0-6.052,2.889-6.052,7.184,0,4.346,2.191,7.131,6.026,7.131s6.051-2.889,6.051-7.183C433.316,137.713,431.151,134.954,427.291,134.954Zm0,1.77c2.373,0,3.678,1.744,3.678,5.362,0,3.67-1.331,5.414-3.7,5.414s-3.678-1.744-3.678-5.362C423.587,138.468,424.943,136.724,427.291,136.724ZM6.31,162.537a6.982,6.982,0,0,0-4.93,2.03l1.148,1.3a5.071,5.071,0,0,1,3.652-1.562,2.681,2.681,0,0,1,3,2.759,3.019,3.019,0,0,1-3.234,3.175H5.058L4.8,171.933H6.075c2.165,0,3.547.781,3.547,3.253A3.326,3.326,0,0,1,6,178.7a4.955,4.955,0,0,1-3.782-1.744l-1.33,1.224A6.536,6.536,0,0,0,6.075,180.5c3.574,0,5.843-2.264,5.843-5.31a4.01,4.01,0,0,0-3.939-4.242,3.982,3.982,0,0,0,3.417-4.008C11.4,164.567,9.57,162.537,6.31,162.537Zm14.343,0c-3.834,0-5.738,3.149-5.738,8.953s1.9,9.006,5.738,9.006,5.739-3.2,5.739-8.98C26.392,165.712,24.487,162.537,20.653,162.537Zm0,1.744c2.243,0,3.469,2.056,3.469,7.235,0,5.154-1.226,7.236-3.469,7.236-2.269,0-3.469-2.082-3.469-7.262C17.184,166.337,18.384,164.281,20.653,164.281Zm9.935,12.857a1.679,1.679,0,1,0,1.7,1.666A1.663,1.663,0,0,0,30.588,177.138Zm9.1-14.6a6.982,6.982,0,0,0-4.93,2.03l1.148,1.3a5.07,5.07,0,0,1,3.652-1.562,2.681,2.681,0,0,1,3,2.759,3.019,3.019,0,0,1-3.234,3.175H38.438l-0.261,1.692h1.278c2.165,0,3.547.781,3.547,3.253a3.326,3.326,0,0,1-3.626,3.514,4.955,4.955,0,0,1-3.782-1.744l-1.33,1.224a6.536,6.536,0,0,0,5.191,2.316c3.573,0,5.843-2.264,5.843-5.31a4.01,4.01,0,0,0-3.939-4.242,3.982,3.982,0,0,0,3.417-4.008C44.776,164.567,42.951,162.537,39.69,162.537Zm12.752,0a6.369,6.369,0,0,0-5.217,2.577l1.435,1.145a4.584,4.584,0,0,1,3.678-1.926,2.784,2.784,0,0,1,2.947,3.019c0,2.889-1.513,4.581-7.721,11.088v1.744H57.737L58,178.336H50.069c5.452-5.518,7.512-7.783,7.512-11.088C57.581,164.567,55.6,162.537,52.442,162.537Zm22.715,3.644a5.1,5.1,0,0,0-4.174,2.29v-7.73l-2.191.26v19.183h2.191V170.4c0.965-1.483,2.087-2.5,3.652-2.5,1.382,0,2.269.676,2.269,2.785v9.5H79.1v-9.813C79.1,167.8,77.661,166.181,75.157,166.181Zm13.847,0c-3.834,0-6.052,2.889-6.052,7.183,0,4.347,2.191,7.132,6.025,7.132s6.051-2.889,6.051-7.184C95.03,168.94,92.865,166.181,89,166.181Zm0,1.77c2.374,0,3.678,1.744,3.678,5.361,0,3.67-1.33,5.414-3.7,5.414s-3.678-1.744-3.678-5.362C85.3,169.7,86.657,167.951,89,167.951Zm15.856-1.77c-1.721,0-3,1.067-3.73,3.175l-0.208-2.863H99.044v13.691h2.192v-7.939c0.6-2.681,1.617-3.93,3.364-3.93a4.193,4.193,0,0,1,1.2.156l0.418-2.134A5.71,5.71,0,0,0,104.86,166.181Zm12.6,10.853v-6.35c0-2.837-1.487-4.5-4.747-4.5a12.832,12.832,0,0,0-4.643.937l0.547,1.614a11.547,11.547,0,0,1,3.7-.755c1.983,0,2.948.781,2.948,2.811v1.093h-2.243c-3.756,0-5.948,1.562-5.948,4.477a3.964,3.964,0,0,0,4.33,4.138,4.63,4.63,0,0,0,4.122-2.108,2.7,2.7,0,0,0,2.556,2.108l0.522-1.536C117.874,178.7,117.457,178.31,117.457,177.034Zm-5.556,1.8a2.278,2.278,0,0,1-2.5-2.577c0-1.952,1.356-2.915,3.913-2.915h1.956v3.28A3.692,3.692,0,0,1,111.9,178.83Zm14.213-12.649c-2.765,0-4.852,1.561-4.852,3.722,0,1.926,1.174,3.149,4.147,3.93,2.687,0.729,3.391,1.249,3.391,2.681,0,1.379-1.2,2.212-3.052,2.212a6.222,6.222,0,0,1-3.886-1.353l-1.174,1.327a7.418,7.418,0,0,0,5.113,1.8c2.764,0,5.3-1.327,5.3-4.112,0-2.395-1.592-3.488-4.513-4.243-2.269-.6-3.026-1.119-3.026-2.29s1.018-1.926,2.635-1.926a6.073,6.073,0,0,1,3.573,1.2l0.965-1.38A7.212,7.212,0,0,0,126.114,166.181Zm23.6-5.466V167.9a4.976,4.976,0,0,0-3.73-1.718c-3.365,0-5.373,3.019-5.373,7.209,0,4.3,1.852,7.106,5.165,7.106a4.624,4.624,0,0,0,3.99-2.238L150,180.184h1.9V160.975Zm-3.5,18.037c-2.061,0-3.26-1.744-3.26-5.388s1.356-5.439,3.5-5.439a3.923,3.923,0,0,1,3.26,1.848v6.819A3.963,3.963,0,0,1,146.22,178.752Zm20.916-5.856c0-4.138-1.9-6.715-5.582-6.715-3.5,0-5.634,2.993-5.634,7.288,0,4.346,2.217,7.027,6,7.027a7.289,7.289,0,0,0,4.721-1.718l-0.965-1.3a5.841,5.841,0,0,1-3.6,1.223c-2.061,0-3.626-1.3-3.835-4.607h8.843C167.11,173.807,167.136,173.364,167.136,172.9Zm-2.165-.417h-6.73c0.183-3.2,1.461-4.554,3.365-4.554,2.269,0,3.365,1.587,3.365,4.346v0.208Zm18.019-6.3c-3.678,0-5.947,2.889-5.947,7.262,0,4.424,2.295,7.053,5.947,7.053a6.237,6.237,0,0,0,4.121-1.51l-1.017-1.431a4.931,4.931,0,0,1-3.026,1.067c-2.243,0-3.677-1.562-3.677-5.206,0-3.669,1.434-5.413,3.677-5.413a4.676,4.676,0,0,1,2.974,1.015l1.069-1.38A6.024,6.024,0,0,0,182.99,166.181Zm16.3,10.853v-6.35c0-2.837-1.486-4.5-4.747-4.5a12.832,12.832,0,0,0-4.643.937l0.548,1.614a11.536,11.536,0,0,1,3.7-.755c1.982,0,2.947.781,2.947,2.811v1.093h-2.243c-3.756,0-5.947,1.562-5.947,4.477a3.963,3.963,0,0,0,4.33,4.138,4.63,4.63,0,0,0,4.121-2.108,2.7,2.7,0,0,0,2.556,2.108l0.522-1.536C199.708,178.7,199.29,178.31,199.29,177.034Zm-5.555,1.8a2.278,2.278,0,0,1-2.505-2.577c0-1.952,1.357-2.915,3.913-2.915H197.1v3.28A3.691,3.691,0,0,1,193.735,178.83Zm16.69-12.649a4.959,4.959,0,0,0-4.095,2.212l-0.183-1.9h-1.878v19.182l2.191-.26v-6.559a4.477,4.477,0,0,0,3.678,1.64c3.5,0,5.347-2.993,5.347-7.184C215.485,168.966,214,166.181,210.425,166.181ZM209.616,178.7a3.709,3.709,0,0,1-3.156-1.77v-6.793a4.266,4.266,0,0,1,3.443-2.212c2.139,0,3.209,1.744,3.209,5.387C213.112,176.982,211.886,178.7,209.616,178.7Zm18.752-1.666v-6.35c0-2.837-1.487-4.5-4.747-4.5a12.832,12.832,0,0,0-4.643.937l0.547,1.614a11.547,11.547,0,0,1,3.7-.755c1.983,0,2.948.781,2.948,2.811v1.093h-2.243c-3.757,0-5.948,1.562-5.948,4.477a3.964,3.964,0,0,0,4.33,4.138,4.63,4.63,0,0,0,4.122-2.108,2.7,2.7,0,0,0,2.556,2.108l0.522-1.536C228.785,178.7,228.368,178.31,228.368,177.034Zm-5.556,1.8a2.278,2.278,0,0,1-2.5-2.577c0-1.952,1.356-2.915,3.912-2.915h1.957v3.28A3.692,3.692,0,0,1,222.812,178.83Zm15.543-12.649c-3.678,0-5.947,2.889-5.947,7.262,0,4.424,2.3,7.053,5.947,7.053a6.239,6.239,0,0,0,4.121-1.51l-1.017-1.431a4.933,4.933,0,0,1-3.026,1.067c-2.243,0-3.678-1.562-3.678-5.206,0-3.669,1.435-5.413,3.678-5.413a4.676,4.676,0,0,1,2.974,1.015l1.069-1.38A6.024,6.024,0,0,0,238.355,166.181Zm8.474-6.143a1.511,1.511,0,1,0,1.566,1.51A1.471,1.471,0,0,0,246.829,160.038Zm1.122,6.455H245.76v13.691h2.191V166.493ZM258.9,178.1a3.657,3.657,0,0,1-1.9.573c-1.226,0-1.721-.677-1.721-2.108v-8.381h3.078l0.235-1.692h-3.313V163.11l-2.191.234v3.149h-2.374v1.692h2.374v8.485c0,2.5,1.356,3.826,3.625,3.826a5.251,5.251,0,0,0,3.026-.911Zm12.335-1.067v-6.35c0-2.837-1.487-4.5-4.747-4.5a12.832,12.832,0,0,0-4.643.937l0.548,1.614a11.536,11.536,0,0,1,3.7-.755c1.982,0,2.947.781,2.947,2.811v1.093h-2.243c-3.756,0-5.947,1.562-5.947,4.477a3.963,3.963,0,0,0,4.33,4.138,4.63,4.63,0,0,0,4.121-2.108,2.7,2.7,0,0,0,2.556,2.108l0.522-1.536C271.658,178.7,271.24,178.31,271.24,177.034Zm-5.556,1.8a2.278,2.278,0,0,1-2.5-2.577c0-1.952,1.357-2.915,3.913-2.915h1.956v3.28A3.691,3.691,0,0,1,265.684,178.83Zm15.543-12.649c-3.678,0-5.947,2.889-5.947,7.262,0,4.424,2.3,7.053,5.947,7.053a6.237,6.237,0,0,0,4.121-1.51l-1.017-1.431a4.931,4.931,0,0,1-3.026,1.067c-2.243,0-3.677-1.562-3.677-5.206,0-3.669,1.434-5.413,3.677-5.413a4.676,4.676,0,0,1,2.974,1.015l1.069-1.38A6.024,6.024,0,0,0,281.227,166.181Zm8.475-6.143a1.511,1.511,0,1,0,1.565,1.51A1.472,1.472,0,0,0,289.7,160.038Zm1.121,6.455h-2.191v13.691h2.191V166.493ZM302.9,159.44l-5.113,2.915,0.678,1.171,5.426-2.212Zm-2.009,6.741c-3.834,0-6.051,2.889-6.051,7.183,0,4.347,2.191,7.132,6.025,7.132s6.051-2.889,6.051-7.184C306.915,168.94,304.75,166.181,300.89,166.181Zm0,1.77c2.374,0,3.678,1.744,3.678,5.361,0,3.67-1.33,5.414-3.7,5.414s-3.678-1.744-3.678-5.362C297.186,169.7,298.542,167.951,300.89,167.951Zm16.4-1.77a5.192,5.192,0,0,0-4.3,2.394l-0.183-2.082h-1.878v13.691h2.191v-9.761c0.965-1.509,2.061-2.524,3.678-2.524,1.409,0,2.243.676,2.243,2.785v9.5h2.191v-9.813C321.232,167.769,319.824,166.181,317.294,166.181Zm21.879,0a4.959,4.959,0,0,0-4.1,2.212l-0.183-1.9h-1.878v19.182l2.191-.26v-6.559a4.477,4.477,0,0,0,3.678,1.64c3.495,0,5.347-2.993,5.347-7.184C344.233,168.966,342.747,166.181,339.173,166.181ZM338.365,178.7a3.71,3.71,0,0,1-3.157-1.77v-6.793a4.266,4.266,0,0,1,3.443-2.212c2.139,0,3.209,1.744,3.209,5.387C341.86,176.982,340.634,178.7,338.365,178.7Zm14.968-12.519c-3.834,0-6.051,2.889-6.051,7.183,0,4.347,2.191,7.132,6.025,7.132s6.052-2.889,6.052-7.184C359.359,168.94,357.194,166.181,353.333,166.181Zm0,1.77c2.374,0,3.678,1.744,3.678,5.361,0,3.67-1.33,5.414-3.7,5.414s-3.678-1.744-3.678-5.362C349.629,169.7,350.986,167.951,353.333,167.951Zm15.856-1.77c-1.721,0-3,1.067-3.73,3.175l-0.208-2.863h-1.879v13.691h2.192v-7.939c0.6-2.681,1.617-3.93,3.364-3.93a4.193,4.193,0,0,1,1.2.156l0.418-2.134A5.71,5.71,0,0,0,369.189,166.181Zm17.238,0a4.961,4.961,0,0,0-4.1,2.212l-0.182-1.9h-1.878v19.182l2.191-.26v-6.559a4.477,4.477,0,0,0,3.678,1.64c3.5,0,5.347-2.993,5.347-7.184C391.487,168.966,390,166.181,386.427,166.181ZM385.618,178.7a3.708,3.708,0,0,1-3.156-1.77v-6.793a4.265,4.265,0,0,1,3.443-2.212c2.139,0,3.208,1.744,3.208,5.387C389.113,176.982,387.887,178.7,385.618,178.7Zm20.134-5.8c0-4.138-1.905-6.715-5.582-6.715-3.5,0-5.635,2.993-5.635,7.288,0,4.346,2.218,7.027,6,7.027a7.289,7.289,0,0,0,4.721-1.718l-0.965-1.3a5.842,5.842,0,0,1-3.6,1.223c-2.06,0-3.625-1.3-3.834-4.607H405.7C405.726,173.807,405.752,173.364,405.752,172.9Zm-2.165-.417h-6.73c0.183-3.2,1.461-4.554,3.365-4.554,2.269,0,3.365,1.587,3.365,4.346v0.208Zm11.839-6.3c-1.722,0-3,1.067-3.73,3.175l-0.209-2.863h-1.878v13.691H411.8v-7.939c0.6-2.681,1.617-3.93,3.365-3.93a4.2,4.2,0,0,1,1.2.156l0.417-2.134A5.7,5.7,0,0,0,415.426,166.181Zm7.379,0c-2.765,0-4.851,1.561-4.851,3.722,0,1.926,1.173,3.149,4.147,3.93,2.687,0.729,3.391,1.249,3.391,2.681,0,1.379-1.2,2.212-3.052,2.212a6.222,6.222,0,0,1-3.886-1.353L417.38,178.7a7.417,7.417,0,0,0,5.112,1.8c2.765,0,5.295-1.327,5.295-4.112,0-2.395-1.591-3.488-4.512-4.243-2.27-.6-3.026-1.119-3.026-2.29s1.017-1.926,2.634-1.926a6.074,6.074,0,0,1,3.574,1.2l0.965-1.38A7.214,7.214,0,0,0,422.805,166.181Zm13.561,0c-3.834,0-6.051,2.889-6.051,7.183,0,4.347,2.191,7.132,6.025,7.132s6.052-2.889,6.052-7.184C442.392,168.94,440.227,166.181,436.366,166.181Zm0,1.77c2.374,0,3.678,1.744,3.678,5.361,0,3.67-1.33,5.414-3.7,5.414s-3.678-1.744-3.678-5.362C432.662,169.7,434.019,167.951,436.366,167.951Zm16.4-1.77a5.192,5.192,0,0,0-4.3,2.394l-0.183-2.082h-1.878v13.691H448.6v-9.761c0.965-1.509,2.061-2.524,3.678-2.524,1.409,0,2.243.676,2.243,2.785v9.5h2.191v-9.813C456.708,167.769,455.3,166.181,452.77,166.181Zm17.76,10.853v-6.35c0-2.837-1.487-4.5-4.748-4.5a12.831,12.831,0,0,0-4.642.937l0.547,1.614a11.547,11.547,0,0,1,3.7-.755c1.983,0,2.948.781,2.948,2.811v1.093H466.1c-3.756,0-5.947,1.562-5.947,4.477a3.964,3.964,0,0,0,4.33,4.138,4.632,4.632,0,0,0,4.122-2.108,2.7,2.7,0,0,0,2.556,2.108l0.521-1.536C470.947,178.7,470.53,178.31,470.53,177.034Zm-5.556,1.8a2.278,2.278,0,0,1-2.5-2.577c0-1.952,1.356-2.915,3.912-2.915h1.957v3.28A3.692,3.692,0,0,1,464.974,178.83Z"/>
</svg>
