<svg xmlns="http://www.w3.org/2000/svg" width="479" height="241" viewBox="0 0 479 241">
  <defs>
    <style>
      .cls-1 {
        fill: #fff;
        fill-rule: evenodd;
      }
    </style>
  </defs>
  <path id="_21_168_personas_beneficiadas_por_las_iniciativas_de_nuestro_" data-name="21 168 personas  beneficiadas   por las iniciativas de nuestro " class="cls-1" d="M14.774,0.932A15.259,15.259,0,0,0,2.1,7.281L6.891,11.1c2.309-2.753,4.28-3.99,7.151-3.99a4.858,4.858,0,0,1,5.181,5.226c0,5.057-3.1,8.541-15.992,21.41v5.788H27.387l0.9-6.181H12.353C24.121,22.341,27.444,17.79,27.444,11.664,27.444,5.764,22.883.932,14.774,0.932ZM49.683,1.662H42.644L30.03,9.248l3.491,5.395,8.334-5.114V39.536h7.827V1.662Zm39.411,0H82.055L69.441,9.248l3.491,5.395,8.334-5.114V39.536h7.827V1.662Zm23.929,12.531a10.7,10.7,0,0,0-8.278,3.877c0.394-7.193,3.322-11.351,7.883-11.351a10.229,10.229,0,0,1,5.35,1.517l2.928-4.889A14.869,14.869,0,0,0,112.459.932c-9.911,0-15.993,8.429-15.993,21.185,0,10.9,4.111,18.319,14.022,18.319,8.052,0,13.345-5.956,13.345-13.823C123.833,18.576,119.1,14.193,113.022,14.193Zm-2.478,20.4c-4.054,0-5.687-3.259-5.8-11.295,1.689-2.135,3.829-3.484,6.194-3.484,3.041,0,4.843,1.742,4.843,6.912C115.781,31.5,114.092,34.591,110.544,34.591Zm37.611-15.4c4.28-2.248,6.194-5.17,6.194-8.541,0-6.294-5.687-9.721-12.782-9.721-7.152,0-12.783,3.877-12.783,10.059,0,3.6,1.577,6.631,5.631,8.935-4.448,1.967-7.151,4.945-7.151,9.553,0,6.069,5.293,10.958,14.134,10.958,9.009,0,14.415-4.945,14.415-11.126C155.813,24.87,153.336,21.611,148.155,19.194ZM141.623,6.382c3.266,0,4.955,1.911,4.955,4.664,0,2.529-.9,4.327-3.716,6.125l-1.126-.393c-3.379-1.349-5.181-2.753-5.181-5.675C136.555,8.012,138.526,6.382,141.623,6.382Zm0,28.209c-3.885,0-6.307-2.079-6.307-5.451a7.438,7.438,0,0,1,4.224-7.024l1.8,0.618c4.673,1.686,6.419,3.2,6.419,6.518C147.761,32.344,145.621,34.591,141.623,34.591ZM191.507,8.855a10.9,10.9,0,0,0-8.672,4.383l-0.394-3.484H175.4V51.9l8-.9V37.232a9.4,9.4,0,0,0,7.377,3.2c7.489,0,11.825-6.743,11.825-15.846C202.6,14.98,199.277,8.855,191.507,8.855Zm-3.1,25.624a5.737,5.737,0,0,1-5.012-2.922V18.576c1.351-2.248,3.322-3.821,5.631-3.821,3.322,0,5.237,2.416,5.237,9.89C194.266,31.613,192.07,34.479,188.41,34.479Zm45.775-10.508c0-9.5-5.012-15.116-13.458-15.116-8.728,0-13.571,6.968-13.571,15.959,0,9.328,5.012,15.622,14.584,15.622a17.621,17.621,0,0,0,11.319-4.046l-3.323-4.5a12.1,12.1,0,0,1-7.264,2.585c-3.829,0-6.531-1.686-7.095-7.418h18.639C234.072,26.219,234.185,24.982,234.185,23.971Zm-7.94-1.911H215.377c0.395-5.619,2.365-7.755,5.519-7.755,3.829,0,5.349,2.922,5.349,7.417V22.06ZM255.41,8.911c-3.492,0-6.363,2.473-7.771,6.631l-0.732-5.788h-6.926V39.536h8v-15.4c1.07-4.776,2.759-7.474,6.419-7.474a10.029,10.029,0,0,1,2.647.393l1.351-7.7A10.666,10.666,0,0,0,255.41,8.911Zm16.1-.056c-7.208,0-11.825,3.821-11.825,8.879,0,4.5,2.815,7.474,8.84,9.16,5.519,1.517,6.589,2.248,6.589,4.5,0,2.023-1.915,3.259-4.9,3.259a13.15,13.15,0,0,1-8-2.922l-3.942,4.383a17.713,17.713,0,0,0,12.163,4.327c7.095,0,12.895-3.484,12.895-9.665,0-5.282-3.379-7.755-9.348-9.384-5.237-1.517-6.25-2.3-6.25-4.046,0-1.63,1.464-2.7,4.111-2.7A13.808,13.808,0,0,1,279.282,17l3.041-4.552A17.013,17.013,0,0,0,271.512,8.855Zm29.615,0c-9.01,0-14.359,6.294-14.359,15.79,0,9.89,5.405,15.79,14.3,15.79,8.954,0,14.3-6.35,14.3-15.79C315.373,14.755,310.024,8.855,301.127,8.855Zm0,5.957c3.885,0,5.912,2.978,5.912,9.834,0,6.8-2.027,9.834-5.969,9.834S295.1,31.5,295.1,24.645C295.1,17.846,297.129,14.811,301.127,14.811Zm36.991-5.957c-3.829,0-6.7,1.686-9.122,4.664l-0.62-3.765H321.45V39.536h8V18.97c1.633-2.641,3.435-4.158,5.744-4.158,2.027,0,3.266.955,3.266,4.383V39.536h8V17.846C346.452,12.226,343.355,8.855,338.118,8.855Zm38.737,22.421V19.251c0-6.743-3.548-10.4-11.825-10.4a31.076,31.076,0,0,0-11.037,2.192l1.8,5.338a27.31,27.31,0,0,1,7.883-1.573c3.773,0,5.35,1.18,5.35,4.889v1.461h-3.435c-8.841,0-13.74,3.54-13.74,10.059,0,5.394,3.717,9.216,9.686,9.216a10.1,10.1,0,0,0,8.953-4.5c1.239,2.978,3.491,4.1,6.87,4.383l1.689-5.282C377.587,34.535,376.855,33.692,376.855,31.276ZM363.735,34.7c-2.478,0-3.829-1.517-3.829-4.158,0-3.259,2.139-4.833,6.475-4.833h2.647v5.676A5.912,5.912,0,0,1,363.735,34.7ZM394.2,8.855c-7.208,0-11.825,3.821-11.825,8.879,0,4.5,2.815,7.474,8.84,9.16,5.519,1.517,6.589,2.248,6.589,4.5,0,2.023-1.915,3.259-4.9,3.259a13.15,13.15,0,0,1-8-2.922l-3.942,4.383a17.713,17.713,0,0,0,12.163,4.327c7.1,0,12.895-3.484,12.895-9.665,0-5.282-3.379-7.755-9.348-9.384-5.236-1.517-6.25-2.3-6.25-4.046,0-1.63,1.464-2.7,4.111-2.7A13.808,13.808,0,0,1,401.965,17l3.041-4.552A17.013,17.013,0,0,0,394.2,8.855ZM21.588,66.914a10.009,10.009,0,0,0-8.165,4.1V55.057l-8,.9V97.6h7.1l0.45-2.922A9.511,9.511,0,0,0,20.8,98.494c7.377,0,11.825-6.575,11.825-15.79C32.624,72.758,28.57,66.914,21.588,66.914Zm-3.041,25.68a5.955,5.955,0,0,1-5.124-3.2V76.635c1.351-2.248,3.21-3.821,5.518-3.821,3.153,0,5.349,2.135,5.349,9.89C24.29,89.953,21.925,92.594,18.547,92.594ZM64.209,82.03c0-9.5-5.012-15.116-13.458-15.116-8.728,0-13.571,6.968-13.571,15.959,0,9.328,5.012,15.622,14.584,15.622a17.62,17.62,0,0,0,11.318-4.046l-3.322-4.5A12.1,12.1,0,0,1,52.5,92.538c-3.829,0-6.532-1.686-7.095-7.417H64.04C64.1,84.278,64.209,83.041,64.209,82.03Zm-7.94-1.911H45.4c0.394-5.619,2.365-7.755,5.518-7.755,3.829,0,5.349,2.922,5.349,7.417v0.337Zm30.4-13.205c-3.829,0-6.7,1.686-9.122,4.664l-0.619-3.765H70.005V97.6h8V77.029c1.633-2.641,3.435-4.158,5.744-4.158,2.027,0,3.266.955,3.266,4.383V97.6h8V75.9C95.007,70.285,91.91,66.914,86.673,66.914ZM127.831,82.03c0-9.5-5.012-15.116-13.458-15.116-8.728,0-13.571,6.968-13.571,15.959,0,9.328,5.012,15.622,14.585,15.622a17.62,17.62,0,0,0,11.318-4.046l-3.322-4.5a12.1,12.1,0,0,1-7.264,2.585c-3.829,0-6.532-1.686-7.095-7.417h18.638C127.718,84.278,127.831,83.041,127.831,82.03Zm-7.94-1.911H109.024c0.394-5.619,2.365-7.755,5.518-7.755,3.829,0,5.349,2.922,5.349,7.417v0.337Zm26.518-19.106a11.31,11.31,0,0,1,4.843,1.124l2.2-5.282a17.918,17.918,0,0,0-7.884-1.8c-7.263,0-10.924,4.271-10.924,9.778v2.978h-4.73v5.619h4.73V97.6h8V73.432h6.194l0.9-5.619h-7.095V65.059C142.636,62.25,143.706,61.014,146.409,61.014Zm10.922-8.541a4.667,4.667,0,1,0,0,9.328A4.67,4.67,0,1,0,157.331,52.472Zm4.054,15.341h-8V97.6h8V67.813Zm20.326-.9c-8.728,0-14.247,6.575-14.247,16.015,0,9.5,5.462,15.566,14.359,15.566a14.987,14.987,0,0,0,9.8-3.484l-3.491-5c-2.2,1.4-3.716,2.079-5.913,2.079-3.772,0-6.306-2.3-6.306-9.216s2.365-9.778,6.363-9.778a9.086,9.086,0,0,1,5.856,2.135l3.491-4.72A14.346,14.346,0,0,0,181.711,66.914ZM200.12,52.472a4.667,4.667,0,1,0,0,9.328A4.67,4.67,0,1,0,200.12,52.472Zm4.055,15.341h-8V97.6h8V67.813Zm30.687,21.522V77.31c0-6.743-3.548-10.4-11.826-10.4A31.071,31.071,0,0,0,212,69.105l1.8,5.338a27.3,27.3,0,0,1,7.883-1.573c3.773,0,5.349,1.18,5.349,4.889V79.22H223.6c-8.841,0-13.74,3.54-13.74,10.059,0,5.394,3.716,9.216,9.685,9.216A10.1,10.1,0,0,0,228.5,94c1.238,2.978,3.491,4.1,6.869,4.383l1.69-5.282C235.594,92.594,234.862,91.751,234.862,89.335Zm-13.121,3.428c-2.477,0-3.829-1.517-3.829-4.158,0-3.259,2.14-4.833,6.476-4.833h2.646v5.676A5.91,5.91,0,0,1,221.741,92.763ZM260.7,55.057V69.892a10.24,10.24,0,0,0-7.264-2.978c-7.377,0-12.107,6.575-12.107,15.79,0,9.5,3.829,15.79,11.318,15.79a10.051,10.051,0,0,0,8.56-4.552l0.45,3.653H268.7V55.956Zm-5.688,37.481c-3.209,0-5.349-2.36-5.349-9.834,0-6.968,2.365-9.89,5.856-9.89,2.2,0,3.717,1.068,5.181,2.81V88.942C259.127,91.3,257.438,92.538,255.016,92.538Zm44.368-3.2V77.31c0-6.743-3.547-10.4-11.825-10.4a31.071,31.071,0,0,0-11.036,2.192l1.8,5.338a27.31,27.31,0,0,1,7.884-1.573c3.773,0,5.349,1.18,5.349,4.889V79.22h-3.435c-8.84,0-13.739,3.54-13.739,10.059,0,5.394,3.716,9.216,9.685,9.216a10.1,10.1,0,0,0,8.953-4.5c1.239,2.978,3.492,4.1,6.87,4.383L301.58,93.1C300.116,92.594,299.384,91.751,299.384,89.335Zm-13.12,3.428c-2.477,0-3.829-1.517-3.829-4.158,0-3.259,2.14-4.833,6.476-4.833h2.646v5.676A5.911,5.911,0,0,1,286.264,92.763Zm30.46-25.849c-7.207,0-11.825,3.821-11.825,8.879,0,4.5,2.816,7.474,8.841,9.16,5.518,1.517,6.588,2.248,6.588,4.5,0,2.023-1.915,3.259-4.9,3.259a13.153,13.153,0,0,1-8-2.922l-3.942,4.383a17.716,17.716,0,0,0,12.163,4.327c7.1,0,12.895-3.484,12.895-9.665,0-5.282-3.378-7.755-9.347-9.384-5.237-1.517-6.251-2.3-6.251-4.046,0-1.63,1.464-2.7,4.111-2.7a13.811,13.811,0,0,1,7.433,2.36l3.041-4.552A17.018,17.018,0,0,0,316.724,66.914Zm-304.057,53a6.423,6.423,0,0,0-5.3,2.865l-0.236-2.461H4.694v24.847l2.838-.337v-8.5a5.8,5.8,0,0,0,4.763,2.124c4.527,0,6.926-3.877,6.926-9.305C19.221,123.519,17.3,119.912,12.667,119.912ZM11.62,136.128a4.8,4.8,0,0,1-4.088-2.293v-8.8a5.524,5.524,0,0,1,4.459-2.865c2.77,0,4.155,2.258,4.155,6.978C16.147,133.9,14.559,136.128,11.62,136.128Zm19.39-16.216c-4.966,0-7.838,3.742-7.838,9.305,0,5.63,2.838,9.237,7.8,9.237s7.838-3.742,7.838-9.305C38.814,123.485,36.01,119.912,31.01,119.912Zm0,2.292c3.074,0,4.763,2.259,4.763,6.945,0,4.754-1.723,7.012-4.8,7.012s-4.763-2.258-4.763-6.944C26.213,124.463,27.97,122.2,31.01,122.2Zm20.539-2.292c-2.23,0-3.885,1.382-4.831,4.113l-0.27-3.709H44.016v17.733h2.838V127.767c0.777-3.473,2.094-5.091,4.358-5.091a5.421,5.421,0,0,1,1.554.2l0.541-2.765A7.371,7.371,0,0,0,51.549,119.912Zm17.734,18.542a5.211,5.211,0,0,0,2.365-.573l-0.743-1.989a3.215,3.215,0,0,1-1.182.2c-0.845,0-1.182-.506-1.182-1.483V112.832l-2.838.337v21.509C65.7,137.139,67.122,138.454,69.284,138.454Zm18.04-4.484v-8.226c0-3.675-1.926-5.832-6.149-5.832a16.631,16.631,0,0,0-6.013,1.213l0.709,2.091a14.952,14.952,0,0,1,4.8-.978c2.568,0,3.818,1.011,3.818,3.641V127.3H81.581c-4.865,0-7.7,2.023-7.7,5.8,0,3.169,2.094,5.36,5.608,5.36a6,6,0,0,0,5.338-2.731,3.492,3.492,0,0,0,3.311,2.731l0.676-1.989C87.864,136.128,87.324,135.622,87.324,133.97Zm-7.2,2.326c-2.128,0-3.243-1.18-3.243-3.337,0-2.529,1.757-3.776,5.067-3.776h2.534v4.248A4.78,4.78,0,0,1,80.128,136.3Zm18.411-16.384c-3.581,0-6.284,2.023-6.284,4.821,0,2.494,1.52,4.079,5.371,5.09,3.48,0.944,4.392,1.619,4.392,3.473,0,1.787-1.554,2.865-3.952,2.865a8.062,8.062,0,0,1-5.034-1.753l-1.52,1.72a9.608,9.608,0,0,0,6.621,2.326c3.581,0,6.858-1.72,6.858-5.327,0-3.1-2.061-4.517-5.844-5.5-2.939-.775-3.919-1.45-3.919-2.967s1.317-2.494,3.412-2.494a7.868,7.868,0,0,1,4.628,1.55l1.25-1.786A9.337,9.337,0,0,0,98.539,119.912Zm21.383-7.956a1.956,1.956,0,1,0,2.027,1.955A1.9,1.9,0,0,0,119.922,111.956Zm1.453,8.36h-2.838v17.733h2.838V120.316Zm14.66-.4a6.724,6.724,0,0,0-5.574,3.1l-0.236-2.7h-2.433v17.733h2.838V125.407c1.25-1.955,2.669-3.27,4.764-3.27,1.824,0,2.905.876,2.905,3.607v12.305h2.838V125.34C141.137,121.968,139.312,119.912,136.035,119.912Zm12.7-7.956a1.956,1.956,0,1,0,2.027,1.955A1.905,1.905,0,0,0,148.737,111.956Zm1.453,8.36h-2.838v17.733h2.838V120.316Zm12.9-.4c-4.763,0-7.7,3.742-7.7,9.406,0,5.731,2.973,9.136,7.7,9.136a8.077,8.077,0,0,0,5.338-1.956l-1.318-1.854a6.382,6.382,0,0,1-3.919,1.383c-2.905,0-4.763-2.023-4.763-6.743,0-4.754,1.858-7.012,4.763-7.012a6.061,6.061,0,0,1,3.852,1.314l1.385-1.786A7.8,7.8,0,0,0,163.094,119.912Zm10.979-7.956a1.956,1.956,0,1,0,2.027,1.955A1.9,1.9,0,0,0,174.073,111.956Zm1.452,8.36h-2.837v17.733h2.837V120.316Zm18.107,13.654v-8.226c0-3.675-1.925-5.832-6.148-5.832a16.634,16.634,0,0,0-6.014,1.213l0.71,2.091a14.951,14.951,0,0,1,4.8-.978c2.567,0,3.817,1.011,3.817,3.641V127.3h-2.905c-4.865,0-7.7,2.023-7.7,5.8,0,3.169,2.094,5.36,5.608,5.36a5.994,5.994,0,0,0,5.337-2.731,3.492,3.492,0,0,0,3.311,2.731l0.676-1.989C194.173,136.128,193.632,135.622,193.632,133.97Zm-7.2,2.326c-2.128,0-3.243-1.18-3.243-3.337,0-2.529,1.757-3.776,5.068-3.776h2.533v4.248A4.78,4.78,0,0,1,186.436,136.3Zm21.418-.944a4.736,4.736,0,0,1-2.466.742c-1.588,0-2.23-.877-2.23-2.731V122.508h3.986l0.3-2.192h-4.29v-4.382l-2.838.3v4.079h-3.074v2.192h3.074V133.5c0,3.236,1.757,4.956,4.7,4.956a6.808,6.808,0,0,0,3.919-1.18Zm5.675-23.4a1.956,1.956,0,1,0,2.027,1.955A1.906,1.906,0,0,0,213.529,111.956Zm1.452,8.36h-2.837v17.733h2.837V120.316Zm19.29,0h-3.007l-4.763,15.2-4.831-15.2h-3.108l6.182,17.733h3.446Zm15.1,13.654v-8.226c0-3.675-1.925-5.832-6.148-5.832a16.634,16.634,0,0,0-6.014,1.213l0.71,2.091a14.951,14.951,0,0,1,4.8-.978c2.568,0,3.817,1.011,3.817,3.641V127.3h-2.905c-4.865,0-7.7,2.023-7.7,5.8,0,3.169,2.094,5.36,5.608,5.36a5.994,5.994,0,0,0,5.337-2.731,3.492,3.492,0,0,0,3.311,2.731l0.676-1.989C249.912,136.128,249.371,135.622,249.371,133.97Zm-7.2,2.326c-2.129,0-3.244-1.18-3.244-3.337,0-2.529,1.757-3.776,5.068-3.776h2.533v4.248A4.779,4.779,0,0,1,242.176,136.3Zm18.41-16.384c-3.581,0-6.283,2.023-6.283,4.821,0,2.494,1.52,4.079,5.371,5.09,3.48,0.944,4.392,1.619,4.392,3.473,0,1.787-1.554,2.865-3.953,2.865a8.059,8.059,0,0,1-5.033-1.753l-1.521,1.72a9.611,9.611,0,0,0,6.622,2.326c3.581,0,6.858-1.72,6.858-5.327,0-3.1-2.061-4.517-5.845-5.5-2.939-.775-3.919-1.45-3.919-2.967s1.318-2.494,3.412-2.494a7.868,7.868,0,0,1,4.629,1.55l1.25-1.786A9.339,9.339,0,0,0,260.586,119.912Zm30.572-7.08v9.305a6.443,6.443,0,0,0-4.831-2.225c-4.358,0-6.959,3.91-6.959,9.338,0,5.563,2.4,9.2,6.689,9.2a5.989,5.989,0,0,0,5.169-2.9l0.3,2.494H294v-24.88ZM286.631,136.2c-2.668,0-4.222-2.259-4.222-6.978s1.756-7.046,4.526-7.046a5.084,5.084,0,0,1,4.223,2.393V133.4C289.976,135.184,288.692,136.2,286.631,136.2Zm27.093-7.585c0-5.361-2.466-8.7-7.229-8.7-4.527,0-7.3,3.877-7.3,9.439,0,5.63,2.871,9.1,7.77,9.1a9.441,9.441,0,0,0,6.114-2.225l-1.25-1.686a7.565,7.565,0,0,1-4.662,1.585c-2.668,0-4.695-1.686-4.966-5.968h11.453C313.69,129.79,313.724,129.217,313.724,128.61Zm-2.8-.54H302.2c0.237-4.146,1.892-5.9,4.358-5.9,2.939,0,4.358,2.056,4.358,5.63v0.269Zm25.1-8.158a6.724,6.724,0,0,0-5.574,3.1l-0.236-2.7h-2.433v17.733h2.838V125.407c1.25-1.955,2.669-3.27,4.764-3.27,1.824,0,2.905.876,2.905,3.607v12.305h2.838V125.34C341.121,121.968,339.3,119.912,336.019,119.912Zm24.323,0.4H357.5v12.71c-1.114,1.854-2.6,3.169-4.628,3.169-1.993,0-2.9-.944-2.9-3.472V120.316h-2.838v12.71c0,3.472,1.858,5.428,4.966,5.428a6.067,6.067,0,0,0,5.608-3.27l0.2,2.865h2.432V120.316Zm19.729,8.294c0-5.361-2.467-8.7-7.23-8.7-4.527,0-7.3,3.877-7.3,9.439,0,5.63,2.872,9.1,7.77,9.1a9.443,9.443,0,0,0,6.115-2.225l-1.25-1.686a7.567,7.567,0,0,1-4.662,1.585c-2.669,0-4.7-1.686-4.966-5.968H380C380.037,129.79,380.071,129.217,380.071,128.61Zm-2.8-.54h-8.716c0.236-4.146,1.891-5.9,4.358-5.9,2.939,0,4.358,2.056,4.358,5.63v0.269Zm12.566-8.158c-3.581,0-6.284,2.023-6.284,4.821,0,2.494,1.521,4.079,5.372,5.09,3.479,0.944,4.392,1.619,4.392,3.473,0,1.787-1.554,2.865-3.953,2.865a8.063,8.063,0,0,1-5.034-1.753l-1.52,1.72a9.609,9.609,0,0,0,6.622,2.326c3.581,0,6.857-1.72,6.857-5.327,0-3.1-2.06-4.517-5.844-5.5-2.939-.775-3.919-1.45-3.919-2.967s1.318-2.494,3.412-2.494a7.87,7.87,0,0,1,4.629,1.55l1.25-1.786A9.341,9.341,0,0,0,389.833,119.912Zm18.715,15.44a4.733,4.733,0,0,1-2.466.742c-1.588,0-2.23-.877-2.23-2.731V122.508h3.987l0.3-2.192h-4.291v-4.382l-2.838.3v4.079H397.94v2.192h3.074V133.5c0,3.236,1.757,4.956,4.7,4.956a6.806,6.806,0,0,0,3.919-1.18Zm11.823-15.44c-2.229,0-3.885,1.382-4.831,4.113l-0.27-3.709h-2.432v17.733h2.838V127.767c0.777-3.473,2.094-5.091,4.358-5.091a5.426,5.426,0,0,1,1.554.2l0.54-2.765A7.371,7.371,0,0,0,420.371,119.912Zm11.283,0c-4.966,0-7.837,3.742-7.837,9.305,0,5.63,2.837,9.237,7.8,9.237s7.838-3.742,7.838-9.305C439.458,123.485,436.654,119.912,431.654,119.912Zm0,2.292c3.074,0,4.764,2.259,4.764,6.945,0,4.754-1.723,7.012-4.8,7.012s-4.763-2.258-4.763-6.944C426.857,124.463,428.614,122.2,431.654,122.2ZM12.667,160.366a6.423,6.423,0,0,0-5.3,2.865L7.127,160.77H4.694v24.847l2.838-.337v-8.5a5.8,5.8,0,0,0,4.763,2.124c4.527,0,6.926-3.877,6.926-9.3C19.221,163.973,17.3,160.366,12.667,160.366ZM11.62,176.582a4.8,4.8,0,0,1-4.088-2.293v-8.8a5.524,5.524,0,0,1,4.459-2.865c2.77,0,4.155,2.258,4.155,6.978C16.147,174.357,14.559,176.582,11.62,176.582Zm20.3-16.216c-2.23,0-3.885,1.382-4.831,4.113l-0.27-3.709H24.389V178.5h2.838V168.221c0.777-3.473,2.095-5.091,4.358-5.091a5.42,5.42,0,0,1,1.554.2l0.541-2.765A7.373,7.373,0,0,0,31.922,160.366Zm11.283,0c-4.966,0-7.838,3.742-7.838,9.3,0,5.63,2.838,9.237,7.8,9.237s7.838-3.742,7.838-9.3C51.009,163.939,48.2,160.366,43.205,160.366Zm0,2.292c3.074,0,4.763,2.259,4.763,6.945,0,4.754-1.723,7.012-4.8,7.012s-4.763-2.258-4.763-6.944C38.408,164.917,40.165,162.658,43.205,162.658Zm26.316-3.776c-1.993.911-3.547,1.585-8.04,1.484-3.919,0-6.757,2.528-6.757,6.136a5.122,5.122,0,0,0,2.973,4.955,3.753,3.753,0,0,0-1.926,3.1c0,1.753,1.419,3.3,4.527,3.3h2.8c2.3,0,3.682.876,3.682,2.629,0,1.855-1.385,2.9-5.3,2.9-3.986,0-5-.944-5-3.068H53.913c0,3.573,1.858,5.293,7.567,5.293,5.439,0,8.175-1.922,8.175-5.327,0-2.764-2.365-4.821-5.979-4.821H60.839c-1.892,0-2.432-.674-2.432-1.517a2.108,2.108,0,0,1,.98-1.753,7.073,7.073,0,0,0,2.264.337c4.189,0,6.689-2.5,6.689-5.967a4.658,4.658,0,0,0-3.108-4.551,18.858,18.858,0,0,0,5.135-.54Zm-8.04,3.54c2.635,0,3.953,1.45,3.953,4.08s-1.351,4.146-3.885,4.146c-2.5,0-3.919-1.652-3.919-4.146C57.629,164.142,58.947,162.422,61.481,162.422Zm19.728-2.056c-2.23,0-3.885,1.382-4.831,4.113l-0.27-3.709H73.676V178.5h2.838V168.221c0.777-3.473,2.094-5.091,4.358-5.091a5.421,5.421,0,0,1,1.554.2l0.541-2.765A7.371,7.371,0,0,0,81.209,160.366Zm16.317,14.058V166.2c0-3.675-1.926-5.832-6.148-5.832a16.63,16.63,0,0,0-6.013,1.213l0.709,2.091a14.952,14.952,0,0,1,4.8-.978c2.567,0,3.817,1.011,3.817,3.641v1.416H91.783c-4.865,0-7.7,2.023-7.7,5.8,0,3.169,2.094,5.36,5.608,5.36a6,6,0,0,0,5.338-2.731,3.492,3.492,0,0,0,3.311,2.731l0.676-1.989C98.066,176.582,97.526,176.076,97.526,174.424Zm-7.2,2.326c-2.128,0-3.243-1.18-3.243-3.337,0-2.529,1.757-3.776,5.067-3.776h2.534v4.248A4.78,4.78,0,0,1,90.33,176.75Zm31.35-16.384c-2.365,0-4.054,1.315-5.338,3.27a4.438,4.438,0,0,0-4.459-3.27,6.156,6.156,0,0,0-5.237,3.1l-0.236-2.7h-2.433V178.5h2.838V165.861c1.216-1.955,2.4-3.27,4.358-3.27,1.487,0,2.635.876,2.635,3.607v12.3h2.838V165.861c1.25-1.955,2.4-3.27,4.358-3.27,1.486,0,2.635.876,2.635,3.607v12.3h2.838V165.794C126.477,162.456,124.585,160.366,121.68,160.366Zm22.7,14.058V166.2c0-3.675-1.925-5.832-6.148-5.832a16.624,16.624,0,0,0-6.013,1.213l0.709,2.091a14.951,14.951,0,0,1,4.8-.978c2.568,0,3.818,1.011,3.818,3.641v1.416h-2.906c-4.864,0-7.7,2.023-7.7,5.8,0,3.169,2.094,5.36,5.608,5.36a5.994,5.994,0,0,0,5.337-2.731,3.492,3.492,0,0,0,3.311,2.731l0.676-1.989C144.921,176.582,144.38,176.076,144.38,174.424Zm-7.195,2.326c-2.129,0-3.244-1.18-3.244-3.337,0-2.529,1.757-3.776,5.068-3.776h2.534v4.248A4.782,4.782,0,0,1,137.185,176.75Zm33.274-23.464v9.305a6.445,6.445,0,0,0-4.831-2.225c-4.358,0-6.959,3.911-6.959,9.338,0,5.563,2.4,9.2,6.689,9.2a5.991,5.991,0,0,0,5.169-2.9l0.3,2.494H173.3v-24.88Zm-4.527,23.363c-2.669,0-4.223-2.259-4.223-6.978s1.757-7.046,4.527-7.046a5.086,5.086,0,0,1,4.223,2.393v8.833C169.277,175.638,167.993,176.649,165.932,176.649Zm27.093-7.585c0-5.361-2.466-8.7-7.23-8.7-4.526,0-7.3,3.877-7.3,9.439,0,5.63,2.872,9.1,7.77,9.1a9.441,9.441,0,0,0,6.115-2.225L191.133,175a7.565,7.565,0,0,1-4.662,1.585c-2.669,0-4.7-1.686-4.966-5.967h11.452C192.991,170.244,193.025,169.671,193.025,169.064Zm-2.8-.54h-8.716c0.237-4.146,1.892-5.9,4.358-5.9,2.939,0,4.358,2.056,4.358,5.63v0.269Zm29.727-7.754h-3.006l-4.764,15.2-4.831-15.2h-3.108l6.183,17.733h3.445Zm10.1-.4c-4.966,0-7.837,3.742-7.837,9.3,0,5.63,2.837,9.237,7.8,9.237s7.838-3.742,7.838-9.3C237.853,163.939,235.049,160.366,230.049,160.366Zm0,2.292c3.074,0,4.764,2.259,4.764,6.945,0,4.754-1.723,7.012-4.8,7.012s-4.763-2.258-4.763-6.944C225.252,164.917,227.009,162.658,230.049,162.658Zm16.384,16.25a5.213,5.213,0,0,0,2.365-.573l-0.743-1.989a3.22,3.22,0,0,1-1.183.2c-0.844,0-1.182-.506-1.182-1.483V153.286l-2.838.337v21.509C242.852,177.593,244.271,178.908,246.433,178.908Zm19.526-18.138h-2.838v12.71c-1.115,1.854-2.6,3.169-4.628,3.169-1.993,0-2.905-.944-2.905-3.472V160.77H252.75v12.71c0,3.473,1.858,5.428,4.966,5.428a6.068,6.068,0,0,0,5.608-3.27l0.2,2.865h2.432V160.77Zm14.661-.4a6.723,6.723,0,0,0-5.574,3.1l-0.237-2.7h-2.432V178.5h2.838V165.861c1.25-1.955,2.669-3.27,4.763-3.27,1.824,0,2.906.876,2.906,3.607v12.3h2.837V165.794C285.721,162.422,283.9,160.366,280.62,160.366Zm19.086,15.44a4.731,4.731,0,0,1-2.466.742c-1.587,0-2.229-.877-2.229-2.731V162.962H299l0.3-2.192h-4.29v-4.382l-2.838.3v4.079H289.1v2.192h3.074v10.99c0,3.237,1.757,4.956,4.7,4.956a6.808,6.808,0,0,0,3.919-1.18Zm15.979-1.382V166.2c0-3.675-1.925-5.832-6.148-5.832a16.634,16.634,0,0,0-6.014,1.213l0.71,2.091a14.951,14.951,0,0,1,4.8-.978c2.567,0,3.817,1.011,3.817,3.641v1.416h-2.9c-4.865,0-7.7,2.023-7.7,5.8,0,3.169,2.094,5.36,5.608,5.36a5.994,5.994,0,0,0,5.337-2.731,3.492,3.492,0,0,0,3.311,2.731l0.676-1.989C316.226,176.582,315.685,176.076,315.685,174.424Zm-7.2,2.326c-2.128,0-3.243-1.18-3.243-3.337,0-2.529,1.757-3.776,5.068-3.776h2.533v4.248A4.78,4.78,0,0,1,308.489,176.75Zm21.181-16.384c-2.229,0-3.885,1.382-4.831,4.113l-0.27-3.709h-2.432V178.5h2.837V168.221c0.777-3.473,2.1-5.091,4.358-5.091a5.416,5.416,0,0,1,1.554.2l0.541-2.765A7.377,7.377,0,0,0,329.67,160.366Zm6.688-7.956a1.956,1.956,0,1,0,2.027,1.955A1.905,1.905,0,0,0,336.358,152.41Zm1.453,8.36h-2.838V178.5h2.838V160.77Zm18.107,13.654V166.2c0-3.675-1.926-5.832-6.149-5.832a16.629,16.629,0,0,0-6.013,1.213l0.71,2.091a14.946,14.946,0,0,1,4.8-.978c2.567,0,3.817,1.011,3.817,3.641v1.416h-2.9c-4.865,0-7.7,2.023-7.7,5.8,0,3.169,2.1,5.36,5.608,5.36a6,6,0,0,0,5.338-2.731,3.492,3.492,0,0,0,3.311,2.731l0.675-1.989C356.458,176.582,355.918,176.076,355.918,174.424Zm-7.2,2.326c-2.128,0-3.243-1.18-3.243-3.337,0-2.529,1.757-3.776,5.067-3.776h2.534v4.248A4.78,4.78,0,0,1,348.722,176.75Zm24.221-23.464v9.305a6.441,6.441,0,0,0-4.831-2.225c-4.358,0-6.959,3.911-6.959,9.338,0,5.563,2.4,9.2,6.689,9.2a5.989,5.989,0,0,0,5.169-2.9l0.3,2.494h2.466v-24.88Zm-4.526,23.363c-2.669,0-4.223-2.259-4.223-6.978s1.756-7.046,4.527-7.046a5.084,5.084,0,0,1,4.222,2.393v8.833C371.761,175.638,370.477,176.649,368.417,176.649Zm20.4-16.283c-4.966,0-7.837,3.742-7.837,9.3,0,5.63,2.838,9.237,7.8,9.237s7.837-3.742,7.837-9.3C396.624,163.939,393.82,160.366,388.82,160.366Zm0,2.292c3.075,0,4.764,2.259,4.764,6.945,0,4.754-1.723,7.012-4.8,7.012s-4.764-2.258-4.764-6.944C384.023,164.917,385.78,162.658,388.82,162.658Zm13.344,11.9A2.154,2.154,0,0,0,400,176.717a2.3,2.3,0,0,0,.912,1.82L399.563,184h2.027l2.2-5.023a5.288,5.288,0,0,0,.575-2.258A2.14,2.14,0,0,0,402.164,174.559ZM19.9,195.763H16.924L10.91,215.822l-5.98-20.059H1.755l7.534,23.194h3.176Zm9.289,5.057c-4.966,0-7.838,3.742-7.838,9.305,0,5.63,2.838,9.237,7.8,9.237s7.838-3.742,7.838-9.305C36.99,204.393,34.186,200.82,29.186,200.82Zm0,2.292c3.074,0,4.763,2.259,4.763,6.945,0,4.754-1.723,7.012-4.8,7.012s-4.763-2.258-4.763-6.944C24.389,205.371,26.145,203.112,29.186,203.112Zm16.384,16.25a5.211,5.211,0,0,0,2.365-.573L47.191,216.8a3.215,3.215,0,0,1-1.182.2c-0.845,0-1.182-.506-1.182-1.483V193.74l-2.838.337v21.509C41.989,218.047,43.408,219.362,45.57,219.362ZM65.1,201.224H62.258v12.71c-1.115,1.854-2.6,3.169-4.628,3.169-1.993,0-2.905-.944-2.905-3.472V201.224H51.887v12.71c0,3.473,1.858,5.428,4.966,5.428a6.067,6.067,0,0,0,5.608-3.27l0.2,2.865H65.1V201.224Zm14.661-.4a6.723,6.723,0,0,0-5.574,3.1l-0.236-2.7H71.514v17.733h2.838V206.315c1.25-1.955,2.669-3.27,4.763-3.27,1.824,0,2.905.876,2.905,3.607v12.305h2.838V206.248C84.858,202.876,83.034,200.82,79.757,200.82Zm19.086,15.44a4.733,4.733,0,0,1-2.466.742c-1.588,0-2.23-.877-2.23-2.731V203.416h3.986l0.3-2.192h-4.29v-4.382l-2.838.3v4.079H88.235v2.192H91.31v10.99c0,3.237,1.757,4.956,4.7,4.956a6.806,6.806,0,0,0,3.919-1.18Zm15.979-1.382v-8.226c0-3.675-1.926-5.832-6.149-5.832a16.61,16.61,0,0,0-6.013,1.214l0.71,2.09a14.946,14.946,0,0,1,4.8-.978c2.567,0,3.817,1.011,3.817,3.641V208.2h-2.905c-4.865,0-7.7,2.023-7.7,5.8,0,3.169,2.095,5.36,5.608,5.36a6,6,0,0,0,5.338-2.731,3.492,3.492,0,0,0,3.311,2.731l0.675-1.989C115.362,217.036,114.822,216.53,114.822,214.878Zm-7.2,2.326c-2.128,0-3.243-1.18-3.243-3.337,0-2.529,1.757-3.776,5.067-3.776h2.534v4.248A4.78,4.78,0,0,1,107.626,217.2Zm24.221-23.464v9.3a6.441,6.441,0,0,0-4.831-2.225c-4.358,0-6.959,3.911-6.959,9.338,0,5.563,2.4,9.2,6.689,9.2a5.989,5.989,0,0,0,5.169-2.9l0.3,2.494h2.466v-24.88ZM127.321,217.1c-2.669,0-4.223-2.259-4.223-6.978s1.756-7.046,4.527-7.046a5.084,5.084,0,0,1,4.222,2.393v8.833C130.665,216.092,129.381,217.1,127.321,217.1Zm27.092-7.585c0-5.361-2.466-8.7-7.229-8.7-4.527,0-7.3,3.877-7.3,9.439,0,5.63,2.871,9.1,7.77,9.1a9.439,9.439,0,0,0,6.114-2.225l-1.25-1.686a7.565,7.565,0,0,1-4.662,1.585c-2.668,0-4.7-1.686-4.966-5.967h11.453C154.38,210.7,154.413,210.125,154.413,209.518Zm-2.8-.54h-8.716c0.237-4.146,1.892-5.9,4.358-5.9,2.939,0,4.358,2.056,4.358,5.63v0.269Zm12.567-8.158c-3.581,0-6.284,2.023-6.284,4.821,0,2.5,1.52,4.079,5.372,5.09,3.479,0.944,4.391,1.619,4.391,3.473,0,1.787-1.554,2.865-3.952,2.865a8.063,8.063,0,0,1-5.034-1.753l-1.52,1.72a9.606,9.606,0,0,0,6.621,2.326c3.581,0,6.858-1.719,6.858-5.327,0-3.1-2.061-4.517-5.844-5.5-2.939-.775-3.919-1.45-3.919-2.967s1.318-2.494,3.412-2.494a7.868,7.868,0,0,1,4.628,1.55l1.25-1.786A9.342,9.342,0,0,0,164.176,200.82Zm28.342-5.462c-5.27,0-9.594,4.113-9.594,12,0,7.788,4.054,12,9.628,12a9.08,9.08,0,0,0,6.554-2.562l-1.453-1.854a7.8,7.8,0,0,1-5,1.921c-3.716,0-6.621-2.731-6.621-9.507,0-7.113,3.007-9.574,6.655-9.574a6.95,6.95,0,0,1,4.561,1.719l1.588-1.888A9.033,9.033,0,0,0,192.518,195.358Zm19.492-.842-1.283-2.428-6.622,3.776,0.879,1.517Zm2.365,20.362v-8.226c0-3.675-1.925-5.832-6.148-5.832a16.615,16.615,0,0,0-6.014,1.214l0.71,2.09a14.951,14.951,0,0,1,4.8-.978c2.567,0,3.817,1.011,3.817,3.641V208.2h-2.905c-4.865,0-7.7,2.023-7.7,5.8,0,3.169,2.094,5.36,5.608,5.36a6.071,6.071,0,0,0,5.337-2.731,3.456,3.456,0,0,0,3.311,2.731l0.676-1.989C214.916,217.036,214.375,216.53,214.375,214.878Zm-7.2,2.326c-2.128,0-3.243-1.18-3.243-3.337,0-2.529,1.757-3.776,5.068-3.776h2.533v4.214A4.724,4.724,0,0,1,207.179,217.2Zm16.857,2.158a5.21,5.21,0,0,0,2.365-.573l-0.743-1.989a3.214,3.214,0,0,1-1.182.2c-0.845,0-1.183-.506-1.183-1.483V193.74l-2.838.337v21.509C220.455,218.047,221.874,219.362,224.036,219.362Zm7.905-26.5a1.956,1.956,0,1,0,2.027,1.955A1.905,1.905,0,0,0,231.941,192.864Zm1.453,8.36h-2.838v17.733h2.838V201.224Zm16.992-7.484v9.3a6.445,6.445,0,0,0-4.831-2.225c-4.358,0-6.959,3.911-6.959,9.338,0,5.563,2.4,9.2,6.689,9.2a5.988,5.988,0,0,0,5.168-2.9l0.3,2.494h2.467v-24.88ZM245.859,217.1c-2.669,0-4.223-2.259-4.223-6.978s1.757-7.046,4.527-7.046a5.086,5.086,0,0,1,4.223,2.393v8.833C249.2,216.092,247.92,217.1,245.859,217.1Zm24.356-23.363v9.3a6.441,6.441,0,0,0-4.831-2.225c-4.358,0-6.959,3.911-6.959,9.338,0,5.563,2.4,9.2,6.689,9.2a5.989,5.989,0,0,0,5.169-2.9l0.3,2.494h2.466v-24.88ZM265.688,217.1c-2.668,0-4.222-2.259-4.222-6.978s1.756-7.046,4.527-7.046a5.084,5.084,0,0,1,4.222,2.393v8.833C269.033,216.092,267.749,217.1,265.688,217.1Zm25.472-2.225v-8.226c0-3.675-1.926-5.832-6.149-5.832A16.61,16.61,0,0,0,279,202.034l0.709,2.09a14.957,14.957,0,0,1,4.8-.978c2.567,0,3.817,1.011,3.817,3.641V208.2h-2.905c-4.865,0-7.7,2.023-7.7,5.8,0,3.169,2.1,5.36,5.608,5.36a6,6,0,0,0,5.338-2.731,3.492,3.492,0,0,0,3.311,2.731l0.675-1.989C291.7,217.036,291.16,216.53,291.16,214.878Zm-7.2,2.326c-2.128,0-3.243-1.18-3.243-3.337,0-2.529,1.757-3.776,5.067-3.776h2.534v4.248A4.78,4.78,0,0,1,283.964,217.2Zm18.411-16.384c-3.581,0-6.284,2.023-6.284,4.821,0,2.5,1.52,4.079,5.371,5.09,3.48,0.944,4.392,1.619,4.392,3.473,0,1.787-1.554,2.865-3.952,2.865a8.061,8.061,0,0,1-5.034-1.753l-1.52,1.72a9.606,9.606,0,0,0,6.621,2.326c3.581,0,6.858-1.719,6.858-5.327,0-3.1-2.061-4.517-5.844-5.5-2.939-.775-3.919-1.45-3.919-2.967s1.317-2.494,3.412-2.494a7.868,7.868,0,0,1,4.628,1.55l1.25-1.786A9.342,9.342,0,0,0,302.375,200.82Z"/>
</svg>
