<svg xmlns="http://www.w3.org/2000/svg" width="479" height="102" viewBox="0 0 479 102">
  <defs>
    <style>
      .cls-1 {
        fill: #fff;
        fill-rule: evenodd;
      }
    </style>
  </defs>
  <path id="_47_distritos_conectados_de_Lima_y_Callao_" data-name="47 distritos  conectados de Lima y Callao  " class="cls-1" d="M29.954,32.966H25.442V23.561H18.473l-0.857,9.405h-8l9.539-22L12.3,8.4,1.223,33.65v5.472H17.5l0.057,8.55h7.882v-8.55h4.512V32.966ZM54.918,9.254H30.642V15.41H46.521L33.384,46.076l7.368,2.451L54.918,14.84V9.254ZM92.161,4.523V19.571a10.387,10.387,0,0,0-7.368-3.021c-7.483,0-12.281,6.669-12.281,16.017,0,9.633,3.884,16.017,11.481,16.017a10.194,10.194,0,0,0,8.682-4.617l0.457,3.705h7.14V5.435Zm-5.769,38.02c-3.256,0-5.426-2.394-5.426-9.975,0-7.068,2.4-10.032,5.94-10.032,2.228,0,3.77,1.083,5.255,2.85V38.894C90.562,41.288,88.848,42.542,86.392,42.542ZM112.27,1.9a4.663,4.663,0,0,0-4.912,4.731,4.663,4.663,0,0,0,4.912,4.731A4.737,4.737,0,1,0,112.27,1.9Zm4.113,15.561h-8.111V47.672h8.111V17.462Zm18.05-.912c-7.311,0-11.995,3.876-11.995,9.006,0,4.56,2.856,7.581,8.968,9.291,5.6,1.539,6.683,2.28,6.683,4.56,0,2.052-1.942,3.306-4.969,3.306a13.341,13.341,0,0,1-8.111-2.964l-4,4.446a17.97,17.97,0,0,0,12.338,4.389c7.2,0,13.081-3.534,13.081-9.8,0-5.358-3.428-7.866-9.482-9.519-5.312-1.539-6.341-2.337-6.341-4.1,0-1.653,1.486-2.736,4.17-2.736a14.008,14.008,0,0,1,7.54,2.394L145.4,20.2A17.259,17.259,0,0,0,134.433,16.55ZM167.05,41.117a7.111,7.111,0,0,1-3.427,1.026c-2.056,0-3.027-1.14-3.027-4.1V23.162h6.169l0.8-5.7H160.6V9.881l-8.111.969v6.612h-4.513v5.7h4.513V38.21c0,6.726,3.2,10.317,9.482,10.374a14.337,14.337,0,0,0,7.882-2.337ZM189.1,16.607c-3.541,0-6.454,2.508-7.882,6.726l-0.743-5.871h-7.025V47.672h8.111V32.054c1.085-4.845,2.8-7.581,6.511-7.581a10.178,10.178,0,0,1,2.685.4l1.371-7.809A10.815,10.815,0,0,0,189.1,16.607ZM200.125,1.9a4.664,4.664,0,0,0-4.913,4.731,4.664,4.664,0,0,0,4.913,4.731A4.737,4.737,0,1,0,200.125,1.9Zm4.112,15.561h-8.111V47.672h8.111V17.462Zm23.306,23.655a7.114,7.114,0,0,1-3.427,1.026c-2.056,0-3.028-1.14-3.028-4.1V23.162h6.169l0.8-5.7h-6.969V9.881l-8.11.969v6.612h-4.513v5.7h4.513V38.21c0,6.726,3.2,10.317,9.481,10.374a14.337,14.337,0,0,0,7.883-2.337ZM245.708,16.55c-9.139,0-14.565,6.384-14.565,16.017,0,10.032,5.483,16.017,14.508,16.017,9.082,0,14.508-6.441,14.508-16.017C260.159,22.535,254.733,16.55,245.708,16.55Zm0,6.042c3.941,0,6,3.021,6,9.975,0,6.9-2.057,9.975-6.055,9.975s-6.055-3.021-6.055-9.975C239.6,25.67,241.653,22.592,245.708,22.592Zm30.676-6.042c-7.311,0-12,3.876-12,9.006,0,4.56,2.856,7.581,8.968,9.291,5.6,1.539,6.682,2.28,6.682,4.56,0,2.052-1.942,3.306-4.969,3.306a13.343,13.343,0,0,1-8.111-2.964l-4,4.446A17.97,17.97,0,0,0,275.3,48.584c7.2,0,13.08-3.534,13.08-9.8,0-5.358-3.427-7.866-9.482-9.519-5.312-1.539-6.34-2.337-6.34-4.1,0-1.653,1.485-2.736,4.17-2.736a14.008,14.008,0,0,1,7.539,2.394l3.085-4.617A17.261,17.261,0,0,0,276.384,16.55ZM9.292,70.31c-4.834,0-7.817,3.8-7.817,9.545,0,5.816,3.017,9.272,7.817,9.272a8.2,8.2,0,0,0,5.417-1.984l-1.337-1.882a6.483,6.483,0,0,1-3.977,1.4c-2.948,0-4.834-2.053-4.834-6.843C4.561,75,6.446,72.7,9.395,72.7A6.147,6.147,0,0,1,13.3,74.039l1.406-1.813A7.918,7.918,0,0,0,9.292,70.31Zm15.972,0c-5.04,0-7.954,3.8-7.954,9.443,0,5.714,2.88,9.374,7.92,9.374s7.954-3.8,7.954-9.443C33.184,73.936,30.338,70.31,25.264,70.31Zm0,2.327c3.12,0,4.834,2.292,4.834,7.048,0,4.824-1.748,7.116-4.868,7.116S20.4,84.508,20.4,79.753C20.4,74.929,22.178,72.636,25.264,72.636ZM46.823,70.31a6.823,6.823,0,0,0-5.657,3.148l-0.24-2.737H38.457v18h2.88V75.887c1.269-1.984,2.708-3.319,4.834-3.319,1.851,0,2.948.89,2.948,3.661V88.716H52v-12.9C52,72.4,50.148,70.31,46.823,70.31ZM71.81,79.137c0-5.44-2.5-8.827-7.337-8.827-4.594,0-7.405,3.935-7.405,9.58,0,5.714,2.914,9.238,7.885,9.238a9.581,9.581,0,0,0,6.205-2.258L69.89,85.158a7.679,7.679,0,0,1-4.731,1.608c-2.709,0-4.766-1.711-5.04-6.056H71.741C71.776,80.334,71.81,79.753,71.81,79.137Zm-2.846-.547H60.119c0.24-4.208,1.92-5.987,4.423-5.987,2.983,0,4.423,2.087,4.423,5.714v0.274Zm14.5-8.279c-4.834,0-7.817,3.8-7.817,9.545,0,5.816,3.017,9.272,7.817,9.272a8.2,8.2,0,0,0,5.417-1.984l-1.337-1.882a6.483,6.483,0,0,1-3.977,1.4c-2.948,0-4.834-2.053-4.834-6.843,0-4.824,1.886-7.116,4.834-7.116a6.147,6.147,0,0,1,3.908,1.334l1.406-1.813A7.918,7.918,0,0,0,83.461,70.31Zm17.617,15.67a4.8,4.8,0,0,1-2.5.753c-1.611,0-2.263-.89-2.263-2.771V72.944h4.045l0.309-2.224H96.313V66.273l-2.88.308v4.14h-3.12v2.224h3.12V84.1c0,3.284,1.783,5.029,4.765,5.029a6.9,6.9,0,0,0,3.977-1.2Zm16.213-1.4V76.229c0-3.729-1.954-5.919-6.24-5.919a16.875,16.875,0,0,0-6.1,1.232l0.72,2.121a15.182,15.182,0,0,1,4.868-.992c2.606,0,3.874,1.026,3.874,3.695V77.8h-2.948c-4.937,0-7.817,2.053-7.817,5.885,0,3.216,2.126,5.44,5.691,5.44a6.084,6.084,0,0,0,5.417-2.771,3.543,3.543,0,0,0,3.36,2.771l0.686-2.019C117.84,86.766,117.291,86.253,117.291,84.577Zm-7.3,2.361c-2.16,0-3.292-1.2-3.292-3.387,0-2.566,1.783-3.832,5.143-3.832h2.571v4.311A4.851,4.851,0,0,1,109.989,86.937Zm24.576-23.812v9.443a6.543,6.543,0,0,0-4.9-2.258c-4.423,0-7.063,3.969-7.063,9.477,0,5.645,2.435,9.34,6.789,9.34a6.077,6.077,0,0,0,5.245-2.942l0.309,2.532h2.5V63.467Zm-4.594,23.71c-2.709,0-4.286-2.292-4.286-7.082s1.783-7.151,4.594-7.151a5.16,5.16,0,0,1,4.286,2.429V84C133.365,85.808,132.062,86.835,129.971,86.835Zm20.7-16.525c-5.04,0-7.954,3.8-7.954,9.443,0,5.714,2.88,9.374,7.92,9.374s7.954-3.8,7.954-9.443C158.592,73.936,155.746,70.31,150.672,70.31Zm0,2.327c3.12,0,4.834,2.292,4.834,7.048,0,4.824-1.748,7.116-4.868,7.116s-4.834-2.292-4.834-7.048C145.8,74.929,147.586,72.636,150.672,72.636ZM168.7,70.31c-3.635,0-6.377,2.053-6.377,4.892,0,2.532,1.543,4.14,5.451,5.166,3.531,0.958,4.457,1.642,4.457,3.524,0,1.813-1.577,2.908-4.011,2.908a8.184,8.184,0,0,1-5.109-1.779l-1.542,1.745a9.745,9.745,0,0,0,6.719,2.361c3.634,0,6.96-1.745,6.96-5.406,0-3.148-2.091-4.585-5.931-5.577-2.983-.787-3.977-1.471-3.977-3.011S166.677,72.6,168.8,72.6a7.983,7.983,0,0,1,4.7,1.574l1.269-1.813A9.482,9.482,0,0,0,168.7,70.31Zm31.019-7.185v9.443a6.541,6.541,0,0,0-4.9-2.258c-4.422,0-7.062,3.969-7.062,9.477,0,5.645,2.434,9.34,6.788,9.34a6.08,6.08,0,0,0,5.246-2.942l0.308,2.532h2.5V63.467Zm-4.594,23.71c-2.708,0-4.285-2.292-4.285-7.082s1.782-7.151,4.594-7.151a5.16,5.16,0,0,1,4.285,2.429V84C198.519,85.808,197.216,86.835,195.125,86.835Zm27.49-7.7c0-5.44-2.5-8.827-7.337-8.827-4.594,0-7.405,3.935-7.405,9.58,0,5.714,2.914,9.238,7.885,9.238a9.579,9.579,0,0,0,6.2-2.258L220.7,85.158a7.679,7.679,0,0,1-4.731,1.608c-2.709,0-4.766-1.711-5.04-6.056h11.622C222.581,80.334,222.615,79.753,222.615,79.137Zm-2.846-.547h-8.845c0.24-4.208,1.92-5.987,4.423-5.987,2.982,0,4.422,2.087,4.422,5.714v0.274Zm20.322-13.411h-2.948V88.716h12.342l0.343-2.6h-9.737V65.178Zm15.08-2.942a1.986,1.986,0,1,0,2.057,1.984A1.934,1.934,0,0,0,255.171,62.236Zm1.474,8.485h-2.879v18h2.879v-18Zm24.476-.41c-2.4,0-4.114,1.334-5.417,3.319a4.5,4.5,0,0,0-4.525-3.319,6.245,6.245,0,0,0-5.314,3.148l-0.24-2.737h-2.469v18h2.88V75.887c1.234-1.984,2.434-3.319,4.423-3.319,1.508,0,2.674.89,2.674,3.661V88.716h2.88V75.887c1.268-1.984,2.434-3.319,4.423-3.319,1.508,0,2.674.89,2.674,3.661V88.716h2.88v-12.9C285.99,72.431,284.07,70.31,281.121,70.31Zm23.031,14.267V76.229c0-3.729-1.955-5.919-6.24-5.919a16.876,16.876,0,0,0-6.1,1.232l0.72,2.121a15.187,15.187,0,0,1,4.869-.992c2.6,0,3.874,1.026,3.874,3.695V77.8h-2.949c-4.937,0-7.817,2.053-7.817,5.885,0,3.216,2.126,5.44,5.692,5.44a6.086,6.086,0,0,0,5.417-2.771,3.542,3.542,0,0,0,3.359,2.771l0.686-2.019C304.7,86.766,304.152,86.253,304.152,84.577Zm-7.3,2.361c-2.16,0-3.291-1.2-3.291-3.387,0-2.566,1.783-3.832,5.142-3.832h2.572v4.311A4.853,4.853,0,0,1,296.849,86.937ZM332.907,70.72h-2.982l-4.869,15.909L320.085,70.72H317l6.1,18H324.1c-1.063,2.874-2.057,4.277-5.725,4.961l0.343,2.258c4.834-.616,6.856-3.285,8.125-7.116Zm21.283-5.953c-5.349,0-9.737,4.174-9.737,12.18,0,7.9,4.114,12.18,9.771,12.18a9.214,9.214,0,0,0,6.651-2.6L359.4,84.645a7.916,7.916,0,0,1-5.074,1.95c-3.771,0-6.72-2.771-6.72-9.648,0-7.219,3.051-9.717,6.754-9.717a7.05,7.05,0,0,1,4.628,1.745L360.6,67.06A9.166,9.166,0,0,0,354.19,64.767Zm22.176,19.809V76.229c0-3.729-1.954-5.919-6.239-5.919a16.876,16.876,0,0,0-6.1,1.232l0.72,2.121a15.182,15.182,0,0,1,4.868-.992c2.606,0,3.874,1.026,3.874,3.695V77.8h-2.948c-4.937,0-7.817,2.053-7.817,5.885,0,3.216,2.126,5.44,5.691,5.44a6.084,6.084,0,0,0,5.417-2.771,3.544,3.544,0,0,0,3.36,2.771l0.686-2.019C376.915,86.766,376.366,86.253,376.366,84.577Zm-7.3,2.361c-2.16,0-3.291-1.2-3.291-3.387,0-2.566,1.782-3.832,5.142-3.832h2.571v4.311A4.85,4.85,0,0,1,369.064,86.937Zm17.1,2.19a5.284,5.284,0,0,0,2.4-.582l-0.754-2.019a3.267,3.267,0,0,1-1.2.205c-0.857,0-1.2-.513-1.2-1.505v-22.1l-2.88.342V85.3C382.532,87.793,383.972,89.127,386.166,89.127Zm10.043,0a5.291,5.291,0,0,0,2.4-.582l-0.755-2.019a3.263,3.263,0,0,1-1.2.205c-0.857,0-1.2-.513-1.2-1.505v-22.1l-2.879.342V85.3C392.575,87.793,394.015,89.127,396.209,89.127Zm18.305-4.55V76.229c0-3.729-1.954-5.919-6.24-5.919a16.875,16.875,0,0,0-6.1,1.232l0.72,2.121a15.182,15.182,0,0,1,4.868-.992c2.606,0,3.874,1.026,3.874,3.695V77.8h-2.948c-4.937,0-7.817,2.053-7.817,5.885,0,3.216,2.125,5.44,5.691,5.44a6.084,6.084,0,0,0,5.417-2.771,3.543,3.543,0,0,0,3.36,2.771l0.685-2.019C415.063,86.766,414.514,86.253,414.514,84.577Zm-7.3,2.361c-2.159,0-3.291-1.2-3.291-3.387,0-2.566,1.783-3.832,5.143-3.832h2.571v4.311A4.852,4.852,0,0,1,407.211,86.937ZM427.776,70.31c-5.04,0-7.954,3.8-7.954,9.443,0,5.714,2.88,9.374,7.92,9.374s7.954-3.8,7.954-9.443C435.7,73.936,432.85,70.31,427.776,70.31Zm0,2.327c3.12,0,4.834,2.292,4.834,7.048,0,4.824-1.748,7.116-4.868,7.116s-4.834-2.292-4.834-7.048C422.908,74.929,424.691,72.636,427.776,72.636Z"/>
</svg>
