<svg xmlns="http://www.w3.org/2000/svg" width="479" height="235" viewBox="0 0 479 235">
  <defs>
    <style>
      .cls-1 {
        fill: #fff;
        fill-rule: evenodd;
      }
    </style>
  </defs>
  <path id="_1_millón_de_conexiones_hito_alcanzado_en_el_hospital_Alberto_L" data-name="1 millón de conexiones hito alcanzado en el hospital  Alberto L" class="cls-1" d="M21.368,13.928H14.474L2.119,21.317l3.42,5.254L13.7,21.591V50.817h7.667V13.928Zm53.826,7.006c-3.751,0-6.453,1.7-8.77,4.707a7,7,0,0,0-6.95-4.707,10.108,10.108,0,0,0-8.494,4.488L50.374,21.81H43.59V50.817h7.832V30.786c1.434-2.572,2.868-4.05,5.019-4.05,1.6,0,2.868.93,2.868,4.269V50.817h7.832V30.786c1.489-2.572,2.923-4.05,5.074-4.05,1.544,0,2.868.93,2.868,4.269V50.817h7.832V29.691C82.916,24.218,79.772,20.934,75.194,20.934ZM94.216,6.868a4.491,4.491,0,0,0-4.743,4.543,4.491,4.491,0,0,0,4.743,4.543A4.55,4.55,0,1,0,94.216,6.868ZM98.187,21.81H90.355V50.817h7.832V21.81Zm15,29.883a12.941,12.941,0,0,0,5.019-.985l-1.6-5.528a3.383,3.383,0,0,1-1.545.328c-1.1,0-1.6-.657-1.6-1.916V9.386l-7.832.876v33.55C105.631,48.847,108.444,51.693,113.187,51.693Zm16.323,0a12.941,12.941,0,0,0,5.019-.985l-1.6-5.528a3.379,3.379,0,0,1-1.544.328c-1.1,0-1.6-.657-1.6-1.916V9.386l-7.832.876v33.55C121.954,48.847,124.767,51.693,129.51,51.693ZM154.6,5.554L142.8,12.56l2.206,4,12.686-5.035Zm-4.026,15.38c-8.825,0-14.065,6.13-14.065,15.38,0,9.633,5.295,15.38,14.009,15.38,8.77,0,14.01-6.185,14.01-15.379C164.532,26.681,159.292,20.934,150.578,20.934Zm0,5.8c3.805,0,5.791,2.9,5.791,9.578,0,6.622-1.986,9.578-5.847,9.578s-5.846-2.9-5.846-9.578C144.676,29.691,146.661,26.735,150.578,26.735Zm36.232-5.8c-3.75,0-6.563,1.642-8.935,4.543l-0.607-3.667h-6.784V50.817h7.832V30.786c1.6-2.572,3.365-4.05,5.626-4.05,1.986,0,3.2.93,3.2,4.269V50.817h7.832V29.691C194.973,24.218,191.94,20.934,186.81,20.934ZM22.471,64.109V78.559a10.059,10.059,0,0,0-7.115-2.9c-7.225,0-11.858,6.4-11.858,15.379,0,9.25,3.751,15.38,11.086,15.38a9.857,9.857,0,0,0,8.384-4.434l0.441,3.558H30.3V64.985ZM16.9,100.615c-3.144,0-5.24-2.3-5.24-9.578,0-6.787,2.316-9.633,5.736-9.633,2.151,0,3.64,1.04,5.074,2.737V97.112C20.927,99.411,19.272,100.615,16.9,100.615ZM62.73,90.38c0-9.25-4.909-14.723-13.182-14.723C41,75.658,36.256,82.444,36.256,91.2c0,9.086,4.909,15.216,14.285,15.216a17.316,17.316,0,0,0,11.086-3.941L58.373,98.1a11.892,11.892,0,0,1-7.115,2.517c-3.751,0-6.4-1.642-6.95-7.224H62.565C62.62,92.57,62.73,91.366,62.73,90.38ZM54.953,88.52H44.308c0.386-5.473,2.316-7.553,5.405-7.553,3.751,0,5.24,2.846,5.24,7.224V88.52Zm39.1-12.862c-8.549,0-13.954,6.4-13.954,15.6,0,9.25,5.35,15.161,14.065,15.161a14.727,14.727,0,0,0,9.6-3.394l-3.419-4.871c-2.151,1.368-3.641,2.025-5.792,2.025-3.7,0-6.177-2.244-6.177-8.976s2.316-9.523,6.233-9.523a8.931,8.931,0,0,1,5.737,2.08l3.419-4.6A14.1,14.1,0,0,0,94.052,75.658Zm25.368,0c-8.824,0-14.064,6.13-14.064,15.379,0,9.633,5.3,15.38,14.009,15.38,8.77,0,14.01-6.185,14.01-15.38C133.375,81.4,128.135,75.658,119.42,75.658Zm0,5.8c3.806,0,5.792,2.9,5.792,9.578,0,6.623-1.986,9.578-5.847,9.578s-5.846-2.9-5.846-9.578C113.519,84.415,115.5,81.459,119.42,81.459Zm36.233-5.8c-3.75,0-6.563,1.642-8.935,4.543l-0.607-3.667h-6.784v29.008h7.832V85.509c1.6-2.572,3.365-4.05,5.626-4.05,1.986,0,3.2.931,3.2,4.269v19.813h7.832V84.415C163.816,78.942,160.783,75.658,155.653,75.658ZM195.967,90.38c0-9.25-4.908-14.723-13.182-14.723-8.549,0-13.292,6.787-13.292,15.544,0,9.086,4.909,15.216,14.285,15.216a17.315,17.315,0,0,0,11.086-3.941L191.61,98.1a11.891,11.891,0,0,1-7.115,2.517c-3.751,0-6.4-1.642-6.95-7.224H195.8C195.857,92.57,195.967,91.366,195.967,90.38ZM188.19,88.52H177.545c0.386-5.473,2.317-7.553,5.406-7.553,3.75,0,5.239,2.846,5.239,7.224V88.52ZM215.764,90l8.218-13.464H215.6l-4.468,9.633-4.578-9.633h-8.825l8.6,13.738-9.6,15.27h8.6l5.46-11.22,5.571,11.22h8.99Zm16.929-28.405a4.547,4.547,0,1,0,0,9.085A4.549,4.549,0,1,0,232.693,61.592Zm3.971,14.942h-7.832v29.008h7.832V76.533Zm20.019-.876c-8.825,0-14.065,6.13-14.065,15.379,0,9.633,5.3,15.38,14.01,15.38,8.77,0,14.01-6.185,14.01-15.38C270.638,81.4,265.4,75.658,256.683,75.658Zm0,5.8c3.806,0,5.791,2.9,5.791,9.578,0,6.623-1.985,9.578-5.846,9.578s-5.847-2.9-5.847-9.578C250.781,84.415,252.767,81.459,256.683,81.459Zm36.233-5.8c-3.751,0-6.564,1.642-8.935,4.543l-0.607-3.667H276.59v29.008h7.832V85.509c1.6-2.572,3.365-4.05,5.626-4.05,1.985,0,3.2.931,3.2,4.269v19.813h7.832V84.415C301.079,78.942,298.045,75.658,292.916,75.658ZM333.23,90.38c0-9.25-4.909-14.723-13.182-14.723-8.549,0-13.293,6.787-13.293,15.544,0,9.086,4.909,15.216,14.286,15.216a17.315,17.315,0,0,0,11.086-3.941L328.873,98.1a11.891,11.891,0,0,1-7.115,2.517c-3.751,0-6.4-1.642-6.95-7.224h18.257C333.12,92.57,333.23,91.366,333.23,90.38Zm-7.777-1.861H314.808c0.386-5.473,2.317-7.553,5.405-7.553,3.751,0,5.24,2.846,5.24,7.224V88.52Zm23.161-12.862c-7.06,0-11.583,3.722-11.583,8.648,0,4.379,2.758,7.279,8.66,8.921,5.405,1.478,6.453,2.189,6.453,4.379,0,1.97-1.875,3.174-4.8,3.174a12.929,12.929,0,0,1-7.833-2.846l-3.86,4.269a17.406,17.406,0,0,0,11.913,4.215c6.95,0,12.631-3.394,12.631-9.414,0-5.145-3.31-7.553-9.156-9.14-5.13-1.478-6.122-2.244-6.122-3.941,0-1.587,1.434-2.627,4.026-2.627a13.583,13.583,0,0,1,7.281,2.3l2.978-4.433A16.73,16.73,0,0,0,348.614,75.658ZM12.346,127.273a6.477,6.477,0,0,0-5.3,2.89v-9.754l-2.78.329v24.2H7.05V132.594c1.225-1.872,2.648-3.153,4.634-3.153,1.754,0,2.879.854,2.879,3.514v11.987h2.78V132.561C17.343,129.309,15.523,127.273,12.346,127.273Zm12.44-7.75a1.906,1.906,0,1,0,1.986,1.9A1.862,1.862,0,0,0,24.786,119.523Zm1.423,8.144h-2.78v17.275h2.78V127.667Zm13.9,14.648a4.663,4.663,0,0,1-2.416.722c-1.556,0-2.184-.854-2.184-2.66V129.8h3.905l0.3-2.135h-4.2V123.4l-2.78.3v3.974H29.714V129.8h3.012v10.707c0,3.152,1.721,4.827,4.6,4.827a6.694,6.694,0,0,0,3.839-1.149Zm10.224-15.042c-4.865,0-7.678,3.646-7.678,9.065,0,5.484,2.78,9,7.645,9s7.678-3.645,7.678-9.064C57.976,130.754,55.229,127.273,50.331,127.273Zm0,2.233c3.012,0,4.667,2.2,4.667,6.766,0,4.631-1.688,6.831-4.7,6.831s-4.667-2.2-4.667-6.765C45.631,131.707,47.352,129.506,50.331,129.506Zm33.056,11.462v-8.013c0-3.58-1.886-5.682-6.024-5.682a16.356,16.356,0,0,0-5.891,1.183l0.7,2.036a14.734,14.734,0,0,1,4.7-.953c2.515,0,3.74.986,3.74,3.547v1.38H77.761c-4.766,0-7.546,1.97-7.546,5.648,0,3.088,2.052,5.222,5.494,5.222a5.883,5.883,0,0,0,5.229-2.66,3.416,3.416,0,0,0,3.243,2.66l0.662-1.937C83.917,143.07,83.387,142.578,83.387,140.968Zm-7.05,2.266c-2.085,0-3.177-1.149-3.177-3.251,0-2.463,1.721-3.678,4.964-3.678h2.482v4.138A4.685,4.685,0,0,1,76.338,143.234Zm16.511,2.1a5.132,5.132,0,0,0,2.317-.558l-0.728-1.938a3.156,3.156,0,0,1-1.158.2c-0.827,0-1.158-.492-1.158-1.445V120.376l-2.78.329v20.953C89.341,144.055,90.731,145.336,92.849,145.336Zm12.575-18.063c-4.667,0-7.547,3.646-7.547,9.163,0,5.583,2.913,8.9,7.547,8.9a7.944,7.944,0,0,0,5.229-1.905l-1.291-1.806a6.28,6.28,0,0,1-3.839,1.347c-2.846,0-4.667-1.971-4.667-6.569,0-4.63,1.821-6.831,4.667-6.831a5.957,5.957,0,0,1,3.773,1.281l1.357-1.741A7.675,7.675,0,0,0,105.424,127.273Zm20.682,13.695v-8.013c0-3.58-1.887-5.682-6.024-5.682a16.353,16.353,0,0,0-5.891,1.183l0.695,2.036a14.734,14.734,0,0,1,4.7-.953c2.515,0,3.739.986,3.739,3.547v1.38h-2.846c-4.766,0-7.546,1.97-7.546,5.648,0,3.088,2.052,5.222,5.494,5.222a5.881,5.881,0,0,0,5.229-2.66,3.417,3.417,0,0,0,3.244,2.66l0.662-1.937C126.635,143.07,126.106,142.578,126.106,140.968Zm-7.05,2.266c-2.085,0-3.177-1.149-3.177-3.251,0-2.463,1.721-3.678,4.964-3.678h2.482v4.138A4.685,4.685,0,0,1,119.056,143.234ZM140.5,127.273a6.594,6.594,0,0,0-5.461,3.022l-0.232-2.628h-2.383v17.275H135.2V132.626c1.224-1.9,2.614-3.185,4.666-3.185,1.787,0,2.846.854,2.846,3.514v11.987H145.5V132.561C145.5,129.277,143.708,127.273,140.5,127.273Zm21.177,0.394H150.058V130h8.44l-9.2,12.874v2.069H161.41l0.331-2.332h-9.3l9.234-12.841v-2.1Zm15.552,13.3v-8.013c0-3.58-1.887-5.682-6.024-5.682a16.357,16.357,0,0,0-5.891,1.183l0.695,2.036a14.734,14.734,0,0,1,4.7-.953c2.515,0,3.74.986,3.74,3.547v1.38H171.6c-4.766,0-7.546,1.97-7.546,5.648,0,3.088,2.052,5.222,5.494,5.222a5.884,5.884,0,0,0,5.23-2.66,3.415,3.415,0,0,0,3.243,2.66l0.662-1.937C177.756,143.07,177.227,142.578,177.227,140.968Zm-7.05,2.266c-2.085,0-3.177-1.149-3.177-3.251,0-2.463,1.721-3.678,4.964-3.678h2.483v4.138A4.685,4.685,0,0,1,170.177,143.234ZM193.9,120.376v9.065a6.33,6.33,0,0,0-4.733-2.168c-4.269,0-6.818,3.81-6.818,9.1,0,5.419,2.35,8.966,6.553,8.966a5.874,5.874,0,0,0,5.064-2.824l0.3,2.43h2.416V120.705Zm-4.435,22.76c-2.615,0-4.137-2.2-4.137-6.8s1.721-6.864,4.435-6.864a4.987,4.987,0,0,1,4.137,2.331v8.6C192.744,142.151,191.487,143.136,189.468,143.136Zm19.985-15.863c-4.865,0-7.678,3.646-7.678,9.065,0,5.484,2.78,9,7.645,9s7.679-3.645,7.679-9.064C217.1,130.754,214.352,127.273,209.453,127.273Zm0,2.233c3.012,0,4.667,2.2,4.667,6.766,0,4.631-1.688,6.831-4.7,6.831s-4.666-2.2-4.666-6.765C204.754,131.707,206.475,129.506,209.453,129.506Zm34.645,6.24c0-5.221-2.416-8.473-7.082-8.473-4.435,0-7.149,3.777-7.149,9.2,0,5.485,2.813,8.867,7.612,8.867a9.284,9.284,0,0,0,5.991-2.167l-1.225-1.642a7.438,7.438,0,0,1-4.567,1.543c-2.615,0-4.6-1.642-4.865-5.813h11.219C244.065,136.9,244.1,136.338,244.1,135.746Zm-2.747-.525h-8.538c0.231-4.04,1.853-5.747,4.269-5.747,2.879,0,4.269,2,4.269,5.484v0.263Zm15.717-7.948a6.594,6.594,0,0,0-5.461,3.022l-0.232-2.628h-2.383v17.275h2.78V132.626c1.225-1.9,2.615-3.185,4.667-3.185,1.787,0,2.846.854,2.846,3.514v11.987h2.78V132.561C262.065,129.277,260.278,127.273,257.068,127.273Zm32.99,8.473c0-5.221-2.416-8.473-7.083-8.473-4.434,0-7.148,3.777-7.148,9.2,0,5.485,2.813,8.867,7.612,8.867a9.281,9.281,0,0,0,5.99-2.167l-1.224-1.642a7.441,7.441,0,0,1-4.568,1.543c-2.614,0-4.6-1.642-4.865-5.813h11.22C290.025,136.9,290.058,136.338,290.058,135.746Zm-2.747-.525h-8.539c0.232-4.04,1.854-5.747,4.27-5.747,2.879,0,4.269,2,4.269,5.484v0.263Zm10.951,10.115a5.128,5.128,0,0,0,2.316-.558l-0.728-1.938a3.155,3.155,0,0,1-1.158.2c-0.828,0-1.158-.492-1.158-1.445V120.376l-2.781.329v20.953C294.753,144.055,296.143,145.336,298.262,145.336Zm23.328-18.063a6.475,6.475,0,0,0-5.295,2.89v-9.754l-2.781.329v24.2H316.3V132.594c1.224-1.872,2.647-3.153,4.633-3.153,1.754,0,2.88.854,2.88,3.514v11.987h2.78V132.561C326.588,129.309,324.767,127.273,321.59,127.273Zm17.57,0c-4.865,0-7.679,3.646-7.679,9.065,0,5.484,2.78,9,7.646,9s7.678-3.645,7.678-9.064C346.805,130.754,344.058,127.273,339.16,127.273Zm0,2.233c3.011,0,4.666,2.2,4.666,6.766,0,4.631-1.688,6.831-4.7,6.831s-4.667-2.2-4.667-6.765C334.46,131.707,336.181,129.506,339.16,129.506Zm17.4-2.233c-3.508,0-6.156,1.971-6.156,4.7,0,2.43,1.489,3.973,5.262,4.959,3.409,0.919,4.3,1.576,4.3,3.382,0,1.741-1.523,2.792-3.873,2.792a7.927,7.927,0,0,1-4.931-1.708l-1.489,1.675a9.439,9.439,0,0,0,6.487,2.266c3.508,0,6.718-1.675,6.718-5.189,0-3.021-2.019-4.4-5.725-5.353-2.88-.755-3.84-1.412-3.84-2.89s1.291-2.43,3.343-2.43a7.735,7.735,0,0,1,4.534,1.51l1.225-1.74A9.187,9.187,0,0,0,356.564,127.273Zm18.53,0a6.3,6.3,0,0,0-5.2,2.792l-0.232-2.4h-2.383v24.205l2.78-.329v-8.276a5.692,5.692,0,0,0,4.667,2.069c4.435,0,6.785-3.777,6.785-9.064C381.515,130.787,379.628,127.273,375.094,127.273Zm-1.026,15.8a4.712,4.712,0,0,1-4-2.233v-8.572a5.416,5.416,0,0,1,4.369-2.791c2.714,0,4.071,2.2,4.071,6.8C378.5,140.9,376.948,143.07,374.068,143.07Zm13.863-23.547a1.906,1.906,0,1,0,1.986,1.9A1.862,1.862,0,0,0,387.931,119.523Zm1.423,8.144h-2.78v17.275h2.78V127.667Zm13.9,14.648a4.663,4.663,0,0,1-2.416.722c-1.555,0-2.184-.854-2.184-2.66V129.8h3.905l0.3-2.135h-4.2V123.4l-2.78.3v3.974H392.86V129.8h3.012v10.707c0,3.152,1.721,4.827,4.6,4.827a6.693,6.693,0,0,0,3.839-1.149Zm15.652-1.347v-8.013c0-3.58-1.887-5.682-6.024-5.682a16.357,16.357,0,0,0-5.891,1.183l0.7,2.036a14.734,14.734,0,0,1,4.7-.953c2.515,0,3.74.986,3.74,3.547v1.38h-2.847c-4.766,0-7.546,1.97-7.546,5.648,0,3.088,2.052,5.222,5.494,5.222a5.884,5.884,0,0,0,5.23-2.66,3.415,3.415,0,0,0,3.243,2.66l0.662-1.937C419.433,143.07,418.9,142.578,418.9,140.968Zm-7.05,2.266c-2.085,0-3.177-1.149-3.177-3.251,0-2.463,1.721-3.678,4.964-3.678h2.483v4.138A4.685,4.685,0,0,1,411.854,143.234Zm16.511,2.1a5.132,5.132,0,0,0,2.317-.558l-0.728-1.938a3.155,3.155,0,0,1-1.158.2c-0.828,0-1.159-.492-1.159-1.445V120.376l-2.78.329v20.953C424.857,144.055,426.247,145.336,428.365,145.336ZM16.715,184.343h3.045l-7.347-22.595H8.771l-7.381,22.6H4.3l1.787-5.78h8.87Zm-9.9-8.112,3.707-12.118,3.707,12.118H6.819Zm19.655,8.506a5.12,5.12,0,0,0,2.317-.558l-0.728-1.938a3.155,3.155,0,0,1-1.158.2c-0.828,0-1.158-.493-1.158-1.446V159.778l-2.78.328v20.953C22.965,183.457,24.355,184.737,26.474,184.737Zm14.163-18.063a6,6,0,0,0-5,2.595v-9.491l-2.78.328v24.237h2.449l0.265-1.97a5.922,5.922,0,0,0,4.733,2.364c4.2,0,6.785-3.612,6.785-9.064C47.09,169.926,44.575,166.674,40.637,166.674Zm-0.993,15.863a4.922,4.922,0,0,1-4-2.4v-8.506c0.96-1.446,2.251-2.759,4.236-2.759,2.581,0,4.2,1.839,4.2,6.8C44.079,180.468,42.325,182.537,39.644,182.537Zm25.546-7.389c0-5.222-2.416-8.474-7.083-8.474-4.435,0-7.149,3.777-7.149,9.2,0,5.485,2.813,8.867,7.612,8.867a9.282,9.282,0,0,0,5.99-2.167l-1.225-1.642a7.439,7.439,0,0,1-4.567,1.543c-2.615,0-4.6-1.642-4.865-5.813h11.22C65.156,176.3,65.189,175.739,65.189,175.148Zm-2.747-.526H53.9c0.232-4.039,1.853-5.747,4.27-5.747,2.879,0,4.269,2,4.269,5.484v0.263Zm15.021-7.948c-2.184,0-3.806,1.347-4.733,4.007l-0.265-3.612H70.083v17.274h2.78V174.327c0.761-3.383,2.052-4.96,4.269-4.96a5.321,5.321,0,0,1,1.522.2l0.53-2.694A7.288,7.288,0,0,0,77.464,166.674Zm12.805,15.042a4.656,4.656,0,0,1-2.416.723c-1.555,0-2.184-.854-2.184-2.661V169.2h3.905l0.3-2.134h-4.2V162.8l-2.78.3v3.974H79.877V169.2h3.012V179.91c0,3.153,1.721,4.827,4.6,4.827a6.694,6.694,0,0,0,3.839-1.149Zm10.224-15.042c-4.865,0-7.678,3.646-7.678,9.065,0,5.484,2.78,9,7.645,9s7.679-3.645,7.679-9.064C108.139,170.156,105.392,166.674,100.493,166.674Zm0,2.234c3.012,0,4.667,2.2,4.667,6.765,0,4.631-1.688,6.831-4.7,6.831s-4.666-2.2-4.666-6.765C95.794,171.108,97.515,168.908,100.493,168.908Zm24.716-7.16h-2.846v22.6h11.915l0.331-2.5h-9.4v-20.1ZM139.073,180.5a2.118,2.118,0,1,0,2.151,2.1A2.1,2.1,0,0,0,139.073,180.5Zm25.976-8.112a4.971,4.971,0,0,0,4.237-4.959c0-3.908-3.244-5.682-8.771-5.682H155.22v22.6h6.255c5.229,0,8.837-1.707,8.837-6.4C170.312,174.1,167.73,172.816,165.049,172.389Zm-4.236-8.375c3.475,0,5.527.788,5.527,3.613,0,2.463-1.953,3.777-4.567,3.777h-3.707v-7.39h2.747Zm0.662,18.03h-3.409V173.6h4c2.813,0,5.2,1.117,5.2,4.335C167.267,181.256,164.884,182.044,161.475,182.044Zm24.983-1.675v-8.013c0-3.58-1.887-5.682-6.024-5.682a16.379,16.379,0,0,0-5.891,1.183l0.695,2.036a14.729,14.729,0,0,1,4.7-.952c2.515,0,3.74.985,3.74,3.546v1.38h-2.847c-4.766,0-7.546,1.97-7.546,5.649,0,3.087,2.052,5.221,5.494,5.221a5.884,5.884,0,0,0,5.23-2.66,3.414,3.414,0,0,0,3.243,2.66l0.662-1.937C186.987,182.471,186.458,181.979,186.458,180.369Zm-7.05,2.267c-2.085,0-3.177-1.15-3.177-3.252,0-2.463,1.721-3.678,4.964-3.678h2.483v4.138A4.686,4.686,0,0,1,179.408,182.636Zm20.747-15.962c-2.184,0-3.806,1.347-4.733,4.007l-0.264-3.612h-2.383v17.274h2.78V174.327c0.761-3.383,2.052-4.96,4.269-4.96a5.327,5.327,0,0,1,1.523.2l0.529-2.694A7.282,7.282,0,0,0,200.155,166.674Zm12.805,15.042a4.653,4.653,0,0,1-2.416.723c-1.555,0-2.184-.854-2.184-2.661V169.2h3.9l0.3-2.134h-4.2V162.8l-2.78.3v3.974h-3.012V169.2h3.012V179.91c0,3.153,1.721,4.827,4.6,4.827a6.693,6.693,0,0,0,3.839-1.149Zm10.225-15.042c-4.866,0-7.679,3.646-7.679,9.065,0,5.484,2.78,9,7.645,9s7.679-3.645,7.679-9.064C230.83,170.156,228.083,166.674,223.185,166.674Zm0,2.234c3.011,0,4.666,2.2,4.666,6.765,0,4.631-1.688,6.831-4.7,6.831s-4.666-2.2-4.666-6.765C218.485,171.108,220.206,168.908,223.185,168.908ZM244,166.674a6.6,6.6,0,0,0-5.461,3.022l-0.232-2.627h-2.383v17.274h2.78V172.028c1.225-1.905,2.615-3.186,4.667-3.186,1.787,0,2.846.854,2.846,3.514v11.987H249V171.962C249,168.678,247.208,166.674,244,166.674Zm33.42-4.926H261.3v2.43h6.553v20.165H270.7V164.178h6.388Zm11.547,4.926a6.477,6.477,0,0,0-5.3,2.891V159.81l-2.78.329v24.2h2.78V172c1.225-1.872,2.648-3.153,4.634-3.153,1.754,0,2.879.854,2.879,3.514v11.987h2.78V171.962C293.962,168.711,292.142,166.674,288.965,166.674Zm17.569,0c-4.865,0-7.678,3.646-7.678,9.065,0,5.484,2.78,9,7.645,9s7.679-3.645,7.679-9.064C314.18,170.156,311.433,166.674,306.534,166.674Zm0,2.234c3.012,0,4.667,2.2,4.667,6.765,0,4.631-1.688,6.831-4.7,6.831s-4.666-2.2-4.666-6.765C301.835,171.108,303.556,168.908,306.534,168.908Zm30.08-2.234a6.148,6.148,0,0,0-5.229,3.186,4.346,4.346,0,0,0-4.369-3.186,6.038,6.038,0,0,0-5.13,3.022l-0.231-2.627h-2.383v17.274h2.78V172.028c1.191-1.905,2.35-3.186,4.269-3.186,1.457,0,2.582.854,2.582,3.514v11.987h2.78V172.028c1.225-1.905,2.35-3.186,4.269-3.186,1.457,0,2.582.854,2.582,3.514v11.987h2.78V171.962C341.314,168.711,339.461,166.674,336.614,166.674Zm18.594,0a6.3,6.3,0,0,0-5.2,2.792l-0.232-2.4H347.4v24.2l2.78-.328v-8.277a5.691,5.691,0,0,0,4.667,2.069c4.435,0,6.785-3.776,6.785-9.064C361.629,170.188,359.742,166.674,355.208,166.674Zm-1.026,15.8a4.712,4.712,0,0,1-4-2.233v-8.572a5.414,5.414,0,0,1,4.369-2.791c2.714,0,4.071,2.2,4.071,6.8C358.617,180.3,357.061,182.471,354.182,182.471Zm17.172-15.8c-3.508,0-6.156,1.971-6.156,4.7,0,2.43,1.49,3.974,5.263,4.959,3.409,0.919,4.3,1.576,4.3,3.383,0,1.74-1.522,2.791-3.872,2.791a7.925,7.925,0,0,1-4.931-1.708l-1.49,1.675a9.443,9.443,0,0,0,6.487,2.266c3.508,0,6.719-1.674,6.719-5.189,0-3.021-2.019-4.4-5.726-5.353-2.879-.755-3.839-1.412-3.839-2.89s1.291-2.43,3.342-2.43a7.735,7.735,0,0,1,4.535,1.511l1.224-1.741A9.187,9.187,0,0,0,371.354,166.674Zm17.207,0c-4.865,0-7.679,3.646-7.679,9.065,0,5.484,2.78,9,7.646,9s7.678-3.645,7.678-9.064C396.206,170.156,393.459,166.674,388.561,166.674Zm0,2.234c3.012,0,4.666,2.2,4.666,6.765,0,4.631-1.688,6.831-4.7,6.831s-4.667-2.2-4.667-6.765C383.861,171.108,385.582,168.908,388.561,168.908Zm20.813-2.234a6.6,6.6,0,0,0-5.461,3.022l-0.232-2.627H401.3v17.274h2.78V172.028c1.225-1.905,2.615-3.186,4.667-3.186,1.787,0,2.846.854,2.846,3.514v11.987h2.78V171.962C414.371,168.678,412.584,166.674,409.374,166.674Zm-394.745,32.5v9.064A6.329,6.329,0,0,0,9.9,206.076c-4.269,0-6.818,3.809-6.818,9.1,0,5.419,2.35,8.966,6.553,8.966a5.875,5.875,0,0,0,5.064-2.825l0.3,2.431H17.41V199.507Zm-4.435,22.759c-2.615,0-4.137-2.2-4.137-6.8s1.721-6.864,4.435-6.864a4.988,4.988,0,0,1,4.137,2.332v8.6C13.471,220.953,12.213,221.938,10.195,221.938Zm26.539-7.389c0-5.222-2.416-8.473-7.083-8.473-4.435,0-7.149,3.776-7.149,9.195,0,5.485,2.813,8.868,7.612,8.868a9.278,9.278,0,0,0,5.991-2.168l-1.225-1.642a7.441,7.441,0,0,1-4.567,1.544c-2.615,0-4.6-1.643-4.865-5.813h11.22C36.7,215.7,36.733,215.14,36.733,214.549Zm-2.747-.526H25.447c0.232-4.039,1.853-5.747,4.269-5.747,2.879,0,4.27,2,4.27,5.485v0.262Zm10.95,10.116a5.12,5.12,0,0,0,2.317-.559l-0.728-1.937a3.177,3.177,0,0,1-1.158.2c-0.827,0-1.158-.493-1.158-1.445V199.179l-2.78.328V220.46C41.428,222.858,42.819,224.139,44.937,224.139Zm23.428-23.384c-5.163,0-9.4,4.007-9.4,11.692,0,7.586,3.972,11.692,9.433,11.692a8.924,8.924,0,0,0,6.421-2.5L73.4,219.836a7.664,7.664,0,0,1-4.9,1.872c-3.641,0-6.487-2.66-6.487-9.261,0-6.93,2.946-9.327,6.52-9.327A6.827,6.827,0,0,1,73,204.8l1.555-1.839A8.875,8.875,0,0,0,68.364,200.755Zm21.409,19.016v-8.014c0-3.58-1.886-5.681-6.024-5.681a16.375,16.375,0,0,0-5.891,1.182l0.7,2.036a14.729,14.729,0,0,1,4.7-.952c2.515,0,3.74.985,3.74,3.547v1.379H84.147c-4.766,0-7.546,1.97-7.546,5.649,0,3.087,2.052,5.222,5.494,5.222a5.882,5.882,0,0,0,5.229-2.661,3.417,3.417,0,0,0,3.243,2.661L91.23,222.2C90.3,221.873,89.774,221.38,89.774,219.771Zm-7.05,2.266c-2.085,0-3.177-1.15-3.177-3.252,0-2.463,1.721-3.678,4.964-3.678h2.482v4.138A4.686,4.686,0,0,1,82.724,222.037Zm16.511,2.1a5.119,5.119,0,0,0,2.317-.559l-0.728-1.937a3.177,3.177,0,0,1-1.159.2c-0.827,0-1.158-.493-1.158-1.445V199.179l-2.78.328V220.46C95.727,222.858,97.117,224.139,99.235,224.139Zm9.695,0a5.12,5.12,0,0,0,2.317-.559l-0.728-1.937a3.177,3.177,0,0,1-1.159.2c-0.827,0-1.158-.493-1.158-1.445V199.179l-2.78.328V220.46C105.422,222.858,106.812,224.139,108.93,224.139Zm17.672-4.368v-8.014c0-3.58-1.887-5.681-6.024-5.681a16.376,16.376,0,0,0-5.891,1.182l0.7,2.036a14.729,14.729,0,0,1,4.7-.952c2.515,0,3.74.985,3.74,3.547v1.379h-2.847c-4.765,0-7.546,1.97-7.546,5.649,0,3.087,2.052,5.222,5.494,5.222a5.883,5.883,0,0,0,5.23-2.661,3.416,3.416,0,0,0,3.243,2.661l0.662-1.938C127.131,221.873,126.6,221.38,126.6,219.771Zm-7.05,2.266c-2.085,0-3.177-1.15-3.177-3.252,0-2.463,1.721-3.678,4.964-3.678h2.483v4.138A4.686,4.686,0,0,1,119.552,222.037Zm19.854-15.961c-4.866,0-7.679,3.645-7.679,9.064,0,5.485,2.78,9,7.646,9s7.678-3.646,7.678-9.065C147.051,209.557,144.3,206.076,139.406,206.076Zm0,2.233c3.011,0,4.666,2.2,4.666,6.765,0,4.631-1.688,6.831-4.7,6.831s-4.667-2.2-4.667-6.765C134.706,210.509,136.427,208.309,139.406,208.309Z"/>
</svg>
