<svg xmlns="http://www.w3.org/2000/svg" width="458" height="92" viewBox="0 0 458 92">
  <defs>
    <style>
      .cls-1 {
        fill: #fff;
        fill-rule: evenodd;
      }
    </style>
  </defs>
  <path id="_203_785.89_GJ_de_energía_consumida" data-name="203 785.89 GJ  de energía consumida" class="cls-1" d="M14.385,2.708A15.5,15.5,0,0,0,1.518,9.157l4.861,3.881c2.345-2.8,4.346-4.052,7.263-4.052A4.934,4.934,0,0,1,18.9,14.294c0,5.136-3.145,8.675-16.241,21.743v5.878H27.2l0.915-6.278H11.926C23.879,24.452,27.253,19.829,27.253,13.609,27.253,7.616,22.621,2.708,14.385,2.708Zm32.308,0c-9.264,0-14.125,7.134-14.125,20.031,0,12.84,4.861,20.088,14.125,20.088,9.322,0,14.182-7.248,14.182-20.088C60.876,9.842,56.015,2.708,46.694,2.708Zm0,6.049c4,0,5.833,3.31,5.833,13.982,0,10.615-1.83,13.982-5.833,13.982s-5.776-3.538-5.776-13.982S42.691,8.758,46.694,8.758ZM76.143,2.708A17.477,17.477,0,0,0,63.676,7.731l4.06,4.394a10.524,10.524,0,0,1,7.606-3.31c3.317,0,5.433,1.769,5.433,4.737,0,3.481-2.4,5.421-5.89,5.421H72.769L71.8,24.68h3.145c4.232,0,6.634,1.541,6.634,5.821,0,3.824-2.573,6.049-6.462,6.049-2.974,0-5.376-1.084-7.949-3.652l-4.4,4.223c2.974,3.652,7.263,5.707,12.81,5.707,9.207,0,14.354-5.307,14.354-11.813,0-6.049-4-8.96-8.807-9.474,4.632-1.256,7.549-4.337,7.549-9.074C88.667,7.1,84.321,2.708,76.143,2.708ZM131.324,3.45h-24.3V9.614h15.9l-13.153,30.7,7.377,2.454L131.324,9.043V3.45ZM154.6,21.256c4.346-2.283,6.29-5.25,6.29-8.674,0-6.392-5.776-9.873-12.981-9.873-7.263,0-12.982,3.938-12.982,10.215,0,3.652,1.6,6.734,5.719,9.074-4.518,2-7.263,5.022-7.263,9.7,0,6.163,5.376,11.129,14.354,11.129,9.15,0,14.64-5.022,14.64-11.3C162.375,27.02,159.859,23.71,154.6,21.256ZM147.964,8.244c3.317,0,5.033,1.94,5.033,4.737,0,2.568-.915,4.394-3.775,6.22l-1.144-.4c-3.431-1.37-5.261-2.8-5.261-5.764C142.817,9.9,144.819,8.244,147.964,8.244Zm0,28.649c-3.946,0-6.405-2.111-6.405-5.536a7.555,7.555,0,0,1,4.289-7.134l1.83,0.628c4.747,1.712,6.519,3.253,6.519,6.62C154.2,34.61,152.024,36.893,147.964,36.893ZM190.794,3.45H167.805V23.881h5.661a9.368,9.368,0,0,1,4.8-1.37c3.374,0,5.833,1.769,5.833,6.791,0,4.737-2.516,7.3-6.633,7.3a9.713,9.713,0,0,1-7.664-3.652l-4.575,4.28A15.915,15.915,0,0,0,177.7,42.828c8.922,0,14.755-5.536,14.755-13.525,0-7.876-4.69-12.441-11.038-12.441a13.721,13.721,0,0,0-5.833,1.313V9.328h14.24Zm10.463,29.619a4.88,4.88,0,1,0,4.918,4.851A4.889,4.889,0,0,0,201.257,33.069Zm30.022-11.813c4.346-2.283,6.29-5.25,6.29-8.674,0-6.392-5.776-9.873-12.981-9.873-7.263,0-12.982,3.938-12.982,10.215,0,3.652,1.6,6.734,5.719,9.074-4.518,2-7.263,5.022-7.263,9.7,0,6.163,5.376,11.129,14.354,11.129,9.15,0,14.64-5.022,14.64-11.3C239.056,27.02,236.54,23.71,231.279,21.256ZM224.645,8.244c3.317,0,5.032,1.94,5.032,4.737,0,2.568-.915,4.394-3.774,6.22l-1.144-.4c-3.431-1.37-5.261-2.8-5.261-5.764C219.5,9.9,221.5,8.244,224.645,8.244Zm0,28.649c-3.946,0-6.405-2.111-6.405-5.536a7.554,7.554,0,0,1,4.289-7.134l1.83,0.628c4.746,1.712,6.519,3.253,6.519,6.62C230.878,34.61,228.705,36.893,224.645,36.893ZM255.7,2.708c-7.72,0-13.839,5.079-13.839,13.126,0,7.818,4.918,12.612,10.922,12.612a9.793,9.793,0,0,0,8.121-3.938c-1.258,7.3-6.462,10.786-16.184,13.183l1.716,5.764c15.955-3.538,23.161-10.1,23.161-25.852C269.592,8.815,264.9,2.708,255.7,2.708Zm-0.572,19.917c-2.859,0-5.147-1.826-5.147-7.02,0-4.623,2.231-7.019,5.719-7.019,4.06,0,5.719,2.739,5.6,10.387A7.448,7.448,0,0,1,255.123,22.626ZM306.3,1.51c-10.237,0-18.529,7.248-18.529,20.6,0,13.583,6.119,20.716,17.785,20.716a26.858,26.858,0,0,0,13.9-3.995V19.373H304.871l0.858,6.106h5.547v9.645a12.149,12.149,0,0,1-5.89,1.427c-5.833,0-8.807-3.824-8.807-14.381,0-10.272,4.461-14.439,10.065-14.439,3.26,0,5.49,1.027,8.178,3.082l4.4-4.565A18.966,18.966,0,0,0,306.3,1.51Zm29.563,0.913h-8.406V35.752c0,4.794-.858,7.419-6.005,9.416l2.23,5.992c6.634-2.169,12.181-5.536,12.181-15.123V2.423ZM12.555,54.81v7.876A5.455,5.455,0,0,0,8.467,60.8c-3.689,0-5.89,3.31-5.89,7.9,0,4.708,2.03,7.79,5.662,7.79a5.07,5.07,0,0,0,4.375-2.454l0.257,2.112h2.087V55.1ZM8.724,74.584c-2.259,0-3.574-1.912-3.574-5.907s1.487-5.964,3.832-5.964a4.3,4.3,0,0,1,3.574,2.026v7.476A4.344,4.344,0,0,1,8.724,74.584Zm22.931-6.42c0-4.537-2.087-7.362-6.119-7.362-3.832,0-6.176,3.282-6.176,7.99,0,4.765,2.43,7.7,6.577,7.7a7.991,7.991,0,0,0,5.176-1.883l-1.058-1.427a6.4,6.4,0,0,1-3.946,1.341c-2.259,0-3.974-1.427-4.2-5.051H31.6C31.626,69.163,31.655,68.678,31.655,68.164Zm-2.373-.456H21.9c0.2-3.51,1.6-4.994,3.689-4.994,2.488,0,3.689,1.741,3.689,4.765v0.228Zm25.532,0.456c0-4.537-2.087-7.362-6.119-7.362-3.831,0-6.176,3.282-6.176,7.99,0,4.765,2.431,7.7,6.577,7.7a7.99,7.99,0,0,0,5.175-1.883l-1.058-1.427a6.4,6.4,0,0,1-3.946,1.341c-2.259,0-3.974-1.427-4.2-5.051h9.693C54.784,69.163,54.813,68.678,54.813,68.164Zm-2.373-.456H45.063c0.2-3.51,1.6-4.994,3.689-4.994,2.488,0,3.689,1.741,3.689,4.765v0.228ZM66.02,60.8A5.69,5.69,0,0,0,61.3,63.427l-0.2-2.283H59.043V76.154h2.4v-10.7C62.5,63.8,63.7,62.685,65.477,62.685c1.544,0,2.459.742,2.459,3.053V76.154h2.4V65.4C70.338,62.543,68.794,60.8,66.02,60.8Zm20.843,7.362c0-4.537-2.087-7.362-6.119-7.362-3.832,0-6.176,3.282-6.176,7.99,0,4.765,2.431,7.7,6.577,7.7a7.99,7.99,0,0,0,5.176-1.883l-1.058-1.427a6.4,6.4,0,0,1-3.946,1.341c-2.259,0-3.975-1.427-4.2-5.051h9.693C86.835,69.163,86.864,68.678,86.864,68.164Zm-2.373-.456H77.113c0.2-3.51,1.6-4.994,3.689-4.994,2.488,0,3.689,1.741,3.689,4.765v0.228ZM97.471,60.8c-1.887,0-3.288,1.17-4.089,3.481l-0.229-3.139H91.094V76.154h2.4v-8.7c0.658-2.939,1.773-4.309,3.689-4.309a4.6,4.6,0,0,1,1.315.171l0.458-2.34A6.248,6.248,0,0,0,97.471,60.8ZM112.8,59.547c-1.687.77-3,1.341-6.806,1.255-3.317,0-5.718,2.14-5.718,5.193a4.336,4.336,0,0,0,2.516,4.195,3.177,3.177,0,0,0-1.63,2.625c0,1.484,1.2,2.8,3.832,2.8h2.373c1.944,0,3.117.742,3.117,2.226,0,1.569-1.173,2.454-4.49,2.454-3.374,0-4.232-.8-4.232-2.6H99.585c0,3.025,1.573,4.48,6.4,4.48,4.6,0,6.92-1.627,6.92-4.509,0-2.34-2-4.08-5.061-4.08h-2.4c-1.6,0-2.059-.571-2.059-1.284a1.785,1.785,0,0,1,.829-1.484,5.989,5.989,0,0,0,1.916.285c3.546,0,5.662-2.112,5.662-5.051a3.944,3.944,0,0,0-2.631-3.852,15.97,15.97,0,0,0,4.346-.457Zm-6.806,3c2.231,0,3.346,1.227,3.346,3.453s-1.144,3.51-3.288,3.51c-2.116,0-3.317-1.4-3.317-3.51C102.731,64,103.846,62.543,105.99,62.543Zm13.753-9.131-5.6,3.2,0.744,1.284,5.947-2.425Zm-1.03,7.733h-2.4V76.154h2.4V61.144ZM134.039,72.7V65.739c0-3.11-1.63-4.937-5.2-4.937a14.072,14.072,0,0,0-5.089,1.027l0.6,1.769a12.665,12.665,0,0,1,4.061-.828c2.173,0,3.231.856,3.231,3.082v1.2h-2.459c-4.118,0-6.52,1.712-6.52,4.908,0,2.682,1.773,4.537,4.747,4.537a5.075,5.075,0,0,0,4.518-2.311,2.955,2.955,0,0,0,2.8,2.311l0.572-1.683C134.5,74.527,134.039,74.1,134.039,72.7Zm-6.091,1.969a2.5,2.5,0,0,1-2.745-2.825c0-2.14,1.487-3.2,4.289-3.2h2.145v3.6A4.048,4.048,0,0,1,127.948,74.67Zm24.7-13.868c-4.032,0-6.52,3.167-6.52,7.961,0,4.851,2.516,7.733,6.52,7.733a6.836,6.836,0,0,0,4.517-1.655l-1.115-1.569a5.407,5.407,0,0,1-3.317,1.17c-2.459,0-4.031-1.712-4.031-5.707,0-4.023,1.572-5.935,4.031-5.935A5.127,5.127,0,0,1,156,63.912l1.172-1.512A6.6,6.6,0,0,0,152.651,60.8Zm13.323,0c-4.2,0-6.633,3.167-6.633,7.875,0,4.765,2.4,7.819,6.6,7.819s6.634-3.167,6.634-7.875C172.58,63.827,170.206,60.8,165.974,60.8Zm0,1.94c2.6,0,4.032,1.912,4.032,5.878,0,4.023-1.458,5.935-4.06,5.935s-4.032-1.912-4.032-5.878C161.914,64.654,163.4,62.742,165.974,62.742Zm17.984-1.94a5.692,5.692,0,0,0-4.718,2.625l-0.2-2.283h-2.059V76.154h2.4v-10.7c1.058-1.655,2.259-2.768,4.032-2.768,1.544,0,2.459.742,2.459,3.053V76.154h2.4V65.4C188.276,62.543,186.732,60.8,183.958,60.8Zm13.609,0c-3.03,0-5.318,1.712-5.318,4.08,0,2.112,1.287,3.453,4.546,4.309,2.946,0.8,3.718,1.37,3.718,2.939,0,1.512-1.316,2.425-3.346,2.425a6.823,6.823,0,0,1-4.26-1.484l-1.287,1.455a8.13,8.13,0,0,0,5.6,1.969c3.031,0,5.805-1.455,5.805-4.508,0-2.625-1.744-3.824-4.947-4.651-2.487-.656-3.317-1.227-3.317-2.511s1.115-2.112,2.888-2.112a6.662,6.662,0,0,1,3.918,1.313l1.058-1.512A7.91,7.91,0,0,0,197.567,60.8Zm20.272,0.342h-2.4V71.9c-0.943,1.569-2.2,2.682-3.917,2.682-1.687,0-2.459-.8-2.459-2.939v-10.5h-2.4V71.9c0,2.939,1.573,4.594,4.2,4.594a5.135,5.135,0,0,0,4.747-2.768l0.172,2.425h2.058V61.144Zm20.415-.342a5.307,5.307,0,0,0-4.518,2.768,3.756,3.756,0,0,0-3.774-2.768,5.209,5.209,0,0,0-4.432,2.625l-0.2-2.283h-2.058V76.154h2.4v-10.7c1.029-1.655,2.03-2.768,3.688-2.768,1.258,0,2.23.742,2.23,3.053V76.154h2.4v-10.7c1.058-1.655,2.031-2.768,3.689-2.768,1.258,0,2.23.742,2.23,3.053V76.154h2.4V65.4C242.314,62.571,240.713,60.8,238.254,60.8Zm10.492-6.734a1.656,1.656,0,1,0,1.715,1.655A1.614,1.614,0,0,0,248.746,54.068Zm1.229,7.077h-2.4V76.154h2.4V61.144Zm14.382-6.335v7.876a5.455,5.455,0,0,0-4.089-1.883c-3.689,0-5.891,3.31-5.891,7.9,0,4.708,2.031,7.79,5.662,7.79a5.07,5.07,0,0,0,4.375-2.454l0.257,2.112h2.088V55.1Zm-3.832,19.774c-2.259,0-3.574-1.912-3.574-5.907s1.487-5.964,3.831-5.964a4.3,4.3,0,0,1,3.575,2.026v7.476A4.345,4.345,0,0,1,260.525,74.584ZM282.083,72.7V65.739c0-3.11-1.63-4.937-5.2-4.937a14.081,14.081,0,0,0-5.09,1.027l0.6,1.769a12.66,12.66,0,0,1,4.06-.828c2.173,0,3.231.856,3.231,3.082v1.2h-2.459c-4.117,0-6.519,1.712-6.519,4.908,0,2.682,1.773,4.537,4.746,4.537a5.073,5.073,0,0,0,4.518-2.311,2.956,2.956,0,0,0,2.8,2.311l0.572-1.683C282.541,74.527,282.083,74.1,282.083,72.7Zm-6.09,1.969a2.5,2.5,0,0,1-2.745-2.825c0-2.14,1.487-3.2,4.289-3.2h2.144v3.6A4.045,4.045,0,0,1,275.993,74.67Z"/>
</svg>
