<svg xmlns="http://www.w3.org/2000/svg" width="479" height="284" viewBox="0 0 479 284">
  <defs>
    <style>
      .cls-1 {
        fill: #fff;
        fill-rule: evenodd;
      }
    </style>
  </defs>
  <path id="_85_millones_de_toneladas_de_CO2_eq_evitadas_al_ambiente_equiv" data-name="85 millones de toneladas de CO2 eq evitadas  al ambiente, equiv" class="cls-1" d="M21.778,24.007c4.09-2.143,5.92-4.93,5.92-8.145,0-6-5.436-9.27-12.217-9.27-6.835,0-12.216,3.7-12.216,9.592,0,3.429,1.507,6.323,5.382,8.52C4.4,26.579,1.812,29.419,1.812,33.813c0,5.787,5.059,10.449,13.508,10.449,8.611,0,13.777-4.715,13.777-10.61C29.1,29.419,26.729,26.311,21.778,24.007ZM15.535,11.79c3.121,0,4.736,1.822,4.736,4.448,0,2.411-.861,4.126-3.552,5.841L15.643,21.7c-3.229-1.286-4.951-2.626-4.951-5.412C10.692,13.344,12.575,11.79,15.535,11.79Zm0,26.9c-3.713,0-6.028-1.983-6.028-5.2a7.091,7.091,0,0,1,4.036-6.7l1.722,0.589C19.733,28.99,21.4,30.437,21.4,33.6,21.4,36.546,19.356,38.689,15.535,38.689Zm40.306-31.4H34.207V26.472h5.328a8.829,8.829,0,0,1,4.521-1.286c3.175,0,5.489,1.661,5.489,6.377,0,4.447-2.368,6.859-6.243,6.859a9.148,9.148,0,0,1-7.212-3.429l-4.305,4.019a14.99,14.99,0,0,0,11.732,5.251c8.4,0,13.885-5.2,13.885-12.7,0-7.395-4.413-11.681-10.387-11.681a12.933,12.933,0,0,0-5.489,1.232V12.808h13.4Zm51.176,6.859c-3.659,0-6.3,1.661-8.557,4.608a6.826,6.826,0,0,0-6.781-4.608,9.854,9.854,0,0,0-8.288,4.394L82.8,15H76.18V43.4h7.642V23.793c1.4-2.518,2.8-3.965,4.9-3.965,1.561,0,2.8.911,2.8,4.18V43.4H99.16V23.793c1.453-2.518,2.852-3.965,4.951-3.965,1.507,0,2.8.911,2.8,4.18V43.4h7.643V22.721C114.552,17.363,111.484,14.147,107.017,14.147ZM125.58,0.376a4.389,4.389,0,0,0-4.628,4.447,4.389,4.389,0,0,0,4.628,4.447A4.453,4.453,0,1,0,125.58.376ZM129.455,15h-7.642V43.4h7.642V15Zm14.637,29.257a12.59,12.59,0,0,0,4.9-.965l-1.56-5.412a3.29,3.29,0,0,1-1.507.322c-1.077,0-1.561-.643-1.561-1.875V2.841l-7.642.857V36.546C136.719,41.475,139.464,44.262,144.092,44.262Zm15.928,0a12.6,12.6,0,0,0,4.9-.965l-1.561-5.412a3.29,3.29,0,0,1-1.507.322c-1.076,0-1.561-.643-1.561-1.875V2.841l-7.642.857V36.546C152.647,41.475,155.392,44.262,160.02,44.262Zm20.557-30.114c-8.611,0-13.723,6-13.723,15.057,0,9.431,5.166,15.057,13.669,15.057,8.557,0,13.67-6.055,13.67-15.057C194.193,19.774,189.08,14.147,180.577,14.147Zm0,5.68c3.714,0,5.651,2.84,5.651,9.377,0,6.484-1.937,9.377-5.705,9.377s-5.7-2.84-5.7-9.377C174.819,22.721,176.756,19.827,180.577,19.827Zm35.356-5.68a10.754,10.754,0,0,0-8.719,4.448L206.622,15H200V43.4h7.642V23.793c1.56-2.518,3.283-3.965,5.489-3.965,1.938,0,3.121.911,3.121,4.18V43.4H223.9V22.721C223.9,17.363,220.938,14.147,215.933,14.147ZM255.27,28.562c0-9.056-4.789-14.414-12.862-14.414-8.342,0-12.97,6.644-12.97,15.218,0,8.9,4.79,14.9,13.939,14.9A16.865,16.865,0,0,0,254.194,40.4l-3.175-4.287a11.58,11.58,0,0,1-6.943,2.465c-3.659,0-6.242-1.608-6.781-7.073h17.814C255.163,30.7,255.27,29.526,255.27,28.562Zm-7.588-1.822H237.3c0.377-5.358,2.261-7.395,5.274-7.395,3.66,0,5.113,2.786,5.113,7.073V26.74Zm22.6-12.592c-6.889,0-11.3,3.644-11.3,8.466,0,4.287,2.691,7.127,8.449,8.734,5.275,1.447,6.3,2.143,6.3,4.287,0,1.929-1.83,3.108-4.682,3.108a12.589,12.589,0,0,1-7.642-2.786l-3.767,4.18a16.952,16.952,0,0,0,11.624,4.126c6.781,0,12.324-3.322,12.324-9.217,0-5.037-3.229-7.395-8.933-8.949-5-1.447-5.974-2.2-5.974-3.858,0-1.554,1.4-2.572,3.929-2.572a13.225,13.225,0,0,1,7.1,2.251l2.906-4.34A16.287,16.287,0,0,0,270.283,14.147ZM13.21,57.934v8.873a6.166,6.166,0,0,0-4.618-2.122c-4.165,0-6.652,3.73-6.652,8.906,0,5.3,2.293,8.777,6.393,8.777a5.728,5.728,0,0,0,4.94-2.765l0.291,2.379h2.357V58.255ZM8.883,80.214c-2.551,0-4.036-2.154-4.036-6.655s1.679-6.719,4.327-6.719a4.862,4.862,0,0,1,4.036,2.283v8.423C12.08,79.25,10.853,80.214,8.883,80.214Zm25.9-7.234c0-5.112-2.357-8.295-6.91-8.295-4.327,0-6.975,3.7-6.975,9,0,5.369,2.745,8.681,7.427,8.681a9.036,9.036,0,0,0,5.845-2.122L32.97,78.639a7.243,7.243,0,0,1-4.456,1.511c-2.551,0-4.488-1.608-4.747-5.691H34.714C34.746,74.105,34.778,73.559,34.778,72.98Zm-2.68-.514H23.768c0.226-3.954,1.808-5.626,4.165-5.626,2.809,0,4.165,1.961,4.165,5.369v0.257ZM55.635,79.41a4.534,4.534,0,0,1-2.357.707c-1.518,0-2.131-.836-2.131-2.6V67.161h3.81l0.291-2.09h-4.1v-4.18l-2.712.289v3.89H45.5v2.09h2.938V77.642c0,3.086,1.679,4.726,4.488,4.726a6.513,6.513,0,0,0,3.746-1.125Zm9.977-14.725c-4.747,0-7.491,3.569-7.491,8.874,0,5.369,2.712,8.809,7.459,8.809s7.491-3.569,7.491-8.874C73.071,68.093,70.391,64.685,65.612,64.685Zm0,2.186c2.938,0,4.553,2.154,4.553,6.623,0,4.533-1.647,6.687-4.585,6.687s-4.553-2.154-4.553-6.623C61.027,69.026,62.706,66.872,65.612,66.872Zm20.309-2.186a6.429,6.429,0,0,0-5.328,2.958l-0.226-2.572H78.043V81.982h2.712V69.926c1.195-1.865,2.551-3.119,4.553-3.119,1.744,0,2.777.836,2.777,3.44V81.982H90.8V69.862C90.8,66.647,89.053,64.685,85.921,64.685Zm23.538,8.295c0-5.112-2.357-8.295-6.91-8.295-4.327,0-6.975,3.7-6.975,9,0,5.369,2.745,8.681,7.427,8.681a9.037,9.037,0,0,0,5.845-2.122l-1.2-1.608A7.243,7.243,0,0,1,103.2,80.15c-2.551,0-4.488-1.608-4.747-5.691H109.4C109.427,74.105,109.459,73.559,109.459,72.98Zm-2.68-.514H98.448c0.226-3.954,1.809-5.626,4.166-5.626,2.809,0,4.165,1.961,4.165,5.369v0.257Zm10.687,9.9a4.987,4.987,0,0,0,2.26-.547l-0.71-1.9a3.087,3.087,0,0,1-1.131.193c-0.807,0-1.13-.482-1.13-1.415V57.934l-2.712.322V78.767C114.043,81.114,115.4,82.368,117.466,82.368Zm17.242-4.276V70.247c0-3.5-1.84-5.562-5.877-5.562a15.925,15.925,0,0,0-5.747,1.157l0.678,1.993a14.333,14.333,0,0,1,4.585-.932c2.454,0,3.649.965,3.649,3.472v1.35h-2.777c-4.65,0-7.362,1.929-7.362,5.53,0,3.022,2,5.112,5.36,5.112a5.735,5.735,0,0,0,5.1-2.6,3.335,3.335,0,0,0,3.164,2.6l0.646-1.9C135.225,80.15,134.708,79.668,134.708,78.092Zm-6.878,2.218c-2.034,0-3.1-1.125-3.1-3.183,0-2.411,1.679-3.6,4.843-3.6H132v4.051A4.571,4.571,0,0,1,127.83,80.311Zm23.151-22.377v8.873a6.167,6.167,0,0,0-4.618-2.122c-4.165,0-6.651,3.73-6.651,8.906,0,5.3,2.292,8.777,6.393,8.777a5.726,5.726,0,0,0,4.94-2.765l0.291,2.379h2.357V58.255Zm-4.327,22.28c-2.551,0-4.036-2.154-4.036-6.655s1.679-6.719,4.327-6.719a4.861,4.861,0,0,1,4.036,2.283v8.423C149.851,79.25,148.624,80.214,146.654,80.214ZM171,78.092V70.247c0-3.5-1.84-5.562-5.877-5.562a15.921,15.921,0,0,0-5.747,1.157l0.678,1.993a14.323,14.323,0,0,1,4.585-.932c2.454,0,3.649.965,3.649,3.472v1.35H165.51c-4.65,0-7.362,1.929-7.362,5.53,0,3.022,2,5.112,5.36,5.112a5.735,5.735,0,0,0,5.1-2.6,3.335,3.335,0,0,0,3.164,2.6l0.646-1.9C171.516,80.15,171,79.668,171,78.092Zm-6.878,2.218c-2.034,0-3.1-1.125-3.1-3.183,0-2.411,1.68-3.6,4.844-3.6h2.422v4.051A4.571,4.571,0,0,1,164.121,80.311Zm17.6-15.625c-3.423,0-6.006,1.929-6.006,4.6,0,2.379,1.453,3.89,5.134,4.855,3.326,0.9,4.2,1.543,4.2,3.311,0,1.7-1.486,2.733-3.778,2.733a7.721,7.721,0,0,1-4.812-1.672L175,80.15a9.2,9.2,0,0,0,6.329,2.218c3.423,0,6.555-1.64,6.555-5.08,0-2.958-1.969-4.308-5.586-5.241-2.809-.739-3.746-1.382-3.746-2.829s1.26-2.379,3.262-2.379a7.53,7.53,0,0,1,4.423,1.479l1.195-1.7A8.942,8.942,0,0,0,181.718,64.685Zm29.22-6.752v8.873a6.166,6.166,0,0,0-4.617-2.122c-4.166,0-6.652,3.73-6.652,8.906,0,5.3,2.293,8.777,6.393,8.777A5.729,5.729,0,0,0,211,79.6l0.29,2.379h2.358V58.255Zm-4.327,22.28c-2.551,0-4.036-2.154-4.036-6.655s1.679-6.719,4.327-6.719a4.861,4.861,0,0,1,4.036,2.283v8.423C209.808,79.25,208.581,80.214,206.611,80.214Zm25.9-7.234c0-5.112-2.357-8.295-6.91-8.295-4.327,0-6.974,3.7-6.974,9,0,5.369,2.744,8.681,7.426,8.681a9.037,9.037,0,0,0,5.845-2.122L230.7,78.639a7.243,7.243,0,0,1-4.456,1.511c-2.551,0-4.488-1.608-4.747-5.691h10.947C232.474,74.105,232.506,73.559,232.506,72.98Zm-2.68-.514H221.5c0.226-3.954,1.809-5.626,4.166-5.626,2.809,0,4.165,1.961,4.165,5.369v0.257Zm24.086-12.989c-5.037,0-9.17,3.922-9.17,11.446,0,7.427,3.875,11.446,9.2,11.446a8.688,8.688,0,0,0,6.264-2.443l-1.389-1.768a7.464,7.464,0,0,1-4.779,1.833c-3.551,0-6.328-2.6-6.328-9.067,0-6.784,2.873-9.131,6.361-9.131a6.652,6.652,0,0,1,4.359,1.64l1.518-1.8A8.646,8.646,0,0,0,253.912,59.477Zm17.5,0c-5.49,0-9.3,4.212-9.3,11.51,0,7.395,3.778,11.381,9.3,11.381,5.554,0,9.3-4.115,9.3-11.413C280.712,63.5,276.934,59.477,271.413,59.477Zm0,2.315c3.907,0,6.329,2.7,6.329,9.163s-2.455,9.1-6.329,9.1c-3.746,0-6.329-2.636-6.329-9.066C265.084,64.492,267.6,61.792,271.413,61.792Zm15.444,14.7a4.6,4.6,0,0,0-3.766,1.856l1.036,0.825a3.31,3.31,0,0,1,2.655-1.387,2.008,2.008,0,0,1,2.127,2.175c0,2.081-1.092,3.3-5.573,7.986V89.2h7.343l0.188-1.331h-5.723c3.935-3.974,5.422-5.605,5.422-7.986A3.393,3.393,0,0,0,286.857,76.488Zm29.411-3.508c0-5.112-2.357-8.295-6.91-8.295-4.327,0-6.975,3.7-6.975,9,0,5.369,2.745,8.681,7.427,8.681a9.037,9.037,0,0,0,5.845-2.122l-1.195-1.608A7.243,7.243,0,0,1,310,80.15c-2.551,0-4.488-1.608-4.747-5.691H316.2C316.236,74.105,316.268,73.559,316.268,72.98Zm-2.68-.514h-8.331c0.226-3.954,1.808-5.626,4.166-5.626,2.809,0,4.165,1.961,4.165,5.369v0.257Zm17.952-7.395L331.346,67a6.248,6.248,0,0,0-4.811-2.315c-4.166,0-6.652,3.73-6.652,8.906,0,5.3,2.293,8.777,6.394,8.777a5.77,5.77,0,0,0,4.875-2.636v8.713l2.713,0.322V65.071H331.54Zm-4.682,15.143c-2.583,0-4.069-2.154-4.069-6.655s1.679-6.719,4.327-6.719a4.861,4.861,0,0,1,4.036,2.283v8.423C330.022,79.25,328.8,80.214,326.858,80.214Zm34.515-7.234c0-5.112-2.357-8.295-6.91-8.295-4.327,0-6.974,3.7-6.974,9,0,5.369,2.744,8.681,7.426,8.681a9.037,9.037,0,0,0,5.845-2.122l-1.195-1.608a7.243,7.243,0,0,1-4.456,1.511c-2.551,0-4.488-1.608-4.747-5.691h10.947C361.341,74.105,361.373,73.559,361.373,72.98Zm-2.68-.514h-8.331c0.226-3.954,1.809-5.626,4.166-5.626,2.809,0,4.165,1.961,4.165,5.369v0.257Zm19.631-7.395H375.45l-4.552,14.5-4.618-14.5h-2.971l5.909,16.911h3.294ZM383.07,57.1a1.866,1.866,0,1,0,1.937,1.865A1.82,1.82,0,0,0,383.07,57.1Zm1.388,7.973h-2.712V81.982h2.712V65.071ZM398.019,79.41a4.535,4.535,0,0,1-2.357.707c-1.518,0-2.131-.836-2.131-2.6V67.161h3.81l0.291-2.09h-4.1v-4.18l-2.713.289v3.89H387.88v2.09h2.938V77.642c0,3.086,1.679,4.726,4.489,4.726a6.513,6.513,0,0,0,3.745-1.125Zm15.272-1.318V70.247c0-3.5-1.84-5.562-5.877-5.562a15.925,15.925,0,0,0-5.747,1.157l0.678,1.993a14.333,14.333,0,0,1,4.585-.932c2.454,0,3.649.965,3.649,3.472v1.35H407.8c-4.65,0-7.362,1.929-7.362,5.53,0,3.022,2,5.112,5.36,5.112a5.735,5.735,0,0,0,5.1-2.6,3.335,3.335,0,0,0,3.164,2.6l0.646-1.9C413.808,80.15,413.291,79.668,413.291,78.092Zm-6.878,2.218c-2.034,0-3.1-1.125-3.1-3.183,0-2.411,1.679-3.6,4.843-3.6h2.422v4.051A4.571,4.571,0,0,1,406.413,80.311Zm23.151-22.377v8.873a6.167,6.167,0,0,0-4.618-2.122c-4.165,0-6.651,3.73-6.651,8.906,0,5.3,2.292,8.777,6.393,8.777a5.727,5.727,0,0,0,4.94-2.765l0.291,2.379h2.357V58.255Zm-4.327,22.28c-2.551,0-4.036-2.154-4.036-6.655s1.679-6.719,4.327-6.719a4.861,4.861,0,0,1,4.036,2.283v8.423C428.434,79.25,427.207,80.214,425.237,80.214Zm24.345-2.122V70.247c0-3.5-1.84-5.562-5.877-5.562a15.921,15.921,0,0,0-5.747,1.157l0.678,1.993a14.323,14.323,0,0,1,4.585-.932c2.454,0,3.649.965,3.649,3.472v1.35h-2.777c-4.65,0-7.362,1.929-7.362,5.53,0,3.022,2,5.112,5.36,5.112a5.735,5.735,0,0,0,5.1-2.6,3.335,3.335,0,0,0,3.164,2.6l0.646-1.9C450.1,80.15,449.582,79.668,449.582,78.092ZM442.7,80.311c-2.034,0-3.1-1.125-3.1-3.183,0-2.411,1.68-3.6,4.844-3.6h2.422v4.051A4.571,4.571,0,0,1,442.7,80.311Zm17.6-15.625c-3.423,0-6.006,1.929-6.006,4.6,0,2.379,1.453,3.89,5.134,4.855,3.326,0.9,4.2,1.543,4.2,3.311,0,1.7-1.486,2.733-3.778,2.733a7.721,7.721,0,0,1-4.812-1.672l-1.453,1.64a9.2,9.2,0,0,0,6.329,2.218c3.423,0,6.555-1.64,6.555-5.08,0-2.958-1.97-4.308-5.586-5.241-2.809-.739-3.746-1.382-3.746-2.829s1.26-2.379,3.262-2.379a7.53,7.53,0,0,1,4.423,1.479l1.195-1.7A8.942,8.942,0,0,0,460.3,64.685ZM14.276,116.67v-7.845c0-3.5-1.841-5.562-5.877-5.562a15.919,15.919,0,0,0-5.748,1.158l0.678,1.993a14.325,14.325,0,0,1,4.585-.932c2.454,0,3.649.964,3.649,3.472v1.35H8.787c-4.65,0-7.362,1.929-7.362,5.53,0,3.022,2,5.112,5.36,5.112a5.735,5.735,0,0,0,5.1-2.6,3.335,3.335,0,0,0,3.164,2.6l0.646-1.9C14.793,118.728,14.276,118.245,14.276,116.67ZM7.4,118.888c-2.034,0-3.1-1.125-3.1-3.183,0-2.411,1.679-3.6,4.844-3.6h2.422v4.051A4.57,4.57,0,0,1,7.4,118.888Zm16.111,2.058a4.982,4.982,0,0,0,2.26-.547l-0.71-1.9a3.1,3.1,0,0,1-1.13.192c-0.807,0-1.13-.482-1.13-1.414V96.512l-2.712.322v20.512C20.087,119.692,21.443,120.946,23.51,120.946Zm26.057-4.276v-7.845c0-3.5-1.841-5.562-5.877-5.562a15.918,15.918,0,0,0-5.748,1.158l0.678,1.993a14.325,14.325,0,0,1,4.585-.932c2.454,0,3.649.964,3.649,3.472v1.35H44.077c-4.65,0-7.362,1.929-7.362,5.53,0,3.022,2,5.112,5.36,5.112a5.734,5.734,0,0,0,5.1-2.6,3.335,3.335,0,0,0,3.165,2.6l0.646-1.9C50.083,118.728,49.566,118.245,49.566,116.67Zm-6.878,2.218c-2.034,0-3.1-1.125-3.1-3.183,0-2.411,1.679-3.6,4.843-3.6h2.422v4.051A4.57,4.57,0,0,1,42.688,118.888Zm29.964-15.625a5.994,5.994,0,0,0-5.1,3.119,4.241,4.241,0,0,0-4.262-3.119,5.886,5.886,0,0,0-5.005,2.958l-0.226-2.572H55.732V120.56h2.712V108.5c1.162-1.865,2.293-3.119,4.165-3.119,1.421,0,2.519.836,2.519,3.44V120.56h2.712V108.5c1.195-1.865,2.293-3.119,4.165-3.119,1.421,0,2.519.836,2.519,3.44V120.56h2.712V108.439C77.237,105.257,75.429,103.263,72.652,103.263Zm18.113,0a5.849,5.849,0,0,0-4.876,2.54V96.512l-2.712.322V120.56h2.389l0.258-1.929a5.771,5.771,0,0,0,4.618,2.315c4.1,0,6.62-3.537,6.62-8.874C97.061,106.446,94.607,103.263,90.764,103.263ZM89.8,118.792a4.8,4.8,0,0,1-3.907-2.347v-8.327c0.936-1.415,2.2-2.7,4.133-2.7,2.519,0,4.1,1.8,4.1,6.655C94.123,116.766,92.411,118.792,89.8,118.792Zm13.528-23.116a1.866,1.866,0,1,0,1.937,1.865A1.82,1.82,0,0,0,103.324,95.676Zm1.388,7.973H102V120.56h2.712V103.649Zm18.856,7.909c0-5.112-2.357-8.3-6.91-8.3-4.327,0-6.974,3.7-6.974,9,0,5.369,2.744,8.681,7.426,8.681a9.038,9.038,0,0,0,5.845-2.122l-1.195-1.607a7.246,7.246,0,0,1-4.456,1.511c-2.551,0-4.488-1.608-4.746-5.691H123.5C123.536,112.683,123.568,112.137,123.568,111.558Zm-2.68-.514h-8.33c0.226-3.955,1.808-5.627,4.165-5.627,2.809,0,4.165,1.961,4.165,5.369v0.258Zm15.337-7.781a6.429,6.429,0,0,0-5.328,2.958l-0.226-2.572h-2.325V120.56h2.712V108.5c1.195-1.865,2.551-3.119,4.553-3.119,1.744,0,2.777.836,2.777,3.44V120.56H141.1V108.439C141.1,105.224,139.357,103.263,136.225,103.263Zm18.242,14.725a4.534,4.534,0,0,1-2.357.707c-1.518,0-2.131-.835-2.131-2.6V105.739h3.81l0.291-2.09h-4.1v-4.18l-2.713.289v3.89h-2.938v2.09h2.938V116.22c0,3.086,1.679,4.726,4.489,4.726a6.514,6.514,0,0,0,3.745-1.125Zm16.37-6.43c0-5.112-2.357-8.3-6.91-8.3-4.326,0-6.974,3.7-6.974,9,0,5.369,2.744,8.681,7.426,8.681a9.038,9.038,0,0,0,5.845-2.122l-1.195-1.607a7.246,7.246,0,0,1-4.456,1.511c-2.551,0-4.488-1.608-4.746-5.691h10.946C170.805,112.683,170.837,112.137,170.837,111.558Zm-2.68-.514h-8.33c0.226-3.955,1.808-5.627,4.165-5.627,2.809,0,4.165,1.961,4.165,5.369v0.258Zm7.781,5.755a2.056,2.056,0,0,0-2.067,2.057,2.188,2.188,0,0,0,.872,1.736l-1.291,5.209h1.937l2.1-4.791a5.048,5.048,0,0,0,.549-2.154A2.043,2.043,0,0,0,175.938,116.8Zm28.22-5.241c0-5.112-2.357-8.3-6.91-8.3-4.327,0-6.975,3.7-6.975,9,0,5.369,2.745,8.681,7.427,8.681a9.033,9.033,0,0,0,5.844-2.122l-1.194-1.607a7.25,7.25,0,0,1-4.456,1.511c-2.551,0-4.489-1.608-4.747-5.691h10.946C204.126,112.683,204.158,112.137,204.158,111.558Zm-2.68-.514h-8.331c0.226-3.955,1.808-5.627,4.165-5.627,2.81,0,4.166,1.961,4.166,5.369v0.258Zm17.952-7.395-0.194,1.929a6.249,6.249,0,0,0-4.811-2.315c-4.166,0-6.652,3.73-6.652,8.906,0,5.305,2.293,8.777,6.393,8.777a5.773,5.773,0,0,0,4.876-2.636v8.712l2.713,0.322V103.649H219.43Zm-4.682,15.143c-2.584,0-4.069-2.154-4.069-6.655s1.679-6.72,4.327-6.72a4.86,4.86,0,0,1,4.036,2.283v8.423C217.912,117.827,216.685,118.792,214.748,118.792Zm25.572-15.143h-2.713V115.77c-1.065,1.768-2.486,3.022-4.423,3.022-1.906,0-2.777-.9-2.777-3.312V103.649h-2.713V115.77c0,3.311,1.776,5.176,4.747,5.176a5.8,5.8,0,0,0,5.36-3.119L238,120.56h2.325V103.649Zm7.457-7.973a1.866,1.866,0,1,0,1.938,1.865A1.82,1.82,0,0,0,247.777,95.676Zm1.389,7.973h-2.713V120.56h2.713V103.649Zm18.436,0h-2.873l-4.553,14.5-4.618-14.5h-2.971l5.91,16.911h3.293Zm14.433,13.021v-7.845c0-3.5-1.84-5.562-5.876-5.562a15.919,15.919,0,0,0-5.748,1.158l0.678,1.993a14.328,14.328,0,0,1,4.585-.932c2.454,0,3.649.964,3.649,3.472v1.35h-2.777c-4.65,0-7.362,1.929-7.362,5.53,0,3.022,2,5.112,5.36,5.112a5.736,5.736,0,0,0,5.1-2.6,3.334,3.334,0,0,0,3.164,2.6l0.646-1.9C282.552,118.728,282.035,118.245,282.035,116.67Zm-6.877,2.218c-2.035,0-3.1-1.125-3.1-3.183,0-2.411,1.679-3.6,4.843-3.6h2.422v4.051A4.57,4.57,0,0,1,275.158,118.888Zm16.111,2.058a4.978,4.978,0,0,0,2.26-.547l-0.71-1.9a3.094,3.094,0,0,1-1.13.192c-0.807,0-1.13-.482-1.13-1.414V96.512l-2.713.322v20.512C287.846,119.692,289.2,120.946,291.269,120.946Zm18.792-9.388c0-5.112-2.357-8.3-6.91-8.3-4.326,0-6.974,3.7-6.974,9,0,5.369,2.744,8.681,7.426,8.681a9.038,9.038,0,0,0,5.845-2.122l-1.195-1.607a7.246,7.246,0,0,1-4.456,1.511c-2.551,0-4.488-1.608-4.746-5.691H310C310.029,112.683,310.061,112.137,310.061,111.558Zm-2.68-.514h-8.33c0.226-3.955,1.808-5.627,4.165-5.627,2.809,0,4.165,1.961,4.165,5.369v0.258Zm15.337-7.781a6.429,6.429,0,0,0-5.328,2.958l-0.226-2.572h-2.325V120.56h2.712V108.5c1.195-1.865,2.551-3.119,4.553-3.119,1.744,0,2.777.836,2.777,3.44V120.56h2.713V108.439C327.594,105.224,325.85,103.263,322.718,103.263Zm18.242,14.725a4.534,4.534,0,0,1-2.357.707c-1.518,0-2.131-.835-2.131-2.6V105.739h3.81l0.291-2.09h-4.1v-4.18l-2.713.289v3.89h-2.938v2.09h2.938V116.22c0,3.086,1.68,4.726,4.489,4.726a6.511,6.511,0,0,0,3.745-1.125Zm16.371-6.43c0-5.112-2.358-8.3-6.911-8.3-4.326,0-6.974,3.7-6.974,9,0,5.369,2.744,8.681,7.427,8.681a9.037,9.037,0,0,0,5.844-2.122l-1.195-1.607a7.246,7.246,0,0,1-4.456,1.511c-2.551,0-4.488-1.608-4.746-5.691h10.946C357.3,112.683,357.331,112.137,357.331,111.558Zm-2.681-.514h-8.33c0.226-3.955,1.808-5.627,4.165-5.627,2.809,0,4.165,1.961,4.165,5.369v0.258Zm27.283,5.626v-7.845c0-3.5-1.84-5.562-5.877-5.562a15.918,15.918,0,0,0-5.747,1.158l0.678,1.993a14.318,14.318,0,0,1,4.585-.932c2.454,0,3.649.964,3.649,3.472v1.35h-2.777c-4.65,0-7.362,1.929-7.362,5.53,0,3.022,2,5.112,5.36,5.112a5.736,5.736,0,0,0,5.1-2.6,3.334,3.334,0,0,0,3.164,2.6l0.646-1.9C382.45,118.728,381.933,118.245,381.933,116.67Zm-6.878,2.218c-2.034,0-3.1-1.125-3.1-3.183,0-2.411,1.679-3.6,4.843-3.6h2.422v4.051A4.571,4.571,0,0,1,375.055,118.888Zm16.112,2.058a4.981,4.981,0,0,0,2.26-.547l-0.71-1.9a3.1,3.1,0,0,1-1.13.192c-0.808,0-1.131-.482-1.131-1.414V96.512l-2.712.322v20.512C387.744,119.692,389.1,120.946,391.167,120.946ZM9.3,141.841c-4.553,0-7.362,3.569-7.362,8.97,0,5.466,2.842,8.713,7.362,8.713a7.731,7.731,0,0,0,5.1-1.865l-1.259-1.768A6.115,6.115,0,0,1,9.4,157.209c-2.777,0-4.553-1.929-4.553-6.43,0-4.533,1.776-6.687,4.553-6.687a5.8,5.8,0,0,1,3.681,1.253l1.324-1.7A7.467,7.467,0,0,0,9.3,141.841Zm20.181,13.407V147.4c0-3.5-1.841-5.562-5.877-5.562A15.938,15.938,0,0,0,17.859,143l0.678,1.994a14.329,14.329,0,0,1,4.585-.933c2.454,0,3.649.965,3.649,3.473v1.35H23.994c-4.65,0-7.362,1.929-7.362,5.53,0,3.022,2,5.112,5.36,5.112a5.734,5.734,0,0,0,5.1-2.6,3.336,3.336,0,0,0,3.164,2.6l0.646-1.9C30,157.305,29.484,156.823,29.484,155.248Zm-6.878,2.218c-2.034,0-3.1-1.125-3.1-3.183,0-2.411,1.679-3.6,4.843-3.6h2.422v4.051A4.57,4.57,0,0,1,22.606,157.466ZM42.85,141.841c-2.131,0-3.713,1.318-4.617,3.922l-0.258-3.536H35.649v16.911h2.712v-9.806c0.743-3.311,2-4.855,4.165-4.855a5.22,5.22,0,0,1,1.485.193l0.517-2.636A7.047,7.047,0,0,0,42.85,141.841Zm12.657,0a5.849,5.849,0,0,0-4.876,2.54v-9.292l-2.712.322v23.727h2.389l0.258-1.929a5.771,5.771,0,0,0,4.618,2.315c4.1,0,6.619-3.537,6.619-8.874C61.8,145.024,59.349,141.841,55.507,141.841ZM54.538,157.37a4.8,4.8,0,0,1-3.907-2.347V146.7c0.936-1.415,2.2-2.7,4.133-2.7,2.519,0,4.1,1.8,4.1,6.655C58.865,155.344,57.154,157.37,54.538,157.37Zm18.533-15.529c-4.747,0-7.491,3.569-7.491,8.874,0,5.369,2.712,8.809,7.459,8.809s7.491-3.569,7.491-8.874C80.53,145.249,77.85,141.841,73.071,141.841Zm0,2.186c2.938,0,4.553,2.154,4.553,6.623,0,4.534-1.647,6.688-4.585,6.688s-4.553-2.154-4.553-6.623C68.486,146.181,70.165,144.027,73.071,144.027Zm20.309-2.186a6.43,6.43,0,0,0-5.328,2.958l-0.226-2.572H85.5v16.911h2.712V147.082c1.195-1.865,2.551-3.119,4.553-3.119,1.744,0,2.777.836,2.777,3.44v11.735h2.712V147.017C98.256,143.8,96.512,141.841,93.38,141.841Zm17.144,0c-4.746,0-7.491,3.569-7.491,8.874,0,5.369,2.712,8.809,7.459,8.809s7.491-3.569,7.491-8.874C117.983,145.249,115.3,141.841,110.524,141.841Zm0,2.186c2.939,0,4.553,2.154,4.553,6.623,0,4.534-1.646,6.688-4.585,6.688s-4.553-2.154-4.553-6.623C105.939,146.181,107.618,144.027,110.524,144.027Zm27.283-2.186c-4.553,0-7.362,3.569-7.362,8.97,0,5.466,2.841,8.713,7.362,8.713a7.733,7.733,0,0,0,5.1-1.865l-1.259-1.768a6.117,6.117,0,0,1-3.746,1.318c-2.777,0-4.553-1.929-4.553-6.43,0-4.533,1.776-6.687,4.553-6.687a5.8,5.8,0,0,1,3.681,1.253l1.324-1.7A7.467,7.467,0,0,0,137.807,141.841Zm15.046,0c-4.746,0-7.491,3.569-7.491,8.874,0,5.369,2.712,8.809,7.459,8.809s7.491-3.569,7.491-8.874C160.312,145.249,157.632,141.841,152.853,141.841Zm0,2.186c2.939,0,4.553,2.154,4.553,6.623,0,4.534-1.646,6.688-4.585,6.688s-4.553-2.154-4.553-6.623C148.268,146.181,149.947,144.027,152.853,144.027Zm20.309-2.186a6.432,6.432,0,0,0-5.328,2.958l-0.226-2.572h-2.324v16.911H168V147.082c1.195-1.865,2.551-3.119,4.553-3.119,1.744,0,2.777.836,2.777,3.44v11.735h2.712V147.017C178.038,143.8,176.294,141.841,173.162,141.841Zm18.243,14.725a4.537,4.537,0,0,1-2.357.707c-1.518,0-2.132-.836-2.132-2.6V144.317h3.811l0.29-2.09h-4.1v-4.18l-2.712.29v3.89h-2.938v2.09H184.2V154.8c0,3.086,1.679,4.726,4.488,4.726a6.517,6.517,0,0,0,3.746-1.125Zm16.37-6.43c0-5.112-2.357-8.295-6.91-8.295-4.327,0-6.975,3.7-6.975,9,0,5.369,2.745,8.681,7.427,8.681a9.038,9.038,0,0,0,5.845-2.122l-1.195-1.608a7.242,7.242,0,0,1-4.456,1.511c-2.551,0-4.488-1.607-4.747-5.69h10.947C207.743,151.261,207.775,150.715,207.775,150.136Zm-2.68-.515h-8.331c0.226-3.954,1.808-5.626,4.166-5.626,2.809,0,4.165,1.961,4.165,5.369v0.257Zm15.336-7.78A6.429,6.429,0,0,0,215.1,144.8l-0.227-2.572h-2.324v16.911h2.712V147.082c1.2-1.865,2.551-3.119,4.553-3.119,1.744,0,2.777.836,2.777,3.44v11.735h2.712V147.017C225.307,143.8,223.564,141.841,220.431,141.841Zm12.14-7.587a1.866,1.866,0,1,0,1.937,1.864A1.819,1.819,0,0,0,232.571,134.254Zm1.388,7.973h-2.712v16.911h2.712V142.227Zm16.241-7.138v8.874a6.167,6.167,0,0,0-4.617-2.122c-4.166,0-6.652,3.73-6.652,8.906,0,5.3,2.293,8.777,6.394,8.777a5.728,5.728,0,0,0,4.94-2.765l0.291,2.379h2.357V135.411Zm-4.327,22.281c-2.55,0-4.036-2.154-4.036-6.655s1.679-6.72,4.327-6.72a4.86,4.86,0,0,1,4.036,2.283V154.7C249.07,156.405,247.843,157.37,245.873,157.37Zm19.5-15.529c-4.747,0-7.491,3.569-7.491,8.874,0,5.369,2.712,8.809,7.459,8.809s7.491-3.569,7.491-8.874C272.834,145.249,270.154,141.841,265.375,141.841Zm0,2.186c2.938,0,4.553,2.154,4.553,6.623,0,4.534-1.647,6.688-4.585,6.688s-4.553-2.154-4.553-6.623C260.79,146.181,262.469,144.027,265.375,144.027Zm33.805,6.109c0-5.112-2.357-8.295-6.91-8.295-4.327,0-6.974,3.7-6.974,9,0,5.369,2.744,8.681,7.426,8.681a9.038,9.038,0,0,0,5.845-2.122l-1.195-1.608a7.242,7.242,0,0,1-4.456,1.511c-2.551,0-4.488-1.607-4.747-5.69h10.947C299.148,151.261,299.18,150.715,299.18,150.136Zm-2.68-.515h-8.331c0.226-3.954,1.809-5.626,4.166-5.626,2.809,0,4.165,1.961,4.165,5.369v0.257Zm15.337-7.78a6.429,6.429,0,0,0-5.328,2.958l-0.226-2.572h-2.325v16.911h2.712V147.082c1.195-1.865,2.551-3.119,4.553-3.119,1.744,0,2.777.836,2.777,3.44v11.735h2.712V147.017C316.712,143.8,314.969,141.841,311.837,141.841Zm23.73-4.5a7.891,7.891,0,0,0-6.458,3.183l1.776,1.415c1.421-1.608,2.68-2.38,4.553-2.38a3.444,3.444,0,0,1,3.649,3.73c0,3.569-1.873,5.658-9.558,13.7v2.154h12.593l0.323-2.283h-9.816c6.749-6.816,9.3-9.613,9.3-13.7C341.929,139.848,339.474,137.34,335.567,137.34Zm17.5,0c-4.746,0-7.1,3.89-7.1,11.06s2.357,11.124,7.1,11.124,7.1-3.955,7.1-11.092C360.171,141.262,357.814,137.34,353.067,137.34Zm0,2.154c2.777,0,4.3,2.54,4.3,8.938,0,6.366-1.518,8.938-4.3,8.938-2.809,0-4.294-2.572-4.294-8.97C348.773,142.034,350.258,139.494,353.067,139.494Zm18.34-1.833h-2.389l-6.62,4.084,1.195,1.929,5.1-3.119v18.583h2.712V137.661Zm32.256,4.18a6,6,0,0,0-5.1,3.119,4.239,4.239,0,0,0-4.262-3.119,5.886,5.886,0,0,0-5,2.958l-0.226-2.572h-2.325v16.911h2.712V147.082c1.163-1.865,2.293-3.119,4.166-3.119,1.421,0,2.518.836,2.518,3.44v11.735h2.713V147.082c1.2-1.865,2.292-3.119,4.165-3.119,1.421,0,2.519.836,2.519,3.44v11.735h2.712V147.017C408.248,143.834,406.44,141.841,403.663,141.841Zm11.848-7.587a1.866,1.866,0,1,0,1.938,1.864A1.819,1.819,0,0,0,415.511,134.254Zm1.389,7.973h-2.713v16.911H416.9V142.227Zm9.363,17.3a4.981,4.981,0,0,0,2.26-.547l-0.71-1.9a3.076,3.076,0,0,1-1.13.193c-0.808,0-1.131-.482-1.131-1.414v-20.77l-2.712.322v20.512C422.84,158.27,424.2,159.524,426.263,159.524Zm-415.281,20.9a6.313,6.313,0,0,0-5.166,2.829V173.7l-2.712.322v23.7H5.816V185.627c1.195-1.832,2.583-3.086,4.521-3.086,1.711,0,2.809.836,2.809,3.44v11.735h2.712V185.6C15.858,182.412,14.082,180.419,10.982,180.419Zm23.538,8.295c0-5.112-2.357-8.295-6.91-8.295-4.327,0-6.975,3.7-6.975,9,0,5.369,2.745,8.681,7.427,8.681a9.036,9.036,0,0,0,5.845-2.122l-1.195-1.608a7.242,7.242,0,0,1-4.456,1.511c-2.551,0-4.488-1.607-4.747-5.69H34.456C34.488,189.839,34.52,189.292,34.52,188.714Zm-2.68-.515H23.509c0.226-3.954,1.808-5.626,4.165-5.626,2.809,0,4.165,1.961,4.165,5.369V188.2Zm13.657-7.78c-4.553,0-7.362,3.569-7.362,8.97,0,5.466,2.842,8.713,7.362,8.713a7.731,7.731,0,0,0,5.1-1.865l-1.259-1.768a6.115,6.115,0,0,1-3.746,1.318c-2.777,0-4.553-1.929-4.553-6.43,0-4.533,1.776-6.688,4.553-6.688a5.8,5.8,0,0,1,3.681,1.254l1.324-1.7A7.467,7.467,0,0,0,45.5,180.419Zm16.6,14.725a4.535,4.535,0,0,1-2.357.707c-1.518,0-2.131-.836-2.131-2.6V182.9h3.81l0.291-2.09h-4.1v-4.18l-2.712.29v3.89H51.954v2.09h2.938v10.481c0,3.086,1.679,4.726,4.488,4.726a6.509,6.509,0,0,0,3.746-1.126Zm13.012-20.737-1.227-2.315-6.329,3.6,0.84,1.447Zm2.26,19.419v-7.845c0-3.5-1.841-5.562-5.877-5.562a15.938,15.938,0,0,0-5.748,1.157l0.678,1.994A14.329,14.329,0,0,1,71,182.637c2.454,0,3.649.965,3.649,3.473v1.35H71.876c-4.65,0-7.362,1.929-7.362,5.53,0,3.022,2,5.112,5.36,5.112a5.807,5.807,0,0,0,5.1-2.6,3.3,3.3,0,0,0,3.164,2.6l0.646-1.9C77.882,195.883,77.366,195.4,77.366,193.826Zm-6.878,2.218c-2.034,0-3.1-1.125-3.1-3.183,0-2.411,1.679-3.6,4.843-3.6h2.422v4.019A4.517,4.517,0,0,1,70.488,196.044Zm20.244-15.625c-2.131,0-3.713,1.318-4.618,3.922l-0.258-3.536H83.531v16.911h2.712V187.91c0.743-3.311,2-4.855,4.165-4.855a5.22,5.22,0,0,1,1.485.193l0.517-2.636A7.047,7.047,0,0,0,90.732,180.419Zm17.177,8.295c0-5.112-2.357-8.295-6.91-8.295-4.327,0-6.974,3.7-6.974,9,0,5.369,2.745,8.681,7.426,8.681a9.038,9.038,0,0,0,5.845-2.122l-1.2-1.608a7.242,7.242,0,0,1-4.456,1.511c-2.551,0-4.488-1.607-4.747-5.69h10.947C107.877,189.839,107.909,189.292,107.909,188.714Zm-2.68-.515H96.9c0.226-3.954,1.808-5.626,4.166-5.626,2.809,0,4.165,1.961,4.165,5.369V188.2Zm18.469,5.627v-7.845c0-3.5-1.84-5.562-5.877-5.562a15.933,15.933,0,0,0-5.747,1.157l0.678,1.994a14.323,14.323,0,0,1,4.585-.933c2.454,0,3.649.965,3.649,3.473v1.35h-2.777c-4.65,0-7.362,1.929-7.362,5.53,0,3.022,2,5.112,5.36,5.112a5.736,5.736,0,0,0,5.1-2.6,3.336,3.336,0,0,0,3.164,2.6l0.646-1.9C124.215,195.883,123.7,195.4,123.7,193.826Zm-6.878,2.218c-2.034,0-3.1-1.125-3.1-3.183,0-2.411,1.679-3.6,4.844-3.6h2.422v4.051A4.57,4.57,0,0,1,116.82,196.044Zm17.6-15.625c-3.423,0-6.006,1.929-6.006,4.6,0,2.38,1.453,3.891,5.134,4.855,3.326,0.9,4.2,1.543,4.2,3.312,0,1.7-1.486,2.732-3.778,2.732a7.726,7.726,0,0,1-4.812-1.671l-1.453,1.639a9.2,9.2,0,0,0,6.329,2.219c3.423,0,6.555-1.64,6.555-5.08,0-2.958-1.97-4.308-5.586-5.241-2.809-.739-3.746-1.382-3.746-2.829s1.26-2.379,3.262-2.379a7.528,7.528,0,0,1,4.423,1.479l1.195-1.7A8.94,8.94,0,0,0,134.417,180.419Zm29.22-6.752v8.874a6.164,6.164,0,0,0-4.617-2.122c-4.166,0-6.652,3.729-6.652,8.906,0,5.3,2.292,8.777,6.393,8.777a5.728,5.728,0,0,0,4.941-2.765l0.29,2.379h2.358V173.989Zm-4.327,22.281c-2.551,0-4.036-2.154-4.036-6.656s1.679-6.719,4.327-6.719a4.86,4.86,0,0,1,4.036,2.283v8.423C162.507,194.983,161.28,195.948,159.31,195.948Zm25.9-7.234c0-5.112-2.357-8.295-6.91-8.295-4.327,0-6.974,3.7-6.974,9,0,5.369,2.744,8.681,7.426,8.681a9.038,9.038,0,0,0,5.845-2.122l-1.2-1.608a7.242,7.242,0,0,1-4.456,1.511c-2.551,0-4.488-1.607-4.747-5.69h10.947C185.173,189.839,185.205,189.292,185.205,188.714Zm-2.68-.515h-8.331c0.226-3.954,1.809-5.626,4.166-5.626,2.809,0,4.165,1.961,4.165,5.369V188.2Zm23.7-7.78a5.846,5.846,0,0,0-4.876,2.54v-9.292l-2.712.322v23.727h2.389l0.258-1.929A5.773,5.773,0,0,0,205.9,198.1c4.1,0,6.619-3.537,6.619-8.874C212.52,183.6,210.066,180.419,206.224,180.419Zm-0.969,15.529a4.8,4.8,0,0,1-3.907-2.347v-8.327c0.936-1.415,2.2-2.7,4.133-2.7,2.519,0,4.1,1.8,4.1,6.655C209.582,193.922,207.871,195.948,205.255,195.948Zm18.533-15.529c-4.747,0-7.491,3.569-7.491,8.873,0,5.37,2.712,8.81,7.459,8.81s7.491-3.569,7.491-8.874C231.247,183.827,228.567,180.419,223.788,180.419Zm0,2.186c2.938,0,4.553,2.154,4.553,6.623,0,4.533-1.647,6.687-4.585,6.687s-4.553-2.154-4.553-6.623C219.2,184.759,220.882,182.605,223.788,182.605Zm16.983-2.186c-3.423,0-6.006,1.929-6.006,4.6,0,2.38,1.453,3.891,5.134,4.855,3.326,0.9,4.2,1.543,4.2,3.312,0,1.7-1.485,2.732-3.778,2.732a7.721,7.721,0,0,1-4.811-1.671l-1.453,1.639a9.193,9.193,0,0,0,6.329,2.219c3.422,0,6.554-1.64,6.554-5.08,0-2.958-1.969-4.308-5.586-5.241-2.809-.739-3.745-1.382-3.745-2.829s1.259-2.379,3.261-2.379a7.533,7.533,0,0,1,4.424,1.479l1.194-1.7A8.94,8.94,0,0,0,240.771,180.419Zm20.955,0.386-0.194,1.929a6.248,6.248,0,0,0-4.811-2.315c-4.165,0-6.652,3.729-6.652,8.906,0,5.3,2.293,8.777,6.394,8.777a5.771,5.771,0,0,0,4.876-2.637v8.713l2.712,0.322V180.805h-2.325Zm-4.682,15.143c-2.583,0-4.068-2.154-4.068-6.656s1.679-6.719,4.326-6.719a4.863,4.863,0,0,1,4.037,2.283v8.423C260.209,194.983,258.982,195.948,257.044,195.948Zm25.572-15.143H279.9v12.12c-1.066,1.769-2.486,3.023-4.424,3.023-1.905,0-2.777-.9-2.777-3.312V180.805h-2.712v12.12c0,3.312,1.776,5.177,4.746,5.177a5.8,5.8,0,0,0,5.361-3.119l0.193,2.733h2.325V180.805Zm18.856,7.909c0-5.112-2.357-8.295-6.91-8.295-4.327,0-6.975,3.7-6.975,9,0,5.369,2.745,8.681,7.427,8.681a9.038,9.038,0,0,0,5.845-2.122l-1.195-1.608a7.242,7.242,0,0,1-4.456,1.511c-2.551,0-4.488-1.607-4.747-5.69h10.947C301.44,189.839,301.472,189.292,301.472,188.714Zm-2.68-.515h-8.331c0.226-3.954,1.809-5.626,4.166-5.626,2.809,0,4.165,1.961,4.165,5.369V188.2Zm27.283,5.627v-7.845c0-3.5-1.841-5.562-5.877-5.562a15.942,15.942,0,0,0-5.748,1.157l0.678,1.994a14.333,14.333,0,0,1,4.586-.933c2.454,0,3.648.965,3.648,3.473v1.35h-2.777c-4.649,0-7.362,1.929-7.362,5.53,0,3.022,2,5.112,5.361,5.112a5.733,5.733,0,0,0,5.1-2.6,3.337,3.337,0,0,0,3.165,2.6l0.646-1.9C326.591,195.883,326.075,195.4,326.075,193.826Zm-6.878,2.218c-2.034,0-3.1-1.125-3.1-3.183,0-2.411,1.679-3.6,4.844-3.6h2.421v4.051A4.569,4.569,0,0,1,319.2,196.044Zm29.964-15.625a5.993,5.993,0,0,0-5.1,3.119,4.241,4.241,0,0,0-4.263-3.119,5.883,5.883,0,0,0-5,2.958l-0.227-2.572h-2.324v16.911h2.712V185.659c1.162-1.864,2.293-3.118,4.165-3.118,1.421,0,2.519.836,2.519,3.44v11.735h2.712V185.659c1.195-1.864,2.293-3.118,4.166-3.118,1.421,0,2.518.836,2.518,3.44v11.735h2.713V185.6C353.746,182.412,351.938,180.419,349.161,180.419Zm21.7,13.407v-7.845c0-3.5-1.84-5.562-5.876-5.562a15.938,15.938,0,0,0-5.748,1.157l0.678,1.994a14.333,14.333,0,0,1,4.585-.933c2.454,0,3.649.965,3.649,3.473v1.35h-2.777c-4.65,0-7.362,1.929-7.362,5.53,0,3.022,2,5.112,5.36,5.112a5.736,5.736,0,0,0,5.1-2.6,3.336,3.336,0,0,0,3.164,2.6l0.646-1.9C371.374,195.883,370.857,195.4,370.857,193.826Zm-6.877,2.218c-2.035,0-3.1-1.125-3.1-3.183,0-2.411,1.679-3.6,4.843-3.6h2.422v4.051A4.57,4.57,0,0,1,363.98,196.044Zm22.892-15.239H375.538v2.282h8.234l-8.977,12.6v2.026h11.818l0.323-2.283h-9.073l9.009-12.571v-2.057Zm12.688-8.713-6.329,3.6,0.84,1.447,6.716-2.733Zm-2.486,8.327c-4.747,0-7.491,3.569-7.491,8.873,0,5.37,2.712,8.81,7.459,8.81s7.491-3.569,7.491-8.874C404.533,183.827,401.853,180.419,397.074,180.419Zm0,2.186c2.938,0,4.553,2.154,4.553,6.623,0,4.533-1.647,6.687-4.585,6.687s-4.553-2.154-4.553-6.623C392.489,184.759,394.168,182.605,397.074,182.605Zm20.309-2.186a6.431,6.431,0,0,0-5.328,2.958l-0.226-2.572H409.5v16.911h2.712V185.659c1.195-1.864,2.551-3.118,4.553-3.118,1.744,0,2.777.836,2.777,3.44v11.735h2.713V185.6C422.259,182.38,420.515,180.419,417.383,180.419Zm12.139-7.588a1.866,1.866,0,1,0,1.938,1.865A1.82,1.82,0,0,0,429.522,172.831Zm1.389,7.974H428.2v16.911h2.712V180.805Zm12.334-.386c-4.553,0-7.362,3.569-7.362,8.97,0,5.466,2.841,8.713,7.362,8.713a7.734,7.734,0,0,0,5.1-1.865l-1.26-1.768a6.112,6.112,0,0,1-3.745,1.318c-2.777,0-4.553-1.929-4.553-6.43,0-4.533,1.776-6.688,4.553-6.688a5.8,5.8,0,0,1,3.681,1.254l1.324-1.7A7.469,7.469,0,0,0,443.245,180.419Zm15.046,0c-4.747,0-7.491,3.569-7.491,8.873,0,5.37,2.712,8.81,7.459,8.81s7.491-3.569,7.491-8.874C465.75,183.827,463.07,180.419,458.291,180.419Zm0,2.186c2.938,0,4.553,2.154,4.553,6.623,0,4.533-1.647,6.687-4.585,6.687s-4.553-2.154-4.553-6.623C453.706,184.759,455.385,182.605,458.291,182.605Zm12.753,11.349a2.056,2.056,0,0,0-2.066,2.058,2.188,2.188,0,0,0,.872,1.736l-1.292,5.208H470.5l2.1-4.79a5.034,5.034,0,0,0,.549-2.154A2.044,2.044,0,0,0,471.044,193.954ZM7.656,219c-3.423,0-6.006,1.929-6.006,4.6,0,2.379,1.453,3.891,5.134,4.855,3.326,0.9,4.2,1.543,4.2,3.312,0,1.7-1.485,2.732-3.778,2.732a7.722,7.722,0,0,1-4.811-1.671L0.94,234.461a9.194,9.194,0,0,0,6.329,2.219c3.423,0,6.555-1.64,6.555-5.08,0-2.958-1.97-4.308-5.586-5.241-2.809-.739-3.746-1.382-3.746-2.829s1.259-2.379,3.261-2.379a7.53,7.53,0,0,1,4.424,1.479l1.195-1.7A8.942,8.942,0,0,0,7.656,219Zm22.893,0.386H27.837V231.5c-1.066,1.769-2.486,3.023-4.424,3.023-1.905,0-2.777-.9-2.777-3.312V219.383H17.923V231.5c0,3.312,1.776,5.177,4.747,5.177a5.8,5.8,0,0,0,5.36-3.119l0.194,2.733h2.325V219.383ZM44.3,219a6.14,6.14,0,0,0-5.069,2.733l-0.226-2.347H36.683v23.695l2.712-.322v-8.1a5.547,5.547,0,0,0,4.553,2.026c4.327,0,6.62-3.7,6.62-8.874C50.567,222.437,48.727,219,44.3,219Zm-1,15.464a4.593,4.593,0,0,1-3.907-2.186v-8.391a5.281,5.281,0,0,1,4.262-2.733c2.648,0,3.972,2.154,3.972,6.655C47.629,232.339,46.111,234.461,43.3,234.461Zm24.926-7.169c0-5.112-2.357-8.295-6.91-8.295-4.327,0-6.975,3.7-6.975,9,0,5.369,2.745,8.681,7.427,8.681a9.036,9.036,0,0,0,5.845-2.122L66.42,232.95a7.242,7.242,0,0,1-4.456,1.511c-2.551,0-4.488-1.607-4.747-5.69H68.164C68.2,228.417,68.228,227.87,68.228,227.292Zm-2.68-.515H57.218c0.226-3.954,1.808-5.626,4.165-5.626,2.809,0,4.166,1.961,4.166,5.369v0.257ZM80.207,219c-2.131,0-3.713,1.318-4.617,3.922l-0.258-3.536H73.006v16.911h2.712v-9.806c0.743-3.312,2-4.855,4.166-4.855a5.184,5.184,0,0,1,1.485.193l0.517-2.636A7.048,7.048,0,0,0,80.207,219Zm10.784-6.752c-3.907,0-5.651,1.961-5.651,4.791v2.347H82.627v2.089H85.34v14.822h2.712V221.472h6.781v14.822h2.712V219.383H88.052v-2.347c0-1.736.71-2.6,3.035-2.6a8.064,8.064,0,0,1,3.681.869l0.969-1.9A9.947,9.947,0,0,0,90.99,212.245ZM109.878,219c-4.552,0-7.362,3.569-7.362,8.97,0,5.465,2.842,8.713,7.362,8.713a7.731,7.731,0,0,0,5.1-1.865l-1.259-1.768a6.115,6.115,0,0,1-3.746,1.318c-2.777,0-4.553-1.929-4.553-6.43,0-4.534,1.776-6.688,4.553-6.688a5.8,5.8,0,0,1,3.681,1.254l1.324-1.7A7.467,7.467,0,0,0,109.878,219Zm10.494-7.588a1.866,1.866,0,1,0,1.937,1.865A1.82,1.82,0,0,0,120.372,211.409Zm1.388,7.974h-2.712v16.911h2.712V219.383Zm18.856,7.909c0-5.112-2.357-8.295-6.91-8.295-4.327,0-6.974,3.7-6.974,9,0,5.369,2.744,8.681,7.426,8.681A9.038,9.038,0,0,0,140,234.558l-1.195-1.608a7.24,7.24,0,0,1-4.456,1.511c-2.551,0-4.488-1.607-4.747-5.69h10.947C140.584,228.417,140.616,227.87,140.616,227.292Zm-2.68-.515H129.6c0.227-3.954,1.809-5.626,4.166-5.626,2.809,0,4.165,1.961,4.165,5.369v0.257ZM158.6,219c-3.423,0-6.006,1.929-6.006,4.6,0,2.379,1.453,3.891,5.134,4.855,3.326,0.9,4.2,1.543,4.2,3.312,0,1.7-1.485,2.732-3.777,2.732a7.722,7.722,0,0,1-4.812-1.671l-1.453,1.639a9.2,9.2,0,0,0,6.329,2.219c3.423,0,6.555-1.64,6.555-5.08,0-2.958-1.97-4.308-5.586-5.241-2.809-.739-3.746-1.382-3.746-2.829s1.259-2.379,3.261-2.379a7.529,7.529,0,0,1,4.424,1.479l1.195-1.7A8.942,8.942,0,0,0,158.6,219Zm11.784-7.588a1.866,1.866,0,1,0,1.938,1.865A1.82,1.82,0,0,0,170.384,211.409Zm1.389,7.974H169.06v16.911h2.713V219.383ZM194.827,219a6,6,0,0,0-5.1,3.118A4.241,4.241,0,0,0,185.463,219a5.883,5.883,0,0,0-5,2.958l-0.226-2.572h-2.325v16.911h2.712V224.237c1.163-1.864,2.293-3.118,4.166-3.118,1.42,0,2.518.836,2.518,3.44v11.735h2.713V224.237c1.194-1.864,2.292-3.118,4.165-3.118,1.421,0,2.519.836,2.519,3.44v11.735h2.712V224.173C199.412,220.99,197.6,219,194.827,219Zm11.848-7.588a1.866,1.866,0,1,0,1.937,1.865A1.82,1.82,0,0,0,206.675,211.409Zm1.389,7.974h-2.713v16.911h2.713V219.383Zm9.363,17.3a4.984,4.984,0,0,0,2.26-.547l-0.71-1.9a3.078,3.078,0,0,1-1.131.193c-0.807,0-1.13-.482-1.13-1.415V212.245l-2.712.322v20.512C214,235.426,215.36,236.68,217.427,236.68Zm17.242-4.276v-7.845c0-3.5-1.84-5.562-5.877-5.562a15.937,15.937,0,0,0-5.747,1.157l0.678,1.994a14.328,14.328,0,0,1,4.585-.933c2.454,0,3.649.965,3.649,3.472v1.351H229.18c-4.65,0-7.362,1.929-7.362,5.53,0,3.022,2,5.112,5.36,5.112a5.734,5.734,0,0,0,5.1-2.605,3.335,3.335,0,0,0,3.164,2.605l0.646-1.9C235.186,234.461,234.669,233.979,234.669,232.4Zm-6.878,2.218c-2.034,0-3.1-1.125-3.1-3.183,0-2.411,1.679-3.6,4.843-3.6h2.422v4.051A4.57,4.57,0,0,1,227.791,234.622ZM248.036,219c-2.131,0-3.714,1.318-4.618,3.922l-0.258-3.536h-2.325v16.911h2.712v-9.806c0.743-3.312,2-4.855,4.166-4.855a5.182,5.182,0,0,1,1.485.193l0.517-2.636A7.05,7.05,0,0,0,248.036,219ZM272.929,232.4v-7.845c0-3.5-1.84-5.562-5.877-5.562a15.937,15.937,0,0,0-5.747,1.157l0.678,1.994a14.328,14.328,0,0,1,4.585-.933c2.454,0,3.649.965,3.649,3.472v1.351H267.44c-4.65,0-7.362,1.929-7.362,5.53,0,3.022,2,5.112,5.36,5.112a5.734,5.734,0,0,0,5.1-2.605,3.335,3.335,0,0,0,3.164,2.605l0.646-1.9C273.446,234.461,272.929,233.979,272.929,232.4Zm-6.878,2.218c-2.034,0-3.1-1.125-3.1-3.183,0-2.411,1.679-3.6,4.843-3.6h2.422v4.051A4.57,4.57,0,0,1,266.051,234.622Zm16.112,2.058a4.981,4.981,0,0,0,2.26-.547l-0.71-1.9a3.076,3.076,0,0,1-1.13.193c-0.808,0-1.13-.482-1.13-1.415V212.245l-2.713.322v20.512C278.74,235.426,280.1,236.68,282.163,236.68Zm25.088-21.863H294.819v2.219h9.687L296.6,235.779l2.486,0.8,8.17-19.74v-2.026Zm14.529,0H310.285v10.739h2.131a6.339,6.339,0,0,1,3.164-.8c2.325,0,4.1,1.221,4.1,4.6,0,3.247-1.776,5.112-4.553,5.112a6.1,6.1,0,0,1-4.682-2.057l-1.614,1.575a8.353,8.353,0,0,0,6.3,2.7,6.934,6.934,0,0,0,7.362-7.266c0-4.244-2.454-6.784-6.1-6.784a7.594,7.594,0,0,0-3.52.868v-6.559h8.525Zm21.343-1.318L328.172,236l1.9,1.222,14.951-22.5Zm-13.11,1c-2.971,0-5.134,2.057-5.134,5.369s2.163,5.4,5.134,5.4c3,0,5.166-2.09,5.166-5.4A4.982,4.982,0,0,0,330.013,214.5Zm0,1.832c2.131,0,2.712,1.8,2.712,3.537,0,1.8-.581,3.536-2.712,3.536s-2.745-1.768-2.745-3.536C327.268,218.064,327.882,216.328,330.013,216.328Zm13.11,9.581a5.39,5.39,0,0,0,0,10.771c3,0,5.134-2.09,5.134-5.4S346.126,225.909,343.123,225.909Zm0,1.865c2.163,0,2.744,1.768,2.744,3.5,0,1.8-.581,3.537-2.744,3.537-2.1,0-2.713-1.768-2.713-3.537C340.41,229.478,341.024,227.774,343.123,227.774ZM371.6,212.245v8.874A6.161,6.161,0,0,0,366.982,219c-4.165,0-6.652,3.729-6.652,8.906,0,5.3,2.293,8.777,6.394,8.777a5.73,5.73,0,0,0,4.94-2.765l0.291,2.379h2.357V212.567Zm-4.326,22.281c-2.551,0-4.037-2.155-4.037-6.656s1.679-6.719,4.327-6.719a4.86,4.86,0,0,1,4.036,2.283v8.423C370.469,233.561,369.242,234.526,367.273,234.526Zm25.895-7.234c0-5.112-2.358-8.295-6.91-8.295-4.327,0-6.975,3.7-6.975,9,0,5.369,2.745,8.681,7.427,8.681a9.037,9.037,0,0,0,5.844-2.122l-1.195-1.608a7.24,7.24,0,0,1-4.456,1.511c-2.551,0-4.488-1.607-4.746-5.69H393.1C393.135,228.417,393.168,227.87,393.168,227.292Zm-2.68-.515h-8.331c0.226-3.954,1.808-5.626,4.165-5.626,2.809,0,4.166,1.961,4.166,5.369v0.257ZM6.139,252.752H3.362v22.12H14.986l0.323-2.444H6.139V252.752Zm14.206-2.765a1.866,1.866,0,1,0,1.937,1.865A1.82,1.82,0,0,0,20.345,249.987Zm1.389,7.974H19.021v16.911h2.712V257.961Zm23.054-.386a6,6,0,0,0-5.1,3.118,4.241,4.241,0,0,0-4.262-3.118,5.884,5.884,0,0,0-5,2.958l-0.226-2.572H27.868v16.911H30.58V262.815c1.163-1.864,2.293-3.118,4.166-3.118,1.421,0,2.519.836,2.519,3.44v11.735h2.712V262.815c1.195-1.864,2.293-3.118,4.165-3.118,1.421,0,2.519.836,2.519,3.44v11.735h2.712V262.751C49.373,259.568,47.565,257.575,44.788,257.575Zm21.7,13.406v-7.844c0-3.5-1.84-5.562-5.877-5.562a15.937,15.937,0,0,0-5.748,1.157l0.678,1.993a14.351,14.351,0,0,1,4.585-.932c2.454,0,3.649.965,3.649,3.472v1.351H61c-4.65,0-7.362,1.929-7.362,5.53,0,3.022,2,5.111,5.36,5.111a5.732,5.732,0,0,0,5.1-2.6,3.335,3.335,0,0,0,3.165,2.6l0.646-1.9C67,273.039,66.484,272.557,66.484,270.981ZM59.607,273.2c-2.034,0-3.1-1.125-3.1-3.183,0-2.411,1.679-3.6,4.843-3.6h2.422v4.051A4.571,4.571,0,0,1,59.607,273.2Zm39.714-20.448h-3.81l-4.65,16.365-4.876-16.365h-3.81L80.3,274.872H82.95l0.775-9.967c0.291-3.279.484-6.848,0.517-9.356l5.231,16.783h2.616l5-16.751c0.032,1.865.291,5.659,0.614,9.163l0.84,10.128h2.712ZM119.08,265.87c0-5.112-2.357-8.3-6.91-8.3-4.327,0-6.975,3.7-6.975,9,0,5.369,2.745,8.68,7.427,8.68a9.037,9.037,0,0,0,5.845-2.121l-1.195-1.608a7.242,7.242,0,0,1-4.456,1.511c-2.551,0-4.488-1.607-4.747-5.691h10.947C119.048,267,119.08,266.448,119.08,265.87Zm-2.68-.515h-8.331c0.226-3.954,1.809-5.626,4.166-5.626,2.809,0,4.165,1.961,4.165,5.369v0.257Zm14.884,6.945a4.534,4.534,0,0,1-2.357.707c-1.517,0-2.131-.836-2.131-2.6V260.05h3.81l0.291-2.089h-4.1v-4.18l-2.712.289v3.891h-2.939v2.089h2.939v10.481c0,3.087,1.679,4.726,4.488,4.726a6.509,6.509,0,0,0,3.746-1.125Zm11.3-14.725c-2.131,0-3.713,1.318-4.618,3.922l-0.258-3.536h-2.325v16.911H138.1v-9.806c0.742-3.312,2-4.855,4.165-4.855a5.178,5.178,0,0,1,1.485.193l0.517-2.636A7.05,7.05,0,0,0,142.585,257.575Zm10.784,0c-4.747,0-7.492,3.568-7.492,8.873,0,5.369,2.713,8.809,7.459,8.809s7.492-3.568,7.492-8.873C160.828,260.983,158.148,257.575,153.369,257.575Zm0,2.186c2.938,0,4.553,2.154,4.553,6.623,0,4.533-1.647,6.687-4.586,6.687s-4.552-2.154-4.552-6.623C148.784,261.915,150.463,259.761,153.369,259.761Zm20.05-2.186a6.141,6.141,0,0,0-5.069,2.732l-0.226-2.346H165.8v23.694l2.712-.321v-8.1a5.547,5.547,0,0,0,4.553,2.025c4.327,0,6.62-3.7,6.62-8.873C179.684,261.015,177.843,257.575,173.419,257.575Zm-1,15.464a4.6,4.6,0,0,1-3.907-2.186v-8.391a5.282,5.282,0,0,1,4.263-2.733c2.647,0,3.971,2.154,3.971,6.655C176.745,270.917,175.228,273.039,172.418,273.039Zm18.533-15.464c-4.746,0-7.491,3.568-7.491,8.873,0,5.369,2.712,8.809,7.459,8.809s7.491-3.568,7.491-8.873C198.41,260.983,195.73,257.575,190.951,257.575Zm0,2.186c2.939,0,4.553,2.154,4.553,6.623,0,4.533-1.647,6.687-4.585,6.687s-4.553-2.154-4.553-6.623C186.366,261.915,188.045,259.761,190.951,259.761Zm15.659,15.5a5,5,0,0,0,2.261-.546l-0.711-1.9a3.069,3.069,0,0,1-1.13.193c-0.807,0-1.13-.482-1.13-1.415V250.823l-2.712.322v20.512C203.188,274,204.544,275.257,206.61,275.257Zm7.556-25.27a1.866,1.866,0,1,0,1.937,1.865A1.82,1.82,0,0,0,214.166,249.987Zm1.388,7.974h-2.712v16.911h2.712V257.961ZM229.115,272.3a4.537,4.537,0,0,1-2.357.707c-1.518,0-2.131-.836-2.131-2.6V260.05h3.81l0.29-2.089h-4.1v-4.18l-2.713.289v3.891h-2.938v2.089h2.938v10.481c0,3.087,1.679,4.726,4.489,4.726a6.509,6.509,0,0,0,3.745-1.125Zm15.272-1.319v-7.844c0-3.5-1.84-5.562-5.877-5.562a15.937,15.937,0,0,0-5.747,1.157l0.678,1.993a14.345,14.345,0,0,1,4.585-.932c2.454,0,3.649.965,3.649,3.472v1.351H238.9c-4.65,0-7.362,1.929-7.362,5.53,0,3.022,2,5.111,5.36,5.111a5.733,5.733,0,0,0,5.1-2.6,3.334,3.334,0,0,0,3.164,2.6l0.646-1.9C244.9,273.039,244.387,272.557,244.387,270.981Zm-6.878,2.219c-2.034,0-3.1-1.125-3.1-3.183,0-2.411,1.679-3.6,4.843-3.6h2.422v4.051A4.572,4.572,0,0,1,237.509,273.2Zm20.923-15.625a6.427,6.427,0,0,0-5.328,2.958l-0.226-2.572h-2.325v16.911h2.712V262.815c1.2-1.864,2.551-3.118,4.553-3.118,1.744,0,2.777.836,2.777,3.44v11.735h2.713V262.751C263.308,259.536,261.564,257.575,258.432,257.575Zm21.988,13.406v-7.844c0-3.5-1.841-5.562-5.877-5.562a15.942,15.942,0,0,0-5.748,1.157l0.678,1.993a14.356,14.356,0,0,1,4.586-.932c2.454,0,3.648.965,3.648,3.472v1.351h-2.776c-4.65,0-7.363,1.929-7.363,5.53,0,3.022,2,5.111,5.361,5.111a5.731,5.731,0,0,0,5.1-2.6,3.336,3.336,0,0,0,3.165,2.6l0.646-1.9C280.936,273.039,280.42,272.557,280.42,270.981Zm-6.878,2.219c-2.034,0-3.1-1.125-3.1-3.183,0-2.411,1.679-3.6,4.844-3.6h2.421v4.051A4.57,4.57,0,0,1,273.542,273.2Z"/>
</svg>
