<svg xmlns="http://www.w3.org/2000/svg" width="479" height="154" viewBox="0 0 479 154">
  <defs>
    <style>
      .cls-1 {
        fill: #fff;
        fill-rule: evenodd;
      }
    </style>
  </defs>
  <path id="_709_millones_de_pies_cúbicos_por_día_de_volumen_facturado" data-name="709 millones de pies cúbicos por día de volumen facturado" class="cls-1" d="M29.49,11.423H2.374V18.3H20.111L5.437,52.554l8.23,2.738L29.49,17.663v-6.24ZM48.569,10.6c-10.336,0-15.759,7.959-15.759,22.348,0,14.326,5.423,22.411,15.759,22.411,10.4,0,15.823-8.086,15.823-22.411C64.392,18.554,58.969,10.6,48.569,10.6Zm0,6.749c4.466,0,6.508,3.693,6.508,15.6,0,11.842-2.042,15.6-6.508,15.6s-6.444-3.947-6.444-15.6S44.1,17.345,48.569,17.345ZM83.855,10.6c-8.613,0-15.44,5.666-15.44,14.644,0,8.723,5.487,14.071,12.186,14.071a10.926,10.926,0,0,0,9.06-4.393c-1.4,8.15-7.209,12.034-18.056,14.708l1.914,6.431c17.8-3.948,25.84-11.269,25.84-28.842C99.358,17.408,94.127,10.6,83.855,10.6ZM83.217,32.816c-3.19,0-5.742-2.037-5.742-7.831,0-5.157,2.488-7.831,6.38-7.831,4.53,0,6.38,3.056,6.252,11.588C88.321,31.352,85.96,32.816,83.217,32.816ZM158.25,19.573c-4.339,0-7.465,1.974-10.145,5.476a8.093,8.093,0,0,0-8.039-5.476c-4.275,0-7.337,1.91-9.825,5.221l-0.7-4.2h-7.848V54.336h9.06v-23.3c1.659-2.992,3.318-4.712,5.806-4.712,1.85,0,3.318,1.082,3.318,4.966V54.336h9.059v-23.3c1.723-2.992,3.382-4.712,5.87-4.712,1.787,0,3.318,1.082,3.318,4.966V54.336h9.06V29.76C167.182,23.393,163.545,19.573,158.25,19.573ZM180.265,3.21a5.209,5.209,0,0,0-5.487,5.285,5.209,5.209,0,0,0,5.487,5.285A5.291,5.291,0,1,0,180.265,3.21Zm4.594,17.382H175.8V54.336h9.06V20.592Zm17.355,34.763a14.9,14.9,0,0,0,5.806-1.146l-1.85-6.431a3.894,3.894,0,0,1-1.787.382c-1.276,0-1.85-.764-1.85-2.228V6.139l-9.06,1.019V46.187C193.473,52.044,196.727,55.355,202.214,55.355Zm18.886,0a14.9,14.9,0,0,0,5.806-1.146l-1.85-6.431a3.894,3.894,0,0,1-1.787.382c-1.276,0-1.85-.764-1.85-2.228V6.139l-9.06,1.019V46.187C212.359,52.044,215.613,55.355,221.1,55.355Zm24.374-35.782c-10.209,0-16.27,7.131-16.27,17.891,0,11.206,6.125,17.891,16.206,17.891,10.144,0,16.205-7.195,16.205-17.891C261.615,26.258,255.554,19.573,245.474,19.573Zm0,6.749c4.4,0,6.7,3.374,6.7,11.142,0,7.7-2.3,11.142-6.763,11.142s-6.763-3.375-6.763-11.142C238.647,29.76,240.944,26.322,245.474,26.322Zm41.92-6.749c-4.338,0-7.592,1.91-10.336,5.285l-0.7-4.266h-7.848V54.336h9.06v-23.3c1.85-2.992,3.892-4.712,6.508-4.712,2.3,0,3.7,1.082,3.7,4.966V54.336h9.06V29.76C296.837,23.393,293.328,19.573,287.394,19.573ZM334.036,36.7c0-10.76-5.679-17.127-15.249-17.127-9.889,0-15.376,7.9-15.376,18.082,0,10.569,5.678,17.7,16.525,17.7a19.965,19.965,0,0,0,12.824-4.584L329,45.677c-2.935,2.037-5.36,2.929-8.231,2.929-4.338,0-7.4-1.91-8.039-8.4h21.118C333.908,39.247,334.036,37.846,334.036,36.7Zm-9-2.165H312.726c0.447-6.367,2.68-8.786,6.253-8.786,4.338,0,6.061,3.311,6.061,8.4v0.382Zm26.8-14.962c-8.167,0-13.4,4.329-13.4,10.06,0,5.094,3.19,8.468,10.016,10.378,6.253,1.719,7.465,2.547,7.465,5.093,0,2.292-2.169,3.693-5.55,3.693a14.9,14.9,0,0,1-9.06-3.311l-4.466,4.966a20.07,20.07,0,0,0,13.781,4.9c8.039,0,14.61-3.947,14.61-10.951,0-5.985-3.828-8.786-10.591-10.633-5.933-1.719-7.082-2.61-7.082-4.584,0-1.846,1.659-3.056,4.658-3.056a15.649,15.649,0,0,1,8.422,2.674l3.445-5.157A19.28,19.28,0,0,0,351.839,19.573ZM16.978,71.6V82.144A7.306,7.306,0,0,0,11.5,79.622c-4.94,0-7.889,4.433-7.889,10.586,0,6.305,2.719,10.433,7.582,10.433a6.79,6.79,0,0,0,5.859-3.287l0.345,2.828h2.8v-28.2ZM11.847,98.08c-3.025,0-4.787-2.561-4.787-7.911s1.991-7.987,5.132-7.987A5.764,5.764,0,0,1,16.978,84.9V94.908C15.638,96.934,14.182,98.08,11.847,98.08Zm30.706-8.6c0-6.076-2.8-9.86-8.2-9.86-5.132,0-8.272,4.395-8.272,10.7,0,6.382,3.255,10.319,8.808,10.319a10.7,10.7,0,0,0,6.931-2.523l-1.417-1.911A8.578,8.578,0,0,1,35.123,98C32.1,98,29.8,96.093,29.494,91.24H42.476C42.514,90.819,42.552,90.17,42.552,89.482Zm-3.178-.612h-9.88c0.268-4.7,2.145-6.688,4.94-6.688,3.332,0,4.94,2.331,4.94,6.382V88.87Zm28.137-9.248A7.28,7.28,0,0,0,61.5,82.87l-0.268-2.79H58.473v28.165l3.217-.383v-9.63a6.571,6.571,0,0,0,5.4,2.408c5.132,0,7.85-4.4,7.85-10.548C74.94,83.711,72.757,79.622,67.511,79.622ZM66.324,98a5.444,5.444,0,0,1-4.634-2.6V85.431c1.149-1.72,2.8-3.248,5.055-3.248,3.14,0,4.71,2.56,4.71,7.911C71.455,95.482,69.655,98,66.324,98ZM82.363,70.6a2.218,2.218,0,1,0,2.3,2.216A2.16,2.16,0,0,0,82.363,70.6Zm1.647,9.477H80.793v20.1h3.217v-20.1Zm22.361,9.4c0-6.076-2.8-9.86-8.2-9.86-5.132,0-8.272,4.395-8.272,10.7,0,6.382,3.255,10.319,8.808,10.319a10.7,10.7,0,0,0,6.931-2.523l-1.416-1.911A8.579,8.579,0,0,1,98.941,98c-3.025,0-5.323-1.911-5.629-6.764h12.982C106.332,90.819,106.37,90.17,106.37,89.482Zm-3.178-.612h-9.88c0.268-4.7,2.145-6.688,4.94-6.688,3.331,0,4.94,2.331,4.94,6.382V88.87Zm14.239-9.248c-4.059,0-7.123,2.293-7.123,5.465,0,2.828,1.724,4.624,6.089,5.77,3.945,1.07,4.978,1.834,4.978,3.936,0,2.026-1.761,3.248-4.48,3.248a9.14,9.14,0,0,1-5.706-1.987L109.466,98a10.888,10.888,0,0,0,7.506,2.637c4.059,0,7.773-1.949,7.773-6.038,0-3.516-2.336-5.121-6.625-6.229-3.331-.879-4.442-1.643-4.442-3.363s1.494-2.828,3.868-2.828a8.916,8.916,0,0,1,5.246,1.758l1.417-2.025A10.588,10.588,0,0,0,117.431,79.622Zm30.015,0c-5.4,0-8.732,4.242-8.732,10.662,0,6.5,3.37,10.357,8.732,10.357a9.158,9.158,0,0,0,6.05-2.217L152,96.322a7.242,7.242,0,0,1-4.442,1.567c-3.294,0-5.4-2.293-5.4-7.643,0-5.388,2.106-7.949,5.4-7.949a6.863,6.863,0,0,1,4.365,1.49l1.57-2.025A8.842,8.842,0,0,0,147.446,79.622Zm20.751-9.9L160.691,74l1,1.72,7.966-3.248Zm4.48,10.356H169.46V94.488c-1.263,2.1-2.948,3.592-5.246,3.592-2.259,0-3.293-1.07-3.293-3.936V80.081H157.7V94.488c0,3.936,2.106,6.153,5.629,6.153a6.876,6.876,0,0,0,6.357-3.707l0.23,3.248h2.757v-20.1Zm16.269-.459a6.93,6.93,0,0,0-5.782,3.019V71.6l-3.217.382v28.2h2.834l0.306-2.293a6.84,6.84,0,0,0,5.476,2.752c4.864,0,7.851-4.2,7.851-10.548C196.414,83.405,193.5,79.622,188.946,79.622ZM187.8,98.08a5.687,5.687,0,0,1-4.633-2.79v-9.9c1.11-1.681,2.6-3.21,4.9-3.21,2.987,0,4.864,2.14,4.864,7.911C192.929,95.673,190.9,98.08,187.8,98.08ZM203.836,70.6a2.218,2.218,0,1,0,2.3,2.216A2.16,2.16,0,0,0,203.836,70.6Zm1.647,9.477h-3.217v20.1h3.217v-20.1Zm14.625-.459c-5.4,0-8.731,4.242-8.731,10.662,0,6.5,3.37,10.357,8.731,10.357a9.16,9.16,0,0,0,6.051-2.217l-1.494-2.1a7.24,7.24,0,0,1-4.442,1.567c-3.294,0-5.4-2.293-5.4-7.643,0-5.388,2.106-7.949,5.4-7.949a6.863,6.863,0,0,1,4.365,1.49l1.571-2.025A8.847,8.847,0,0,0,220.108,79.622Zm17.841,0c-5.63,0-8.885,4.242-8.885,10.548,0,6.382,3.217,10.471,8.846,10.471S246.8,96.4,246.8,90.093C246.8,83.673,243.616,79.622,237.949,79.622Zm0,2.6c3.484,0,5.4,2.561,5.4,7.872,0,5.388-1.953,7.949-5.438,7.949s-5.4-2.561-5.4-7.872C232.511,84.781,234.5,82.221,237.949,82.221Zm20.136-2.6c-4.059,0-7.123,2.293-7.123,5.465,0,2.828,1.723,4.624,6.089,5.77,3.944,1.07,4.978,1.834,4.978,3.936,0,2.026-1.761,3.248-4.48,3.248a9.14,9.14,0,0,1-5.706-1.987L250.12,98a10.888,10.888,0,0,0,7.506,2.637c4.059,0,7.773-1.949,7.773-6.038,0-3.516-2.336-5.121-6.625-6.229-3.331-.879-4.442-1.643-4.442-3.363s1.494-2.828,3.868-2.828a8.916,8.916,0,0,1,5.246,1.758l1.417-2.025A10.588,10.588,0,0,0,258.085,79.622Zm31.7,0a7.281,7.281,0,0,0-6.013,3.248l-0.268-2.79h-2.757v28.165l3.217-.383v-9.63a6.571,6.571,0,0,0,5.4,2.408c5.132,0,7.851-4.4,7.851-10.548C297.214,83.711,295.031,79.622,289.785,79.622ZM288.6,98a5.444,5.444,0,0,1-4.634-2.6V85.431c1.149-1.72,2.8-3.248,5.055-3.248,3.14,0,4.71,2.56,4.71,7.911C293.729,95.482,291.929,98,288.6,98Zm21.974-18.382c-5.629,0-8.884,4.242-8.884,10.548,0,6.382,3.217,10.471,8.846,10.471s8.884-4.242,8.884-10.548C319.418,83.673,316.24,79.622,310.572,79.622Zm0,2.6c3.485,0,5.4,2.561,5.4,7.872,0,5.388-1.953,7.949-5.438,7.949s-5.4-2.561-5.4-7.872C305.134,84.781,307.126,82.221,310.572,82.221Zm23.277-2.6c-2.528,0-4.4,1.567-5.476,4.662l-0.307-4.2h-2.757v20.1h3.217V88.526c0.881-3.936,2.374-5.771,4.94-5.771a6.158,6.158,0,0,1,1.762.229l0.612-3.134A8.363,8.363,0,0,0,333.849,79.622ZM362.1,71.6V82.144a7.307,7.307,0,0,0-5.477-2.522c-4.94,0-7.888,4.433-7.888,10.586,0,6.305,2.719,10.433,7.582,10.433a6.789,6.789,0,0,0,5.859-3.287l0.345,2.828h2.8v-28.2ZM356.971,98.08c-3.025,0-4.787-2.561-4.787-7.911s1.992-7.987,5.132-7.987A5.765,5.765,0,0,1,362.1,84.9V94.908C360.762,96.934,359.307,98.08,356.971,98.08Zm20.634-28.356L370.1,74l1,1.72,7.965-3.248Zm-1.379,10.356h-3.217v20.1h3.217v-20.1Zm20.523,15.477V86.233c0-4.165-2.183-6.611-6.97-6.611A18.854,18.854,0,0,0,382.962,81l0.805,2.369a16.961,16.961,0,0,1,5.437-1.108c2.911,0,4.328,1.147,4.328,4.127v1.605h-3.294c-5.514,0-8.731,2.293-8.731,6.573,0,3.592,2.374,6.077,6.357,6.077a6.8,6.8,0,0,0,6.051-3.1,3.959,3.959,0,0,0,3.753,3.1l0.766-2.255C397.361,98,396.749,97.431,396.749,95.558Zm-8.157,2.637c-2.413,0-3.677-1.338-3.677-3.783,0-2.866,1.992-4.28,5.745-4.28h2.872v4.815C392.345,97.087,390.775,98.195,388.592,98.195ZM16.978,117.442V127.99a7.305,7.305,0,0,0-5.476-2.522c-4.94,0-7.889,4.433-7.889,10.585,0,6.306,2.719,10.433,7.582,10.433a6.79,6.79,0,0,0,5.859-3.286l0.345,2.828h2.8v-28.2Zm-5.132,26.484c-3.025,0-4.787-2.561-4.787-7.911s1.991-7.987,5.132-7.987a5.764,5.764,0,0,1,4.787,2.713v10.013C15.638,142.779,14.182,143.926,11.847,143.926Zm30.706-8.6c0-6.076-2.8-9.859-8.2-9.859-5.132,0-8.272,4.394-8.272,10.7,0,6.382,3.255,10.318,8.808,10.318a10.7,10.7,0,0,0,6.931-2.522l-1.417-1.911a8.577,8.577,0,0,1-5.285,1.8c-3.025,0-5.323-1.91-5.629-6.764H42.476C42.514,136.665,42.552,136.015,42.552,135.327Zm-3.178-.611h-9.88c0.268-4.7,2.145-6.688,4.94-6.688,3.332,0,4.94,2.331,4.94,6.382v0.306Zm33.69-8.79H69.655l-5.4,17.235L58.78,125.926H55.257l7.008,20.1h3.906Zm11.445-.458c-5.629,0-8.884,4.242-8.884,10.547,0,6.382,3.217,10.471,8.846,10.471s8.884-4.242,8.884-10.547C93.355,129.518,90.177,125.468,84.509,125.468Zm0,2.6c3.485,0,5.4,2.561,5.4,7.873,0,5.388-1.953,7.949-5.438,7.949s-5.4-2.561-5.4-7.873C79.071,130.627,81.062,128.066,84.509,128.066Zm18.566,18.42a5.909,5.909,0,0,0,2.681-.649l-0.843-2.255a3.64,3.64,0,0,1-1.34.229c-0.957,0-1.34-.573-1.34-1.681V117.442l-3.217.383v24.381C99.016,145,100.624,146.486,103.075,146.486Zm22.132-20.56H121.99v14.408c-1.264,2.1-2.949,3.592-5.247,3.592-2.259,0-3.293-1.07-3.293-3.936V125.926h-3.217v14.408c0,3.936,2.106,6.152,5.63,6.152a6.877,6.877,0,0,0,6.357-3.707l0.229,3.249h2.758v-20.1Zm27.336-.458c-2.681,0-4.6,1.49-6.051,3.707a5.03,5.03,0,0,0-5.055-3.707,6.979,6.979,0,0,0-5.936,3.515l-0.268-3.057h-2.757v20.1h3.217V131.7c1.379-2.217,2.719-3.707,4.94-3.707,1.685,0,2.987.993,2.987,4.089v13.949h3.217V131.7c1.417-2.217,2.719-3.707,4.94-3.707,1.685,0,2.987.993,2.987,4.089v13.949h3.217V131.62C157.981,127.837,155.836,125.468,152.543,125.468Zm27.562,9.859c0-6.076-2.795-9.859-8.195-9.859-5.131,0-8.271,4.394-8.271,10.7,0,6.382,3.255,10.318,8.807,10.318a10.7,10.7,0,0,0,6.932-2.522l-1.417-1.911a8.578,8.578,0,0,1-5.285,1.8c-3.025,0-5.323-1.91-5.629-6.764h12.982C180.067,136.665,180.105,136.015,180.105,135.327Zm-3.178-.611h-9.88c0.268-4.7,2.144-6.688,4.94-6.688,3.332,0,4.94,2.331,4.94,6.382v0.306Zm18.184-9.248a7.622,7.622,0,0,0-6.319,3.515l-0.268-3.057h-2.757v20.1h3.217V131.7c1.417-2.217,3.025-3.707,5.4-3.707,2.068,0,3.294.993,3.294,4.089v13.949h3.216V131.62C200.893,127.8,198.825,125.468,195.111,125.468Zm29.822-5.427a8.689,8.689,0,0,1,3.561.764l1.034-2.331a10.975,10.975,0,0,0-4.787-1.032c-3.944,0-6.127,2.293-6.127,5.618v2.866h-3.561v2.484h3.561v17.618h3.217V128.41h4.633l0.345-2.484h-4.978v-2.9C221.831,121,222.673,120.041,224.933,120.041ZM243.77,141.4v-9.325c0-4.166-2.183-6.611-6.97-6.611a18.848,18.848,0,0,0-6.816,1.375l0.8,2.37a16.963,16.963,0,0,1,5.438-1.108c2.91,0,4.327,1.146,4.327,4.127v1.6H237.26c-5.515,0-8.731,2.293-8.731,6.573,0,3.592,2.374,6.076,6.356,6.076a6.8,6.8,0,0,0,6.051-3.095,3.957,3.957,0,0,0,3.753,3.095l0.766-2.255C244.383,143.849,243.77,143.276,243.77,141.4Zm-8.157,2.636c-2.412,0-3.676-1.337-3.676-3.783,0-2.866,1.991-4.28,5.744-4.28h2.872v4.815C239.366,142.932,237.8,144.04,235.613,144.04Zm22.818-18.572c-5.4,0-8.732,4.242-8.732,10.662,0,6.5,3.37,10.356,8.732,10.356a9.158,9.158,0,0,0,6.05-2.216l-1.493-2.1a7.242,7.242,0,0,1-4.443,1.567c-3.293,0-5.4-2.293-5.4-7.643,0-5.389,2.106-7.949,5.4-7.949a6.868,6.868,0,0,1,4.366,1.49l1.57-2.025A8.842,8.842,0,0,0,258.431,125.468Zm19.678,17.5a5.362,5.362,0,0,1-2.8.841c-1.8,0-2.527-.993-2.527-3.095V128.41h4.519l0.344-2.484h-4.863v-4.968l-3.217.344v4.624h-3.485v2.484h3.485v12.459c0,3.668,1.991,5.617,5.323,5.617a7.71,7.71,0,0,0,4.442-1.337Zm19.6-17.044H294.5v14.408c-1.264,2.1-2.949,3.592-5.246,3.592-2.26,0-3.294-1.07-3.294-3.936V125.926h-3.217v14.408c0,3.936,2.107,6.152,5.63,6.152a6.877,6.877,0,0,0,6.357-3.707l0.229,3.249h2.758v-20.1Zm15.809-.458c-2.527,0-4.4,1.566-5.476,4.662l-0.306-4.2h-2.758v20.1H308.2V134.372c0.881-3.936,2.374-5.771,4.94-5.771a6.15,6.15,0,0,1,1.762.23l0.612-3.134A8.352,8.352,0,0,0,313.521,125.468ZM332.014,141.4v-9.325c0-4.166-2.183-6.611-6.97-6.611a18.857,18.857,0,0,0-6.817,1.375l0.805,2.37a16.963,16.963,0,0,1,5.438-1.108c2.91,0,4.327,1.146,4.327,4.127v1.6H325.5c-5.514,0-8.731,2.293-8.731,6.573,0,3.592,2.375,6.076,6.357,6.076a6.8,6.8,0,0,0,6.051-3.095,3.957,3.957,0,0,0,3.753,3.095l0.766-2.255C332.626,143.849,332.014,143.276,332.014,141.4Zm-8.157,2.636c-2.413,0-3.677-1.337-3.677-3.783,0-2.866,1.992-4.28,5.745-4.28H328.8v4.815C327.61,142.932,326.04,144.04,323.857,144.04Zm27.451-26.6V127.99a7.3,7.3,0,0,0-5.476-2.522c-4.94,0-7.889,4.433-7.889,10.585,0,6.306,2.719,10.433,7.582,10.433a6.788,6.788,0,0,0,5.859-3.286l0.345,2.828h2.8v-28.2Zm-5.132,26.484c-3.025,0-4.787-2.561-4.787-7.911s1.992-7.987,5.132-7.987a5.765,5.765,0,0,1,4.787,2.713v10.013C349.968,142.779,348.512,143.926,346.176,143.926ZM369.3,125.468c-5.63,0-8.885,4.242-8.885,10.547,0,6.382,3.217,10.471,8.846,10.471s8.885-4.242,8.885-10.547C378.146,129.518,374.967,125.468,369.3,125.468Zm0,2.6c3.485,0,5.4,2.561,5.4,7.873,0,5.388-1.953,7.949-5.438,7.949s-5.4-2.561-5.4-7.873C363.862,130.627,365.853,128.066,369.3,128.066Z"/>
</svg>
