<svg xmlns="http://www.w3.org/2000/svg" width="479" height="95" viewBox="0 0 479 95">
  <defs>
    <style>
      .cls-1 {
        fill: #fff;
        fill-rule: evenodd;
      }
    </style>
  </defs>
  <path id="_1120_créditos_de_carbono_para_neutralización" data-name="1120 créditos de carbono para neutralización" class="cls-1" d="M18.972,8.321H12.217l-12.1,7.264,3.35,5.165,8-4.9V44.586h7.511V8.321Zm23.721,0H35.938l-12.1,7.264,3.35,5.165,8-4.9V44.586h7.511V8.321Zm17.561-.7A14.654,14.654,0,0,0,48.094,13.7l4.593,3.659c2.216-2.636,4.107-3.82,6.863-3.82a4.657,4.657,0,0,1,4.972,5c0,4.842-2.972,8.178-15.347,20.5v5.542H72.358l0.865-5.919H57.93C69.224,28.121,72.412,23.763,72.412,17.9,72.412,12.249,68.035,7.622,60.253,7.622Zm30.53,0c-8.754,0-13.348,6.726-13.348,18.886,0,12.106,4.593,18.94,13.348,18.94,8.808,0,13.4-6.833,13.4-18.939C104.184,14.347,99.591,7.622,90.783,7.622Zm0,5.7c3.783,0,5.512,3.121,5.512,13.182,0,10.008-1.729,13.182-5.512,13.182s-5.458-3.336-5.458-13.182S87,13.325,90.783,13.325Zm44.578,1.883c-8.376,0-13.672,6.3-13.672,15.335,0,9.093,5.242,14.9,13.78,14.9a14.4,14.4,0,0,0,9.4-3.336l-3.351-4.789c-2.107,1.345-3.566,1.991-5.674,1.991-3.621,0-6.052-2.206-6.052-8.824s2.269-9.362,6.106-9.362a8.729,8.729,0,0,1,5.62,2.045l3.351-4.52A13.79,13.79,0,0,0,135.361,15.208Zm28.692,0.054c-3.35,0-6.106,2.367-7.457,6.349l-0.7-5.542h-6.646V44.586h7.673V29.843c1.027-4.573,2.648-7.156,6.161-7.156a9.64,9.64,0,0,1,2.539.377l1.3-7.371A10.248,10.248,0,0,0,164.053,15.262Zm23.5-9.308-3.026-5.865L172.968,6.976l2.161,3.928Zm5.728,23.728c0-9.093-4.809-14.474-12.915-14.474-8.376,0-13.023,6.672-13.023,15.281,0,8.932,4.809,14.958,14,14.958a16.933,16.933,0,0,0,10.862-3.874l-3.189-4.3a11.623,11.623,0,0,1-6.971,2.475c-3.674,0-6.268-1.614-6.809-7.1h17.887C193.178,31.834,193.286,30.65,193.286,29.682Zm-7.619-1.829h-10.43c0.379-5.381,2.27-7.425,5.3-7.425,3.675,0,5.134,2.8,5.134,7.1v0.323Zm30.313-24v14.2a9.838,9.838,0,0,0-6.971-2.852c-7.079,0-11.618,6.3-11.618,15.119,0,9.093,3.675,15.119,10.862,15.119a9.65,9.65,0,0,0,8.214-4.358l0.432,3.5h6.755V4.716Zm-5.458,35.888c-3.08,0-5.133-2.26-5.133-9.416,0-6.672,2.269-9.47,5.62-9.47,2.107,0,3.566,1.022,4.971,2.69V36.3C214.467,38.56,212.846,39.743,210.522,39.743ZM235,1.38a4.408,4.408,0,0,0-4.648,4.466A4.408,4.408,0,0,0,235,10.312,4.472,4.472,0,1,0,235,1.38Zm3.89,14.689h-7.673V44.586h7.673V16.069ZM260.937,38.4a6.739,6.739,0,0,1-3.242.968c-1.946,0-2.864-1.076-2.864-3.874V21.45h5.836l0.756-5.381h-6.592V8.913l-7.674.915v6.241h-4.269V21.45h4.269v14.2c0,6.349,3.026,9.739,8.971,9.793a13.587,13.587,0,0,0,7.457-2.206Zm17.183-23.19c-8.647,0-13.78,6.026-13.78,15.119,0,9.47,5.187,15.119,13.726,15.119,8.592,0,13.725-6.08,13.725-15.119C291.791,20.858,286.658,15.208,278.12,15.208Zm0,5.7c3.728,0,5.674,2.852,5.674,9.416,0,6.51-1.946,9.416-5.728,9.416s-5.729-2.852-5.729-9.416C272.337,23.817,274.283,20.912,278.12,20.912Zm29.016-5.7c-6.917,0-11.348,3.659-11.348,8.5,0,4.3,2.7,7.156,8.484,8.77,5.3,1.453,6.323,2.152,6.323,4.3,0,1.937-1.838,3.121-4.7,3.121a12.637,12.637,0,0,1-7.673-2.8l-3.783,4.2a17.024,17.024,0,0,0,11.673,4.143c6.808,0,12.374-3.336,12.374-9.254,0-5.058-3.242-7.425-8.97-8.985-5.026-1.453-6-2.206-6-3.874,0-1.56,1.4-2.583,3.944-2.583a13.278,13.278,0,0,1,7.134,2.26l2.918-4.358A16.356,16.356,0,0,0,307.136,15.208ZM12.368,59.175v8.91a6.191,6.191,0,0,0-4.637-2.131c-4.183,0-6.679,3.745-6.679,8.942,0,5.327,2.3,8.813,6.42,8.813a5.751,5.751,0,0,0,4.961-2.776l0.292,2.389h2.367V59.5ZM8.023,81.547c-2.561,0-4.053-2.163-4.053-6.683s1.686-6.747,4.345-6.747a4.882,4.882,0,0,1,4.053,2.292v8.458C11.233,80.579,10,81.547,8.023,81.547Zm26-7.264c0-5.133-2.367-8.329-6.939-8.329-4.345,0-7,3.713-7,9.039,0,5.391,2.756,8.716,7.457,8.716a9.073,9.073,0,0,0,5.869-2.131l-1.2-1.614a7.274,7.274,0,0,1-4.474,1.517c-2.561,0-4.507-1.614-4.766-5.714H33.96C33.993,75.414,34.025,74.865,34.025,74.284Zm-2.691-.517H22.969c0.227-3.971,1.816-5.649,4.183-5.649,2.821,0,4.183,1.969,4.183,5.391v0.258Zm22.4-7.812c-4.572,0-7.392,3.583-7.392,9.007,0,5.488,2.853,8.749,7.392,8.749a7.764,7.764,0,0,0,5.123-1.872l-1.265-1.776a6.139,6.139,0,0,1-3.761,1.324c-2.788,0-4.572-1.937-4.572-6.457,0-4.552,1.783-6.715,4.572-6.715a5.822,5.822,0,0,1,3.7,1.259l1.329-1.711A7.5,7.5,0,0,0,53.736,65.955ZM74,79.417V71.54c0-3.519-1.848-5.585-5.9-5.585a15.991,15.991,0,0,0-5.771,1.162l0.681,2a14.392,14.392,0,0,1,4.6-.936c2.464,0,3.664.968,3.664,3.487v1.356H68.488c-4.669,0-7.393,1.937-7.393,5.553,0,3.035,2.01,5.133,5.382,5.133A5.758,5.758,0,0,0,71.6,81.1a3.349,3.349,0,0,0,3.178,2.615l0.648-1.9C74.519,81.483,74,81,74,79.417Zm-6.906,2.227c-2.043,0-3.113-1.13-3.113-3.2,0-2.421,1.686-3.616,4.863-3.616h2.432V78.9A4.589,4.589,0,0,1,67.094,81.644Zm20.328-15.69c-2.14,0-3.729,1.324-4.636,3.939l-0.259-3.551H80.191V83.323h2.724V73.477C83.66,70.151,84.925,68.6,87.1,68.6a5.222,5.222,0,0,1,1.492.194l0.519-2.647A7.1,7.1,0,0,0,87.421,65.955Zm12.709,0a5.872,5.872,0,0,0-4.9,2.55v-9.33l-2.724.323V83.323h2.4l0.259-1.937a5.8,5.8,0,0,0,4.636,2.324c4.118,0,6.647-3.551,6.647-8.91C106.453,69.151,103.988,65.955,100.13,65.955ZM99.157,81.547a4.819,4.819,0,0,1-3.923-2.357V70.829c0.94-1.42,2.2-2.712,4.15-2.712,2.529,0,4.118,1.808,4.118,6.683C103.5,79.513,101.784,81.547,99.157,81.547Zm18.61-15.593c-4.766,0-7.522,3.583-7.522,8.91,0,5.391,2.723,8.846,7.489,8.846s7.523-3.583,7.523-8.91C125.257,69.377,122.565,65.955,117.767,65.955Zm0,2.2c2.95,0,4.571,2.163,4.571,6.65,0,4.552-1.653,6.715-4.6,6.715s-4.571-2.163-4.571-6.65C113.163,70.313,114.849,68.15,117.767,68.15Zm20.392-2.2a6.455,6.455,0,0,0-5.349,2.97l-0.227-2.583h-2.335V83.323h2.724V71.217c1.2-1.872,2.561-3.131,4.571-3.131,1.751,0,2.789.839,2.789,3.454V83.323h2.723V71.152C143.055,67.924,141.305,65.955,138.159,65.955Zm17.216,0c-4.766,0-7.522,3.583-7.522,8.91,0,5.391,2.723,8.846,7.489,8.846s7.523-3.583,7.523-8.91C162.865,69.377,160.173,65.955,155.375,65.955Zm0,2.2c2.95,0,4.571,2.163,4.571,6.65,0,4.552-1.653,6.715-4.6,6.715s-4.571-2.163-4.571-6.65C150.771,70.313,152.457,68.15,155.375,68.15Zm28.822-2.2a6.168,6.168,0,0,0-5.091,2.744l-0.227-2.357h-2.334V90.135l2.723-.323V81.676a5.57,5.57,0,0,0,4.572,2.034c4.345,0,6.647-3.713,6.647-8.91C190.487,69.409,188.639,65.955,184.2,65.955Zm-1.006,15.528a4.613,4.613,0,0,1-3.923-2.2V70.862a5.3,5.3,0,0,1,4.28-2.744c2.659,0,3.988,2.163,3.988,6.683C187.536,79.352,186.012,81.483,183.191,81.483ZM206.5,79.417V71.54c0-3.519-1.849-5.585-5.9-5.585a15.994,15.994,0,0,0-5.772,1.162l0.681,2a14.391,14.391,0,0,1,4.6-.936c2.464,0,3.664.968,3.664,3.487v1.356h-2.788c-4.669,0-7.393,1.937-7.393,5.553,0,3.035,2.01,5.133,5.382,5.133A5.757,5.757,0,0,0,204.1,81.1a3.35,3.35,0,0,0,3.178,2.615l0.648-1.9C207.021,81.483,206.5,81,206.5,79.417ZM199.6,81.644c-2.042,0-3.112-1.13-3.112-3.2,0-2.421,1.686-3.616,4.863-3.616h2.432V78.9A4.589,4.589,0,0,1,199.6,81.644Zm20.328-15.69c-2.14,0-3.728,1.324-4.636,3.939l-0.26-3.551h-2.334V83.323h2.723V73.477c0.746-3.325,2.011-4.875,4.183-4.875a5.216,5.216,0,0,1,1.491.194l0.519-2.647A7.1,7.1,0,0,0,219.924,65.955Zm15.66,13.462V71.54c0-3.519-1.848-5.585-5.9-5.585a15.994,15.994,0,0,0-5.772,1.162l0.681,2a14.4,14.4,0,0,1,4.6-.936c2.465,0,3.664.968,3.664,3.487v1.356h-2.788c-4.669,0-7.393,1.937-7.393,5.553,0,3.035,2.011,5.133,5.383,5.133a5.759,5.759,0,0,0,5.123-2.615,3.348,3.348,0,0,0,3.177,2.615l0.648-1.9C236.1,81.483,235.584,81,235.584,79.417Zm-6.906,2.227c-2.043,0-3.113-1.13-3.113-3.2,0-2.421,1.686-3.616,4.864-3.616h2.431V78.9A4.588,4.588,0,0,1,228.678,81.644Zm29.7-15.69a6.456,6.456,0,0,0-5.35,2.97L252.8,66.342h-2.334V83.323h2.723V71.217c1.2-1.872,2.562-3.131,4.572-3.131,1.751,0,2.788.839,2.788,3.454V83.323h2.724V71.152C263.271,67.924,261.52,65.955,258.375,65.955Zm23.635,8.329c0-5.133-2.367-8.329-6.939-8.329-4.344,0-7,3.713-7,9.039,0,5.391,2.756,8.716,7.457,8.716a9.074,9.074,0,0,0,5.869-2.131l-1.2-1.614a7.272,7.272,0,0,1-4.474,1.517c-2.562,0-4.507-1.614-4.766-5.714h10.991C281.978,75.414,282.01,74.865,282.01,74.284Zm-2.691-.517h-8.365c0.227-3.971,1.815-5.649,4.182-5.649,2.821,0,4.183,1.969,4.183,5.391v0.258Zm19.971-7.425h-2.723V78.513c-1.07,1.776-2.5,3.035-4.442,3.035-1.913,0-2.789-.9-2.789-3.325V66.342h-2.723V78.513c0,3.325,1.783,5.2,4.766,5.2a5.824,5.824,0,0,0,5.382-3.131l0.195,2.744h2.334V66.342Zm13.616,14.4a4.551,4.551,0,0,1-2.366.71c-1.524,0-2.14-.839-2.14-2.615V68.44h3.826l0.291-2.1H308.4v-4.2l-2.724.291v3.906h-2.95v2.1h2.95V78.965c0,3.1,1.686,4.746,4.507,4.746a6.538,6.538,0,0,0,3.761-1.13Zm11.348-14.786c-2.14,0-3.729,1.324-4.637,3.939l-0.259-3.551h-2.335V83.323h2.724V73.477c0.745-3.325,2.01-4.875,4.182-4.875a5.228,5.228,0,0,1,1.492.194l0.519-2.647A7.1,7.1,0,0,0,324.254,65.955Zm15.659,13.462V71.54c0-3.519-1.848-5.585-5.9-5.585a15.993,15.993,0,0,0-5.771,1.162l0.681,2a14.391,14.391,0,0,1,4.6-.936c2.464,0,3.664.968,3.664,3.487v1.356H334.4c-4.669,0-7.392,1.937-7.392,5.553,0,3.035,2.01,5.133,5.382,5.133a5.757,5.757,0,0,0,5.123-2.615,3.349,3.349,0,0,0,3.177,2.615l0.649-1.9C340.432,81.483,339.913,81,339.913,79.417Zm-6.906,2.227c-2.043,0-3.113-1.13-3.113-3.2,0-2.421,1.686-3.616,4.864-3.616h2.432V78.9A4.59,4.59,0,0,1,333.007,81.644Zm16.178,2.066a5.011,5.011,0,0,0,2.27-.549l-0.714-1.9a3.092,3.092,0,0,1-1.134.194c-0.811,0-1.135-.484-1.135-1.421V59.175l-2.724.323v20.6C345.748,82.451,347.11,83.71,349.185,83.71Zm7.586-25.374a1.874,1.874,0,1,0,1.946,1.872A1.828,1.828,0,0,0,356.771,58.336Zm1.395,8.006h-2.724V83.323h2.724V66.342Zm16.048,0H362.833v2.292H371.1l-9.013,12.655v2.034h11.867l0.324-2.292h-9.111l9.046-12.623V66.342Zm15.238,13.075V71.54c0-3.519-1.849-5.585-5.9-5.585a15.994,15.994,0,0,0-5.772,1.162l0.681,2a14.391,14.391,0,0,1,4.6-.936c2.464,0,3.664.968,3.664,3.487v1.356H383.94c-4.669,0-7.393,1.937-7.393,5.553,0,3.035,2.01,5.133,5.382,5.133a5.757,5.757,0,0,0,5.123-2.615,3.35,3.35,0,0,0,3.178,2.615l0.648-1.9C389.97,81.483,389.452,81,389.452,79.417Zm-6.907,2.227c-2.042,0-3.112-1.13-3.112-3.2,0-2.421,1.686-3.616,4.863-3.616h2.432V78.9A4.589,4.589,0,0,1,382.545,81.644Zm19.323-15.69c-4.572,0-7.392,3.583-7.392,9.007,0,5.488,2.853,8.749,7.392,8.749a7.765,7.765,0,0,0,5.123-1.872l-1.265-1.776a6.138,6.138,0,0,1-3.761,1.324c-2.788,0-4.571-1.937-4.571-6.457,0-4.552,1.783-6.715,4.571-6.715a5.824,5.824,0,0,1,3.7,1.259l1.329-1.711A7.5,7.5,0,0,0,401.868,65.955Zm10.537-7.619a1.874,1.874,0,1,0,1.945,1.872A1.827,1.827,0,0,0,412.405,58.336Zm1.394,8.006h-2.724V83.323H413.8V66.342Zm15.011-8.749-6.355,3.616,0.843,1.453,6.744-2.744Zm-2.5,8.361c-4.766,0-7.522,3.583-7.522,8.91,0,5.391,2.723,8.846,7.49,8.846s7.522-3.583,7.522-8.91C433.8,69.377,431.112,65.955,426.313,65.955Zm0,2.2c2.951,0,4.572,2.163,4.572,6.65,0,4.552-1.654,6.715-4.6,6.715s-4.572-2.163-4.572-6.65C421.709,70.313,423.4,68.15,426.313,68.15Zm20.393-2.2a6.456,6.456,0,0,0-5.35,2.97l-0.227-2.583h-2.335V83.323h2.724V71.217c1.2-1.872,2.561-3.131,4.572-3.131,1.751,0,2.788.839,2.788,3.454V83.323H451.6V71.152C451.6,67.924,449.851,65.955,446.706,65.955Z"/>
</svg>
