<svg xmlns="http://www.w3.org/2000/svg" width="479" height="337" viewBox="0 0 479 337">
  <defs>
    <style>
      .cls-1 {
        fill: #fff;
        fill-rule: evenodd;
      }
    </style>
  </defs>
  <path id="_93_365_nuevas_conexiones" data-name="93 365 nuevas  conexiones" class="cls-1" d="M15.068,1.031C7.793,1.031,2.027,5.817,2.027,13.4c0,7.368,4.635,11.885,10.293,11.885a9.228,9.228,0,0,0,7.652-3.711C18.786,28.458,13.882,31.738,4.721,34l1.617,5.432c15.035-3.334,21.825-9.519,21.825-24.362C28.163,6.785,23.744,1.031,15.068,1.031ZM14.529,19.8c-2.694,0-4.85-1.721-4.85-6.615,0-4.356,2.1-6.615,5.389-6.615,3.826,0,5.389,2.581,5.281,9.788A7.019,7.019,0,0,1,14.529,19.8ZM41.691,1.031A16.469,16.469,0,0,0,29.943,5.763L33.769,9.9a9.916,9.916,0,0,1,7.167-3.119c3.126,0,5.12,1.667,5.12,4.464,0,3.28-2.263,5.109-5.551,5.109H38.511L37.6,21.735h2.964c3.988,0,6.251,1.452,6.251,5.485,0,3.6-2.425,5.7-6.09,5.7-2.8,0-5.066-1.022-7.491-3.442l-4.15,3.98c2.8,3.442,6.844,5.378,12.071,5.378,8.676,0,13.526-5,13.526-11.132,0-5.7-3.772-8.443-8.3-8.927,4.365-1.183,7.114-4.087,7.114-8.551C53.493,5.172,49.4,1.031,41.691,1.031Zm40.9,0A16.469,16.469,0,0,0,70.846,5.763L74.672,9.9A9.916,9.916,0,0,1,81.84,6.785c3.126,0,5.12,1.667,5.12,4.464,0,3.28-2.263,5.109-5.551,5.109H79.415L78.5,21.735h2.964c3.988,0,6.251,1.452,6.251,5.485,0,3.6-2.425,5.7-6.09,5.7-2.8,0-5.066-1.022-7.491-3.442l-4.15,3.98c2.8,3.442,6.844,5.378,12.071,5.378,8.676,0,13.526-5,13.526-11.132,0-5.7-3.772-8.443-8.3-8.927,4.365-1.183,7.114-4.087,7.114-8.551C94.4,5.172,90.3,1.031,82.594,1.031Zm33.2,12.692a10.237,10.237,0,0,0-7.922,3.711c0.377-6.884,3.179-10.863,7.544-10.863a9.792,9.792,0,0,1,5.12,1.452l2.8-4.679a14.229,14.229,0,0,0-8.083-2.312c-9.485,0-15.305,8.067-15.305,20.274,0,10.433,3.934,17.532,13.418,17.532,7.707,0,12.772-5.7,12.772-13.229C126.138,17.917,121.612,13.722,115.792,13.722ZM113.42,33.244c-3.88,0-5.443-3.119-5.55-10.809A7.725,7.725,0,0,1,113.8,19.1c2.91,0,4.634,1.667,4.634,6.615C118.432,30.286,116.815,33.244,113.42,33.244ZM152.331,1.73H130.667V20.982H136a8.827,8.827,0,0,1,4.527-1.291c3.179,0,5.5,1.667,5.5,6.4,0,4.464-2.372,6.884-6.252,6.884a9.151,9.151,0,0,1-7.221-3.442l-4.311,4.033a15,15,0,0,0,11.748,5.27c8.407,0,13.9-5.216,13.9-12.745,0-7.421-4.418-11.724-10.4-11.724A12.926,12.926,0,0,0,138,15.6V7.269h13.419Zm36.322,6.884c-3.664,0-6.413,1.613-8.73,4.464l-0.593-3.6H172.7v28.5h7.652V18.294c1.563-2.528,3.287-3.98,5.5-3.98,1.94,0,3.126.914,3.126,4.195V37.976h7.652V17.218C196.629,11.84,193.665,8.613,188.653,8.613Zm38.64,0.86h-7.652V29.426c-1.347,2.313-3.126,3.711-5.227,3.711s-3.126-1.022-3.126-4.141V9.474h-7.652v20.49c0,5.485,2.694,8.873,7.975,8.873a9.588,9.588,0,0,0,8.677-4.679l0.377,3.818h6.628V9.474ZM258.981,23.08c0-9.088-4.8-14.466-12.879-14.466-8.353,0-12.988,6.668-12.988,15.273,0,8.927,4.8,14.95,13.958,14.95A16.865,16.865,0,0,0,257.9,34.965l-3.18-4.3a11.578,11.578,0,0,1-6.952,2.474c-3.664,0-6.251-1.613-6.79-7.1H258.82C258.874,25.231,258.981,24.048,258.981,23.08Zm-7.6-1.828h-10.4c0.377-5.378,2.264-7.421,5.281-7.421,3.665,0,5.12,2.8,5.12,7.1v0.323ZM287.868,9.474H280l-5.766,22.533L268.575,9.474h-8.3l9.323,28.5h9.108Zm24.414,20.6V18.562c0-6.453-3.4-9.949-11.317-9.949a29.739,29.739,0,0,0-10.563,2.1l1.725,5.109a26.13,26.13,0,0,1,7.544-1.506c3.611,0,5.12,1.129,5.12,4.679v1.4H301.5c-8.461,0-13.15,3.388-13.15,9.626,0,5.163,3.557,8.82,9.269,8.82a9.668,9.668,0,0,0,8.569-4.3c1.186,2.85,3.341,3.926,6.575,4.195l1.616-5.055C312.982,33.19,312.282,32.383,312.282,30.071Zm-12.557,3.28c-2.371,0-3.664-1.452-3.664-3.98,0-3.119,2.048-4.625,6.2-4.625h2.533v5.432A5.658,5.658,0,0,1,299.725,33.351ZM328.881,8.613c-6.9,0-11.317,3.657-11.317,8.5,0,4.3,2.695,7.153,8.461,8.766,5.281,1.452,6.305,2.151,6.305,4.3,0,1.936-1.832,3.119-4.688,3.119a12.588,12.588,0,0,1-7.653-2.8L316.217,34.7a16.951,16.951,0,0,0,11.64,4.141c6.79,0,12.341-3.334,12.341-9.25,0-5.055-3.233-7.421-8.946-8.981-5.012-1.452-5.982-2.2-5.982-3.872,0-1.559,1.4-2.581,3.934-2.581a13.218,13.218,0,0,1,7.114,2.259l2.91-4.356A16.286,16.286,0,0,0,328.881,8.613ZM16.038,62.394C7.685,62.394,2.4,68.686,2.4,77.721c0,9.088,5.227,14.9,13.742,14.9a14.343,14.343,0,0,0,9.377-3.334L22.181,84.5c-2.1,1.345-3.557,1.99-5.658,1.99-3.611,0-6.036-2.2-6.036-8.82s2.263-9.357,6.09-9.357a8.694,8.694,0,0,1,5.6,2.043l3.341-4.517A13.731,13.731,0,0,0,16.038,62.394Zm24.791,0c-8.622,0-13.742,6.023-13.742,15.112,0,9.465,5.173,15.112,13.688,15.112,8.569,0,13.688-6.077,13.688-15.112C54.463,68.041,49.343,62.394,40.829,62.394Zm0,5.7c3.718,0,5.658,2.85,5.658,9.411,0,6.507-1.94,9.411-5.712,9.411s-5.712-2.85-5.712-9.411C35.063,71,37,68.095,40.829,68.095Zm35.407-5.7c-3.665,0-6.413,1.613-8.73,4.464l-0.593-3.6H60.284v28.5h7.652V72.074c1.563-2.528,3.287-3.98,5.5-3.98,1.94,0,3.126.914,3.126,4.195V91.757h7.652V71C84.212,65.621,81.248,62.394,76.236,62.394ZM115.63,76.86c0-9.088-4.8-14.466-12.879-14.466-8.353,0-12.988,6.669-12.988,15.273,0,8.927,4.8,14.95,13.958,14.95a16.864,16.864,0,0,0,10.832-3.872l-3.18-4.3a11.578,11.578,0,0,1-6.952,2.474c-3.664,0-6.251-1.613-6.79-7.1h17.838C115.523,79.011,115.63,77.828,115.63,76.86Zm-7.6-1.828h-10.4c0.377-5.378,2.263-7.421,5.281-7.421,3.665,0,5.12,2.8,5.12,7.1v0.323Zm26.946,1.452,8.03-13.23h-8.192l-4.365,9.465-4.472-9.465h-8.623l8.407,13.5-9.377,15h8.407l5.335-11.025,5.443,11.025h8.784Zm16.545-27.911a4.467,4.467,0,1,0,0,8.927A4.469,4.469,0,1,0,151.523,48.573Zm3.88,14.681h-7.652v28.5H155.4v-28.5Zm19.563-.86c-8.623,0-13.742,6.023-13.742,15.112,0,9.465,5.173,15.112,13.688,15.112,8.568,0,13.688-6.077,13.688-15.112C188.6,68.041,183.48,62.394,174.966,62.394Zm0,5.7c3.718,0,5.658,2.85,5.658,9.411,0,6.507-1.94,9.411-5.712,9.411s-5.713-2.85-5.713-9.411C169.2,71,171.139,68.095,174.966,68.095Zm35.407-5.7c-3.665,0-6.413,1.613-8.731,4.464l-0.592-3.6h-6.629v28.5h7.653V72.074c1.562-2.528,3.287-3.98,5.5-3.98,1.94,0,3.126.914,3.126,4.195V91.757h7.652V71C218.348,65.621,215.384,62.394,210.373,62.394ZM249.767,76.86c0-9.088-4.8-14.466-12.88-14.466-8.352,0-12.987,6.669-12.987,15.273,0,8.927,4.8,14.95,13.957,14.95a16.862,16.862,0,0,0,10.832-3.872l-3.179-4.3a11.578,11.578,0,0,1-6.952,2.474c-3.664,0-6.251-1.613-6.79-7.1h17.837C249.659,79.011,249.767,77.828,249.767,76.86Zm-7.6-1.828h-10.4c0.377-5.378,2.263-7.421,5.281-7.421,3.665,0,5.12,2.8,5.12,7.1v0.323ZM264.8,62.394c-6.9,0-11.316,3.657-11.316,8.5,0,4.3,2.694,7.153,8.46,8.766,5.281,1.452,6.305,2.151,6.305,4.3,0,1.936-1.832,3.119-4.688,3.119a12.586,12.586,0,0,1-7.652-2.8l-3.773,4.195a16.956,16.956,0,0,0,11.641,4.141c6.79,0,12.34-3.334,12.34-9.25,0-5.055-3.233-7.421-8.945-8.981-5.012-1.452-5.982-2.2-5.982-3.872,0-1.56,1.4-2.581,3.934-2.581a13.215,13.215,0,0,1,7.113,2.259l2.91-4.356A16.283,16.283,0,0,0,264.8,62.394Z"/>
  <path id="_92_022_nuevos_usuarios_residenciales_1324_nuevos_usuarios_come" data-name="92 022 nuevos usuarios residenciales 1324  nuevos usuarios come" class="cls-1" d="M10.574,138.239c-4.364,0-7.823,2.871-7.823,7.42,0,4.419,2.78,7.129,6.174,7.129a5.535,5.535,0,0,0,4.59-2.226c-0.711,4.13-3.653,6.1-9.149,7.452l0.97,3.259c9.019-2,13.092-5.71,13.092-14.614C18.429,141.691,15.778,138.239,10.574,138.239ZM10.25,149.5c-1.616,0-2.909-1.033-2.909-3.968,0-2.613,1.261-3.968,3.233-3.968,2.3,0,3.233,1.548,3.168,5.871A4.21,4.21,0,0,1,10.25,149.5Zm16.3-11.259a8.761,8.761,0,0,0-7.274,3.645l2.748,2.194c1.325-1.581,2.457-2.29,4.106-2.29a2.789,2.789,0,0,1,2.974,3c0,2.9-1.778,4.9-9.181,12.291V160.4H33.788l0.517-3.549H25.157c6.756-6.323,8.664-8.936,8.664-12.452C33.821,141.013,31.2,138.239,26.547,138.239Zm26.158,0c-5.237,0-7.985,4.033-7.985,11.323,0,7.259,2.748,11.356,7.985,11.356,5.269,0,8.017-4.1,8.017-11.356C60.722,142.272,57.975,138.239,52.705,138.239Zm0,3.42c2.263,0,3.3,1.871,3.3,7.9,0,6-1.034,7.9-3.3,7.9s-3.265-2-3.265-7.9S50.442,141.659,52.705,141.659Zm16.653-3.42a8.761,8.761,0,0,0-7.273,3.645l2.748,2.194c1.325-1.581,2.457-2.29,4.106-2.29a2.789,2.789,0,0,1,2.974,3c0,2.9-1.778,4.9-9.181,12.291V160.4H76.6l0.517-3.549H67.969c6.756-6.323,8.664-8.936,8.664-12.452C76.632,141.013,74.014,138.239,69.359,138.239Zm16.555,0a8.761,8.761,0,0,0-7.274,3.645l2.748,2.194c1.325-1.581,2.457-2.29,4.106-2.29a2.789,2.789,0,0,1,2.974,3c0,2.9-1.778,4.9-9.181,12.291V160.4H93.156l0.517-3.549H84.524c6.756-6.323,8.664-8.936,8.664-12.452C93.188,141.013,90.569,138.239,85.914,138.239Zm26.118,8.659a5.006,5.006,0,0,0-4.15,2.31l-0.176-2.008H105.9v13.2h2.113V150.99c0.931-1.456,1.987-2.435,3.546-2.435,1.358,0,2.163.653,2.163,2.686V160.4h2.113v-9.463C115.83,148.43,114.472,146.9,112.032,146.9Zm18.108,0.3h-2.113v9.462a4.1,4.1,0,0,1-3.445,2.359c-1.484,0-2.163-.7-2.163-2.585V147.2h-2.113v9.462c0,2.585,1.383,4.041,3.7,4.041a4.515,4.515,0,0,0,4.175-2.435l0.151,2.134h1.811V147.2Zm14.687,6.174c0-3.991-1.836-6.476-5.382-6.476-3.37,0-5.433,2.887-5.433,7.028,0,4.192,2.138,6.777,5.785,6.777a7.031,7.031,0,0,0,4.553-1.657l-0.931-1.255a5.629,5.629,0,0,1-3.471,1.18c-1.987,0-3.5-1.255-3.7-4.442h8.526C144.8,154.252,144.827,153.826,144.827,153.374Zm-2.087-.4h-6.489c0.176-3.087,1.408-4.392,3.244-4.392,2.189,0,3.245,1.531,3.245,4.192v0.2Zm15.291-5.772h-2.239l-3.546,11.319-3.6-11.319h-2.314l4.6,13.2H153.5Zm7.52-.3c-3.7,0-5.835,2.786-5.835,6.928,0,4.191,2.112,6.877,5.809,6.877s5.835-2.786,5.835-6.927C171.36,149.559,169.273,146.9,165.551,146.9Zm0,1.707c2.288,0,3.546,1.682,3.546,5.171,0,3.538-1.283,5.22-3.572,5.22s-3.546-1.682-3.546-5.17C161.979,150.287,163.287,148.6,165.551,148.6Zm13.228-1.707c-2.666,0-4.678,1.506-4.678,3.59,0,1.857,1.132,3.037,4,3.79,2.591,0.7,3.27,1.2,3.27,2.585,0,1.33-1.157,2.133-2.943,2.133a6.006,6.006,0,0,1-3.748-1.305l-1.131,1.28a7.148,7.148,0,0,0,4.929,1.732c2.666,0,5.106-1.28,5.106-3.966,0-2.309-1.534-3.363-4.351-4.091-2.188-.577-2.918-1.079-2.918-2.209s0.981-1.857,2.541-1.857a5.858,5.858,0,0,1,3.445,1.155l0.931-1.331A6.962,6.962,0,0,0,178.779,146.9Zm24.571,0.3h-2.112v9.462a4.1,4.1,0,0,1-3.446,2.359c-1.484,0-2.163-.7-2.163-2.585V147.2h-2.113v9.462c0,2.585,1.384,4.041,3.7,4.041a4.514,4.514,0,0,0,4.175-2.435l0.151,2.134h1.811V147.2Zm8.324-.3c-2.666,0-4.678,1.506-4.678,3.59,0,1.857,1.132,3.037,4,3.79,2.591,0.7,3.27,1.2,3.27,2.585,0,1.33-1.157,2.133-2.943,2.133a6,6,0,0,1-3.747-1.305l-1.132,1.28a7.151,7.151,0,0,0,4.93,1.732c2.666,0,5.105-1.28,5.105-3.966,0-2.309-1.534-3.363-4.351-4.091-2.188-.577-2.917-1.079-2.917-2.209s0.981-1.857,2.54-1.857a5.861,5.861,0,0,1,3.446,1.155l0.93-1.331A6.96,6.96,0,0,0,211.674,146.9Zm17.832,0.3h-2.113v9.462a4.1,4.1,0,0,1-3.446,2.359c-1.484,0-2.163-.7-2.163-2.585V147.2h-2.112v9.462c0,2.585,1.383,4.041,3.7,4.041a4.515,4.515,0,0,0,4.175-2.435L227.7,160.4h1.811V147.2Zm13.48,10.165v-6.124c0-2.736-1.434-4.343-4.578-4.343a12.386,12.386,0,0,0-4.476.9l0.528,1.556a11.134,11.134,0,0,1,3.571-.728c1.912,0,2.842.753,2.842,2.711V152.4H238.71c-3.622,0-5.734,1.506-5.734,4.317a3.822,3.822,0,0,0,4.175,3.991,4.465,4.465,0,0,0,3.974-2.033,2.6,2.6,0,0,0,2.464,2.033l0.5-1.481C243.388,158.971,242.986,158.6,242.986,157.365Zm-5.357,1.731a2.2,2.2,0,0,1-2.415-2.484c0-1.883,1.308-2.811,3.773-2.811h1.886v3.162A3.559,3.559,0,0,1,237.629,159.1ZM253.4,146.9c-1.66,0-2.892,1.03-3.6,3.063l-0.2-2.761h-1.811v13.2H249.9v-7.656c0.579-2.585,1.56-3.789,3.245-3.789a4.054,4.054,0,0,1,1.157.15l0.4-2.058A5.511,5.511,0,0,0,253.4,146.9Zm4.979-5.923a1.457,1.457,0,1,0,1.51,1.456A1.419,1.419,0,0,0,258.376,140.975Zm1.082,6.225h-2.113v13.2h2.113V147.2Zm9.708-.3c-3.7,0-5.835,2.786-5.835,6.928,0,4.191,2.112,6.877,5.809,6.877s5.835-2.786,5.835-6.927C274.975,149.559,272.888,146.9,269.166,146.9Zm0,1.707c2.288,0,3.546,1.682,3.546,5.171,0,3.538-1.283,5.22-3.572,5.22s-3.546-1.682-3.546-5.17C265.594,150.287,266.9,148.6,269.166,148.6Zm13.228-1.707c-2.666,0-4.678,1.506-4.678,3.59,0,1.857,1.132,3.037,4,3.79,2.591,0.7,3.27,1.2,3.27,2.585,0,1.33-1.157,2.133-2.943,2.133a6.006,6.006,0,0,1-3.748-1.305l-1.131,1.28a7.148,7.148,0,0,0,4.929,1.732c2.666,0,5.106-1.28,5.106-3.966,0-2.309-1.534-3.363-4.351-4.091-2.188-.577-2.918-1.079-2.918-2.209s0.981-1.857,2.541-1.857a5.858,5.858,0,0,1,3.445,1.155l0.931-1.331A6.962,6.962,0,0,0,282.394,146.9Zm20.5,0c-1.66,0-2.893,1.03-3.6,3.063l-0.2-2.761h-1.811v13.2H299.4v-7.656c0.578-2.585,1.559-3.789,3.244-3.789a4.054,4.054,0,0,1,1.157.15l0.4-2.058A5.523,5.523,0,0,0,302.891,146.9Zm13.379,6.476c0-3.991-1.836-6.476-5.382-6.476-3.37,0-5.432,2.887-5.432,7.028,0,4.192,2.137,6.777,5.784,6.777a7.031,7.031,0,0,0,4.553-1.657l-0.931-1.255a5.629,5.629,0,0,1-3.471,1.18c-1.987,0-3.5-1.255-3.7-4.442h8.526C316.245,154.252,316.27,153.826,316.27,153.374Zm-2.087-.4h-6.489c0.176-3.087,1.408-4.392,3.244-4.392,2.189,0,3.245,1.531,3.245,4.192v0.2Zm9.355-6.074c-2.666,0-4.678,1.506-4.678,3.59,0,1.857,1.132,3.037,4,3.79,2.591,0.7,3.27,1.2,3.27,2.585,0,1.33-1.157,2.133-2.943,2.133a6,6,0,0,1-3.747-1.305l-1.132,1.28a7.15,7.15,0,0,0,4.929,1.732c2.666,0,5.106-1.28,5.106-3.966,0-2.309-1.534-3.363-4.351-4.091-2.188-.577-2.918-1.079-2.918-2.209s0.981-1.857,2.541-1.857a5.858,5.858,0,0,1,3.445,1.155l0.931-1.331A6.962,6.962,0,0,0,323.538,146.9Zm9.18-5.923a1.457,1.457,0,1,0,1.509,1.456A1.419,1.419,0,0,0,332.718,140.975ZM333.8,147.2h-2.113v13.2H333.8V147.2Zm12.65-5.572v6.927a4.8,4.8,0,0,0-3.6-1.657c-3.245,0-5.181,2.912-5.181,6.953,0,4.141,1.785,6.852,4.98,6.852a4.46,4.46,0,0,0,3.848-2.159l0.226,1.858h1.836V141.879Zm-3.37,17.393c-1.987,0-3.144-1.681-3.144-5.195s1.308-5.246,3.37-5.246a3.784,3.784,0,0,1,3.144,1.782v6.576A3.821,3.821,0,0,1,343.079,159.021Zm20.17-5.647c0-3.991-1.836-6.476-5.382-6.476-3.37,0-5.433,2.887-5.433,7.028,0,4.192,2.138,6.777,5.785,6.777a7.026,7.026,0,0,0,4.552-1.657l-0.93-1.255a5.629,5.629,0,0,1-3.471,1.18c-1.987,0-3.5-1.255-3.7-4.442H363.2C363.224,154.252,363.249,153.826,363.249,153.374Zm-2.087-.4h-6.489c0.176-3.087,1.408-4.392,3.244-4.392,2.188,0,3.245,1.531,3.245,4.192v0.2Zm11.945-6.074a5,5,0,0,0-4.149,2.31l-0.176-2.008h-1.811v13.2h2.112V150.99c0.931-1.456,1.987-2.435,3.547-2.435,1.358,0,2.163.653,2.163,2.686V160.4h2.112v-9.463C376.905,148.43,375.547,146.9,373.107,146.9Zm13.254,0c-3.546,0-5.734,2.786-5.734,7,0,4.267,2.213,6.8,5.734,6.8a6.015,6.015,0,0,0,3.974-1.456l-0.981-1.38a4.76,4.76,0,0,1-2.917,1.029c-2.163,0-3.547-1.506-3.547-5.02,0-3.539,1.384-5.221,3.547-5.221a4.513,4.513,0,0,1,2.867.979l1.031-1.33A5.809,5.809,0,0,0,386.361,146.9Zm8.174-5.923a1.457,1.457,0,1,0,1.509,1.456A1.419,1.419,0,0,0,394.535,140.975Zm1.081,6.225H393.5v13.2h2.113V147.2Zm13.48,10.165v-6.124c0-2.736-1.433-4.343-4.577-4.343a12.387,12.387,0,0,0-4.477.9l0.528,1.556a11.139,11.139,0,0,1,3.572-.728c1.911,0,2.842.753,2.842,2.711V152.4h-2.163c-3.622,0-5.735,1.506-5.735,4.317a3.822,3.822,0,0,0,4.175,3.991,4.464,4.464,0,0,0,3.974-2.033A2.6,2.6,0,0,0,409.7,160.7l0.5-1.481C409.5,158.971,409.1,158.6,409.1,157.365Zm-5.357,1.731a2.2,2.2,0,0,1-2.414-2.484c0-1.883,1.308-2.811,3.772-2.811h1.887v3.162A3.559,3.559,0,0,1,403.739,159.1Zm12.55,1.607a3.876,3.876,0,0,0,1.76-.427l-0.553-1.481a2.384,2.384,0,0,1-.88.151c-0.629,0-.881-0.377-0.881-1.1V141.628l-2.112.251v16.013A2.513,2.513,0,0,0,416.289,160.7Zm14.638-7.329c0-3.991-1.837-6.476-5.383-6.476-3.37,0-5.432,2.887-5.432,7.028,0,4.192,2.137,6.777,5.784,6.777a7.031,7.031,0,0,0,4.553-1.657l-0.931-1.255a5.629,5.629,0,0,1-3.471,1.18c-1.987,0-3.5-1.255-3.7-4.442h8.526C430.9,154.252,430.927,153.826,430.927,153.374Zm-2.088-.4H422.35c0.176-3.087,1.408-4.392,3.245-4.392,2.188,0,3.244,1.531,3.244,4.192v0.2Zm9.355-6.074c-2.666,0-4.678,1.506-4.678,3.59,0,1.857,1.132,3.037,4,3.79,2.591,0.7,3.27,1.2,3.27,2.585,0,1.33-1.157,2.133-2.943,2.133a6,6,0,0,1-3.747-1.305l-1.132,1.28a7.15,7.15,0,0,0,4.929,1.732c2.666,0,5.106-1.28,5.106-3.966,0-2.309-1.534-3.363-4.351-4.091-2.188-.577-2.918-1.079-2.918-2.209s0.981-1.857,2.541-1.857a5.858,5.858,0,0,1,3.445,1.155l0.931-1.331A6.962,6.962,0,0,0,438.194,146.9ZM13.612,180.423H9.571L2.33,184.779l2,3.1,4.784-2.936v17.227h4.493V180.423ZM24.09,180a9.88,9.88,0,0,0-7.047,2.839l2.3,2.484a5.949,5.949,0,0,1,4.3-1.871c1.875,0,3.071,1,3.071,2.678,0,1.967-1.358,3.064-3.33,3.064h-1.2l-0.55,3.226h1.778c2.392,0,3.75.871,3.75,3.291,0,2.161-1.455,3.419-3.653,3.419a6.014,6.014,0,0,1-4.493-2.064l-2.489,2.387a8.9,8.9,0,0,0,7.241,3.226c5.2,0,8.114-3,8.114-6.678,0-3.419-2.263-5.065-4.978-5.355,2.619-.71,4.267-2.452,4.267-5.129C31.169,182.488,28.713,180,24.09,180Zm16.362,0a8.761,8.761,0,0,0-7.274,3.645l2.748,2.194c1.325-1.581,2.457-2.29,4.105-2.29a2.789,2.789,0,0,1,2.974,3c0,2.9-1.778,4.9-9.181,12.291v3.323H47.693l0.517-3.549H39.062c6.756-6.323,8.664-8.936,8.664-12.452C47.725,182.778,45.107,180,40.452,180Zm25.284,13.84H63.181v-5.323H59.237l-0.485,5.323H54.227l5.4-12.453-3.879-1.451-6.271,14.291v3.1h9.213l0.032,4.839h4.461v-4.839h2.554v-3.484Zm26.605-5.18a5,5,0,0,0-4.15,2.309l-0.176-2.008H86.2v13.2h2.113v-9.412c0.93-1.456,1.987-2.435,3.546-2.435,1.358,0,2.163.653,2.163,2.686v9.161h2.113V192.7C96.138,190.2,94.78,188.664,92.34,188.664Zm18.108,0.3h-2.113v9.462a4.1,4.1,0,0,1-3.445,2.359c-1.484,0-2.163-.7-2.163-2.585v-9.236h-2.113v9.462c0,2.585,1.383,4.041,3.7,4.041a4.515,4.515,0,0,0,4.175-2.435l0.151,2.134h1.811v-13.2Zm14.687,6.174c0-3.991-1.836-6.475-5.382-6.475-3.37,0-5.433,2.886-5.433,7.027,0,4.192,2.138,6.777,5.785,6.777a7.031,7.031,0,0,0,4.553-1.657l-0.931-1.255a5.629,5.629,0,0,1-3.471,1.18c-1.987,0-3.5-1.255-3.7-4.442h8.526C125.11,196.018,125.135,195.591,125.135,195.139Zm-2.087-.4h-6.489c0.176-3.087,1.408-4.392,3.244-4.392,2.189,0,3.245,1.531,3.245,4.192v0.2Zm15.291-5.772H136.1l-3.546,11.319-3.6-11.319h-2.314l4.6,13.2h2.566Zm7.52-.3c-3.7,0-5.835,2.786-5.835,6.927,0,4.191,2.112,6.877,5.809,6.877s5.835-2.786,5.835-6.927C151.668,191.324,149.581,188.664,145.859,188.664Zm0,1.706c2.288,0,3.546,1.682,3.546,5.171,0,3.539-1.283,5.22-3.572,5.22s-3.546-1.681-3.546-5.17C142.287,192.052,143.6,190.37,145.859,190.37Zm13.228-1.706c-2.666,0-4.678,1.506-4.678,3.589,0,1.857,1.132,3.037,4,3.79,2.591,0.7,3.27,1.2,3.27,2.585,0,1.33-1.157,2.133-2.943,2.133a6.006,6.006,0,0,1-3.748-1.305l-1.131,1.28a7.148,7.148,0,0,0,4.929,1.732c2.666,0,5.106-1.28,5.106-3.966,0-2.309-1.534-3.363-4.351-4.091-2.188-.577-2.918-1.079-2.918-2.208s0.981-1.858,2.541-1.858a5.858,5.858,0,0,1,3.445,1.155l0.931-1.33A6.956,6.956,0,0,0,159.087,188.664Zm24.571,0.3h-2.112v9.462a4.1,4.1,0,0,1-3.446,2.359c-1.484,0-2.163-.7-2.163-2.585v-9.236h-2.113v9.462c0,2.585,1.384,4.041,3.7,4.041a4.514,4.514,0,0,0,4.175-2.435l0.151,2.134h1.811v-13.2Zm8.324-.3c-2.666,0-4.678,1.506-4.678,3.589,0,1.857,1.132,3.037,4,3.79,2.591,0.7,3.27,1.2,3.27,2.585,0,1.33-1.157,2.133-2.943,2.133a6,6,0,0,1-3.747-1.305l-1.132,1.28a7.151,7.151,0,0,0,4.93,1.732c2.666,0,5.1-1.28,5.1-3.966,0-2.309-1.534-3.363-4.351-4.091-2.188-.577-2.917-1.079-2.917-2.208s0.981-1.858,2.54-1.858A5.861,5.861,0,0,1,195.5,191.5l0.93-1.33A6.954,6.954,0,0,0,191.982,188.664Zm17.832,0.3H207.7v9.462a4.1,4.1,0,0,1-3.446,2.359c-1.484,0-2.163-.7-2.163-2.585v-9.236H199.98v9.462c0,2.585,1.383,4.041,3.7,4.041a4.515,4.515,0,0,0,4.175-2.435L208,202.167h1.811v-13.2Zm13.48,10.165v-6.124c0-2.736-1.434-4.342-4.578-4.342a12.383,12.383,0,0,0-4.476.9l0.528,1.556a11.134,11.134,0,0,1,3.571-.728c1.912,0,2.842.753,2.842,2.711v1.054h-2.163c-3.622,0-5.734,1.506-5.734,4.317a3.821,3.821,0,0,0,4.175,3.991,4.465,4.465,0,0,0,3.974-2.033,2.6,2.6,0,0,0,2.464,2.033l0.5-1.481C223.7,200.736,223.294,200.36,223.294,199.13Zm-5.357,1.732a2.2,2.2,0,0,1-2.415-2.485c0-1.883,1.308-2.811,3.773-2.811h1.886v3.162A3.56,3.56,0,0,1,217.937,200.862Zm15.768-12.2c-1.66,0-2.892,1.029-3.6,3.062l-0.2-2.761H228.1v13.2h2.112v-7.655c0.579-2.586,1.56-3.79,3.245-3.79a4.054,4.054,0,0,1,1.157.15l0.4-2.058A5.511,5.511,0,0,0,233.705,188.664Zm4.979-5.924a1.457,1.457,0,1,0,1.51,1.456A1.419,1.419,0,0,0,238.684,182.74Zm1.082,6.225h-2.113v13.2h2.113v-13.2Zm9.708-.3c-3.7,0-5.835,2.786-5.835,6.927,0,4.191,2.112,6.877,5.809,6.877s5.835-2.786,5.835-6.927C255.283,191.324,253.2,188.664,249.474,188.664Zm0,1.706c2.288,0,3.546,1.682,3.546,5.171,0,3.539-1.283,5.22-3.572,5.22s-3.546-1.681-3.546-5.17C245.9,192.052,247.21,190.37,249.474,190.37Zm13.228-1.706c-2.666,0-4.678,1.506-4.678,3.589,0,1.857,1.132,3.037,4,3.79,2.591,0.7,3.27,1.2,3.27,2.585,0,1.33-1.157,2.133-2.943,2.133a6.006,6.006,0,0,1-3.748-1.305l-1.131,1.28a7.148,7.148,0,0,0,4.929,1.732c2.666,0,5.106-1.28,5.106-3.966,0-2.309-1.534-3.363-4.351-4.091-2.188-.577-2.918-1.079-2.918-2.208s0.981-1.858,2.541-1.858a5.858,5.858,0,0,1,3.445,1.155l0.931-1.33A6.956,6.956,0,0,0,262.7,188.664Zm19.717,0c-3.546,0-5.734,2.786-5.734,7,0,4.267,2.213,6.8,5.734,6.8a6.015,6.015,0,0,0,3.974-1.456l-0.981-1.38a4.76,4.76,0,0,1-2.917,1.029c-2.163,0-3.547-1.506-3.547-5.02,0-3.539,1.384-5.22,3.547-5.22a4.514,4.514,0,0,1,2.867.978l1.031-1.33A5.808,5.808,0,0,0,282.419,188.664Zm11.72,0c-3.7,0-5.835,2.786-5.835,6.927,0,4.191,2.113,6.877,5.81,6.877s5.835-2.786,5.835-6.927C299.949,191.324,297.861,188.664,294.139,188.664Zm0,1.706c2.289,0,3.546,1.682,3.546,5.171,0,3.539-1.282,5.22-3.571,5.22s-3.546-1.681-3.546-5.17C290.568,192.052,291.875,190.37,294.139,190.37ZM317,188.664a4.665,4.665,0,0,0-3.973,2.434,3.3,3.3,0,0,0-3.32-2.434,4.582,4.582,0,0,0-3.9,2.309l-0.176-2.008h-1.811v13.2h2.113v-9.412c0.9-1.456,1.786-2.435,3.244-2.435,1.107,0,1.962.653,1.962,2.686v9.161h2.113v-9.412c0.93-1.456,1.786-2.435,3.244-2.435,1.107,0,1.962.653,1.962,2.686v9.161h2.113V192.7C320.572,190.22,319.163,188.664,317,188.664Zm18.108,6.475c0-3.991-1.836-6.475-5.383-6.475-3.37,0-5.432,2.886-5.432,7.027,0,4.192,2.138,6.777,5.785,6.777a7.03,7.03,0,0,0,4.552-1.657l-0.931-1.255a5.629,5.629,0,0,1-3.471,1.18c-1.986,0-3.5-1.255-3.7-4.442h8.526C335.083,196.018,335.108,195.591,335.108,195.139Zm-2.088-.4h-6.489c0.176-3.087,1.409-4.392,3.245-4.392,2.188,0,3.244,1.531,3.244,4.192v0.2Zm11.418-6.073c-1.66,0-2.892,1.029-3.6,3.062l-0.2-2.761h-1.811v13.2h2.113v-7.655c0.578-2.586,1.559-3.79,3.244-3.79a4.054,4.054,0,0,1,1.157.15l0.4-2.058A5.517,5.517,0,0,0,344.438,188.664Zm8.3,0c-3.546,0-5.734,2.786-5.734,7,0,4.267,2.213,6.8,5.734,6.8a6.015,6.015,0,0,0,3.974-1.456l-0.981-1.38a4.761,4.761,0,0,1-2.918,1.029c-2.163,0-3.546-1.506-3.546-5.02,0-3.539,1.383-5.22,3.546-5.22a4.515,4.515,0,0,1,2.868.978l1.031-1.33A5.808,5.808,0,0,0,352.737,188.664Zm8.173-5.924a1.457,1.457,0,1,0,1.509,1.456A1.419,1.419,0,0,0,360.91,182.74Zm1.082,6.225h-2.113v13.2h2.113v-13.2Zm13.48,10.165v-6.124c0-2.736-1.433-4.342-4.577-4.342a12.384,12.384,0,0,0-4.477.9l0.528,1.556a11.134,11.134,0,0,1,3.571-.728c1.912,0,2.843.753,2.843,2.711v1.054H371.2c-3.621,0-5.734,1.506-5.734,4.317a3.821,3.821,0,0,0,4.175,3.991,4.464,4.464,0,0,0,3.974-2.033,2.6,2.6,0,0,0,2.465,2.033l0.5-1.481C375.875,200.736,375.472,200.36,375.472,199.13Zm-5.357,1.732a2.2,2.2,0,0,1-2.414-2.485c0-1.883,1.307-2.811,3.772-2.811h1.887v3.162A3.56,3.56,0,0,1,370.115,200.862Zm12.55,1.606a3.876,3.876,0,0,0,1.76-.427l-0.553-1.481a2.384,2.384,0,0,1-.88.151c-0.629,0-.881-0.376-0.881-1.1V183.393l-2.112.251v16.013A2.513,2.513,0,0,0,382.665,202.468Zm14.637-7.329c0-3.991-1.836-6.475-5.382-6.475-3.37,0-5.433,2.886-5.433,7.027,0,4.192,2.138,6.777,5.785,6.777a7.031,7.031,0,0,0,4.553-1.657l-0.931-1.255a5.629,5.629,0,0,1-3.471,1.18c-1.987,0-3.5-1.255-3.7-4.442h8.526C397.277,196.018,397.3,195.591,397.3,195.139Zm-2.087-.4h-6.489c0.176-3.087,1.408-4.392,3.244-4.392,2.189,0,3.245,1.531,3.245,4.192v0.2Zm9.355-6.073c-2.666,0-4.678,1.506-4.678,3.589,0,1.857,1.132,3.037,4,3.79,2.591,0.7,3.27,1.2,3.27,2.585,0,1.33-1.157,2.133-2.943,2.133a6,6,0,0,1-3.747-1.305l-1.132,1.28a7.15,7.15,0,0,0,4.929,1.732c2.666,0,5.106-1.28,5.106-3.966,0-2.309-1.534-3.363-4.351-4.091-2.188-.577-2.918-1.079-2.918-2.208s0.981-1.858,2.541-1.858a5.858,5.858,0,0,1,3.445,1.155l0.931-1.33A6.956,6.956,0,0,0,404.57,188.664ZM9.345,221.769A9.88,9.88,0,0,0,2.3,224.608l2.3,2.484a5.949,5.949,0,0,1,4.3-1.871c1.875,0,3.071,1,3.071,2.678,0,1.967-1.358,3.064-3.33,3.064h-1.2l-0.55,3.226H8.666c2.392,0,3.75.871,3.75,3.291,0,2.161-1.455,3.419-3.653,3.419a6.014,6.014,0,0,1-4.493-2.064l-2.489,2.387a8.9,8.9,0,0,0,7.241,3.226c5.2,0,8.114-3,8.114-6.678,0-3.419-2.263-5.065-4.978-5.355,2.618-.71,4.267-2.452,4.267-5.129C16.425,224.253,13.968,221.769,9.345,221.769Zm20.176,0.42H25.48l-7.241,4.355,2,3.1,4.784-2.936v17.227h4.493V222.189Zm24.866,8.24a5,5,0,0,0-4.15,2.309l-0.176-2.008H48.25v13.2h2.113V234.52c0.931-1.456,1.987-2.435,3.546-2.435,1.358,0,2.163.653,2.163,2.686v9.161h2.113V234.47C58.185,231.96,56.827,230.429,54.387,230.429Zm18.108,0.3H70.382v9.462a4.1,4.1,0,0,1-3.446,2.359c-1.484,0-2.163-.7-2.163-2.585V230.73H62.661v9.462c0,2.585,1.383,4.041,3.7,4.041a4.515,4.515,0,0,0,4.175-2.435l0.151,2.134H72.5v-13.2ZM87.182,236.9c0-3.991-1.836-6.475-5.382-6.475-3.37,0-5.433,2.886-5.433,7.027,0,4.192,2.138,6.777,5.785,6.777a7.028,7.028,0,0,0,4.552-1.656l-0.931-1.255A5.634,5.634,0,0,1,82.3,242.5c-1.987,0-3.5-1.255-3.7-4.442h8.526C87.157,237.783,87.182,237.356,87.182,236.9Zm-2.088-.4H78.606c0.176-3.088,1.408-4.393,3.244-4.393,2.188,0,3.245,1.531,3.245,4.192v0.2Zm15.291-5.773H98.147L94.6,242.049,91,230.73H88.691l4.6,13.2h2.565Zm7.52-.3c-3.7,0-5.835,2.786-5.835,6.927,0,4.191,2.112,6.877,5.809,6.877s5.835-2.786,5.835-6.927C113.715,233.089,111.628,230.429,107.906,230.429Zm0,1.706c2.288,0,3.546,1.682,3.546,5.171,0,3.539-1.283,5.22-3.572,5.22s-3.546-1.681-3.546-5.17C104.334,233.817,105.642,232.135,107.906,232.135Zm13.228-1.706c-2.666,0-4.678,1.506-4.678,3.589,0,1.857,1.132,3.037,4,3.79,2.591,0.7,3.27,1.2,3.27,2.585,0,1.33-1.157,2.133-2.943,2.133a6.006,6.006,0,0,1-3.748-1.305L115.9,242.5a7.148,7.148,0,0,0,4.929,1.732c2.666,0,5.106-1.28,5.106-3.966,0-2.309-1.534-3.363-4.351-4.091-2.188-.577-2.918-1.079-2.918-2.208s0.981-1.858,2.541-1.858a5.858,5.858,0,0,1,3.445,1.155l0.931-1.33A6.956,6.956,0,0,0,121.134,230.429Zm24.571,0.3h-2.112v9.462a4.1,4.1,0,0,1-3.446,2.359c-1.484,0-2.163-.7-2.163-2.585V230.73h-2.113v9.462c0,2.585,1.384,4.041,3.7,4.041a4.514,4.514,0,0,0,4.175-2.435l0.151,2.134h1.811v-13.2Zm8.324-.3c-2.666,0-4.678,1.506-4.678,3.589,0,1.857,1.132,3.037,4,3.79,2.591,0.7,3.27,1.2,3.27,2.585,0,1.33-1.157,2.133-2.943,2.133a6,6,0,0,1-3.747-1.305L148.8,242.5a7.151,7.151,0,0,0,4.93,1.732c2.666,0,5.1-1.28,5.1-3.966,0-2.309-1.534-3.363-4.351-4.091-2.188-.577-2.917-1.079-2.917-2.208s0.981-1.858,2.54-1.858a5.861,5.861,0,0,1,3.446,1.155l0.93-1.33A6.954,6.954,0,0,0,154.029,230.429Zm17.832,0.3h-2.113v9.462a4.1,4.1,0,0,1-3.446,2.359c-1.484,0-2.163-.7-2.163-2.585V230.73h-2.112v9.462c0,2.585,1.383,4.041,3.7,4.041A4.515,4.515,0,0,0,169.9,241.8l0.151,2.134h1.811v-13.2Zm13.48,10.165v-6.124c0-2.736-1.434-4.342-4.578-4.342a12.383,12.383,0,0,0-4.476.9l0.528,1.556a11.13,11.13,0,0,1,3.571-.727c1.912,0,2.842.752,2.842,2.71v1.054h-2.163c-3.622,0-5.734,1.506-5.734,4.317a3.821,3.821,0,0,0,4.175,3.991,4.463,4.463,0,0,0,3.974-2.033,2.6,2.6,0,0,0,2.464,2.033l0.5-1.481C185.743,242.5,185.341,242.125,185.341,240.9Zm-5.357,1.732a2.2,2.2,0,0,1-2.415-2.485c0-1.882,1.308-2.811,3.773-2.811h1.886v3.162A3.559,3.559,0,0,1,179.984,242.627Zm15.768-12.2c-1.66,0-2.892,1.029-3.6,3.062l-0.2-2.761h-1.811v13.2h2.112v-7.655c0.579-2.585,1.56-3.79,3.245-3.79a4.054,4.054,0,0,1,1.157.15l0.4-2.058A5.511,5.511,0,0,0,195.752,230.429Zm4.979-5.924a1.457,1.457,0,1,0,1.51,1.456A1.419,1.419,0,0,0,200.731,224.505Zm1.082,6.225H199.7v13.2h2.113v-13.2Zm9.708-.3c-3.7,0-5.835,2.786-5.835,6.927,0,4.191,2.112,6.877,5.809,6.877s5.835-2.786,5.835-6.927C217.33,233.089,215.243,230.429,211.521,230.429Zm0,1.706c2.288,0,3.546,1.682,3.546,5.171,0,3.539-1.283,5.22-3.572,5.22s-3.546-1.681-3.546-5.17C207.949,233.817,209.257,232.135,211.521,232.135Zm13.228-1.706c-2.666,0-4.678,1.506-4.678,3.589,0,1.857,1.132,3.037,4,3.79,2.591,0.7,3.27,1.2,3.27,2.585,0,1.33-1.157,2.133-2.943,2.133a6.006,6.006,0,0,1-3.748-1.305l-1.131,1.28a7.148,7.148,0,0,0,4.929,1.732c2.666,0,5.106-1.28,5.106-3.966,0-2.309-1.534-3.363-4.351-4.091-2.188-.577-2.918-1.079-2.918-2.208s0.981-1.858,2.541-1.858a5.858,5.858,0,0,1,3.445,1.155l0.931-1.33A6.956,6.956,0,0,0,224.749,230.429Zm15.919-5.924a1.457,1.457,0,1,0,1.509,1.456A1.419,1.419,0,0,0,240.668,224.505Zm1.082,6.225h-2.113v13.2h2.113v-13.2Zm10.915-.3a5,5,0,0,0-4.15,2.309l-0.176-2.008h-1.811v13.2h2.113V234.52c0.93-1.456,1.986-2.435,3.546-2.435,1.358,0,2.163.653,2.163,2.686v9.161h2.112V234.47C256.462,231.96,255.1,230.429,252.665,230.429Zm16.3-5.271v6.927a4.8,4.8,0,0,0-3.6-1.656c-3.244,0-5.181,2.911-5.181,6.952,0,4.141,1.786,6.852,4.98,6.852a4.459,4.459,0,0,0,3.848-2.158l0.226,1.857h1.836V225.409Zm-3.371,17.393c-1.987,0-3.143-1.681-3.143-5.195s1.307-5.246,3.37-5.246a3.787,3.787,0,0,1,3.144,1.782v6.576A3.822,3.822,0,0,1,265.591,242.551Zm19.944-11.821h-2.113v9.462a4.1,4.1,0,0,1-3.445,2.359c-1.484,0-2.163-.7-2.163-2.585V230.73H275.7v9.462c0,2.585,1.383,4.041,3.7,4.041a4.515,4.515,0,0,0,4.175-2.435l0.151,2.134h1.811v-13.2Zm8.324-.3c-2.666,0-4.678,1.506-4.678,3.589,0,1.857,1.132,3.037,4,3.79,2.591,0.7,3.27,1.2,3.27,2.585,0,1.33-1.157,2.133-2.943,2.133a6,6,0,0,1-3.747-1.305l-1.132,1.28a7.15,7.15,0,0,0,4.929,1.732c2.666,0,5.106-1.28,5.106-3.966,0-2.309-1.534-3.363-4.351-4.091-2.188-.577-2.918-1.079-2.918-2.208s0.981-1.858,2.541-1.858a5.858,5.858,0,0,1,3.445,1.155l0.931-1.33A6.956,6.956,0,0,0,293.859,230.429Zm13.933,11.5a3.529,3.529,0,0,1-1.836.552c-1.182,0-1.66-.652-1.66-2.033v-8.082h2.968l0.226-1.631H304.3v-3.263l-2.112.226v3.037H299.9v1.631h2.289v8.183c0,2.409,1.307,3.689,3.5,3.689a5.066,5.066,0,0,0,2.917-.878Zm8.8-11.5c-1.66,0-2.892,1.029-3.6,3.062l-0.2-2.761h-1.811v13.2H313.1v-7.655c0.579-2.585,1.56-3.79,3.245-3.79a4.054,4.054,0,0,1,1.157.15l0.4-2.058A5.511,5.511,0,0,0,316.594,230.429Zm4.98-5.924a1.457,1.457,0,1,0,1.509,1.456A1.419,1.419,0,0,0,321.574,224.505Zm1.081,6.225h-2.113v13.2h2.113v-13.2Zm13.48,10.165v-6.124c0-2.736-1.433-4.342-4.577-4.342a12.384,12.384,0,0,0-4.477.9l0.528,1.556a11.135,11.135,0,0,1,3.572-.727c1.911,0,2.842.752,2.842,2.71v1.054H331.86c-3.622,0-5.735,1.506-5.735,4.317a3.822,3.822,0,0,0,4.175,3.991,4.462,4.462,0,0,0,3.974-2.033,2.6,2.6,0,0,0,2.465,2.033l0.5-1.481C336.538,242.5,336.135,242.125,336.135,240.9Zm-5.357,1.732a2.2,2.2,0,0,1-2.414-2.485c0-1.882,1.307-2.811,3.772-2.811h1.887v3.162A3.56,3.56,0,0,1,330.778,242.627Zm12.55,1.606a3.876,3.876,0,0,0,1.76-.427l-0.553-1.48a2.4,2.4,0,0,1-.88.15c-0.629,0-.881-0.376-0.881-1.1V225.158l-2.112.251v16.013A2.513,2.513,0,0,0,343.328,244.233Zm14.638-7.329c0-3.991-1.836-6.475-5.383-6.475-3.37,0-5.432,2.886-5.432,7.027,0,4.192,2.137,6.777,5.784,6.777a7.03,7.03,0,0,0,4.553-1.656l-0.931-1.255a5.634,5.634,0,0,1-3.471,1.179c-1.987,0-3.5-1.255-3.7-4.442h8.526C357.94,237.783,357.966,237.356,357.966,236.9Zm-2.088-.4h-6.489c0.176-3.088,1.409-4.393,3.245-4.393,2.188,0,3.244,1.531,3.244,4.192v0.2Zm9.355-6.074c-2.666,0-4.678,1.506-4.678,3.589,0,1.857,1.132,3.037,4,3.79,2.591,0.7,3.27,1.2,3.27,2.585,0,1.33-1.157,2.133-2.943,2.133a6,6,0,0,1-3.747-1.305L360,242.5a7.15,7.15,0,0,0,4.929,1.732c2.666,0,5.106-1.28,5.106-3.966,0-2.309-1.534-3.363-4.351-4.091-2.188-.577-2.918-1.079-2.918-2.208s0.981-1.858,2.541-1.858a5.858,5.858,0,0,1,3.445,1.155l0.931-1.33A6.956,6.956,0,0,0,365.233,230.429ZM9.651,262.738a9.076,9.076,0,0,0-7.535,3.776l2.847,2.273c1.373-1.638,2.545-2.373,4.253-2.373a2.89,2.89,0,0,1,3.081,3.108c0,3.008-1.842,5.08-9.511,12.733V285.7H17.153l0.536-3.676H8.211c7-6.55,8.975-9.257,8.975-12.9C17.186,265.612,14.474,262.738,9.651,262.738ZM32.42,273.6c2.545-1.336,3.684-3.074,3.684-5.079,0-3.743-3.382-5.782-7.6-5.782-4.253,0-7.6,2.306-7.6,5.982a5.8,5.8,0,0,0,3.349,5.314C21.6,275.2,20,276.975,20,279.715c0,3.609,3.148,6.517,8.406,6.517,5.358,0,8.573-2.941,8.573-6.617C36.974,276.975,35.5,275.036,32.42,273.6Zm-3.885-7.619a2.632,2.632,0,0,1,2.947,2.774,3.939,3.939,0,0,1-2.21,3.642l-0.67-.234c-2.009-.8-3.081-1.637-3.081-3.375C25.521,266.949,26.693,265.98,28.535,265.98Zm0,16.776c-2.311,0-3.751-1.236-3.751-3.242a4.424,4.424,0,0,1,2.512-4.177l1.072,0.368c2.78,1,3.818,1.905,3.818,3.876C32.185,281.419,30.913,282.756,28.535,282.756ZM59.38,271.089a11.175,11.175,0,0,1-5.986,1.105c-2.918,0-5.03,1.882-5.03,4.568a3.814,3.814,0,0,0,2.213,3.689,2.8,2.8,0,0,0-1.434,2.309c0,1.306,1.056,2.46,3.37,2.46H54.6c1.71,0,2.741.653,2.741,1.958,0,1.38-1.031,2.158-3.949,2.158-2.968,0-3.722-.7-3.722-2.284H47.76c0,2.661,1.383,3.941,5.634,3.941,4.049,0,6.087-1.431,6.087-3.966,0-2.058-1.761-3.589-4.452-3.589H52.916c-1.408,0-1.811-.5-1.811-1.129A1.572,1.572,0,0,1,51.835,281a5.257,5.257,0,0,0,1.685.251c3.119,0,4.98-1.857,4.98-4.442a3.468,3.468,0,0,0-2.314-3.388,14.062,14.062,0,0,0,3.823-.4Zm-5.986,2.636c1.962,0,2.943,1.079,2.943,3.037s-1.006,3.087-2.892,3.087a2.781,2.781,0,0,1-2.918-3.087A2.739,2.739,0,0,1,53.394,273.725Zm18.988,4.944c0-3.99-1.836-6.475-5.382-6.475-3.37,0-5.433,2.886-5.433,7.027,0,4.192,2.138,6.777,5.785,6.777a7.028,7.028,0,0,0,4.552-1.656l-0.931-1.255a5.634,5.634,0,0,1-3.471,1.179c-1.987,0-3.5-1.255-3.7-4.442h8.526C72.357,279.548,72.382,279.121,72.382,278.669Zm-2.088-.4H63.806c0.176-3.087,1.408-4.393,3.244-4.393,2.188,0,3.245,1.531,3.245,4.192v0.2Zm11.946-6.074a5,5,0,0,0-4.15,2.309L77.915,272.5H76.1v13.2h2.113v-9.412c0.931-1.456,1.987-2.435,3.546-2.435,1.358,0,2.163.653,2.163,2.686V285.7h2.113v-9.462C86.038,273.725,84.68,272.194,82.241,272.194Zm18.334,6.475c0-3.99-1.836-6.475-5.383-6.475-3.37,0-5.433,2.886-5.433,7.027,0,4.192,2.138,6.777,5.785,6.777a7.028,7.028,0,0,0,4.552-1.656l-0.931-1.255a5.634,5.634,0,0,1-3.471,1.179c-1.987,0-3.5-1.255-3.7-4.442h8.527C100.55,279.548,100.575,279.121,100.575,278.669Zm-2.088-.4H92c0.176-3.087,1.409-4.393,3.245-4.393,2.188,0,3.245,1.531,3.245,4.192v0.2Zm11.418-6.074c-1.66,0-2.892,1.029-3.6,3.062l-0.2-2.761H104.3v13.2h2.113v-7.655c0.578-2.585,1.559-3.79,3.244-3.79a4.017,4.017,0,0,1,1.157.151l0.4-2.059A5.517,5.517,0,0,0,109.905,272.194Zm12.147,10.466v-6.124c0-2.736-1.433-4.342-4.577-4.342a12.389,12.389,0,0,0-4.477.9l0.528,1.556a11.162,11.162,0,0,1,3.572-.727c1.911,0,2.842.753,2.842,2.71v1.054h-2.163c-3.622,0-5.735,1.506-5.735,4.317A3.822,3.822,0,0,0,116.217,286a4.462,4.462,0,0,0,3.974-2.033A2.6,2.6,0,0,0,122.656,286l0.5-1.481C122.455,284.266,122.052,283.89,122.052,282.66Zm-5.357,1.732a2.2,2.2,0,0,1-2.414-2.485c0-1.882,1.308-2.811,3.772-2.811h1.887v3.162A3.56,3.56,0,0,1,116.7,284.392Zm18.032-17.469v6.927a4.8,4.8,0,0,0-3.6-1.656c-3.245,0-5.181,2.911-5.181,6.952,0,4.141,1.786,6.852,4.98,6.852a4.459,4.459,0,0,0,3.848-2.158L135,285.7h1.836V267.174Zm-3.37,17.394c-1.987,0-3.144-1.682-3.144-5.2s1.308-5.246,3.371-5.246a3.784,3.784,0,0,1,3.143,1.782v6.576A3.82,3.82,0,0,1,131.357,284.317Zm15.19-12.123c-3.7,0-5.835,2.786-5.835,6.927,0,4.192,2.113,6.877,5.81,6.877s5.835-2.786,5.835-6.927C152.357,274.854,150.27,272.194,146.547,272.194Zm0,1.707c2.289,0,3.547,1.681,3.547,5.17,0,3.539-1.283,5.22-3.572,5.22s-3.546-1.681-3.546-5.17C142.976,275.582,144.284,273.9,146.547,273.9Zm15.291-1.707c-1.66,0-2.892,1.029-3.6,3.062l-0.2-2.761H156.23v13.2h2.112v-7.655c0.579-2.585,1.56-3.79,3.245-3.79a4.022,4.022,0,0,1,1.157.151l0.4-2.059A5.511,5.511,0,0,0,161.838,272.194Zm12.148,10.466v-6.124c0-2.736-1.434-4.342-4.578-4.342a12.393,12.393,0,0,0-4.477.9l0.529,1.556a11.157,11.157,0,0,1,3.571-.727c1.912,0,2.842.753,2.842,2.71v1.054H169.71c-3.622,0-5.734,1.506-5.734,4.317A3.821,3.821,0,0,0,168.151,286a4.463,4.463,0,0,0,3.974-2.033A2.6,2.6,0,0,0,174.589,286l0.5-1.481C174.388,284.266,173.986,283.89,173.986,282.66Zm-5.357,1.732a2.2,2.2,0,0,1-2.415-2.485c0-1.882,1.308-2.811,3.773-2.811h1.886v3.162A3.56,3.56,0,0,1,168.629,284.392Zm13.706-12.2c-2.666,0-4.678,1.506-4.678,3.589,0,1.857,1.132,3.037,4,3.79,2.59,0.7,3.269,1.205,3.269,2.585,0,1.33-1.156,2.133-2.942,2.133a6.006,6.006,0,0,1-3.748-1.305l-1.131,1.28A7.148,7.148,0,0,0,182.033,286c2.666,0,5.106-1.28,5.106-3.965,0-2.31-1.534-3.364-4.351-4.092-2.189-.577-2.918-1.079-2.918-2.208s0.981-1.858,2.54-1.858a5.859,5.859,0,0,1,3.446,1.155l0.931-1.33A6.956,6.956,0,0,0,182.335,272.194Zm24.8,6.475c0-3.99-1.836-6.475-5.382-6.475-3.37,0-5.432,2.886-5.432,7.027,0,4.192,2.137,6.777,5.784,6.777a7.03,7.03,0,0,0,4.553-1.656l-0.931-1.255a5.634,5.634,0,0,1-3.471,1.179c-1.987,0-3.5-1.255-3.7-4.442h8.526C207.107,279.548,207.132,279.121,207.132,278.669Zm-2.087-.4h-6.489c0.176-3.087,1.408-4.393,3.244-4.393,2.189,0,3.245,1.531,3.245,4.192v0.2Zm8.324,7.73a3.88,3.88,0,0,0,1.761-.427l-0.554-1.48a2.4,2.4,0,0,1-.88.15c-0.629,0-.88-0.376-0.88-1.1V266.923l-2.113.251v16.013A2.513,2.513,0,0,0,213.369,286Zm12.248-18.5-0.955-1.807-4.93,2.811,0.654,1.13Zm2.39,11.169c0-3.99-1.836-6.475-5.383-6.475-3.37,0-5.432,2.886-5.432,7.027,0,4.192,2.138,6.777,5.785,6.777a7.03,7.03,0,0,0,4.552-1.656l-0.931-1.255a5.634,5.634,0,0,1-3.471,1.179c-2.012,0-3.47-1.255-3.7-4.442h8.526C227.982,279.548,228.007,279.121,228.007,278.669Zm-2.088-.4H219.43c0.176-3.087,1.409-4.393,3.245-4.393,2.188,0,3.244,1.531,3.244,4.192v0.2Zm10.638-6.074c-3.546,0-5.734,2.786-5.734,7,0,4.267,2.213,6.8,5.734,6.8a6.015,6.015,0,0,0,3.974-1.456l-0.981-1.38a4.754,4.754,0,0,1-2.917,1.029c-2.163,0-3.547-1.506-3.547-5.02,0-3.539,1.384-5.22,3.547-5.22a4.507,4.507,0,0,1,2.867.979l1.031-1.331A5.808,5.808,0,0,0,236.557,272.194Zm12.927,11.5a3.52,3.52,0,0,1-1.836.552c-1.182,0-1.66-.652-1.66-2.033v-8.082h2.968l0.226-1.631h-3.194v-3.263l-2.113.226V272.5h-2.288v1.631h2.288v8.183c0,2.409,1.308,3.689,3.5,3.689a5.067,5.067,0,0,0,2.918-.878Zm8.8-11.5c-1.66,0-2.892,1.029-3.6,3.062l-0.2-2.761h-1.811v13.2h2.112v-7.655c0.579-2.585,1.56-3.79,3.245-3.79a4.017,4.017,0,0,1,1.157.151l0.4-2.059A5.511,5.511,0,0,0,258.286,272.194Zm4.98-5.924a1.457,1.457,0,1,0,1.509,1.456A1.419,1.419,0,0,0,263.266,266.27Zm1.081,6.225h-2.113v13.2h2.113V272.5Zm9.607-.3c-3.546,0-5.734,2.786-5.734,7,0,4.267,2.213,6.8,5.734,6.8a6.015,6.015,0,0,0,3.974-1.456l-0.981-1.38a4.755,4.755,0,0,1-2.918,1.029c-2.163,0-3.546-1.506-3.546-5.02,0-3.539,1.383-5.22,3.546-5.22a4.51,4.51,0,0,1,2.868.979l1.031-1.331A5.808,5.808,0,0,0,273.954,272.194Zm15.719,10.466v-6.124c0-2.736-1.434-4.342-4.578-4.342a12.383,12.383,0,0,0-4.476.9l0.528,1.556a11.157,11.157,0,0,1,3.571-.727c1.912,0,2.842.753,2.842,2.71v1.054H285.4c-3.621,0-5.734,1.506-5.734,4.317A3.821,3.821,0,0,0,283.838,286a4.463,4.463,0,0,0,3.974-2.033A2.6,2.6,0,0,0,290.277,286l0.5-1.481C290.075,284.266,289.673,283.89,289.673,282.66Zm-5.357,1.732a2.2,2.2,0,0,1-2.415-2.485c0-1.882,1.308-2.811,3.773-2.811h1.886v3.162A3.559,3.559,0,0,1,284.316,284.392Zm13.706-12.2c-2.666,0-4.678,1.506-4.678,3.589,0,1.857,1.132,3.037,4,3.79,2.591,0.7,3.27,1.205,3.27,2.585,0,1.33-1.157,2.133-2.943,2.133a6.006,6.006,0,0,1-3.748-1.305l-1.131,1.28A7.148,7.148,0,0,0,297.72,286c2.666,0,5.106-1.28,5.106-3.965,0-2.31-1.534-3.364-4.351-4.092-2.188-.577-2.918-1.079-2.918-2.208s0.981-1.858,2.541-1.858a5.858,5.858,0,0,1,3.445,1.155l0.931-1.33A6.956,6.956,0,0,0,298.022,272.194ZM9.651,304.5a9.075,9.075,0,0,0-7.535,3.777l2.847,2.272c1.373-1.637,2.545-2.373,4.253-2.373a2.89,2.89,0,0,1,3.081,3.108c0,3.008-1.842,5.08-9.511,12.733v3.442H17.153l0.536-3.676H8.211c7-6.55,8.975-9.257,8.975-12.9C17.186,307.377,14.474,304.5,9.651,304.5Zm23.673,0.435H19.092v3.609H28.4l-7.7,17.979,4.32,1.437,8.305-19.75v-3.275Zm15.468,0H34.56v3.609h9.31l-7.7,17.979,4.32,1.437,8.305-19.75v-3.275Zm21.971,15.5c0-3.99-1.836-6.475-5.382-6.475-3.37,0-5.433,2.886-5.433,7.028,0,4.191,2.138,6.776,5.785,6.776a7.028,7.028,0,0,0,4.552-1.656l-0.931-1.255a5.634,5.634,0,0,1-3.471,1.179c-1.987,0-3.5-1.255-3.7-4.442h8.526C70.738,321.313,70.764,320.886,70.764,320.434Zm-2.087-.4H62.187c0.176-3.087,1.408-4.392,3.245-4.392,2.188,0,3.245,1.531,3.245,4.191v0.2Zm9.355-6.074c-2.666,0-4.678,1.506-4.678,3.589,0,1.857,1.132,3.037,4,3.79,2.591,0.7,3.27,1.2,3.27,2.585,0,1.33-1.157,2.134-2.943,2.134a6,6,0,0,1-3.747-1.306l-1.132,1.28a7.151,7.151,0,0,0,4.93,1.732c2.666,0,5.106-1.28,5.106-3.965,0-2.309-1.534-3.364-4.351-4.091-2.188-.578-2.917-1.08-2.917-2.209s0.981-1.857,2.54-1.857a5.858,5.858,0,0,1,3.446,1.154l0.931-1.33A6.954,6.954,0,0,0,78.031,313.959Zm13.933,11.5a3.521,3.521,0,0,1-1.836.552c-1.182,0-1.66-.652-1.66-2.033v-8.081h2.968l0.226-1.632H88.468V311l-2.113.226v3.037H84.067v1.632h2.289v8.182c0,2.409,1.308,3.689,3.5,3.689a5.066,5.066,0,0,0,2.917-.878Zm11.9-1.029V318.3c0-2.736-1.434-4.342-4.577-4.342a12.387,12.387,0,0,0-4.477.9l0.528,1.557a11.137,11.137,0,0,1,3.571-.728c1.912,0,2.842.753,2.842,2.71v1.055H99.584c-3.622,0-5.734,1.5-5.734,4.317a3.821,3.821,0,0,0,4.175,3.99A4.463,4.463,0,0,0,102,325.73a2.6,2.6,0,0,0,2.465,2.033l0.5-1.481C104.262,326.031,103.86,325.655,103.86,324.425ZM98.5,326.157a2.2,2.2,0,0,1-2.415-2.485c0-1.882,1.308-2.811,3.773-2.811h1.886v3.163A3.559,3.559,0,0,1,98.5,326.157Zm14.989-12.2c-3.546,0-5.735,2.786-5.735,7,0,4.267,2.214,6.8,5.735,6.8a6.019,6.019,0,0,0,3.974-1.455l-0.981-1.381a4.755,4.755,0,0,1-2.918,1.029c-2.163,0-3.546-1.506-3.546-5.02,0-3.539,1.383-5.22,3.546-5.22a4.51,4.51,0,0,1,2.868.979l1.031-1.331A5.81,5.81,0,0,0,113.492,313.959Zm8.173-5.923a1.456,1.456,0,1,0,1.509,1.455A1.419,1.419,0,0,0,121.665,308.036Zm1.082,6.224h-2.113v13.2h2.113v-13.2Zm9.707-.3c-3.7,0-5.835,2.786-5.835,6.927,0,4.192,2.113,6.877,5.81,6.877s5.835-2.786,5.835-6.927C138.264,316.619,136.177,313.959,132.454,313.959Zm0,1.707c2.289,0,3.547,1.681,3.547,5.17,0,3.539-1.283,5.221-3.572,5.221s-3.546-1.682-3.546-5.171C128.883,317.347,130.191,315.666,132.454,315.666Zm15.819-1.707a5,5,0,0,0-4.149,2.309l-0.177-2.008h-1.81v13.2h2.112V318.05c0.931-1.456,1.987-2.435,3.547-2.435,1.358,0,2.163.653,2.163,2.686v9.161h2.112V318C152.071,315.49,150.713,313.959,148.273,313.959Zm18.335,6.475c0-3.99-1.836-6.475-5.383-6.475-3.37,0-5.432,2.886-5.432,7.028,0,4.191,2.138,6.776,5.784,6.776a7.03,7.03,0,0,0,4.553-1.656l-0.931-1.255a5.634,5.634,0,0,1-3.471,1.179c-1.987,0-3.5-1.255-3.7-4.442h8.526C166.582,321.313,166.608,320.886,166.608,320.434Zm-2.088-.4h-6.489c0.176-3.087,1.409-4.392,3.245-4.392,2.188,0,3.244,1.531,3.244,4.191v0.2Zm9.355-6.074c-2.666,0-4.678,1.506-4.678,3.589,0,1.857,1.132,3.037,4,3.79,2.591,0.7,3.27,1.2,3.27,2.585,0,1.33-1.157,2.134-2.943,2.134a6,6,0,0,1-3.747-1.306l-1.132,1.28a7.151,7.151,0,0,0,4.93,1.732c2.666,0,5.1-1.28,5.1-3.965,0-2.309-1.534-3.364-4.351-4.091-2.188-.578-2.917-1.08-2.917-2.209s0.98-1.857,2.54-1.857A5.855,5.855,0,0,1,177.4,316.8l0.931-1.33A6.954,6.954,0,0,0,173.875,313.959Zm22.761-5.271v6.927a4.8,4.8,0,0,0-3.6-1.656c-3.244,0-5.181,2.911-5.181,6.952,0,4.142,1.786,6.852,4.98,6.852a4.459,4.459,0,0,0,3.848-2.158l0.226,1.857h1.836V308.939Zm-3.371,17.394c-1.986,0-3.143-1.682-3.143-5.2s1.307-5.245,3.37-5.245a3.785,3.785,0,0,1,3.144,1.782V324A3.822,3.822,0,0,1,193.265,326.082Zm20.171-5.648c0-3.99-1.836-6.475-5.383-6.475-3.37,0-5.432,2.886-5.432,7.028,0,4.191,2.137,6.776,5.784,6.776a7.03,7.03,0,0,0,4.553-1.656l-0.931-1.255a5.634,5.634,0,0,1-3.471,1.179c-1.987,0-3.5-1.255-3.7-4.442h8.526C213.41,321.313,213.436,320.886,213.436,320.434Zm-2.088-.4h-6.489c0.176-3.087,1.409-4.392,3.245-4.392,2.188,0,3.244,1.531,3.244,4.191v0.2Zm16.1-6.074c-2.666,0-4.678,1.506-4.678,3.589,0,1.857,1.132,3.037,4,3.79,2.591,0.7,3.27,1.2,3.27,2.585,0,1.33-1.157,2.134-2.943,2.134a6,6,0,0,1-3.747-1.306l-1.132,1.28a7.15,7.15,0,0,0,4.929,1.732c2.666,0,5.106-1.28,5.106-3.965,0-2.309-1.534-3.364-4.351-4.091-2.188-.578-2.918-1.08-2.918-2.209s0.981-1.857,2.541-1.857a5.857,5.857,0,0,1,3.445,1.154l0.931-1.33A6.956,6.956,0,0,0,227.443,313.959Zm18.058,6.475c0-3.99-1.836-6.475-5.382-6.475-3.371,0-5.433,2.886-5.433,7.028,0,4.191,2.138,6.776,5.785,6.776a7.028,7.028,0,0,0,4.552-1.656l-0.931-1.255a5.632,5.632,0,0,1-3.47,1.179c-1.987,0-3.5-1.255-3.7-4.442h8.527C245.476,321.313,245.5,320.886,245.5,320.434Zm-2.088-.4h-6.489c0.176-3.087,1.409-4.392,3.245-4.392,2.188,0,3.244,1.531,3.244,4.191v0.2Zm11.418-6.074c-1.66,0-2.892,1.029-3.6,3.062l-0.2-2.761h-1.811v13.2h2.113v-7.655c0.578-2.585,1.559-3.79,3.244-3.79a4.017,4.017,0,0,1,1.157.151l0.4-2.058A5.466,5.466,0,0,0,254.831,313.959Zm13.53,0.3h-2.238l-3.546,11.32-3.6-11.32h-2.314l4.6,13.2h2.565Zm3.7-6.224a1.456,1.456,0,1,0,1.509,1.455A1.419,1.419,0,0,0,272.058,308.036Zm1.081,6.224h-2.112v13.2h2.112v-13.2Zm9.607-.3c-3.546,0-5.734,2.786-5.734,7,0,4.267,2.213,6.8,5.734,6.8a6.019,6.019,0,0,0,3.974-1.455l-0.981-1.381a4.75,4.75,0,0,1-2.917,1.029c-2.163,0-3.546-1.506-3.546-5.02,0-3.539,1.383-5.22,3.546-5.22a4.505,4.505,0,0,1,2.867.979l1.031-1.331A5.807,5.807,0,0,0,282.746,313.959Zm8.174-5.923a1.456,1.456,0,1,0,1.509,1.455A1.419,1.419,0,0,0,290.92,308.036ZM292,314.26h-2.112v13.2H292v-13.2Zm9.708-.3c-3.7,0-5.835,2.786-5.835,6.927,0,4.192,2.113,6.877,5.81,6.877s5.835-2.786,5.835-6.927C307.519,316.619,305.431,313.959,301.709,313.959Zm0,1.707c2.289,0,3.546,1.681,3.546,5.17,0,3.539-1.283,5.221-3.571,5.221s-3.547-1.682-3.547-5.171C298.137,317.347,299.445,315.666,301.709,315.666Zm19.767-9.362c-2.465,3.463-4.653,6.45-4.653,12.373s2.188,8.911,4.653,12.374l1.333-.9c-2.264-3.339-3.773-6.074-3.773-11.471,0-5.421,1.509-8.132,3.773-11.47Zm11.292,3.589c-3.923,0-7.419,3.062-7.419,8.91,0,5.973,2.791,8.96,7.218,8.96a10.771,10.771,0,0,0,5.533-1.506V317.95h-5.558l0.251,1.782h3.144v5.421a6.963,6.963,0,0,1-3.37.8c-3.119,0-4.9-2.108-4.9-7.153,0-5.17,2.565-7.1,5.1-7.1a5.51,5.51,0,0,1,3.823,1.406l1.283-1.356A7.283,7.283,0,0,0,332.768,309.893Zm21.453,0.3h-2.037v9.663c0,2.134.226,4.769,0.276,5.246l-7.344-14.909h-2.842v17.268h2.037v-8.333c0-3.187-.176-5.17-0.3-6.551l7.293,14.884h2.918V310.194Zm16.3,0h-2.213l-4.477,14.934-4.452-14.934h-2.364l5.608,17.268h2.365Zm2.64-3.89-1.333.9c2.263,3.338,3.772,6.049,3.772,11.47,0,5.4-1.509,8.132-3.772,11.471l1.333,0.9c2.464-3.463,4.653-6.45,4.653-12.374S375.622,309.767,373.158,306.3Z"/>
</svg>
