<svg xmlns="http://www.w3.org/2000/svg" width="856" height="827" viewBox="0 0 856 827">
  <defs>
    <style>
      .cls-1 {
        fill: #fff;
        fill-rule: evenodd;
      }
    </style>
  </defs>
  <path id="_93_365_nuevas_conexiones" data-name="93 365 nuevas conexiones" class="cls-1" d="M36.644,4.742c-17.786,0-31.882,11.7-31.882,30.236,0,18.01,11.33,29.053,25.163,29.053a22.562,22.562,0,0,0,18.708-9.071C45.735,71.786,33.746,79.8,11.349,85.326L15.3,98.6c36.757-8.15,53.357-23.268,53.357-59.551C68.658,18.808,57.855,4.742,36.644,4.742ZM35.327,50.621c-6.587,0-11.857-4.207-11.857-16.169,0-10.648,5.138-16.169,13.174-16.169,9.354,0,13.175,6.31,12.911,23.926C45.867,47.6,40.992,50.621,35.327,50.621Zm66.4-45.879A40.265,40.265,0,0,0,73.005,16.31l9.354,10.122c5.4-5.127,10.8-7.625,17.522-7.625,7.642,0,12.516,4.075,12.516,10.911,0,8.019-5.533,12.489-13.57,12.489H93.953l-2.24,13.146h7.246c9.749,0,15.283,3.549,15.283,13.409,0,8.808-5.929,13.935-14.888,13.935-6.851,0-12.384-2.5-18.312-8.413L70.9,84.012c6.851,8.413,16.732,13.146,29.511,13.146,21.211,0,33.068-12.226,33.068-27.212,0-13.935-9.222-20.639-20.288-21.822,10.671-2.892,17.39-9.991,17.39-20.9C130.578,14.864,120.565,4.742,101.726,4.742Zm99.992,0A40.263,40.263,0,0,0,173,16.31l9.354,10.122c5.4-5.127,10.8-7.625,17.522-7.625,7.641,0,12.515,4.075,12.515,10.911,0,8.019-5.533,12.489-13.569,12.489h-4.875l-2.24,13.146h7.246c9.749,0,15.283,3.549,15.283,13.409,0,8.808-5.929,13.935-14.887,13.935-6.851,0-12.384-2.5-18.313-8.413L170.89,84.012c6.85,8.413,16.731,13.146,29.511,13.146,21.21,0,33.068-12.226,33.068-27.212,0-13.935-9.223-20.639-20.289-21.822,10.671-2.892,17.39-9.991,17.39-20.9C230.57,14.864,220.558,4.742,201.718,4.742Zm81.154,31.024c-7.114,0-13.833,2.761-19.366,9.071,0.922-16.827,7.773-26.555,18.444-26.555a23.936,23.936,0,0,1,12.516,3.549l6.851-11.437a34.792,34.792,0,0,0-19.762-5.653c-23.187,0-37.416,19.719-37.416,49.56,0,25.5,9.618,42.856,32.805,42.856,18.839,0,31.223-13.935,31.223-32.339C308.167,46.02,297.1,35.766,282.872,35.766Zm-5.8,47.72c-9.486,0-13.307-7.625-13.57-26.423,3.952-5,8.959-8.15,14.492-8.15,7.114,0,11.33,4.075,11.33,16.17C289.328,76.255,285.376,83.486,277.076,83.486ZM372.2,6.451H319.235V53.513h13.043c4.084-2.235,7.246-3.155,11.066-3.155,7.773,0,13.438,4.075,13.438,15.644,0,10.911-5.8,16.827-15.282,16.827-7.378,0-12.911-3.024-17.654-8.413l-10.539,9.859c6.85,7.625,15.809,12.883,28.72,12.883,20.552,0,33.99-12.752,33.99-31.156,0-18.141-10.8-28.658-25.427-28.658a31.61,31.61,0,0,0-13.438,3.024V19.991h32.805ZM460.99,23.277c-8.959,0-15.678,3.944-21.343,10.911L438.2,25.381h-16.2V95.054H440.7V46.94c3.82-6.178,8.036-9.728,13.438-9.728,4.743,0,7.641,2.235,7.641,10.254V95.054h18.708V44.311C480.488,31.165,473.242,23.277,460.99,23.277Zm94.46,2.1H536.742V74.152c-3.294,5.653-7.641,9.071-12.779,9.071s-7.642-2.5-7.642-10.122V25.381H497.614V75.467c0,13.409,6.587,21.691,19.5,21.691,9.354,0,16.205-3.681,21.211-11.437l0.922,9.334H555.45V25.381ZM632.914,58.64c0-22.217-11.725-35.362-31.487-35.362-20.42,0-31.751,16.3-31.751,37.334,0,21.822,11.726,36.546,34.122,36.546a41.227,41.227,0,0,0,26.481-9.465l-7.773-10.517c-6.06,4.207-11.066,6.047-17,6.047-8.959,0-15.282-3.944-16.6-17.353h43.608C632.65,63.9,632.914,61.006,632.914,58.64Zm-18.576-4.47H588.911c0.922-13.146,5.533-18.141,12.911-18.141,8.959,0,12.516,6.836,12.516,17.353V54.17Zm89.192-28.79H684.3L670.2,80.462,656.365,25.381H636.076l22.792,69.673h22.265ZM763.211,75.73V47.6c0-15.775-8.3-24.32-27.667-24.32A72.711,72.711,0,0,0,709.722,28.4l4.216,12.489c7.114-2.366,13.833-3.681,18.445-3.681,8.826,0,12.515,2.761,12.515,11.437v3.418h-8.036c-20.684,0-32.146,8.282-32.146,23.531,0,12.62,8.695,21.559,22.66,21.559,8.3,0,15.941-2.892,20.948-10.517,2.9,6.967,8.168,9.6,16.073,10.254l3.952-12.357C764.923,83.354,763.211,81.382,763.211,75.73Zm-30.7,8.019c-5.8,0-8.958-3.549-8.958-9.728,0-7.625,5.006-11.306,15.15-11.306H744.9V75.993C742,80.988,737.916,83.749,732.514,83.749Zm71.274-60.471c-16.863,0-27.666,8.939-27.666,20.771,0,10.517,6.587,17.484,20.684,21.428,12.911,3.549,15.414,5.258,15.414,10.517,0,4.733-4.479,7.625-11.462,7.625a30.777,30.777,0,0,1-18.708-6.836l-9.222,10.254c6.588,6.047,16.337,10.122,28.457,10.122,16.6,0,30.17-8.15,30.17-22.611,0-12.357-7.905-18.141-21.87-21.954-12.252-3.549-14.624-5.39-14.624-9.465,0-3.812,3.426-6.31,9.618-6.31,6.06,0,11.725,1.972,17.39,5.521l7.114-10.648C822.5,26.432,813.933,23.277,803.788,23.277ZM39.016,151.48c-20.42,0-33.331,15.381-33.331,37.466,0,22.217,12.779,36.414,33.595,36.414A35.065,35.065,0,0,0,62.2,217.21l-8.168-11.7c-5.138,3.286-8.7,4.864-13.833,4.864-8.827,0-14.755-5.39-14.755-21.559s5.533-22.874,14.887-22.874c5.138,0,9.222,1.577,13.7,5L62.2,159.894C55.616,154.241,48.37,151.48,39.016,151.48Zm60.6,0c-21.079,0-33.595,14.724-33.595,36.94,0,23.137,12.648,36.94,33.463,36.94,20.948,0,33.463-14.855,33.463-36.94C132.951,165.283,120.435,151.48,99.619,151.48Zm0,13.935c9.091,0,13.833,6.967,13.833,23,0,15.907-4.742,23.006-13.965,23.006s-13.965-6.968-13.965-23.006C85.523,172.514,90.265,165.415,99.619,165.415Zm86.556-13.935c-8.958,0-15.677,3.944-21.342,10.911l-1.45-8.807h-16.2v69.673h18.708V175.143c3.82-6.179,8.036-9.728,13.437-9.728,4.743,0,7.642,2.235,7.642,10.254v47.588h18.707V172.514C205.673,159.368,198.427,151.48,186.175,151.48Zm96.305,35.363c0-22.217-11.726-35.363-31.487-35.363-20.421,0-31.751,16.3-31.751,37.335,0,21.822,11.725,36.545,34.122,36.545a41.223,41.223,0,0,0,26.481-9.465l-7.773-10.517c-6.06,4.207-11.067,6.048-17,6.048-8.959,0-15.283-3.944-16.6-17.353h43.607C282.216,192.1,282.48,189.209,282.48,186.843Zm-18.576-4.47H238.477c0.922-13.146,5.533-18.141,12.911-18.141,8.959,0,12.516,6.836,12.516,17.352v0.789Zm65.872,3.55,19.63-32.339H329.381L318.709,176.72l-10.934-23.136H286.7l20.553,33-22.924,36.677h20.552l13.043-26.949,13.306,26.949H352.7ZM370.22,117.7c-6.719,0-11.33,4.733-11.33,10.911s4.611,10.911,11.33,10.911,11.462-4.732,11.462-10.911S376.939,117.7,370.22,117.7Zm9.486,35.889H361v69.673h18.708V153.584Zm47.823-2.1c-21.08,0-33.595,14.724-33.595,36.94,0,23.137,12.647,36.94,33.463,36.94,20.947,0,33.463-14.855,33.463-36.94C460.86,165.283,448.344,151.48,427.529,151.48Zm0,13.935c9.09,0,13.833,6.967,13.833,23,0,15.907-4.743,23.006-13.965,23.006s-13.965-6.968-13.965-23.006C413.432,172.514,418.175,165.415,427.529,165.415Zm86.556-13.935c-8.959,0-15.678,3.944-21.343,10.911l-1.449-8.807h-16.2v69.673H493.8V175.143c3.82-6.179,8.036-9.728,13.438-9.728,4.743,0,7.641,2.235,7.641,10.254v47.588h18.708V172.514C533.583,159.368,526.337,151.48,514.085,151.48Zm96.3,35.363c0-22.217-11.725-35.363-31.487-35.363-20.42,0-31.75,16.3-31.75,37.335,0,21.822,11.725,36.545,34.121,36.545a41.223,41.223,0,0,0,26.481-9.465l-7.773-10.517c-6.06,4.207-11.066,6.048-17,6.048-8.958,0-15.282-3.944-16.6-17.353h43.608C610.126,192.1,610.389,189.209,610.389,186.843Zm-18.576-4.47H566.386c0.923-13.146,5.534-18.141,12.911-18.141,8.959,0,12.516,6.836,12.516,17.352v0.789Zm55.332-30.893c-16.863,0-27.666,8.939-27.666,20.771,0,10.517,6.587,17.484,20.683,21.428,12.911,3.549,15.415,5.258,15.415,10.516,0,4.733-4.48,7.625-11.462,7.625a30.776,30.776,0,0,1-18.708-6.836l-9.222,10.254c6.587,6.047,16.336,10.122,28.457,10.122,16.6,0,30.169-8.15,30.169-22.611,0-12.357-7.9-18.141-21.869-21.953-12.253-3.55-14.624-5.39-14.624-9.465,0-3.813,3.425-6.31,9.617-6.31,6.061,0,11.726,1.971,17.391,5.521l7.114-10.648C665.853,154.635,657.289,151.48,647.145,151.48Z"/>
  <path id="_92_022_nuevos_usuarios_residenciales_1324_nuevos_usuarios_c" data-name="92 022 nuevos usuarios residenciales    1324  nuevos usuarios c" class="cls-1" d="M27.628,326.562c-11.566,0-20.733,7.608-20.733,19.662,0,11.712,7.368,18.892,16.363,18.892a14.671,14.671,0,0,0,12.165-5.9c-1.885,10.942-9.681,16.157-24.245,19.747l2.57,8.634c23.9-5.3,34.7-15.131,34.7-38.725C48.446,335.709,41.421,326.562,27.628,326.562ZM26.771,356.4c-4.284,0-7.71-2.736-7.71-10.515,0-6.924,3.341-10.515,8.567-10.515,6.083,0,8.567,4.1,8.4,15.559C33.625,354.431,30.455,356.4,26.771,356.4ZM69.94,326.562a23.218,23.218,0,0,0-19.276,9.66l7.282,5.813c3.512-4.189,6.511-6.069,10.88-6.069,4.712,0,7.882,2.992,7.882,7.95,0,7.694-4.712,12.994-24.331,32.57v8.805H89.13l1.371-9.4H66.256c17.905-16.756,22.96-23.68,22.96-33C89.216,333.914,82.277,326.562,69.94,326.562Zm69.293,0c-13.879,0-21.161,10.686-21.161,30.006,0,19.234,7.282,30.091,21.161,30.091,13.965,0,21.247-10.857,21.247-30.091C160.48,337.248,153.2,326.562,139.233,326.562Zm0,9.062c6,0,8.739,4.958,8.739,20.944,0,15.9-2.742,20.944-8.739,20.944s-8.653-5.3-8.653-20.944S133.236,335.624,139.233,335.624Zm44.112-9.062a23.217,23.217,0,0,0-19.276,9.66l7.282,5.813c3.513-4.189,6.511-6.069,10.88-6.069,4.712,0,7.882,2.992,7.882,7.95,0,7.694-4.712,12.994-24.331,32.57v8.805h36.754l1.37-9.4H179.661c17.906-16.756,22.96-23.68,22.96-33C202.621,333.914,195.682,326.562,183.345,326.562Zm43.854,0a23.219,23.219,0,0,0-19.276,9.66l7.282,5.813c3.513-4.189,6.511-6.069,10.881-6.069,4.712,0,7.882,2.992,7.882,7.95,0,7.694-4.712,12.994-24.331,32.57v8.805H246.39l1.371-9.4H223.516c17.905-16.756,22.96-23.68,22.96-33C246.476,333.914,239.536,326.562,227.2,326.562ZM276.834,362.3a8.525,8.525,0,0,0-7.068,3.933l-0.3-3.42h-3.084v22.483h3.6V369.262c1.585-2.479,3.384-4.146,6.04-4.146,2.313,0,3.684,1.112,3.684,4.574v15.6h3.6V369.177C283.3,364.9,280.989,362.3,276.834,362.3Zm30.836,0.513h-3.6v16.114c-1.413,2.351-3.3,4.018-5.868,4.018-2.528,0-3.684-1.2-3.684-4.4v-15.73h-3.6v16.114c0,4.4,2.356,6.882,6.3,6.882a7.692,7.692,0,0,0,7.111-4.146l0.257,3.633h3.084V362.808Zm25.011,10.515c0-6.8-3.127-11.028-9.167-11.028-5.74,0-9.252,4.916-9.252,11.968,0,7.138,3.641,11.541,9.852,11.541a11.972,11.972,0,0,0,7.753-2.821l-1.584-2.137a9.6,9.6,0,0,1-5.912,2.009c-3.384,0-5.954-2.137-6.3-7.566H332.6C332.639,374.819,332.681,374.092,332.681,373.323Zm-3.555-.684H318.074c0.3-5.257,2.4-7.48,5.526-7.48,3.727,0,5.526,2.607,5.526,7.138v0.342Zm26.039-9.831h-3.812l-6.04,19.277-6.126-19.277h-3.941l7.839,22.483h4.37Zm12.8-.513c-6.3,0-9.938,4.745-9.938,11.8,0,7.138,3.6,11.712,9.895,11.712s9.938-4.744,9.938-11.8C377.864,366.826,374.309,362.3,367.969,362.3Zm0,2.907c3.9,0,6.04,2.864,6.04,8.805,0,6.027-2.185,8.89-6.083,8.89s-6.039-2.863-6.039-8.805C361.887,368.066,364.114,365.2,367.969,365.2ZM390.5,362.3c-4.541,0-7.968,2.565-7.968,6.113,0,3.163,1.928,5.171,6.811,6.454,4.412,1.2,5.569,2.051,5.569,4.4,0,2.266-1.971,3.633-5.012,3.633a10.222,10.222,0,0,1-6.383-2.222l-1.927,2.18a12.181,12.181,0,0,0,8.395,2.949c4.541,0,8.7-2.18,8.7-6.753,0-3.933-2.613-5.728-7.41-6.968-3.727-.983-4.969-1.837-4.969-3.761s1.67-3.163,4.326-3.163a9.98,9.98,0,0,1,5.869,1.966l1.584-2.265A11.845,11.845,0,0,0,390.5,362.3Zm41.843,0.513h-3.6v16.114c-1.414,2.351-3.3,4.018-5.869,4.018-2.527,0-3.684-1.2-3.684-4.4v-15.73h-3.6v16.114c0,4.4,2.356,6.882,6.3,6.882A7.693,7.693,0,0,0,429,381.658l0.257,3.633h3.084V362.808Zm14.174-.513c-4.541,0-7.968,2.565-7.968,6.113,0,3.163,1.928,5.171,6.811,6.454,4.412,1.2,5.569,2.051,5.569,4.4,0,2.266-1.971,3.633-5.012,3.633a10.224,10.224,0,0,1-6.383-2.222l-1.927,2.18A12.182,12.182,0,0,0,446,385.8c4.54,0,8.695-2.18,8.695-6.753,0-3.933-2.613-5.728-7.41-6.968-3.727-.983-4.969-1.837-4.969-3.761s1.67-3.163,4.326-3.163a9.98,9.98,0,0,1,5.869,1.966l1.585-2.265A11.85,11.85,0,0,0,446.513,362.3Zm30.366,0.513h-3.6v16.114c-1.414,2.351-3.3,4.018-5.869,4.018-2.527,0-3.684-1.2-3.684-4.4v-15.73h-3.6v16.114c0,4.4,2.356,6.882,6.3,6.882a7.694,7.694,0,0,0,7.111-4.146l0.257,3.633h3.084V362.808Zm22.955,17.311V369.69c0-4.659-2.442-7.395-7.8-7.395a21.08,21.08,0,0,0-7.625,1.539l0.9,2.65a18.983,18.983,0,0,1,6.083-1.239c3.256,0,4.841,1.282,4.841,4.616v1.8h-3.684c-6.169,0-9.767,2.565-9.767,7.352,0,4.018,2.656,6.8,7.111,6.8a7.6,7.6,0,0,0,6.768-3.462c0.6,2.222,2.013,3.163,4.2,3.462l0.857-2.522C500.519,382.855,499.834,382.214,499.834,380.119Zm-9.124,2.949c-2.7,0-4.113-1.5-4.113-4.231,0-3.206,2.228-4.787,6.426-4.787h3.213v5.385C494.908,381.829,493.151,383.068,490.71,383.068ZM517.563,362.3c-2.828,0-4.927,1.753-6.126,5.215l-0.343-4.7H508.01v22.483h3.6V372.254c0.986-4.4,2.656-6.454,5.526-6.454a6.886,6.886,0,0,1,1.971.257l0.685-3.5A9.35,9.35,0,0,0,517.563,362.3Zm8.477-10.087a2.481,2.481,0,1,0,2.57,2.479A2.416,2.416,0,0,0,526.04,352.208Zm1.842,10.6h-3.6v22.483h3.6V362.808Zm16.532-.513c-6.3,0-9.938,4.745-9.938,11.8,0,7.138,3.6,11.712,9.895,11.712s9.938-4.744,9.938-11.8C554.309,366.826,550.754,362.3,544.414,362.3Zm0,2.907c3.9,0,6.04,2.864,6.04,8.805,0,6.027-2.185,8.89-6.083,8.89s-6.04-2.863-6.04-8.805C538.331,368.066,540.559,365.2,544.414,365.2ZM566.94,362.3c-4.541,0-7.967,2.565-7.967,6.113,0,3.163,1.927,5.171,6.811,6.454,4.412,1.2,5.568,2.051,5.568,4.4,0,2.266-1.97,3.633-5.012,3.633a10.221,10.221,0,0,1-6.382-2.222l-1.928,2.18a12.184,12.184,0,0,0,8.4,2.949c4.541,0,8.7-2.18,8.7-6.753,0-3.933-2.613-5.728-7.411-6.968-3.727-.983-4.969-1.837-4.969-3.761s1.671-3.163,4.327-3.163a9.977,9.977,0,0,1,5.868,1.966l1.585-2.265A11.85,11.85,0,0,0,566.94,362.3Zm34.9,0c-2.827,0-4.926,1.753-6.125,5.215l-0.343-4.7h-3.084v22.483h3.6V372.254c0.985-4.4,2.656-6.454,5.526-6.454a6.874,6.874,0,0,1,1.97.257l0.686-3.5A9.364,9.364,0,0,0,601.844,362.3Zm22.785,11.028c0-6.8-3.127-11.028-9.166-11.028-5.74,0-9.253,4.916-9.253,11.968,0,7.138,3.641,11.541,9.852,11.541a11.976,11.976,0,0,0,7.754-2.821l-1.585-2.137a9.6,9.6,0,0,1-5.912,2.009c-3.384,0-5.954-2.137-6.3-7.566h14.522C624.587,374.819,624.629,374.092,624.629,373.323Zm-3.555-.684H610.022c0.3-5.257,2.4-7.48,5.526-7.48,3.727,0,5.526,2.607,5.526,7.138v0.342ZM637,362.3c-4.541,0-7.968,2.565-7.968,6.113,0,3.163,1.928,5.171,6.811,6.454,4.412,1.2,5.569,2.051,5.569,4.4,0,2.266-1.97,3.633-5.012,3.633a10.221,10.221,0,0,1-6.382-2.222l-1.928,2.18a12.184,12.184,0,0,0,8.4,2.949c4.54,0,8.7-2.18,8.7-6.753,0-3.933-2.613-5.728-7.411-6.968-3.727-.983-4.969-1.837-4.969-3.761s1.671-3.163,4.326-3.163A9.98,9.98,0,0,1,643,367.125l1.585-2.265A11.85,11.85,0,0,0,637,362.3Zm15.631-10.087a2.481,2.481,0,1,0,2.57,2.479A2.417,2.417,0,0,0,652.635,352.208Zm1.842,10.6h-3.6v22.483h3.6V362.808Zm21.543-9.489v11.8A8.174,8.174,0,0,0,669.9,362.3c-5.526,0-8.825,4.959-8.825,11.84,0,7.053,3.042,11.669,8.482,11.669a7.6,7.6,0,0,0,6.554-3.676l0.385,3.163h3.127V353.747Zm-5.74,29.621c-3.384,0-5.354-2.864-5.354-8.848s2.227-8.933,5.74-8.933a6.447,6.447,0,0,1,5.354,3.035v11.2C674.521,381.658,672.893,382.94,670.28,382.94Zm34.349-9.617c0-6.8-3.127-11.028-9.167-11.028-5.74,0-9.253,4.916-9.253,11.968,0,7.138,3.641,11.541,9.853,11.541a11.974,11.974,0,0,0,7.753-2.821l-1.585-2.137a9.593,9.593,0,0,1-5.911,2.009c-3.384,0-5.955-2.137-6.3-7.566h14.521C704.586,374.819,704.629,374.092,704.629,373.323Zm-3.556-.684H690.022c0.3-5.257,2.4-7.48,5.526-7.48,3.726,0,5.525,2.607,5.525,7.138v0.342ZM721.415,362.3a8.526,8.526,0,0,0-7.068,3.933l-0.3-3.42h-3.085v22.483h3.6V369.262c1.585-2.479,3.384-4.146,6.04-4.146,2.313,0,3.683,1.112,3.683,4.574v15.6h3.6V369.177C727.884,364.9,725.57,362.3,721.415,362.3Zm22.57,0c-6.04,0-9.767,4.745-9.767,11.926,0,7.266,3.77,11.583,9.767,11.583a10.247,10.247,0,0,0,6.768-2.479l-1.671-2.351a8.1,8.1,0,0,1-4.969,1.752c-3.684,0-6.04-2.564-6.04-8.548,0-6.027,2.356-8.891,6.04-8.891A7.68,7.68,0,0,1,749,366.954l1.757-2.265A9.892,9.892,0,0,0,743.985,362.3ZM757.9,352.208a2.481,2.481,0,1,0,2.57,2.479A2.416,2.416,0,0,0,757.9,352.208Zm1.842,10.6h-3.6v22.483h3.6V362.808ZM782.7,380.119V369.69c0-4.659-2.442-7.395-7.8-7.395a21.084,21.084,0,0,0-7.625,1.539l0.9,2.65a18.973,18.973,0,0,1,6.082-1.239c3.256,0,4.841,1.282,4.841,4.616v1.8h-3.684c-6.169,0-9.767,2.565-9.767,7.352,0,4.018,2.656,6.8,7.111,6.8a7.6,7.6,0,0,0,6.768-3.462c0.6,2.222,2.013,3.163,4.2,3.462l0.857-2.522C783.386,382.855,782.7,382.214,782.7,380.119Zm-9.124,2.949c-2.7,0-4.112-1.5-4.112-4.231,0-3.206,2.227-4.787,6.425-4.787H779.1v5.385C777.775,381.829,776.019,383.068,773.577,383.068Zm21.37,2.736a6.6,6.6,0,0,0,3-.727L797,382.556a4.1,4.1,0,0,1-1.5.256c-1.071,0-1.5-.641-1.5-1.881V353.319l-3.6.428v27.27C790.407,384.137,792.206,385.8,794.947,385.8Zm24.929-12.481c0-6.8-3.127-11.028-9.167-11.028-5.74,0-9.253,4.916-9.253,11.968,0,7.138,3.641,11.541,9.852,11.541a11.974,11.974,0,0,0,7.754-2.821l-1.585-2.137a9.6,9.6,0,0,1-5.912,2.009c-3.384,0-5.954-2.137-6.3-7.566H819.79C819.833,374.819,819.876,374.092,819.876,373.323Zm-3.556-.684H805.269c0.3-5.257,2.4-7.48,5.525-7.48,3.727,0,5.526,2.607,5.526,7.138v0.342ZM832.25,362.3c-4.541,0-7.967,2.565-7.967,6.113,0,3.163,1.927,5.171,6.81,6.454,4.413,1.2,5.569,2.051,5.569,4.4,0,2.266-1.97,3.633-5.012,3.633a10.221,10.221,0,0,1-6.382-2.222l-1.928,2.18a12.184,12.184,0,0,0,8.4,2.949c4.541,0,8.7-2.18,8.7-6.753,0-3.933-2.613-5.728-7.411-6.968-3.727-.983-4.969-1.837-4.969-3.761s1.671-3.163,4.327-3.163a9.977,9.977,0,0,1,5.868,1.966l1.585-2.265A11.85,11.85,0,0,0,832.25,362.3ZM98.377,434.509H87.668L68.478,446.05l5.312,8.206,12.679-7.779v45.65H98.377V434.509Zm27.749-1.111a26.179,26.179,0,0,0-18.676,7.523l6.082,6.582c3.513-3.334,7.025-4.958,11.4-4.958,4.969,0,8.138,2.65,8.138,7.095,0,5.215-3.6,8.121-8.824,8.121h-3.17l-1.456,8.549h4.712c6.34,0,9.938,2.308,9.938,8.72,0,5.727-3.855,9.061-9.681,9.061-4.455,0-8.053-1.624-11.908-5.471l-6.6,6.326c4.455,5.471,10.88,8.549,19.19,8.549,13.794,0,21.5-7.951,21.5-17.7,0-9.062-6-13.421-13.193-14.191,6.939-1.88,11.308-6.5,11.308-13.592C144.888,439.98,138.377,433.4,126.126,433.4Zm43.342,0a23.217,23.217,0,0,0-19.277,9.66l7.282,5.813c3.513-4.189,6.512-6.07,10.881-6.07,4.712,0,7.882,2.992,7.882,7.951,0,7.693-4.712,12.993-24.331,32.57v8.805h36.753l1.371-9.4H165.784c17.905-16.755,22.96-23.679,22.96-33C188.744,440.75,181.8,433.4,169.468,433.4Zm66.986,36.673h-6.768V455.966H219.234l-1.285,14.105H205.955l14.307-33-10.281-3.847-16.62,37.87V479.3h24.416l0.086,12.823h11.823V479.3h6.768v-9.233Zm39.436-.94a8.526,8.526,0,0,0-7.068,3.932l-0.3-3.419h-3.084v22.483h3.6V476.1c1.585-2.479,3.384-4.146,6.04-4.146,2.313,0,3.684,1.111,3.684,4.574v15.6h3.6V476.013C282.358,471.738,280.045,469.131,275.89,469.131Zm30.836,0.513h-3.6v16.114c-1.414,2.351-3.3,4.018-5.869,4.018-2.527,0-3.683-1.2-3.683-4.4V469.644h-3.6v16.114c0,4.4,2.356,6.882,6.3,6.882a7.693,7.693,0,0,0,7.111-4.146l0.257,3.633h3.084V469.644Zm25.011,10.515c0-6.8-3.127-11.028-9.167-11.028-5.74,0-9.252,4.915-9.252,11.968,0,7.138,3.641,11.541,9.852,11.541a11.972,11.972,0,0,0,7.753-2.821l-1.585-2.137a9.6,9.6,0,0,1-5.911,2.008c-3.384,0-5.954-2.137-6.3-7.565h14.521C331.694,481.655,331.737,480.928,331.737,480.159Zm-3.555-.684H317.13c0.3-5.258,2.4-7.48,5.526-7.48,3.727,0,5.526,2.607,5.526,7.138v0.342Zm26.039-9.831h-3.812l-6.04,19.277-6.126-19.277H334.3l7.839,22.483h4.369Zm12.8-.513c-6.3,0-9.938,4.744-9.938,11.8,0,7.138,3.6,11.712,9.9,11.712s9.938-4.745,9.938-11.8C376.92,473.662,373.365,469.131,367.025,469.131Zm0,2.907c3.9,0,6.04,2.863,6.04,8.805,0,6.026-2.185,8.89-6.083,8.89s-6.04-2.864-6.04-8.805C360.942,474.9,363.17,472.038,367.025,472.038Zm22.526-2.907c-4.54,0-7.967,2.565-7.967,6.112,0,3.163,1.927,5.172,6.811,6.454,4.412,1.2,5.568,2.052,5.568,4.4,0,2.265-1.97,3.633-5.011,3.633a10.228,10.228,0,0,1-6.383-2.222l-1.928,2.179a12.181,12.181,0,0,0,8.4,2.95c4.541,0,8.7-2.18,8.7-6.754,0-3.932-2.613-5.727-7.411-6.967-3.726-.983-4.969-1.838-4.969-3.761S387.024,472,389.68,472a9.975,9.975,0,0,1,5.868,1.966l1.585-2.265A11.844,11.844,0,0,0,389.551,469.131Zm41.844,0.513h-3.6v16.114c-1.414,2.351-3.3,4.018-5.869,4.018-2.527,0-3.684-1.2-3.684-4.4V469.644h-3.6v16.114c0,4.4,2.356,6.882,6.3,6.882a7.694,7.694,0,0,0,7.111-4.146l0.257,3.633H431.4V469.644Zm14.173-.513c-4.54,0-7.967,2.565-7.967,6.112,0,3.163,1.927,5.172,6.811,6.454,4.412,1.2,5.568,2.052,5.568,4.4,0,2.265-1.97,3.633-5.011,3.633a10.228,10.228,0,0,1-6.383-2.222l-1.928,2.179a12.181,12.181,0,0,0,8.4,2.95c4.541,0,8.7-2.18,8.7-6.754,0-3.932-2.613-5.727-7.411-6.967-3.726-.983-4.969-1.838-4.969-3.761S443.041,472,445.7,472a9.975,9.975,0,0,1,5.868,1.966l1.585-2.265A11.844,11.844,0,0,0,445.568,469.131Zm30.367,0.513h-3.6v16.114c-1.413,2.351-3.3,4.018-5.868,4.018-2.527,0-3.684-1.2-3.684-4.4V469.644h-3.6v16.114c0,4.4,2.356,6.882,6.3,6.882a7.691,7.691,0,0,0,7.11-4.146l0.257,3.633h3.085V469.644Zm22.955,17.311V476.526c0-4.659-2.442-7.4-7.8-7.4a21.079,21.079,0,0,0-7.624,1.539l0.9,2.65a18.978,18.978,0,0,1,6.083-1.24c3.255,0,4.84,1.283,4.84,4.617v1.8h-3.684c-6.168,0-9.766,2.564-9.766,7.352,0,4.017,2.656,6.8,7.111,6.8a7.6,7.6,0,0,0,6.768-3.462c0.6,2.222,2.013,3.162,4.2,3.462l0.856-2.522C499.575,489.69,498.89,489.049,498.89,486.955Zm-9.125,2.949c-2.7,0-4.112-1.5-4.112-4.231,0-3.206,2.228-4.788,6.426-4.788h3.212v5.386C493.963,488.665,492.207,489.9,489.765,489.9Zm26.853-20.773c-2.827,0-4.926,1.752-6.125,5.215l-0.343-4.7h-3.084v22.483h3.6V479.09c0.985-4.4,2.656-6.454,5.526-6.454a6.875,6.875,0,0,1,1.97.256l0.686-3.5A9.416,9.416,0,0,0,516.618,469.131Zm8.478-10.087a2.481,2.481,0,1,0,2.57,2.479A2.416,2.416,0,0,0,525.1,459.044Zm1.842,10.6h-3.6v22.483h3.6V469.644Zm16.532-.513c-6.3,0-9.938,4.744-9.938,11.8,0,7.138,3.6,11.712,9.895,11.712s9.938-4.745,9.938-11.8C553.365,473.662,549.809,469.131,543.47,469.131Zm0,2.907c3.9,0,6.039,2.863,6.039,8.805,0,6.026-2.184,8.89-6.082,8.89s-6.04-2.864-6.04-8.805C537.387,474.9,539.614,472.038,543.47,472.038ZM566,469.131c-4.541,0-7.968,2.565-7.968,6.112,0,3.163,1.928,5.172,6.811,6.454,4.412,1.2,5.569,2.052,5.569,4.4,0,2.265-1.971,3.633-5.012,3.633a10.227,10.227,0,0,1-6.382-2.222l-1.928,2.179a12.18,12.18,0,0,0,8.4,2.95c4.54,0,8.7-2.18,8.7-6.754,0-3.932-2.613-5.727-7.41-6.967-3.727-.983-4.969-1.838-4.969-3.761S563.469,472,566.124,472a9.98,9.98,0,0,1,5.869,1.966l1.585-2.265A11.844,11.844,0,0,0,566,469.131Zm33.576,0c-6.04,0-9.767,4.744-9.767,11.925,0,7.267,3.77,11.584,9.767,11.584a10.245,10.245,0,0,0,6.768-2.479l-1.67-2.351a8.1,8.1,0,0,1-4.969,1.752c-3.684,0-6.04-2.564-6.04-8.548,0-6.027,2.356-8.891,6.04-8.891a7.682,7.682,0,0,1,4.883,1.667l1.756-2.265A9.892,9.892,0,0,0,599.572,469.131Zm19.958,0c-6.3,0-9.938,4.744-9.938,11.8,0,7.138,3.6,11.712,9.895,11.712s9.938-4.745,9.938-11.8C629.425,473.662,625.87,469.131,619.53,469.131Zm0,2.907c3.9,0,6.04,2.863,6.04,8.805,0,6.026-2.185,8.89-6.083,8.89s-6.04-2.864-6.04-8.805C613.447,474.9,615.675,472.038,619.53,472.038Zm38.932-2.907c-3,0-5.14,1.667-6.768,4.146a5.628,5.628,0,0,0-5.654-4.146c-2.956,0-5.055,1.582-6.64,3.932l-0.3-3.419h-3.084v22.483h3.6V476.1c1.543-2.479,3.042-4.146,5.526-4.146,1.885,0,3.341,1.111,3.341,4.574v15.6h3.6V476.1c1.585-2.479,3.041-4.146,5.526-4.146,1.884,0,3.341,1.111,3.341,4.574v15.6h3.6V476.013C664.545,471.781,662.146,469.131,658.462,469.131ZM689.3,480.159c0-6.8-3.127-11.028-9.167-11.028-5.74,0-9.252,4.915-9.252,11.968,0,7.138,3.641,11.541,9.852,11.541a11.972,11.972,0,0,0,7.753-2.821l-1.585-2.137a9.6,9.6,0,0,1-5.911,2.008c-3.384,0-5.954-2.137-6.3-7.565h14.522C689.253,481.655,689.3,480.928,689.3,480.159Zm-3.555-.684H674.689c0.3-5.258,2.4-7.48,5.526-7.48,3.727,0,5.526,2.607,5.526,7.138v0.342Zm19.442-10.344c-2.827,0-4.926,1.752-6.125,5.215l-0.343-4.7h-3.084v22.483h3.6V479.09c0.985-4.4,2.656-6.454,5.526-6.454a6.875,6.875,0,0,1,1.97.256l0.686-3.5A9.416,9.416,0,0,0,705.183,469.131Zm14.133,0c-6.04,0-9.767,4.744-9.767,11.925,0,7.267,3.77,11.584,9.767,11.584a10.247,10.247,0,0,0,6.768-2.479l-1.671-2.351a8.1,8.1,0,0,1-4.969,1.752c-3.684,0-6.04-2.564-6.04-8.548,0-6.027,2.356-8.891,6.04-8.891a7.68,7.68,0,0,1,4.883,1.667l1.757-2.265A9.894,9.894,0,0,0,719.316,469.131Zm13.917-10.087a2.481,2.481,0,1,0,2.57,2.479A2.416,2.416,0,0,0,733.233,459.044Zm1.842,10.6h-3.6v22.483h3.6V469.644Zm22.957,17.311V476.526c0-4.659-2.442-7.4-7.8-7.4a21.084,21.084,0,0,0-7.625,1.539l0.9,2.65a18.977,18.977,0,0,1,6.082-1.24c3.256,0,4.841,1.283,4.841,4.617v1.8H750.75c-6.169,0-9.767,2.564-9.767,7.352,0,4.017,2.656,6.8,7.111,6.8a7.6,7.6,0,0,0,6.768-3.462c0.6,2.222,2.013,3.162,4.2,3.462l0.857-2.522C758.717,489.69,758.032,489.049,758.032,486.955Zm-9.124,2.949c-2.7,0-4.112-1.5-4.112-4.231,0-3.206,2.227-4.788,6.425-4.788h3.213v5.386C753.106,488.665,751.349,489.9,748.908,489.9Zm21.37,2.736a6.613,6.613,0,0,0,3-.727l-0.943-2.522a4.077,4.077,0,0,1-1.5.257c-1.071,0-1.5-.641-1.5-1.881V460.155l-3.6.427v27.27C765.738,490.973,767.537,492.64,770.278,492.64Zm24.929-12.481c0-6.8-3.127-11.028-9.167-11.028-5.74,0-9.253,4.915-9.253,11.968,0,7.138,3.641,11.541,9.853,11.541a11.974,11.974,0,0,0,7.753-2.821l-1.585-2.137a9.6,9.6,0,0,1-5.911,2.008c-3.384,0-5.955-2.137-6.3-7.565h14.521C795.164,481.655,795.207,480.928,795.207,480.159Zm-3.556-.684H780.6c0.3-5.258,2.4-7.48,5.526-7.48,3.726,0,5.525,2.607,5.525,7.138v0.342Zm15.93-10.344c-4.54,0-7.967,2.565-7.967,6.112,0,3.163,1.927,5.172,6.811,6.454,4.412,1.2,5.568,2.052,5.568,4.4,0,2.265-1.97,3.633-5.012,3.633a10.227,10.227,0,0,1-6.382-2.222l-1.928,2.179a12.181,12.181,0,0,0,8.4,2.95c4.541,0,8.7-2.18,8.7-6.754,0-3.932-2.613-5.727-7.411-6.967-3.727-.983-4.969-1.838-4.969-3.761S805.054,472,807.71,472a9.977,9.977,0,0,1,5.868,1.966l1.585-2.265A11.844,11.844,0,0,0,807.581,469.131Zm-636.918,71.1a26.185,26.185,0,0,0-18.677,7.522l6.083,6.583c3.512-3.334,7.025-4.958,11.394-4.958,4.969,0,8.139,2.65,8.139,7.1,0,5.215-3.6,8.121-8.824,8.121h-3.17l-1.456,8.549h4.712c6.339,0,9.938,2.308,9.938,8.719,0,5.728-3.856,9.062-9.681,9.062-4.455,0-8.054-1.624-11.909-5.471l-6.6,6.326c4.455,5.471,10.881,8.548,19.191,8.548,13.793,0,21.5-7.95,21.5-17.7,0-9.062-6-13.422-13.194-14.191,6.94-1.881,11.309-6.5,11.309-13.592C189.425,546.816,182.914,540.234,170.663,540.234Zm53.451,1.111H213.405l-19.191,11.54,5.312,8.207,12.679-7.779v45.649h11.909V541.345Zm56.569,34.622a8.524,8.524,0,0,0-7.068,3.932l-0.3-3.419h-3.084v22.482h3.6V582.934c1.585-2.479,3.384-4.146,6.04-4.146,2.313,0,3.684,1.111,3.684,4.573v15.6h3.6V582.848C287.151,578.574,284.838,575.967,280.683,575.967Zm30.836,0.513h-3.6v16.114c-1.413,2.351-3.3,4.018-5.868,4.018-2.528,0-3.684-1.2-3.684-4.4V576.48h-3.6v16.114c0,4.4,2.356,6.881,6.3,6.881a7.69,7.69,0,0,0,7.111-4.146l0.257,3.633h3.084V576.48Zm25.011,10.514c0-6.8-3.127-11.027-9.167-11.027-5.74,0-9.252,4.915-9.252,11.968,0,7.138,3.641,11.54,9.852,11.54a11.966,11.966,0,0,0,7.753-2.821l-1.584-2.137a9.6,9.6,0,0,1-5.912,2.009c-3.384,0-5.954-2.137-6.3-7.565h14.522C336.488,588.49,336.53,587.764,336.53,586.994Zm-3.555-.683H321.923c0.3-5.258,2.4-7.481,5.526-7.481,3.727,0,5.526,2.608,5.526,7.139v0.342Zm26.039-9.831H355.2l-6.04,19.277-6.126-19.277H339.1l7.838,22.482h4.37Zm12.8-.513c-6.3,0-9.938,4.744-9.938,11.8,0,7.138,3.6,11.711,9.895,11.711s9.938-4.744,9.938-11.8C381.713,580.5,378.158,575.967,371.818,575.967Zm0,2.906c3.9,0,6.04,2.864,6.04,8.8,0,6.027-2.185,8.891-6.083,8.891s-6.039-2.864-6.039-8.8C365.736,581.737,367.963,578.873,371.818,578.873Zm22.527-2.906c-4.541,0-7.968,2.564-7.968,6.112,0,3.163,1.928,5.172,6.811,6.454,4.412,1.2,5.569,2.052,5.569,4.4,0,2.265-1.971,3.633-5.012,3.633a10.225,10.225,0,0,1-6.383-2.223l-1.927,2.18a12.177,12.177,0,0,0,8.4,2.949c4.54,0,8.695-2.18,8.695-6.753,0-3.932-2.613-5.728-7.41-6.967-3.727-.983-4.969-1.838-4.969-3.762s1.67-3.163,4.326-3.163a9.981,9.981,0,0,1,5.869,1.967l1.584-2.266A11.844,11.844,0,0,0,394.345,575.967Zm41.843,0.513h-3.6v16.114c-1.414,2.351-3.3,4.018-5.869,4.018-2.527,0-3.683-1.2-3.683-4.4V576.48h-3.6v16.114c0,4.4,2.356,6.881,6.3,6.881a7.691,7.691,0,0,0,7.111-4.146l0.257,3.633h3.084V576.48Zm14.174-.513c-4.541,0-7.968,2.564-7.968,6.112,0,3.163,1.928,5.172,6.811,6.454,4.412,1.2,5.569,2.052,5.569,4.4,0,2.265-1.971,3.633-5.012,3.633a10.225,10.225,0,0,1-6.383-2.223l-1.927,2.18a12.177,12.177,0,0,0,8.4,2.949c4.54,0,8.695-2.18,8.695-6.753,0-3.932-2.613-5.728-7.41-6.967-3.727-.983-4.969-1.838-4.969-3.762s1.67-3.163,4.326-3.163a9.981,9.981,0,0,1,5.869,1.967l1.585-2.266A11.849,11.849,0,0,0,450.362,575.967Zm30.366,0.513h-3.6v16.114c-1.414,2.351-3.3,4.018-5.869,4.018-2.527,0-3.684-1.2-3.684-4.4V576.48h-3.6v16.114c0,4.4,2.356,6.881,6.3,6.881a7.692,7.692,0,0,0,7.111-4.146l0.257,3.633h3.084V576.48Zm22.955,17.311v-10.43c0-4.659-2.442-7.394-7.8-7.394a21.1,21.1,0,0,0-7.625,1.538l0.9,2.651a18.961,18.961,0,0,1,6.083-1.24c3.256,0,4.841,1.282,4.841,4.616v1.795H496.4c-6.169,0-9.767,2.565-9.767,7.352,0,4.018,2.656,6.8,7.111,6.8a7.6,7.6,0,0,0,6.768-3.462c0.6,2.223,2.013,3.163,4.2,3.462l0.857-2.521C504.368,596.526,503.683,595.885,503.683,593.791Zm-9.124,2.949c-2.7,0-4.113-1.5-4.113-4.232,0-3.205,2.228-4.787,6.426-4.787h3.213v5.386C498.757,595.5,497,596.74,494.559,596.74Zm26.853-20.773c-2.828,0-4.927,1.752-6.126,5.214l-0.343-4.7h-3.084v22.482h3.6V585.926c0.986-4.4,2.656-6.454,5.526-6.454a6.887,6.887,0,0,1,1.971.256l0.685-3.5A9.35,9.35,0,0,0,521.412,575.967Zm8.477-10.088a2.481,2.481,0,1,0,2.57,2.479A2.416,2.416,0,0,0,529.889,565.879Zm1.842,10.6h-3.6v22.482h3.6V576.48Zm16.532-.513c-6.3,0-9.938,4.744-9.938,11.8,0,7.138,3.6,11.711,9.895,11.711s9.938-4.744,9.938-11.8C558.158,580.5,554.6,575.967,548.263,575.967Zm0,2.906c3.9,0,6.04,2.864,6.04,8.8,0,6.027-2.185,8.891-6.083,8.891s-6.04-2.864-6.04-8.8C542.18,581.737,544.408,578.873,548.263,578.873Zm22.526-2.906c-4.541,0-7.967,2.564-7.967,6.112,0,3.163,1.927,5.172,6.811,6.454,4.412,1.2,5.568,2.052,5.568,4.4,0,2.265-1.97,3.633-5.012,3.633a10.222,10.222,0,0,1-6.382-2.223l-1.928,2.18a12.181,12.181,0,0,0,8.4,2.949c4.541,0,8.7-2.18,8.7-6.753,0-3.932-2.613-5.728-7.411-6.967-3.727-.983-4.969-1.838-4.969-3.762s1.671-3.163,4.327-3.163a9.978,9.978,0,0,1,5.868,1.967l1.585-2.266A11.849,11.849,0,0,0,570.789,575.967ZM597.9,565.879a2.481,2.481,0,1,0,2.57,2.479A2.416,2.416,0,0,0,597.9,565.879Zm1.842,10.6h-3.6v22.482h3.6V576.48Zm18.588-.513a8.524,8.524,0,0,0-7.068,3.932l-0.3-3.419h-3.084v22.482h3.6V582.934c1.585-2.479,3.384-4.146,6.04-4.146,2.313,0,3.684,1.111,3.684,4.573v15.6h3.6V582.848C624.795,578.574,622.482,575.967,618.327,575.967Zm27.752-8.976v11.8a8.171,8.171,0,0,0-6.125-2.821c-5.526,0-8.825,4.958-8.825,11.84,0,7.052,3.042,11.668,8.482,11.668a7.6,7.6,0,0,0,6.554-3.676l0.385,3.163h3.127V567.418Zm-5.74,29.621c-3.384,0-5.354-2.864-5.354-8.848s2.227-8.934,5.74-8.934a6.447,6.447,0,0,1,5.354,3.035v11.2C644.58,595.329,642.952,596.612,640.339,596.612ZM674.3,576.48h-3.6v16.114c-1.413,2.351-3.3,4.018-5.868,4.018-2.528,0-3.684-1.2-3.684-4.4V576.48h-3.6v16.114c0,4.4,2.356,6.881,6.3,6.881a7.69,7.69,0,0,0,7.111-4.146l0.257,3.633H674.3V576.48Zm14.174-.513c-4.541,0-7.968,2.564-7.968,6.112,0,3.163,1.928,5.172,6.811,6.454,4.412,1.2,5.569,2.052,5.569,4.4,0,2.265-1.97,3.633-5.012,3.633a10.222,10.222,0,0,1-6.382-2.223l-1.928,2.18a12.179,12.179,0,0,0,8.4,2.949c4.54,0,8.7-2.18,8.7-6.753,0-3.932-2.613-5.728-7.411-6.967-3.727-.983-4.969-1.838-4.969-3.762s1.671-3.163,4.326-3.163a9.981,9.981,0,0,1,5.869,1.967l1.585-2.266A11.849,11.849,0,0,0,688.476,575.967ZM712.2,595.543a6.006,6.006,0,0,1-3.127.94c-2.014,0-2.828-1.111-2.828-3.462V579.258H711.3l0.386-2.778h-5.441v-5.557l-3.6.385v5.172h-3.9v2.778h3.9v13.934c0,4.1,2.228,6.283,5.954,6.283a8.626,8.626,0,0,0,4.969-1.5Zm14.989-19.576c-2.827,0-4.926,1.752-6.126,5.214l-0.342-4.7h-3.085v22.482h3.6V585.926c0.985-4.4,2.655-6.454,5.525-6.454a6.887,6.887,0,0,1,1.971.256l0.685-3.5A9.35,9.35,0,0,0,727.192,575.967Zm8.478-10.088a2.481,2.481,0,1,0,2.57,2.479A2.417,2.417,0,0,0,735.67,565.879Zm1.841,10.6h-3.6v22.482h3.6V576.48Zm22.957,17.311v-10.43c0-4.659-2.441-7.394-7.8-7.394a21.1,21.1,0,0,0-7.624,1.538l0.9,2.651a18.95,18.95,0,0,1,6.083-1.24c3.255,0,4.84,1.282,4.84,4.616v1.795h-3.684c-6.168,0-9.766,2.565-9.766,7.352,0,4.018,2.656,6.8,7.111,6.8a7.6,7.6,0,0,0,6.768-3.462c0.6,2.223,2.013,3.163,4.2,3.462l0.856-2.521C761.154,596.526,760.468,595.885,760.468,593.791Zm-9.124,2.949c-2.7,0-4.112-1.5-4.112-4.232,0-3.205,2.228-4.787,6.426-4.787h3.212v5.386C755.542,595.5,753.786,596.74,751.344,596.74Zm21.371,2.735a6.609,6.609,0,0,0,3-.726l-0.942-2.522a4.078,4.078,0,0,1-1.5.256c-1.071,0-1.5-.641-1.5-1.88V566.991l-3.6.427v27.27C768.174,597.808,769.973,599.475,772.715,599.475Zm24.928-12.481c0-6.8-3.127-11.027-9.167-11.027-5.74,0-9.252,4.915-9.252,11.968,0,7.138,3.641,11.54,9.852,11.54a11.966,11.966,0,0,0,7.753-2.821l-1.584-2.137a9.6,9.6,0,0,1-5.912,2.009c-3.384,0-5.954-2.137-6.3-7.565h14.522C797.6,588.49,797.643,587.764,797.643,586.994Zm-3.555-.683H783.036c0.3-5.258,2.4-7.481,5.526-7.481,3.727,0,5.526,2.608,5.526,7.139v0.342Zm15.93-10.344c-4.541,0-7.968,2.564-7.968,6.112,0,3.163,1.928,5.172,6.811,6.454,4.412,1.2,5.569,2.052,5.569,4.4,0,2.265-1.971,3.633-5.012,3.633a10.222,10.222,0,0,1-6.382-2.223l-1.928,2.18a12.179,12.179,0,0,0,8.4,2.949c4.54,0,8.695-2.18,8.695-6.753,0-3.932-2.613-5.728-7.41-6.967-3.727-.983-4.969-1.838-4.969-3.762s1.67-3.163,4.326-3.163a9.981,9.981,0,0,1,5.869,1.967l1.585-2.266A11.849,11.849,0,0,0,810.018,575.967Zm-639.27,71.1a23.217,23.217,0,0,0-19.276,9.66l7.282,5.813c3.513-4.189,6.511-6.069,10.881-6.069,4.712,0,7.881,2.992,7.881,7.95,0,7.694-4.712,12.994-24.33,32.57v8.8h36.753l1.371-9.4H167.064c17.906-16.756,22.961-23.68,22.961-33C190.025,654.421,183.085,647.069,170.748,647.069ZM229,674.852c6.511-3.419,9.424-7.865,9.424-12.994,0-9.574-8.653-14.789-19.448-14.789-10.88,0-19.447,5.9-19.447,15.3,0,5.471,2.4,10.088,8.567,13.593-6.768,2.992-10.881,7.522-10.881,14.532,0,9.233,8.054,16.67,21.5,16.67,13.708,0,21.932-7.523,21.932-16.926C240.647,683.486,236.877,678.528,229,674.852Zm-9.938-19.491c4.969,0,7.539,2.907,7.539,7.1,0,3.847-1.371,6.582-5.655,9.318l-1.713-.6c-5.14-2.051-7.882-4.189-7.882-8.634C211.347,657.84,214.346,655.361,219.058,655.361Zm0,42.914c-5.912,0-9.6-3.163-9.6-8.292a11.317,11.317,0,0,1,6.426-10.686l2.741,0.941c7.111,2.564,9.767,4.873,9.767,9.916C228.4,694.856,225.14,698.275,219.058,698.275Zm68.392-17.353c-2.527,1.154-4.5,2.009-10.195,1.88-4.969,0-8.567,3.206-8.567,7.78a6.5,6.5,0,0,0,3.77,6.283,4.758,4.758,0,0,0-2.442,3.932c0,2.223,1.8,4.189,5.74,4.189h3.555c2.913,0,4.669,1.111,4.669,3.334,0,2.351-1.756,3.676-6.725,3.676-5.054,0-6.34-1.2-6.34-3.89H267.66c0,4.531,2.356,6.711,9.595,6.711,6.9,0,10.366-2.436,10.366-6.753,0-3.5-3-6.113-7.581-6.113h-3.6c-2.4,0-3.084-.855-3.084-1.923a2.672,2.672,0,0,1,1.242-2.223,8.976,8.976,0,0,0,2.87.428c5.312,0,8.482-3.163,8.482-7.566a5.907,5.907,0,0,0-3.941-5.77,23.935,23.935,0,0,0,6.511-.684Zm-10.195,4.488c3.341,0,5.012,1.838,5.012,5.172s-1.713,5.257-4.926,5.257c-3.17,0-4.969-2.094-4.969-5.257C272.372,687.59,274.042,685.41,277.255,685.41Zm32.337,8.42c0-6.8-3.127-11.028-9.167-11.028-5.74,0-9.253,4.916-9.253,11.968,0,7.139,3.641,11.541,9.852,11.541a11.969,11.969,0,0,0,7.754-2.821l-1.585-2.137a9.6,9.6,0,0,1-5.912,2.009c-3.384,0-5.954-2.137-6.3-7.566h14.521C309.549,695.326,309.592,694.6,309.592,693.83Zm-3.556-.684H294.985c0.3-5.257,2.4-7.48,5.525-7.48,3.727,0,5.526,2.608,5.526,7.138v0.342ZM326.378,682.8a8.526,8.526,0,0,0-7.068,3.933l-0.3-3.42h-3.084V705.8h3.6V689.77c1.585-2.48,3.384-4.147,6.04-4.147,2.313,0,3.684,1.112,3.684,4.574v15.6h3.6V689.684C332.846,685.41,330.533,682.8,326.378,682.8ZM357.6,693.83c0-6.8-3.127-11.028-9.167-11.028-5.74,0-9.252,4.916-9.252,11.968,0,7.139,3.641,11.541,9.852,11.541a11.966,11.966,0,0,0,7.753-2.821l-1.585-2.137a9.593,9.593,0,0,1-5.911,2.009c-3.384,0-5.954-2.137-6.3-7.566h14.522C357.557,695.326,357.6,694.6,357.6,693.83Zm-3.555-.684H342.993c0.3-5.257,2.4-7.48,5.526-7.48,3.727,0,5.526,2.608,5.526,7.138v0.342ZM373.487,682.8c-2.827,0-4.926,1.753-6.125,5.215l-0.343-4.7h-3.084V705.8h3.6V692.762c0.985-4.4,2.656-6.455,5.526-6.455a6.874,6.874,0,0,1,1.97.257l0.686-3.5A9.364,9.364,0,0,0,373.487,682.8Zm20.687,17.824V690.2c0-4.659-2.442-7.395-7.8-7.395a21.084,21.084,0,0,0-7.625,1.539l0.9,2.65a18.983,18.983,0,0,1,6.083-1.239c3.256,0,4.841,1.282,4.841,4.616v1.795h-3.684c-6.169,0-9.767,2.565-9.767,7.352,0,4.018,2.656,6.8,7.111,6.8A7.6,7.6,0,0,0,391,702.849c0.6,2.223,2.013,3.163,4.2,3.462l0.857-2.522C394.859,703.362,394.174,702.721,394.174,700.626Zm-9.124,2.95c-2.7,0-4.113-1.5-4.113-4.232,0-3.206,2.228-4.787,6.426-4.787h3.213v5.385C389.248,702.336,387.491,703.576,385.05,703.576Zm30.708-29.75v11.8a8.176,8.176,0,0,0-6.126-2.821c-5.526,0-8.824,4.959-8.824,11.84,0,7.053,3.041,11.669,8.482,11.669a7.592,7.592,0,0,0,6.553-3.676l0.386,3.163h3.127V674.254Zm-5.74,29.621c-3.384,0-5.355-2.863-5.355-8.847s2.228-8.934,5.74-8.934a6.449,6.449,0,0,1,5.355,3.035v11.2C414.258,702.165,412.631,703.447,410.018,703.447ZM435.885,682.8c-6.3,0-9.938,4.745-9.938,11.8,0,7.138,3.6,11.711,9.895,11.711s9.938-4.744,9.938-11.8C445.78,687.333,442.225,682.8,435.885,682.8Zm0,2.907c3.9,0,6.04,2.864,6.04,8.805,0,6.027-2.185,8.891-6.083,8.891s-6.04-2.864-6.04-8.8C429.8,688.573,432.03,685.709,435.885,685.709Zm26.039-2.907c-2.827,0-4.926,1.753-6.126,5.215l-0.342-4.7h-3.085V705.8h3.6V692.762c0.985-4.4,2.655-6.455,5.525-6.455a6.886,6.886,0,0,1,1.971.257l0.685-3.5A9.35,9.35,0,0,0,461.924,682.8Zm20.686,17.824V690.2c0-4.659-2.441-7.395-7.8-7.395a21.079,21.079,0,0,0-7.624,1.539l0.9,2.65a18.973,18.973,0,0,1,6.083-1.239c3.255,0,4.84,1.282,4.84,4.616v1.795h-3.684c-6.168,0-9.766,2.565-9.766,7.352,0,4.018,2.656,6.8,7.111,6.8a7.6,7.6,0,0,0,6.768-3.462c0.6,2.223,2.013,3.163,4.2,3.462l0.857-2.522C483.3,703.362,482.61,702.721,482.61,700.626Zm-9.124,2.95c-2.7,0-4.112-1.5-4.112-4.232,0-3.206,2.228-4.787,6.426-4.787h3.212v5.385C477.684,702.336,475.928,703.576,473.486,703.576ZM496.827,682.8c-4.541,0-7.968,2.565-7.968,6.113,0,3.163,1.928,5.172,6.811,6.454,4.412,1.2,5.569,2.052,5.569,4.4,0,2.266-1.971,3.634-5.012,3.634a10.225,10.225,0,0,1-6.383-2.223l-1.927,2.18a12.177,12.177,0,0,0,8.4,2.949c4.54,0,8.695-2.18,8.695-6.753,0-3.933-2.613-5.728-7.41-6.967-3.727-.984-4.969-1.838-4.969-3.762s1.67-3.163,4.326-3.163a9.98,9.98,0,0,1,5.869,1.966l1.585-2.265A11.85,11.85,0,0,0,496.827,682.8Zm42.229,11.028c0-6.8-3.127-11.028-9.167-11.028-5.74,0-9.253,4.916-9.253,11.968,0,7.139,3.641,11.541,9.853,11.541a11.968,11.968,0,0,0,7.753-2.821l-1.585-2.137a9.6,9.6,0,0,1-5.911,2.009c-3.384,0-5.955-2.137-6.3-7.566H538.97C539.013,695.326,539.056,694.6,539.056,693.83Zm-3.556-.684H524.449c0.3-5.257,2.4-7.48,5.526-7.48,3.726,0,5.525,2.608,5.525,7.138v0.342Zm14.174,13.165a6.593,6.593,0,0,0,3-.727l-0.942-2.521a4.078,4.078,0,0,1-1.5.256c-1.071,0-1.5-.641-1.5-1.881V673.826l-3.6.428v27.27C545.133,704.644,546.932,706.311,549.674,706.311Zm20.859-31.5-1.628-3.077-8.4,4.787,1.114,1.924ZM574.6,693.83c0-6.8-3.127-11.028-9.167-11.028-5.74,0-9.252,4.916-9.252,11.968,0,7.139,3.641,11.541,9.852,11.541a11.966,11.966,0,0,0,7.753-2.821l-1.584-2.137a9.6,9.6,0,0,1-5.912,2.009c-3.427,0-5.911-2.137-6.3-7.566h14.522C574.56,695.326,574.6,694.6,574.6,693.83Zm-3.555-.684H560c0.3-5.257,2.4-7.48,5.526-7.48,3.727,0,5.526,2.608,5.526,7.138v0.342ZM589.161,682.8c-6.039,0-9.766,4.745-9.766,11.926,0,7.266,3.769,11.583,9.766,11.583a10.243,10.243,0,0,0,6.768-2.479l-1.67-2.351a8.1,8.1,0,0,1-4.969,1.753c-3.684,0-6.04-2.565-6.04-8.549,0-6.027,2.356-8.891,6.04-8.891a7.68,7.68,0,0,1,4.883,1.667l1.756-2.265A9.892,9.892,0,0,0,589.161,682.8Zm22.014,19.577a6.006,6.006,0,0,1-3.127.94c-2.014,0-2.827-1.111-2.827-3.462V686.094h5.054l0.386-2.779h-5.44v-5.556l-3.6.384v5.172h-3.9v2.779h3.9v13.934c0,4.1,2.228,6.283,5.955,6.283a8.63,8.63,0,0,0,4.969-1.5ZM626.164,682.8c-2.827,0-4.926,1.753-6.126,5.215l-0.342-4.7h-3.084V705.8h3.6V692.762c0.985-4.4,2.656-6.455,5.526-6.455a6.883,6.883,0,0,1,1.97.257l0.685-3.5A9.35,9.35,0,0,0,626.164,682.8Zm8.478-10.087a2.481,2.481,0,1,0,2.57,2.479A2.417,2.417,0,0,0,634.642,672.715Zm1.842,10.6h-3.6V705.8h3.6V683.315Zm16.36-.513c-6.04,0-9.767,4.745-9.767,11.926,0,7.266,3.77,11.583,9.767,11.583a10.247,10.247,0,0,0,6.768-2.479l-1.671-2.351a8.1,8.1,0,0,1-4.969,1.753c-3.684,0-6.039-2.565-6.039-8.549,0-6.027,2.355-8.891,6.039-8.891a7.685,7.685,0,0,1,4.884,1.667l1.756-2.265A9.892,9.892,0,0,0,652.844,682.8Zm26.769,17.824V690.2c0-4.659-2.442-7.395-7.8-7.395a21.079,21.079,0,0,0-7.624,1.539l0.9,2.65a18.973,18.973,0,0,1,6.083-1.239c3.255,0,4.84,1.282,4.84,4.616v1.795H672.33c-6.168,0-9.766,2.565-9.766,7.352,0,4.018,2.656,6.8,7.111,6.8a7.6,7.6,0,0,0,6.768-3.462c0.6,2.223,2.013,3.163,4.2,3.462l0.856-2.522C680.3,703.362,679.613,702.721,679.613,700.626Zm-9.124,2.95c-2.7,0-4.113-1.5-4.113-4.232,0-3.206,2.228-4.787,6.426-4.787h3.212v5.385C674.686,702.336,672.93,703.576,670.489,703.576Zm23.34-20.774c-4.541,0-7.968,2.565-7.968,6.113,0,3.163,1.928,5.172,6.811,6.454,4.412,1.2,5.569,2.052,5.569,4.4,0,2.266-1.971,3.634-5.012,3.634a10.227,10.227,0,0,1-6.383-2.223l-1.927,2.18a12.177,12.177,0,0,0,8.4,2.949c4.54,0,8.695-2.18,8.695-6.753,0-3.933-2.613-5.728-7.41-6.967-3.727-.984-4.969-1.838-4.969-3.762s1.67-3.163,4.326-3.163a9.98,9.98,0,0,1,5.869,1.966l1.585-2.265A11.85,11.85,0,0,0,693.829,682.8Zm-564.878,71.1a23.215,23.215,0,0,0-19.276,9.66l7.282,5.813c3.513-4.189,6.511-6.07,10.88-6.07,4.712,0,7.882,2.992,7.882,7.951,0,7.693-4.712,12.993-24.331,32.57v8.805h36.754l1.37-9.4H125.267c17.906-16.755,22.96-23.679,22.96-33C148.227,761.257,141.288,753.905,128.951,753.905Zm60.561,1.111H153.1v9.233h23.816l-19.7,45.991,11.052,3.676,21.246-50.522v-8.378Zm39.572,0H192.673v9.233H216.49L196.785,810.24l11.052,3.676,21.247-50.522v-8.378Zm45.691,45.65c0-6.8-3.127-11.028-9.167-11.028-5.74,0-9.252,4.916-9.252,11.968,0,7.138,3.641,11.541,9.852,11.541a11.972,11.972,0,0,0,7.753-2.821l-1.585-2.137a9.6,9.6,0,0,1-5.911,2.009c-3.384,0-5.954-2.138-6.3-7.566h14.521C274.732,802.162,274.775,801.435,274.775,800.666Zm-3.555-.684H260.168c0.3-5.257,2.4-7.48,5.526-7.48,3.727,0,5.526,2.607,5.526,7.138v0.342Zm15.929-10.344c-4.54,0-7.967,2.565-7.967,6.112,0,3.163,1.928,5.172,6.811,6.455,4.412,1.2,5.569,2.051,5.569,4.4,0,2.265-1.971,3.633-5.012,3.633a10.228,10.228,0,0,1-6.383-2.222l-1.927,2.18a12.181,12.181,0,0,0,8.395,2.949c4.541,0,8.7-2.18,8.7-6.754,0-3.932-2.613-5.727-7.41-6.967-3.727-.983-4.969-1.838-4.969-3.761s1.67-3.163,4.326-3.163a9.98,9.98,0,0,1,5.869,1.966l1.584-2.265A11.842,11.842,0,0,0,287.149,789.638Zm23.727,19.576a6,6,0,0,1-3.127.941c-2.013,0-2.827-1.112-2.827-3.462V792.929h5.055l0.385-2.778h-5.44v-5.557l-3.6.385v5.172h-3.9v2.778h3.9v13.935c0,4.1,2.227,6.283,5.954,6.283a8.626,8.626,0,0,0,4.969-1.5Zm20.258-1.752V797.033c0-4.659-2.441-7.395-7.8-7.395a21.089,21.089,0,0,0-7.625,1.539l0.9,2.65a18.978,18.978,0,0,1,6.083-1.24c3.255,0,4.84,1.283,4.84,4.617V799h-3.684c-6.168,0-9.766,2.564-9.766,7.352,0,4.017,2.655,6.8,7.11,6.8a7.6,7.6,0,0,0,6.768-3.462c0.6,2.222,2.014,3.163,4.2,3.462l0.857-2.522C331.82,810.2,331.134,809.556,331.134,807.462Zm-9.124,2.949c-2.7,0-4.112-1.5-4.112-4.231,0-3.206,2.227-4.788,6.425-4.788h3.213v5.386C326.208,809.172,324.452,810.411,322.01,810.411Zm25.525-20.773c-6.04,0-9.767,4.745-9.767,11.925,0,7.267,3.77,11.584,9.767,11.584a10.245,10.245,0,0,0,6.768-2.479l-1.67-2.351a8.1,8.1,0,0,1-4.969,1.752c-3.684,0-6.04-2.564-6.04-8.548,0-6.027,2.356-8.891,6.04-8.891a7.682,7.682,0,0,1,4.883,1.667l1.756-2.265A9.892,9.892,0,0,0,347.535,789.638Zm13.917-10.087a2.481,2.481,0,1,0,2.571,2.479A2.416,2.416,0,0,0,361.452,779.551Zm1.842,10.6h-3.6v22.483h3.6V790.151Zm16.532-.513c-6.3,0-9.938,4.745-9.938,11.8,0,7.138,3.6,11.712,9.9,11.712s9.938-4.745,9.938-11.8C389.721,794.169,386.166,789.638,379.826,789.638Zm0,2.907c3.9,0,6.04,2.863,6.04,8.805,0,6.026-2.185,8.89-6.083,8.89s-6.04-2.864-6.04-8.805C373.743,795.408,375.971,792.545,379.826,792.545Zm26.938-2.907a8.525,8.525,0,0,0-7.067,3.932l-0.3-3.419h-3.085v22.483h3.6V796.605c1.585-2.479,3.384-4.146,6.04-4.146,2.313,0,3.683,1.111,3.683,4.574v15.6h3.6V796.52C413.233,792.245,410.92,789.638,406.764,789.638Zm31.222,11.028c0-6.8-3.127-11.028-9.166-11.028-5.74,0-9.253,4.916-9.253,11.968,0,7.138,3.641,11.541,9.852,11.541a11.976,11.976,0,0,0,7.754-2.821l-1.585-2.137a9.6,9.6,0,0,1-5.912,2.009c-3.384,0-5.954-2.138-6.3-7.566H437.9C437.944,802.162,437.986,801.435,437.986,800.666Zm-3.555-.684H423.379c0.3-5.257,2.4-7.48,5.526-7.48,3.727,0,5.526,2.607,5.526,7.138v0.342Zm15.93-10.344c-4.541,0-7.968,2.565-7.968,6.112,0,3.163,1.928,5.172,6.811,6.455,4.412,1.2,5.569,2.051,5.569,4.4,0,2.265-1.97,3.633-5.012,3.633a10.227,10.227,0,0,1-6.382-2.222l-1.928,2.18a12.184,12.184,0,0,0,8.4,2.949c4.54,0,8.7-2.18,8.7-6.754,0-3.932-2.613-5.727-7.411-6.967-3.727-.983-4.969-1.838-4.969-3.761s1.671-3.163,4.326-3.163a9.98,9.98,0,0,1,5.869,1.966l1.585-2.265A11.844,11.844,0,0,0,450.361,789.638Zm38.759-8.976v11.8A8.171,8.171,0,0,0,483,789.638c-5.526,0-8.824,4.958-8.824,11.84,0,7.053,3.041,11.669,8.481,11.669a7.6,7.6,0,0,0,6.554-3.676l0.385,3.163h3.128V781.089Zm-5.74,29.621c-3.384,0-5.354-2.864-5.354-8.848s2.227-8.933,5.74-8.933a6.446,6.446,0,0,1,5.354,3.035v11.2C487.621,809,485.993,810.283,483.38,810.283Zm34.349-9.617c0-6.8-3.127-11.028-9.167-11.028-5.74,0-9.252,4.916-9.252,11.968,0,7.138,3.641,11.541,9.852,11.541a11.972,11.972,0,0,0,7.753-2.821l-1.585-2.137a9.6,9.6,0,0,1-5.911,2.009c-3.384,0-5.954-2.138-6.3-7.566h14.521C517.686,802.162,517.729,801.435,517.729,800.666Zm-3.555-.684H503.122c0.3-5.257,2.4-7.48,5.526-7.48,3.727,0,5.526,2.607,5.526,7.138v0.342Zm27.407-10.344c-4.541,0-7.968,2.565-7.968,6.112,0,3.163,1.928,5.172,6.811,6.455,4.412,1.2,5.569,2.051,5.569,4.4,0,2.265-1.971,3.633-5.012,3.633a10.232,10.232,0,0,1-6.383-2.222l-1.927,2.18a12.182,12.182,0,0,0,8.4,2.949c4.54,0,8.695-2.18,8.695-6.754,0-3.932-2.613-5.727-7.41-6.967-3.727-.983-4.969-1.838-4.969-3.761s1.67-3.163,4.326-3.163a9.98,9.98,0,0,1,5.869,1.966l1.585-2.265A11.844,11.844,0,0,0,541.581,789.638Zm30.752,11.028c0-6.8-3.127-11.028-9.167-11.028-5.74,0-9.253,4.916-9.253,11.968,0,7.138,3.641,11.541,9.852,11.541a11.974,11.974,0,0,0,7.754-2.821l-1.585-2.137a9.6,9.6,0,0,1-5.912,2.009c-3.384,0-5.954-2.138-6.3-7.566h14.521C572.29,802.162,572.333,801.435,572.333,800.666Zm-3.556-.684H557.726c0.3-5.257,2.4-7.48,5.525-7.48,3.727,0,5.526,2.607,5.526,7.138v0.342Zm19.443-10.344c-2.828,0-4.927,1.753-6.126,5.215l-0.343-4.7h-3.084v22.483h3.6V799.6c0.986-4.4,2.656-6.454,5.526-6.454a6.923,6.923,0,0,1,1.971.256l0.685-3.5A9.35,9.35,0,0,0,588.22,789.638Zm23.042,0.513h-3.813l-6.04,19.277-6.125-19.277h-3.941l7.839,22.483h4.369Zm6.292-10.6a2.481,2.481,0,1,0,2.57,2.479A2.416,2.416,0,0,0,617.554,779.551Zm1.842,10.6h-3.6v22.483h3.6V790.151Zm16.36-.513c-6.04,0-9.766,4.745-9.766,11.925,0,7.267,3.769,11.584,9.766,11.584a10.245,10.245,0,0,0,6.768-2.479l-1.67-2.351a8.1,8.1,0,0,1-4.969,1.752c-3.684,0-6.04-2.564-6.04-8.548,0-6.027,2.356-8.891,6.04-8.891a7.682,7.682,0,0,1,4.883,1.667l1.756-2.265A9.892,9.892,0,0,0,635.756,789.638Zm13.918-10.087a2.481,2.481,0,1,0,2.57,2.479A2.416,2.416,0,0,0,649.674,779.551Zm1.842,10.6h-3.6v22.483h3.6V790.151Zm16.531-.513c-6.3,0-9.938,4.745-9.938,11.8,0,7.138,3.6,11.712,9.895,11.712s9.938-4.745,9.938-11.8C677.942,794.169,674.387,789.638,668.047,789.638Zm0,2.907c3.9,0,6.04,2.863,6.04,8.805,0,6.026-2.185,8.89-6.083,8.89s-6.039-2.864-6.039-8.805C661.965,795.408,664.192,792.545,668.047,792.545ZM701.708,776.6c-4.2,5.9-7.925,10.985-7.925,21.073s3.727,15.174,7.925,21.072l2.27-1.539c-3.855-5.684-6.425-10.343-6.425-19.533,0-9.233,2.57-13.849,6.425-19.534Zm19.23,6.113c-6.682,0-12.637,5.214-12.637,15.174,0,10.172,4.755,15.259,12.294,15.259a18.347,18.347,0,0,0,9.424-2.565V796.434h-9.466l0.428,3.035h5.354V808.7a11.858,11.858,0,0,1-5.74,1.367c-5.311,0-8.353-3.59-8.353-12.181,0-8.806,4.37-12.1,8.7-12.1a9.387,9.387,0,0,1,6.511,2.394l2.185-2.308A12.407,12.407,0,0,0,720.938,782.714Zm36.533,0.513H754v16.456c0,3.633.385,8.121,0.471,8.933l-12.508-25.389h-4.841v29.407h3.47V798.443c0-5.428-.3-8.8-0.514-11.156L752.5,812.634h4.969V783.227Zm27.752,0h-3.77l-7.624,25.432-7.582-25.432H762.22l9.552,29.407H775.8Zm4.492-6.626-2.27,1.539c3.855,5.685,6.425,10.3,6.425,19.534,0,9.19-2.57,13.849-6.425,19.533l2.27,1.539c4.2-5.9,7.925-10.985,7.925-21.072S793.913,782.5,789.715,776.6Z"/>
</svg>
