<svg xmlns="http://www.w3.org/2000/svg" width="456" height="108" viewBox="0 0 456 108">
  <defs>
    <style>
      .cls-1 {
        fill: #fff;
        fill-rule: evenodd;
      }
    </style>
  </defs>
  <path id="_1220_créditos_de_carbono_para_neutralización" data-name="1220 créditos  de carbono para neutralización" class="cls-1" d="M25.557,12.733h-8.8L0.985,22.213,5.35,28.955l10.42-6.39v37.5h9.787V12.733Zm22.882-.913A19.082,19.082,0,0,0,32.6,19.755l5.985,4.775c2.887-3.441,5.351-4.986,8.942-4.986C51.4,19.545,54,22,54,26.076c0,6.32-3.872,10.674-20,26.755v7.233h30.2l1.126-7.725H45.412C60.127,38.575,64.281,32.887,64.281,25.233,64.281,17.859,58.578,11.82,48.439,11.82Zm36.048,0a19.082,19.082,0,0,0-15.841,7.935l5.985,4.775c2.887-3.441,5.351-4.986,8.942-4.986,3.872,0,6.477,2.458,6.477,6.531,0,6.32-3.872,10.674-20,26.755v7.233h30.2l1.127-7.725H81.459c14.715-13.764,18.869-19.452,18.869-27.106C100.328,17.859,94.626,11.82,84.487,11.82Zm39.779,0c-11.406,0-17.39,8.778-17.39,24.649,0,15.8,5.984,24.719,17.39,24.719,11.477,0,17.461-8.918,17.461-24.719C141.727,20.6,135.743,11.82,124.266,11.82Zm0,7.444c4.929,0,7.182,4.073,7.182,17.2,0,13.061-2.253,17.2-7.182,17.2s-7.111-4.354-7.111-17.2S119.338,19.264,124.266,19.264Zm58.085,2.458c-10.913,0-17.813,8.216-17.813,20.014,0,11.868,6.829,19.452,17.953,19.452a18.743,18.743,0,0,0,12.251-4.354l-4.365-6.25c-2.746,1.756-4.647,2.6-7.393,2.6-4.717,0-7.885-2.879-7.885-11.517s2.957-12.219,7.956-12.219a11.362,11.362,0,0,1,7.322,2.668l4.365-5.9A17.943,17.943,0,0,0,182.351,21.722Zm37.385,0.07c-4.365,0-7.956,3.09-9.716,8.286l-0.915-7.233h-8.66V60.064h10V40.822c1.337-5.969,3.45-9.34,8.026-9.34a12.544,12.544,0,0,1,3.309.492l1.69-9.621A13.334,13.334,0,0,0,219.736,21.792ZM250.363,9.643L246.42,1.989l-15.067,8.989,2.816,5.126Zm7.463,30.969c0-11.868-6.266-18.89-16.827-18.89-10.914,0-16.969,8.708-16.969,19.944,0,11.657,6.267,19.522,18.236,19.522a22.038,22.038,0,0,0,14.152-5.056l-4.154-5.618c-3.239,2.247-5.915,3.23-9.083,3.23-4.788,0-8.167-2.107-8.871-9.269h23.305C257.685,43.421,257.826,41.876,257.826,40.612ZM247.9,38.224H234.31c0.493-7.022,2.957-9.691,6.9-9.691,4.787,0,6.688,3.652,6.688,9.269v0.421ZM287.4,6.9V25.444a12.806,12.806,0,0,0-9.082-3.722c-9.224,0-15.138,8.216-15.138,19.733,0,11.868,4.788,19.733,14.152,19.733a12.567,12.567,0,0,0,10.7-5.688l0.563,4.565h8.8V8.028Zm-7.111,46.839c-4.013,0-6.689-2.949-6.689-12.289,0-8.708,2.958-12.359,7.323-12.359,2.746,0,4.647,1.334,6.477,3.511V49.249C285.425,52.2,283.313,53.744,280.285,53.744ZM312.179,3.674A5.747,5.747,0,0,0,306.124,9.5a5.747,5.747,0,0,0,6.055,5.829A5.836,5.836,0,1,0,312.179,3.674Zm5.07,19.171h-10V60.064h10V22.845Zm28.726,29.143a8.772,8.772,0,0,1-4.225,1.264c-2.535,0-3.732-1.4-3.732-5.056V29.868h7.6l0.986-7.022h-8.59v-9.34l-10,1.194v8.146h-5.562v7.022h5.562V48.407c0,8.286,3.942,12.71,11.687,12.781a17.675,17.675,0,0,0,9.716-2.879Zm22.388-30.266c-11.265,0-17.954,7.865-17.954,19.733,0,12.359,6.76,19.733,17.884,19.733,11.195,0,17.883-7.935,17.883-19.733C386.176,29.1,379.488,21.722,368.363,21.722Zm0,7.444c4.858,0,7.393,3.722,7.393,12.289,0,8.5-2.535,12.289-7.463,12.289s-7.463-3.722-7.463-12.289C360.83,32.957,363.364,29.165,368.363,29.165Zm37.809-7.444c-9.012,0-14.786,4.775-14.786,11.1,0,5.618,3.521,9.34,11.054,11.446,6.9,1.9,8.238,2.809,8.238,5.618,0,2.528-2.394,4.073-6.126,4.073a16.449,16.449,0,0,1-10-3.652l-4.929,5.477c3.52,3.23,8.731,5.407,15.208,5.407,8.871,0,16.123-4.354,16.123-12.078,0-6.6-4.224-9.691-11.687-11.727-6.548-1.9-7.816-2.879-7.816-5.056,0-2.037,1.831-3.371,5.14-3.371a17.275,17.275,0,0,1,9.294,2.949l3.8-5.688A21.285,21.285,0,0,0,406.172,21.722ZM10.615,72.1V79.45A5.1,5.1,0,0,0,6.8,77.692c-3.445,0-5.5,3.09-5.5,7.379,0,4.4,1.9,7.272,5.288,7.272a4.736,4.736,0,0,0,4.086-2.291l0.24,1.971h1.95V72.364ZM7.036,90.558c-2.11,0-3.338-1.785-3.338-5.514s1.389-5.567,3.579-5.567a4.02,4.02,0,0,1,3.339,1.891v6.979A4.058,4.058,0,0,1,7.036,90.558Zm21.416-5.994c0-4.236-1.95-6.873-5.715-6.873-3.579,0-5.769,3.063-5.769,7.459,0,4.449,2.27,7.192,6.143,7.192a7.465,7.465,0,0,0,4.834-1.758l-0.988-1.332A5.984,5.984,0,0,1,23.271,90.5c-2.11,0-3.712-1.332-3.926-4.715H28.4C28.425,85.5,28.452,85.044,28.452,84.564Zm-2.217-.426H19.345c0.187-3.276,1.5-4.662,3.445-4.662,2.324,0,3.445,1.625,3.445,4.449v0.213Zm18.45-6.446c-3.766,0-6.089,2.957-6.089,7.432,0,4.529,2.35,7.219,6.089,7.219a6.389,6.389,0,0,0,4.22-1.545l-1.042-1.465a5.052,5.052,0,0,1-3.1,1.092c-2.3,0-3.766-1.6-3.766-5.328,0-3.756,1.469-5.541,3.766-5.541A4.79,4.79,0,0,1,47.81,80.6l1.095-1.412A6.17,6.17,0,0,0,44.685,77.692ZM61.375,88.8V82.3c0-2.9-1.522-4.608-4.861-4.608a13.153,13.153,0,0,0-4.754.959L52.321,80.3a11.835,11.835,0,0,1,3.793-.772c2.03,0,3.018.8,3.018,2.877v1.119h-2.3c-3.846,0-6.089,1.6-6.089,4.582,0,2.5,1.656,4.236,4.433,4.236a4.74,4.74,0,0,0,4.22-2.158,2.76,2.76,0,0,0,2.617,2.158l0.534-1.572C61.8,90.5,61.375,90.1,61.375,88.8Zm-5.689,1.838A2.332,2.332,0,0,1,53.123,88c0-2,1.389-2.984,4.006-2.984h2v3.356A3.78,3.78,0,0,1,55.687,90.638ZM72.429,77.692c-1.763,0-3.071,1.092-3.819,3.25L68.4,78.011H66.473V92.023h2.243V83.9c0.614-2.744,1.656-4.022,3.445-4.022a4.291,4.291,0,0,1,1.228.16l0.427-2.184A5.834,5.834,0,0,0,72.429,77.692Zm10.467,0a4.835,4.835,0,0,0-4.033,2.1V72.1l-2.243.266V92.023H78.6l0.214-1.6a4.772,4.772,0,0,0,3.819,1.918c3.392,0,5.475-2.93,5.475-7.352C88.1,80.329,86.074,77.692,82.9,77.692Zm-0.8,12.866a3.969,3.969,0,0,1-3.232-1.945v-6.9a4.149,4.149,0,0,1,3.419-2.238c2.083,0,3.392,1.492,3.392,5.514C85.674,88.88,84.258,90.558,82.095,90.558ZM97.422,77.692c-3.926,0-6.2,2.957-6.2,7.352,0,4.448,2.243,7.3,6.169,7.3s6.2-2.957,6.2-7.352C103.591,80.515,101.374,77.692,97.422,77.692Zm0,1.811c2.43,0,3.766,1.785,3.766,5.487,0,3.756-1.363,5.541-3.793,5.541s-3.766-1.785-3.766-5.487C93.629,81.288,95.018,79.5,97.422,79.5Zm16.8-1.811a5.316,5.316,0,0,0-4.407,2.451l-0.187-2.131H107.7V92.023h2.243V82.034c0.988-1.545,2.11-2.584,3.766-2.584,1.442,0,2.3.692,2.3,2.85v9.723h2.243V81.98C118.25,79.317,116.808,77.692,114.218,77.692Zm14.178,0c-3.926,0-6.2,2.957-6.2,7.352,0,4.448,2.243,7.3,6.169,7.3s6.2-2.957,6.2-7.352C134.566,80.515,132.349,77.692,128.4,77.692Zm0,1.811c2.43,0,3.766,1.785,3.766,5.487,0,3.756-1.362,5.541-3.793,5.541s-3.765-1.785-3.765-5.487C124.6,81.288,125.992,79.5,128.4,79.5Zm23.738-1.811a5.078,5.078,0,0,0-4.193,2.264l-0.187-1.945h-1.923V97.644l2.244-.266V90.664a4.583,4.583,0,0,0,3.765,1.678c3.579,0,5.475-3.063,5.475-7.352C157.315,80.542,155.793,77.692,152.134,77.692ZM151.306,90.5a3.8,3.8,0,0,1-3.231-1.811V81.741a4.366,4.366,0,0,1,3.525-2.264c2.19,0,3.285,1.785,3.285,5.514C154.885,88.746,153.63,90.5,151.306,90.5Zm19.2-1.7V82.3c0-2.9-1.522-4.608-4.861-4.608a13.155,13.155,0,0,0-4.754.959l0.561,1.652a11.833,11.833,0,0,1,3.793-.772c2.029,0,3.018.8,3.018,2.877v1.119h-2.3c-3.846,0-6.09,1.6-6.09,4.582,0,2.5,1.656,4.236,4.434,4.236a4.742,4.742,0,0,0,4.22-2.158,2.76,2.76,0,0,0,2.617,2.158l0.534-1.572C170.933,90.5,170.506,90.1,170.506,88.8Zm-5.689,1.838A2.332,2.332,0,0,1,162.253,88c0-2,1.389-2.984,4.006-2.984h2v3.356A3.78,3.78,0,0,1,164.817,90.638ZM181.56,77.692c-1.763,0-3.072,1.092-3.82,3.25l-0.213-2.93H175.6V92.023h2.243V83.9c0.615-2.744,1.656-4.022,3.446-4.022a4.286,4.286,0,0,1,1.228.16l0.428-2.184A5.844,5.844,0,0,0,181.56,77.692Zm12.9,11.108V82.3c0-2.9-1.523-4.608-4.861-4.608a13.151,13.151,0,0,0-4.754.959L185.4,80.3a11.833,11.833,0,0,1,3.792-.772c2.03,0,3.018.8,3.018,2.877v1.119h-2.3c-3.846,0-6.089,1.6-6.089,4.582,0,2.5,1.656,4.236,4.433,4.236a4.739,4.739,0,0,0,4.22-2.158,2.76,2.76,0,0,0,2.618,2.158l0.534-1.572C194.885,90.5,194.458,90.1,194.458,88.8Zm-5.689,1.838A2.332,2.332,0,0,1,186.205,88c0-2,1.389-2.984,4.006-2.984h2v3.356A3.78,3.78,0,0,1,188.769,90.638Zm24.459-12.946a5.317,5.317,0,0,0-4.407,2.451l-0.187-2.131h-1.923V92.023h2.244V82.034c0.988-1.545,2.11-2.584,3.766-2.584,1.442,0,2.3.692,2.3,2.85v9.723h2.243V81.98C217.261,79.317,215.819,77.692,213.228,77.692ZM232.7,84.564c0-4.236-1.95-6.873-5.716-6.873-3.579,0-5.769,3.063-5.769,7.459,0,4.449,2.271,7.192,6.143,7.192a7.465,7.465,0,0,0,4.834-1.758L231.2,89.253a5.983,5.983,0,0,1-3.686,1.252c-2.109,0-3.712-1.332-3.926-4.715h9.054C232.668,85.5,232.7,85.044,232.7,84.564Zm-2.217-.426h-6.891c0.187-3.276,1.5-4.662,3.446-4.662,2.323,0,3.445,1.625,3.445,4.449v0.213Zm16.449-6.127h-2.244V88.054c-0.881,1.465-2.056,2.5-3.659,2.5-1.575,0-2.3-.746-2.3-2.744v-9.8h-2.244V88.054c0,2.744,1.469,4.289,3.926,4.289a4.8,4.8,0,0,0,4.434-2.584L245,92.023h1.923V78.011Zm11.214,11.881a3.747,3.747,0,0,1-1.95.586c-1.255,0-1.763-.693-1.763-2.158V79.743h3.152l0.24-1.731h-3.392V74.548l-2.243.24v3.223h-2.43v1.731h2.43v8.684c0,2.557,1.389,3.916,3.712,3.916a5.378,5.378,0,0,0,3.1-.932Zm9.345-12.2c-1.762,0-3.071,1.092-3.819,3.25l-0.213-2.93h-1.923V92.023h2.243V83.9c0.614-2.744,1.656-4.022,3.445-4.022a4.293,4.293,0,0,1,1.229.16l0.427-2.184A5.832,5.832,0,0,0,267.486,77.692Zm12.9,11.108V82.3c0-2.9-1.522-4.608-4.86-4.608a13.147,13.147,0,0,0-4.754.959l0.56,1.652a11.844,11.844,0,0,1,3.793-.772c2.03,0,3.018.8,3.018,2.877v1.119h-2.3c-3.846,0-6.089,1.6-6.089,4.582,0,2.5,1.656,4.236,4.433,4.236a4.741,4.741,0,0,0,4.22-2.158,2.76,2.76,0,0,0,2.617,2.158l0.534-1.572C280.812,90.5,280.384,90.1,280.384,88.8ZM274.7,90.638A2.332,2.332,0,0,1,272.132,88c0-2,1.388-2.984,4.006-2.984h2v3.356A3.78,3.78,0,0,1,274.7,90.638Zm13.324,1.7a4.119,4.119,0,0,0,1.869-.453L289.3,90.318a2.546,2.546,0,0,1-.935.16c-0.668,0-.935-0.4-0.935-1.172V72.1l-2.243.266v17A2.667,2.667,0,0,0,288.02,92.343ZM294.268,71.4a1.546,1.546,0,1,0,1.6,1.545A1.506,1.506,0,0,0,294.268,71.4Zm1.148,6.606h-2.243V92.023h2.243V78.011Zm13.219,0H299.26V79.9h6.811l-7.425,10.442v1.678h9.775l0.267-1.891h-7.5l7.452-10.416v-1.7ZM321.185,88.8V82.3c0-2.9-1.523-4.608-4.861-4.608a13.151,13.151,0,0,0-4.754.959l0.561,1.652a11.833,11.833,0,0,1,3.792-.772c2.03,0,3.018.8,3.018,2.877v1.119h-2.3c-3.846,0-6.089,1.6-6.089,4.582,0,2.5,1.656,4.236,4.433,4.236a4.739,4.739,0,0,0,4.22-2.158,2.76,2.76,0,0,0,2.618,2.158l0.534-1.572C321.612,90.5,321.185,90.1,321.185,88.8ZM315.5,90.638A2.332,2.332,0,0,1,312.932,88c0-2,1.389-2.984,4.006-2.984h2v3.356A3.78,3.78,0,0,1,315.5,90.638ZM331.41,77.692c-3.765,0-6.089,2.957-6.089,7.432,0,4.529,2.35,7.219,6.089,7.219a6.389,6.389,0,0,0,4.22-1.545l-1.041-1.465a5.055,5.055,0,0,1-3.1,1.092c-2.3,0-3.765-1.6-3.765-5.328,0-3.756,1.469-5.541,3.765-5.541a4.791,4.791,0,0,1,3.045,1.039l1.095-1.412A6.169,6.169,0,0,0,331.41,77.692Zm8.678-6.287a1.546,1.546,0,1,0,1.6,1.545A1.506,1.506,0,0,0,340.088,71.4Zm1.148,6.606h-2.243V92.023h2.243V78.011ZM353.6,70.792l-5.235,2.983,0.695,1.2,5.555-2.264Zm-2.057,6.9c-3.926,0-6.2,2.957-6.2,7.352,0,4.448,2.244,7.3,6.17,7.3s6.2-2.957,6.2-7.352C357.713,80.515,355.5,77.692,351.543,77.692Zm0,1.811c2.431,0,3.766,1.785,3.766,5.487,0,3.756-1.362,5.541-3.792,5.541s-3.766-1.785-3.766-5.487C347.751,81.288,349.14,79.5,351.543,79.5Zm16.8-1.811a5.314,5.314,0,0,0-4.406,2.451l-0.187-2.131h-1.923V92.023h2.243V82.034c0.988-1.545,2.11-2.584,3.766-2.584,1.442,0,2.3.692,2.3,2.85v9.723h2.243V81.98C372.372,79.317,370.93,77.692,368.339,77.692Z"/>
</svg>
