<svg xmlns="http://www.w3.org/2000/svg" width="856" height="258" viewBox="0 0 856 258">
  <defs>
    <style>
      .cls-1 {
        fill: #fff;
        fill-rule: evenodd;
      }
    </style>
  </defs>
  <path id="_854_comedores_populares_conectados_gratuitamente_al_Gas_natur" data-name="854 comedores   populares conectados gratuitamente al Gas natur" class="cls-1" d="M48.6,43.756c9.007-4.73,13.036-10.879,13.036-17.974,0-13.244-11.969-20.458-26.9-20.458-15.051,0-26.9,8.159-26.9,21.167,0,7.568,3.318,13.954,11.851,18.8C10.326,49.432,4.638,55.7,4.638,65.4c0,12.771,11.14,23.059,29.746,23.059,18.961,0,30.338-10.406,30.338-23.414C64.722,55.7,59.507,48.841,48.6,43.756ZM34.857,16.795c6.874,0,10.429,4.021,10.429,9.815,0,5.321-1.9,9.105-7.822,12.89l-2.37-.828c-7.111-2.838-10.9-5.794-10.9-11.943C24.192,20.224,28.339,16.795,34.857,16.795Zm0,59.363c-8.177,0-13.273-4.375-13.273-11.47,0-6.622,2.963-11.707,8.888-14.781l3.792,1.3c9.836,3.548,13.51,6.74,13.51,13.717C47.775,71.427,43.272,76.157,34.857,76.157Zm88.762-69.3H75.979V49.2H87.711a19.409,19.409,0,0,1,9.955-2.838c6.992,0,12.088,3.666,12.088,14.072,0,9.815-5.215,15.136-13.747,15.136-6.637,0-11.614-2.72-15.88-7.568l-9.481,8.869c6.162,6.859,14.221,11.589,25.835,11.589,18.487,0,30.575-11.47,30.575-28.026,0-16.319-9.718-25.779-22.872-25.779A28.431,28.431,0,0,0,92.1,37.371V19.042h29.509Zm70.867,49.193h-9.362V36.543H170.666l-1.778,19.512H152.3l19.791-45.645L157.867,5.088,134.876,57.474V68.826h33.775l0.119,17.738h16.354V68.826h9.362V56.055ZM260.612,22c-18.369,0-29.983,13.835-29.983,33.7,0,19.985,11.5,32.756,30.22,32.756a31.541,31.541,0,0,0,20.62-7.332L274.122,70.6c-4.622,2.956-7.822,4.375-12.444,4.375-7.94,0-13.273-4.848-13.273-19.393s4.978-20.576,13.392-20.576c4.622,0,8.295,1.419,12.325,4.494l7.347-9.933A30.2,30.2,0,0,0,260.612,22Zm54.514,0c-18.961,0-30.219,13.244-30.219,33.229,0,20.812,11.377,33.229,30.1,33.229,18.843,0,30.1-13.362,30.1-33.229C345.109,34.414,333.851,22,315.126,22Zm0,12.535c8.178,0,12.444,6.267,12.444,20.694,0,14.309-4.266,20.694-12.562,20.694s-12.562-6.267-12.562-20.694C302.446,40.918,306.712,34.533,315.126,34.533ZM425.814,22c-8.059,0-13.866,3.666-18.843,10.17C404.6,25.664,399.149,22,392.038,22c-7.94,0-13.628,3.548-18.25,9.7l-1.3-7.8H357.908V86.564h16.828V43.283c3.081-5.558,6.163-8.751,10.784-8.751,3.437,0,6.163,2.01,6.163,9.224V86.564h16.828V43.283c3.2-5.558,6.281-8.751,10.9-8.751,3.318,0,6.163,2.01,6.163,9.224V86.564h16.828V40.918C442.405,29.093,435.65,22,425.814,22Zm85.68,31.81c0-19.985-10.547-31.81-28.323-31.81C464.8,22,454.61,36.661,454.61,55.582c0,19.63,10.547,32.874,30.694,32.874a37.083,37.083,0,0,0,23.82-8.514l-6.992-9.46c-5.451,3.784-9.955,5.44-15.288,5.44-8.058,0-13.747-3.547-14.932-15.609h39.227C511.257,58.538,511.494,55.936,511.494,53.808Zm-16.71-4.021H471.912c0.83-11.825,4.978-16.319,11.614-16.319,8.059,0,11.258,6.149,11.258,15.609v0.71Zm66.483-52.74V28.265A21.551,21.551,0,0,0,545.979,22C530.455,22,520.5,35.833,520.5,55.227c0,19.985,8.059,33.229,23.82,33.229a21.153,21.153,0,0,0,18.014-9.578l0.948,7.686H578.1V-1.061ZM549.3,75.921c-6.755,0-11.259-4.967-11.259-20.694,0-14.663,4.978-20.812,12.325-20.812,4.622,0,7.822,2.247,10.9,5.913V68.353C557.949,73.319,554.394,75.921,549.3,75.921ZM621.114,22c-18.962,0-30.22,13.244-30.22,33.229,0,20.812,11.377,33.229,30.1,33.229,18.843,0,30.1-13.362,30.1-33.229C651.1,34.414,639.838,22,621.114,22Zm0,12.535c8.177,0,12.443,6.267,12.443,20.694,0,14.309-4.266,20.694-12.562,20.694s-12.562-6.267-12.562-20.694C608.433,40.918,612.7,34.533,621.114,34.533Zm75.253-12.417c-7.348,0-13.392,5.2-16.355,13.954l-1.54-12.18H663.9V86.564h16.828v-32.4c2.252-10.052,5.807-15.728,13.51-15.728a21.1,21.1,0,0,1,5.57.828l2.845-16.2A22.448,22.448,0,0,0,696.367,22.116Zm64.112,31.692c0-19.985-10.548-31.81-28.324-31.81-18.369,0-28.561,14.663-28.561,33.584,0,19.63,10.547,32.874,30.694,32.874a37.083,37.083,0,0,0,23.82-8.514l-6.992-9.46c-5.451,3.784-9.954,5.44-15.287,5.44-8.059,0-13.747-3.547-14.932-15.609h39.226C760.242,58.538,760.479,55.936,760.479,53.808Zm-16.71-4.021H720.9c0.829-11.825,4.977-16.319,11.613-16.319,8.059,0,11.259,6.149,11.259,15.609v0.71ZM793.542,22c-15.169,0-24.887,8.041-24.887,18.684,0,9.46,5.925,15.728,18.606,19.275,11.614,3.193,13.865,4.73,13.865,9.46,0,4.257-4.029,6.859-10.31,6.859a27.681,27.681,0,0,1-16.828-6.149l-8.3,9.224c5.926,5.44,14.695,9.105,25.6,9.105,14.932,0,27.139-7.332,27.139-20.339,0-11.116-7.111-16.319-19.673-19.748C787.735,45.175,785.6,43.52,785.6,39.854c0-3.429,3.081-5.676,8.651-5.676,5.451,0,10.547,1.774,15.643,4.966l6.4-9.578A35.812,35.812,0,0,0,793.542,22ZM15.607,116.248a8.544,8.544,0,0,0-7.058,3.813l-0.315-3.275H5v33.06l3.776-.449v-11.3a7.714,7.714,0,0,0,6.339,2.826c6.024,0,9.216-5.158,9.216-12.38C24.328,121.047,21.766,116.248,15.607,116.248Zm-1.393,21.576a6.39,6.39,0,0,1-5.44-3.05V123.066c1.349-2.019,3.282-3.813,5.934-3.813,3.686,0,5.529,3.006,5.529,9.286C20.237,134.863,18.124,137.824,14.213,137.824Zm25.8-21.576c-6.608,0-10.429,4.979-10.429,12.38,0,7.491,3.776,12.291,10.384,12.291S50.4,135.94,50.4,128.539C50.4,121,46.665,116.248,40.011,116.248Zm0,3.05c4.091,0,6.339,3,6.339,9.241,0,6.324-2.293,9.33-6.384,9.33s-6.339-3.006-6.339-9.241C33.628,122.3,35.965,119.3,40.011,119.3Zm27.911-3.05a8.544,8.544,0,0,0-7.058,3.813l-0.315-3.275H57.313v33.06l3.776-.449v-11.3a7.714,7.714,0,0,0,6.339,2.826c6.024,0,9.216-5.158,9.216-12.38C76.644,121.047,74.081,116.248,67.922,116.248Zm-1.394,21.576a6.39,6.39,0,0,1-5.44-3.05V123.066c1.349-2.019,3.282-3.813,5.934-3.813,3.686,0,5.529,3.006,5.529,9.286C72.553,134.863,70.44,137.824,66.529,137.824Zm34.294-21.038H97.047V133.7c-1.483,2.467-3.462,4.217-6.159,4.217-2.652,0-3.866-1.256-3.866-4.621V116.786H83.246V133.7c0,4.62,2.473,7.222,6.608,7.222a8.072,8.072,0,0,0,7.463-4.351l0.27,3.813h3.236V116.786Zm13.032,24.133a6.939,6.939,0,0,0,3.146-.762l-0.989-2.647a4.289,4.289,0,0,1-1.573.269c-1.124,0-1.573-.673-1.573-1.974V106.828l-3.777.448V135.9C109.089,139.17,110.977,140.919,113.855,140.919Zm24-5.966V124.008c0-4.889-2.562-7.76-8.182-7.76a22.123,22.123,0,0,0-8,1.615l0.944,2.781a19.9,19.9,0,0,1,6.384-1.3c3.416,0,5.08,1.346,5.08,4.844v1.884h-3.866c-6.474,0-10.25,2.692-10.25,7.716,0,4.216,2.787,7.132,7.463,7.132a7.975,7.975,0,0,0,7.1-3.633c0.63,2.332,2.113,3.319,4.406,3.633l0.9-2.646C138.577,137.824,137.858,137.151,137.858,134.953Zm-9.575,3.095c-2.832,0-4.316-1.57-4.316-4.441,0-3.364,2.338-5.024,6.743-5.024h3.372v5.652C132.688,136.747,130.845,138.048,128.283,138.048Zm28.181-21.8c-2.967,0-5.17,1.839-6.429,5.472l-0.36-4.934h-3.236v23.6h3.776V126.7c1.034-4.62,2.787-6.773,5.8-6.773a7.238,7.238,0,0,1,2.068.269l0.719-3.678A9.785,9.785,0,0,0,156.464,116.248Zm23.912,11.573c0-7.132-3.282-11.573-9.621-11.573-6.024,0-9.71,5.158-9.71,12.56,0,7.491,3.821,12.111,10.34,12.111a12.566,12.566,0,0,0,8.137-2.96l-1.664-2.243a10.072,10.072,0,0,1-6.2,2.108c-3.551,0-6.248-2.243-6.608-7.94h15.24C180.331,129.391,180.376,128.628,180.376,127.821Zm-3.732-.718h-11.6c0.315-5.517,2.518-7.85,5.8-7.85,3.911,0,5.8,2.736,5.8,7.491V127.1Zm16.718-10.855c-4.765,0-8.361,2.691-8.361,6.414,0,3.32,2.023,5.428,7.147,6.774,4.631,1.256,5.844,2.153,5.844,4.62,0,2.377-2.068,3.813-5.259,3.813a10.725,10.725,0,0,1-6.7-2.333l-2.023,2.288a12.784,12.784,0,0,0,8.811,3.095c4.765,0,9.125-2.288,9.125-7.087,0-4.127-2.742-6.011-7.777-7.312-3.911-1.032-5.214-1.929-5.214-3.947s1.753-3.32,4.54-3.32a10.469,10.469,0,0,1,6.159,2.064l1.663-2.378A12.437,12.437,0,0,0,193.362,116.248Zm35.237,0c-6.339,0-10.25,4.979-10.25,12.515,0,7.626,3.956,12.156,10.25,12.156a10.751,10.751,0,0,0,7.1-2.6l-1.753-2.467a8.5,8.5,0,0,1-5.215,1.839c-3.866,0-6.339-2.691-6.339-8.971,0-6.325,2.473-9.33,6.339-9.33a8.063,8.063,0,0,1,5.125,1.749l1.843-2.377A10.381,10.381,0,0,0,228.6,116.248Zm20.945,0c-6.609,0-10.43,4.979-10.43,12.38,0,7.491,3.776,12.291,10.385,12.291s10.429-4.979,10.429-12.38C259.928,121,256.2,116.248,249.544,116.248Zm0,3.05c4.091,0,6.338,3,6.338,9.241,0,6.324-2.292,9.33-6.383,9.33s-6.339-3.006-6.339-9.241C243.16,122.3,245.5,119.3,249.544,119.3Zm28.27-3.05a8.944,8.944,0,0,0-7.417,4.127l-0.315-3.589h-3.237v23.6h3.777V123.559c1.663-2.6,3.551-4.351,6.338-4.351,2.428,0,3.866,1.167,3.866,4.8v16.373H284.6V123.47C284.6,118.984,282.175,116.248,277.814,116.248Zm32.767,11.573c0-7.132-3.282-11.573-9.621-11.573-6.024,0-9.71,5.158-9.71,12.56,0,7.491,3.821,12.111,10.34,12.111a12.561,12.561,0,0,0,8.136-2.96l-1.663-2.243a10.072,10.072,0,0,1-6.2,2.108c-3.551,0-6.248-2.243-6.608-7.94h15.24C310.536,129.391,310.581,128.628,310.581,127.821Zm-3.732-.718h-11.6c0.315-5.517,2.517-7.85,5.8-7.85,3.911,0,5.8,2.736,5.8,7.491V127.1Zm19.011-10.855c-6.339,0-10.25,4.979-10.25,12.515,0,7.626,3.956,12.156,10.25,12.156a10.748,10.748,0,0,0,7.1-2.6l-1.753-2.467a8.5,8.5,0,0,1-5.215,1.839c-3.866,0-6.338-2.691-6.338-8.971,0-6.325,2.472-9.33,6.338-9.33a8.061,8.061,0,0,1,5.125,1.749l1.843-2.377A10.376,10.376,0,0,0,325.86,116.248Zm23.1,20.544a6.3,6.3,0,0,1-3.282.987c-2.113,0-2.967-1.166-2.967-3.633V119.7h5.3l0.4-2.916h-5.709v-5.831l-3.776.4v5.428h-4.091V119.7h4.091v14.623c0,4.306,2.337,6.594,6.249,6.594a9.048,9.048,0,0,0,5.214-1.57Zm21.26-1.839V124.008c0-4.889-2.563-7.76-8.182-7.76a22.123,22.123,0,0,0-8,1.615l0.944,2.781a19.9,19.9,0,0,1,6.384-1.3c3.416,0,5.079,1.346,5.079,4.844v1.884h-3.866c-6.473,0-10.249,2.692-10.249,7.716,0,4.216,2.787,7.132,7.462,7.132a7.977,7.977,0,0,0,7.1-3.633c0.629,2.332,2.113,3.319,4.406,3.633l0.9-2.646C370.941,137.824,370.222,137.151,370.222,134.953Zm-9.576,3.095c-2.832,0-4.315-1.57-4.315-4.441,0-3.364,2.337-5.024,6.743-5.024h3.371v5.652C365.052,136.747,363.209,138.048,360.646,138.048Zm32.227-31.22v12.38a8.574,8.574,0,0,0-6.428-2.96c-5.8,0-9.261,5.2-9.261,12.425,0,7.4,3.192,12.246,8.9,12.246a7.969,7.969,0,0,0,6.878-3.858l0.4,3.32h3.281V107.276Zm-6.024,31.086c-3.551,0-5.619-3.006-5.619-9.286s2.338-9.375,6.024-9.375c2.472,0,4.181,1.256,5.619,3.185v11.753C391.3,136.568,389.591,137.914,386.849,137.914ZM414,116.248c-6.609,0-10.43,4.979-10.43,12.38,0,7.491,3.777,12.291,10.385,12.291s10.429-4.979,10.429-12.38C424.38,121,420.649,116.248,414,116.248Zm0,3.05c4.091,0,6.338,3,6.338,9.241,0,6.324-2.292,9.33-6.383,9.33s-6.339-3.006-6.339-9.241C407.612,122.3,409.95,119.3,414,119.3Zm23.64-3.05c-4.765,0-8.361,2.691-8.361,6.414,0,3.32,2.023,5.428,7.147,6.774,4.631,1.256,5.844,2.153,5.844,4.62,0,2.377-2.067,3.813-5.259,3.813a10.725,10.725,0,0,1-6.7-2.333l-2.023,2.288a12.784,12.784,0,0,0,8.811,3.095c4.765,0,9.125-2.288,9.125-7.087,0-4.127-2.742-6.011-7.777-7.312-3.911-1.032-5.214-1.929-5.214-3.947s1.753-3.32,4.54-3.32a10.469,10.469,0,0,1,6.159,2.064l1.663-2.378A12.437,12.437,0,0,0,437.636,116.248Zm44.318-1.974c-2.653,1.211-4.72,2.108-10.7,1.974-5.215,0-8.991,3.364-8.991,8.164a6.817,6.817,0,0,0,3.956,6.594,4.992,4.992,0,0,0-2.563,4.127c0,2.332,1.888,4.4,6.024,4.4h3.731c3.057,0,4.9,1.166,4.9,3.5,0,2.468-1.843,3.858-7.057,3.858-5.305,0-6.654-1.256-6.654-4.082h-3.416c0,4.755,2.472,7.043,10.07,7.043,7.237,0,10.879-2.557,10.879-7.088,0-3.678-3.147-6.414-7.957-6.414H470.4c-2.517,0-3.236-.9-3.236-2.019a2.8,2.8,0,0,1,1.3-2.332,9.416,9.416,0,0,0,3.012.448c5.575,0,8.9-3.319,8.9-7.94a6.2,6.2,0,0,0-4.135-6.055,25.134,25.134,0,0,0,6.833-.718Zm-10.7,4.71c3.506,0,5.259,1.929,5.259,5.428s-1.8,5.517-5.169,5.517c-3.327,0-5.215-2.2-5.215-5.517C466.13,121.272,467.883,118.984,471.255,118.984Zm26.248-2.736c-2.967,0-5.17,1.839-6.428,5.472l-0.36-4.934h-3.237v23.6h3.776V126.7c1.034-4.62,2.788-6.773,5.8-6.773a7.242,7.242,0,0,1,2.068.269l0.719-3.678A9.794,9.794,0,0,0,497.5,116.248Zm21.71,18.7V124.008c0-4.889-2.563-7.76-8.182-7.76a22.123,22.123,0,0,0-8,1.615l0.944,2.781a19.9,19.9,0,0,1,6.384-1.3c3.416,0,5.08,1.346,5.08,4.844v1.884h-3.866c-6.474,0-10.25,2.692-10.25,7.716,0,4.216,2.787,7.132,7.462,7.132a7.977,7.977,0,0,0,7.1-3.633c0.63,2.332,2.113,3.319,4.406,3.633l0.9-2.646C519.932,137.824,519.213,137.151,519.213,134.953Zm-9.575,3.095c-2.833,0-4.316-1.57-4.316-4.441,0-3.364,2.338-5.024,6.743-5.024h3.372v5.652C514.043,136.747,512.2,138.048,509.638,138.048Zm28.5-1.256a6.3,6.3,0,0,1-3.282.987c-2.112,0-2.967-1.166-2.967-3.633V119.7h5.3l0.405-2.916h-5.71v-5.831l-3.776.4v5.428h-4.091V119.7h4.091v14.623c0,4.306,2.338,6.594,6.249,6.594a9.053,9.053,0,0,0,5.215-1.57Zm23.013-20.006H557.37V133.7c-1.483,2.467-3.461,4.217-6.159,4.217-2.652,0-3.866-1.256-3.866-4.621V116.786h-3.776V133.7c0,4.62,2.473,7.222,6.608,7.222a8.072,8.072,0,0,0,7.463-4.351l0.27,3.813h3.236V116.786Zm10.379-11.124a2.6,2.6,0,1,0,2.7,2.6A2.535,2.535,0,0,0,571.525,105.662Zm1.933,11.124h-3.776v23.6h3.776V116.786Zm18.878,20.006a6.3,6.3,0,0,1-3.282.987c-2.113,0-2.967-1.166-2.967-3.633V119.7h5.305l0.4-2.916h-5.71v-5.831l-3.776.4v5.428H578.22V119.7h4.091v14.623c0,4.306,2.338,6.594,6.249,6.594a9.053,9.053,0,0,0,5.215-1.57Zm21.26-1.839V124.008c0-4.889-2.562-7.76-8.182-7.76a22.123,22.123,0,0,0-8,1.615l0.944,2.781a19.9,19.9,0,0,1,6.384-1.3c3.416,0,5.08,1.346,5.08,4.844v1.884h-3.866c-6.474,0-10.25,2.692-10.25,7.716,0,4.216,2.787,7.132,7.462,7.132a7.977,7.977,0,0,0,7.1-3.633c0.63,2.332,2.113,3.319,4.406,3.633l0.9-2.646C614.315,137.824,613.6,137.151,613.6,134.953Zm-9.575,3.095c-2.832,0-4.316-1.57-4.316-4.441,0-3.364,2.338-5.024,6.743-5.024h3.372v5.652C608.426,136.747,606.583,138.048,604.021,138.048Zm41.712-21.8c-3.147,0-5.395,1.749-7.1,4.351a5.906,5.906,0,0,0-5.934-4.351c-3.1,0-5.305,1.659-6.968,4.127l-0.315-3.589h-3.236v23.6h3.776V123.559c1.618-2.6,3.192-4.351,5.8-4.351,1.978,0,3.506,1.167,3.506,4.8v16.373h3.777V123.559c1.663-2.6,3.191-4.351,5.8-4.351,1.978,0,3.506,1.167,3.506,4.8v16.373h3.776V123.47C652.116,119.029,649.6,116.248,645.733,116.248Zm32.359,11.573c0-7.132-3.282-11.573-9.621-11.573-6.023,0-9.71,5.158-9.71,12.56,0,7.491,3.821,12.111,10.34,12.111a12.564,12.564,0,0,0,8.137-2.96l-1.664-2.243a10.072,10.072,0,0,1-6.2,2.108c-3.552,0-6.249-2.243-6.609-7.94H678C678.047,129.391,678.092,128.628,678.092,127.821Zm-3.732-.718h-11.6c0.315-5.517,2.518-7.85,5.8-7.85,3.911,0,5.8,2.736,5.8,7.491V127.1Zm21.348-10.855a8.944,8.944,0,0,0-7.417,4.127l-0.315-3.589h-3.237v23.6h3.777V123.559c1.663-2.6,3.551-4.351,6.338-4.351,2.428,0,3.866,1.167,3.866,4.8v16.373H702.5V123.47C702.5,118.984,700.069,116.248,695.708,116.248ZM721.1,136.792a6.3,6.3,0,0,1-3.282.987c-2.112,0-2.967-1.166-2.967-3.633V119.7h5.305l0.4-2.916h-5.71v-5.831l-3.776.4v5.428h-4.091V119.7h4.091v14.623c0,4.306,2.338,6.594,6.249,6.594a9.053,9.053,0,0,0,5.215-1.57Zm22.789-8.971c0-7.132-3.282-11.573-9.62-11.573-6.024,0-9.711,5.158-9.711,12.56,0,7.491,3.822,12.111,10.34,12.111a12.564,12.564,0,0,0,8.137-2.96l-1.664-2.243a10.072,10.072,0,0,1-6.2,2.108c-3.552,0-6.249-2.243-6.609-7.94H743.8C743.846,129.391,743.891,128.628,743.891,127.821Zm-3.731-.718h-11.6c0.315-5.517,2.518-7.85,5.8-7.85,3.911,0,5.8,2.736,5.8,7.491V127.1ZM20.552,188.77V177.825c0-4.889-2.562-7.76-8.182-7.76a22.121,22.121,0,0,0-8,1.615l0.944,2.781a19.921,19.921,0,0,1,6.384-1.3c3.416,0,5.08,1.346,5.08,4.845v1.884H12.91c-6.473,0-10.25,2.691-10.25,7.715,0,4.217,2.787,7.132,7.462,7.132a7.977,7.977,0,0,0,7.1-3.633c0.629,2.333,2.113,3.319,4.406,3.633l0.9-2.646C21.271,191.641,20.552,190.968,20.552,188.77Zm-9.575,3.1c-2.832,0-4.316-1.57-4.316-4.441C6.661,184.06,9,182.4,13.4,182.4h3.372v5.652C15.382,190.565,13.539,191.866,10.976,191.866Zm22.427,2.87a6.94,6.94,0,0,0,3.147-.762l-0.989-2.647a4.271,4.271,0,0,1-1.573.269c-1.124,0-1.573-.672-1.573-1.973V160.645l-3.776.449v28.618C28.639,192.987,30.527,194.736,33.4,194.736ZM65.72,162.8c-7.013,0-13.262,5.473-13.262,15.924,0,10.676,4.99,16.014,12.9,16.014a19.257,19.257,0,0,0,9.89-2.691V177.2H65.316l0.45,3.185h5.619v9.689a12.444,12.444,0,0,1-6.024,1.436c-5.574,0-8.766-3.768-8.766-12.785,0-9.24,4.585-12.694,9.126-12.694a9.853,9.853,0,0,1,6.833,2.512l2.293-2.422A13.021,13.021,0,0,0,65.72,162.8ZM97.9,188.77V177.825c0-4.889-2.562-7.76-8.182-7.76a22.122,22.122,0,0,0-8,1.615l0.944,2.781a19.921,19.921,0,0,1,6.383-1.3c3.416,0,5.08,1.346,5.08,4.845v1.884H90.259c-6.474,0-10.25,2.691-10.25,7.715,0,4.217,2.787,7.132,7.462,7.132a7.977,7.977,0,0,0,7.1-3.633c0.629,2.333,2.113,3.319,4.405,3.633l0.9-2.646C98.621,191.641,97.9,190.968,97.9,188.77Zm-9.575,3.1c-2.832,0-4.316-1.57-4.316-4.441,0-3.365,2.338-5.024,6.743-5.024h3.371v5.652C92.732,190.565,90.888,191.866,88.326,191.866Zm24.5-21.8c-4.766,0-8.362,2.691-8.362,6.415,0,3.319,2.023,5.427,7.148,6.773,4.63,1.256,5.844,2.153,5.844,4.62,0,2.378-2.068,3.813-5.26,3.813a10.732,10.732,0,0,1-6.7-2.332l-2.023,2.287a12.779,12.779,0,0,0,8.811,3.095c4.765,0,9.126-2.287,9.126-7.087,0-4.127-2.742-6.011-7.777-7.312-3.911-1.031-5.215-1.929-5.215-3.947s1.753-3.32,4.541-3.32a10.468,10.468,0,0,1,6.158,2.064l1.664-2.378A12.439,12.439,0,0,0,112.821,170.065Zm37.574,0a8.945,8.945,0,0,0-7.417,4.127l-0.315-3.589h-3.237v23.6H143.2V177.377c1.664-2.6,3.552-4.351,6.339-4.351,2.428,0,3.866,1.166,3.866,4.8V194.2h3.776V177.287C157.183,172.8,154.756,170.065,150.4,170.065ZM181,188.77V177.825c0-4.889-2.562-7.76-8.181-7.76a22.119,22.119,0,0,0-8,1.615l0.944,2.781a19.916,19.916,0,0,1,6.383-1.3c3.417,0,5.08,1.346,5.08,4.845v1.884h-3.866c-6.473,0-10.249,2.691-10.249,7.715,0,4.217,2.787,7.132,7.462,7.132a7.978,7.978,0,0,0,7.1-3.633c0.629,2.333,2.113,3.319,4.405,3.633l0.9-2.646C181.723,191.641,181,190.968,181,188.77Zm-9.575,3.1c-2.832,0-4.315-1.57-4.315-4.441,0-3.365,2.337-5.024,6.743-5.024h3.371v5.652C175.834,190.565,173.991,191.866,171.428,191.866Zm28.5-1.256a6.31,6.31,0,0,1-3.282.986c-2.113,0-2.967-1.166-2.967-3.633V173.519h5.3l0.4-2.916h-5.709v-5.831l-3.776.4V170.6h-4.091v2.916H189.9v14.623c0,4.307,2.338,6.594,6.249,6.594a9.048,9.048,0,0,0,5.214-1.57ZM222.937,170.6h-3.776v16.911c-1.484,2.468-3.462,4.217-6.159,4.217-2.652,0-3.866-1.256-3.866-4.62V170.6H205.36v16.911c0,4.621,2.472,7.222,6.608,7.222a8.072,8.072,0,0,0,7.462-4.351l0.27,3.813h3.237V170.6Zm18.561-.538c-2.967,0-5.17,1.839-6.429,5.473l-0.36-4.935h-3.236v23.6h3.776V180.517c1.034-4.621,2.787-6.774,5.8-6.774a7.238,7.238,0,0,1,2.068.269l0.719-3.678A9.836,9.836,0,0,0,241.5,170.065Zm21.709,18.705V177.825c0-4.889-2.562-7.76-8.181-7.76a22.119,22.119,0,0,0-8,1.615l0.944,2.781a19.916,19.916,0,0,1,6.383-1.3c3.417,0,5.08,1.346,5.08,4.845v1.884h-3.866c-6.473,0-10.25,2.691-10.25,7.715,0,4.217,2.788,7.132,7.463,7.132a7.978,7.978,0,0,0,7.1-3.633c0.629,2.333,2.113,3.319,4.405,3.633l0.9-2.646C263.927,191.641,263.207,190.968,263.207,188.77Zm-9.575,3.1c-2.832,0-4.316-1.57-4.316-4.441,0-3.365,2.338-5.024,6.744-5.024h3.371v5.652C258.038,190.565,256.194,191.866,253.632,191.866Zm22.427,2.87a6.94,6.94,0,0,0,3.147-.762l-0.989-2.647a4.268,4.268,0,0,1-1.573.269c-1.124,0-1.574-.672-1.574-1.973V160.645l-3.776.449v28.618C271.294,192.987,273.182,194.736,276.059,194.736Zm9.707-5.786a2.865,2.865,0,0,0-2.877,2.871,3.056,3.056,0,0,0,1.214,2.422l-1.8,7.267H285l2.922-6.684a7.049,7.049,0,0,0,.764-3A2.848,2.848,0,0,0,285.766,188.95ZM317.9,170.065a8.136,8.136,0,0,0-6.788,3.544V160.645l-3.776.449v33.1h3.327l0.359-2.691a8.033,8.033,0,0,0,6.429,3.229c5.709,0,9.215-4.934,9.215-12.38C326.669,174.506,323.253,170.065,317.9,170.065Zm-1.348,21.666a6.68,6.68,0,0,1-5.44-3.275V176.838c1.3-1.973,3.057-3.768,5.754-3.768,3.507,0,5.71,2.512,5.71,9.286C322.579,188.905,320.2,191.731,316.555,191.731Zm34.7-10.093c0-7.132-3.282-11.573-9.621-11.573-6.023,0-9.71,5.159-9.71,12.56,0,7.491,3.821,12.111,10.34,12.111a12.564,12.564,0,0,0,8.137-2.96l-1.664-2.243a10.072,10.072,0,0,1-6.2,2.108c-3.552,0-6.249-2.243-6.609-7.939h15.24C351.209,183.208,351.254,182.446,351.254,181.638Zm-3.732-.718h-11.6c0.315-5.517,2.518-7.85,5.8-7.85,3.911,0,5.8,2.737,5.8,7.492v0.358Zm21.348-10.855a8.947,8.947,0,0,0-7.417,4.127l-0.315-3.589H357.9v23.6h3.776V177.377c1.663-2.6,3.551-4.351,6.338-4.351,2.428,0,3.866,1.166,3.866,4.8V194.2h3.777V177.287C375.659,172.8,373.231,170.065,368.87,170.065Zm32.767,11.573c0-7.132-3.282-11.573-9.621-11.573-6.024,0-9.71,5.159-9.71,12.56,0,7.491,3.821,12.111,10.34,12.111a12.561,12.561,0,0,0,8.136-2.96l-1.663-2.243a10.072,10.072,0,0,1-6.2,2.108c-3.551,0-6.248-2.243-6.608-7.939h15.24C401.592,183.208,401.637,182.446,401.637,181.638Zm-3.732-.718h-11.6c0.315-5.517,2.518-7.85,5.8-7.85,3.911,0,5.8,2.737,5.8,7.492v0.358Zm18.336-20.275c-5.439,0-7.867,2.736-7.867,6.684V170.6H404.6v2.916h3.776V194.2h3.777V173.519h9.44V194.2h3.776V170.6H412.151v-3.274c0-2.422.989-3.634,4.225-3.634a11.208,11.208,0,0,1,5.125,1.212l1.349-2.647A13.835,13.835,0,0,0,416.241,160.645Zm26.293,9.42c-6.338,0-10.25,4.979-10.25,12.515,0,7.626,3.956,12.156,10.25,12.156a10.755,10.755,0,0,0,7.1-2.6l-1.753-2.467a8.5,8.5,0,0,1-5.215,1.839c-3.866,0-6.339-2.692-6.339-8.972,0-6.325,2.473-9.33,6.339-9.33a8.063,8.063,0,0,1,5.125,1.749l1.843-2.377A10.385,10.385,0,0,0,442.534,170.065Zm14.606-10.586a2.6,2.6,0,1,0,2.7,2.6A2.536,2.536,0,0,0,457.14,159.479Zm1.933,11.124H455.3v23.6h3.776V170.6Zm24.092,18.167V177.825c0-4.889-2.562-7.76-8.181-7.76a22.119,22.119,0,0,0-8,1.615l0.944,2.781a19.916,19.916,0,0,1,6.383-1.3c3.417,0,5.08,1.346,5.08,4.845v1.884h-3.866c-6.473,0-10.25,2.691-10.25,7.715,0,4.217,2.788,7.132,7.463,7.132a7.978,7.978,0,0,0,7.1-3.633c0.629,2.333,2.112,3.319,4.405,3.633l0.9-2.646C483.885,191.641,483.165,190.968,483.165,188.77Zm-9.575,3.1c-2.832,0-4.316-1.57-4.316-4.441,0-3.365,2.338-5.024,6.743-5.024h3.372v5.652C478,190.565,476.152,191.866,473.59,191.866Zm29.125-21.8a8.948,8.948,0,0,0-7.418,4.127l-0.314-3.589h-3.237v23.6h3.776V177.377c1.663-2.6,3.552-4.351,6.339-4.351,2.427,0,3.866,1.166,3.866,4.8V194.2H509.5V177.287C509.5,172.8,507.075,170.065,502.715,170.065Zm29.125-9.42v12.381a8.579,8.579,0,0,0-6.429-2.961c-5.8,0-9.26,5.2-9.26,12.425,0,7.4,3.191,12.246,8.9,12.246a7.972,7.972,0,0,0,6.878-3.857l0.4,3.319h3.282v-33.1Zm-6.024,31.086c-3.552,0-5.619-3-5.619-9.285s2.337-9.376,6.023-9.376c2.473,0,4.181,1.256,5.62,3.185v11.753C530.266,190.385,528.558,191.731,525.816,191.731Zm27.146-21.666c-6.608,0-10.429,4.979-10.429,12.381,0,7.491,3.776,12.29,10.384,12.29s10.43-4.979,10.43-12.38C563.347,174.82,559.616,170.065,552.962,170.065Zm0,3.05c4.091,0,6.339,3.006,6.339,9.241,0,6.325-2.293,9.33-6.384,9.33s-6.338-3-6.338-9.24C546.579,176.121,548.917,173.115,552.962,173.115Zm44.9,15.655V177.825c0-4.889-2.562-7.76-8.181-7.76a22.119,22.119,0,0,0-8,1.615l0.944,2.781a19.916,19.916,0,0,1,6.383-1.3c3.417,0,5.08,1.346,5.08,4.845v1.884h-3.866c-6.473,0-10.25,2.691-10.25,7.715,0,4.217,2.788,7.132,7.463,7.132a7.978,7.978,0,0,0,7.1-3.633c0.629,2.333,2.113,3.319,4.4,3.633l0.9-2.646C598.583,191.641,597.863,190.968,597.863,188.77Zm-9.575,3.1c-2.832,0-4.316-1.57-4.316-4.441,0-3.365,2.338-5.024,6.744-5.024h3.371v5.652C592.694,190.565,590.85,191.866,588.288,191.866Zm53.757-21.8c-3.147,0-5.395,1.749-7.1,4.351a5.906,5.906,0,0,0-5.934-4.351c-3.1,0-5.3,1.66-6.968,4.127l-0.314-3.589h-3.237v23.6h3.776V177.377c1.618-2.6,3.192-4.351,5.8-4.351,1.978,0,3.507,1.166,3.507,4.8V194.2h3.776V177.377c1.663-2.6,3.192-4.351,5.8-4.351,1.978,0,3.506,1.166,3.506,4.8V194.2h3.777V177.287C648.429,172.846,645.911,170.065,642.045,170.065Zm27.054-8.388-1.708-3.23-8.811,5.024,1.169,2.019Zm3.147,27.093V177.825c0-4.889-2.562-7.76-8.182-7.76a22.127,22.127,0,0,0-8,1.615l0.945,2.781a19.916,19.916,0,0,1,6.383-1.3c3.417,0,5.08,1.346,5.08,4.845v1.884H664.6c-6.474,0-10.25,2.691-10.25,7.715,0,4.217,2.787,7.132,7.463,7.132a8.076,8.076,0,0,0,7.1-3.633c0.63,2.377,2.113,3.319,4.406,3.633l0.9-2.646C672.965,191.641,672.246,190.968,672.246,188.77Zm-9.575,3.1c-2.832,0-4.316-1.57-4.316-4.441,0-3.365,2.338-5.024,6.743-5.024h3.372v5.607C667.121,190.565,665.233,191.866,662.671,191.866Zm24.494-21.8c-4.765,0-8.361,2.691-8.361,6.415,0,3.319,2.023,5.427,7.148,6.773,4.63,1.256,5.844,2.153,5.844,4.62,0,2.378-2.068,3.813-5.26,3.813a10.732,10.732,0,0,1-6.7-2.332l-2.023,2.287a12.779,12.779,0,0,0,8.811,3.095c4.765,0,9.126-2.287,9.126-7.087,0-4.127-2.742-6.011-7.777-7.312-3.911-1.031-5.215-1.929-5.215-3.947s1.753-3.32,4.54-3.32a10.469,10.469,0,0,1,6.159,2.064l1.663-2.378A12.435,12.435,0,0,0,687.165,170.065Zm-668.1,44.4v12.381a8.576,8.576,0,0,0-6.428-2.961c-5.8,0-9.261,5.2-9.261,12.426,0,7.4,3.192,12.246,8.9,12.246a7.97,7.97,0,0,0,6.878-3.858l0.4,3.319h3.282v-33.1Zm-6.024,31.086c-3.551,0-5.619-3-5.619-9.285s2.338-9.375,6.024-9.375c2.473,0,4.181,1.256,5.619,3.185v11.752C17.495,244.2,15.787,245.548,13.044,245.548Zm36.048-10.093c0-7.132-3.282-11.573-9.62-11.573-6.024,0-9.71,5.159-9.71,12.56,0,7.491,3.821,12.112,10.339,12.112a12.564,12.564,0,0,0,8.137-2.961l-1.663-2.243a10.067,10.067,0,0,1-6.2,2.109c-3.551,0-6.249-2.243-6.608-7.94H49C49.047,237.025,49.092,236.263,49.092,235.455Zm-3.731-.717h-11.6c0.315-5.518,2.517-7.85,5.8-7.85,3.911,0,5.8,2.736,5.8,7.491v0.359Zm36.63-16.687H64.683v3.095H78.169L67.155,247.3l3.462,1.121L81.99,220.877v-2.826Zm10.875-.449a10.978,10.978,0,0,0-8.991,4.441l2.472,1.974c1.978-2.243,3.731-3.319,6.339-3.319,3.012,0,5.08,1.928,5.08,5.2,0,4.979-2.607,7.895-13.306,19.109v3h17.533l0.449-3.184H88.774c9.4-9.51,12.947-13.413,12.947-19.109C101.721,221.1,98.3,217.6,92.865,217.6Zm51.735,6.28c-3.147,0-5.395,1.75-7.1,4.352a5.906,5.906,0,0,0-5.934-4.352c-3.1,0-5.3,1.66-6.968,4.127l-0.314-3.588h-3.237v23.594h3.776V231.194c1.618-2.6,3.192-4.351,5.8-4.351,1.978,0,3.507,1.166,3.507,4.8v16.372H137.9V231.194c1.663-2.6,3.191-4.351,5.8-4.351,1.978,0,3.506,1.166,3.506,4.8v16.372h3.776V231.1C150.983,226.664,148.466,223.882,144.6,223.882ZM161.09,213.3a2.6,2.6,0,1,0,2.7,2.6A2.536,2.536,0,0,0,161.09,213.3Zm1.933,11.125h-3.776v23.594h3.776V224.421Zm13.034,24.133a6.926,6.926,0,0,0,3.146-.763l-0.989-2.646a4.289,4.289,0,0,1-1.573.269c-1.124,0-1.573-.673-1.573-1.974V214.462l-3.777.449V243.53C171.291,246.8,173.179,248.554,176.057,248.554Zm29.349-24.672c-6.338,0-10.249,4.98-10.249,12.515,0,7.626,3.955,12.157,10.249,12.157a10.751,10.751,0,0,0,7.1-2.6l-1.753-2.467a8.5,8.5,0,0,1-5.215,1.839c-3.866,0-6.339-2.691-6.339-8.971,0-6.325,2.473-9.331,6.339-9.331a8.064,8.064,0,0,1,5.125,1.75l1.843-2.378A10.385,10.385,0,0,0,205.406,223.882Zm20.945,0c-6.608,0-10.43,4.98-10.43,12.381,0,7.491,3.777,12.291,10.385,12.291s10.429-4.979,10.429-12.381C236.735,228.637,233,223.882,226.351,223.882Zm0,3.051c4.091,0,6.338,3,6.338,9.24,0,6.325-2.292,9.33-6.383,9.33s-6.339-3-6.339-9.24C219.967,229.938,222.305,226.933,226.351,226.933Zm40.858-3.051c-3.147,0-5.395,1.75-7.1,4.352a5.906,5.906,0,0,0-5.934-4.352c-3.1,0-5.305,1.66-6.968,4.127l-0.315-3.588h-3.236v23.594h3.776V231.194c1.618-2.6,3.192-4.351,5.8-4.351,1.978,0,3.506,1.166,3.506,4.8v16.372h3.777V231.194c1.663-2.6,3.191-4.351,5.8-4.351,1.978,0,3.506,1.166,3.506,4.8v16.372h3.776V231.1C273.592,226.664,271.075,223.882,267.209,223.882Zm32.359,11.573c0-7.132-3.282-11.573-9.621-11.573-6.023,0-9.71,5.159-9.71,12.56,0,7.491,3.821,12.112,10.34,12.112a12.565,12.565,0,0,0,8.137-2.961l-1.664-2.243a10.066,10.066,0,0,1-6.2,2.109c-3.552,0-6.249-2.243-6.609-7.94h15.24C299.523,237.025,299.568,236.263,299.568,235.455Zm-3.732-.717h-11.6c0.315-5.518,2.518-7.85,5.8-7.85,3.911,0,5.8,2.736,5.8,7.491v0.359Zm21.348-10.856a8.947,8.947,0,0,0-7.417,4.127l-0.315-3.588h-3.236v23.594h3.776V231.194c1.663-2.6,3.551-4.351,6.338-4.351,2.428,0,3.866,1.166,3.866,4.8v16.372h3.777V231.1C323.973,226.619,321.545,223.882,317.184,223.882Zm21.393,0c-4.765,0-8.361,2.692-8.361,6.415,0,3.319,2.023,5.428,7.147,6.773,4.631,1.256,5.844,2.153,5.844,4.621,0,2.377-2.067,3.812-5.259,3.812a10.73,10.73,0,0,1-6.7-2.332l-2.023,2.288a12.784,12.784,0,0,0,8.811,3.095c4.765,0,9.125-2.288,9.125-7.088,0-4.127-2.742-6.011-7.777-7.311-3.911-1.032-5.214-1.929-5.214-3.948s1.753-3.319,4.54-3.319a10.475,10.475,0,0,1,6.159,2.063l1.663-2.377A12.432,12.432,0,0,0,338.577,223.882Zm30.115,18.706V231.643c0-4.89-2.562-7.761-8.182-7.761a22.139,22.139,0,0,0-8,1.615l0.944,2.781a19.912,19.912,0,0,1,6.383-1.3c3.417,0,5.08,1.345,5.08,4.844v1.884H361.05c-6.474,0-10.25,2.691-10.25,7.715,0,4.217,2.787,7.133,7.463,7.133a7.976,7.976,0,0,0,7.1-3.634c0.63,2.333,2.113,3.32,4.406,3.634l0.9-2.647C369.411,245.459,368.692,244.786,368.692,242.588Zm-9.575,3.095c-2.832,0-4.316-1.57-4.316-4.441,0-3.364,2.338-5.024,6.743-5.024h3.372v5.652C363.522,244.382,361.679,245.683,359.117,245.683Zm22.427,2.871a6.927,6.927,0,0,0,3.147-.763l-0.989-2.646a4.3,4.3,0,0,1-1.574.269c-1.123,0-1.573-.673-1.573-1.974V214.462l-3.776.449V243.53C376.779,246.8,378.667,248.554,381.544,248.554Zm26.161-13.1c0-7.132-3.281-11.573-9.62-11.573-6.024,0-9.71,5.159-9.71,12.56,0,7.491,3.821,12.112,10.339,12.112a12.565,12.565,0,0,0,8.137-2.961l-1.663-2.243a10.067,10.067,0,0,1-6.2,2.109c-3.551,0-6.249-2.243-6.608-7.94h15.239C407.66,237.025,407.705,236.263,407.705,235.455Zm-3.731-.717h-11.6c0.315-5.518,2.517-7.85,5.8-7.85,3.911,0,5.8,2.736,5.8,7.491v0.359Zm16.718-10.856c-4.765,0-8.362,2.692-8.362,6.415,0,3.319,2.023,5.428,7.148,6.773,4.63,1.256,5.844,2.153,5.844,4.621,0,2.377-2.068,3.812-5.26,3.812a10.732,10.732,0,0,1-6.7-2.332l-2.023,2.288a12.784,12.784,0,0,0,8.811,3.095c4.765,0,9.126-2.288,9.126-7.088,0-4.127-2.742-6.011-7.777-7.311-3.911-1.032-5.215-1.929-5.215-3.948s1.753-3.319,4.541-3.319a10.474,10.474,0,0,1,6.158,2.063l1.664-2.377A12.434,12.434,0,0,0,420.692,223.882Z"/>
</svg>
