<svg xmlns="http://www.w3.org/2000/svg" width="856" height="187" viewBox="0 0 856 187">
  <defs>
    <style>
      .cls-1 {
        fill: #fff;
        fill-rule: evenodd;
      }
    </style>
  </defs>
  <path id="_47_distritos_conectados_en_Lima_y_Callao_" data-name="47 distritos  conectados en Lima y Callao  " class="cls-1" d="M74.307,77.093H63.4V54.365H46.559L44.489,77.093H25.162L48.216,23.923l-16.566-6.2L4.869,78.746V91.97H44.213l0.138,20.662H63.4V91.97H74.307V77.093Zm60.326-57.3H75.963V34.667H114.34L82.589,108.775,100.4,114.7,134.633,33.29V19.79Zm90-11.433V44.723a25.1,25.1,0,0,0-17.808-7.3c-18.084,0-29.68,16.117-29.68,38.707,0,23.279,9.387,38.707,27.748,38.707,9.8,0,16.565-4.821,20.983-11.157l1.1,8.953h17.256V10.561Zm-13.942,91.878c-7.869,0-13.115-5.785-13.115-24.106,0-17.081,5.8-24.244,14.357-24.244,5.384,0,9.111,2.617,12.7,6.887V91.419C220.771,97.2,216.63,100.235,210.694,100.235ZM273.229,2.021c-7.041,0-11.872,4.959-11.872,11.433s4.831,11.433,11.872,11.433,12.01-4.959,12.01-11.433S280.269,2.021,273.229,2.021Zm9.939,37.605h-19.6v73.006h19.6V39.626Zm43.623-2.2c-17.671,0-28.99,9.367-28.99,21.764,0,11.02,6.9,18.32,21.673,22.453,13.529,3.719,16.152,5.51,16.152,11.02,0,4.959-4.694,7.989-12.011,7.989a32.246,32.246,0,0,1-19.6-7.163l-9.664,10.745c6.9,6.336,17.118,10.606,29.819,10.606,17.394,0,31.612-8.54,31.612-23.692,0-12.948-8.282-19.009-22.915-23-12.839-3.719-15.324-5.648-15.324-9.918,0-3.995,3.59-6.612,10.078-6.612,6.35,0,12.286,2.066,18.222,5.785L353.3,46.238C346.393,40.728,337.42,37.422,326.791,37.422Zm78.823,59.369a17.192,17.192,0,0,1-8.283,2.48c-4.97,0-7.317-2.755-7.317-9.918V53.4h14.909l1.933-13.775H390.014V21.306l-19.6,2.342V39.626H359.506V53.4h10.906V89.766c0,16.255,7.73,24.933,22.916,25.07a34.649,34.649,0,0,0,19.05-5.647ZM458.9,37.56c-8.559,0-15.6,6.061-19.05,16.254l-1.8-14.188h-16.98v73.006h19.6V74.89c2.623-11.709,6.764-18.32,15.738-18.32a24.6,24.6,0,0,1,6.488.964l3.313-18.871A26.146,26.146,0,0,0,458.9,37.56ZM485.54,2.021c-7.041,0-11.872,4.959-11.872,11.433S478.5,24.887,485.54,24.887s12.01-4.959,12.01-11.433S492.58,2.021,485.54,2.021Zm9.939,37.605h-19.6v73.006h19.6V39.626ZM551.8,96.791a17.192,17.192,0,0,1-8.283,2.48c-4.97,0-7.317-2.755-7.317-9.918V53.4h14.91l1.932-13.775H536.2V21.306l-19.6,2.342V39.626H505.694V53.4H516.6V89.766c0,16.255,7.73,24.933,22.916,25.07a34.649,34.649,0,0,0,19.05-5.647Zm43.9-59.369c-22.088,0-35.2,15.428-35.2,38.707,0,24.244,13.253,38.707,35.064,38.707,21.95,0,35.064-15.565,35.064-38.707C630.625,51.886,617.511,37.422,595.7,37.422Zm0,14.6c9.525,0,14.494,7.3,14.494,24.106,0,16.668-4.969,24.106-14.633,24.106s-14.633-7.3-14.633-24.106C580.928,59.462,585.9,52.023,595.7,52.023Zm74.131-14.6c-17.671,0-28.99,9.367-28.99,21.764,0,11.02,6.9,18.32,21.673,22.453,13.529,3.719,16.152,5.51,16.152,11.02,0,4.959-4.694,7.989-12.011,7.989a32.246,32.246,0,0,1-19.6-7.163l-9.664,10.745c6.9,6.336,17.118,10.606,29.819,10.606,17.394,0,31.612-8.54,31.612-23.692,0-12.948-8.282-19.009-22.915-23-12.839-3.719-15.324-5.648-15.324-9.918,0-3.995,3.59-6.612,10.078-6.612,6.35,0,12.286,2.066,18.222,5.785l7.455-11.158C689.433,40.728,680.46,37.422,669.831,37.422ZM15.619,147.211c-7.384,0-11.939,5.8-11.939,14.578,0,8.883,4.608,14.16,11.939,14.16a12.527,12.527,0,0,0,8.274-3.03l-2.042-2.874a9.9,9.9,0,0,1-6.074,2.142c-4.5,0-7.384-3.135-7.384-10.45,0-7.368,2.88-10.869,7.384-10.869a9.392,9.392,0,0,1,5.97,2.038l2.147-2.769A12.1,12.1,0,0,0,15.619,147.211Zm24.4,0c-7.7,0-12.149,5.8-12.149,14.421,0,8.726,4.4,14.317,12.1,14.317s12.149-5.8,12.149-14.421C52.113,152.749,47.767,147.211,40.016,147.211Zm0,3.553c4.765,0,7.384,3.5,7.384,10.764,0,7.367-2.671,10.868-7.436,10.868s-7.384-3.5-7.384-10.764C32.581,154.265,35.3,150.764,40.016,150.764Zm32.932-3.553a10.421,10.421,0,0,0-8.64,4.807l-0.366-4.18h-3.77v27.484h4.4V155.728c1.938-3.031,4.137-5.069,7.384-5.069,2.828,0,4.5,1.359,4.5,5.591v19.072h4.4v-19.7C80.855,150.4,78.028,147.211,72.948,147.211Zm38.168,13.481c0-8.308-3.822-13.481-11.206-13.481-7.017,0-11.311,6.009-11.311,14.63,0,8.726,4.451,14.108,12.044,14.108a14.634,14.634,0,0,0,9.478-3.448l-1.937-2.613a11.731,11.731,0,0,1-7.227,2.456c-4.137,0-7.279-2.613-7.7-9.249h17.752C111.064,162.521,111.116,161.632,111.116,160.692Zm-4.346-.836H93.26c0.367-6.427,2.932-9.144,6.755-9.144,4.556,0,6.755,3.187,6.755,8.726v0.418Zm22.144-12.645c-7.383,0-11.939,5.8-11.939,14.578,0,8.883,4.608,14.16,11.939,14.16a12.526,12.526,0,0,0,8.274-3.03l-2.042-2.874a9.9,9.9,0,0,1-6.074,2.142c-4.5,0-7.384-3.135-7.384-10.45,0-7.368,2.88-10.869,7.384-10.869a9.392,9.392,0,0,1,5.969,2.038l2.147-2.769A12.093,12.093,0,0,0,128.914,147.211Zm26.911,23.931a7.336,7.336,0,0,1-3.822,1.15c-2.462,0-3.457-1.359-3.457-4.233V151.234h6.18l0.471-3.4h-6.651v-6.793l-4.4.47v6.323h-4.766v3.4h4.766v17.034c0,5.017,2.723,7.681,7.279,7.681a10.549,10.549,0,0,0,6.074-1.828ZM180.59,169V156.25c0-5.695-2.985-9.039-9.53-9.039a25.775,25.775,0,0,0-9.321,1.881l1.1,3.239a23.221,23.221,0,0,1,7.436-1.515c3.98,0,5.918,1.568,5.918,5.643v2.195h-4.5c-7.541,0-11.939,3.135-11.939,8.987,0,4.912,3.246,8.308,8.692,8.308a9.292,9.292,0,0,0,8.274-4.232c0.733,2.717,2.461,3.867,5.132,4.232l1.047-3.082C181.428,172.344,180.59,171.56,180.59,169Zm-11.154,3.6c-3.3,0-5.027-1.828-5.027-5.173,0-3.919,2.723-5.852,7.855-5.852h3.928v6.584C174.568,171.09,172.421,172.605,169.436,172.605Zm37.54-36.367v14.421a9.99,9.99,0,0,0-7.488-3.448c-6.755,0-10.787,6.061-10.787,14.474,0,8.621,3.718,14.264,10.368,14.264a9.284,9.284,0,0,0,8.012-4.493l0.471,3.866h3.823V136.76Zm-7.017,36.211c-4.137,0-6.546-3.5-6.546-10.817s2.723-10.92,7.018-10.92c2.88,0,4.87,1.463,6.545,3.709v13.691C205.143,170.881,203.154,172.449,199.959,172.449Zm31.622-25.238c-7.7,0-12.149,5.8-12.149,14.421,0,8.726,4.4,14.317,12.1,14.317s12.149-5.8,12.149-14.421C243.678,152.749,239.332,147.211,231.581,147.211Zm0,3.553c4.766,0,7.384,3.5,7.384,10.764,0,7.367-2.671,10.868-7.436,10.868s-7.384-3.5-7.384-10.764C224.145,154.265,226.868,150.764,231.581,150.764Zm27.538-3.553c-5.551,0-9.74,3.135-9.74,7.472,0,3.866,2.357,6.322,8.326,7.89,5.394,1.463,6.808,2.508,6.808,5.382,0,2.769-2.409,4.441-6.127,4.441a12.5,12.5,0,0,1-7.8-2.717l-2.357,2.665a14.893,14.893,0,0,0,10.264,3.605c5.551,0,10.63-2.664,10.63-8.255,0-4.808-3.194-7-9.059-8.518-4.556-1.2-6.075-2.246-6.075-4.6s2.043-3.866,5.289-3.866a12.2,12.2,0,0,1,7.175,2.4l1.937-2.769A14.481,14.481,0,0,0,259.119,147.211Zm51.624,13.481c0-8.308-3.822-13.481-11.206-13.481-7.017,0-11.311,6.009-11.311,14.63,0,8.726,4.451,14.108,12.044,14.108a14.637,14.637,0,0,0,9.479-3.448l-1.938-2.613a11.731,11.731,0,0,1-7.227,2.456c-4.136,0-7.278-2.613-7.7-9.249h17.752C310.691,162.521,310.743,161.632,310.743,160.692Zm-4.346-.836h-13.51c0.366-6.427,2.932-9.144,6.755-9.144,4.556,0,6.755,3.187,6.755,8.726v0.418Zm24.868-12.645a10.422,10.422,0,0,0-8.641,4.807l-0.366-4.18h-3.771v27.484h4.4V155.728c1.938-3.031,4.137-5.069,7.384-5.069,2.827,0,4.5,1.359,4.5,5.591v19.072h4.4v-19.7C339.172,150.4,336.344,147.211,331.265,147.211Zm36.489-7.838h-4.5v35.949H382.1l0.524-3.971H367.754V139.373Zm23.035-4.494a3.032,3.032,0,1,0,3.142,3.031A2.953,2.953,0,0,0,390.789,134.879Zm2.252,12.959h-4.4v27.484h4.4V147.838Zm37.386-.627c-3.666,0-6.284,2.037-8.274,5.068a6.88,6.88,0,0,0-6.912-5.068c-3.614,0-6.18,1.933-8.117,4.807l-0.367-4.18h-3.77v27.484h4.4V155.728c1.885-3.031,3.718-5.069,6.755-5.069,2.3,0,4.084,1.359,4.084,5.591v19.072h4.4V155.728c1.938-3.031,3.718-5.069,6.755-5.069,2.3,0,4.085,1.359,4.085,5.591v19.072h4.4v-19.7C437.863,150.45,434.93,147.211,430.427,147.211ZM465.607,169V156.25c0-5.695-2.985-9.039-9.531-9.039a25.78,25.78,0,0,0-9.321,1.881l1.1,3.239a23.215,23.215,0,0,1,7.436-1.515c3.98,0,5.917,1.568,5.917,5.643v2.195h-4.5c-7.541,0-11.94,3.135-11.94,8.987,0,4.912,3.247,8.308,8.693,8.308a9.293,9.293,0,0,0,8.274-4.232c0.733,2.717,2.461,3.867,5.132,4.232l1.047-3.082C466.445,172.344,465.607,171.56,465.607,169Zm-11.154,3.6c-3.3,0-5.027-1.828-5.027-5.173,0-3.919,2.723-5.852,7.855-5.852h3.927v6.584C459.585,171.09,457.438,172.605,454.453,172.605Zm55.079-24.767h-4.556l-7.436,24.3-7.593-24.3h-4.713l9.321,27.484h1.519c-1.623,4.39-3.142,6.532-8.745,7.577l0.524,3.449c7.383-.941,10.473-5.017,12.41-10.869Zm32.51-9.092c-8.169,0-14.872,6.375-14.872,18.6,0,12.07,6.284,18.6,14.925,18.6a14.076,14.076,0,0,0,10.159-3.971L550,169.1c-2.095,1.568-4.294,2.979-7.75,2.979-5.761,0-10.264-4.233-10.264-14.735,0-11.026,4.661-14.84,10.316-14.84a10.77,10.77,0,0,1,7.069,2.665l2.462-2.926A14,14,0,0,0,542.042,138.746ZM575.917,169V156.25c0-5.695-2.985-9.039-9.53-9.039a25.78,25.78,0,0,0-9.321,1.881l1.1,3.239a23.221,23.221,0,0,1,7.436-1.515c3.98,0,5.918,1.568,5.918,5.643v2.195h-4.5c-7.541,0-11.939,3.135-11.939,8.987,0,4.912,3.246,8.308,8.692,8.308a9.292,9.292,0,0,0,8.274-4.232c0.733,2.717,2.461,3.867,5.132,4.232l1.047-3.082C576.755,172.344,575.917,171.56,575.917,169Zm-11.154,3.6c-3.3,0-5.027-1.828-5.027-5.173,0-3.919,2.723-5.852,7.855-5.852h3.928v6.584C569.9,171.09,567.748,172.605,564.763,172.605Zm26.125,3.344a8.07,8.07,0,0,0,3.666-.888l-1.152-3.083a4.991,4.991,0,0,1-1.833.314c-1.309,0-1.833-.784-1.833-2.3V136.238l-4.4.522V170.1C585.337,173.912,587.537,175.949,590.888,175.949Zm15.34,0a8.07,8.07,0,0,0,3.666-.888l-1.152-3.083a4.991,4.991,0,0,1-1.833.314c-1.309,0-1.833-.784-1.833-2.3V136.238l-4.4.522V170.1C600.677,173.912,602.877,175.949,606.228,175.949ZM634.189,169V156.25c0-5.695-2.985-9.039-9.531-9.039a25.78,25.78,0,0,0-9.321,1.881l1.1,3.239a23.215,23.215,0,0,1,7.436-1.515c3.98,0,5.917,1.568,5.917,5.643v2.195h-4.5c-7.541,0-11.94,3.135-11.94,8.987,0,4.912,3.247,8.308,8.693,8.308a9.293,9.293,0,0,0,8.274-4.232c0.733,2.717,2.461,3.867,5.132,4.232l1.047-3.082C635.027,172.344,634.189,171.56,634.189,169Zm-11.154,3.6c-3.3,0-5.027-1.828-5.027-5.173,0-3.919,2.723-5.852,7.855-5.852h3.927v6.584C628.167,171.09,626.02,172.605,623.035,172.605Zm31.413-25.394c-7.7,0-12.149,5.8-12.149,14.421,0,8.726,4.4,14.317,12.1,14.317s12.149-5.8,12.149-14.421C666.545,152.749,662.2,147.211,654.448,147.211Zm0,3.553c4.765,0,7.384,3.5,7.384,10.764,0,7.367-2.671,10.868-7.436,10.868s-7.384-3.5-7.384-10.764C647.012,154.265,649.735,150.764,654.448,150.764Z"/>
</svg>
