<svg xmlns="http://www.w3.org/2000/svg" width="856" height="235" viewBox="0 0 856 235">
  <defs>
    <style>
      .cls-1 {
        fill: #fff;
        fill-rule: evenodd;
      }
    </style>
  </defs>
  <path id="_709_millones_de_pies_cúbicos_por_día_de_volumen_facturado" data-name="709 millones de pies cúbicos por día de volumen facturado" class="cls-1" d="M58.8,17.788H3.779V31.738H39.767L9.993,101.233l16.7,5.554,32.1-76.34V17.788ZM97.5,16.109c-20.971,0-31.975,16.146-31.975,45.339,0,29.064,11,45.468,31.975,45.468,21.1,0,32.1-16.4,32.1-45.468C129.607,32.255,118.6,16.109,97.5,16.109Zm0,13.692c9.061,0,13.2,7.492,13.2,31.647,0,24.026-4.143,31.647-13.2,31.647S84.428,85.086,84.428,61.448,88.441,29.8,97.5,29.8Zm71.586-13.692c-17.476,0-31.327,11.5-31.327,29.709,0,17.7,11.133,28.547,24.725,28.547a22.17,22.17,0,0,0,18.383-8.913c-2.848,16.534-14.628,24.413-36.635,29.839l3.883,13.046c36.117-8.009,52.428-22.863,52.428-58.515C200.546,29.93,189.931,16.109,169.089,16.109ZM167.8,61.189c-6.473,0-11.651-4.133-11.651-15.888,0-10.463,5.049-15.888,12.945-15.888,9.192,0,12.946,6.2,12.687,23.509C178.151,58.218,173.361,61.189,167.8,61.189ZM320.027,34.322c-8.8,0-15.146,4-20.583,11.109-2.589-7.1-8.544-11.109-16.311-11.109-8.673,0-14.887,3.875-19.936,10.592l-1.423-8.525H245.851v68.461h18.382V57.573c3.366-6.071,6.732-9.559,11.78-9.559,3.754,0,6.732,2.2,6.732,10.075v46.76h18.382V57.573c3.5-6.071,6.861-9.559,11.91-9.559,3.624,0,6.731,2.2,6.731,10.075v46.76H338.15V54.989C338.15,42.072,330.772,34.322,320.027,34.322Zm44.66-33.2c-6.6,0-11.133,4.65-11.133,10.721s4.53,10.721,11.133,10.721,11.262-4.65,11.262-10.721S371.289,1.125,364.687,1.125Zm9.32,35.264H355.625v68.461h18.382V36.388Zm35.211,70.528A30.236,30.236,0,0,0,421,104.591l-3.754-13.046a7.9,7.9,0,0,1-3.625.775c-2.589,0-3.754-1.55-3.754-4.521V7.066L391.483,9.133V88.315C391.483,100.2,398.085,106.916,409.218,106.916Zm38.316,0a30.232,30.232,0,0,0,11.78-2.325L455.56,91.545a7.9,7.9,0,0,1-3.625.775c-2.589,0-3.754-1.55-3.754-4.521V7.066L429.8,9.133V88.315C429.8,100.2,436.4,106.916,447.534,106.916Zm49.451-72.594c-20.713,0-33.011,14.467-33.011,36.3,0,22.734,12.428,36.3,32.881,36.3,20.583,0,32.881-14.6,32.881-36.3C529.736,47.885,517.438,34.322,496.985,34.322Zm0,13.692c8.932,0,13.592,6.846,13.592,22.6,0,15.63-4.66,22.605-13.722,22.605s-13.722-6.846-13.722-22.605C483.133,54.989,487.794,48.014,496.985,48.014Zm85.049-13.692c-8.8,0-15.4,3.875-20.971,10.721l-1.424-8.655H543.717v68.461H562.1V57.573c3.754-6.071,7.9-9.559,13.2-9.559,4.66,0,7.508,2.2,7.508,10.075v46.76h18.382V54.989C601.193,42.072,594.073,34.322,582.034,34.322Zm94.629,34.747c0-21.83-11.521-34.747-30.939-34.747-20.065,0-31.2,16.017-31.2,36.685,0,21.442,11.521,35.91,33.528,35.91a40.509,40.509,0,0,0,26.02-9.3l-7.638-10.334c-5.955,4.133-10.874,5.942-16.7,5.942-8.8,0-15.017-3.875-16.311-17.051h42.849C676.4,74.236,676.663,71.394,676.663,69.069ZM658.41,64.677H633.426c0.906-12.917,5.437-17.826,12.686-17.826,8.8,0,12.3,6.717,12.3,17.051v0.775Zm54.369-30.355c-16.57,0-27.185,8.784-27.185,20.409,0,10.334,6.473,17.18,20.324,21.055,12.687,3.488,15.146,5.167,15.146,10.334,0,4.65-4.4,7.492-11.262,7.492a30.238,30.238,0,0,1-18.382-6.717L682.358,96.97c6.473,5.942,16.052,9.946,27.962,9.946,16.311,0,29.644-8.009,29.644-22.217,0-12.142-7.767-17.826-21.489-21.572-12.039-3.488-14.369-5.3-14.369-9.3,0-3.746,3.366-6.2,9.45-6.2,5.955,0,11.521,1.938,17.088,5.425l6.99-10.463C731.161,37.422,722.747,34.322,712.779,34.322ZM21.743,126.985v13.524a9.369,9.369,0,0,0-7.022-3.234c-6.335,0-10.116,5.684-10.116,13.572,0,8.085,3.487,13.377,9.723,13.377a8.707,8.707,0,0,0,7.513-4.214l0.442,3.626h3.585V127.475Zm-6.58,33.956c-3.879,0-6.138-3.283-6.138-10.143s2.553-10.24,6.58-10.24c2.7,0,4.567,1.372,6.138,3.479v12.837C20.024,159.471,18.158,160.941,15.163,160.941Zm39.376-11.025c0-7.79-3.585-12.641-10.509-12.641-6.58,0-10.607,5.635-10.607,13.719,0,8.183,4.174,13.23,11.294,13.23a13.723,13.723,0,0,0,8.888-3.234l-1.817-2.45a11,11,0,0,1-6.776,2.3c-3.879,0-6.826-2.45-7.219-8.673H54.441C54.49,151.631,54.539,150.8,54.539,149.916Zm-4.076-.784H37.794c0.344-6.026,2.75-8.574,6.335-8.574,4.272,0,6.335,2.989,6.335,8.182v0.392Zm36.083-11.857a9.335,9.335,0,0,0-7.709,4.165l-0.344-3.577H74.958v36.112l4.125-.49V161.137a8.426,8.426,0,0,0,6.924,3.087c6.58,0,10.067-5.635,10.067-13.524C96.073,142.518,93.274,137.275,86.547,137.275Zm-1.522,23.568a6.981,6.981,0,0,1-5.942-3.332V144.723c1.473-2.205,3.585-4.165,6.482-4.165,4.027,0,6.04,3.283,6.04,10.142C91.6,157.609,89.3,160.843,85.024,160.843Zm20.569-35.132a2.844,2.844,0,1,0,2.947,2.842A2.77,2.77,0,0,0,105.593,125.711Zm2.112,12.152H103.58v25.773h4.125V137.863Zm28.674,12.053c0-7.79-3.585-12.641-10.509-12.641-6.58,0-10.606,5.635-10.606,13.719,0,8.183,4.174,13.23,11.294,13.23a13.723,13.723,0,0,0,8.888-3.234l-1.817-2.45a11,11,0,0,1-6.777,2.3c-3.879,0-6.825-2.45-7.218-8.673h16.647C136.33,151.631,136.379,150.8,136.379,149.916Zm-4.076-.784H119.634c0.344-6.026,2.75-8.574,6.335-8.574,4.272,0,6.334,2.989,6.334,8.182v0.392Zm18.262-11.857c-5.206,0-9.134,2.94-9.134,7.007,0,3.625,2.21,5.928,7.808,7.4,5.058,1.372,6.383,2.352,6.383,5.047,0,2.6-2.258,4.165-5.745,4.165a11.723,11.723,0,0,1-7.317-2.548l-2.209,2.5a13.96,13.96,0,0,0,9.624,3.381c5.206,0,9.969-2.5,9.969-7.742,0-4.508-3-6.566-8.5-7.987-4.272-1.127-5.7-2.107-5.7-4.311s1.915-3.626,4.96-3.626a11.435,11.435,0,0,1,6.727,2.254l1.817-2.6A13.581,13.581,0,0,0,150.565,137.275Zm38.49,0c-6.924,0-11.2,5.439-11.2,13.67,0,8.33,4.321,13.279,11.2,13.279a11.744,11.744,0,0,0,7.759-2.842l-1.915-2.695a9.287,9.287,0,0,1-5.7,2.009c-4.224,0-6.924-2.94-6.924-9.8,0-6.908,2.7-10.191,6.924-10.191a8.806,8.806,0,0,1,5.6,1.911l2.013-2.6A11.341,11.341,0,0,0,189.055,137.275Zm26.611-12.691-9.625,5.488,1.277,2.2,10.214-4.165Zm5.745,13.279h-4.125v18.472c-1.62,2.695-3.781,4.606-6.727,4.606-2.9,0-4.223-1.372-4.223-5.047V137.863h-4.125v18.472c0,5.047,2.7,7.889,7.219,7.889,3.781,0,6.236-1.617,8.151-4.753l0.3,4.165h3.535V137.863Zm20.864-.588a8.888,8.888,0,0,0-7.415,3.871V126.985l-4.125.49v36.161h3.634l0.393-2.94a8.773,8.773,0,0,0,7.022,3.528c6.237,0,10.067-5.39,10.067-13.524C251.851,142.126,248.119,137.275,242.275,137.275ZM240.8,160.941a7.3,7.3,0,0,1-5.942-3.577v-12.69c1.424-2.156,3.339-4.116,6.286-4.116,3.83,0,6.236,2.744,6.236,10.142C247.382,157.854,244.78,160.941,240.8,160.941Zm20.569-35.23a2.844,2.844,0,1,0,2.946,2.842A2.77,2.77,0,0,0,261.371,125.711Zm2.111,12.152h-4.124v25.773h4.124V137.863Zm18.755-.588c-6.924,0-11.2,5.439-11.2,13.67,0,8.33,4.322,13.279,11.2,13.279A11.744,11.744,0,0,0,290,161.382l-1.915-2.695a9.287,9.287,0,0,1-5.7,2.009c-4.223,0-6.924-2.94-6.924-9.8,0-6.908,2.7-10.191,6.924-10.191a8.806,8.806,0,0,1,5.6,1.911l2.013-2.6A11.341,11.341,0,0,0,282.237,137.275Zm22.879,0c-7.218,0-11.392,5.439-11.392,13.523,0,8.183,4.125,13.426,11.343,13.426s11.393-5.439,11.393-13.524C316.46,142.469,312.384,137.275,305.116,137.275Zm0,3.332c4.469,0,6.924,3.283,6.924,10.093,0,6.909-2.5,10.192-6.973,10.192s-6.924-3.283-6.924-10.094C298.143,143.89,300.7,140.607,305.116,140.607Zm25.823-3.332c-5.205,0-9.133,2.94-9.133,7.007,0,3.625,2.21,5.928,7.808,7.4,5.058,1.372,6.383,2.352,6.383,5.047,0,2.6-2.258,4.165-5.745,4.165a11.723,11.723,0,0,1-7.317-2.548l-2.209,2.5a13.96,13.96,0,0,0,9.624,3.381c5.2,0,9.969-2.5,9.969-7.742,0-4.508-3-6.566-8.5-7.987-4.272-1.127-5.7-2.107-5.7-4.311s1.915-3.626,4.96-3.626a11.437,11.437,0,0,1,6.727,2.254l1.817-2.6A13.581,13.581,0,0,0,330.939,137.275Zm40.652,0a9.335,9.335,0,0,0-7.71,4.165l-0.344-3.577H360v36.112l4.125-.49V161.137a8.424,8.424,0,0,0,6.924,3.087c6.58,0,10.066-5.635,10.066-13.524C381.117,142.518,378.318,137.275,371.591,137.275Zm-1.522,23.568a6.98,6.98,0,0,1-5.942-3.332V144.723c1.473-2.205,3.584-4.165,6.482-4.165,4.026,0,6.04,3.283,6.04,10.142C376.649,157.609,374.341,160.843,370.069,160.843Zm28.18-23.568c-7.219,0-11.393,5.439-11.393,13.523,0,8.183,4.125,13.426,11.344,13.426s11.392-5.439,11.392-13.524C409.592,142.469,405.516,137.275,398.249,137.275Zm0,3.332c4.468,0,6.924,3.283,6.924,10.093,0,6.909-2.5,10.192-6.973,10.192s-6.924-3.283-6.924-10.094C391.276,143.89,393.829,140.607,398.249,140.607Zm29.85-3.332c-3.241,0-5.647,2.009-7.022,5.978l-0.393-5.39h-3.536v25.773h4.125V148.691c1.13-5.046,3.045-7.4,6.335-7.4a7.892,7.892,0,0,1,2.259.294l0.785-4.018A10.718,10.718,0,0,0,428.1,137.275Zm36.232-10.29v13.524a9.367,9.367,0,0,0-7.022-3.234c-6.335,0-10.116,5.684-10.116,13.572,0,8.085,3.487,13.377,9.723,13.377a8.706,8.706,0,0,0,7.513-4.214l0.442,3.626h3.585V127.475Zm-6.58,33.956c-3.879,0-6.138-3.283-6.138-10.143s2.553-10.24,6.58-10.24c2.7,0,4.567,1.372,6.138,3.479v12.837C462.612,159.471,460.746,160.941,457.751,160.941Zm26.461-36.357-9.625,5.488,1.277,2.2,10.214-4.165Zm-1.768,13.279h-4.125v25.773h4.125V137.863Zm26.317,19.844V145.751c0-5.34-2.8-8.476-8.937-8.476a24.176,24.176,0,0,0-8.741,1.764l1.031,3.038a21.754,21.754,0,0,1,6.973-1.421c3.732,0,5.549,1.47,5.549,5.291v2.058h-4.223c-7.071,0-11.2,2.94-11.2,8.428,0,4.606,3.045,7.791,8.151,7.791a8.715,8.715,0,0,0,7.759-3.969c0.688,2.548,2.308,3.626,4.813,3.969l0.982-2.891C509.547,160.843,508.761,160.108,508.761,157.707Zm-10.46,3.381c-3.093,0-4.714-1.715-4.714-4.851,0-3.675,2.554-5.488,7.366-5.488h3.683v6.174C503.114,159.667,501.1,161.088,498.3,161.088ZM21.743,185.772V199.3a9.369,9.369,0,0,0-7.022-3.234c-6.335,0-10.116,5.684-10.116,13.573,0,8.085,3.487,13.377,9.723,13.377a8.707,8.707,0,0,0,7.513-4.214l0.442,3.626h3.585V186.262Zm-6.58,33.956c-3.879,0-6.138-3.283-6.138-10.143s2.553-10.241,6.58-10.241c2.7,0,4.567,1.372,6.138,3.479v12.838C20.024,218.258,18.158,219.728,15.163,219.728ZM54.539,208.7c0-7.791-3.585-12.642-10.509-12.642-6.58,0-10.607,5.635-10.607,13.72,0,8.183,4.174,13.23,11.294,13.23a13.723,13.723,0,0,0,8.888-3.234l-1.817-2.45a11,11,0,0,1-6.776,2.3c-3.879,0-6.826-2.45-7.219-8.673H54.441C54.49,210.418,54.539,209.585,54.539,208.7Zm-4.076-.784H37.794c0.344-6.027,2.75-8.575,6.335-8.575,4.272,0,6.335,2.989,6.335,8.183v0.392Zm43.2-11.27H89.3l-6.924,22.1-7.022-22.1H70.833l8.986,25.774h5.009Zm14.678-.588c-7.219,0-11.392,5.439-11.392,13.524,0,8.183,4.124,13.426,11.344,13.426s11.392-5.439,11.392-13.524C119.688,201.255,115.613,196.061,108.345,196.061Zm0,3.332c4.469,0,6.924,3.283,6.924,10.094,0,6.909-2.505,10.192-6.973,10.192s-6.924-3.283-6.924-10.094C101.372,202.676,103.925,199.393,108.345,199.393Zm23.81,23.618a7.57,7.57,0,0,0,3.437-.833l-1.08-2.891a4.678,4.678,0,0,1-1.719.294c-1.227,0-1.718-.735-1.718-2.156V185.772l-4.125.49v31.261C126.95,221.1,129.012,223.011,132.155,223.011Zm28.38-26.362H156.41v18.473c-1.62,2.695-3.781,4.606-6.727,4.606-2.9,0-4.223-1.372-4.223-5.047V196.649h-4.125v18.473c0,5.047,2.7,7.889,7.218,7.889,3.781,0,6.237-1.617,8.152-4.753L157,222.423h3.536V196.649Zm35.055-.588c-3.437,0-5.892,1.911-7.758,4.753a6.451,6.451,0,0,0-6.482-4.753c-3.389,0-5.795,1.813-7.612,4.508l-0.343-3.92h-3.536v25.774h4.125V204.048c1.768-2.842,3.486-4.753,6.335-4.753,2.16,0,3.83,1.274,3.83,5.243v17.885h4.125V204.048c1.817-2.842,3.486-4.753,6.334-4.753,2.161,0,3.83,1.274,3.83,5.243v17.885h4.125V203.95C202.563,199.1,199.813,196.061,195.59,196.061ZM230.937,208.7c0-7.791-3.584-12.642-10.508-12.642-6.58,0-10.607,5.635-10.607,13.72,0,8.183,4.174,13.23,11.294,13.23A13.721,13.721,0,0,0,230,219.777l-1.817-2.45a11,11,0,0,1-6.776,2.3c-3.88,0-6.826-2.45-7.219-8.673h16.647C230.888,210.418,230.937,209.585,230.937,208.7Zm-4.075-.784h-12.67c0.344-6.027,2.75-8.575,6.335-8.575,4.272,0,6.335,2.989,6.335,8.183v0.392Zm23.319-11.858a9.773,9.773,0,0,0-8.1,4.508l-0.343-3.92H238.2v25.774h4.125V204.048c1.817-2.842,3.879-4.753,6.924-4.753,2.652,0,4.223,1.274,4.223,5.243v17.885H257.6V203.95C257.6,199.05,254.944,196.061,250.181,196.061Zm38.244-6.957a11.135,11.135,0,0,1,4.566.98l1.326-2.989a14.076,14.076,0,0,0-6.138-1.323c-5.058,0-7.857,2.94-7.857,7.2v3.674h-4.567v3.185h4.567v22.589h4.125V199.834h5.942l0.442-3.185h-6.384v-3.723C284.447,190.329,285.527,189.1,288.425,189.1Zm24.156,27.39V204.538c0-5.341-2.8-8.477-8.937-8.477a24.176,24.176,0,0,0-8.741,1.764l1.031,3.038a21.754,21.754,0,0,1,6.973-1.421c3.732,0,5.549,1.47,5.549,5.292v2.058h-4.223c-7.071,0-11.2,2.94-11.2,8.428,0,4.606,3.044,7.791,8.151,7.791a8.715,8.715,0,0,0,7.759-3.969c0.688,2.548,2.308,3.626,4.812,3.969l0.983-2.891C313.367,219.63,312.581,218.9,312.581,216.494Zm-10.46,3.381c-3.093,0-4.714-1.715-4.714-4.851,0-3.675,2.554-5.488,7.366-5.488h3.683v6.174C306.934,218.454,304.92,219.875,302.121,219.875Zm29.261-23.814c-6.924,0-11.2,5.439-11.2,13.671,0,8.33,4.321,13.279,11.2,13.279a11.744,11.744,0,0,0,7.759-2.842l-1.915-2.7a9.287,9.287,0,0,1-5.7,2.009c-4.223,0-6.924-2.94-6.924-9.8,0-6.909,2.7-10.192,6.924-10.192a8.806,8.806,0,0,1,5.6,1.911l2.013-2.6A11.341,11.341,0,0,0,331.382,196.061ZM356.618,218.5a6.884,6.884,0,0,1-3.585,1.078c-2.308,0-3.241-1.274-3.241-3.969V199.834h5.794l0.442-3.185h-6.236V190.28l-4.125.441v5.928H341.2v3.185h4.469v15.974c0,4.7,2.554,7.2,6.826,7.2a9.891,9.891,0,0,0,5.7-1.715Zm25.138-21.854h-4.125v18.473c-1.621,2.695-3.781,4.606-6.728,4.606-2.9,0-4.223-1.372-4.223-5.047V196.649h-4.125v18.473c0,5.047,2.7,7.889,7.219,7.889,3.781,0,6.236-1.617,8.152-4.753l0.294,4.165h3.536V196.649Zm20.274-.588c-3.241,0-5.647,2.009-7.022,5.978l-0.393-5.39H391.08v25.774h4.125V207.478c1.129-5.047,3.044-7.4,6.334-7.4a7.887,7.887,0,0,1,2.259.294l0.786-4.018A10.732,10.732,0,0,0,402.03,196.061Zm23.715,20.433V204.538c0-5.341-2.8-8.477-8.937-8.477a24.168,24.168,0,0,0-8.741,1.764l1.031,3.038a21.754,21.754,0,0,1,6.973-1.421c3.732,0,5.549,1.47,5.549,5.292v2.058H417.4c-7.071,0-11.2,2.94-11.2,8.428,0,4.606,3.044,7.791,8.151,7.791a8.715,8.715,0,0,0,7.759-3.969c0.687,2.548,2.308,3.626,4.812,3.969l0.982-2.891C426.53,219.63,425.745,218.9,425.745,216.494Zm-10.46,3.381c-3.093,0-4.714-1.715-4.714-4.851,0-3.675,2.554-5.488,7.366-5.488h3.683v6.174C420.1,218.454,418.084,219.875,415.285,219.875Zm35.2-34.1V199.3a9.369,9.369,0,0,0-7.022-3.234c-6.335,0-10.116,5.684-10.116,13.573,0,8.085,3.487,13.377,9.723,13.377a8.706,8.706,0,0,0,7.513-4.214l0.442,3.626h3.585V186.262Zm-6.58,33.956c-3.88,0-6.138-3.283-6.138-10.143s2.553-10.241,6.58-10.241c2.7,0,4.567,1.372,6.138,3.479v12.838C448.769,218.258,446.9,219.728,443.908,219.728Zm29.653-23.667c-7.218,0-11.392,5.439-11.392,13.524,0,8.183,4.124,13.426,11.343,13.426s11.392-5.439,11.392-13.524C484.9,201.255,480.829,196.061,473.561,196.061Zm0,3.332c4.469,0,6.924,3.283,6.924,10.094,0,6.909-2.5,10.192-6.973,10.192s-6.924-3.283-6.924-10.094C466.588,202.676,469.142,199.393,473.561,199.393Z"/>
</svg>
