<svg xmlns="http://www.w3.org/2000/svg" width="456" height="99" viewBox="0 0 456 99">
  <defs>
    <style>
      .cls-1 {
        fill: #fff;
        fill-rule: evenodd;
      }
    </style>
  </defs>
  <path id="_6.62_t_de_residuos_reciclados_" data-name="6.62 t   de residuos reciclados  " class="cls-1" d="M27.2,22.041a15.766,15.766,0,0,0-12.2,5.713c0.581-10.6,4.9-16.725,11.617-16.725a15.075,15.075,0,0,1,7.883,2.236l4.315-7.2A21.911,21.911,0,0,0,26.374,2.5C11.77,2.5,2.809,14.92,2.809,33.715c0,16.062,6.057,26.991,20.661,26.991,11.865,0,19.665-8.776,19.665-20.368C43.135,28.5,36.165,22.041,27.2,22.041ZM23.553,52.1c-5.974,0-8.381-4.8-8.547-16.642,2.489-3.146,5.642-5.133,9.127-5.133,4.481,0,7.136,2.567,7.136,10.184C31.27,47.541,28.78,52.1,23.553,52.1Zm31.779-5.547a7.079,7.079,0,1,0,7.136,7.038A7.093,7.093,0,0,0,55.332,46.548ZM92.422,22.041a15.766,15.766,0,0,0-12.2,5.713c0.581-10.6,4.9-16.725,11.617-16.725a15.074,15.074,0,0,1,7.883,2.236l4.315-7.2A21.91,21.91,0,0,0,91.592,2.5c-14.6,0-23.565,12.419-23.565,31.214,0,16.062,6.057,26.991,20.661,26.991,11.865,0,19.665-8.776,19.665-20.368C108.353,28.5,101.383,22.041,92.422,22.041ZM88.771,52.1c-5.974,0-8.38-4.8-8.546-16.642,2.489-3.146,5.642-5.133,9.127-5.133,4.481,0,7.136,2.567,7.136,10.184C96.487,47.541,94,52.1,88.771,52.1ZM129.181,2.5a22.487,22.487,0,0,0-18.67,9.356l7.053,5.63c3.4-4.057,6.306-5.878,10.538-5.878,4.564,0,7.634,2.9,7.634,7.7,0,7.452-4.564,12.585-23.565,31.545v8.528h35.6l1.328-9.107H125.613c17.341-16.228,22.237-22.934,22.237-31.959C147.85,9.621,141.129,2.5,129.181,2.5Zm71.19,47.359a10.332,10.332,0,0,1-4.978,1.49c-2.987,0-4.4-1.656-4.4-5.961V23.779h8.962l1.161-8.279H191V4.488L179.213,5.9v9.6h-6.555v8.279h6.555V45.637c0,9.77,4.646,14.986,13.774,15.069a20.825,20.825,0,0,0,11.45-3.395ZM12.166,73.569v8.668a6.005,6.005,0,0,0-4.5-2.073c-4.06,0-6.484,3.643-6.484,8.7,0,5.182,2.235,8.574,6.232,8.574a5.581,5.581,0,0,0,4.816-2.7l0.283,2.324h2.3V73.883ZM7.948,95.334c-2.487,0-3.934-2.1-3.934-6.5s1.637-6.564,4.218-6.564a4.737,4.737,0,0,1,3.934,2.23v8.229C11.064,94.392,9.868,95.334,7.948,95.334Zm25.239-7.067c0-4.994-2.3-8.1-6.736-8.1-4.218,0-6.8,3.612-6.8,8.794,0,5.245,2.675,8.48,7.239,8.48a8.8,8.8,0,0,0,5.7-2.073L31.425,93.8a7.05,7.05,0,0,1-4.344,1.476c-2.487,0-4.375-1.57-4.627-5.559h10.67C33.156,89.367,33.187,88.833,33.187,88.268Zm-2.613-.5H22.454c0.22-3.863,1.763-5.5,4.06-5.5,2.738,0,4.06,1.916,4.06,5.245v0.251Zm22.719-7.6c-2.077,0-3.62,1.288-4.5,3.832l-0.252-3.455H46.275v16.52h2.644V87.483c0.724-3.235,1.951-4.742,4.06-4.742a5.054,5.054,0,0,1,1.448.189l0.5-2.575A6.877,6.877,0,0,0,53.294,80.165Zm16.742,8.1c0-4.994-2.3-8.1-6.736-8.1-4.218,0-6.8,3.612-6.8,8.794,0,5.245,2.675,8.48,7.239,8.48a8.8,8.8,0,0,0,5.7-2.073L68.274,93.8a7.051,7.051,0,0,1-4.344,1.476c-2.487,0-4.375-1.57-4.627-5.559h10.67C70,89.367,70.036,88.833,70.036,88.268Zm-2.612-.5H59.3c0.22-3.863,1.763-5.5,4.06-5.5,2.738,0,4.06,1.916,4.06,5.245v0.251Zm11.705-7.6c-3.336,0-5.854,1.884-5.854,4.491,0,2.324,1.416,3.8,5,4.742,3.242,0.879,4.092,1.508,4.092,3.235,0,1.665-1.448,2.67-3.683,2.67A7.513,7.513,0,0,1,74,93.67l-1.416,1.6a8.95,8.95,0,0,0,6.169,2.167c3.336,0,6.389-1.6,6.389-4.962,0-2.889-1.92-4.209-5.445-5.119-2.738-.722-3.651-1.35-3.651-2.764s1.228-2.324,3.179-2.324a7.331,7.331,0,0,1,4.312,1.445L84.7,82.049A8.705,8.705,0,0,0,79.129,80.165Zm11.485-7.412A1.823,1.823,0,1,0,92.5,74.574,1.776,1.776,0,0,0,90.614,72.753Zm1.353,7.789H89.324v16.52h2.644V80.542Zm15.83-6.972v8.668a6.007,6.007,0,0,0-4.5-2.073c-4.061,0-6.484,3.643-6.484,8.7,0,5.182,2.235,8.574,6.232,8.574a5.581,5.581,0,0,0,4.816-2.7l0.283,2.324h2.3V73.883ZM103.58,95.334c-2.487,0-3.934-2.1-3.934-6.5s1.636-6.564,4.218-6.564A4.74,4.74,0,0,1,107.8,84.5v8.229C106.7,94.392,105.5,95.334,103.58,95.334Zm24.956-14.793h-2.644v11.84c-1.039,1.727-2.424,2.952-4.312,2.952-1.857,0-2.707-.879-2.707-3.235V80.542h-2.644v11.84c0,3.235,1.731,5.057,4.627,5.057a5.653,5.653,0,0,0,5.225-3.046l0.188,2.67h2.267V80.542Zm12.145-.377c-4.627,0-7.3,3.486-7.3,8.668,0,5.245,2.644,8.605,7.271,8.605s7.3-3.486,7.3-8.668C147.952,83.494,145.34,80.165,140.681,80.165Zm0,2.136c2.865,0,4.438,2.1,4.438,6.47,0,4.428-1.6,6.533-4.469,6.533s-4.438-2.1-4.438-6.47C136.212,84.4,137.849,82.3,140.681,82.3Zm16.552-2.136c-3.336,0-5.854,1.884-5.854,4.491,0,2.324,1.416,3.8,5,4.742,3.242,0.879,4.092,1.508,4.092,3.235,0,1.665-1.448,2.67-3.682,2.67a7.513,7.513,0,0,1-4.69-1.633l-1.417,1.6a8.953,8.953,0,0,0,6.17,2.167c3.336,0,6.389-1.6,6.389-4.962,0-2.889-1.92-4.209-5.445-5.119-2.738-.722-3.651-1.35-3.651-2.764s1.227-2.324,3.179-2.324a7.331,7.331,0,0,1,4.312,1.445l1.164-1.665A8.7,8.7,0,0,0,157.233,80.165Zm25.647,0c-2.077,0-3.619,1.288-4.5,3.832l-0.251-3.455h-2.267v16.52h2.644V87.483c0.724-3.235,1.952-4.742,4.061-4.742a5.06,5.06,0,0,1,1.448.189l0.5-2.575A6.873,6.873,0,0,0,182.88,80.165Zm16.743,8.1c0-4.994-2.3-8.1-6.736-8.1-4.218,0-6.8,3.612-6.8,8.794,0,5.245,2.676,8.48,7.24,8.48a8.8,8.8,0,0,0,5.7-2.073L197.86,93.8a7.05,7.05,0,0,1-4.343,1.476c-2.487,0-4.376-1.57-4.627-5.559h10.67C199.591,89.367,199.623,88.833,199.623,88.268Zm-2.613-.5h-8.12c0.22-3.863,1.762-5.5,4.06-5.5,2.738,0,4.06,1.916,4.06,5.245v0.251Zm13.311-7.6c-4.438,0-7.177,3.486-7.177,8.763,0,5.339,2.77,8.511,7.177,8.511a7.53,7.53,0,0,0,4.973-1.822l-1.228-1.727a5.951,5.951,0,0,1-3.651,1.288c-2.707,0-4.438-1.884-4.438-6.281,0-4.428,1.731-6.533,4.438-6.533A5.642,5.642,0,0,1,214,83.588l1.291-1.665A7.27,7.27,0,0,0,210.321,80.165Zm10.226-7.412a1.823,1.823,0,1,0,1.888,1.822A1.775,1.775,0,0,0,220.547,72.753Zm1.353,7.789h-2.644v16.52H221.9V80.542Zm12.022-.377c-4.438,0-7.177,3.486-7.177,8.763,0,5.339,2.77,8.511,7.177,8.511a7.53,7.53,0,0,0,4.973-1.822l-1.228-1.727a5.951,5.951,0,0,1-3.651,1.288c-2.707,0-4.438-1.884-4.438-6.281,0-4.428,1.731-6.533,4.438-6.533a5.642,5.642,0,0,1,3.588,1.225l1.291-1.665A7.27,7.27,0,0,0,233.922,80.165Zm12.083,17.274a4.854,4.854,0,0,0,2.2-.534l-0.692-1.853a3,3,0,0,1-1.1.188c-0.787,0-1.1-.471-1.1-1.382V73.569l-2.644.314V93.921C242.669,96.214,243.991,97.439,246.005,97.439Zm16.806-4.177V85.6c0-3.423-1.794-5.433-5.728-5.433a15.494,15.494,0,0,0-5.6,1.131l0.661,1.947a13.947,13.947,0,0,1,4.47-.911c2.392,0,3.556.942,3.556,3.392v1.319H257.46c-4.532,0-7.176,1.884-7.176,5.4,0,2.952,1.952,4.994,5.225,4.994a5.586,5.586,0,0,0,4.973-2.544,3.253,3.253,0,0,0,3.085,2.544l0.629-1.853C263.315,95.272,262.811,94.8,262.811,93.262Zm-6.7,2.167c-1.983,0-3.022-1.1-3.022-3.109,0-2.356,1.637-3.518,4.722-3.518h2.36v3.957A4.453,4.453,0,0,1,256.107,95.429Zm22.564-21.859v8.668a6.006,6.006,0,0,0-4.5-2.073c-4.06,0-6.484,3.643-6.484,8.7,0,5.182,2.235,8.574,6.232,8.574a5.581,5.581,0,0,0,4.816-2.7l0.283,2.324h2.3V73.883Zm-4.218,21.765c-2.486,0-3.934-2.1-3.934-6.5s1.636-6.564,4.217-6.564a4.737,4.737,0,0,1,3.935,2.23v8.229C277.569,94.392,276.373,95.334,274.453,95.334ZM293.46,80.165c-4.627,0-7.3,3.486-7.3,8.668,0,5.245,2.644,8.605,7.271,8.605s7.3-3.486,7.3-8.668C300.731,83.494,298.118,80.165,293.46,80.165Zm0,2.136c2.864,0,4.438,2.1,4.438,6.47,0,4.428-1.605,6.533-4.469,6.533s-4.438-2.1-4.438-6.47C288.991,84.4,290.627,82.3,293.46,82.3Zm16.552-2.136c-3.336,0-5.854,1.884-5.854,4.491,0,2.324,1.416,3.8,5,4.742,3.242,0.879,4.092,1.508,4.092,3.235,0,1.665-1.448,2.67-3.683,2.67a7.511,7.511,0,0,1-4.689-1.633l-1.417,1.6a8.952,8.952,0,0,0,6.169,2.167c3.337,0,6.39-1.6,6.39-4.962,0-2.889-1.92-4.209-5.445-5.119-2.739-.722-3.651-1.35-3.651-2.764s1.227-2.324,3.179-2.324a7.333,7.333,0,0,1,4.312,1.445l1.164-1.665A8.7,8.7,0,0,0,310.012,80.165Z"/>
</svg>
