<svg xmlns="http://www.w3.org/2000/svg" width="445" height="193" viewBox="0 0 445 193">
  <defs>
    <style>
      .cls-1 {
        fill: #fff;
        fill-rule: evenodd;
      }
    </style>
  </defs>
  <path id="_85.5_millones_de_toneladas_de_CO2_eq_evitadas_al_ambiente_eq" data-name="85.5 millones  de toneladas de CO2 eq evitadas al  ambiente, eq" class="cls-1" d="M23.809,21.325c4.717-2.477,6.828-5.7,6.828-9.414,0-6.937-6.269-10.715-14.09-10.715C8.664,1.2,2.457,5.47,2.457,12.283c0,3.964,1.738,7.308,6.207,9.848C3.761,24.3.781,27.58,0.781,32.659c0,6.689,5.835,12.077,15.579,12.077,9.931,0,15.89-5.45,15.89-12.263C32.25,27.58,29.519,23.988,23.809,21.325ZM16.609,7.2c3.6,0,5.462,2.106,5.462,5.141,0,2.787-.993,4.769-4.1,6.751l-1.241-.434c-3.724-1.486-5.71-3.035-5.71-6.255C11.023,9,13.2,7.2,16.609,7.2Zm0,31.091c-4.283,0-6.952-2.291-6.952-6.008a8.2,8.2,0,0,1,4.655-7.742L16.3,25.227c5.152,1.858,7.076,3.53,7.076,7.184C23.375,35.818,21.016,38.3,16.609,38.3ZM63.1,2H38.146V24.174h6.145A10.166,10.166,0,0,1,49.5,22.688c3.662,0,6.331,1.92,6.331,7.37,0,5.141-2.731,7.928-7.2,7.928a10.541,10.541,0,0,1-8.317-3.964l-4.966,4.645a17.273,17.273,0,0,0,13.531,6.07c9.683,0,16.014-6.008,16.014-14.679,0-8.547-5.09-13.5-11.979-13.5a14.89,14.89,0,0,0-6.331,1.424v-9.6H62.043ZM74.456,34.145a5.3,5.3,0,1,0,5.338,5.264A5.306,5.306,0,0,0,74.456,34.145ZM111.324,2H86.372V24.174h6.145a10.166,10.166,0,0,1,5.214-1.486c3.662,0,6.331,1.92,6.331,7.37,0,5.141-2.731,7.928-7.2,7.928a10.541,10.541,0,0,1-8.317-3.964l-4.965,4.645a17.273,17.273,0,0,0,13.531,6.07c9.683,0,16.014-6.008,16.014-14.679,0-8.547-5.089-13.5-11.979-13.5a14.89,14.89,0,0,0-6.331,1.424v-9.6h15.455Zm59.027,7.928c-4.221,0-7.262,1.92-9.869,5.326a7.874,7.874,0,0,0-7.821-5.326c-4.159,0-7.138,1.858-9.559,5.079l-0.683-4.088h-7.634V43.745H143.6V21.077c1.614-2.911,3.227-4.583,5.648-4.583,1.8,0,3.228,1.053,3.228,4.831v22.42h8.813V21.077c1.676-2.911,3.29-4.583,5.711-4.583,1.738,0,3.227,1.053,3.227,4.831v22.42h8.814V19.839C179.04,13.645,175.5,9.929,170.351,9.929ZM191.764-5.988a5.067,5.067,0,0,0-5.338,5.141,5.067,5.067,0,0,0,5.338,5.141,5.12,5.12,0,0,0,5.4-5.141A5.12,5.12,0,0,0,191.764-5.988Zm4.469,16.908h-8.814V43.745h8.814V10.92Zm16.882,33.816a14.5,14.5,0,0,0,5.649-1.115l-1.8-6.255a3.789,3.789,0,0,1-1.738.372c-1.242,0-1.8-.743-1.8-2.168V-3.139l-8.814.991V35.818C204.612,41.516,207.777,44.736,213.115,44.736Zm18.372,0a14.492,14.492,0,0,0,5.648-1.115l-1.8-6.255a3.782,3.782,0,0,1-1.737.372c-1.242,0-1.8-.743-1.8-2.168V-3.139l-8.813.991V35.818C222.984,41.516,226.149,44.736,231.487,44.736ZM255.2,9.929c-9.932,0-15.828,6.937-15.828,17.4,0,10.9,5.959,17.4,15.765,17.4,9.869,0,15.766-7,15.766-17.4C270.9,16.432,265,9.929,255.2,9.929Zm0,6.565c4.282,0,6.517,3.282,6.517,10.839,0,7.494-2.235,10.839-6.58,10.839s-6.579-3.283-6.579-10.839C248.556,19.839,250.791,16.494,255.2,16.494Zm40.779-6.565c-4.221,0-7.386,1.858-10.055,5.141l-0.683-4.15H277.6V43.745h8.814V21.077c1.8-2.911,3.786-4.583,6.331-4.583,2.235,0,3.6,1.053,3.6,4.831v22.42h8.814V19.839C305.163,13.645,301.749,9.929,295.977,9.929Zm45.372,16.66c0-10.467-5.524-16.66-14.835-16.66-9.62,0-14.958,7.68-14.958,17.589,0,10.281,5.524,17.218,16.076,17.218a19.426,19.426,0,0,0,12.476-4.459l-3.663-4.955a13.333,13.333,0,0,1-8.006,2.849c-4.221,0-7.2-1.858-7.821-8.175h20.545C341.225,29.067,341.349,27.7,341.349,26.589ZM332.6,24.484H320.618c0.434-6.193,2.607-8.547,6.083-8.547,4.22,0,5.9,3.221,5.9,8.175v0.372ZM358.666,9.929c-7.945,0-13.035,4.212-13.035,9.786,0,4.955,3.1,8.237,9.745,10.1,6.083,1.672,7.262,2.477,7.262,4.955,0,2.23-2.11,3.592-5.4,3.592a14.5,14.5,0,0,1-8.814-3.221l-4.344,4.831a19.525,19.525,0,0,0,13.406,4.769c7.821,0,14.214-3.84,14.214-10.653,0-5.822-3.724-8.547-10.3-10.343-5.773-1.672-6.89-2.539-6.89-4.459,0-1.8,1.614-2.973,4.531-2.973a15.224,15.224,0,0,1,8.193,2.6l3.352-5.017A18.757,18.757,0,0,0,358.666,9.929ZM8.339,54.359v6.484a4.492,4.492,0,0,0-3.367-1.551c-3.037,0-4.85,2.725-4.85,6.508,0,3.877,1.672,6.414,4.662,6.414a4.175,4.175,0,0,0,3.6-2.02L8.6,71.932h1.719V54.594ZM5.184,70.64c-1.86,0-2.943-1.574-2.943-4.863s1.224-4.91,3.155-4.91a3.544,3.544,0,0,1,2.943,1.668V68.69A3.577,3.577,0,0,1,5.184,70.64Zm18.88-5.286c0-3.736-1.719-6.061-5.039-6.061-3.155,0-5.086,2.7-5.086,6.578,0,3.924,2,6.343,5.415,6.343a6.58,6.58,0,0,0,4.262-1.551l-0.871-1.175a5.274,5.274,0,0,1-3.249,1.1c-1.86,0-3.273-1.175-3.461-4.158h7.982C24.041,66.176,24.064,65.777,24.064,65.354Zm-1.954-.376H16.035c0.165-2.89,1.319-4.111,3.037-4.111,2.048,0,3.037,1.433,3.037,3.924v0.188Zm17.16,5.075a3.3,3.3,0,0,1-1.719.517c-1.107,0-1.554-.611-1.554-1.9V61.1h2.778l0.212-1.527H36V56.52l-1.978.211v2.843H31.877V61.1h2.143v7.659c0,2.255,1.224,3.454,3.273,3.454a4.741,4.741,0,0,0,2.731-.822Zm7.274-10.76c-3.461,0-5.462,2.608-5.462,6.484,0,3.923,1.978,6.437,5.439,6.437s5.462-2.608,5.462-6.484C51.983,61.783,50.028,59.293,46.544,59.293Zm0,1.6c2.143,0,3.32,1.574,3.32,4.84,0,3.313-1.2,4.887-3.343,4.887s-3.32-1.574-3.32-4.84C43.2,62.464,44.425,60.89,46.544,60.89Zm14.807-1.6a4.686,4.686,0,0,0-3.885,2.161L57.3,59.574h-1.7V71.932h1.978v-8.81c0.871-1.363,1.86-2.279,3.32-2.279,1.271,0,2.025.611,2.025,2.514v8.575h1.978V63.075C64.906,60.726,63.634,59.293,61.351,59.293Zm17.161,6.061c0-3.736-1.719-6.061-5.039-6.061-3.155,0-5.086,2.7-5.086,6.578,0,3.924,2,6.343,5.415,6.343a6.58,6.58,0,0,0,4.262-1.551l-0.871-1.175a5.274,5.274,0,0,1-3.249,1.1c-1.86,0-3.273-1.175-3.461-4.158h7.982C78.488,66.176,78.512,65.777,78.512,65.354Zm-1.954-.376H70.483c0.165-2.89,1.319-4.111,3.037-4.111,2.048,0,3.037,1.433,3.037,3.924v0.188Zm7.791,7.236a3.632,3.632,0,0,0,1.648-.4l-0.518-1.386a2.245,2.245,0,0,1-.824.141c-0.589,0-.824-0.352-0.824-1.034V54.359l-1.978.235V69.583A2.352,2.352,0,0,0,84.348,72.214ZM96.92,69.089V63.357c0-2.561-1.342-4.064-4.285-4.064a11.591,11.591,0,0,0-4.191.846l0.494,1.457a10.43,10.43,0,0,1,3.343-.681c1.789,0,2.661.7,2.661,2.537v0.987H92.917c-3.39,0-5.368,1.41-5.368,4.041a3.577,3.577,0,0,0,3.909,3.736,4.178,4.178,0,0,0,3.72-1.9,2.434,2.434,0,0,0,2.307,1.9l0.471-1.386A1.486,1.486,0,0,1,96.92,69.089ZM91.9,70.711a2.056,2.056,0,0,1-2.26-2.326c0-1.762,1.224-2.631,3.532-2.631h1.766v2.96A3.332,3.332,0,0,1,91.9,70.711Zm16.879-16.352v6.484a4.493,4.493,0,0,0-3.367-1.551c-3.038,0-4.85,2.725-4.85,6.508,0,3.877,1.671,6.414,4.661,6.414a4.175,4.175,0,0,0,3.6-2.02l0.212,1.739h1.718V54.594ZM105.629,70.64c-1.86,0-2.943-1.574-2.943-4.863s1.224-4.91,3.155-4.91a3.544,3.544,0,0,1,2.943,1.668V68.69A3.577,3.577,0,0,1,105.629,70.64Zm17.749-1.551V63.357c0-2.561-1.342-4.064-4.285-4.064a11.6,11.6,0,0,0-4.191.846l0.5,1.457a10.424,10.424,0,0,1,3.343-.681c1.79,0,2.661.7,2.661,2.537v0.987h-2.025c-3.391,0-5.368,1.41-5.368,4.041a3.577,3.577,0,0,0,3.908,3.736,4.177,4.177,0,0,0,3.72-1.9,2.434,2.434,0,0,0,2.308,1.9l0.47-1.386A1.486,1.486,0,0,1,123.378,69.089Zm-5.015,1.621a2.056,2.056,0,0,1-2.26-2.326c0-1.762,1.224-2.631,3.532-2.631H121.4v2.96A3.333,3.333,0,0,1,118.363,70.711Zm12.829-11.418c-2.5,0-4.379,1.41-4.379,3.36,0,1.739,1.06,2.843,3.744,3.548,2.425,0.658,3.061,1.128,3.061,2.42,0,1.245-1.083,2-2.755,2a5.62,5.62,0,0,1-3.508-1.222l-1.06,1.2a6.7,6.7,0,0,0,4.615,1.621c2.5,0,4.78-1.2,4.78-3.712,0-2.162-1.437-3.148-4.074-3.829-2.048-.54-2.731-1.01-2.731-2.068s0.918-1.739,2.378-1.739a5.486,5.486,0,0,1,3.226,1.081L135.36,60.7A6.513,6.513,0,0,0,131.192,59.293ZM152.5,54.359v6.484a4.493,4.493,0,0,0-3.367-1.551c-3.037,0-4.85,2.725-4.85,6.508,0,3.877,1.671,6.414,4.661,6.414a4.175,4.175,0,0,0,3.6-2.02l0.212,1.739h1.719V54.594ZM149.342,70.64c-1.86,0-2.943-1.574-2.943-4.863s1.224-4.91,3.155-4.91a3.544,3.544,0,0,1,2.943,1.668V68.69A3.577,3.577,0,0,1,149.342,70.64Zm18.88-5.286c0-3.736-1.719-6.061-5.039-6.061-3.155,0-5.086,2.7-5.086,6.578,0,3.924,2,6.343,5.416,6.343a6.577,6.577,0,0,0,4.261-1.551L166.9,69.489a5.273,5.273,0,0,1-3.249,1.1c-1.86,0-3.273-1.175-3.461-4.158h7.982C168.2,66.176,168.222,65.777,168.222,65.354Zm-1.955-.376h-6.074c0.165-2.89,1.318-4.111,3.037-4.111,2.049,0,3.037,1.433,3.037,3.924v0.188Zm17.561-9.492c-3.673,0-6.687,2.866-6.687,8.364,0,5.427,2.825,8.364,6.71,8.364a6.328,6.328,0,0,0,4.568-1.785l-1.013-1.292a5.434,5.434,0,0,1-3.484,1.339c-2.59,0-4.615-1.9-4.615-6.625,0-4.957,2.095-6.672,4.638-6.672a4.843,4.843,0,0,1,3.179,1.2l1.107-1.316A6.3,6.3,0,0,0,183.828,55.486Zm12.759,0c-4,0-6.781,3.078-6.781,8.411,0,5.4,2.754,8.317,6.781,8.317,4.049,0,6.781-3.007,6.781-8.34C203.368,58.423,200.613,55.486,196.587,55.486Zm0,1.692c2.849,0,4.614,1.974,4.614,6.7s-1.789,6.649-4.614,6.649c-2.732,0-4.615-1.926-4.615-6.625C191.972,59.152,193.808,57.178,196.587,57.178Zm11.258,8.444a3.351,3.351,0,0,0-2.745,1.356l0.755,0.6a2.411,2.411,0,0,1,1.935-1.014,1.465,1.465,0,0,1,1.551,1.589c0,1.52-.8,2.41-4.063,5.834v0.918h5.354l0.137-.972H206.6c2.869-2.9,3.953-4.1,3.953-5.834A2.476,2.476,0,0,0,207.845,65.622Zm21.445-.268c0-3.736-1.719-6.061-5.039-6.061-3.155,0-5.086,2.7-5.086,6.578,0,3.924,2,6.343,5.416,6.343a6.577,6.577,0,0,0,4.261-1.551l-0.871-1.175a5.273,5.273,0,0,1-3.249,1.1c-1.86,0-3.273-1.175-3.461-4.158h7.982C229.266,66.176,229.29,65.777,229.29,65.354Zm-1.954-.376h-6.075c0.165-2.89,1.318-4.111,3.037-4.111,2.049,0,3.038,1.433,3.038,3.924v0.188Zm13.088-5.4-0.142,1.41a4.553,4.553,0,0,0-3.508-1.692c-3.037,0-4.85,2.725-4.85,6.508,0,3.877,1.672,6.414,4.662,6.414a4.205,4.205,0,0,0,3.555-1.927v6.367l1.978,0.235V59.574h-1.695ZM237.01,70.64c-1.884,0-2.967-1.574-2.967-4.863s1.224-4.91,3.155-4.91a3.543,3.543,0,0,1,2.943,1.668V68.69A3.569,3.569,0,0,1,237.01,70.64Zm25.165-5.286c0-3.736-1.719-6.061-5.039-6.061-3.155,0-5.086,2.7-5.086,6.578,0,3.924,2,6.343,5.416,6.343a6.579,6.579,0,0,0,4.261-1.551l-0.871-1.175a5.273,5.273,0,0,1-3.249,1.1c-1.86,0-3.273-1.175-3.461-4.158h7.982C262.151,66.176,262.175,65.777,262.175,65.354Zm-1.955-.376h-6.074c0.165-2.89,1.318-4.111,3.037-4.111,2.048,0,3.037,1.433,3.037,3.924v0.188Zm14.313-5.4h-2.1l-3.319,10.6-3.367-10.6h-2.166l4.308,12.358h2.4Zm3.459-5.826a1.364,1.364,0,1,0,1.412,1.363A1.328,1.328,0,0,0,277.992,53.748ZM279,59.574h-1.978V71.932H279V59.574Zm9.887,10.478a3.3,3.3,0,0,1-1.718.517c-1.107,0-1.554-.611-1.554-1.9V61.1H288.4l0.212-1.527h-2.99V56.52l-1.978.211v2.843H281.5V61.1h2.143v7.659c0,2.255,1.224,3.454,3.273,3.454a4.742,4.742,0,0,0,2.731-.822Zm11.135-.963V63.357c0-2.561-1.342-4.064-4.285-4.064a11.589,11.589,0,0,0-4.191.846l0.5,1.457a10.424,10.424,0,0,1,3.343-.681c1.789,0,2.66.7,2.66,2.537v0.987h-2.024c-3.391,0-5.369,1.41-5.369,4.041a3.578,3.578,0,0,0,3.909,3.736,4.179,4.179,0,0,0,3.72-1.9,2.434,2.434,0,0,0,2.307,1.9l0.471-1.386A1.486,1.486,0,0,1,300.026,69.089Zm-5.015,1.621a2.056,2.056,0,0,1-2.26-2.326c0-1.762,1.224-2.631,3.532-2.631h1.765v2.96A3.331,3.331,0,0,1,295.011,70.711ZM311.89,54.359v6.484a4.493,4.493,0,0,0-3.367-1.551c-3.037,0-4.85,2.725-4.85,6.508,0,3.877,1.671,6.414,4.662,6.414a4.175,4.175,0,0,0,3.6-2.02l0.212,1.739h1.719V54.594ZM308.735,70.64c-1.86,0-2.943-1.574-2.943-4.863s1.224-4.91,3.155-4.91a3.543,3.543,0,0,1,2.943,1.668V68.69A3.577,3.577,0,0,1,308.735,70.64Zm17.75-1.551V63.357c0-2.561-1.342-4.064-4.285-4.064a11.589,11.589,0,0,0-4.191.846l0.494,1.457a10.429,10.429,0,0,1,3.343-.681c1.79,0,2.661.7,2.661,2.537v0.987h-2.025c-3.39,0-5.368,1.41-5.368,4.041a3.577,3.577,0,0,0,3.908,3.736,4.177,4.177,0,0,0,3.72-1.9,2.434,2.434,0,0,0,2.308,1.9l0.471-1.386A1.485,1.485,0,0,1,326.485,69.089Zm-5.015,1.621a2.056,2.056,0,0,1-2.261-2.326c0-1.762,1.225-2.631,3.532-2.631h1.766v2.96A3.332,3.332,0,0,1,321.47,70.711ZM334.3,59.293c-2.5,0-4.38,1.41-4.38,3.36,0,1.739,1.06,2.843,3.744,3.548,2.425,0.658,3.061,1.128,3.061,2.42,0,1.245-1.083,2-2.755,2a5.62,5.62,0,0,1-3.508-1.222l-1.06,1.2a6.7,6.7,0,0,0,4.615,1.621c2.5,0,4.78-1.2,4.78-3.712,0-2.162-1.436-3.148-4.073-3.829-2.049-.54-2.732-1.01-2.732-2.068s0.919-1.739,2.378-1.739a5.483,5.483,0,0,1,3.226,1.081l0.871-1.245A6.51,6.51,0,0,0,334.3,59.293Zm22.081,9.8V63.357c0-2.561-1.342-4.064-4.285-4.064a11.589,11.589,0,0,0-4.191.846l0.494,1.457a10.434,10.434,0,0,1,3.344-.681c1.789,0,2.66.7,2.66,2.537v0.987h-2.025c-3.39,0-5.368,1.41-5.368,4.041a3.578,3.578,0,0,0,3.909,3.736,4.179,4.179,0,0,0,3.72-1.9,2.432,2.432,0,0,0,2.307,1.9l0.471-1.386A1.486,1.486,0,0,1,356.38,69.089Zm-5.015,1.621a2.056,2.056,0,0,1-2.26-2.326c0-1.762,1.224-2.631,3.531-2.631H354.4v2.96A3.332,3.332,0,0,1,351.365,70.711Zm11.746,1.5a3.63,3.63,0,0,0,1.648-.4l-0.518-1.386a2.243,2.243,0,0,1-.824.141c-0.588,0-.824-0.352-0.824-1.034V54.359l-1.978.235V69.583A2.353,2.353,0,0,0,363.111,72.214ZM9.116,97.276V91.544c0-2.561-1.342-4.065-4.285-4.065a11.59,11.59,0,0,0-4.191.846l0.494,1.457A10.429,10.429,0,0,1,4.478,89.1c1.789,0,2.661.7,2.661,2.537v0.987H5.114c-3.39,0-5.368,1.41-5.368,4.041A3.577,3.577,0,0,0,3.654,100.4a4.178,4.178,0,0,0,3.72-1.9,2.433,2.433,0,0,0,2.307,1.9l0.471-1.386A1.486,1.486,0,0,1,9.116,97.276ZM4.1,98.9a2.056,2.056,0,0,1-2.26-2.326c0-1.762,1.224-2.631,3.532-2.631H7.139V96.9A3.332,3.332,0,0,1,4.1,98.9ZM25.948,87.479a4.37,4.37,0,0,0-3.72,2.279,3.093,3.093,0,0,0-3.108-2.279,4.29,4.29,0,0,0-3.65,2.162l-0.165-1.88h-1.7v12.358h1.978v-8.81c0.848-1.363,1.672-2.279,3.037-2.279,1.036,0,1.837.611,1.837,2.514v8.575H22.44v-8.81c0.871-1.363,1.672-2.279,3.037-2.279,1.036,0,1.837.611,1.837,2.514v8.575h1.978V91.262C29.292,88.936,27.973,87.479,25.948,87.479Zm13.2,0A4.261,4.261,0,0,0,35.6,89.335v-6.79l-1.978.235v17.338h1.742l0.188-1.41a4.206,4.206,0,0,0,3.367,1.692c2.99,0,4.827-2.584,4.827-6.484C43.744,89.805,41.954,87.479,39.152,87.479ZM38.446,98.827A3.5,3.5,0,0,1,35.6,97.112V91.027a3.657,3.657,0,0,1,3.014-1.974c1.837,0,2.99,1.316,2.99,4.863C41.6,97.347,40.353,98.827,38.446,98.827Zm9.862-16.892A1.364,1.364,0,1,0,49.721,83.3,1.328,1.328,0,0,0,48.308,81.935Zm1.012,5.826H47.343v12.358h1.978V87.761Zm13.749,5.779c0-3.736-1.719-6.061-5.039-6.061-3.155,0-5.086,2.7-5.086,6.578,0,3.924,2,6.343,5.415,6.343a6.58,6.58,0,0,0,4.262-1.551l-0.871-1.175a5.274,5.274,0,0,1-3.249,1.1c-1.86,0-3.273-1.175-3.461-4.158h7.982C63.046,94.363,63.069,93.964,63.069,93.541Zm-1.954-.376H55.041c0.165-2.89,1.319-4.111,3.037-4.111,2.048,0,3.037,1.433,3.037,3.924v0.188ZM72.3,87.479a4.686,4.686,0,0,0-3.885,2.162l-0.165-1.88h-1.7v12.358h1.978v-8.81c0.871-1.363,1.86-2.279,3.32-2.279,1.271,0,2.025.611,2.025,2.514v8.575h1.978V91.262C75.852,88.912,74.58,87.479,72.3,87.479ZM85.6,98.24a3.3,3.3,0,0,1-1.719.517c-1.107,0-1.554-.611-1.554-1.9V89.288H85.1l0.212-1.527h-2.99V84.707l-1.978.212v2.843H78.2v1.527h2.142v7.659c0,2.255,1.224,3.454,3.273,3.454a4.742,4.742,0,0,0,2.731-.822Zm11.936-4.7c0-3.736-1.719-6.061-5.039-6.061-3.155,0-5.086,2.7-5.086,6.578,0,3.924,2,6.343,5.415,6.343a6.58,6.58,0,0,0,4.262-1.551l-0.871-1.175a5.274,5.274,0,0,1-3.249,1.1c-1.86,0-3.273-1.175-3.461-4.158h7.982C97.508,94.363,97.532,93.964,97.532,93.541Zm-1.954-.376H89.5c0.165-2.89,1.319-4.111,3.037-4.111,2.048,0,3.037,1.433,3.037,3.924v0.188Zm5.671,4.205a1.5,1.5,0,0,0-1.507,1.5,1.6,1.6,0,0,0,.636,1.269l-0.942,3.806h1.413l1.53-3.5a3.686,3.686,0,0,0,.4-1.574A1.492,1.492,0,0,0,101.249,97.37Zm20.576-3.829c0-3.736-1.719-6.061-5.039-6.061-3.155,0-5.086,2.7-5.086,6.578,0,3.924,2,6.343,5.416,6.343a6.577,6.577,0,0,0,4.261-1.551l-0.871-1.175a5.273,5.273,0,0,1-3.249,1.1c-1.86,0-3.273-1.175-3.461-4.158h7.982C121.8,94.363,121.825,93.964,121.825,93.541Zm-1.954-.376H113.8c0.165-2.89,1.318-4.111,3.037-4.111,2.049,0,3.038,1.433,3.038,3.924v0.188Zm13.088-5.4-0.142,1.41a4.553,4.553,0,0,0-3.508-1.692c-3.037,0-4.85,2.725-4.85,6.508,0,3.877,1.672,6.414,4.662,6.414a4.205,4.205,0,0,0,3.555-1.926v6.366l1.978,0.235V87.761h-1.695Zm-3.414,11.066c-1.884,0-2.967-1.574-2.967-4.863s1.224-4.91,3.155-4.91a3.543,3.543,0,0,1,2.943,1.668v6.155A3.569,3.569,0,0,1,129.545,98.827Zm18.644-11.066h-1.978v8.857a3.836,3.836,0,0,1-3.225,2.209c-1.389,0-2.025-.658-2.025-2.42V87.761h-1.978v8.857c0,2.42,1.295,3.783,3.461,3.783a4.229,4.229,0,0,0,3.909-2.279l0.141,2h1.695V87.761Zm5.436-5.826a1.364,1.364,0,1,0,1.413,1.363A1.328,1.328,0,0,0,153.625,81.935Zm1.013,5.826H152.66v12.358h1.978V87.761Zm13.442,0h-2.095l-3.32,10.6-3.367-10.6h-2.166l4.308,12.358h2.4ZM178.6,97.276V91.544c0-2.561-1.342-4.065-4.286-4.065a11.6,11.6,0,0,0-4.191.846l0.5,1.457a10.424,10.424,0,0,1,3.343-.681c1.79,0,2.661.7,2.661,2.537v0.987H174.6c-3.391,0-5.368,1.41-5.368,4.041a3.577,3.577,0,0,0,3.908,3.736,4.177,4.177,0,0,0,3.72-1.9,2.434,2.434,0,0,0,2.308,1.9l0.471-1.386A1.485,1.485,0,0,1,178.6,97.276ZM173.588,98.9a2.056,2.056,0,0,1-2.261-2.326c0-1.762,1.225-2.631,3.532-2.631h1.766V96.9A3.332,3.332,0,0,1,173.588,98.9Zm11.746,1.5a3.629,3.629,0,0,0,1.648-.4l-0.518-1.387a2.241,2.241,0,0,1-.824.141c-0.589,0-.824-0.352-0.824-1.034V82.546l-1.978.235V97.77A2.353,2.353,0,0,0,185.334,100.4Zm13.7-6.86c0-3.736-1.719-6.061-5.039-6.061-3.155,0-5.086,2.7-5.086,6.578,0,3.924,2,6.343,5.416,6.343a6.577,6.577,0,0,0,4.261-1.551l-0.871-1.175a5.273,5.273,0,0,1-3.249,1.1c-1.86,0-3.273-1.175-3.461-4.158h7.982C199.012,94.363,199.036,93.964,199.036,93.541Zm-1.954-.376h-6.075c0.165-2.89,1.318-4.111,3.037-4.111,2.049,0,3.038,1.433,3.038,3.924v0.188Zm11.181-5.686a4.684,4.684,0,0,0-3.885,2.162l-0.165-1.88h-1.695v12.358H204.5v-8.81c0.872-1.363,1.86-2.279,3.32-2.279,1.272,0,2.025.611,2.025,2.514v8.575h1.978V91.262C211.818,88.912,210.546,87.479,208.263,87.479Zm13.3,10.76a3.305,3.305,0,0,1-1.719.517c-1.107,0-1.554-.611-1.554-1.9V89.288h2.778l0.212-1.527h-2.99V84.707l-1.978.212v2.843h-2.143v1.527h2.143v7.659c0,2.255,1.224,3.454,3.273,3.454a4.742,4.742,0,0,0,2.731-.822Zm11.935-4.7c0-3.736-1.719-6.061-5.038-6.061-3.155,0-5.086,2.7-5.086,6.578,0,3.924,2,6.343,5.415,6.343a6.582,6.582,0,0,0,4.262-1.551l-0.871-1.175a5.276,5.276,0,0,1-3.25,1.1c-1.86,0-3.272-1.175-3.461-4.158h7.982C233.475,94.363,233.5,93.964,233.5,93.541Zm-1.954-.376h-6.075c0.165-2.89,1.319-4.111,3.038-4.111,2.048,0,3.037,1.433,3.037,3.924v0.188Zm19.891,4.112V91.544c0-2.561-1.342-4.065-4.285-4.065a11.587,11.587,0,0,0-4.191.846l0.494,1.457A10.434,10.434,0,0,1,246.8,89.1c1.789,0,2.66.7,2.66,2.537v0.987h-2.025c-3.39,0-5.368,1.41-5.368,4.041a3.578,3.578,0,0,0,3.909,3.736,4.179,4.179,0,0,0,3.72-1.9A2.432,2.432,0,0,0,252,100.4l0.471-1.386A1.486,1.486,0,0,1,251.435,97.276ZM246.42,98.9a2.056,2.056,0,0,1-2.26-2.326c0-1.762,1.224-2.631,3.531-2.631h1.766V96.9A3.332,3.332,0,0,1,246.42,98.9Zm11.746,1.5a3.629,3.629,0,0,0,1.648-.4L259.3,98.615a2.241,2.241,0,0,1-.824.141c-0.588,0-.824-0.352-0.824-1.034V82.546l-1.977.235V97.77A2.352,2.352,0,0,0,258.166,100.4Zm15.372-12.922c-3.32,0-5.368,2.608-5.368,6.555,0,3.994,2.072,6.367,5.368,6.367a5.629,5.629,0,0,0,3.72-1.363l-0.918-1.292a4.453,4.453,0,0,1-2.731.963c-2.025,0-3.32-1.41-3.32-4.7,0-3.313,1.3-4.887,3.32-4.887a4.222,4.222,0,0,1,2.684.916l0.965-1.245A5.438,5.438,0,0,0,273.538,87.479Zm14.714,9.8V91.544c0-2.561-1.342-4.065-4.286-4.065a11.6,11.6,0,0,0-4.191.846l0.5,1.457a10.424,10.424,0,0,1,3.343-.681c1.79,0,2.661.7,2.661,2.537v0.987h-2.025c-3.39,0-5.368,1.41-5.368,4.041a3.577,3.577,0,0,0,3.908,3.736,4.177,4.177,0,0,0,3.72-1.9,2.434,2.434,0,0,0,2.308,1.9l0.471-1.386A1.485,1.485,0,0,1,288.252,97.276ZM283.237,98.9a2.056,2.056,0,0,1-2.261-2.326c0-1.762,1.225-2.631,3.532-2.631h1.766V96.9A3.332,3.332,0,0,1,283.237,98.9ZM298,87.479c-1.554,0-2.707.963-3.367,2.866l-0.188-2.584h-1.695v12.358h1.978V92.953c0.541-2.42,1.459-3.548,3.037-3.548a3.782,3.782,0,0,1,1.083.141l0.377-1.927A5.148,5.148,0,0,0,298,87.479Zm9.228,0a4.26,4.26,0,0,0-3.555,1.856v-6.79l-1.978.235v17.338h1.742l0.188-1.41a4.209,4.209,0,0,0,3.367,1.692c2.991,0,4.827-2.584,4.827-6.484C311.815,89.805,310.026,87.479,307.224,87.479Zm-0.706,11.348a3.5,3.5,0,0,1-2.849-1.715V91.027a3.656,3.656,0,0,1,3.013-1.974c1.837,0,2.991,1.316,2.991,4.863C309.673,97.347,308.425,98.827,306.518,98.827Zm13.511-11.348c-3.461,0-5.462,2.608-5.462,6.484,0,3.924,1.978,6.437,5.439,6.437s5.462-2.608,5.462-6.484C325.468,89.97,323.514,87.479,320.029,87.479Zm0,1.6c2.143,0,3.32,1.574,3.32,4.84,0,3.313-1.2,4.887-3.343,4.887s-3.32-1.574-3.32-4.84C316.686,90.651,317.91,89.077,320.029,89.077Zm14.807-1.6a4.686,4.686,0,0,0-3.885,2.162l-0.165-1.88h-1.695v12.358h1.978v-8.81c0.871-1.363,1.86-2.279,3.32-2.279,1.271,0,2.025.611,2.025,2.514v8.575h1.977V91.262C338.391,88.912,337.12,87.479,334.836,87.479Zm12.5,0c-3.461,0-5.462,2.608-5.462,6.484,0,3.924,1.978,6.437,5.439,6.437s5.462-2.608,5.462-6.484C352.774,89.97,350.82,87.479,347.335,87.479Zm0,1.6c2.143,0,3.32,1.574,3.32,4.84,0,3.313-1.2,4.887-3.343,4.887s-3.32-1.574-3.32-4.84C343.992,90.651,345.216,89.077,347.335,89.077ZM5.49,115.666c-3.32,0-5.368,2.608-5.368,6.555,0,3.994,2.072,6.367,5.368,6.367a5.63,5.63,0,0,0,3.72-1.363l-0.918-1.292a4.454,4.454,0,0,1-2.731.963c-2.025,0-3.32-1.409-3.32-4.7,0-3.312,1.295-4.886,3.32-4.886a4.22,4.22,0,0,1,2.684.916l0.965-1.245A5.437,5.437,0,0,0,5.49,115.666Zm10.97,0C13,115.666,11,118.274,11,122.151c0,3.923,1.978,6.437,5.439,6.437S21.9,125.98,21.9,122.1C21.9,118.157,19.945,115.666,16.46,115.666Zm0,1.6c2.143,0,3.32,1.574,3.32,4.84,0,3.312-1.2,4.886-3.343,4.886s-3.32-1.574-3.32-4.839C13.117,118.838,14.341,117.264,16.46,117.264Zm14.807-1.6a4.684,4.684,0,0,0-3.885,2.162l-0.165-1.88h-1.7v12.358H27.5V119.5c0.871-1.363,1.86-2.279,3.32-2.279,1.271,0,2.025.611,2.025,2.514v8.575h1.978v-8.857C34.822,117.1,33.551,115.666,31.267,115.666Zm13.3,10.76a3.3,3.3,0,0,1-1.719.517c-1.107,0-1.554-.611-1.554-1.9v-7.565h2.778l0.212-1.527h-2.99v-3.054l-1.978.211v2.843H37.174v1.527h2.143v7.659c0,2.256,1.224,3.454,3.273,3.454a4.744,4.744,0,0,0,2.731-.822Zm11.936-4.7c0-3.736-1.719-6.062-5.039-6.062-3.155,0-5.086,2.7-5.086,6.578,0,3.924,2,6.344,5.415,6.344a6.582,6.582,0,0,0,4.262-1.551l-0.871-1.174a5.279,5.279,0,0,1-3.249,1.1c-1.86,0-3.273-1.175-3.461-4.159h7.982C56.479,122.55,56.5,122.151,56.5,121.728Zm-1.954-.376H48.474c0.165-2.89,1.319-4.112,3.037-4.112,2.049,0,3.037,1.433,3.037,3.924v0.188Zm11.181-5.686a4.684,4.684,0,0,0-3.885,2.162l-0.165-1.88h-1.7v12.358h1.978V119.5c0.871-1.363,1.86-2.279,3.32-2.279,1.271,0,2.025.611,2.025,2.514v8.575h1.978v-8.857C69.285,117.1,68.013,115.666,65.73,115.666Zm8.85-5.544a1.363,1.363,0,1,0,1.413,1.362A1.328,1.328,0,0,0,74.579,110.122Zm1.012,5.826H73.614v12.358h1.978V115.948Zm11.841-5.216v6.485a4.492,4.492,0,0,0-3.367-1.551c-3.037,0-4.85,2.725-4.85,6.508,0,3.876,1.672,6.414,4.662,6.414a4.174,4.174,0,0,0,3.6-2.021l0.212,1.739h1.719V110.967Zm-3.155,16.282c-1.86,0-2.943-1.574-2.943-4.863s1.224-4.911,3.155-4.911a3.544,3.544,0,0,1,2.943,1.668v6.156A3.578,3.578,0,0,1,84.278,127.014ZM98.5,115.666c-3.461,0-5.462,2.608-5.462,6.485,0,3.923,1.978,6.437,5.439,6.437s5.462-2.608,5.462-6.484C103.935,118.157,101.981,115.666,98.5,115.666Zm0,1.6c2.143,0,3.32,1.574,3.32,4.84,0,3.312-1.2,4.886-3.343,4.886s-3.32-1.574-3.32-4.839C95.153,118.838,96.377,117.264,98.5,117.264Zm24.647,4.464c0-3.736-1.718-6.062-5.038-6.062-3.155,0-5.086,2.7-5.086,6.578,0,3.924,2,6.344,5.415,6.344a6.581,6.581,0,0,0,4.262-1.551l-0.871-1.174a5.278,5.278,0,0,1-3.249,1.1c-1.86,0-3.273-1.175-3.461-4.159H123.1C123.12,122.55,123.143,122.151,123.143,121.728Zm-1.954-.376h-6.074c0.164-2.89,1.318-4.112,3.037-4.112,2.048,0,3.037,1.433,3.037,3.924v0.188Zm11.181-5.686a4.685,4.685,0,0,0-3.885,2.162l-0.165-1.88h-1.695v12.358H128.6V119.5c0.871-1.363,1.86-2.279,3.32-2.279,1.271,0,2.025.611,2.025,2.514v8.575h1.977v-8.857C135.925,117.1,134.654,115.666,132.37,115.666Zm17.3-3.289a5.749,5.749,0,0,0-4.709,2.326l1.3,1.034a4.136,4.136,0,0,1,3.32-1.739,2.513,2.513,0,0,1,2.661,2.725c0,2.608-1.366,4.135-6.97,10.009v1.574h9.183l0.235-1.668h-7.157c4.92-4.981,6.781-7.025,6.781-10.009C154.31,114.21,152.52,112.377,149.671,112.377Zm12.759,0c-3.461,0-5.18,2.843-5.18,8.082s1.719,8.129,5.18,8.129,5.18-2.89,5.18-8.106C167.61,115.243,165.891,112.377,162.43,112.377Zm0,1.574c2.025,0,3.132,1.856,3.132,6.531,0,4.652-1.107,6.532-3.132,6.532-2.048,0-3.131-1.88-3.131-6.555C159.3,115.807,160.382,113.951,162.43,113.951Zm13.371-1.339h-1.742l-4.827,2.984,0.871,1.409,3.721-2.279v13.58H175.8V112.612Zm23.518,3.054a4.369,4.369,0,0,0-3.72,2.279,3.093,3.093,0,0,0-3.108-2.279,4.29,4.29,0,0,0-3.65,2.162l-0.164-1.88h-1.7v12.358h1.978V119.5c0.848-1.363,1.672-2.279,3.037-2.279,1.036,0,1.837.611,1.837,2.514v8.575h1.978V119.5c0.871-1.363,1.671-2.279,3.037-2.279,1.036,0,1.837.611,1.837,2.514v8.575h1.977v-8.857C202.662,117.123,201.344,115.666,199.319,115.666Zm8.637-5.544a1.363,1.363,0,1,0,1.412,1.362A1.329,1.329,0,0,0,207.956,110.122Zm1.012,5.826H206.99v12.358h1.978V115.948Zm6.826,12.64a3.633,3.633,0,0,0,1.649-.4l-0.518-1.386a2.245,2.245,0,0,1-.824.141c-0.589,0-.825-0.352-0.825-1.033V110.732l-1.977.235v14.99A2.352,2.352,0,0,0,215.794,128.588Zm16.6-12.922a4.6,4.6,0,0,0-3.768,2.068v-6.978l-1.977.235v17.315h1.977v-8.834c0.872-1.339,1.884-2.255,3.3-2.255,1.248,0,2.048.611,2.048,2.514v8.575h1.978v-8.857C235.946,117.123,234.651,115.666,232.391,115.666Zm17.161,6.062c0-3.736-1.719-6.062-5.039-6.062-3.155,0-5.085,2.7-5.085,6.578,0,3.924,2,6.344,5.415,6.344a6.583,6.583,0,0,0,4.262-1.551l-0.872-1.174a5.278,5.278,0,0,1-3.249,1.1c-1.86,0-3.273-1.175-3.461-4.159h7.982C249.528,122.55,249.552,122.151,249.552,121.728Zm-1.954-.376h-6.075c0.165-2.89,1.319-4.112,3.037-4.112,2.049,0,3.038,1.433,3.038,3.924v0.188Zm9.956-5.686c-3.319,0-5.368,2.608-5.368,6.555,0,3.994,2.072,6.367,5.368,6.367a5.628,5.628,0,0,0,3.72-1.363l-0.918-1.292a4.452,4.452,0,0,1-2.731.963c-2.025,0-3.32-1.409-3.32-4.7,0-3.312,1.295-4.886,3.32-4.886a4.219,4.219,0,0,1,2.684.916l0.965-1.245A5.435,5.435,0,0,0,257.554,115.666Zm12.1,10.76a3.3,3.3,0,0,1-1.719.517c-1.106,0-1.554-.611-1.554-1.9v-7.565h2.779l0.212-1.527h-2.991v-3.054l-1.977.211v2.843h-2.143v1.527H264.4v7.659c0,2.256,1.224,3.454,3.272,3.454a4.748,4.748,0,0,0,2.732-.822Zm9.487-15.153-0.9-1.692-4.615,2.632,0.613,1.057Zm1.648,14.19v-5.732c0-2.561-1.342-4.065-4.285-4.065a11.585,11.585,0,0,0-4.191.846l0.494,1.457a10.421,10.421,0,0,1,3.344-.682c1.789,0,2.66.7,2.66,2.538v0.986h-2.025c-3.39,0-5.368,1.41-5.368,4.041a3.578,3.578,0,0,0,3.909,3.736,4.233,4.233,0,0,0,3.72-1.9,2.408,2.408,0,0,0,2.307,1.9l0.471-1.386A1.487,1.487,0,0,1,280.789,125.463Zm-5.015,1.621a2.056,2.056,0,0,1-2.26-2.326c0-1.762,1.224-2.631,3.531-2.631h1.766v2.937A3.293,3.293,0,0,1,275.774,127.084Zm14.76-11.418c-1.554,0-2.708.963-3.367,2.866l-0.189-2.584h-1.695v12.358h1.978V121.14c0.541-2.42,1.46-3.547,3.037-3.547a3.777,3.777,0,0,1,1.083.141l0.377-1.927A5.14,5.14,0,0,0,290.534,115.666Zm12.524,6.062c0-3.736-1.719-6.062-5.039-6.062-3.155,0-5.086,2.7-5.086,6.578,0,3.924,2,6.344,5.416,6.344a6.579,6.579,0,0,0,4.261-1.551l-0.871-1.174a5.278,5.278,0,0,1-3.249,1.1c-1.86,0-3.273-1.175-3.461-4.159h7.982C303.034,122.55,303.058,122.151,303.058,121.728Zm-1.955-.376h-6.074c0.165-2.89,1.318-4.112,3.037-4.112,2.049,0,3.037,1.433,3.037,3.924v0.188Zm13.466,4.111v-5.732c0-2.561-1.342-4.065-4.286-4.065a11.593,11.593,0,0,0-4.191.846l0.5,1.457a10.41,10.41,0,0,1,3.343-.682c1.79,0,2.661.7,2.661,2.538v0.986h-2.025c-3.391,0-5.368,1.41-5.368,4.041a3.577,3.577,0,0,0,3.908,3.736,4.179,4.179,0,0,0,3.72-1.9,2.435,2.435,0,0,0,2.308,1.9l0.471-1.386A1.486,1.486,0,0,1,314.569,125.463Zm-5.015,1.621a2.056,2.056,0,0,1-2.261-2.326c0-1.762,1.225-2.631,3.532-2.631h1.766v2.96A3.331,3.331,0,0,1,309.554,127.084Zm12.829-11.418c-2.5,0-4.38,1.41-4.38,3.36,0,1.738,1.06,2.843,3.744,3.547,2.425,0.658,3.061,1.128,3.061,2.42,0,1.245-1.083,2-2.755,2a5.624,5.624,0,0,1-3.508-1.221l-1.06,1.2a6.7,6.7,0,0,0,4.615,1.621c2.5,0,4.78-1.2,4.78-3.712,0-2.162-1.437-3.148-4.074-3.83-2.048-.54-2.731-1.01-2.731-2.067s0.918-1.739,2.378-1.739a5.488,5.488,0,0,1,3.226,1.081l0.871-1.245A6.511,6.511,0,0,0,322.383,115.666Zm21.3-4.934v6.485a4.492,4.492,0,0,0-3.367-1.551c-3.037,0-4.85,2.725-4.85,6.508,0,3.876,1.671,6.414,4.662,6.414a4.174,4.174,0,0,0,3.6-2.021l0.212,1.739h1.719V110.967Zm-3.155,16.282c-1.86,0-2.943-1.574-2.943-4.863s1.224-4.911,3.155-4.911a3.545,3.545,0,0,1,2.943,1.668v6.156A3.578,3.578,0,0,1,340.532,127.014Zm18.88-5.286c0-3.736-1.719-6.062-5.039-6.062-3.155,0-5.085,2.7-5.085,6.578,0,3.924,2,6.344,5.415,6.344a6.579,6.579,0,0,0,4.261-1.551l-0.871-1.174a5.278,5.278,0,0,1-3.249,1.1c-1.86,0-3.273-1.175-3.461-4.159h7.982C359.388,122.55,359.412,122.151,359.412,121.728Zm-1.954-.376h-6.075c0.165-2.89,1.319-4.112,3.037-4.112,2.049,0,3.038,1.433,3.038,3.924v0.188Zm17.277-5.686a4.263,4.263,0,0,0-3.555,1.856v-6.79l-1.978.235v17.339h1.743l0.188-1.41a4.205,4.205,0,0,0,3.367,1.692c2.99,0,4.826-2.584,4.826-6.484C379.326,117.992,377.537,115.666,374.735,115.666Zm-0.706,11.348a3.5,3.5,0,0,1-2.849-1.715v-6.085a3.658,3.658,0,0,1,3.014-1.974c1.836,0,2.99,1.316,2.99,4.864C377.184,125.534,375.936,127.014,374.029,127.014Zm13.512-11.348c-3.461,0-5.463,2.608-5.463,6.485,0,3.923,1.978,6.437,5.439,6.437s5.463-2.608,5.463-6.484C392.98,118.157,391.025,115.666,387.541,115.666Zm0,1.6c2.142,0,3.32,1.574,3.32,4.84,0,3.312-1.2,4.886-3.344,4.886s-3.32-1.574-3.32-4.839C384.2,118.838,385.422,117.264,387.541,117.264Zm12.381-1.6c-2.5,0-4.379,1.41-4.379,3.36,0,1.738,1.059,2.843,3.744,3.547,2.425,0.658,3.06,1.128,3.06,2.42,0,1.245-1.083,2-2.754,2a5.627,5.627,0,0,1-3.509-1.221l-1.059,1.2a6.693,6.693,0,0,0,4.615,1.621c2.5,0,4.779-1.2,4.779-3.712,0-2.162-1.436-3.148-4.073-3.83-2.048-.54-2.731-1.01-2.731-2.067s0.918-1.739,2.378-1.739a5.488,5.488,0,0,1,3.226,1.081l0.871-1.245A6.512,6.512,0,0,0,399.922,115.666Zm15.279,0.282-0.142,1.41a4.551,4.551,0,0,0-3.508-1.692c-3.037,0-4.85,2.725-4.85,6.508,0,3.876,1.672,6.414,4.662,6.414a4.205,4.205,0,0,0,3.555-1.927v6.367l1.978,0.235V115.948H415.2Zm-3.414,11.066c-1.884,0-2.967-1.574-2.967-4.863s1.224-4.911,3.155-4.911a3.543,3.543,0,0,1,2.943,1.668v6.156A3.57,3.57,0,0,1,411.787,127.014Zm18.644-11.066h-1.978v8.857a3.837,3.837,0,0,1-3.225,2.209c-1.389,0-2.025-.658-2.025-2.42v-8.646h-1.978v8.857c0,2.42,1.295,3.783,3.461,3.783a4.229,4.229,0,0,0,3.909-2.279l0.141,2h1.695V115.948Zm13.747,5.78c0-3.736-1.718-6.062-5.038-6.062-3.155,0-5.086,2.7-5.086,6.578,0,3.924,2,6.344,5.415,6.344a6.581,6.581,0,0,0,4.262-1.551l-0.871-1.174a5.278,5.278,0,0,1-3.249,1.1c-1.86,0-3.273-1.175-3.461-4.159h7.981C444.155,122.55,444.178,122.151,444.178,121.728Zm-1.954-.376H436.15c0.165-2.89,1.318-4.112,3.037-4.112,2.048,0,3.037,1.433,3.037,3.924v0.188ZM9.116,153.65v-5.732c0-2.561-1.342-4.065-4.285-4.065A11.588,11.588,0,0,0,.64,144.7l0.494,1.456a10.438,10.438,0,0,1,3.343-.681c1.789,0,2.661.705,2.661,2.537V149H5.114c-3.39,0-5.368,1.41-5.368,4.041a3.577,3.577,0,0,0,3.908,3.736,4.18,4.18,0,0,0,3.72-1.9,2.435,2.435,0,0,0,2.307,1.9l0.471-1.386A1.486,1.486,0,0,1,9.116,153.65ZM4.1,155.271a2.056,2.056,0,0,1-2.26-2.326c0-1.762,1.224-2.631,3.532-2.631H7.139v2.96A3.332,3.332,0,0,1,4.1,155.271Zm21.847-11.418a4.369,4.369,0,0,0-3.72,2.279,3.093,3.093,0,0,0-3.108-2.279,4.29,4.29,0,0,0-3.65,2.161l-0.165-1.879h-1.7v12.358h1.978v-8.81c0.848-1.363,1.672-2.279,3.037-2.279,1.036,0,1.837.61,1.837,2.514v8.575H22.44v-8.81c0.871-1.363,1.672-2.279,3.037-2.279,1.036,0,1.837.61,1.837,2.514v8.575h1.978v-8.857C29.292,145.31,27.973,143.853,25.948,143.853Zm15.818,9.8v-5.732c0-2.561-1.342-4.065-4.285-4.065a11.587,11.587,0,0,0-4.191.846l0.494,1.456a10.438,10.438,0,0,1,3.343-.681c1.789,0,2.661.705,2.661,2.537V149H37.763c-3.391,0-5.368,1.41-5.368,4.041a3.577,3.577,0,0,0,3.908,3.736,4.18,4.18,0,0,0,3.72-1.9,2.435,2.435,0,0,0,2.307,1.9l0.471-1.386A1.486,1.486,0,0,1,41.766,153.65Zm-5.015,1.621a2.056,2.056,0,0,1-2.26-2.326c0-1.762,1.224-2.631,3.532-2.631h1.766v2.96A3.332,3.332,0,0,1,36.751,155.271Zm16.69-11.136H45.177V145.8h6l-6.545,9.21v1.48h8.617l0.236-1.668H46.872l6.569-9.186v-1.5Zm9.251-6.367L58.077,140.4l0.612,1.058,4.9-2Zm-1.813,6.085c-3.461,0-5.462,2.608-5.462,6.484,0,3.924,1.978,6.438,5.439,6.438s5.462-2.608,5.462-6.485C66.318,146.343,64.364,143.853,60.879,143.853Zm0,1.6c2.143,0,3.32,1.574,3.32,4.839,0,3.313-1.2,4.887-3.343,4.887s-3.32-1.574-3.32-4.84C57.536,147.025,58.76,145.451,60.879,145.451Zm14.807-1.6a4.686,4.686,0,0,0-3.885,2.161l-0.165-1.879h-1.7v12.358h1.978v-8.81c0.871-1.363,1.86-2.279,3.32-2.279,1.271,0,2.025.61,2.025,2.514v8.575h1.978v-8.857C79.241,145.286,77.97,143.853,75.686,143.853Zm8.85-5.544a1.363,1.363,0,1,0,1.413,1.362A1.328,1.328,0,0,0,84.536,138.309Zm1.012,5.826H83.571v12.358h1.978V144.135Zm8.993-.282c-3.32,0-5.368,2.608-5.368,6.555,0,3.994,2.072,6.367,5.368,6.367a5.631,5.631,0,0,0,3.72-1.363l-0.918-1.292a4.454,4.454,0,0,1-2.731.963c-2.025,0-3.32-1.409-3.32-4.7,0-3.312,1.295-4.886,3.32-4.886a4.22,4.22,0,0,1,2.684.916l0.965-1.245A5.437,5.437,0,0,0,94.541,143.853Zm10.97,0c-3.461,0-5.463,2.608-5.463,6.484,0,3.924,1.978,6.438,5.439,6.438s5.463-2.608,5.463-6.485C110.95,146.343,109,143.853,105.511,143.853Zm0,1.6c2.142,0,3.32,1.574,3.32,4.839,0,3.313-1.2,4.887-3.344,4.887s-3.32-1.574-3.32-4.84C102.167,147.025,103.392,145.451,105.511,145.451Zm9.3,8.293a1.5,1.5,0,0,0-1.507,1.5,1.6,1.6,0,0,0,.636,1.268L113,160.322h1.413l1.53-3.5a3.689,3.689,0,0,0,.4-1.574A1.492,1.492,0,0,0,114.808,153.744Zm14.619-9.891c-2.5,0-4.38,1.41-4.38,3.36,0,1.738,1.06,2.842,3.744,3.547,2.425,0.658,3.061,1.128,3.061,2.42,0,1.245-1.083,2-2.755,2a5.619,5.619,0,0,1-3.508-1.222l-1.06,1.2a6.7,6.7,0,0,0,4.615,1.621c2.5,0,4.78-1.2,4.78-3.712,0-2.162-1.436-3.149-4.073-3.83-2.049-.54-2.732-1.01-2.732-2.067s0.919-1.739,2.378-1.739a5.486,5.486,0,0,1,3.226,1.081l0.871-1.245A6.509,6.509,0,0,0,129.427,143.853Zm16.691,0.282H144.14v8.857a3.837,3.837,0,0,1-3.226,2.209c-1.389,0-2.025-.658-2.025-2.42v-8.646h-1.977v8.857c0,2.42,1.295,3.783,3.461,3.783a4.228,4.228,0,0,0,3.908-2.279l0.142,2h1.695V144.135Zm10.027-.282a4.477,4.477,0,0,0-3.7,2l-0.164-1.715h-1.7V161.45l1.978-.235v-5.92a4.043,4.043,0,0,0,3.32,1.48c3.155,0,4.827-2.7,4.827-6.485C160.713,146.367,159.371,143.853,156.145,143.853Zm-0.73,11.3a3.348,3.348,0,0,1-2.849-1.6v-6.132a3.852,3.852,0,0,1,3.108-2c1.931,0,2.9,1.574,2.9,4.863C158.57,153.6,157.464,155.154,155.415,155.154Zm18.174-5.24c0-3.735-1.719-6.061-5.039-6.061-3.155,0-5.085,2.7-5.085,6.578,0,3.924,2,6.344,5.415,6.344a6.579,6.579,0,0,0,4.261-1.551l-0.871-1.175a5.273,5.273,0,0,1-3.249,1.1c-1.86,0-3.273-1.175-3.461-4.159h7.982C173.565,150.737,173.589,150.337,173.589,149.914Zm-1.954-.375H165.56c0.165-2.89,1.319-4.112,3.037-4.112,2.049,0,3.038,1.433,3.038,3.924v0.188Zm10.686-5.686c-1.554,0-2.707.963-3.367,2.866l-0.188-2.584h-1.695v12.358h1.977v-7.166c0.542-2.42,1.46-3.547,3.038-3.547a3.782,3.782,0,0,1,1.083.141l0.377-1.927A5.148,5.148,0,0,0,182.321,143.853Zm7.862-4.934c-2.849,0-4.12,1.433-4.12,3.5v1.715h-1.978v1.527h1.978v10.831h1.978V145.662h4.944v10.831h1.978V144.135h-6.922V142.42c0-1.269.517-1.9,2.213-1.9a5.88,5.88,0,0,1,2.684.634l0.706-1.386A7.244,7.244,0,0,0,190.183,138.919Zm13.771,4.934c-3.32,0-5.368,2.608-5.368,6.555,0,3.994,2.072,6.367,5.368,6.367a5.63,5.63,0,0,0,3.72-1.363l-0.918-1.292a4.454,4.454,0,0,1-2.731.963c-2.025,0-3.32-1.409-3.32-4.7,0-3.312,1.295-4.886,3.32-4.886a4.221,4.221,0,0,1,2.684.916l0.965-1.245A5.437,5.437,0,0,0,203.954,143.853Zm7.65-5.544a1.363,1.363,0,1,0,1.412,1.362A1.328,1.328,0,0,0,211.6,138.309Zm1.012,5.826h-1.978v12.358h1.978V144.135Zm13.749,5.779c0-3.735-1.719-6.061-5.039-6.061-3.155,0-5.086,2.7-5.086,6.578,0,3.924,2,6.344,5.416,6.344a6.579,6.579,0,0,0,4.261-1.551l-0.871-1.175a5.273,5.273,0,0,1-3.249,1.1c-1.86,0-3.273-1.175-3.461-4.159h7.982C226.341,150.737,226.365,150.337,226.365,149.914Zm-1.955-.375h-6.074c0.165-2.89,1.318-4.112,3.037-4.112,2.049,0,3.037,1.433,3.037,3.924v0.188Zm15.065-5.686c-2.5,0-4.38,1.41-4.38,3.36,0,1.738,1.06,2.842,3.744,3.547,2.425,0.658,3.061,1.128,3.061,2.42,0,1.245-1.083,2-2.755,2a5.619,5.619,0,0,1-3.508-1.222l-1.06,1.2a6.7,6.7,0,0,0,4.615,1.621c2.5,0,4.78-1.2,4.78-3.712,0-2.162-1.436-3.149-4.073-3.83-2.049-.54-2.732-1.01-2.732-2.067s0.919-1.739,2.378-1.739a5.486,5.486,0,0,1,3.226,1.081l0.871-1.245A6.509,6.509,0,0,0,239.475,143.853Zm8.591-5.544a1.363,1.363,0,1,0,1.413,1.362A1.328,1.328,0,0,0,248.066,138.309Zm1.013,5.826H247.1v12.358h1.978V144.135Zm16.809-.282a4.369,4.369,0,0,0-3.72,2.279,3.093,3.093,0,0,0-3.108-2.279,4.289,4.289,0,0,0-3.649,2.161l-0.165-1.879h-1.7v12.358h1.977v-8.81c0.848-1.363,1.672-2.279,3.038-2.279,1.036,0,1.836.61,1.836,2.514v8.575h1.978v-8.81c0.871-1.363,1.672-2.279,3.037-2.279,1.036,0,1.837.61,1.837,2.514v8.575h1.978v-8.857C269.232,145.31,267.913,143.853,265.888,143.853Zm8.637-5.544a1.363,1.363,0,1,0,1.413,1.362A1.328,1.328,0,0,0,274.525,138.309Zm1.012,5.826H273.56v12.358h1.977V144.135Zm6.827,12.64a3.629,3.629,0,0,0,1.648-.4l-0.518-1.386a2.245,2.245,0,0,1-.824.141c-0.589,0-.824-0.352-0.824-1.034V138.919l-1.978.235v14.989A2.353,2.353,0,0,0,282.364,156.775Zm12.572-3.125v-5.732c0-2.561-1.343-4.065-4.286-4.065a11.593,11.593,0,0,0-4.191.846l0.5,1.456a10.433,10.433,0,0,1,3.343-.681c1.79,0,2.661.705,2.661,2.537V149h-2.025c-3.391,0-5.368,1.41-5.368,4.041a3.577,3.577,0,0,0,3.908,3.736,4.179,4.179,0,0,0,3.72-1.9,2.436,2.436,0,0,0,2.308,1.9l0.471-1.386A1.486,1.486,0,0,1,294.936,153.65Zm-5.016,1.621a2.056,2.056,0,0,1-2.26-2.326c0-1.762,1.224-2.631,3.532-2.631h1.766v2.96A3.332,3.332,0,0,1,289.92,155.271Zm14.76-11.418c-1.554,0-2.707.963-3.367,2.866l-0.188-2.584H299.43v12.358h1.977v-7.166c0.542-2.42,1.46-3.547,3.038-3.547a3.782,3.782,0,0,1,1.083.141l0.377-1.927A5.148,5.148,0,0,0,304.68,143.853Zm18.15,9.8v-5.732c0-2.561-1.342-4.065-4.285-4.065a11.585,11.585,0,0,0-4.191.846l0.494,1.456a10.438,10.438,0,0,1,3.343-.681c1.79,0,2.661.705,2.661,2.537V149h-2.025c-3.39,0-5.368,1.41-5.368,4.041a3.577,3.577,0,0,0,3.908,3.736,4.179,4.179,0,0,0,3.72-1.9,2.436,2.436,0,0,0,2.308,1.9l0.471-1.386A1.486,1.486,0,0,1,322.83,153.65Zm-5.015,1.621a2.056,2.056,0,0,1-2.261-2.326c0-1.762,1.225-2.631,3.532-2.631h1.766v2.96A3.331,3.331,0,0,1,317.815,155.271Zm11.746,1.5a3.629,3.629,0,0,0,1.648-.4l-0.518-1.386a2.241,2.241,0,0,1-.824.141c-0.589,0-.824-0.352-0.824-1.034V138.919l-1.978.235v14.989A2.353,2.353,0,0,0,329.561,156.775ZM347.852,140.8h-9.064v1.621h7.063l-5.768,13.7L341.9,156.7l5.956-14.425V140.8Zm10.593,0h-8.382v7.847h1.554a4.615,4.615,0,0,1,2.308-.588c1.695,0,2.99.893,2.99,3.36,0,2.373-1.3,3.736-3.32,3.736a4.441,4.441,0,0,1-3.414-1.5L349,154.8a6.085,6.085,0,0,0,4.591,1.974,5.062,5.062,0,0,0,5.368-5.31c0-3.1-1.789-4.957-4.45-4.957a5.528,5.528,0,0,0-2.566.634v-4.793h6.216Zm15.561-.963-10.9,16.445,1.389,0.893,10.9-16.446Zm-9.559.728a3.939,3.939,0,1,0,3.767,3.923A3.633,3.633,0,0,0,364.447,140.564Zm0,1.339c1.554,0,1.978,1.316,1.978,2.584,0,1.316-.424,2.585-1.978,2.585s-2-1.292-2-2.585C362.446,143.172,362.893,141.9,364.447,141.9Zm9.559,7a3.94,3.94,0,1,0,3.744,3.924A3.638,3.638,0,0,0,374.006,148.9Zm0,1.363c1.578,0,2,1.292,2,2.561,0,1.315-.423,2.584-2,2.584-1.53,0-1.978-1.292-1.978-2.584C372.028,151.512,372.476,150.267,374.006,150.267Zm20.761-11.348V145.4a4.491,4.491,0,0,0-3.367-1.551c-3.037,0-4.85,2.725-4.85,6.508,0,3.876,1.672,6.414,4.662,6.414a4.174,4.174,0,0,0,3.6-2.021l0.212,1.739h1.719V139.154ZM391.612,155.2c-1.86,0-2.943-1.574-2.943-4.864s1.224-4.91,3.155-4.91a3.543,3.543,0,0,1,2.943,1.668v6.156A3.578,3.578,0,0,1,391.612,155.2Zm18.88-5.287c0-3.735-1.719-6.061-5.039-6.061-3.155,0-5.085,2.7-5.085,6.578,0,3.924,2,6.344,5.415,6.344a6.583,6.583,0,0,0,4.262-1.551l-0.872-1.175a5.273,5.273,0,0,1-3.249,1.1c-1.86,0-3.272-1.175-3.461-4.159h7.982C410.468,150.737,410.492,150.337,410.492,149.914Zm-1.954-.375h-6.075c0.165-2.89,1.319-4.112,3.037-4.112,2.049,0,3.038,1.433,3.038,3.924v0.188ZM3.183,168.516H1.158V184.68H9.634l0.235-1.786H3.183V168.516ZM13.54,166.5a1.363,1.363,0,1,0,0,2.726A1.364,1.364,0,1,0,13.54,166.5Zm1.012,5.827H12.575V184.68h1.978V172.322Zm16.809-.282a4.369,4.369,0,0,0-3.72,2.279,3.093,3.093,0,0,0-3.108-2.279,4.29,4.29,0,0,0-3.649,2.161l-0.165-1.879h-1.7V184.68H21v-8.811c0.848-1.362,1.672-2.278,3.037-2.278,1.036,0,1.837.61,1.837,2.513v8.576h1.978v-8.811c0.871-1.362,1.672-2.278,3.037-2.278,1.036,0,1.837.61,1.837,2.513v8.576h1.978v-8.858C34.706,173.5,33.387,172.04,31.362,172.04Zm15.818,9.8V176.1c0-2.56-1.342-4.064-4.285-4.064a11.587,11.587,0,0,0-4.191.846l0.494,1.456a10.438,10.438,0,0,1,3.343-.681c1.789,0,2.661.705,2.661,2.537v0.987H43.177c-3.39,0-5.368,1.41-5.368,4.041a3.578,3.578,0,0,0,3.908,3.736,4.18,4.18,0,0,0,3.72-1.9,2.435,2.435,0,0,0,2.307,1.9l0.471-1.387A1.485,1.485,0,0,1,47.18,181.837Zm-5.015,1.621a2.056,2.056,0,0,1-2.26-2.326c0-1.762,1.224-2.631,3.532-2.631H45.2v2.96A3.332,3.332,0,0,1,42.165,183.458Zm28.956-14.942H68.343l-3.391,11.958L61.4,168.516H58.618L57.253,184.68h1.931l0.565-7.283c0.212-2.4.353-5,.377-6.837l3.814,12.264h1.907l3.65-12.241c0.023,1.363.212,4.135,0.447,6.7l0.612,7.4h1.978ZM85.526,178.1c0-3.735-1.719-6.061-5.039-6.061-3.155,0-5.086,2.7-5.086,6.578,0,3.924,2,6.344,5.415,6.344a6.582,6.582,0,0,0,4.262-1.551l-0.871-1.175a5.272,5.272,0,0,1-3.249,1.1c-1.86,0-3.273-1.174-3.461-4.158h7.982C85.5,178.924,85.526,178.524,85.526,178.1Zm-1.954-.376H77.5c0.165-2.889,1.319-4.111,3.037-4.111,2.048,0,3.037,1.433,3.037,3.923v0.188ZM94.423,182.8a3.3,3.3,0,0,1-1.719.517c-1.107,0-1.554-.611-1.554-1.9v-7.565h2.778l0.212-1.527h-2.99v-3.054l-1.978.211v2.843H87.03v1.527h2.143v7.659c0,2.255,1.224,3.454,3.273,3.454a4.738,4.738,0,0,0,2.731-.823Zm8.239-10.76c-1.554,0-2.708.963-3.367,2.866l-0.188-2.584h-1.7V184.68h1.978v-7.166c0.542-2.42,1.46-3.548,3.038-3.548a3.782,3.782,0,0,1,1.083.141l0.377-1.926A5.148,5.148,0,0,0,102.662,172.04Zm7.862,0c-3.461,0-5.462,2.608-5.462,6.484,0,3.924,1.978,6.438,5.439,6.438s5.462-2.608,5.462-6.485C115.963,174.53,114.009,172.04,110.524,172.04Zm0,1.6c2.143,0,3.32,1.574,3.32,4.839,0,3.313-1.2,4.887-3.343,4.887s-3.32-1.574-3.32-4.84C107.181,175.212,108.405,173.638,110.524,173.638Zm14.619-1.6a4.475,4.475,0,0,0-3.7,2l-0.165-1.715h-1.7v17.315l1.978-.235v-5.921a4.039,4.039,0,0,0,3.32,1.481c3.155,0,4.826-2.7,4.826-6.485C129.71,174.554,128.368,172.04,125.143,172.04Zm-0.73,11.3a3.347,3.347,0,0,1-2.849-1.6v-6.132a3.851,3.851,0,0,1,3.108-2c1.93,0,2.9,1.574,2.9,4.863C127.568,181.79,126.461,183.34,124.413,183.34Zm13.512-11.3c-3.462,0-5.463,2.608-5.463,6.484,0,3.924,1.978,6.438,5.439,6.438s5.462-2.608,5.462-6.485C143.363,174.53,141.409,172.04,137.925,172.04Zm0,1.6c2.142,0,3.319,1.574,3.319,4.839,0,3.313-1.2,4.887-3.343,4.887s-3.32-1.574-3.32-4.84C134.581,175.212,135.806,173.638,137.925,173.638Zm11.416,11.324a3.629,3.629,0,0,0,1.648-.4l-0.518-1.386a2.241,2.241,0,0,1-.824.141c-0.589,0-.824-0.352-0.824-1.034V167.106l-1.978.235V182.33A2.353,2.353,0,0,0,149.341,184.962Zm5.508-18.467a1.364,1.364,0,1,0,1.413,1.363A1.329,1.329,0,0,0,154.849,166.5Zm1.012,5.827h-1.977V184.68h1.977V172.322Zm9.888,10.478a3.3,3.3,0,0,1-1.719.517c-1.107,0-1.554-.611-1.554-1.9v-7.565h2.778l0.212-1.527h-2.99v-3.054l-1.978.211v2.843h-2.142v1.527H160.5v7.659c0,2.255,1.224,3.454,3.273,3.454a4.736,4.736,0,0,0,2.731-.823Zm11.135-.963V176.1c0-2.56-1.343-4.064-4.286-4.064a11.593,11.593,0,0,0-4.191.846l0.495,1.456a10.433,10.433,0,0,1,3.343-.681c1.79,0,2.661.705,2.661,2.537v0.987h-2.025c-3.391,0-5.368,1.41-5.368,4.041a3.577,3.577,0,0,0,3.908,3.736,4.179,4.179,0,0,0,3.72-1.9,2.436,2.436,0,0,0,2.308,1.9l0.471-1.387A1.485,1.485,0,0,1,176.884,181.837Zm-5.016,1.621a2.056,2.056,0,0,1-2.26-2.326c0-1.762,1.224-2.631,3.532-2.631h1.766v2.96A3.332,3.332,0,0,1,171.868,183.458Zm15.255-11.418a4.685,4.685,0,0,0-3.885,2.161l-0.165-1.879h-1.7V184.68h1.977v-8.811c0.872-1.362,1.861-2.278,3.32-2.278,1.272,0,2.025.61,2.025,2.513v8.576h1.978v-8.858C190.678,173.473,189.407,172.04,187.123,172.04Zm16.031,9.8V176.1c0-2.56-1.342-4.064-4.285-4.064a11.585,11.585,0,0,0-4.191.846l0.494,1.456a10.443,10.443,0,0,1,3.343-.681c1.79,0,2.661.705,2.661,2.537v0.987h-2.025c-3.39,0-5.368,1.41-5.368,4.041a3.578,3.578,0,0,0,3.908,3.736,4.179,4.179,0,0,0,3.72-1.9,2.436,2.436,0,0,0,2.308,1.9l0.471-1.387A1.485,1.485,0,0,1,203.154,181.837Zm-5.015,1.621a2.056,2.056,0,0,1-2.261-2.326c0-1.762,1.225-2.631,3.532-2.631h1.766v2.96A3.331,3.331,0,0,1,198.139,183.458Z"/>
</svg>
