<svg xmlns="http://www.w3.org/2000/svg" width="445" height="88" viewBox="0 0 445 88">
  <defs>
    <style>
      .cls-1 {
        fill: #fff;
        fill-rule: evenodd;
      }
    </style>
  </defs>
  <path id="_1220_créditos_de_carbono_para_neutralización" data-name="1220 créditos  de carbono para neutralización" class="cls-1" d="M19.638,2.013H11.318L-3.593,10.98l4.127,6.376,9.852-6.044V46.78h9.253V2.013Zm21.633-.863A18.039,18.039,0,0,0,26.294,8.655l5.658,4.517c2.729-3.255,5.059-4.716,8.454-4.716,3.661,0,6.124,2.325,6.124,6.177,0,5.978-3.661,10.1-18.9,25.306V46.78H56.182l1.065-7.306H38.409c13.912-13.018,17.84-18.4,17.84-25.638C56.249,6.861,50.857,1.149,41.271,1.149Zm34.081,0A18.039,18.039,0,0,0,60.375,8.655l5.658,4.517c2.729-3.255,5.059-4.716,8.454-4.716,3.661,0,6.124,2.325,6.124,6.177,0,5.978-3.661,10.1-18.9,25.306V46.78H90.263l1.065-7.306H72.49c13.912-13.018,17.84-18.4,17.84-25.638C90.329,6.861,84.938,1.149,75.352,1.149Zm37.609,0c-10.784,0-16.442,8.3-16.442,23.314,0,14.945,5.658,23.38,16.442,23.38,10.85,0,16.508-8.435,16.508-23.38C129.469,9.452,123.811,1.149,112.961,1.149Zm0,7.041c4.66,0,6.79,3.852,6.79,16.273,0,12.354-2.13,16.273-6.79,16.273s-6.723-4.118-6.723-16.273S108.3,8.19,112.961,8.19Zm54.915,2.325c-10.318,0-16.841,7.771-16.841,18.93,0,11.225,6.457,18.4,16.974,18.4a17.715,17.715,0,0,0,11.582-4.118l-4.127-5.911c-2.6,1.66-4.393,2.458-6.989,2.458-4.46,0-7.455-2.723-7.455-10.893s2.795-11.557,7.522-11.557a10.738,10.738,0,0,1,6.922,2.524l4.127-5.579A16.961,16.961,0,0,0,167.876,10.515Zm35.346,0.066c-4.127,0-7.522,2.923-9.186,7.838l-0.866-6.841h-8.187v35.2h9.452v-18.2c1.265-5.646,3.262-8.834,7.588-8.834a11.854,11.854,0,0,1,3.129.465l1.6-9.1A12.614,12.614,0,0,0,203.222,10.581ZM232.177-.91l-3.728-7.24L214.2,0.352,216.867,5.2Zm7.056,29.292c0-11.225-5.925-17.867-15.91-17.867-10.317,0-16.042,8.236-16.042,18.864,0,11.026,5.925,18.465,17.241,18.465A20.827,20.827,0,0,0,237.9,43.061l-3.927-5.314c-3.062,2.125-5.592,3.055-8.587,3.055-4.526,0-7.722-1.993-8.387-8.767h22.033C239.1,31.039,239.233,29.577,239.233,28.382Zm-9.386-2.258H217c0.466-6.642,2.8-9.166,6.523-9.166,4.527,0,6.324,3.454,6.324,8.768v0.4ZM267.189-3.5V14.035a12.1,12.1,0,0,0-8.586-3.52c-8.72,0-14.312,7.771-14.312,18.664,0,11.225,4.526,18.664,13.38,18.664a11.881,11.881,0,0,0,10.118-5.38l0.532,4.317h8.321V-2.438Zm-6.723,44.3c-3.794,0-6.323-2.79-6.323-11.624,0-8.236,2.795-11.69,6.922-11.69,2.6,0,4.394,1.262,6.124,3.321V36.552C265.326,39.341,263.329,40.8,260.466,40.8ZM290.62-6.556A5.434,5.434,0,0,0,284.9-1.043,5.434,5.434,0,0,0,290.62,4.47a5.491,5.491,0,0,0,5.791-5.513A5.491,5.491,0,0,0,290.62-6.556Zm4.793,18.133h-9.452v35.2h9.452v-35.2Zm27.158,27.565a8.287,8.287,0,0,1-3.994,1.2c-2.4,0-3.528-1.328-3.528-4.782V18.219h7.189l0.932-6.642h-8.121V2.743L305.6,3.872v7.7h-5.259v6.642H305.6V35.754c0,7.838,3.728,12.022,11.05,12.089a16.709,16.709,0,0,0,9.186-2.723Zm21.167-28.627c-10.65,0-16.974,7.439-16.974,18.664,0,11.69,6.39,18.664,16.908,18.664,10.584,0,16.907-7.506,16.907-18.664C360.579,17.489,354.256,10.515,343.738,10.515Zm0,7.041c4.593,0,6.99,3.52,6.99,11.624,0,8.037-2.4,11.624-7.056,11.624s-7.056-3.52-7.056-11.624C336.616,21.142,339.012,17.555,343.738,17.555Zm35.746-7.041c-8.521,0-13.979,4.517-13.979,10.495,0,5.314,3.328,8.834,10.451,10.827,6.523,1.793,7.788,2.657,7.788,5.314,0,2.391-2.263,3.852-5.791,3.852a15.552,15.552,0,0,1-9.453-3.454l-4.659,5.181c3.328,3.055,8.254,5.114,14.378,5.114,8.387,0,15.243-4.118,15.243-11.424,0-6.244-3.994-9.166-11.049-11.092-6.191-1.793-7.389-2.723-7.389-4.782,0-1.926,1.73-3.188,4.859-3.188a16.33,16.33,0,0,1,8.787,2.79l3.594-5.38A20.115,20.115,0,0,0,379.484,10.515ZM5.511,58.163v6.954A4.818,4.818,0,0,0,1.9,63.454c-3.257,0-5.2,2.923-5.2,6.979,0,4.157,1.793,6.878,5,6.878a4.477,4.477,0,0,0,3.863-2.167l0.227,1.864H7.632V58.415ZM2.127,75.623c-1.995,0-3.156-1.688-3.156-5.215s1.313-5.266,3.384-5.266a3.8,3.8,0,0,1,3.156,1.789v6.6A3.836,3.836,0,0,1,2.127,75.623Zm20.248-5.669c0-4.006-1.843-6.5-5.4-6.5-3.383,0-5.454,2.9-5.454,7.055,0,4.208,2.146,6.8,5.808,6.8a7.056,7.056,0,0,0,4.57-1.663l-0.934-1.26a5.656,5.656,0,0,1-3.485,1.184c-1.995,0-3.51-1.26-3.712-4.46h8.56C22.35,70.836,22.375,70.408,22.375,69.954Zm-2.1-.4H13.765c0.177-3.1,1.414-4.409,3.257-4.409,2.2,0,3.257,1.537,3.257,4.208v0.2Zm17.443-6.1c-3.56,0-5.757,2.8-5.757,7.03,0,4.283,2.222,6.828,5.757,6.828a6.039,6.039,0,0,0,3.989-1.461l-0.985-1.386A4.775,4.775,0,0,1,37.8,75.5c-2.171,0-3.56-1.512-3.56-5.039,0-3.553,1.389-5.241,3.56-5.241a4.528,4.528,0,0,1,2.879.983l1.035-1.335A5.832,5.832,0,0,0,37.723,63.454ZM53.5,73.96V67.813c0-2.746-1.439-4.359-4.6-4.359a12.43,12.43,0,0,0-4.495.907l0.53,1.562a11.186,11.186,0,0,1,3.586-.731c1.919,0,2.853.756,2.853,2.721v1.058H49.209c-3.636,0-5.757,1.512-5.757,4.334a3.836,3.836,0,0,0,4.192,4.006,4.481,4.481,0,0,0,3.99-2.041,2.61,2.61,0,0,0,2.474,2.041l0.505-1.486C53.906,75.573,53.5,75.195,53.5,73.96ZM48.124,75.7A2.205,2.205,0,0,1,45.7,73.2c0-1.89,1.313-2.822,3.788-2.822h1.894v3.175A3.574,3.574,0,0,1,48.124,75.7ZM63.952,63.454c-1.666,0-2.9,1.033-3.611,3.074l-0.2-2.772H58.322V77.009h2.121V69.324c0.581-2.6,1.566-3.8,3.257-3.8a4.06,4.06,0,0,1,1.162.151l0.4-2.066A5.515,5.515,0,0,0,63.952,63.454Zm9.9,0a4.57,4.57,0,0,0-3.813,1.991V58.163l-2.121.252V77.009h1.868l0.2-1.512A4.51,4.51,0,0,0,73.6,77.311c3.207,0,5.176-2.772,5.176-6.954C78.772,65.948,76.853,63.454,73.848,63.454ZM73.091,75.623a3.751,3.751,0,0,1-3.055-1.839V67.258a3.922,3.922,0,0,1,3.232-2.117c1.97,0,3.207,1.411,3.207,5.216C76.474,74.036,75.136,75.623,73.091,75.623Zm14.49-12.169c-3.712,0-5.858,2.8-5.858,6.954,0,4.208,2.121,6.9,5.833,6.9s5.858-2.8,5.858-6.954C93.414,66.124,91.318,63.454,87.581,63.454Zm0,1.713c2.3,0,3.56,1.688,3.56,5.19,0,3.553-1.288,5.241-3.586,5.241S84,73.91,84,70.408C84,66.855,85.309,65.167,87.581,65.167Zm15.88-1.713a5.026,5.026,0,0,0-4.167,2.318l-0.177-2.016H97.3V77.009h2.121V67.561c0.934-1.461,1.994-2.444,3.56-2.444,1.363,0,2.171.655,2.171,2.7v9.2h2.121v-9.5C107.273,64.991,105.91,63.454,103.461,63.454Zm13.4,0c-3.711,0-5.858,2.8-5.858,6.954,0,4.208,2.121,6.9,5.833,6.9s5.858-2.8,5.858-6.954C122.7,66.124,120.6,63.454,116.865,63.454Zm0,1.713c2.3,0,3.561,1.688,3.561,5.19,0,3.553-1.288,5.241-3.586,5.241s-3.56-1.688-3.56-5.19C113.28,66.855,114.593,65.167,116.865,65.167Zm22.443-1.713a4.8,4.8,0,0,0-3.964,2.142l-0.177-1.839h-1.818V82.325l2.121-.252V75.724a4.333,4.333,0,0,0,3.56,1.587c3.384,0,5.177-2.9,5.177-6.954C144.207,66.15,142.767,63.454,139.308,63.454Zm-0.783,12.119a3.59,3.59,0,0,1-3.055-1.713V67.283a4.13,4.13,0,0,1,3.333-2.142c2.071,0,3.106,1.688,3.106,5.216C141.909,73.91,140.722,75.573,138.525,75.573Zm18.153-1.612V67.813c0-2.746-1.44-4.359-4.6-4.359a12.431,12.431,0,0,0-4.5.907l0.531,1.562a11.18,11.18,0,0,1,3.585-.731c1.919,0,2.853.756,2.853,2.721v1.058h-2.171c-3.636,0-5.757,1.512-5.757,4.334a3.836,3.836,0,0,0,4.191,4.006,4.481,4.481,0,0,0,3.99-2.041,2.61,2.61,0,0,0,2.475,2.041l0.5-1.486C157.082,75.573,156.678,75.195,156.678,73.96ZM151.3,75.7a2.205,2.205,0,0,1-2.424-2.494c0-1.89,1.313-2.822,3.788-2.822h1.893v3.175A3.573,3.573,0,0,1,151.3,75.7Zm15.829-12.245c-1.666,0-2.9,1.033-3.611,3.074l-0.2-2.772H161.5V77.009h2.121V69.324c0.581-2.6,1.566-3.8,3.258-3.8a4.061,4.061,0,0,1,1.161.151l0.4-2.066A5.512,5.512,0,0,0,167.128,63.454ZM179.322,73.96V67.813c0-2.746-1.439-4.359-4.595-4.359a12.431,12.431,0,0,0-4.5.907l0.53,1.562a11.19,11.19,0,0,1,3.586-.731c1.919,0,2.853.756,2.853,2.721v1.058H175.03c-3.636,0-5.757,1.512-5.757,4.334a3.836,3.836,0,0,0,4.191,4.006,4.481,4.481,0,0,0,3.99-2.041,2.608,2.608,0,0,0,2.474,2.041l0.5-1.486C179.726,75.573,179.322,75.195,179.322,73.96ZM173.944,75.7A2.205,2.205,0,0,1,171.52,73.2c0-1.89,1.313-2.822,3.787-2.822H177.2v3.175A3.574,3.574,0,0,1,173.944,75.7Zm23.124-12.245a5.026,5.026,0,0,0-4.166,2.318l-0.177-2.016h-1.818V77.009h2.121V67.561c0.935-1.461,2-2.444,3.561-2.444,1.363,0,2.171.655,2.171,2.7v9.2h2.121v-9.5C200.881,64.991,199.518,63.454,197.068,63.454Zm18.405,6.5c0-4.006-1.843-6.5-5.4-6.5-3.383,0-5.454,2.9-5.454,7.055,0,4.208,2.146,6.8,5.808,6.8a7.056,7.056,0,0,0,4.57-1.663l-0.934-1.26a5.657,5.657,0,0,1-3.485,1.184c-2,0-3.51-1.26-3.712-4.46h8.56C215.448,70.836,215.473,70.408,215.473,69.954Zm-2.1-.4h-6.515c0.177-3.1,1.414-4.409,3.258-4.409,2.2,0,3.257,1.537,3.257,4.208v0.2Zm15.551-5.8h-2.121v9.5a4.113,4.113,0,0,1-3.459,2.368c-1.49,0-2.172-.706-2.172-2.6V63.756h-2.121v9.5c0,2.6,1.389,4.057,3.712,4.057a4.535,4.535,0,0,0,4.192-2.444l0.151,2.142h1.818V63.756Zm10.6,11.237a3.538,3.538,0,0,1-1.843.554c-1.187,0-1.666-.655-1.666-2.041V65.394H239l0.227-1.638h-3.206V60.481l-2.121.227v3.049h-2.3v1.638h2.3v8.214c0,2.419,1.313,3.7,3.509,3.7a5.084,5.084,0,0,0,2.929-.882Zm8.836-11.54c-1.666,0-2.9,1.033-3.611,3.074l-0.2-2.772h-1.818V77.009h2.121V69.324c0.581-2.6,1.566-3.8,3.258-3.8a4.061,4.061,0,0,1,1.161.151l0.4-2.066A5.512,5.512,0,0,0,248.366,63.454ZM260.56,73.96V67.813c0-2.746-1.439-4.359-4.595-4.359a12.431,12.431,0,0,0-4.5.907L252,65.923a11.19,11.19,0,0,1,3.586-.731c1.919,0,2.853.756,2.853,2.721v1.058h-2.171c-3.636,0-5.758,1.512-5.758,4.334a3.837,3.837,0,0,0,4.192,4.006,4.481,4.481,0,0,0,3.99-2.041,2.608,2.608,0,0,0,2.474,2.041l0.5-1.486C260.964,75.573,260.56,75.195,260.56,73.96ZM255.182,75.7a2.205,2.205,0,0,1-2.424-2.494c0-1.89,1.313-2.822,3.787-2.822h1.894v3.175A3.574,3.574,0,0,1,255.182,75.7Zm12.6,1.612a3.89,3.89,0,0,0,1.767-.428L268.991,75.4a2.412,2.412,0,0,1-.884.151c-0.631,0-.884-0.378-0.884-1.109V58.163l-2.121.252V74.489A2.523,2.523,0,0,0,267.779,77.311Zm5.907-19.8a1.462,1.462,0,1,0,1.515,1.461A1.424,1.424,0,0,0,273.686,57.507Zm1.086,6.249h-2.121V77.009h2.121V63.756Zm12.5,0h-8.863v1.789h6.439l-7.02,9.877v1.587h9.242l0.252-1.789h-7.1l7.045-9.852V63.756Zm11.865,10.2V67.813c0-2.746-1.439-4.359-4.6-4.359a12.43,12.43,0,0,0-4.494.907l0.53,1.562a11.19,11.19,0,0,1,3.586-.731c1.919,0,2.853.756,2.853,2.721v1.058h-2.172c-3.636,0-5.757,1.512-5.757,4.334a3.837,3.837,0,0,0,4.192,4.006,4.481,4.481,0,0,0,3.989-2.041,2.61,2.61,0,0,0,2.475,2.041l0.5-1.486C299.538,75.573,299.134,75.195,299.134,73.96ZM293.756,75.7a2.205,2.205,0,0,1-2.424-2.494c0-1.89,1.313-2.822,3.787-2.822h1.894v3.175A3.574,3.574,0,0,1,293.756,75.7ZM308.8,63.454c-3.56,0-5.757,2.8-5.757,7.03,0,4.283,2.222,6.828,5.757,6.828a6.037,6.037,0,0,0,3.989-1.461l-0.984-1.386a4.776,4.776,0,0,1-2.929,1.033c-2.172,0-3.561-1.512-3.561-5.039,0-3.553,1.389-5.241,3.561-5.241a4.527,4.527,0,0,1,2.878.983l1.035-1.335A5.831,5.831,0,0,0,308.8,63.454Zm8.2-5.946a1.462,1.462,0,1,0,1.515,1.461A1.424,1.424,0,0,0,317.006,57.507Zm1.085,6.249H315.97V77.009h2.121V63.756Zm11.69-6.828-4.949,2.822,0.656,1.134,5.252-2.142Zm-1.945,6.526c-3.711,0-5.858,2.8-5.858,6.954,0,4.208,2.121,6.9,5.833,6.9s5.858-2.8,5.858-6.954C333.669,66.124,331.573,63.454,327.836,63.454Zm0,1.713c2.3,0,3.561,1.688,3.561,5.19,0,3.553-1.288,5.241-3.586,5.241s-3.56-1.688-3.56-5.19C324.251,66.855,325.564,65.167,327.836,65.167Zm15.88-1.713a5.026,5.026,0,0,0-4.167,2.318l-0.176-2.016h-1.818V77.009h2.121V67.561c0.934-1.461,1.994-2.444,3.56-2.444,1.363,0,2.171.655,2.171,2.7v9.2h2.121v-9.5C347.528,64.991,346.165,63.454,343.716,63.454Z"/>
</svg>
