<svg xmlns="http://www.w3.org/2000/svg" width="456" height="99" viewBox="0 0 456 99">
  <defs>
    <style>
      .cls-1 {
        fill: #fff;
        fill-rule: evenodd;
      }
    </style>
  </defs>
  <path id="_203_785.89_GJ_de_energía_consumida_copy" data-name="203 785.89 GJ  de energía consumida copy" class="cls-1" d="M15.657,1.567c-6.752,0-11.9,3.142-15.663,8.453l5.917,5.087C8.765,11.442,11.2,9.8,14.752,9.8c3.829,0,6.4,2.618,6.4,6.957,0,6.733-3.829,11.371-19.77,28.5V52.96H31.25l1.114-8.229h-19.7C27.213,30.069,31.32,24.01,31.32,15.856,31.32,8,25.681,1.567,15.657,1.567Zm39.33,0c-11.277,0-17.194,9.351-17.194,26.258,0,16.832,5.917,26.333,17.194,26.333,11.347,0,17.264-9.5,17.264-26.333C72.251,10.918,66.334,1.567,54.987,1.567Zm0,7.93c4.873,0,7.1,4.339,7.1,18.328,0,13.914-2.228,18.328-7.1,18.328s-7.031-4.638-7.031-18.328S50.115,9.5,54.987,9.5Zm35.85-7.93A20.5,20.5,0,0,0,75.662,8.15l4.942,5.76c2.854-2.918,5.708-4.339,9.258-4.339,4.038,0,6.613,2.319,6.613,6.209,0,4.563-2.924,7.107-7.17,7.107H86.73l-1.183,7.481h3.829c5.151,0,8.075,2.02,8.075,7.63,0,5.012-3.132,7.93-7.866,7.93-3.62,0-6.544-1.421-9.676-4.788l-5.36,5.536c3.62,4.788,8.841,7.481,15.593,7.481,11.208,0,17.473-6.957,17.473-15.485,0-7.93-4.873-11.745-10.72-12.418,5.638-1.646,9.189-5.685,9.189-11.894C106.083,7.327,100.792,1.567,90.838,1.567ZM158.012,2.54H128.427v8.079h19.352L131.768,50.866l8.98,3.217L158.012,9.871V2.54Zm28.332,23.34C191.635,22.888,194,19,194,14.509c0-8.379-7.031-12.942-15.8-12.942-8.841,0-15.8,5.162-15.8,13.391,0,4.788,1.949,8.827,6.961,11.894-5.5,2.618-8.841,6.583-8.841,12.717,0,8.079,6.544,14.588,17.473,14.588,11.138,0,17.82-6.583,17.82-14.812C195.811,33.436,192.749,29.1,186.344,25.88ZM178.269,8.824c4.038,0,6.126,2.543,6.126,6.209,0,3.366-1.114,5.76-4.594,8.154l-1.393-.524c-4.176-1.8-6.4-3.666-6.4-7.556C172,10.993,174.441,8.824,178.269,8.824Zm0,37.554c-4.8,0-7.8-2.768-7.8-7.256,0-4.189,1.74-7.406,5.221-9.351l2.227,0.823c5.778,2.244,7.936,4.264,7.936,8.678C185.857,43.385,183.212,46.377,178.269,46.377ZM230.408,2.54H202.424V29.321h6.891a10.8,10.8,0,0,1,5.848-1.8c4.107,0,7.1,2.319,7.1,8.9,0,6.209-3.063,9.575-8.075,9.575-3.9,0-6.822-1.721-9.328-4.788l-5.569,5.611c3.62,4.339,8.354,7.331,15.176,7.331,10.859,0,17.96-7.256,17.96-17.729,0-10.324-5.709-16.308-13.436-16.308a15.708,15.708,0,0,0-7.1,1.721v-11.6h17.333Zm12.738,38.825a6.41,6.41,0,1,0,5.987,6.359A6.192,6.192,0,0,0,243.146,41.365ZM279.692,25.88c5.29-2.992,7.657-6.882,7.657-11.371,0-8.379-7.031-12.942-15.8-12.942-8.84,0-15.8,5.162-15.8,13.391,0,4.788,1.949,8.827,6.962,11.894-5.5,2.618-8.841,6.583-8.841,12.717,0,8.079,6.543,14.588,17.472,14.588,11.138,0,17.821-6.583,17.821-14.812C289.159,33.436,286.1,29.1,279.692,25.88ZM271.617,8.824c4.037,0,6.126,2.543,6.126,6.209,0,3.366-1.114,5.76-4.595,8.154l-1.392-.524c-4.177-1.8-6.4-3.666-6.4-7.556C265.352,10.993,267.788,8.824,271.617,8.824Zm0,37.554c-4.8,0-7.8-2.768-7.8-7.256,0-4.189,1.741-7.406,5.221-9.351l2.228,0.823c5.778,2.244,7.936,4.264,7.936,8.678C279.205,43.385,276.559,46.377,271.617,46.377Zm37.8-44.81c-9.4,0-16.846,6.658-16.846,17.206,0,10.249,5.987,16.533,13.3,16.533a11.653,11.653,0,0,0,9.885-5.162c-1.532,9.575-7.866,14.139-19.7,17.281l2.088,7.556c19.422-4.638,28.193-13.241,28.193-33.888C326.332,9.572,320.624,1.567,309.416,1.567Zm-0.7,26.108c-3.481,0-6.265-2.394-6.265-9.2,0-6.059,2.715-9.2,6.961-9.2,4.943,0,6.961,3.591,6.822,13.615C314.289,25.955,311.713,27.675,308.72,27.675ZM371.021,0C358.56,0,348.466,9.5,348.466,27c0,17.8,7.449,27.155,21.65,27.155a31,31,0,0,0,16.916-5.237V23.411H369.281l1.044,8h6.752V44.058a13.949,13.949,0,0,1-7.17,1.87c-7.1,0-10.72-5.012-10.72-18.852,0-13.465,5.43-18.926,12.252-18.926,3.967,0,6.682,1.347,9.954,4.04l5.36-5.985A22.16,22.16,0,0,0,371.021,0Zm35.989,1.2H396.777V44.881c0,6.284-1.044,9.725-7.309,12.343l2.715,7.855c8.075-2.843,14.827-7.256,14.827-19.824V1.193ZM10,65.78v7.832a4.9,4.9,0,0,0-3.776-1.873c-3.406,0-5.44,3.292-5.44,7.861,0,4.682,1.875,7.747,5.228,7.747a4.623,4.623,0,0,0,4.04-2.44l0.238,2.1H12.22V66.064ZM6.464,85.445c-2.086,0-3.3-1.9-3.3-5.874S4.536,73.641,6.7,73.641A3.924,3.924,0,0,1,10,75.655V83.09C9.078,84.594,8.075,85.445,6.464,85.445Zm21.174-6.385c0-4.512-1.928-7.321-5.651-7.321-3.538,0-5.7,3.263-5.7,7.946,0,4.739,2.245,7.662,6.073,7.662a7.073,7.073,0,0,0,4.78-1.873L26.16,84.055a5.646,5.646,0,0,1-3.644,1.334c-2.086,0-3.671-1.419-3.882-5.023h8.952C27.612,80.054,27.638,79.571,27.638,79.061Zm-2.192-.454H18.634c0.185-3.49,1.479-4.966,3.406-4.966,2.3,0,3.406,1.731,3.406,4.739v0.227Zm23.576,0.454c0-4.512-1.928-7.321-5.651-7.321-3.538,0-5.7,3.263-5.7,7.946,0,4.739,2.244,7.662,6.073,7.662a7.073,7.073,0,0,0,4.78-1.873l-0.977-1.419A5.646,5.646,0,0,1,43.9,85.389c-2.086,0-3.67-1.419-3.882-5.023H48.97C49,80.054,49.022,79.571,49.022,79.061Zm-2.192-.454H40.018c0.185-3.49,1.479-4.966,3.406-4.966,2.3,0,3.406,1.731,3.406,4.739v0.227Zm12.54-6.867a5.182,5.182,0,0,0-4.357,2.611l-0.185-2.27h-1.9V87.006h2.218V76.365c0.977-1.646,2.086-2.753,3.723-2.753,1.426,0,2.271.738,2.271,3.036V87.006h2.218v-10.7C63.358,73.47,61.932,71.739,59.371,71.739Zm19.247,7.321c0-4.512-1.928-7.321-5.651-7.321-3.538,0-5.7,3.263-5.7,7.946,0,4.739,2.245,7.662,6.073,7.662a7.073,7.073,0,0,0,4.779-1.873l-0.977-1.419a5.646,5.646,0,0,1-3.644,1.334c-2.086,0-3.671-1.419-3.882-5.023h8.952C78.591,80.054,78.617,79.571,78.617,79.061Zm-2.192-.454H69.613c0.185-3.49,1.479-4.966,3.406-4.966,2.3,0,3.406,1.731,3.406,4.739v0.227Zm11.985-6.867c-1.743,0-3.037,1.163-3.776,3.462L84.424,72.08h-1.9V87.006H84.74V78.351c0.607-2.923,1.637-4.285,3.406-4.285a3.959,3.959,0,0,1,1.215.17l0.422-2.327A5.376,5.376,0,0,0,88.411,71.739Zm14.151-1.249c-1.558.766-2.772,1.334-6.284,1.249A5.026,5.026,0,0,0,91,76.9a4.364,4.364,0,0,0,2.324,4.171,3.2,3.2,0,0,0-1.505,2.611c0,1.476,1.109,2.781,3.538,2.781h2.192c1.8,0,2.878.738,2.878,2.213,0,1.561-1.082,2.44-4.145,2.44-3.116,0-3.908-.794-3.908-2.582H90.363c0,3.008,1.452,4.455,5.915,4.455,4.251,0,6.39-1.618,6.39-4.484,0-2.327-1.848-4.058-4.674-4.058H95.776c-1.479,0-1.9-.568-1.9-1.277a1.809,1.809,0,0,1,.766-1.476,5.167,5.167,0,0,0,1.769.284c3.274,0,5.228-2.1,5.228-5.023a3.927,3.927,0,0,0-2.429-3.831,13.758,13.758,0,0,0,4.014-.454Zm-6.284,2.98c2.06,0,3.09,1.22,3.09,3.434s-1.056,3.49-3.037,3.49c-1.954,0-3.063-1.391-3.063-3.49C93.267,74.917,94.3,73.47,96.278,73.47Zm12.7-9.081L103.8,67.568l0.686,1.277,5.493-2.412Zm-0.95,7.69h-2.219V87.006h2.219V72.08Zm14.151,11.493V76.648c0-3.093-1.505-4.909-4.805-4.909a12.2,12.2,0,0,0-4.7,1.022l0.555,1.759a10.97,10.97,0,0,1,3.749-.823c2.007,0,2.984.851,2.984,3.065v1.192h-2.271c-3.8,0-6.02,1.7-6.02,4.881a4.163,4.163,0,0,0,4.383,4.512,4.594,4.594,0,0,0,4.172-2.3,2.791,2.791,0,0,0,2.588,2.3l0.528-1.674C122.6,85.389,122.177,84.963,122.177,83.573Zm-5.624,1.958c-1.664,0-2.535-.993-2.535-2.809,0-2.128,1.373-3.178,3.961-3.178h1.98v3.575A3.734,3.734,0,0,1,116.553,85.531Zm22.81-13.791c-3.723,0-6.021,3.15-6.021,7.917,0,4.824,2.324,7.69,6.021,7.69a6.054,6.054,0,0,0,4.172-1.646l-1.03-1.561a4.775,4.775,0,0,1-3.063,1.163c-2.271,0-3.723-1.7-3.723-5.675,0-4,1.452-5.9,3.723-5.9a4.522,4.522,0,0,1,3.01,1.107l1.083-1.5A5.836,5.836,0,0,0,139.363,71.739Zm12.3,0c-3.882,0-6.126,3.15-6.126,7.832,0,4.739,2.218,7.775,6.1,7.775s6.126-3.15,6.126-7.832C157.766,74.747,155.574,71.739,151.666,71.739Zm0,1.93c2.4,0,3.723,1.9,3.723,5.846,0,4-1.347,5.9-3.749,5.9s-3.724-1.9-3.724-5.846C147.916,75.57,149.289,73.669,151.666,73.669Zm16.606-1.93a5.183,5.183,0,0,0-4.357,2.611l-0.185-2.27h-1.9V87.006h2.218V76.365c0.977-1.646,2.086-2.753,3.723-2.753,1.426,0,2.271.738,2.271,3.036V87.006h2.218v-10.7C172.259,73.47,170.834,71.739,168.272,71.739Zm12.566,0c-2.8,0-4.911,1.7-4.911,4.058,0,2.1,1.188,3.434,4.2,4.285,2.72,0.794,3.433,1.362,3.433,2.923,0,1.5-1.215,2.412-3.09,2.412a6.027,6.027,0,0,1-3.934-1.476l-1.188,1.447a7.2,7.2,0,0,0,5.175,1.958c2.8,0,5.361-1.447,5.361-4.484,0-2.611-1.611-3.8-4.569-4.626-2.3-.653-3.063-1.22-3.063-2.5s1.03-2.1,2.667-2.1a5.865,5.865,0,0,1,3.618,1.305l0.977-1.5A6.977,6.977,0,0,0,180.838,71.739Zm18.72,0.341h-2.219v10.7c-0.871,1.561-2.033,2.668-3.617,2.668-1.558,0-2.271-.795-2.271-2.923V72.08h-2.218v10.7c0,2.923,1.452,4.569,3.881,4.569a4.7,4.7,0,0,0,4.384-2.753l0.158,2.412h1.9V72.08Zm18.85-.341c-1.848,0-3.168,1.107-4.172,2.753a3.508,3.508,0,0,0-3.485-2.753,4.768,4.768,0,0,0-4.093,2.611l-0.185-2.27h-1.9V87.006h2.218V76.365c0.95-1.646,1.875-2.753,3.406-2.753,1.162,0,2.06.738,2.06,3.036V87.006h2.218V76.365c0.977-1.646,1.875-2.753,3.406-2.753,1.162,0,2.06.738,2.06,3.036V87.006h2.218v-10.7C222.158,73.5,220.679,71.739,218.408,71.739Zm9.687-6.7a1.647,1.647,0,1,0,1.584,1.646A1.548,1.548,0,0,0,228.1,65.042Zm1.135,7.038h-2.218V87.006h2.218V72.08Zm13.281-6.3v7.832a4.9,4.9,0,0,0-3.777-1.873c-3.406,0-5.439,3.292-5.439,7.861,0,4.682,1.875,7.747,5.228,7.747a4.623,4.623,0,0,0,4.04-2.44l0.238,2.1h1.928V66.064Zm-3.539,19.665c-2.086,0-3.3-1.9-3.3-5.874s1.373-5.931,3.539-5.931a3.925,3.925,0,0,1,3.3,2.015V83.09C241.586,84.594,240.583,85.445,238.972,85.445Zm19.907-1.873V76.648c0-3.093-1.5-4.909-4.806-4.909a12.19,12.19,0,0,0-4.7,1.022l0.554,1.759a10.975,10.975,0,0,1,3.75-.823c2.007,0,2.984.851,2.984,3.065v1.192H254.39c-3.8,0-6.021,1.7-6.021,4.881a4.163,4.163,0,0,0,4.384,4.512,4.6,4.6,0,0,0,4.172-2.3,2.79,2.79,0,0,0,2.588,2.3l0.528-1.674C259.3,85.389,258.879,84.963,258.879,83.573Zm-5.625,1.958c-1.663,0-2.535-.993-2.535-2.809,0-2.128,1.374-3.178,3.961-3.178h1.981v3.575A3.735,3.735,0,0,1,253.254,85.531Z"/>
</svg>
