<svg xmlns="http://www.w3.org/2000/svg" width="445" height="234" viewBox="0 0 445 234">
  <defs>
    <style>
      .cls-1 {
        fill: #fff;
        fill-rule: evenodd;
      }
    </style>
  </defs>
  <path id="_21_168_personas_beneficiadas_por_las_iniciativas_de_nuestro_" data-name="21 168 personas  beneficiadas   por las iniciativas de nuestro " class="cls-1" d="M14.322,0.832A17.354,17.354,0,0,0-.087,8.053L5.356,12.4c2.626-3.131,4.867-4.537,8.133-4.537A5.525,5.525,0,0,1,19.381,13.8c0,5.751-3.522,9.713-18.187,24.345v6.581H28.666L29.691,37.7H11.568C24.952,25.178,28.73,20,28.73,13.037,28.73,6.327,23.543.832,14.322,0.832Zm39.7,0.831h-8L31.676,10.289l3.97,6.134,9.478-5.815V44.731h8.9V1.663Zm44.825,0h-8L76.5,10.289l3.97,6.134,9.478-5.815V44.731h8.9V1.663Zm27.215,14.249a12.169,12.169,0,0,0-9.414,4.409c0.449-8.179,3.779-12.908,8.966-12.908A11.633,11.633,0,0,1,131.7,9.139l3.33-5.559A16.907,16.907,0,0,0,125.425.832c-11.271,0-18.187,9.585-18.187,24.09,0,12.4,4.675,20.831,15.945,20.831,9.158,0,15.177-6.773,15.177-15.719C138.36,20.9,132.981,15.912,126.065,15.912Zm-2.818,23.2c-4.61,0-6.467-3.706-6.6-12.844,1.922-2.428,4.355-3.962,7.045-3.962,3.458,0,5.507,1.981,5.507,7.86C129.2,35.593,127.282,39.108,123.247,39.108ZM166.024,21.6c4.867-2.556,7.044-5.879,7.044-9.712,0-7.157-6.467-11.055-14.536-11.055C150.4,0.832,144,5.241,144,12.27c0,4.09,1.793,7.54,6.4,10.16-5.059,2.236-8.133,5.623-8.133,10.863,0,6.9,6.02,12.46,16.074,12.46,10.246,0,16.393-5.623,16.393-12.652C174.733,28.053,171.916,24.347,166.024,21.6ZM158.6,7.03c3.714,0,5.635,2.173,5.635,5.3,0,2.876-1.024,4.92-4.226,6.965l-1.281-.447c-3.842-1.534-5.892-3.131-5.892-6.454C152.832,8.883,155.074,7.03,158.6,7.03Zm0,32.077c-4.419,0-7.172-2.364-7.172-6.2a8.459,8.459,0,0,1,4.8-7.987l2.05,0.7c5.315,1.917,7.3,3.642,7.3,7.412C165.576,36.552,163.142,39.108,158.6,39.108ZM22.006,72.836a12.4,12.4,0,0,0-9.862,4.984L11.7,73.858h-8v47.924l9.093-1.022V105.105a10.7,10.7,0,0,0,8.389,3.642c8.517,0,13.448-7.668,13.448-18.019C34.622,79.8,30.843,72.836,22.006,72.836Zm-3.522,29.138a6.526,6.526,0,0,1-5.7-3.323V83.89c1.537-2.556,3.778-4.345,6.4-4.345,3.778,0,5.955,2.748,5.955,11.246C25.144,98.715,22.647,101.974,18.484,101.974ZM70.546,90.025c0-10.8-5.7-17.189-15.305-17.189-9.926,0-15.433,7.923-15.433,18.147,0,10.607,5.7,17.764,16.586,17.764a20.038,20.038,0,0,0,12.871-4.6l-3.778-5.112c-2.946,2.045-5.379,2.94-8.261,2.94-4.355,0-7.428-1.917-8.069-8.435h21.2C70.418,92.581,70.546,91.175,70.546,90.025Zm-9.029-2.173H49.158c0.448-6.39,2.69-8.818,6.276-8.818,4.355,0,6.084,3.323,6.084,8.435v0.383ZM94.688,72.9c-3.97,0-7.236,2.811-8.837,7.54l-0.832-6.582H77.141v33.867h9.093V90.216c1.217-5.431,3.138-8.5,7.3-8.5a11.407,11.407,0,0,1,3.01.447l1.537-8.754A12.126,12.126,0,0,0,94.688,72.9ZM113,72.836c-8.2,0-13.447,4.345-13.447,10.1,0,5.112,3.2,8.5,10.053,10.416,6.276,1.725,7.493,2.556,7.493,5.112,0,2.3-2.177,3.706-5.571,3.706a14.964,14.964,0,0,1-9.094-3.322l-4.482,4.984a20.147,20.147,0,0,0,13.832,4.92c8.068,0,14.664-3.962,14.664-10.991,0-6.006-3.842-8.818-10.63-10.671-5.955-1.725-7.108-2.62-7.108-4.6,0-1.853,1.665-3.067,4.675-3.067A15.71,15.71,0,0,1,121.84,82.1l3.458-5.176A19.355,19.355,0,0,0,113,72.836Zm33.683,0c-10.246,0-16.329,7.157-16.329,17.956,0,11.247,6.147,17.956,16.265,17.956,10.182,0,16.266-7.221,16.266-17.956C162.887,79.545,156.8,72.836,146.685,72.836Zm0,6.773c4.419,0,6.724,3.387,6.724,11.182,0,7.732-2.3,11.183-6.788,11.183s-6.788-3.387-6.788-11.183C139.833,83.06,142.139,79.609,146.685,79.609Zm42.073-6.773c-4.355,0-7.621,1.917-10.374,5.3l-0.7-4.281H169.8v33.867H178.9V84.338c1.857-3,3.906-4.728,6.532-4.728,2.305,0,3.714,1.086,3.714,4.984v23.132h9.093V83.06C198.235,76.67,194.713,72.836,188.758,72.836Zm44.057,25.5V84.657c0-7.668-4.034-11.821-13.448-11.821a35.339,35.339,0,0,0-12.551,2.492l2.049,6.07a31.056,31.056,0,0,1,8.965-1.789c4.291,0,6.084,1.342,6.084,5.559V86.83h-3.907c-10.053,0-15.625,4.026-15.625,11.438,0,6.135,4.227,10.48,11.015,10.48,4.034,0,7.748-1.406,10.182-5.112,1.409,3.387,3.97,4.665,7.812,4.984l1.921-6.006C233.647,102.038,232.815,101.079,232.815,98.331Zm-14.921,3.9c-2.817,0-4.354-1.725-4.354-4.728,0-3.706,2.433-5.5,7.364-5.5h3.01v6.454A6.723,6.723,0,0,1,217.894,102.229Zm34.645-29.393c-8.2,0-13.448,4.345-13.448,10.1,0,5.112,3.2,8.5,10.054,10.416,6.275,1.725,7.492,2.556,7.492,5.112,0,2.3-2.177,3.706-5.571,3.706a14.964,14.964,0,0,1-9.094-3.322l-4.482,4.984a20.147,20.147,0,0,0,13.832,4.92c8.069,0,14.664-3.962,14.664-10.991,0-6.006-3.842-8.818-10.63-10.671-5.955-1.725-7.108-2.62-7.108-4.6,0-1.853,1.665-3.067,4.675-3.067a15.707,15.707,0,0,1,8.453,2.684l3.458-5.176A19.354,19.354,0,0,0,252.539,72.836ZM22.07,135.83a11.383,11.383,0,0,0-9.285,4.664V122.347L3.692,123.37v47.348H11.76l0.512-3.322a10.819,10.819,0,0,0,8.9,4.345c8.389,0,13.448-7.476,13.448-17.956C34.622,142.475,30.011,135.83,22.07,135.83Zm-3.458,29.2a6.772,6.772,0,0,1-5.827-3.643V146.884c1.537-2.556,3.65-4.345,6.276-4.345,3.586,0,6.083,2.428,6.083,11.246C25.144,162.028,22.455,165.032,18.612,165.032Zm51.934-12.013c0-10.8-5.7-17.189-15.305-17.189-9.926,0-15.433,7.923-15.433,18.147,0,10.607,5.7,17.764,16.586,17.764a20.038,20.038,0,0,0,12.871-4.6l-3.778-5.112c-2.946,2.045-5.379,2.94-8.261,2.94-4.355,0-7.428-1.917-8.069-8.435h21.2C70.418,155.575,70.546,154.169,70.546,153.019Zm-9.029-2.173H49.158c0.448-6.39,2.69-8.818,6.276-8.818,4.355,0,6.084,3.323,6.084,8.435v0.383ZM96.1,135.83c-4.355,0-7.621,1.917-10.374,5.3l-0.7-4.281H77.141v33.866h9.093V147.332c1.857-3,3.906-4.729,6.532-4.729,2.305,0,3.714,1.086,3.714,4.984v23.131h9.093V146.054C105.574,139.664,102.052,135.83,96.1,135.83Zm46.811,17.189c0-10.8-5.7-17.189-15.305-17.189-9.925,0-15.433,7.923-15.433,18.147,0,10.607,5.7,17.764,16.586,17.764a20.039,20.039,0,0,0,12.872-4.6l-3.779-5.112c-2.945,2.045-5.379,2.94-8.26,2.94-4.355,0-7.429-1.917-8.069-8.435h21.2C142.779,155.575,142.907,154.169,142.907,153.019Zm-9.029-2.173H121.519c0.448-6.39,2.689-8.818,6.276-8.818,4.354,0,6.083,3.323,6.083,8.435v0.383Zm30.161-21.726a12.868,12.868,0,0,1,5.507,1.278l2.5-6.006a20.378,20.378,0,0,0-8.965-2.045c-8.261,0-12.424,4.857-12.424,11.119v3.386h-5.379v6.39h5.379v27.476h9.094V143.242h7.044l1.024-6.39h-8.068v-3.131C159.749,130.526,160.965,129.12,164.039,129.12Zm12.423-9.712a5.307,5.307,0,1,0,0,10.607A5.31,5.31,0,1,0,176.462,119.408Zm4.611,17.444H171.98v33.866h9.093V136.852Zm23.117-1.022c-9.926,0-16.2,7.476-16.2,18.211,0,10.8,6.211,17.7,16.329,17.7a17.046,17.046,0,0,0,11.143-3.962l-3.97-5.687c-2.5,1.6-4.227,2.364-6.724,2.364-4.291,0-7.173-2.619-7.173-10.479s2.69-11.118,7.237-11.118a10.331,10.331,0,0,1,6.66,2.428l3.97-5.368A16.321,16.321,0,0,0,204.19,135.83Zm20.94-16.422a5.307,5.307,0,1,0,0,10.607A5.31,5.31,0,1,0,225.13,119.408Zm4.611,17.444h-9.093v33.866h9.093V136.852Zm34.9,24.473V147.651c0-7.668-4.034-11.821-13.448-11.821a35.346,35.346,0,0,0-12.551,2.492l2.049,6.07a31.061,31.061,0,0,1,8.965-1.789c4.291,0,6.084,1.342,6.084,5.559v1.662h-3.906c-10.054,0-15.626,4.025-15.626,11.437,0,6.135,4.227,10.48,11.015,10.48,4.034,0,7.748-1.406,10.182-5.112,1.409,3.387,3.97,4.665,7.812,4.984l1.922-6.006C265.474,165.032,264.641,164.073,264.641,161.325Zm-14.921,3.9c-2.817,0-4.354-1.725-4.354-4.728,0-3.706,2.433-5.5,7.364-5.5h3.01v6.454A6.723,6.723,0,0,1,249.72,165.223Zm44.314-42.876v16.869a11.649,11.649,0,0,0-8.261-3.386c-8.389,0-13.768,7.476-13.768,17.955,0,10.8,4.355,17.956,12.872,17.956a11.429,11.429,0,0,0,9.733-5.176l0.513,4.153h8V123.37Zm-6.468,42.621c-3.65,0-6.083-2.684-6.083-11.183,0-7.923,2.689-11.246,6.659-11.246,2.5,0,4.227,1.214,5.892,3.2v15.144C292.241,163.562,290.32,164.968,287.566,164.968Zm50.461-3.643V147.651c0-7.668-4.034-11.821-13.447-11.821a35.351,35.351,0,0,0-12.552,2.492l2.049,6.07a31.061,31.061,0,0,1,8.966-1.789c4.29,0,6.083,1.342,6.083,5.559v1.662H325.22c-10.054,0-15.625,4.025-15.625,11.437,0,6.135,4.226,10.48,11.014,10.48,4.035,0,7.749-1.406,10.182-5.112,1.409,3.387,3.971,4.665,7.813,4.984l1.921-6.006C338.86,165.032,338.027,164.073,338.027,161.325Zm-14.92,3.9c-2.818,0-4.355-1.725-4.355-4.728,0-3.706,2.434-5.5,7.364-5.5h3.01v6.454A6.723,6.723,0,0,1,323.107,165.223Zm34.644-29.393c-8.2,0-13.448,4.345-13.448,10.1,0,5.112,3.2,8.5,10.054,10.415,6.276,1.726,7.492,2.556,7.492,5.112,0,2.3-2.177,3.706-5.571,3.706a14.961,14.961,0,0,1-9.093-3.322l-4.483,4.984a20.149,20.149,0,0,0,13.832,4.92c8.069,0,14.665-3.962,14.665-10.991,0-6.006-3.842-8.818-10.63-10.671-5.956-1.725-7.108-2.62-7.108-4.6,0-1.854,1.664-3.068,4.674-3.068a15.707,15.707,0,0,1,8.453,2.684l3.458-5.176A19.352,19.352,0,0,0,357.751,135.83ZM7.249,186.759a4.617,4.617,0,0,0-3.814,2.06l-0.17-1.769H1.517v17.864l2.04-.243v-6.108a4.168,4.168,0,0,0,3.425,1.527c3.255,0,4.98-2.787,4.98-6.69C11.962,189.352,10.577,186.759,7.249,186.759ZM6.5,198.418a3.452,3.452,0,0,1-2.939-1.649v-6.326a3.972,3.972,0,0,1,3.206-2.06c1.992,0,2.988,1.624,2.988,5.017C9.751,196.818,8.61,198.418,6.5,198.418Zm13.94-11.659c-3.571,0-5.636,2.69-5.636,6.69,0,4.047,2.04,6.641,5.611,6.641s5.636-2.69,5.636-6.69C26.048,189.328,24.032,186.759,20.437,186.759Zm0,1.648c2.21,0,3.425,1.624,3.425,4.993,0,3.418-1.239,5.042-3.449,5.042s-3.425-1.624-3.425-4.993C16.987,190.031,18.25,188.407,20.437,188.407ZM35.2,186.759c-1.6,0-2.794.993-3.474,2.957l-0.194-2.666H29.786V199.8h2.041v-7.393c0.559-2.5,1.506-3.66,3.134-3.66a3.9,3.9,0,0,1,1.117.146l0.389-1.988A5.305,5.305,0,0,0,35.2,186.759ZM47.952,200.09a3.751,3.751,0,0,0,1.7-.412l-0.534-1.43a2.313,2.313,0,0,1-.85.145c-0.607,0-.85-0.363-0.85-1.066V181.668l-2.041.243v15.464A2.427,2.427,0,0,0,47.952,200.09Zm12.971-3.224v-5.914c0-2.642-1.385-4.193-4.421-4.193a11.973,11.973,0,0,0-4.324.872l0.51,1.5a10.775,10.775,0,0,1,3.449-.7c1.846,0,2.745.727,2.745,2.618v1.018H56.793c-3.5,0-5.538,1.454-5.538,4.169a3.69,3.69,0,0,0,4.032,3.854,4.311,4.311,0,0,0,3.838-1.963,2.511,2.511,0,0,0,2.381,1.963l0.486-1.43C61.311,198.418,60.923,198.054,60.923,196.866Zm-5.174,1.673a2.122,2.122,0,0,1-2.332-2.4c0-1.818,1.263-2.715,3.644-2.715h1.822v3.054A3.437,3.437,0,0,1,55.749,198.539Zm13.236-11.78c-2.575,0-4.518,1.454-4.518,3.466,0,1.793,1.093,2.933,3.862,3.66,2.5,0.679,3.158,1.163,3.158,2.5,0,1.285-1.117,2.061-2.842,2.061a5.8,5.8,0,0,1-3.619-1.261l-1.093,1.237a6.91,6.91,0,0,0,4.761,1.672c2.575,0,4.931-1.236,4.931-3.83,0-2.23-1.482-3.248-4.2-3.951-2.113-.557-2.818-1.042-2.818-2.133s0.947-1.793,2.453-1.793a5.654,5.654,0,0,1,3.328,1.115l0.9-1.285A6.719,6.719,0,0,0,68.984,186.759Zm15.373-5.721a1.407,1.407,0,1,0,1.458,1.406A1.37,1.37,0,0,0,84.357,181.038ZM85.4,187.05h-2.04V199.8H85.4V187.05Zm10.541-.291a4.832,4.832,0,0,0-4.008,2.23l-0.17-1.939H90.015V199.8h2.04V190.71c0.9-1.406,1.919-2.352,3.425-2.352,1.312,0,2.089.631,2.089,2.594V199.8h2.04v-9.138C99.61,188.237,98.3,186.759,95.942,186.759Zm9.131-5.721a1.407,1.407,0,1,0,1.457,1.406A1.37,1.37,0,0,0,105.073,181.038Zm1.044,6.012h-2.04V199.8h2.04V187.05Zm9.278-.291c-3.425,0-5.538,2.69-5.538,6.762,0,4.121,2.137,6.569,5.538,6.569a5.809,5.809,0,0,0,3.838-1.406l-0.947-1.333a4.6,4.6,0,0,1-2.818.994c-2.089,0-3.425-1.454-3.425-4.848,0-3.418,1.336-5.042,3.425-5.042a4.351,4.351,0,0,1,2.769.946l1-1.285A5.607,5.607,0,0,0,115.4,186.759Zm7.892-5.721a1.407,1.407,0,1,0,1.458,1.406A1.37,1.37,0,0,0,123.287,181.038Zm1.045,6.012h-2.041V199.8h2.041V187.05Zm13.019,9.816v-5.914c0-2.642-1.385-4.193-4.422-4.193a11.97,11.97,0,0,0-4.323.872l0.51,1.5a10.767,10.767,0,0,1,3.449-.7c1.846,0,2.745.727,2.745,2.618v1.018h-2.089c-3.5,0-5.539,1.454-5.539,4.169a3.691,3.691,0,0,0,4.033,3.854,4.312,4.312,0,0,0,3.838-1.963,2.511,2.511,0,0,0,2.381,1.963l0.485-1.43C137.739,198.418,137.351,198.054,137.351,196.866Zm-5.175,1.673a2.122,2.122,0,0,1-2.332-2.4c0-1.818,1.264-2.715,3.644-2.715h1.822v3.054A3.438,3.438,0,0,1,132.176,198.539Zm15.4-.679a3.4,3.4,0,0,1-1.773.533c-1.142,0-1.6-.63-1.6-1.963v-7.805h2.866l0.219-1.575H144.2V183.9l-2.041.219v2.933h-2.21v1.575h2.21v7.9c0,2.327,1.263,3.563,3.377,3.563a4.9,4.9,0,0,0,2.818-.848Zm4.079-16.822a1.407,1.407,0,1,0,1.458,1.406A1.37,1.37,0,0,0,151.653,181.038Zm1.045,6.012h-2.041V199.8H152.7V187.05Zm13.869,0h-2.162l-3.425,10.931-3.474-10.931h-2.235l4.445,12.749h2.478Zm10.856,9.816v-5.914c0-2.642-1.385-4.193-4.421-4.193a11.971,11.971,0,0,0-4.324.872l0.51,1.5a10.778,10.778,0,0,1,3.449-.7c1.846,0,2.745.727,2.745,2.618v1.018h-2.089c-3.5,0-5.538,1.454-5.538,4.169a3.69,3.69,0,0,0,4.032,3.854,4.311,4.311,0,0,0,3.838-1.963,2.511,2.511,0,0,0,2.381,1.963l0.486-1.43C177.811,198.418,177.423,198.054,177.423,196.866Zm-5.174,1.673a2.122,2.122,0,0,1-2.332-2.4c0-1.818,1.263-2.715,3.643-2.715h1.822v3.054A3.437,3.437,0,0,1,172.249,198.539Zm13.236-11.78c-2.575,0-4.519,1.454-4.519,3.466,0,1.793,1.093,2.933,3.863,3.66,2.5,0.679,3.158,1.163,3.158,2.5,0,1.285-1.118,2.061-2.843,2.061a5.8,5.8,0,0,1-3.619-1.261l-1.093,1.237a6.908,6.908,0,0,0,4.761,1.672c2.575,0,4.931-1.236,4.931-3.83,0-2.23-1.482-3.248-4.2-3.951-2.114-.557-2.818-1.042-2.818-2.133s0.947-1.793,2.453-1.793a5.652,5.652,0,0,1,3.328,1.115l0.9-1.285A6.717,6.717,0,0,0,185.485,186.759Zm21.979-5.091v6.69a4.634,4.634,0,0,0-3.473-1.6c-3.134,0-5,2.811-5,6.714,0,4,1.724,6.617,4.809,6.617a4.307,4.307,0,0,0,3.717-2.085l0.219,1.794h1.773V181.911Zm-3.255,16.8c-1.919,0-3.036-1.624-3.036-5.017s1.263-5.066,3.255-5.066a3.653,3.653,0,0,1,3.036,1.721v6.35A3.69,3.69,0,0,1,204.209,198.466Zm19.479-5.454c0-3.854-1.773-6.253-5.2-6.253-3.255,0-5.247,2.787-5.247,6.787,0,4.047,2.064,6.544,5.587,6.544a6.784,6.784,0,0,0,4.4-1.6l-0.9-1.212a5.442,5.442,0,0,1-3.353,1.14c-1.919,0-3.376-1.212-3.57-4.291h8.234C223.664,193.861,223.688,193.449,223.688,193.012Zm-2.016-.388h-6.267c0.17-2.981,1.36-4.241,3.133-4.241,2.114,0,3.134,1.478,3.134,4.048v0.193Zm18.044-5.865a4.831,4.831,0,0,0-4.008,2.23l-0.17-1.939h-1.749V199.8h2.04V190.71c0.9-1.406,1.919-2.352,3.425-2.352,1.312,0,2.089.631,2.089,2.594V199.8h2.041v-9.138C243.384,188.237,242.072,186.759,239.716,186.759ZM257.2,187.05h-2.041v9.138a3.956,3.956,0,0,1-3.328,2.278c-1.433,0-2.089-.679-2.089-2.5V187.05h-2.04v9.138c0,2.5,1.336,3.9,3.571,3.9a4.362,4.362,0,0,0,4.032-2.351l0.146,2.06H257.2V187.05Zm14.183,5.962c0-3.854-1.773-6.253-5.2-6.253-3.255,0-5.247,2.787-5.247,6.787,0,4.047,2.065,6.544,5.587,6.544a6.788,6.788,0,0,0,4.4-1.6l-0.9-1.212a5.441,5.441,0,0,1-3.352,1.14c-1.92,0-3.377-1.212-3.571-4.291h8.235C271.362,193.861,271.386,193.449,271.386,193.012Zm-2.016-.388H263.1c0.17-2.981,1.36-4.241,3.133-4.241,2.114,0,3.134,1.478,3.134,4.048v0.193Zm9.033-5.865c-2.574,0-4.518,1.454-4.518,3.466,0,1.793,1.093,2.933,3.863,3.66,2.5,0.679,3.157,1.163,3.157,2.5,0,1.285-1.117,2.061-2.842,2.061a5.8,5.8,0,0,1-3.619-1.261l-1.093,1.237a6.908,6.908,0,0,0,4.761,1.672c2.575,0,4.931-1.236,4.931-3.83,0-2.23-1.482-3.248-4.2-3.951-2.114-.557-2.818-1.042-2.818-2.133s0.947-1.793,2.453-1.793A5.652,5.652,0,0,1,281.8,189.5l0.9-1.285A6.719,6.719,0,0,0,278.4,186.759Zm13.456,11.1a3.4,3.4,0,0,1-1.774.533c-1.141,0-1.6-.63-1.6-1.963v-7.805h2.866l0.219-1.575h-3.085V183.9l-2.04.219v2.933h-2.211v1.575h2.211v7.9c0,2.327,1.263,3.563,3.376,3.563a4.9,4.9,0,0,0,2.818-.848Zm8.5-11.1c-1.6,0-2.794.993-3.474,2.957l-0.194-2.666h-1.749V199.8h2.04v-7.393c0.559-2.5,1.506-3.66,3.134-3.66a3.9,3.9,0,0,1,1.117.146l0.389-1.988A5.307,5.307,0,0,0,300.359,186.759Zm8.111,0c-3.571,0-5.636,2.69-5.636,6.69,0,4.047,2.041,6.641,5.612,6.641s5.635-2.69,5.635-6.69C314.081,189.328,312.065,186.759,308.47,186.759Zm0,1.648c2.211,0,3.425,1.624,3.425,4.993,0,3.418-1.239,5.042-3.449,5.042s-3.425-1.624-3.425-4.993C305.021,190.031,306.284,188.407,308.47,188.407Zm21.591-1.648a4.617,4.617,0,0,0-3.814,2.06l-0.17-1.769h-1.749v17.864l2.04-.243v-6.108a4.169,4.169,0,0,0,3.425,1.527c3.255,0,4.98-2.787,4.98-6.69C334.773,189.352,333.389,186.759,330.061,186.759Zm-0.753,11.659a3.454,3.454,0,0,1-2.94-1.649v-6.326a3.973,3.973,0,0,1,3.207-2.06c1.992,0,2.988,1.624,2.988,5.017C332.563,196.818,331.421,198.418,329.308,198.418Zm14.6-11.659c-1.6,0-2.794.993-3.474,2.957l-0.194-2.666h-1.749V199.8h2.04v-7.393c0.559-2.5,1.506-3.66,3.134-3.66a3.9,3.9,0,0,1,1.117.146l0.389-1.988A5.307,5.307,0,0,0,343.9,186.759Zm8.111,0c-3.571,0-5.636,2.69-5.636,6.69,0,4.047,2.041,6.641,5.612,6.641s5.635-2.69,5.635-6.69C357.626,189.328,355.61,186.759,352.015,186.759Zm0,1.648c2.211,0,3.425,1.624,3.425,4.993,0,3.418-1.239,5.042-3.449,5.042s-3.425-1.624-3.425-4.993C348.566,190.031,349.829,188.407,352.015,188.407Zm18.92-2.715a10.8,10.8,0,0,1-5.781,1.067c-2.818,0-4.859,1.818-4.859,4.411a3.684,3.684,0,0,0,2.138,3.563,2.7,2.7,0,0,0-1.385,2.23c0,1.261,1.021,2.376,3.256,2.376h2.016c1.652,0,2.647.63,2.647,1.89,0,1.333-1,2.085-3.813,2.085-2.867,0-3.595-.679-3.595-2.206h-1.847c0,2.569,1.336,3.806,5.442,3.806,3.911,0,5.878-1.382,5.878-3.83,0-1.988-1.7-3.466-4.3-3.466h-2.041c-1.36,0-1.749-.485-1.749-1.091a1.515,1.515,0,0,1,.705-1.261,5.073,5.073,0,0,0,1.627.243c3.012,0,4.81-1.794,4.81-4.29a3.351,3.351,0,0,0-2.235-3.273,13.569,13.569,0,0,0,3.692-.387Zm-5.781,2.545c1.894,0,2.842,1.042,2.842,2.933s-0.972,2.982-2.794,2.982a2.686,2.686,0,0,1-2.818-2.982A2.646,2.646,0,0,1,365.154,188.237Zm14.183-1.478c-1.6,0-2.793.993-3.473,2.957l-0.195-2.666H373.92V199.8h2.041v-7.393c0.559-2.5,1.506-3.66,3.133-3.66a3.9,3.9,0,0,1,1.118.146L380.6,186.9A5.309,5.309,0,0,0,379.337,186.759Zm11.731,10.107v-5.914c0-2.642-1.384-4.193-4.421-4.193a11.975,11.975,0,0,0-4.324.872l0.511,1.5a10.767,10.767,0,0,1,3.449-.7c1.846,0,2.745.727,2.745,2.618v1.018h-2.089c-3.5,0-5.539,1.454-5.539,4.169a3.691,3.691,0,0,0,4.033,3.854,4.312,4.312,0,0,0,3.838-1.963,2.511,2.511,0,0,0,2.38,1.963l0.486-1.43C391.457,198.418,391.068,198.054,391.068,196.866Zm-5.174,1.673a2.122,2.122,0,0,1-2.332-2.4c0-1.818,1.263-2.715,3.644-2.715h1.822v3.054A3.438,3.438,0,0,1,385.894,198.539Zm22.54-11.78a4.507,4.507,0,0,0-3.838,2.351,3.191,3.191,0,0,0-3.207-2.351,4.424,4.424,0,0,0-3.765,2.23l-0.17-1.939h-1.749V199.8h2.041V190.71c0.874-1.406,1.724-2.352,3.133-2.352,1.069,0,1.895.631,1.895,2.594V199.8h2.04V190.71c0.9-1.406,1.725-2.352,3.134-2.352,1.069,0,1.9.631,1.9,2.594V199.8h2.04v-9.138C411.883,188.261,410.523,186.759,408.434,186.759Zm16.319,10.107v-5.914c0-2.642-1.384-4.193-4.421-4.193a11.975,11.975,0,0,0-4.324.872l0.51,1.5a10.778,10.778,0,0,1,3.45-.7c1.846,0,2.745.727,2.745,2.618v1.018h-2.089c-3.5,0-5.539,1.454-5.539,4.169a3.691,3.691,0,0,0,4.033,3.854,4.312,4.312,0,0,0,3.838-1.963,2.51,2.51,0,0,0,2.38,1.963l0.486-1.43C425.142,198.418,424.753,198.054,424.753,196.866Zm-5.174,1.673a2.122,2.122,0,0,1-2.332-2.4c0-1.818,1.263-2.715,3.644-2.715h1.822v3.054A3.438,3.438,0,0,1,419.579,198.539ZM9.12,210.749v6.69a4.633,4.633,0,0,0-3.474-1.6c-3.134,0-5,2.812-5,6.714,0,4,1.725,6.618,4.81,6.618a4.306,4.306,0,0,0,3.717-2.085l0.219,1.794H11.16V210.992Zm-3.255,16.8c-1.919,0-3.036-1.624-3.036-5.018s1.263-5.066,3.255-5.066a3.657,3.657,0,0,1,3.036,1.721v6.351A3.69,3.69,0,0,1,5.865,227.547Zm19.479-5.454c0-3.854-1.773-6.254-5.2-6.254-3.255,0-5.247,2.788-5.247,6.787,0,4.048,2.065,6.545,5.587,6.545a6.788,6.788,0,0,0,4.4-1.6l-0.9-1.212a5.439,5.439,0,0,1-3.352,1.139c-1.919,0-3.376-1.212-3.571-4.29h8.235C25.319,222.941,25.343,222.529,25.343,222.093Zm-2.016-.388H17.06c0.17-2.981,1.36-4.242,3.134-4.242,2.113,0,3.134,1.479,3.134,4.048v0.194ZM44.7,216.13H42.537l-3.425,10.932L35.639,216.13H33.4l4.445,12.75h2.478Zm7.261-.291c-3.571,0-5.636,2.691-5.636,6.69,0,4.048,2.041,6.642,5.611,6.642s5.636-2.691,5.636-6.69C57.572,218.409,55.555,215.839,51.96,215.839Zm0,1.649c2.211,0,3.425,1.624,3.425,4.993,0,3.417-1.239,5.041-3.449,5.041s-3.425-1.624-3.425-4.993C48.511,219.112,49.774,217.488,51.96,217.488Zm11.778,11.683a3.751,3.751,0,0,0,1.7-.412l-0.534-1.43a2.313,2.313,0,0,1-.85.145c-0.607,0-.85-0.364-0.85-1.067V210.749l-2.041.243v15.464A2.427,2.427,0,0,0,63.739,229.171ZM77.778,216.13H75.737v9.138a3.959,3.959,0,0,1-3.328,2.279c-1.433,0-2.089-.679-2.089-2.5v-8.92H68.28v9.138c0,2.5,1.336,3.9,3.571,3.9a4.362,4.362,0,0,0,4.032-2.351l0.146,2.06h1.749V216.13Zm10.54-.291a4.835,4.835,0,0,0-4.008,2.23l-0.17-1.939H82.39v12.75h2.04v-9.09c0.9-1.406,1.919-2.351,3.425-2.351,1.312,0,2.089.63,2.089,2.594v8.847h2.041v-9.138C91.985,217.318,90.674,215.839,88.317,215.839Zm13.722,11.1a3.411,3.411,0,0,1-1.773.533c-1.142,0-1.6-.63-1.6-1.963v-7.805h2.867l0.218-1.576H98.662v-3.151l-2.04.218v2.933H94.411v1.576h2.211v7.9c0,2.327,1.263,3.563,3.377,3.563a4.889,4.889,0,0,0,2.818-.849Zm11.488-.994v-5.914c0-2.642-1.385-4.194-4.421-4.194a11.952,11.952,0,0,0-4.324.873l0.51,1.5a10.75,10.75,0,0,1,3.449-.7c1.847,0,2.745.727,2.745,2.618v1.018H109.4c-3.5,0-5.538,1.454-5.538,4.169a3.691,3.691,0,0,0,4.032,3.854,4.31,4.31,0,0,0,3.838-1.964,2.511,2.511,0,0,0,2.381,1.964l0.486-1.43A1.534,1.534,0,0,1,113.527,225.947Zm-5.174,1.672a2.121,2.121,0,0,1-2.332-2.4c0-1.818,1.263-2.715,3.643-2.715h1.822v3.054A3.438,3.438,0,0,1,108.353,227.619Zm15.228-11.78c-1.6,0-2.794.994-3.474,2.957l-0.194-2.666h-1.749v12.75h2.04v-7.393c0.559-2.5,1.506-3.66,3.134-3.66a3.9,3.9,0,0,1,1.117.145l0.389-1.987A5.306,5.306,0,0,0,123.581,215.839Zm4.807-5.72a1.407,1.407,0,1,0,1.458,1.406A1.37,1.37,0,0,0,128.388,210.119Zm1.045,6.011h-2.041v12.75h2.041V216.13Zm13.018,9.817v-5.914c0-2.642-1.384-4.194-4.421-4.194a11.956,11.956,0,0,0-4.324.873l0.51,1.5a10.751,10.751,0,0,1,3.45-.7c1.846,0,2.745.727,2.745,2.618v1.018h-2.089c-3.5,0-5.539,1.454-5.539,4.169a3.691,3.691,0,0,0,4.033,3.854,4.311,4.311,0,0,0,3.838-1.964,2.51,2.51,0,0,0,2.38,1.964l0.486-1.43A1.534,1.534,0,0,1,142.451,225.947Zm-5.174,1.672a2.121,2.121,0,0,1-2.332-2.4c0-1.818,1.263-2.715,3.644-2.715h1.822v3.054A3.438,3.438,0,0,1,137.277,227.619Zm17.414-16.87v6.69a4.634,4.634,0,0,0-3.474-1.6c-3.133,0-5,2.812-5,6.714,0,4,1.725,6.618,4.81,6.618a4.307,4.307,0,0,0,3.717-2.085l0.218,1.794h1.774V210.992Zm-3.255,16.8c-1.919,0-3.036-1.624-3.036-5.018s1.263-5.066,3.255-5.066a3.656,3.656,0,0,1,3.036,1.721v6.351A3.69,3.69,0,0,1,151.436,227.547Zm14.669-11.708c-3.571,0-5.636,2.691-5.636,6.69,0,4.048,2.041,6.642,5.612,6.642s5.635-2.691,5.635-6.69C171.716,218.409,169.7,215.839,166.105,215.839Zm0,1.649c2.211,0,3.425,1.624,3.425,4.993,0,3.417-1.239,5.041-3.449,5.041s-3.425-1.624-3.425-4.993C162.656,219.112,163.919,217.488,166.105,217.488Zm9.592,8.556a1.548,1.548,0,0,0-1.554,1.551,1.651,1.651,0,0,0,.656,1.309l-0.972,3.927h1.457l1.579-3.612a3.8,3.8,0,0,0,.413-1.624A1.539,1.539,0,0,0,175.7,226.044ZM198.286,212.2h-2.138l-4.324,14.423-4.3-14.423h-2.283l5.417,16.677h2.283Zm6.677,3.636c-3.571,0-5.636,2.691-5.636,6.69,0,4.048,2.041,6.642,5.612,6.642s5.635-2.691,5.635-6.69C210.574,218.409,208.558,215.839,204.963,215.839Zm0,1.649c2.21,0,3.425,1.624,3.425,4.993,0,3.417-1.239,5.041-3.449,5.041s-3.425-1.624-3.425-4.993C201.514,219.112,202.777,217.488,204.963,217.488Zm11.778,11.683a3.754,3.754,0,0,0,1.7-.412l-0.535-1.43a2.312,2.312,0,0,1-.85.145c-0.607,0-.85-0.364-0.85-1.067V210.749l-2.041.243v15.464A2.428,2.428,0,0,0,216.741,229.171ZM230.78,216.13h-2.04v9.138a3.96,3.96,0,0,1-3.328,2.279c-1.433,0-2.089-.679-2.089-2.5v-8.92h-2.041v9.138c0,2.5,1.336,3.9,3.571,3.9a4.363,4.363,0,0,0,4.033-2.351l0.145,2.06h1.749V216.13Zm10.54-.291a4.834,4.834,0,0,0-4.008,2.23l-0.17-1.939h-1.749v12.75h2.04v-9.09c0.9-1.406,1.919-2.351,3.425-2.351,1.312,0,2.089.63,2.089,2.594v8.847h2.041v-9.138C244.988,217.318,243.676,215.839,241.32,215.839Zm13.722,11.1a3.412,3.412,0,0,1-1.774.533c-1.141,0-1.6-.63-1.6-1.963v-7.805h2.866l0.219-1.576h-3.085v-3.151l-2.04.218v2.933h-2.211v1.576h2.211v7.9c0,2.327,1.263,3.563,3.376,3.563a4.889,4.889,0,0,0,2.818-.849Zm11.488-.994v-5.914c0-2.642-1.385-4.194-4.422-4.194a11.951,11.951,0,0,0-4.323.873l0.51,1.5a10.74,10.74,0,0,1,3.449-.7c1.846,0,2.745.727,2.745,2.618v1.018H262.4c-3.5,0-5.539,1.454-5.539,4.169a3.692,3.692,0,0,0,4.033,3.854,4.311,4.311,0,0,0,3.838-1.964,2.511,2.511,0,0,0,2.381,1.964l0.485-1.43C266.918,227.5,266.53,227.135,266.53,225.947Zm-5.175,1.672a2.121,2.121,0,0,1-2.332-2.4c0-1.818,1.264-2.715,3.644-2.715h1.822v3.054A3.438,3.438,0,0,1,261.355,227.619Zm17.414-16.87v6.69a4.631,4.631,0,0,0-3.473-1.6c-3.134,0-5,2.812-5,6.714,0,4,1.724,6.618,4.809,6.618a4.307,4.307,0,0,0,3.717-2.085l0.219,1.794h1.773V210.992Zm-3.255,16.8c-1.919,0-3.036-1.624-3.036-5.018s1.263-5.066,3.255-5.066a3.656,3.656,0,0,1,3.036,1.721v6.351A3.69,3.69,0,0,1,275.514,227.547Zm19.479-5.454c0-3.854-1.773-6.254-5.2-6.254-3.255,0-5.247,2.788-5.247,6.787,0,4.048,2.064,6.545,5.587,6.545a6.784,6.784,0,0,0,4.4-1.6l-0.9-1.212a5.441,5.441,0,0,1-3.353,1.139c-1.919,0-3.376-1.212-3.57-4.29h8.234C294.969,222.941,294.993,222.529,294.993,222.093Zm-2.016-.388H286.71c0.17-2.981,1.36-4.242,3.133-4.242,2.114,0,3.134,1.479,3.134,4.048v0.194Zm9.033-5.866c-2.575,0-4.518,1.455-4.518,3.466,0,1.794,1.093,2.933,3.863,3.661,2.5,0.678,3.157,1.163,3.157,2.5,0,1.285-1.117,2.06-2.842,2.06a5.794,5.794,0,0,1-3.619-1.26l-1.093,1.236a6.9,6.9,0,0,0,4.761,1.673c2.575,0,4.931-1.236,4.931-3.83,0-2.23-1.482-3.248-4.2-3.951-2.114-.557-2.818-1.042-2.818-2.133s0.947-1.794,2.453-1.794a5.659,5.659,0,0,1,3.328,1.115l0.9-1.284A6.72,6.72,0,0,0,302.01,215.839Zm20.377-3.926c-3.79,0-6.9,2.957-6.9,8.629,0,5.6,2.915,8.629,6.923,8.629a6.532,6.532,0,0,0,4.713-1.842L326.079,226a5.6,5.6,0,0,1-3.6,1.382c-2.672,0-4.761-1.963-4.761-6.835,0-5.115,2.162-6.884,4.785-6.884a5,5,0,0,1,3.28,1.236l1.141-1.357A6.489,6.489,0,0,0,322.387,211.913Zm14.014-.606-0.924-1.746-4.761,2.715,0.632,1.091Zm1.7,14.64v-5.914c0-2.642-1.385-4.194-4.421-4.194a11.952,11.952,0,0,0-4.324.873l0.51,1.5a10.751,10.751,0,0,1,3.45-.7c1.846,0,2.744.727,2.744,2.618v1.018h-2.089c-3.5,0-5.538,1.454-5.538,4.169a3.691,3.691,0,0,0,4.032,3.854,4.363,4.363,0,0,0,3.838-1.964,2.486,2.486,0,0,0,2.381,1.964l0.486-1.43A1.534,1.534,0,0,1,338.1,225.947Zm-5.174,1.672a2.121,2.121,0,0,1-2.332-2.4c0-1.818,1.263-2.715,3.644-2.715h1.821v3.03A3.4,3.4,0,0,1,332.927,227.619Zm12.119,1.552a3.749,3.749,0,0,0,1.7-.412l-0.534-1.43a2.318,2.318,0,0,1-.851.145c-0.607,0-.85-0.364-0.85-1.067V210.749l-2.04.243v15.464A2.427,2.427,0,0,0,345.046,229.171Zm5.682-19.052a1.407,1.407,0,1,0,1.458,1.406A1.37,1.37,0,0,0,350.728,210.119Zm1.045,6.011h-2.041v12.75h2.041V216.13Zm12.217-5.381v6.69a4.634,4.634,0,0,0-3.474-1.6c-3.133,0-5,2.812-5,6.714,0,4,1.725,6.618,4.81,6.618a4.3,4.3,0,0,0,3.716-2.085l0.219,1.794h1.773V210.992Zm-3.255,16.8c-1.919,0-3.037-1.624-3.037-5.018s1.264-5.066,3.255-5.066a3.657,3.657,0,0,1,3.037,1.721v6.351A3.69,3.69,0,0,1,360.735,227.547Zm17.511-16.8v6.69a4.634,4.634,0,0,0-3.474-1.6c-3.134,0-5,2.812-5,6.714,0,4,1.725,6.618,4.81,6.618a4.3,4.3,0,0,0,3.716-2.085l0.219,1.794h1.773V210.992Zm-3.255,16.8c-1.919,0-3.037-1.624-3.037-5.018s1.263-5.066,3.255-5.066a3.659,3.659,0,0,1,3.037,1.721v6.351A3.691,3.691,0,0,1,374.991,227.547Zm18.312-1.6v-5.914c0-2.642-1.384-4.194-4.421-4.194a11.956,11.956,0,0,0-4.324.873l0.51,1.5a10.751,10.751,0,0,1,3.45-.7c1.846,0,2.745.727,2.745,2.618v1.018h-2.089c-3.5,0-5.539,1.454-5.539,4.169a3.691,3.691,0,0,0,4.033,3.854,4.311,4.311,0,0,0,3.838-1.964,2.51,2.51,0,0,0,2.38,1.964l0.486-1.43A1.534,1.534,0,0,1,393.3,225.947Zm-5.174,1.672a2.121,2.121,0,0,1-2.332-2.4c0-1.818,1.263-2.715,3.644-2.715h1.822v3.054A3.438,3.438,0,0,1,388.129,227.619Zm13.236-11.78c-2.575,0-4.518,1.455-4.518,3.466,0,1.794,1.093,2.933,3.862,3.661,2.5,0.678,3.158,1.163,3.158,2.5,0,1.285-1.117,2.06-2.842,2.06a5.794,5.794,0,0,1-3.619-1.26l-1.094,1.236a6.909,6.909,0,0,0,4.762,1.673c2.575,0,4.931-1.236,4.931-3.83,0-2.23-1.482-3.248-4.2-3.951-2.113-.557-2.817-1.042-2.817-2.133s0.947-1.794,2.453-1.794a5.659,5.659,0,0,1,3.328,1.115l0.9-1.284A6.722,6.722,0,0,0,401.365,215.839Z"/>
</svg>
