<svg xmlns="http://www.w3.org/2000/svg" width="456" height="205" viewBox="0 0 456 205">
  <defs>
    <style>
      .cls-1 {
        fill: #fff;
        fill-rule: evenodd;
      }
    </style>
  </defs>
  <path id="_85.5_millones_de_toneladas_de_CO2_eq_evitadas_al_ambiente_eq" data-name="85.5 millones  de toneladas de CO2 eq evitadas al  ambiente, eq" class="cls-1" d="M25.308,25.939c4.809-2.526,6.96-5.808,6.96-9.6C32.268,9.271,25.877,5.42,17.9,5.42c-8.036,0-14.363,4.356-14.363,11.3,0,4.041,1.772,7.45,6.327,10.039-5,2.21-8.036,5.556-8.036,10.733,0,6.819,5.948,12.311,15.881,12.311,10.124,0,16.2-5.556,16.2-12.5C33.913,32.316,31.129,28.654,25.308,25.939Zm-7.34-14.395c3.67,0,5.568,2.147,5.568,5.24,0,2.841-1.012,4.862-4.176,6.882l-1.265-.442c-3.8-1.515-5.821-3.094-5.821-6.377C12.274,13.375,14.488,11.544,17.968,11.544Zm0,31.694c-4.366,0-7.086-2.336-7.086-6.124a8.357,8.357,0,0,1,4.746-7.892l2.025,0.694c5.252,1.894,7.213,3.6,7.213,7.324C24.865,40.713,22.46,43.238,17.968,43.238Zm47.39-37H39.923v22.6h6.264A10.363,10.363,0,0,1,51.5,27.328c3.733,0,6.454,1.957,6.454,7.513,0,5.24-2.784,8.081-7.34,8.081a10.746,10.746,0,0,1-8.479-4.041l-5.062,4.735A17.608,17.608,0,0,0,50.869,49.8c9.871,0,16.324-6.124,16.324-14.963,0-8.713-5.188-13.763-12.212-13.763a15.18,15.18,0,0,0-6.454,1.452V12.744H64.283ZM76.937,39.008a5.4,5.4,0,1,0,5.441,5.367A5.409,5.409,0,0,0,76.937,39.008ZM114.519,6.241H89.084v22.6h6.264a10.363,10.363,0,0,1,5.315-1.515c3.733,0,6.454,1.957,6.454,7.513,0,5.24-2.784,8.081-7.34,8.081A10.746,10.746,0,0,1,91.3,38.882l-5.062,4.735A17.608,17.608,0,0,0,100.03,49.8c9.871,0,16.324-6.124,16.324-14.963,0-8.713-5.188-13.763-12.211-13.763a15.182,15.182,0,0,0-6.454,1.452V12.744h15.755Zm60.171,8.081c-4.3,0-7.4,1.957-10.06,5.43a8.027,8.027,0,0,0-7.973-5.43c-4.239,0-7.276,1.894-9.743,5.177l-0.7-4.167h-7.783V48.794h8.985V25.686c1.645-2.967,3.29-4.672,5.757-4.672,1.835,0,3.291,1.073,3.291,4.925V48.794h8.984V25.686c1.709-2.967,3.354-4.672,5.821-4.672,1.772,0,3.291,1.073,3.291,4.925V48.794h8.984V24.424C183.548,18.11,179.942,14.322,174.69,14.322ZM196.518-1.9a5.166,5.166,0,0,0-5.441,5.24,5.166,5.166,0,0,0,5.441,5.24,5.22,5.22,0,0,0,5.5-5.24A5.22,5.22,0,0,0,196.518-1.9Zm4.556,17.236h-8.985V48.794h8.985V15.332ZM218.284,49.8a14.784,14.784,0,0,0,5.758-1.136l-1.835-6.377a3.861,3.861,0,0,1-1.772.379c-1.265,0-1.835-.758-1.835-2.21V1l-8.984,1.01v38.7C209.616,46.521,212.842,49.8,218.284,49.8Zm18.728,0a14.784,14.784,0,0,0,5.758-1.136l-1.835-6.377a3.861,3.861,0,0,1-1.772.379c-1.265,0-1.835-.758-1.835-2.21V1l-8.984,1.01v38.7C228.344,46.521,231.57,49.8,237.012,49.8Zm24.17-35.482c-10.124,0-16.135,7.071-16.135,17.741,0,11.112,6.075,17.741,16.072,17.741,10.06,0,16.071-7.134,16.071-17.741C277.19,20.951,271.179,14.322,261.182,14.322Zm0,6.692c4.366,0,6.644,3.346,6.644,11.049,0,7.639-2.278,11.049-6.707,11.049s-6.707-3.346-6.707-11.049C254.412,24.424,256.69,21.014,261.182,21.014Zm41.57-6.692c-4.3,0-7.53,1.894-10.25,5.24l-0.7-4.23h-7.783V48.794h8.985V25.686c1.835-2.967,3.859-4.672,6.454-4.672,2.277,0,3.669,1.073,3.669,4.925V48.794h8.985V24.424C312.116,18.11,308.636,14.322,302.752,14.322ZM349,31.305c0-10.67-5.631-16.983-15.122-16.983-9.807,0-15.248,7.829-15.248,17.93,0,10.48,5.631,17.552,16.387,17.552a19.8,19.8,0,0,0,12.718-4.546l-3.733-5.051c-2.911,2.02-5.315,2.9-8.162,2.9-4.3,0-7.34-1.894-7.973-8.334h20.944C348.877,33.831,349,32.442,349,31.305Zm-8.921-2.147H327.87c0.443-6.314,2.658-8.713,6.2-8.713,4.3,0,6.011,3.283,6.011,8.334v0.379Zm26.574-14.837c-8.1,0-13.287,4.293-13.287,9.975,0,5.051,3.163,8.4,9.934,10.291,6.2,1.7,7.4,2.525,7.4,5.051,0,2.273-2.151,3.662-5.5,3.662a14.78,14.78,0,0,1-8.985-3.283l-4.429,4.925A19.907,19.907,0,0,0,365.454,49.8c7.972,0,14.489-3.914,14.489-10.859,0-5.935-3.8-8.713-10.5-10.544-5.884-1.7-7.023-2.588-7.023-4.546,0-1.831,1.645-3.03,4.619-3.03a15.521,15.521,0,0,1,8.352,2.652l3.416-5.114A19.12,19.12,0,0,0,366.656,14.322ZM9.538,59.613v6.61a4.579,4.579,0,0,0-3.432-1.581c-3.1,0-4.944,2.778-4.944,6.634,0,3.952,1.7,6.538,4.752,6.538a4.255,4.255,0,0,0,3.672-2.06L9.8,77.527h1.752V59.853ZM6.322,76.21c-1.9,0-3-1.6-3-4.958s1.248-5.005,3.216-5.005a3.613,3.613,0,0,1,3,1.7v6.275A3.647,3.647,0,0,1,6.322,76.21Zm19.246-5.389c0-3.808-1.752-6.179-5.136-6.179-3.216,0-5.184,2.754-5.184,6.706,0,4,2.04,6.466,5.52,6.466a6.708,6.708,0,0,0,4.344-1.581l-0.888-1.2a5.376,5.376,0,0,1-3.312,1.126c-1.9,0-3.336-1.2-3.528-4.239H25.52C25.544,71.66,25.568,71.252,25.568,70.821Zm-1.992-.383H17.383c0.168-2.946,1.344-4.191,3.1-4.191,2.088,0,3.1,1.461,3.1,4v0.192Zm17.493,5.173a3.365,3.365,0,0,1-1.752.527c-1.128,0-1.584-.623-1.584-1.94V66.487h2.832L40.78,64.93H37.732V61.816l-2.016.215v2.9H33.532v1.557h2.184v7.807c0,2.3,1.248,3.52,3.336,3.52a4.834,4.834,0,0,0,2.784-.838Zm7.415-10.969c-3.528,0-5.568,2.658-5.568,6.61,0,4,2.016,6.562,5.544,6.562s5.568-2.658,5.568-6.61C54.027,67.181,52.035,64.642,48.483,64.642Zm0,1.629c2.184,0,3.384,1.6,3.384,4.933,0,3.377-1.224,4.982-3.408,4.982s-3.384-1.6-3.384-4.934C45.075,67.876,46.323,66.271,48.483,66.271Zm15.094-1.629a4.777,4.777,0,0,0-3.96,2.2L59.449,64.93H57.721v12.6h2.016V68.546c0.888-1.389,1.9-2.323,3.384-2.323,1.3,0,2.064.623,2.064,2.563v8.742H67.2V68.5C67.2,66.1,65.905,64.642,63.577,64.642Zm17.494,6.179c0-3.808-1.752-6.179-5.136-6.179-3.216,0-5.184,2.754-5.184,6.706,0,4,2.04,6.466,5.52,6.466a6.707,6.707,0,0,0,4.344-1.581l-0.888-1.2a5.376,5.376,0,0,1-3.312,1.126c-1.9,0-3.336-1.2-3.528-4.239h8.136C81.047,71.66,81.071,71.252,81.071,70.821Zm-1.992-.383H72.887c0.168-2.946,1.344-4.191,3.1-4.191,2.088,0,3.1,1.461,3.1,4v0.192Zm7.942,7.376a3.7,3.7,0,0,0,1.68-.407l-0.528-1.413a2.287,2.287,0,0,1-.84.144c-0.6,0-.84-0.359-0.84-1.054V59.613l-2.016.239v15.28A2.4,2.4,0,0,0,87.02,77.815Zm12.816-3.185V68.786c0-2.61-1.368-4.143-4.368-4.143A11.815,11.815,0,0,0,91.2,65.5l0.5,1.485a10.632,10.632,0,0,1,3.408-.695c1.824,0,2.712.719,2.712,2.587v1.006H95.756c-3.456,0-5.472,1.437-5.472,4.119a3.647,3.647,0,0,0,3.984,3.808,4.259,4.259,0,0,0,3.792-1.94,2.481,2.481,0,0,0,2.352,1.94l0.48-1.413A1.515,1.515,0,0,1,99.836,74.629Zm-5.112,1.653a2.1,2.1,0,0,1-2.3-2.371c0-1.8,1.248-2.682,3.6-2.682h1.8v3.018A3.4,3.4,0,0,1,94.724,76.282ZM111.93,59.613v6.61a4.579,4.579,0,0,0-3.432-1.581c-3.1,0-4.945,2.778-4.945,6.634,0,3.952,1.7,6.538,4.752,6.538a4.256,4.256,0,0,0,3.673-2.06l0.216,1.772h1.752V59.853Zm-3.216,16.6c-1.9,0-3-1.6-3-4.958s1.248-5.005,3.217-5.005a3.612,3.612,0,0,1,3,1.7v6.275A3.646,3.646,0,0,1,108.714,76.21Zm18.093-1.581V68.786c0-2.61-1.368-4.143-4.368-4.143a11.814,11.814,0,0,0-4.272.862l0.5,1.485a10.631,10.631,0,0,1,3.408-.695c1.824,0,2.712.719,2.712,2.587v1.006h-2.064c-3.456,0-5.472,1.437-5.472,4.119a3.647,3.647,0,0,0,3.984,3.808,4.259,4.259,0,0,0,3.792-1.94,2.481,2.481,0,0,0,2.352,1.94l0.48-1.413A1.515,1.515,0,0,1,126.807,74.629ZM121.7,76.282a2.1,2.1,0,0,1-2.3-2.371c0-1.8,1.248-2.682,3.6-2.682h1.8v3.018A3.4,3.4,0,0,1,121.7,76.282Zm13.078-11.639c-2.544,0-4.464,1.437-4.464,3.425,0,1.772,1.08,2.9,3.816,3.616,2.472,0.671,3.12,1.15,3.12,2.467,0,1.269-1.1,2.036-2.808,2.036a5.728,5.728,0,0,1-3.576-1.245l-1.08,1.221a6.824,6.824,0,0,0,4.7,1.652c2.544,0,4.872-1.221,4.872-3.784,0-2.2-1.464-3.209-4.152-3.9-2.088-.551-2.784-1.03-2.784-2.108s0.936-1.772,2.424-1.772a5.589,5.589,0,0,1,3.288,1.1l0.888-1.269A6.638,6.638,0,0,0,134.773,64.642Zm21.717-5.029v6.61a4.579,4.579,0,0,0-3.432-1.581c-3.1,0-4.944,2.778-4.944,6.634,0,3.952,1.7,6.538,4.752,6.538a4.255,4.255,0,0,0,3.672-2.06l0.216,1.772h1.752V59.853Zm-3.216,16.6c-1.9,0-3-1.6-3-4.958s1.248-5.005,3.216-5.005a3.612,3.612,0,0,1,3,1.7v6.275A3.646,3.646,0,0,1,153.274,76.21Zm19.246-5.389c0-3.808-1.752-6.179-5.136-6.179-3.217,0-5.185,2.754-5.185,6.706,0,4,2.04,6.466,5.521,6.466a6.707,6.707,0,0,0,4.344-1.581l-0.888-1.2a5.376,5.376,0,0,1-3.312,1.126c-1.9,0-3.337-1.2-3.529-4.239h8.137C172.5,71.66,172.52,71.252,172.52,70.821Zm-1.992-.383h-6.193c0.168-2.946,1.345-4.191,3.1-4.191,2.088,0,3.1,1.461,3.1,4v0.192Zm17.9-9.676c-3.744,0-6.816,2.922-6.816,8.526,0,5.532,2.88,8.526,6.84,8.526a6.451,6.451,0,0,0,4.657-1.82l-1.032-1.317a5.543,5.543,0,0,1-3.553,1.365c-2.64,0-4.7-1.94-4.7-6.754,0-5.053,2.136-6.8,4.728-6.8a4.939,4.939,0,0,1,3.241,1.221l1.128-1.341A6.418,6.418,0,0,0,188.428,60.763Zm13.007,0c-4.08,0-6.913,3.137-6.913,8.574,0,5.508,2.809,8.478,6.913,8.478,4.128,0,6.912-3.065,6.912-8.5C208.347,63.756,205.539,60.763,201.435,60.763Zm0,1.724c2.9,0,4.7,2.012,4.7,6.825s-1.824,6.778-4.7,6.778c-2.784,0-4.705-1.964-4.705-6.754C196.73,64.5,198.6,62.487,201.435,62.487Zm11.477,8.608a3.417,3.417,0,0,0-2.8,1.382l0.77,0.614a2.457,2.457,0,0,1,1.973-1.033,1.494,1.494,0,0,1,1.581,1.62c0,1.55-.812,2.457-4.142,5.948v0.935h5.457l0.14-.991h-4.254c2.925-2.96,4.03-4.175,4.03-5.948A2.523,2.523,0,0,0,212.912,71.095Zm21.86-.274c0-3.808-1.752-6.179-5.136-6.179-3.217,0-5.185,2.754-5.185,6.706,0,4,2.04,6.466,5.521,6.466a6.707,6.707,0,0,0,4.344-1.581l-0.888-1.2a5.376,5.376,0,0,1-3.312,1.126c-1.9,0-3.337-1.2-3.529-4.239h8.137C234.748,71.66,234.772,71.252,234.772,70.821Zm-1.992-.383h-6.193c0.168-2.946,1.345-4.191,3.1-4.191,2.088,0,3.1,1.461,3.1,4v0.192Zm13.342-5.508-0.144,1.437a4.642,4.642,0,0,0-3.577-1.724c-3.1,0-4.944,2.778-4.944,6.634,0,3.952,1.7,6.538,4.752,6.538a4.288,4.288,0,0,0,3.625-1.964v6.49l2.016,0.24V64.93h-1.728Zm-3.48,11.28c-1.921,0-3.025-1.6-3.025-4.958s1.248-5.005,3.217-5.005a3.612,3.612,0,0,1,3,1.7v6.275A3.638,3.638,0,0,1,242.642,76.21Zm25.652-5.389c0-3.808-1.752-6.179-5.136-6.179-3.216,0-5.184,2.754-5.184,6.706,0,4,2.04,6.466,5.52,6.466a6.707,6.707,0,0,0,4.344-1.581l-0.888-1.2a5.376,5.376,0,0,1-3.312,1.126c-1.9,0-3.336-1.2-3.528-4.239h8.136C268.27,71.66,268.294,71.252,268.294,70.821Zm-1.992-.383H260.11c0.168-2.946,1.344-4.191,3.1-4.191,2.088,0,3.1,1.461,3.1,4v0.192Zm14.59-5.508h-2.136l-3.384,10.8-3.432-10.8h-2.208l4.392,12.6h2.448Zm3.526-5.939a1.39,1.39,0,1,0,1.44,1.389A1.354,1.354,0,0,0,284.418,58.99Zm1.032,5.939h-2.016v12.6h2.016V64.93Zm10.079,10.681a3.365,3.365,0,0,1-1.752.527c-1.128,0-1.584-.623-1.584-1.94V66.487h2.832l0.216-1.557h-3.048V61.816l-2.016.215v2.9h-2.185v1.557h2.185v7.807c0,2.3,1.248,3.52,3.336,3.52a4.833,4.833,0,0,0,2.784-.838Zm11.351-.982V68.786c0-2.61-1.368-4.143-4.369-4.143a11.814,11.814,0,0,0-4.272.862l0.5,1.485a10.631,10.631,0,0,1,3.408-.695c1.824,0,2.713.719,2.713,2.587v1.006H302.8c-3.456,0-5.472,1.437-5.472,4.119a3.647,3.647,0,0,0,3.984,3.808,4.26,4.26,0,0,0,3.793-1.94,2.481,2.481,0,0,0,2.352,1.94l0.48-1.413A1.515,1.515,0,0,1,306.88,74.629Zm-5.113,1.653a2.1,2.1,0,0,1-2.3-2.371c0-1.8,1.248-2.682,3.6-2.682h1.8v3.018A3.4,3.4,0,0,1,301.767,76.282Zm17.206-16.669v6.61a4.579,4.579,0,0,0-3.432-1.581c-3.1,0-4.944,2.778-4.944,6.634,0,3.952,1.7,6.538,4.752,6.538a4.255,4.255,0,0,0,3.672-2.06l0.216,1.772h1.753V59.853Zm-3.216,16.6c-1.9,0-3-1.6-3-4.958s1.248-5.005,3.216-5.005a3.612,3.612,0,0,1,3,1.7v6.275A3.646,3.646,0,0,1,315.757,76.21Zm18.094-1.581V68.786c0-2.61-1.368-4.143-4.368-4.143a11.814,11.814,0,0,0-4.272.862l0.5,1.485a10.631,10.631,0,0,1,3.408-.695c1.824,0,2.712.719,2.712,2.587v1.006h-2.064c-3.456,0-5.472,1.437-5.472,4.119a3.647,3.647,0,0,0,3.984,3.808,4.259,4.259,0,0,0,3.792-1.94,2.481,2.481,0,0,0,2.352,1.94l0.48-1.413A1.515,1.515,0,0,1,333.851,74.629Zm-5.112,1.653a2.1,2.1,0,0,1-2.3-2.371c0-1.8,1.248-2.682,3.6-2.682h1.8v3.018A3.4,3.4,0,0,1,328.739,76.282Zm13.078-11.639c-2.545,0-4.465,1.437-4.465,3.425,0,1.772,1.08,2.9,3.817,3.616,2.472,0.671,3.12,1.15,3.12,2.467,0,1.269-1.1,2.036-2.808,2.036a5.729,5.729,0,0,1-3.577-1.245l-1.08,1.221a6.825,6.825,0,0,0,4.7,1.652c2.544,0,4.872-1.221,4.872-3.784,0-2.2-1.464-3.209-4.152-3.9-2.089-.551-2.785-1.03-2.785-2.108s0.937-1.772,2.425-1.772a5.589,5.589,0,0,1,3.288,1.1l0.888-1.269A6.638,6.638,0,0,0,341.817,64.642Zm22.509,9.987V68.786c0-2.61-1.368-4.143-4.368-4.143a11.823,11.823,0,0,0-4.273.862l0.5,1.485a10.642,10.642,0,0,1,3.409-.695c1.824,0,2.712.719,2.712,2.587v1.006h-2.064c-3.457,0-5.473,1.437-5.473,4.119a3.647,3.647,0,0,0,3.985,3.808,4.259,4.259,0,0,0,3.792-1.94,2.481,2.481,0,0,0,2.352,1.94l0.48-1.413A1.515,1.515,0,0,1,364.326,74.629Zm-5.112,1.653a2.1,2.1,0,0,1-2.305-2.371c0-1.8,1.249-2.682,3.6-2.682h1.8v3.018A3.4,3.4,0,0,1,359.214,76.282Zm11.974,1.533a3.7,3.7,0,0,0,1.68-.407l-0.528-1.413a2.286,2.286,0,0,1-.84.144c-0.6,0-.84-0.359-0.84-1.054V59.613l-2.016.239v15.28A2.4,2.4,0,0,0,371.188,77.815ZM10.33,103.363V97.519c0-2.61-1.368-4.143-4.368-4.143a11.815,11.815,0,0,0-4.272.862l0.5,1.485A10.632,10.632,0,0,1,5.6,95.028c1.824,0,2.712.719,2.712,2.587v1.006H6.25c-3.456,0-5.472,1.437-5.472,4.119a3.647,3.647,0,0,0,3.984,3.808,4.26,4.26,0,0,0,3.792-1.94,2.482,2.482,0,0,0,2.352,1.94l0.48-1.413A1.515,1.515,0,0,1,10.33,103.363Zm-5.112,1.652a2.1,2.1,0,0,1-2.3-2.371c0-1.8,1.248-2.682,3.6-2.682h1.8v3.017A3.4,3.4,0,0,1,5.218,105.015Zm22.27-11.639A4.454,4.454,0,0,0,23.7,95.7a3.153,3.153,0,0,0-3.168-2.323,4.373,4.373,0,0,0-3.72,2.2L16.64,93.663H14.912v12.6h2.016V97.279c0.864-1.389,1.7-2.323,3.1-2.323,1.056,0,1.872.623,1.872,2.563v8.741h2.016V97.279c0.888-1.389,1.7-2.323,3.1-2.323,1.056,0,1.872.623,1.872,2.563v8.741H30.9V97.232C30.9,94.861,29.552,93.376,27.488,93.376Zm13.46,0a4.344,4.344,0,0,0-3.624,1.892V88.346l-2.016.24V106.26h1.776l0.192-1.437a4.287,4.287,0,0,0,3.432,1.725c3.048,0,4.92-2.635,4.92-6.61C45.629,95.747,43.8,93.376,40.949,93.376Zm-0.72,11.567a3.565,3.565,0,0,1-2.9-1.748v-6.2A3.728,3.728,0,0,1,40.4,94.98c1.872,0,3.048,1.341,3.048,4.957C43.445,103.434,42.173,104.943,40.229,104.943ZM50.282,87.724a1.39,1.39,0,1,0,1.44,1.389A1.354,1.354,0,0,0,50.282,87.724Zm1.032,5.939H49.3v12.6h2.016v-12.6Zm14.015,5.891c0-3.808-1.752-6.179-5.136-6.179-3.216,0-5.184,2.754-5.184,6.706,0,4,2.04,6.466,5.52,6.466a6.707,6.707,0,0,0,4.344-1.581l-0.888-1.2a5.378,5.378,0,0,1-3.312,1.125c-1.9,0-3.336-1.2-3.528-4.239h8.136C65.305,100.393,65.329,99.986,65.329,99.555Zm-1.992-.383H57.145c0.168-2.946,1.344-4.191,3.1-4.191,2.088,0,3.1,1.461,3.1,4v0.192Zm11.4-5.8a4.777,4.777,0,0,0-3.96,2.2l-0.168-1.916H68.879v12.6h2.016V97.279c0.888-1.389,1.9-2.323,3.384-2.323,1.3,0,2.064.623,2.064,2.563v8.741h2.016V97.232C78.359,94.837,77.063,93.376,74.735,93.376Zm13.558,10.968a3.358,3.358,0,0,1-1.752.527c-1.128,0-1.584-.622-1.584-1.94V95.22h2.832L88,93.663H84.956V90.55l-2.016.215v2.9H80.756V95.22H82.94v7.807c0,2.3,1.248,3.521,3.336,3.521a4.84,4.84,0,0,0,2.784-.838Zm12.167-4.789c0-3.808-1.752-6.179-5.137-6.179-3.216,0-5.184,2.754-5.184,6.706,0,4,2.04,6.466,5.52,6.466A6.709,6.709,0,0,0,100,104.967l-0.888-1.2A5.378,5.378,0,0,1,95.8,104.9c-1.9,0-3.336-1.2-3.528-4.239h8.137C100.436,100.393,100.46,99.986,100.46,99.555Zm-1.992-.383H92.275c0.168-2.946,1.344-4.191,3.1-4.191,2.088,0,3.1,1.461,3.1,4v0.192Zm5.781,4.287a1.53,1.53,0,0,0-1.536,1.533,1.63,1.63,0,0,0,.648,1.293l-0.96,3.88h1.44l1.56-3.568a3.764,3.764,0,0,0,.408-1.605A1.521,1.521,0,0,0,104.249,103.458Zm20.975-3.9c0-3.808-1.753-6.179-5.137-6.179-3.216,0-5.184,2.754-5.184,6.706,0,4,2.04,6.466,5.52,6.466a6.711,6.711,0,0,0,4.345-1.581l-0.889-1.2a5.377,5.377,0,0,1-3.312,1.125c-1.9,0-3.336-1.2-3.528-4.239h8.137C125.2,100.393,125.224,99.986,125.224,99.555Zm-1.993-.383h-6.192c0.168-2.946,1.344-4.191,3.1-4.191,2.088,0,3.1,1.461,3.1,4v0.192Zm13.342-5.508L136.429,95.1a4.641,4.641,0,0,0-3.576-1.724c-3.1,0-4.944,2.778-4.944,6.634,0,3.951,1.7,6.538,4.752,6.538a4.289,4.289,0,0,0,3.624-1.964v6.49l2.016,0.24V93.663h-1.728Zm-3.48,11.28c-1.92,0-3.024-1.6-3.024-4.957s1.248-5.005,3.216-5.005a3.612,3.612,0,0,1,3,1.7v6.274A3.637,3.637,0,0,1,133.093,104.943ZM152.1,93.663h-2.016v9.029a3.911,3.911,0,0,1-3.288,2.251c-1.416,0-2.064-.67-2.064-2.467V93.663h-2.016v9.029c0,2.467,1.32,3.856,3.528,3.856a4.309,4.309,0,0,0,3.984-2.323l0.144,2.035H152.1v-12.6Zm5.541-5.939a1.39,1.39,0,1,0,1.441,1.389A1.354,1.354,0,0,0,157.64,87.724Zm1.033,5.939h-2.017v12.6h2.017v-12.6Zm13.7,0H170.24l-3.385,10.8-3.432-10.8h-2.208l4.392,12.6h2.448Zm10.726,9.7V97.519c0-2.61-1.368-4.143-4.368-4.143a11.814,11.814,0,0,0-4.272.862l0.5,1.485a10.631,10.631,0,0,1,3.408-.695c1.824,0,2.712.719,2.712,2.587v1.006h-2.064c-3.456,0-5.472,1.437-5.472,4.119a3.647,3.647,0,0,0,3.984,3.808,4.259,4.259,0,0,0,3.792-1.94,2.481,2.481,0,0,0,2.352,1.94l0.48-1.413A1.515,1.515,0,0,1,183.1,103.363Zm-5.112,1.652a2.1,2.1,0,0,1-2.3-2.371c0-1.8,1.248-2.682,3.6-2.682h1.8v3.017A3.4,3.4,0,0,1,177.99,105.015Zm11.974,1.533a3.707,3.707,0,0,0,1.68-.407l-0.528-1.413a2.3,2.3,0,0,1-.84.143c-0.6,0-.84-0.359-0.84-1.053V88.346l-2.016.24v15.28A2.4,2.4,0,0,0,189.964,106.548Zm13.967-6.993c0-3.808-1.752-6.179-5.136-6.179-3.216,0-5.184,2.754-5.184,6.706,0,4,2.04,6.466,5.52,6.466a6.707,6.707,0,0,0,4.344-1.581l-0.888-1.2a5.377,5.377,0,0,1-3.312,1.125c-1.9,0-3.336-1.2-3.528-4.239h8.136C203.907,100.393,203.931,99.986,203.931,99.555Zm-1.992-.383h-6.192c0.168-2.946,1.344-4.191,3.1-4.191,2.088,0,3.1,1.461,3.1,4v0.192Zm11.4-5.8a4.776,4.776,0,0,0-3.96,2.2l-0.168-1.916h-1.728v12.6H209.5V97.279c0.888-1.389,1.9-2.323,3.384-2.323,1.3,0,2.064.623,2.064,2.563v8.741h2.016V97.232C216.961,94.837,215.665,93.376,213.337,93.376ZM226.9,104.344a3.357,3.357,0,0,1-1.752.527c-1.128,0-1.584-.622-1.584-1.94V95.22h2.832l0.216-1.557h-3.048V90.55l-2.016.215v2.9h-2.185V95.22h2.185v7.807c0,2.3,1.248,3.521,3.336,3.521a4.839,4.839,0,0,0,2.784-.838Zm12.167-4.789c0-3.808-1.752-6.179-5.136-6.179-3.217,0-5.185,2.754-5.185,6.706,0,4,2.04,6.466,5.521,6.466a6.707,6.707,0,0,0,4.344-1.581l-0.888-1.2a5.377,5.377,0,0,1-3.312,1.125c-1.9,0-3.337-1.2-3.529-4.239h8.137C239.038,100.393,239.062,99.986,239.062,99.555Zm-1.992-.383h-6.193c0.168-2.946,1.345-4.191,3.1-4.191,2.088,0,3.1,1.461,3.1,4v0.192Zm20.277,4.192V97.519c0-2.61-1.369-4.143-4.369-4.143a11.814,11.814,0,0,0-4.272.862l0.5,1.485a10.631,10.631,0,0,1,3.408-.695c1.824,0,2.712.719,2.712,2.587v1.006h-2.064c-3.456,0-5.472,1.437-5.472,4.119a3.647,3.647,0,0,0,3.984,3.808,4.259,4.259,0,0,0,3.792-1.94,2.482,2.482,0,0,0,2.353,1.94l0.48-1.413A1.515,1.515,0,0,1,257.347,103.363Zm-5.113,1.652a2.1,2.1,0,0,1-2.3-2.371c0-1.8,1.248-2.682,3.6-2.682h1.8v3.017A3.4,3.4,0,0,1,252.234,105.015Zm11.974,1.533a3.707,3.707,0,0,0,1.68-.407l-0.528-1.413a2.3,2.3,0,0,1-.84.143c-0.6,0-.84-0.359-0.84-1.053V88.346l-2.016.24v15.28A2.4,2.4,0,0,0,264.208,106.548Zm15.67-13.172c-3.384,0-5.472,2.658-5.472,6.682,0,4.071,2.112,6.49,5.472,6.49a5.74,5.74,0,0,0,3.792-1.389l-0.936-1.317a4.541,4.541,0,0,1-2.784.981c-2.064,0-3.384-1.436-3.384-4.789,0-3.377,1.32-4.982,3.384-4.982a4.3,4.3,0,0,1,2.736.934l0.984-1.269A5.543,5.543,0,0,0,279.878,93.376Zm15,9.987V97.519c0-2.61-1.368-4.143-4.368-4.143a11.815,11.815,0,0,0-4.273.862l0.5,1.485a10.631,10.631,0,0,1,3.409-.695c1.824,0,2.712.719,2.712,2.587v1.006H290.8c-3.457,0-5.473,1.437-5.473,4.119a3.647,3.647,0,0,0,3.984,3.808,4.26,4.26,0,0,0,3.793-1.94,2.481,2.481,0,0,0,2.352,1.94l0.48-1.413A1.515,1.515,0,0,1,294.877,103.363Zm-5.112,1.652a2.1,2.1,0,0,1-2.305-2.371c0-1.8,1.248-2.682,3.6-2.682h1.8v3.017A3.4,3.4,0,0,1,289.765,105.015ZM304.81,93.376c-1.584,0-2.76.982-3.432,2.922l-0.192-2.634h-1.728v12.6h2.016v-7.3c0.552-2.467,1.488-3.616,3.1-3.616a3.856,3.856,0,0,1,1.1.144l0.384-1.964A5.242,5.242,0,0,0,304.81,93.376Zm9.407,0a4.344,4.344,0,0,0-3.624,1.892V88.346l-2.017.24V106.26h1.777l0.192-1.437a4.287,4.287,0,0,0,3.432,1.725c3.048,0,4.92-2.635,4.92-6.61C318.9,95.747,317.073,93.376,314.217,93.376Zm-0.72,11.567a3.565,3.565,0,0,1-2.9-1.748v-6.2a3.728,3.728,0,0,1,3.072-2.012c1.872,0,3.048,1.341,3.048,4.957C316.713,103.434,315.441,104.943,313.5,104.943Zm13.774-11.567c-3.529,0-5.569,2.658-5.569,6.61,0,4,2.016,6.562,5.545,6.562s5.568-2.659,5.568-6.61C332.815,95.914,330.823,93.376,327.271,93.376Zm0,1.629c2.184,0,3.384,1.6,3.384,4.933,0,3.377-1.224,4.981-3.408,4.981s-3.385-1.6-3.385-4.933C323.862,96.609,325.11,95,327.271,95Zm15.093-1.629a4.776,4.776,0,0,0-3.96,2.2l-0.168-1.916h-1.728v12.6h2.016V97.279c0.888-1.389,1.9-2.323,3.384-2.323,1.3,0,2.064.623,2.064,2.563v8.741h2.017V97.232C345.989,94.837,344.692,93.376,342.364,93.376Zm12.742,0c-3.528,0-5.568,2.658-5.568,6.61,0,4,2.016,6.562,5.544,6.562s5.568-2.659,5.568-6.61C360.65,95.914,358.658,93.376,355.106,93.376Zm0,1.629c2.184,0,3.384,1.6,3.384,4.933,0,3.377-1.224,4.981-3.408,4.981s-3.384-1.6-3.384-4.933C351.7,96.609,352.946,95,355.106,95ZM6.634,122.109c-3.384,0-5.472,2.658-5.472,6.682,0,4.071,2.112,6.49,5.472,6.49a5.741,5.741,0,0,0,3.792-1.389L9.49,132.575a4.543,4.543,0,0,1-2.784.982c-2.064,0-3.384-1.437-3.384-4.79,0-3.377,1.32-4.982,3.384-4.982a4.307,4.307,0,0,1,2.736.934l0.984-1.269A5.543,5.543,0,0,0,6.634,122.109Zm11.183,0c-3.528,0-5.568,2.658-5.568,6.61,0,4,2.016,6.562,5.544,6.562s5.568-2.658,5.568-6.61C23.361,124.648,21.369,122.109,17.817,122.109Zm0,1.629c2.184,0,3.384,1.6,3.384,4.933,0,3.377-1.224,4.982-3.408,4.982s-3.384-1.6-3.384-4.934C14.408,125.342,15.656,123.738,17.817,123.738Zm15.094-1.629a4.777,4.777,0,0,0-3.96,2.2L28.782,122.4H27.054v12.6H29.07v-8.981c0.888-1.389,1.9-2.323,3.384-2.323,1.3,0,2.064.622,2.064,2.562v8.742h2.016v-9.029C36.535,123.57,35.238,122.109,32.91,122.109Zm13.558,10.969a3.367,3.367,0,0,1-1.752.527c-1.128,0-1.584-.623-1.584-1.94v-7.712h2.832L46.18,122.4H43.132v-3.113l-2.016.216v2.9H38.932v1.557h2.184v7.808c0,2.3,1.248,3.52,3.336,3.52a4.832,4.832,0,0,0,2.784-.838Zm12.167-4.79c0-3.808-1.752-6.179-5.136-6.179-3.216,0-5.184,2.754-5.184,6.706,0,4,2.04,6.466,5.52,6.466a6.707,6.707,0,0,0,4.344-1.581l-0.888-1.2a5.379,5.379,0,0,1-3.312,1.126c-1.9,0-3.336-1.2-3.528-4.239h8.136C58.611,129.126,58.635,128.719,58.635,128.288Zm-1.992-.383H50.451c0.168-2.946,1.344-4.191,3.1-4.191,2.088,0,3.1,1.461,3.1,4v0.192Zm11.4-5.8a4.777,4.777,0,0,0-3.96,2.2L63.913,122.4H62.185v12.6H64.2v-8.981c0.888-1.389,1.9-2.323,3.384-2.323,1.3,0,2.064.622,2.064,2.562v8.742h2.016v-9.029C71.665,123.57,70.369,122.109,68.041,122.109Zm9.021-5.652a1.39,1.39,0,1,0,1.44,1.389A1.354,1.354,0,0,0,77.062,116.457Zm1.032,5.939H76.078v12.6h2.016V122.4Zm12.071-5.316v6.61a4.577,4.577,0,0,0-3.432-1.581c-3.1,0-4.944,2.778-4.944,6.634,0,3.952,1.7,6.538,4.752,6.538a4.255,4.255,0,0,0,3.672-2.06l0.216,1.773h1.752V117.319Zm-3.216,16.6c-1.9,0-3-1.6-3-4.958s1.248-5,3.216-5a3.612,3.612,0,0,1,3,1.7v6.275A3.647,3.647,0,0,1,86.949,133.677Zm14.494-11.568c-3.528,0-5.568,2.658-5.568,6.61,0,4,2.016,6.562,5.544,6.562s5.568-2.658,5.568-6.61C106.987,124.648,105,122.109,101.443,122.109Zm0,1.629c2.184,0,3.384,1.6,3.384,4.933,0,3.377-1.224,4.982-3.408,4.982s-3.384-1.6-3.384-4.934C98.035,125.342,99.283,123.738,101.443,123.738Zm25.125,4.55c0-3.808-1.752-6.179-5.137-6.179-3.216,0-5.184,2.754-5.184,6.706,0,4,2.04,6.466,5.52,6.466a6.707,6.707,0,0,0,4.345-1.581l-0.888-1.2a5.379,5.379,0,0,1-3.313,1.126c-1.9,0-3.336-1.2-3.528-4.239h8.137C126.544,129.126,126.568,128.719,126.568,128.288Zm-1.992-.383h-6.193c0.168-2.946,1.344-4.191,3.1-4.191,2.089,0,3.1,1.461,3.1,4v0.192Zm11.4-5.8a4.776,4.776,0,0,0-3.96,2.2l-0.168-1.916h-1.728v12.6h2.016v-8.981c0.888-1.389,1.9-2.323,3.384-2.323,1.3,0,2.064.622,2.064,2.562v8.742H139.6v-9.029C139.6,123.57,138.3,122.109,135.973,122.109Zm17.637-3.353a5.859,5.859,0,0,0-4.8,2.371l1.32,1.054a4.215,4.215,0,0,1,3.384-1.772,2.562,2.562,0,0,1,2.712,2.778c0,2.658-1.392,4.215-7.1,10.2v1.6h9.36l0.24-1.7h-7.3c5.016-5.077,6.912-7.161,6.912-10.2C158.338,120.624,156.514,118.756,153.61,118.756Zm13.006,0c-3.528,0-5.28,2.9-5.28,8.239s1.752,8.286,5.28,8.286,5.28-2.946,5.28-8.262C171.9,121.678,170.144,118.756,166.616,118.756Zm0,1.605c2.064,0,3.192,1.892,3.192,6.658,0,4.742-1.128,6.658-3.192,6.658-2.088,0-3.192-1.916-3.192-6.682C163.424,122.253,164.528,120.361,166.616,120.361ZM180.247,119H178.47l-4.92,3.041,0.888,1.437,3.792-2.323v13.843h2.017V119Zm23.973,3.113a4.454,4.454,0,0,0-3.792,2.323,3.153,3.153,0,0,0-3.168-2.323,4.376,4.376,0,0,0-3.721,2.2l-0.168-1.916h-1.728v12.6h2.016v-8.981c0.865-1.389,1.705-2.323,3.1-2.323,1.056,0,1.872.622,1.872,2.562v8.742h2.016v-8.981c0.888-1.389,1.7-2.323,3.1-2.323,1.056,0,1.872.622,1.872,2.562v8.742h2.016v-9.029C207.628,123.594,206.284,122.109,204.22,122.109Zm8.8-5.652a1.39,1.39,0,1,0,1.44,1.389A1.354,1.354,0,0,0,213.024,116.457Zm1.032,5.939H212.04v12.6h2.016V122.4Zm6.959,12.885a3.707,3.707,0,0,0,1.68-.407l-0.528-1.413a2.282,2.282,0,0,1-.84.144c-0.6,0-.84-0.36-0.84-1.054V117.08l-2.016.239V132.6A2.4,2.4,0,0,0,221.015,135.281Zm16.918-13.172a4.688,4.688,0,0,0-3.84,2.108V117.1l-2.016.239v17.651h2.016v-9c0.888-1.365,1.92-2.3,3.36-2.3,1.272,0,2.088.622,2.088,2.562v8.742h2.016v-9.029C241.557,123.594,240.237,122.109,237.933,122.109Zm17.494,6.179c0-3.808-1.752-6.179-5.136-6.179-3.217,0-5.185,2.754-5.185,6.706,0,4,2.04,6.466,5.521,6.466a6.707,6.707,0,0,0,4.344-1.581l-0.888-1.2a5.379,5.379,0,0,1-3.312,1.126c-1.9,0-3.337-1.2-3.529-4.239h8.137C255.4,129.126,255.427,128.719,255.427,128.288Zm-1.992-.383h-6.193c0.168-2.946,1.344-4.191,3.1-4.191,2.088,0,3.1,1.461,3.1,4v0.192Zm10.149-5.8c-3.384,0-5.472,2.658-5.472,6.682,0,4.071,2.112,6.49,5.472,6.49a5.741,5.741,0,0,0,3.793-1.389l-0.936-1.317a4.543,4.543,0,0,1-2.785.982c-2.064,0-3.384-1.437-3.384-4.79,0-3.377,1.32-4.982,3.384-4.982a4.308,4.308,0,0,1,2.737.934l0.984-1.269A5.543,5.543,0,0,0,263.584,122.109Zm12.335,10.969a3.367,3.367,0,0,1-1.752.527c-1.128,0-1.584-.623-1.584-1.94v-7.712h2.832l0.216-1.557h-3.048v-3.113l-2.017.216v2.9h-2.184v1.557h2.184v7.808c0,2.3,1.249,3.52,3.337,3.52a4.832,4.832,0,0,0,2.784-.838Zm9.67-15.448-0.912-1.724-4.7,2.682,0.624,1.078Zm1.68,14.466v-5.844c0-2.61-1.368-4.143-4.368-4.143a11.809,11.809,0,0,0-4.272.862l0.5,1.485a10.629,10.629,0,0,1,3.408-.694c1.824,0,2.712.718,2.712,2.586v1.006h-2.064c-3.456,0-5.472,1.437-5.472,4.119a3.647,3.647,0,0,0,3.984,3.808,4.313,4.313,0,0,0,3.792-1.94,2.455,2.455,0,0,0,2.353,1.94l0.48-1.413A1.515,1.515,0,0,1,287.269,132.1Zm-5.112,1.652a2.1,2.1,0,0,1-2.3-2.371c0-1.8,1.248-2.682,3.6-2.682h1.8v2.994A3.357,3.357,0,0,1,282.157,133.748ZM297.2,122.109c-1.584,0-2.76.982-3.432,2.922l-0.192-2.635h-1.728v12.6h2.016v-7.305c0.552-2.467,1.488-3.616,3.1-3.616a3.848,3.848,0,0,1,1.1.144l0.384-1.964A5.232,5.232,0,0,0,297.2,122.109Zm12.767,6.179c0-3.808-1.752-6.179-5.136-6.179-3.217,0-5.185,2.754-5.185,6.706,0,4,2.04,6.466,5.521,6.466a6.707,6.707,0,0,0,4.344-1.581l-0.888-1.2a5.379,5.379,0,0,1-3.312,1.126c-1.9,0-3.337-1.2-3.529-4.239h8.137C309.946,129.126,309.97,128.719,309.97,128.288Zm-1.992-.383h-6.193c0.168-2.946,1.344-4.191,3.1-4.191,2.088,0,3.1,1.461,3.1,4v0.192ZM321.7,132.1v-5.844c0-2.61-1.368-4.143-4.368-4.143a11.818,11.818,0,0,0-4.273.862l0.5,1.485a10.639,10.639,0,0,1,3.409-.694c1.824,0,2.712.718,2.712,2.586v1.006h-2.064c-3.456,0-5.473,1.437-5.473,4.119a3.647,3.647,0,0,0,3.985,3.808,4.259,4.259,0,0,0,3.792-1.94,2.48,2.48,0,0,0,2.352,1.94l0.48-1.413A1.514,1.514,0,0,1,321.7,132.1Zm-5.112,1.652a2.1,2.1,0,0,1-2.3-2.371c0-1.8,1.248-2.682,3.6-2.682h1.8v3.018A3.4,3.4,0,0,1,316.592,133.748Zm13.077-11.639c-2.544,0-4.464,1.437-4.464,3.425,0,1.772,1.08,2.9,3.816,3.616,2.473,0.671,3.121,1.15,3.121,2.467,0,1.269-1.1,2.036-2.809,2.036a5.725,5.725,0,0,1-3.576-1.246l-1.08,1.222a6.824,6.824,0,0,0,4.7,1.652c2.545,0,4.873-1.221,4.873-3.784,0-2.2-1.464-3.209-4.153-3.9-2.088-.55-2.784-1.029-2.784-2.107s0.936-1.772,2.424-1.772a5.593,5.593,0,0,1,3.289,1.1l0.888-1.269A6.639,6.639,0,0,0,329.669,122.109Zm21.718-5.029v6.61a4.576,4.576,0,0,0-3.432-1.581c-3.1,0-4.945,2.778-4.945,6.634,0,3.952,1.7,6.538,4.753,6.538a4.254,4.254,0,0,0,3.672-2.06l0.216,1.773H353.4V117.319Zm-3.216,16.6c-1.9,0-3-1.6-3-4.958s1.248-5,3.217-5a3.611,3.611,0,0,1,3,1.7v6.275A3.647,3.647,0,0,1,348.171,133.677Zm19.245-5.389c0-3.808-1.752-6.179-5.136-6.179-3.216,0-5.184,2.754-5.184,6.706,0,4,2.04,6.466,5.52,6.466a6.707,6.707,0,0,0,4.344-1.581l-0.888-1.2a5.379,5.379,0,0,1-3.312,1.126c-1.9,0-3.336-1.2-3.528-4.239h8.137C367.392,129.126,367.416,128.719,367.416,128.288Zm-1.992-.383h-6.192c0.168-2.946,1.344-4.191,3.1-4.191,2.088,0,3.1,1.461,3.1,4v0.192Zm17.613-5.8A4.343,4.343,0,0,0,379.413,124V117.08l-2.016.239v17.675h1.776l0.192-1.437a4.286,4.286,0,0,0,3.432,1.724c3.048,0,4.92-2.634,4.92-6.61C387.717,124.48,385.893,122.109,383.037,122.109Zm-0.72,11.568a3.566,3.566,0,0,1-2.9-1.749v-6.2a3.729,3.729,0,0,1,3.072-2.011c1.872,0,3.048,1.341,3.048,4.957C385.533,132.168,384.261,133.677,382.317,133.677Zm13.774-11.568c-3.529,0-5.569,2.658-5.569,6.61,0,4,2.016,6.562,5.545,6.562s5.568-2.658,5.568-6.61C401.635,124.648,399.643,122.109,396.091,122.109Zm0,1.629c2.184,0,3.384,1.6,3.384,4.933,0,3.377-1.224,4.982-3.408,4.982s-3.385-1.6-3.385-4.934C392.682,125.342,393.931,123.738,396.091,123.738Zm12.621-1.629c-2.544,0-4.464,1.437-4.464,3.425,0,1.772,1.08,2.9,3.816,3.616,2.472,0.671,3.121,1.15,3.121,2.467,0,1.269-1.105,2.036-2.809,2.036a5.725,5.725,0,0,1-3.576-1.246l-1.08,1.222a6.824,6.824,0,0,0,4.7,1.652c2.544,0,4.873-1.221,4.873-3.784,0-2.2-1.464-3.209-4.153-3.9-2.088-.55-2.784-1.029-2.784-2.107s0.936-1.772,2.424-1.772a5.6,5.6,0,0,1,3.289,1.1l0.888-1.269A6.641,6.641,0,0,0,408.712,122.109Zm15.575,0.287-0.144,1.437a4.641,4.641,0,0,0-3.576-1.724c-3.1,0-4.945,2.778-4.945,6.634,0,3.952,1.7,6.538,4.753,6.538A4.286,4.286,0,0,0,424,133.317v6.491l2.016,0.239V122.4h-1.728Zm-3.48,11.281c-1.92,0-3.025-1.6-3.025-4.958s1.249-5,3.217-5a3.611,3.611,0,0,1,3,1.7v6.275A3.639,3.639,0,0,1,420.807,133.677ZM439.813,122.4H437.8v9.029a3.91,3.91,0,0,1-3.288,2.252c-1.416,0-2.064-.671-2.064-2.467V122.4h-2.016v9.029c0,2.467,1.32,3.856,3.528,3.856a4.309,4.309,0,0,0,3.984-2.323l0.144,2.036h1.729V122.4Zm14.013,5.892c0-3.808-1.752-6.179-5.136-6.179-3.216,0-5.184,2.754-5.184,6.706,0,4,2.04,6.466,5.52,6.466a6.707,6.707,0,0,0,4.344-1.581l-0.888-1.2a5.379,5.379,0,0,1-3.312,1.126c-1.9,0-3.336-1.2-3.528-4.239h8.136C453.8,129.126,453.826,128.719,453.826,128.288Zm-1.992-.383h-6.192c0.168-2.946,1.344-4.191,3.1-4.191,2.088,0,3.1,1.461,3.1,4v0.192ZM10.33,160.829v-5.843c0-2.611-1.368-4.144-4.368-4.144a11.831,11.831,0,0,0-4.272.862l0.5,1.485A10.63,10.63,0,0,1,5.6,152.5c1.824,0,2.712.718,2.712,2.586v1.006H6.25c-3.456,0-5.472,1.437-5.472,4.119a3.646,3.646,0,0,0,3.984,3.808,4.259,4.259,0,0,0,3.792-1.939,2.48,2.48,0,0,0,2.352,1.939l0.48-1.413A1.514,1.514,0,0,1,10.33,160.829Zm-5.112,1.653a2.1,2.1,0,0,1-2.3-2.371c0-1.8,1.248-2.683,3.6-2.683h1.8v3.018A3.4,3.4,0,0,1,5.218,162.482Zm22.27-11.64a4.454,4.454,0,0,0-3.792,2.323,3.153,3.153,0,0,0-3.168-2.323,4.372,4.372,0,0,0-3.72,2.2L16.64,151.13H14.912v12.6h2.016v-8.981c0.864-1.389,1.7-2.323,3.1-2.323,1.056,0,1.872.623,1.872,2.563v8.741h2.016v-8.981c0.888-1.389,1.7-2.323,3.1-2.323,1.056,0,1.872.623,1.872,2.563v8.741H30.9V154.7C30.9,152.327,29.552,150.842,27.488,150.842Zm16.124,9.987v-5.843c0-2.611-1.368-4.144-4.368-4.144a11.832,11.832,0,0,0-4.272.862l0.5,1.485a10.631,10.631,0,0,1,3.408-.694c1.824,0,2.712.718,2.712,2.586v1.006H39.533c-3.456,0-5.472,1.437-5.472,4.119a3.646,3.646,0,0,0,3.984,3.808,4.259,4.259,0,0,0,3.792-1.939,2.48,2.48,0,0,0,2.352,1.939l0.48-1.413A1.514,1.514,0,0,1,43.613,160.829ZM38.5,162.482a2.1,2.1,0,0,1-2.3-2.371c0-1.8,1.248-2.683,3.6-2.683h1.8v3.018A3.4,3.4,0,0,1,38.5,162.482ZM55.514,151.13H47.09v1.7h6.12l-6.672,9.388v1.509h8.785l0.24-1.7H48.818l6.7-9.365V151.13Zm9.43-6.491-4.7,2.683,0.624,1.077,4.992-2.035Zm-1.848,6.2c-3.528,0-5.568,2.659-5.568,6.61,0,4,2.016,6.562,5.544,6.562s5.568-2.658,5.568-6.61C68.641,153.381,66.649,150.842,63.1,150.842Zm0,1.629c2.184,0,3.384,1.6,3.384,4.933,0,3.377-1.224,4.982-3.408,4.982s-3.384-1.6-3.384-4.934C59.688,154.075,60.936,152.471,63.1,152.471Zm15.094-1.629a4.775,4.775,0,0,0-3.96,2.2l-0.168-1.916H72.334v12.6H74.35v-8.981c0.888-1.389,1.9-2.323,3.384-2.323,1.3,0,2.064.623,2.064,2.563v8.741h2.016V154.7C81.815,152.3,80.518,150.842,78.19,150.842Zm9.022-5.652a1.39,1.39,0,1,0,1.44,1.389A1.354,1.354,0,0,0,87.212,145.19Zm1.032,5.94H86.228v12.6h2.016v-12.6Zm9.167-.288c-3.384,0-5.472,2.659-5.472,6.682,0,4.072,2.112,6.49,5.472,6.49a5.741,5.741,0,0,0,3.792-1.389l-0.936-1.317a4.537,4.537,0,0,1-2.784.982c-2.064,0-3.384-1.437-3.384-4.79,0-3.377,1.32-4.981,3.384-4.981a4.3,4.3,0,0,1,2.736.934l0.984-1.27A5.543,5.543,0,0,0,97.411,150.842Zm11.182,0c-3.528,0-5.568,2.659-5.568,6.61,0,4,2.016,6.562,5.544,6.562s5.569-2.658,5.569-6.61C114.138,153.381,112.145,150.842,108.593,150.842Zm0,1.629c2.184,0,3.384,1.6,3.384,4.933,0,3.377-1.224,4.982-3.408,4.982s-3.384-1.6-3.384-4.934C105.185,154.075,106.433,152.471,108.593,152.471Zm9.478,8.454a1.53,1.53,0,0,0-1.536,1.533,1.63,1.63,0,0,0,.648,1.293l-0.96,3.88h1.44l1.56-3.569a3.757,3.757,0,0,0,.408-1.6A1.521,1.521,0,0,0,118.071,160.925Zm14.9-10.083c-2.544,0-4.464,1.437-4.464,3.425,0,1.772,1.08,2.9,3.816,3.616,2.472,0.671,3.12,1.15,3.12,2.467,0,1.27-1.1,2.036-2.808,2.036a5.73,5.73,0,0,1-3.576-1.245l-1.08,1.221a6.824,6.824,0,0,0,4.7,1.652c2.544,0,4.872-1.221,4.872-3.784,0-2.2-1.464-3.209-4.152-3.9-2.088-.551-2.784-1.03-2.784-2.108s0.936-1.772,2.424-1.772a5.586,5.586,0,0,1,3.288,1.1l0.888-1.27A6.638,6.638,0,0,0,132.973,150.842Zm17.015,0.288h-2.017v9.029a3.911,3.911,0,0,1-3.288,2.251c-1.416,0-2.064-.671-2.064-2.467V151.13H140.6v9.029c0,2.466,1.32,3.855,3.528,3.855a4.309,4.309,0,0,0,3.984-2.323l0.144,2.036h1.729v-12.6Zm10.221-.288a4.563,4.563,0,0,0-3.768,2.036l-0.168-1.748h-1.728v17.65l2.016-.239v-6.035a4.117,4.117,0,0,0,3.384,1.508c3.216,0,4.92-2.754,4.92-6.61C164.865,153.405,163.5,150.842,160.209,150.842Zm-0.744,11.52a3.412,3.412,0,0,1-2.9-1.629v-6.25a3.925,3.925,0,0,1,3.168-2.036c1.968,0,2.952,1.6,2.952,4.957C162.681,160.781,161.553,162.362,159.465,162.362Zm18.526-5.341c0-3.808-1.752-6.179-5.136-6.179-3.216,0-5.184,2.754-5.184,6.706,0,4,2.04,6.466,5.52,6.466a6.706,6.706,0,0,0,4.344-1.58l-0.888-1.2a5.372,5.372,0,0,1-3.312,1.126c-1.9,0-3.336-1.2-3.528-4.239h8.136C177.967,157.859,177.991,157.452,177.991,157.021ZM176,156.638h-6.192c0.168-2.946,1.344-4.191,3.1-4.191,2.088,0,3.1,1.461,3.1,4v0.192Zm10.894-5.8c-1.584,0-2.76.982-3.432,2.922l-0.192-2.634H181.54v12.6h2.017v-7.3c0.552-2.467,1.488-3.617,3.1-3.617a3.848,3.848,0,0,1,1.1.144l0.384-1.964A5.232,5.232,0,0,0,186.893,150.842Zm8.014-5.029c-2.9,0-4.2,1.461-4.2,3.568v1.749h-2.016v1.556h2.016v11.041h2.016V152.686h5.04v11.041h2.016v-12.6h-7.056v-1.749c0-1.293.528-1.94,2.256-1.94a5.988,5.988,0,0,1,2.736.647l0.72-1.413A7.385,7.385,0,0,0,194.907,145.813Zm14.038,5.029c-3.384,0-5.472,2.659-5.472,6.682,0,4.072,2.112,6.49,5.472,6.49a5.74,5.74,0,0,0,3.792-1.389l-0.936-1.317a4.536,4.536,0,0,1-2.784.982c-2.064,0-3.384-1.437-3.384-4.79,0-3.377,1.32-4.981,3.384-4.981a4.3,4.3,0,0,1,2.736.934l0.984-1.27A5.543,5.543,0,0,0,208.945,150.842Zm7.8-5.652a1.39,1.39,0,1,0,1.44,1.389A1.354,1.354,0,0,0,216.743,145.19Zm1.032,5.94h-2.016v12.6h2.016v-12.6Zm14.015,5.891c0-3.808-1.752-6.179-5.136-6.179-3.216,0-5.184,2.754-5.184,6.706,0,4,2.04,6.466,5.52,6.466a6.706,6.706,0,0,0,4.344-1.58l-0.888-1.2a5.372,5.372,0,0,1-3.312,1.126c-1.9,0-3.336-1.2-3.528-4.239h8.136C231.766,157.859,231.79,157.452,231.79,157.021Zm-1.992-.383h-6.192c0.168-2.946,1.344-4.191,3.1-4.191,2.088,0,3.1,1.461,3.1,4v0.192Zm15.356-5.8c-2.544,0-4.464,1.437-4.464,3.425,0,1.772,1.08,2.9,3.816,3.616,2.473,0.671,3.121,1.15,3.121,2.467,0,1.27-1.105,2.036-2.809,2.036a5.73,5.73,0,0,1-3.576-1.245l-1.08,1.221a6.824,6.824,0,0,0,4.7,1.652c2.545,0,4.873-1.221,4.873-3.784,0-2.2-1.464-3.209-4.153-3.9-2.088-.551-2.784-1.03-2.784-2.108s0.936-1.772,2.424-1.772a5.589,5.589,0,0,1,3.289,1.1l0.888-1.27A6.639,6.639,0,0,0,245.154,150.842Zm8.759-5.652a1.39,1.39,0,1,0,1.44,1.389A1.354,1.354,0,0,0,253.913,145.19Zm1.032,5.94h-2.017v12.6h2.017v-12.6Zm17.135-.288a4.454,4.454,0,0,0-3.792,2.323,3.153,3.153,0,0,0-3.169-2.323,4.372,4.372,0,0,0-3.72,2.2l-0.168-1.916H259.5v12.6h2.016v-8.981c0.864-1.389,1.7-2.323,3.1-2.323,1.057,0,1.873.623,1.873,2.563v8.741H268.5v-8.981c0.888-1.389,1.7-2.323,3.1-2.323,1.056,0,1.872.623,1.872,2.563v8.741h2.016V154.7C275.488,152.327,274.144,150.842,272.08,150.842Zm8.8-5.652a1.39,1.39,0,1,0,1.44,1.389A1.354,1.354,0,0,0,280.884,145.19Zm1.032,5.94H279.9v12.6h2.016v-12.6Zm6.959,12.884a3.7,3.7,0,0,0,1.68-.407l-0.528-1.413a2.282,2.282,0,0,1-.84.144c-0.6,0-.84-0.359-0.84-1.054V145.813l-2.016.239v15.28A2.4,2.4,0,0,0,288.875,164.014Zm12.815-3.185v-5.843c0-2.611-1.368-4.144-4.368-4.144a11.83,11.83,0,0,0-4.272.862l0.5,1.485a10.629,10.629,0,0,1,3.408-.694c1.824,0,2.712.718,2.712,2.586v1.006H297.61c-3.456,0-5.472,1.437-5.472,4.119a3.646,3.646,0,0,0,3.984,3.808,4.258,4.258,0,0,0,3.792-1.939,2.479,2.479,0,0,0,2.352,1.939l0.48-1.413A1.514,1.514,0,0,1,301.69,160.829Zm-5.112,1.653a2.1,2.1,0,0,1-2.3-2.371c0-1.8,1.248-2.683,3.6-2.683h1.8v3.018A3.4,3.4,0,0,1,296.578,162.482Zm15.046-11.64c-1.584,0-2.76.982-3.432,2.922L308,151.13h-1.728v12.6h2.016v-7.3c0.552-2.467,1.488-3.617,3.1-3.617a3.848,3.848,0,0,1,1.1.144l0.384-1.964A5.232,5.232,0,0,0,311.624,150.842Zm18.5,9.987v-5.843c0-2.611-1.368-4.144-4.368-4.144a11.83,11.83,0,0,0-4.272.862l0.5,1.485a10.629,10.629,0,0,1,3.408-.694c1.824,0,2.712.718,2.712,2.586v1.006h-2.064c-3.456,0-5.472,1.437-5.472,4.119a3.646,3.646,0,0,0,3.984,3.808,4.258,4.258,0,0,0,3.792-1.939,2.479,2.479,0,0,0,2.352,1.939l0.48-1.413A1.514,1.514,0,0,1,330.125,160.829Zm-5.112,1.653a2.1,2.1,0,0,1-2.3-2.371c0-1.8,1.248-2.683,3.6-2.683h1.8v3.018A3.4,3.4,0,0,1,325.013,162.482Zm11.974,1.532a3.7,3.7,0,0,0,1.68-.407l-0.528-1.413a2.282,2.282,0,0,1-.84.144c-0.6,0-.84-0.359-0.84-1.054V145.813l-2.016.239v15.28A2.4,2.4,0,0,0,336.987,164.014Zm18.646-16.285h-9.241v1.652h7.2l-5.88,13.963,1.848,0.6,6.072-14.705v-1.509Zm10.8,0h-8.544v8h1.584a4.71,4.71,0,0,1,2.352-.6c1.728,0,3.048.91,3.048,3.425,0,2.419-1.32,3.808-3.384,3.808a4.526,4.526,0,0,1-3.48-1.533l-1.2,1.174a6.2,6.2,0,0,0,4.68,2.011,5.159,5.159,0,0,0,5.472-5.412c0-3.161-1.824-5.053-4.536-5.053a5.636,5.636,0,0,0-2.616.646V149.31h6.336Zm15.863-.982-11.113,16.765,1.416,0.91,11.113-16.765Zm-9.745.742a4.015,4.015,0,1,0,3.84,4A3.7,3.7,0,0,0,372.549,147.489Zm0,1.366c1.584,0,2.016,1.341,2.016,2.634,0,1.341-.432,2.634-2.016,2.634s-2.04-1.317-2.04-2.634C370.509,150.148,370.965,148.855,372.549,148.855Zm9.745,7.136a4.017,4.017,0,1,0,3.816,4A3.708,3.708,0,0,0,382.294,155.991Zm0,1.389c1.608,0,2.04,1.318,2.04,2.611,0,1.341-.432,2.634-2.04,2.634-1.56,0-2.016-1.317-2.016-2.634C380.278,158.65,380.734,157.38,382.294,157.38Zm21.163-11.567v6.61a4.58,4.58,0,0,0-3.432-1.581c-3.1,0-4.944,2.778-4.944,6.634,0,3.952,1.7,6.538,4.752,6.538a4.255,4.255,0,0,0,3.672-2.059l0.216,1.772h1.752V146.052Zm-3.216,16.6c-1.9,0-3-1.6-3-4.958s1.248-5,3.216-5a3.611,3.611,0,0,1,3,1.7v6.275A3.647,3.647,0,0,1,400.241,162.41Zm19.246-5.389c0-3.808-1.752-6.179-5.136-6.179-3.217,0-5.185,2.754-5.185,6.706,0,4,2.04,6.466,5.521,6.466a6.706,6.706,0,0,0,4.344-1.58l-0.888-1.2a5.372,5.372,0,0,1-3.312,1.126c-1.9,0-3.337-1.2-3.529-4.239h8.137C419.463,157.859,419.487,157.452,419.487,157.021Zm-1.992-.383H411.3c0.168-2.946,1.345-4.191,3.1-4.191,2.088,0,3.1,1.461,3.1,4v0.192ZM4.282,175.983H2.218V192.46h8.64l0.24-1.82H4.282V175.983Zm10.558-2.059a1.39,1.39,0,1,0,1.44,1.389A1.353,1.353,0,0,0,14.84,173.924Zm1.032,5.939H13.856v12.6h2.016v-12.6Zm17.135-.287a4.455,4.455,0,0,0-3.792,2.323,3.153,3.153,0,0,0-3.168-2.323,4.373,4.373,0,0,0-3.72,2.2l-0.168-1.916H20.431v12.6h2.016v-8.981c0.864-1.389,1.7-2.323,3.1-2.323,1.056,0,1.872.623,1.872,2.563v8.741h2.016v-8.981c0.888-1.389,1.7-2.323,3.1-2.323,1.056,0,1.872.623,1.872,2.563v8.741h2.016v-9.029C36.416,181.06,35.071,179.576,33.007,179.576Zm16.124,9.986v-5.843c0-2.611-1.368-4.143-4.368-4.143a11.81,11.81,0,0,0-4.272.862l0.5,1.485a10.635,10.635,0,0,1,3.408-.695c1.824,0,2.712.719,2.712,2.587v1.006H45.052c-3.456,0-5.472,1.436-5.472,4.119a3.647,3.647,0,0,0,3.984,3.808,4.26,4.26,0,0,0,3.792-1.94,2.482,2.482,0,0,0,2.352,1.94l0.48-1.413A1.516,1.516,0,0,1,49.132,189.562Zm-5.112,1.653a2.1,2.1,0,0,1-2.3-2.371c0-1.8,1.248-2.682,3.6-2.682h1.8v3.017A3.4,3.4,0,0,1,44.02,191.215Zm29.517-15.232H70.7l-3.456,12.19-3.624-12.19H60.792L59.4,192.46h1.968l0.576-7.424c0.216-2.443.36-5.1,0.384-6.969l3.888,12.5H68.16l3.72-12.477c0.024,1.389.216,4.215,0.456,6.825l0.624,7.544h2.016Zm14.685,9.772c0-3.808-1.752-6.179-5.136-6.179-3.216,0-5.184,2.754-5.184,6.705,0,4,2.04,6.467,5.52,6.467a6.707,6.707,0,0,0,4.344-1.581l-0.888-1.2a5.378,5.378,0,0,1-3.312,1.125c-1.9,0-3.336-1.2-3.528-4.239h8.136C88.2,186.593,88.221,186.186,88.221,185.755Zm-1.992-.384H80.037c0.168-2.945,1.344-4.191,3.1-4.191,2.088,0,3.1,1.461,3.1,4v0.191Zm11.062,5.173a3.358,3.358,0,0,1-1.752.527c-1.128,0-1.584-.622-1.584-1.94V181.42h2.832L97,179.863H93.955V176.75l-2.016.215v2.9H89.755v1.557h2.184v7.807c0,2.3,1.248,3.521,3.336,3.521a4.839,4.839,0,0,0,2.784-.838Zm8.4-10.968c-1.584,0-2.76.982-3.432,2.921l-0.192-2.634h-1.728v12.6h2.016v-7.3c0.552-2.467,1.488-3.617,3.1-3.617a3.85,3.85,0,0,1,1.105.144l0.384-1.964A5.286,5.286,0,0,0,105.689,179.576Zm8.015,0c-3.528,0-5.568,2.658-5.568,6.61,0,4,2.016,6.562,5.544,6.562s5.568-2.659,5.568-6.61C119.248,182.114,117.256,179.576,113.7,179.576Zm0,1.628c2.184,0,3.384,1.6,3.384,4.934,0,3.377-1.224,4.981-3.408,4.981s-3.384-1.6-3.384-4.933C110.3,182.809,111.544,181.2,113.7,181.2Zm14.9-1.628a4.562,4.562,0,0,0-3.768,2.035l-0.168-1.748h-1.729v17.651l2.017-.24v-6.035a4.118,4.118,0,0,0,3.384,1.509c3.216,0,4.92-2.754,4.92-6.61C133.262,182.138,131.894,179.576,128.606,179.576ZM127.862,191.1a3.411,3.411,0,0,1-2.9-1.628v-6.251a3.925,3.925,0,0,1,3.168-2.036c1.968,0,2.952,1.6,2.952,4.958C131.078,189.515,129.95,191.1,127.862,191.1Zm13.773-11.519c-3.528,0-5.568,2.658-5.568,6.61,0,4,2.016,6.562,5.544,6.562s5.569-2.659,5.569-6.61C147.18,182.114,145.188,179.576,141.635,179.576Zm0,1.628c2.185,0,3.385,1.6,3.385,4.934,0,3.377-1.224,4.981-3.409,4.981s-3.384-1.6-3.384-4.933C138.227,182.809,139.475,181.2,141.635,181.2Zm11.638,11.544a3.707,3.707,0,0,0,1.68-.407l-0.528-1.413a2.3,2.3,0,0,1-.84.143c-0.6,0-.84-0.359-0.84-1.053V174.546l-2.016.24v15.279A2.4,2.4,0,0,0,153.273,192.748Zm5.615-18.824a1.39,1.39,0,1,0,1.44,1.389A1.353,1.353,0,0,0,158.888,173.924Zm1.032,5.939H157.9v12.6h2.016v-12.6ZM170,190.544a3.357,3.357,0,0,1-1.752.527c-1.128,0-1.584-.622-1.584-1.94V181.42H169.5l0.216-1.557h-3.048V176.75l-2.016.215v2.9h-2.184v1.557h2.184v7.807c0,2.3,1.248,3.521,3.336,3.521a4.839,4.839,0,0,0,2.784-.838Zm11.351-.982v-5.843c0-2.611-1.368-4.143-4.369-4.143a11.809,11.809,0,0,0-4.272.862l0.5,1.485a10.633,10.633,0,0,1,3.408-.695c1.825,0,2.713.719,2.713,2.587v1.006h-2.065c-3.456,0-5.472,1.436-5.472,4.119a3.647,3.647,0,0,0,3.984,3.808,4.261,4.261,0,0,0,3.793-1.94,2.481,2.481,0,0,0,2.352,1.94l0.48-1.413A1.515,1.515,0,0,1,181.35,189.562Zm-5.113,1.653a2.1,2.1,0,0,1-2.3-2.371c0-1.8,1.248-2.682,3.6-2.682h1.8v3.017A3.4,3.4,0,0,1,176.237,191.215Zm15.55-11.639a4.776,4.776,0,0,0-3.96,2.2l-0.168-1.916h-1.728v12.6h2.016v-8.981c0.888-1.389,1.9-2.323,3.384-2.323,1.3,0,2.064.623,2.064,2.563v8.741h2.017v-9.029C195.412,181.037,194.115,179.576,191.787,179.576Zm16.342,9.986v-5.843c0-2.611-1.368-4.143-4.368-4.143a11.809,11.809,0,0,0-4.272.862l0.5,1.485a10.633,10.633,0,0,1,3.408-.695c1.824,0,2.712.719,2.712,2.587v1.006h-2.064c-3.456,0-5.472,1.436-5.472,4.119a3.647,3.647,0,0,0,3.984,3.808,4.259,4.259,0,0,0,3.792-1.94,2.481,2.481,0,0,0,2.352,1.94l0.48-1.413A1.515,1.515,0,0,1,208.129,189.562Zm-5.112,1.653a2.1,2.1,0,0,1-2.3-2.371c0-1.8,1.248-2.682,3.6-2.682h1.8v3.017A3.4,3.4,0,0,1,203.017,191.215Z"/>
</svg>
