<svg xmlns="http://www.w3.org/2000/svg" width="856" height="326" viewBox="0 0 856 326">
  <defs>
    <style>
      .cls-1 {
        fill: #fff;
        fill-rule: evenodd;
      }
    </style>
  </defs>
  <path id="_396_colaboradores_27_son_mujeres._La_empresa_invirtió_30.32_" data-name="396  colaboradores 27% son mujeres. La empresa invirtió  30.32 " class="cls-1" d="M27.892,6.236A36.744,36.744,0,0,0,1.683,16.793l8.536,9.237c4.929-4.679,9.859-6.958,15.99-6.958,6.973,0,11.422,3.719,11.422,9.957,0,7.318-5.05,11.4-12.383,11.4H20.8l-2.044,12h6.613c8.9,0,13.946,3.239,13.946,12.237,0,8.038-5.41,12.716-13.586,12.716-6.252,0-11.3-2.279-16.711-7.678l-9.257,8.878c6.252,7.678,15.269,12,26.931,12,19.357,0,30.177-11.157,30.177-24.833,0-12.716-8.416-18.835-18.515-19.914,9.738-2.639,15.87-9.118,15.87-19.075C54.222,15.473,45.085,6.236,27.892,6.236Zm65.164,0c-16.231,0-29.095,10.677-29.095,27.592,0,16.435,10.34,26.512,22.963,26.512A20.589,20.589,0,0,0,104,52.063c-2.645,15.356-13.586,22.674-34.024,27.712L73.58,91.892c33.543-7.438,48.691-21.234,48.691-54.345C122.271,19.072,112.413,6.236,93.056,6.236ZM91.854,48.1c-6.011,0-10.82-3.839-10.82-14.756,0-9.717,4.689-14.756,12.023-14.756,8.536,0,12.023,5.758,11.783,21.834C101.472,45.345,97.024,48.1,91.854,48.1Zm75.14-13.556a22.842,22.842,0,0,0-17.673,8.278c0.841-15.356,7.093-24.233,16.831-24.233a21.843,21.843,0,0,1,11.422,3.239l6.252-10.437a31.747,31.747,0,0,0-18.034-5.159c-21.16,0-34.145,17.995-34.145,45.227,0,23.273,8.777,39.109,29.937,39.109,17.192,0,28.494-12.716,28.494-29.512C190.078,43.905,179.978,34.548,166.994,34.548ZM161.7,78.1c-8.656,0-12.143-6.958-12.383-24.113,3.606-4.559,8.175-7.438,13.225-7.438,6.492,0,10.339,3.719,10.339,14.756C172.885,71.5,169.278,78.1,161.7,78.1ZM34.625,137.675c-18.635,0-30.417,14.036-30.417,34.191,0,20.274,11.662,33.23,30.658,33.23a32,32,0,0,0,20.92-7.438l-7.454-10.677c-4.689,3-7.935,4.439-12.624,4.439-8.055,0-13.465-4.918-13.465-19.674s5.05-20.874,13.586-20.874c4.689,0,8.416,1.439,12.5,4.558l7.454-10.077A30.639,30.639,0,0,0,34.625,137.675Zm55.305,0c-19.236,0-30.658,13.437-30.658,33.711,0,21.114,11.542,33.71,30.538,33.71,19.116,0,30.537-13.556,30.537-33.71C120.347,150.272,108.926,137.675,89.93,137.675Zm0,12.717c8.3,0,12.624,6.358,12.624,20.994,0,14.516-4.329,20.994-12.744,20.994s-12.744-6.358-12.744-20.994C77.066,156.87,81.394,150.392,89.93,150.392ZM149.2,205.1a28.08,28.08,0,0,0,10.941-2.159l-3.487-12.117a7.326,7.326,0,0,1-3.366.72c-2.405,0-3.487-1.439-3.487-4.2V112.363l-17.072,1.919v73.539C132.73,198.858,138.862,205.1,149.2,205.1Zm67.808-19.554V159.869c0-14.4-7.574-22.194-25.247-22.194a66.355,66.355,0,0,0-23.565,4.679l3.847,11.4c6.493-2.16,12.624-3.359,16.832-3.359,8.055,0,11.422,2.519,11.422,10.437v3.119h-7.334c-18.876,0-29.336,7.558-29.336,21.474,0,11.517,7.935,19.674,20.679,19.674,7.575,0,14.548-2.639,19.117-9.6,2.645,6.358,7.454,8.758,14.667,9.357L221.7,193.58C218.572,192.5,217.009,190.7,217.009,185.542ZM189,192.86c-5.29,0-8.175-3.239-8.175-8.878,0-6.958,4.569-10.317,13.826-10.317H200.3v12.117C197.653,190.341,193.926,192.86,189,192.86Zm79.59-55.185a21.368,21.368,0,0,0-17.433,8.758v-34.07l-17.072,1.919v88.9h15.148l0.962-6.238A20.31,20.31,0,0,0,266.9,205.1c15.749,0,25.247-14.036,25.247-33.71C292.15,150.152,283.494,137.675,268.586,137.675ZM262.094,192.5c-4.569,0-8.3-2.519-10.941-6.838V158.43c2.885-4.8,6.853-8.158,11.782-8.158,6.733,0,11.422,4.559,11.422,21.114C274.357,186.862,269.307,192.5,262.094,192.5Zm70.451-54.825c-19.236,0-30.657,13.437-30.657,33.711,0,21.114,11.541,33.71,30.537,33.71,19.116,0,30.538-13.556,30.538-33.71C362.963,150.272,351.541,137.675,332.545,137.675Zm0,12.717c8.3,0,12.624,6.358,12.624,20.994,0,14.516-4.328,20.994-12.744,20.994s-12.744-6.358-12.744-20.994C319.681,156.87,324.009,150.392,332.545,150.392Zm76.344-12.6c-7.454,0-13.585,5.279-16.591,14.156L390.735,139.6H375.947v63.582h17.072V170.306c2.285-10.2,5.891-15.955,13.706-15.955a21.457,21.457,0,0,1,5.651.839l2.885-16.435A22.761,22.761,0,0,0,408.889,137.795Zm59.272,47.747V159.869c0-14.4-7.575-22.194-25.248-22.194a66.349,66.349,0,0,0-23.564,4.679l3.847,11.4c6.492-2.16,12.624-3.359,16.832-3.359,8.055,0,11.421,2.519,11.421,10.437v3.119h-7.334c-18.875,0-29.335,7.558-29.335,21.474,0,11.517,7.935,19.674,20.679,19.674,7.574,0,14.547-2.639,19.116-9.6,2.645,6.358,7.454,8.758,14.668,9.357l3.607-11.276C469.724,192.5,468.161,190.7,468.161,185.542Zm-28.013,7.318c-5.29,0-8.176-3.239-8.176-8.878,0-6.958,4.569-10.317,13.827-10.317h5.65v12.117C448.8,190.341,445.077,192.86,440.148,192.86Zm83.2-80.5v31.671a21.864,21.864,0,0,0-15.509-6.359c-15.75,0-25.849,14.036-25.849,33.711,0,20.274,8.176,33.71,24.166,33.71a21.454,21.454,0,0,0,18.274-9.717l0.962,7.8h15.028V114.282ZM511.2,192.38c-6.853,0-11.421-5.039-11.421-20.994,0-14.876,5.049-21.114,12.5-21.114,4.689,0,7.935,2.279,11.061,6V184.7C519.978,189.741,516.371,192.38,511.2,192.38Zm72.857-54.7c-19.236,0-30.657,13.437-30.657,33.711,0,21.114,11.541,33.71,30.537,33.71,19.116,0,30.538-13.556,30.538-33.71C614.476,150.272,603.054,137.675,584.058,137.675Zm0,12.717c8.3,0,12.624,6.358,12.624,20.994,0,14.516-4.328,20.994-12.744,20.994s-12.744-6.358-12.744-20.994C571.194,156.87,575.522,150.392,584.058,150.392Zm76.344-12.6c-7.454,0-13.585,5.279-16.591,14.156L642.248,139.6H627.46v63.582h17.072V170.306c2.285-10.2,5.891-15.955,13.706-15.955a21.457,21.457,0,0,1,5.651.839l2.885-16.435A22.761,22.761,0,0,0,660.4,137.795Zm65.041,32.151c0-20.274-10.7-32.271-28.734-32.271-18.635,0-28.975,14.876-28.975,34.071,0,19.914,10.7,33.35,31.139,33.35a37.626,37.626,0,0,0,24.166-8.637l-7.094-9.6c-5.53,3.838-10.1,5.518-15.509,5.518-8.175,0-13.946-3.6-15.148-15.836h39.795C725.2,174.745,725.443,172.106,725.443,169.946Zm-16.952-4.079h-23.2c0.841-12,5.049-16.555,11.782-16.555,8.175,0,11.421,6.238,11.421,15.836v0.719Zm50.5-28.192c-15.389,0-25.248,8.158-25.248,18.955,0,9.6,6.011,15.956,18.876,19.555,11.782,3.239,14.066,4.8,14.066,9.6,0,4.319-4.087,6.958-10.46,6.958a28.083,28.083,0,0,1-17.072-6.238l-8.416,9.357c6.012,5.518,14.908,9.237,25.969,9.237,15.149,0,27.532-7.438,27.532-20.634,0-11.277-7.213-16.555-19.957-20.034-11.181-3.239-13.346-4.919-13.346-8.638,0-3.479,3.126-5.758,8.777-5.758,5.531,0,10.7,1.8,15.87,5.038l6.492-9.717A36.336,36.336,0,0,0,758.986,137.675ZM9.991,232.4A11.135,11.135,0,0,0,.87,236.907l2.508,2c2.007-2.275,3.785-3.368,6.43-3.368,3.056,0,5.154,1.957,5.154,5.279,0,5.051-2.645,8.009-13.5,19.386v3.049H19.249l0.456-3.231H5.841c9.532-9.647,13.135-13.606,13.135-19.386C18.976,235.951,15.51,232.4,9.991,232.4Zm30.324,0.455H22.757V236H36.439L25.265,262.527l3.512,1.138,11.538-27.942v-2.867Zm29.776-1.865L48.975,262.846l2.691,1.729L72.781,232.72ZM51.575,232.4c-4.2,0-7.251,2.913-7.251,7.6s3.056,7.645,7.251,7.645c4.241,0,7.3-2.958,7.3-7.645S55.816,232.4,51.575,232.4Zm0,2.594c3.01,0,3.831,2.549,3.831,5.006,0,2.548-.821,5.006-3.831,5.006S47.7,242.5,47.7,240C47.7,237.453,48.565,235,51.575,235Zm18.516,13.561c-4.241,0-7.3,2.913-7.3,7.6s3.1,7.645,7.3,7.645c4.241,0,7.251-2.958,7.251-7.645S74.332,248.556,70.091,248.556Zm0,2.64c3.056,0,3.877,2.5,3.877,4.96,0,2.548-.821,5.006-3.877,5.006-2.964,0-3.831-2.5-3.831-5.006C66.26,253.608,67.126,251.2,70.091,251.2Zm32.369-12.424c-4.834,0-8.483,2.731-8.483,6.508,0,3.367,2.052,5.506,7.252,6.871,4.7,1.275,5.928,2.185,5.928,4.688,0,2.412-2.1,3.868-5.336,3.868a10.881,10.881,0,0,1-6.795-2.367l-2.052,2.321a12.965,12.965,0,0,0,8.939,3.14c4.834,0,9.258-2.321,9.258-7.19,0-4.186-2.782-6.1-7.89-7.418-3.968-1.046-5.291-1.956-5.291-4s1.779-3.368,4.606-3.368a10.623,10.623,0,0,1,6.248,2.094l1.687-2.412A12.615,12.615,0,0,0,102.46,238.772Zm23.71,0c-6.7,0-10.58,5.052-10.58,12.56,0,7.6,3.831,12.469,10.535,12.469s10.58-5.051,10.58-12.56C136.705,243.6,132.92,238.772,126.17,238.772Zm0,3.095c4.151,0,6.431,3.049,6.431,9.374,0,6.417-2.326,9.466-6.476,9.466s-6.431-3.049-6.431-9.375C119.694,244.916,122.066,241.867,126.17,241.867Zm28.681-3.095a9.077,9.077,0,0,0-7.525,4.187l-0.319-3.641h-3.284v23.937h3.831V246.19c1.687-2.639,3.6-4.414,6.43-4.414,2.463,0,3.923,1.183,3.923,4.869v16.61h3.83V246.1C161.737,241.548,159.275,238.772,154.851,238.772Zm51.389,0c-3.192,0-5.472,1.775-7.205,4.415a5.993,5.993,0,0,0-6.02-4.415c-3.147,0-5.382,1.684-7.069,4.187l-0.32-3.641h-3.283v23.937h3.831V246.19c1.641-2.639,3.238-4.414,5.883-4.414,2.006,0,3.557,1.183,3.557,4.869v16.61h3.831V246.19c1.687-2.639,3.238-4.414,5.883-4.414,2.007,0,3.557,1.183,3.557,4.869v16.61h3.831V246.1C212.716,241.594,210.162,238.772,206.24,238.772Zm32.418,0.546h-3.831v17.157c-1.5,2.5-3.512,4.277-6.248,4.277-2.691,0-3.922-1.274-3.922-4.687V239.318h-3.831v17.157c0,4.687,2.508,7.326,6.7,7.326a8.189,8.189,0,0,0,7.571-4.414l0.273,3.868h3.284V239.318Zm10.62-11.285a2.641,2.641,0,1,0,2.737,2.639A2.572,2.572,0,0,0,249.278,228.033Zm1.916,11.285h-3.831v22.845c0,5.188-1.459,6.371-4.606,7.873l1.094,2.776c4.926-2.23,7.343-4.187,7.343-10.876V239.318Zm26.631,11.195c0-7.235-3.329-11.741-9.76-11.741-6.111,0-9.851,5.234-9.851,12.742,0,7.6,3.877,12.287,10.49,12.287a12.746,12.746,0,0,0,8.255-3l-1.688-2.276a10.211,10.211,0,0,1-6.294,2.139c-3.6,0-6.339-2.275-6.7-8.054h15.461C277.779,252.106,277.825,251.332,277.825,250.513Zm-3.785-.728H262.273c0.32-5.6,2.554-7.964,5.884-7.964,3.967,0,5.883,2.776,5.883,7.6v0.364Zm20.7-11.013c-3.01,0-5.244,1.866-6.521,5.552l-0.365-5.006h-3.284v23.937H288.4V249.376c1.049-4.688,2.828-6.872,5.883-6.872a7.326,7.326,0,0,1,2.1.273l0.73-3.732A9.969,9.969,0,0,0,294.739,238.772ZM319,250.513c0-7.235-3.329-11.741-9.76-11.741-6.111,0-9.85,5.234-9.85,12.742,0,7.6,3.876,12.287,10.489,12.287a12.744,12.744,0,0,0,8.255-3l-1.688-2.276a10.21,10.21,0,0,1-6.293,2.139c-3.6,0-6.34-2.275-6.7-8.054h15.461C318.953,252.106,319,251.332,319,250.513Zm-3.785-.728H303.446c0.32-5.6,2.554-7.964,5.884-7.964,3.967,0,5.883,2.776,5.883,7.6v0.364Zm16.96-11.013c-4.834,0-8.483,2.731-8.483,6.508,0,3.367,2.052,5.506,7.251,6.871,4.7,1.275,5.929,2.185,5.929,4.688,0,2.412-2.1,3.868-5.336,3.868a10.881,10.881,0,0,1-6.8-2.367l-2.052,2.321a12.963,12.963,0,0,0,8.939,3.14c4.834,0,9.258-2.321,9.258-7.19,0-4.186-2.782-6.1-7.89-7.418-3.968-1.046-5.291-1.956-5.291-4s1.779-3.368,4.607-3.368a10.623,10.623,0,0,1,6.248,2.094l1.687-2.412A12.615,12.615,0,0,0,332.173,238.772Zm15.684,19.159a2.935,2.935,0,1,0,2.964,2.912A2.907,2.907,0,0,0,347.857,257.931Zm26.172-25.985h-3.922v31.309h16.418l0.456-3.458H374.029V231.946Zm33.516,25.8v-11.1c0-4.96-2.6-7.873-8.3-7.873a22.435,22.435,0,0,0-8.118,1.639l0.958,2.821a20.2,20.2,0,0,1,6.476-1.32c3.466,0,5.153,1.366,5.153,4.915v1.911h-3.922c-6.567,0-10.4,2.731-10.4,7.828,0,4.277,2.828,7.235,7.571,7.235a8.09,8.09,0,0,0,7.205-3.686c0.639,2.367,2.144,3.368,4.47,3.686l0.912-2.685C408.275,260.661,407.545,259.979,407.545,257.749Zm-9.714,3.14c-2.873,0-4.378-1.593-4.378-4.5,0-3.413,2.371-5.1,6.841-5.1h3.42v5.734C402.3,259.569,400.431,260.889,397.831,260.889Zm48.608-10.376c0-7.235-3.33-11.741-9.76-11.741-6.111,0-9.851,5.234-9.851,12.742,0,7.6,3.877,12.287,10.489,12.287a12.744,12.744,0,0,0,8.255-3l-1.687-2.276a10.213,10.213,0,0,1-6.294,2.139c-3.6,0-6.339-2.275-6.7-8.054h15.46C446.393,252.106,446.439,251.332,446.439,250.513Zm-3.786-.728H430.887c0.319-5.6,2.554-7.964,5.883-7.964,3.968,0,5.883,2.776,5.883,7.6v0.364Zm34.427-11.013c-3.192,0-5.472,1.775-7.2,4.415a5.993,5.993,0,0,0-6.02-4.415c-3.147,0-5.382,1.684-7.069,4.187l-0.32-3.641h-3.283v23.937h3.831V246.19c1.642-2.639,3.238-4.414,5.883-4.414,2.007,0,3.557,1.183,3.557,4.869v16.61h3.831V246.19c1.688-2.639,3.238-4.414,5.883-4.414,2.007,0,3.558,1.183,3.558,4.869v16.61h3.83V246.1C483.556,241.594,481,238.772,477.08,238.772Zm25.623,0a8.672,8.672,0,0,0-7.161,3.868l-0.319-3.322H491.94v33.539l3.831-.455V260.934a7.822,7.822,0,0,0,6.43,2.867c6.111,0,9.349-5.233,9.349-12.56C511.55,243.642,508.951,238.772,502.7,238.772Zm-1.414,21.889a6.481,6.481,0,0,1-5.518-3.094V245.689c1.368-2.047,3.329-3.868,6.02-3.868,3.739,0,5.609,3.049,5.609,9.42C507.4,257.658,505.257,260.661,501.289,260.661Zm27.4-21.889c-3.01,0-5.244,1.866-6.521,5.552l-0.365-5.006h-3.284v23.937h3.831V249.376c1.049-4.688,2.828-6.872,5.883-6.872a7.326,7.326,0,0,1,2.1.273l0.73-3.732A9.969,9.969,0,0,0,528.692,238.772Zm24.259,11.741c0-7.235-3.329-11.741-9.76-11.741-6.111,0-9.851,5.234-9.851,12.742,0,7.6,3.877,12.287,10.49,12.287a12.741,12.741,0,0,0,8.254-3l-1.687-2.276a10.211,10.211,0,0,1-6.294,2.139c-3.6,0-6.339-2.275-6.7-8.054H552.86C552.905,252.106,552.951,251.332,552.951,250.513Zm-3.785-.728H537.4c0.32-5.6,2.554-7.964,5.883-7.964,3.968,0,5.884,2.776,5.884,7.6v0.364Zm16.96-11.013c-4.835,0-8.483,2.731-8.483,6.508,0,3.367,2.052,5.506,7.251,6.871,4.7,1.275,5.929,2.185,5.929,4.688,0,2.412-2.1,3.868-5.336,3.868a10.879,10.879,0,0,1-6.795-2.367l-2.052,2.321a12.963,12.963,0,0,0,8.938,3.14c4.835,0,9.258-2.321,9.258-7.19,0-4.186-2.782-6.1-7.889-7.418-3.968-1.046-5.291-1.956-5.291-4s1.779-3.368,4.606-3.368a10.623,10.623,0,0,1,6.249,2.094L574.2,241.5A12.615,12.615,0,0,0,566.126,238.772Zm30.551,18.977v-11.1c0-4.96-2.6-7.873-8.3-7.873a22.435,22.435,0,0,0-8.118,1.639l0.958,2.821a20.19,20.19,0,0,1,6.476-1.32c3.466,0,5.153,1.366,5.153,4.915v1.911h-3.922c-6.567,0-10.4,2.731-10.4,7.828,0,4.277,2.828,7.235,7.571,7.235a8.09,8.09,0,0,0,7.205-3.686c0.639,2.367,2.144,3.368,4.47,3.686l0.912-2.685C597.407,260.661,596.677,259.979,596.677,257.749Zm-9.714,3.14c-2.873,0-4.378-1.593-4.378-4.5,0-3.413,2.371-5.1,6.841-5.1h3.42v5.734C591.433,259.569,589.563,260.889,586.963,260.889Zm32.509-32.856a2.641,2.641,0,1,0,2.736,2.639A2.572,2.572,0,0,0,619.472,228.033Zm1.961,11.285H617.6v23.937h3.831V239.318Zm19.79-.546a9.075,9.075,0,0,0-7.525,4.187l-0.32-3.641H630.1v23.937h3.831V246.19c1.687-2.639,3.6-4.414,6.43-4.414,2.463,0,3.922,1.183,3.922,4.869v16.61h3.831V246.1C648.109,241.548,645.646,238.772,641.223,238.772Zm32.329,0.546h-4.059l-6.43,20.524-6.522-20.524h-4.2l8.346,23.937h4.652Zm6.7-11.285a2.641,2.641,0,1,0,2.736,2.639A2.572,2.572,0,0,0,680.252,228.033Zm1.961,11.285h-3.831v23.937h3.831V239.318Zm18.832-.546c-3.01,0-5.245,1.866-6.522,5.552l-0.365-5.006h-3.283v23.937h3.831V249.376c1.049-4.688,2.827-6.872,5.883-6.872a7.331,7.331,0,0,1,2.1.273l0.729-3.732A9.955,9.955,0,0,0,701.045,238.772Zm17.645,20.843a6.4,6.4,0,0,1-3.329,1c-2.143,0-3.01-1.183-3.01-3.686V242.276h5.382l0.41-2.958h-5.792V233.4l-3.831.41v5.506h-4.15v2.958h4.15v14.836c0,4.368,2.372,6.689,6.34,6.689a9.19,9.19,0,0,0,5.29-1.592Zm7.659-31.582a2.641,2.641,0,1,0,2.736,2.639A2.572,2.572,0,0,0,726.349,228.033Zm1.961,11.285h-3.831v23.937h3.831V239.318Zm21.112-12.332-8.939,5.1,1.186,2.048,9.486-3.869Zm-3.512,11.786c-6.7,0-10.58,5.052-10.58,12.56,0,7.6,3.831,12.469,10.535,12.469s10.58-5.051,10.58-12.56C756.445,243.6,752.66,238.772,745.91,238.772Zm0,3.095c4.151,0,6.431,3.049,6.431,9.374,0,6.417-2.326,9.466-6.476,9.466s-6.431-3.049-6.431-9.375C739.434,244.916,741.806,241.867,745.91,241.867ZM9.854,287a12.206,12.206,0,0,0-8.62,3.549l2.007,2.276a8.869,8.869,0,0,1,6.385-2.731c3.192,0,5.245,1.821,5.245,4.824,0,3.686-2.6,5.552-5.655,5.552H7.665l-0.456,2.958H9.444c3.785,0,6.2,1.365,6.2,5.688,0,3.686-2.372,6.144-6.339,6.144a8.667,8.667,0,0,1-6.613-3.049l-2.326,2.139a11.427,11.427,0,0,0,9.076,4.05c6.248,0,10.216-3.959,10.216-9.284,0-4.641-3.056-7.1-6.886-7.417,3.42-.774,5.974-3.095,5.974-7.009C18.748,290.548,15.555,287,9.854,287Zm25.078,0c-6.7,0-10.033,5.506-10.033,15.654S28.229,318.4,34.933,318.4s10.033-5.6,10.033-15.7C44.966,292.551,41.637,287,34.933,287Zm0,3.049c3.922,0,6.066,3.595,6.066,12.651,0,9.01-2.143,12.651-6.066,12.651-3.968,0-6.066-3.641-6.066-12.7C28.867,293.643,30.965,290.048,34.933,290.048ZM52.3,312.528a2.936,2.936,0,1,0,2.964,2.913A2.907,2.907,0,0,0,52.3,312.528ZM68.218,287a12.206,12.206,0,0,0-8.62,3.549l2.007,2.276a8.869,8.869,0,0,1,6.385-2.731c3.192,0,5.245,1.821,5.245,4.824,0,3.686-2.6,5.552-5.655,5.552H66.028l-0.456,2.958h2.235c3.785,0,6.2,1.365,6.2,5.688,0,3.686-2.371,6.144-6.339,6.144a8.667,8.667,0,0,1-6.613-3.049l-2.326,2.139a11.426,11.426,0,0,0,9.076,4.05c6.248,0,10.216-3.959,10.216-9.284,0-4.641-3.056-7.1-6.886-7.417,3.42-.774,5.974-3.095,5.974-7.009C77.111,290.548,73.918,287,68.218,287Zm22.3,0a11.134,11.134,0,0,0-9.121,4.5l2.508,2c2.007-2.275,3.785-3.367,6.43-3.367,3.056,0,5.153,1.957,5.153,5.279,0,5.051-2.645,8.009-13.5,19.386v3.049H99.772l0.456-3.231H86.364C95.9,304.974,99.5,301.015,99.5,295.236,99.5,290.548,96.032,287,90.514,287Zm39.715,6.371a8.914,8.914,0,0,0-7.3,4V283.859l-3.831.455v33.539h3.831V300.742c1.688-2.594,3.649-4.369,6.385-4.369,2.417,0,3.968,1.183,3.968,4.87v16.61h3.831V300.7C137.116,296.191,134.607,293.37,130.229,293.37Zm24.211,0c-6.7,0-10.58,5.051-10.58,12.56,0,7.6,3.831,12.469,10.535,12.469s10.58-5.052,10.58-12.56C164.975,298.194,161.19,293.37,154.44,293.37Zm0,3.094c4.15,0,6.431,3.049,6.431,9.375,0,6.416-2.326,9.465-6.476,9.465s-6.431-3.049-6.431-9.374C147.964,299.513,150.336,296.464,154.44,296.464Zm27.723-3.094c-3.01,0-5.245,1.866-6.522,5.552l-0.365-5.006h-3.283v23.937h3.831v-13.88c1.049-4.687,2.827-6.872,5.883-6.872a7.331,7.331,0,0,1,2.1.273l0.729-3.731A9.955,9.955,0,0,0,182.163,293.37Zm22.024,18.976v-11.1c0-4.961-2.6-7.873-8.3-7.873a22.454,22.454,0,0,0-8.118,1.638l0.958,2.821a20.218,20.218,0,0,1,6.476-1.319c3.466,0,5.153,1.365,5.153,4.915v1.911h-3.922c-6.567,0-10.4,2.73-10.4,7.827,0,4.278,2.828,7.236,7.571,7.236a8.094,8.094,0,0,0,7.206-3.686c0.638,2.366,2.143,3.367,4.469,3.686l0.912-2.685C204.917,315.259,204.187,314.576,204.187,312.346Zm-9.714,3.14c-2.873,0-4.378-1.592-4.378-4.5,0-3.413,2.372-5.1,6.841-5.1h3.42v5.734C198.943,314.167,197.073,315.486,194.473,315.486Zm24.85-22.116c-4.834,0-8.483,2.73-8.483,6.507,0,3.368,2.053,5.507,7.252,6.872,4.7,1.274,5.928,2.184,5.928,4.687,0,2.412-2.1,3.868-5.335,3.868a10.889,10.889,0,0,1-6.8-2.366l-2.052,2.321a12.968,12.968,0,0,0,8.939,3.14c4.834,0,9.258-2.321,9.258-7.19,0-4.187-2.782-6.1-7.89-7.418-3.968-1.047-5.29-1.957-5.29-4s1.778-3.367,4.606-3.367a10.621,10.621,0,0,1,6.248,2.093L227.4,296.1A12.614,12.614,0,0,0,219.323,293.37Zm41.266-9.557v12.56a8.7,8.7,0,0,0-6.522-3c-5.883,0-9.4,5.279-9.4,12.605,0,7.509,3.238,12.424,9.03,12.424a8.087,8.087,0,0,0,6.978-3.914l0.411,3.368h3.329V284.268Zm-6.111,31.537c-3.6,0-5.7-3.049-5.7-9.42s2.372-9.511,6.111-9.511c2.509,0,4.242,1.274,5.7,3.231v11.923C258.993,313.985,257.26,315.35,254.478,315.35Zm36.57-10.239c0-7.236-3.329-11.741-9.76-11.741-6.111,0-9.851,5.233-9.851,12.742,0,7.6,3.877,12.287,10.49,12.287a12.744,12.744,0,0,0,8.254-3l-1.687-2.275a10.219,10.219,0,0,1-6.294,2.139c-3.6,0-6.339-2.276-6.7-8.055h15.461C291,306.7,291.048,305.93,291.048,305.111Zm-3.785-.728H275.5c0.319-5.6,2.554-7.964,5.883-7.964,3.968,0,5.884,2.776,5.884,7.6v0.365Zm31.5-11.013c-6.431,0-10.4,5.051-10.4,12.7,0,7.736,4.013,12.333,10.4,12.333a10.907,10.907,0,0,0,7.206-2.64l-1.779-2.5a8.623,8.623,0,0,1-5.29,1.866c-3.922,0-6.431-2.73-6.431-9.1,0-6.417,2.509-9.466,6.431-9.466a8.178,8.178,0,0,1,5.2,1.775l1.87-2.412A10.535,10.535,0,0,0,318.768,293.37Zm28.5,18.976v-11.1c0-4.961-2.6-7.873-8.3-7.873a22.458,22.458,0,0,0-8.118,1.638l0.958,2.821a20.218,20.218,0,0,1,6.476-1.319c3.466,0,5.154,1.365,5.154,4.915v1.911h-3.922c-6.568,0-10.4,2.73-10.4,7.827,0,4.278,2.828,7.236,7.571,7.236a8.094,8.094,0,0,0,7.206-3.686c0.638,2.366,2.143,3.367,4.469,3.686l0.912-2.685C348,315.259,347.268,314.576,347.268,312.346Zm-9.714,3.14c-2.874,0-4.379-1.592-4.379-4.5,0-3.413,2.372-5.1,6.841-5.1h3.421v5.734C342.023,314.167,340.153,315.486,337.554,315.486Zm29.182-22.116a8.668,8.668,0,0,0-7.16,3.868l-0.32-3.322h-3.283v33.539L359.8,327V315.532a7.825,7.825,0,0,0,6.43,2.867c6.111,0,9.349-5.234,9.349-12.56C375.583,298.239,372.984,293.37,366.736,293.37Zm-1.414,21.889a6.482,6.482,0,0,1-5.518-3.1V300.287c1.368-2.048,3.329-3.868,6.02-3.868,3.739,0,5.609,3.049,5.609,9.42C371.433,312.255,369.29,315.259,365.322,315.259Zm32.785-2.913v-11.1c0-4.961-2.6-7.873-8.3-7.873a22.454,22.454,0,0,0-8.118,1.638l0.958,2.821a20.218,20.218,0,0,1,6.476-1.319c3.466,0,5.154,1.365,5.154,4.915v1.911h-3.923c-6.567,0-10.4,2.73-10.4,7.827,0,4.278,2.828,7.236,7.571,7.236a8.094,8.094,0,0,0,7.206-3.686c0.638,2.366,2.143,3.367,4.469,3.686l0.912-2.685C398.837,315.259,398.107,314.576,398.107,312.346Zm-9.714,3.14c-2.873,0-4.378-1.592-4.378-4.5,0-3.413,2.372-5.1,6.841-5.1h3.421v5.734C392.863,314.167,390.993,315.486,388.393,315.486Zm27.176-22.116c-6.43,0-10.4,5.051-10.4,12.7,0,7.736,4.013,12.333,10.4,12.333a10.907,10.907,0,0,0,7.206-2.64l-1.779-2.5a8.623,8.623,0,0,1-5.29,1.866c-3.922,0-6.431-2.73-6.431-9.1,0-6.417,2.509-9.466,6.431-9.466a8.178,8.178,0,0,1,5.2,1.775l1.87-2.412A10.535,10.535,0,0,0,415.569,293.37Zm14.817-10.74a2.641,2.641,0,1,0,2.737,2.639A2.572,2.572,0,0,0,430.386,282.63Zm1.961,11.286h-3.83v23.937h3.83V293.916Zm19.152,20.3a6.39,6.39,0,0,1-3.329,1c-2.144,0-3.01-1.183-3.01-3.686V296.874h5.381l0.411-2.958H445.16V288l-3.831.409v5.507h-4.151v2.958h4.151v14.835c0,4.369,2.371,6.69,6.339,6.69a9.179,9.179,0,0,0,5.29-1.593Zm21.568-1.866v-11.1c0-4.961-2.6-7.873-8.3-7.873a22.45,22.45,0,0,0-8.118,1.638l0.957,2.821a20.218,20.218,0,0,1,6.476-1.319c3.467,0,5.154,1.365,5.154,4.915v1.911h-3.922c-6.567,0-10.4,2.73-10.4,7.827,0,4.278,2.827,7.236,7.57,7.236a8.094,8.094,0,0,0,7.206-3.686c0.638,2.366,2.143,3.367,4.469,3.686l0.913-2.685C473.8,315.259,473.067,314.576,473.067,312.346Zm-9.714,3.14c-2.873,0-4.378-1.592-4.378-4.5,0-3.413,2.371-5.1,6.84-5.1h3.421v5.734C467.822,314.167,465.952,315.486,463.353,315.486Zm27.175-22.116c-6.43,0-10.4,5.051-10.4,12.7,0,7.736,4.014,12.333,10.4,12.333a10.9,10.9,0,0,0,7.206-2.64l-1.779-2.5a8.621,8.621,0,0,1-5.29,1.866c-3.922,0-6.43-2.73-6.43-9.1,0-6.417,2.508-9.466,6.43-9.466a8.178,8.178,0,0,1,5.2,1.775l1.87-2.412A10.535,10.535,0,0,0,490.528,293.37Zm14.818-10.74a2.641,2.641,0,1,0,2.736,2.639A2.573,2.573,0,0,0,505.346,282.63Zm1.961,11.286h-3.831v23.937h3.831V293.916Zm21.112-12.333-8.939,5.1,1.186,2.048,9.486-3.868Zm-3.511,11.787c-6.705,0-10.581,5.051-10.581,12.56,0,7.6,3.831,12.469,10.535,12.469s10.581-5.052,10.581-12.56C535.443,298.194,531.657,293.37,524.908,293.37Zm0,3.094c4.15,0,6.43,3.049,6.43,9.375,0,6.416-2.326,9.465-6.476,9.465s-6.43-3.049-6.43-9.374C518.432,299.513,520.8,296.464,524.908,296.464Zm28.68-3.094a9.078,9.078,0,0,0-7.525,4.186l-0.319-3.64H542.46v23.937h3.831V300.787c1.688-2.639,3.6-4.414,6.431-4.414,2.462,0,3.922,1.183,3.922,4.87v16.61h3.831V300.7C560.475,296.146,558.012,293.37,553.588,293.37Zm38.255,0a8.668,8.668,0,0,0-7.16,3.868l-0.32-3.322H581.08v33.539l3.831-.455V315.532a7.825,7.825,0,0,0,6.43,2.867c6.111,0,9.349-5.234,9.349-12.56C600.69,298.239,598.091,293.37,591.843,293.37Zm-1.414,21.889a6.482,6.482,0,0,1-5.518-3.1V300.287c1.368-2.048,3.329-3.868,6.02-3.868,3.739,0,5.609,3.049,5.609,9.42C596.54,312.255,594.4,315.259,590.429,315.259ZM616.6,293.37c-6.7,0-10.58,5.051-10.58,12.56,0,7.6,3.83,12.469,10.535,12.469s10.58-5.052,10.58-12.56C627.136,298.194,623.351,293.37,616.6,293.37Zm0,3.094c4.15,0,6.431,3.049,6.431,9.375,0,6.416-2.326,9.465-6.476,9.465s-6.431-3.049-6.431-9.374C610.125,299.513,612.5,296.464,616.6,296.464Zm27.723-3.094c-3.01,0-5.245,1.866-6.522,5.552l-0.365-5.006h-3.283v23.937h3.831v-13.88c1.049-4.687,2.827-6.872,5.883-6.872a7.331,7.331,0,0,1,2.1.273l0.729-3.731A9.955,9.955,0,0,0,644.324,293.37Zm30.138,0a8.668,8.668,0,0,0-7.16,3.868l-0.319-3.322H663.7v33.539L667.53,327V315.532a7.827,7.827,0,0,0,6.431,2.867c6.111,0,9.349-5.234,9.349-12.56C683.31,298.239,680.71,293.37,674.462,293.37Zm-1.413,21.889a6.485,6.485,0,0,1-5.519-3.1V300.287c1.369-2.048,3.33-3.868,6.02-3.868,3.74,0,5.61,3.049,5.61,9.42C679.16,312.255,677.016,315.259,673.049,315.259Zm35.2-10.148c0-7.236-3.329-11.741-9.76-11.741-6.111,0-9.851,5.233-9.851,12.742,0,7.6,3.877,12.287,10.49,12.287a12.744,12.744,0,0,0,8.254-3L705.7,313.12a10.219,10.219,0,0,1-6.294,2.139c-3.6,0-6.339-2.276-6.7-8.055H708.16C708.205,306.7,708.251,305.93,708.251,305.111Zm-3.786-.728H692.7c0.319-5.6,2.554-7.964,5.883-7.964,3.968,0,5.883,2.776,5.883,7.6v0.365Zm20.7-11.013c-3.01,0-5.245,1.866-6.522,5.552l-0.365-5.006H715v23.937h3.831v-13.88c1.049-4.687,2.827-6.872,5.883-6.872a7.331,7.331,0,0,1,2.1.273l0.73-3.731A9.969,9.969,0,0,0,725.165,293.37Zm12.9,0c-4.835,0-8.483,2.73-8.483,6.507,0,3.368,2.052,5.507,7.251,6.872,4.7,1.274,5.929,2.184,5.929,4.687,0,2.412-2.1,3.868-5.336,3.868a10.884,10.884,0,0,1-6.795-2.366l-2.052,2.321a12.967,12.967,0,0,0,8.938,3.14c4.835,0,9.258-2.321,9.258-7.19,0-4.187-2.782-6.1-7.889-7.418-3.968-1.047-5.291-1.957-5.291-4s1.779-3.367,4.606-3.367a10.622,10.622,0,0,1,6.249,2.093l1.687-2.412A12.614,12.614,0,0,0,738.068,293.37Zm23.71,0c-6.7,0-10.58,5.051-10.58,12.56,0,7.6,3.831,12.469,10.535,12.469s10.58-5.052,10.58-12.56C772.313,298.194,768.528,293.37,761.778,293.37Zm0,3.094c4.151,0,6.431,3.049,6.431,9.375,0,6.416-2.326,9.465-6.476,9.465s-6.431-3.049-6.431-9.374C755.3,299.513,757.674,296.464,761.778,296.464Zm28.681-3.094a9.077,9.077,0,0,0-7.525,4.186l-0.319-3.64h-3.284v23.937h3.831V300.787c1.687-2.639,3.6-4.414,6.43-4.414,2.463,0,3.922,1.183,3.922,4.87v16.61h3.831V300.7C797.345,296.146,794.883,293.37,790.459,293.37Zm31.052,18.976v-11.1c0-4.961-2.6-7.873-8.3-7.873a22.449,22.449,0,0,0-8.117,1.638l0.957,2.821a20.218,20.218,0,0,1,6.476-1.319c3.467,0,5.154,1.365,5.154,4.915v1.911h-3.922c-6.568,0-10.4,2.73-10.4,7.827,0,4.278,2.827,7.236,7.57,7.236a8.094,8.094,0,0,0,7.206-3.686c0.639,2.366,2.143,3.367,4.469,3.686l0.913-2.685C822.241,315.259,821.511,314.576,821.511,312.346Zm-9.714,3.14c-2.873,0-4.378-1.592-4.378-4.5,0-3.413,2.371-5.1,6.84-5.1h3.421v5.734C816.266,314.167,814.4,315.486,811.8,315.486Z"/>
</svg>
